<svg fill="none" height="189" viewBox="0 0 189 189" width="189" xmlns="http://www.w3.org/2000/svg"><g stroke="#000" stroke-linecap="round" stroke-linejoin="round" stroke-miterlimit="10" stroke-width="3"><path d="m94.562 187c51.086 0 92.5-41.414 92.5-92.5 0-51.0863-41.414-92.5-92.5-92.5-51.0863 0-92.49999 41.4137-92.49999 92.5 0 51.086 41.41369 92.5 92.49999 92.5z" fill="#ff3801"/><path d="m105.436 50.5664h-21.7481c-21.0716 47.7126-65.4209 118.0946-81.6879 136.7346h185.124c-16.267-18.64-60.626-89.022-81.688-136.7346z" fill="#cbccbe"/><path d="m104.062 142c0 5.523-4.2527 10-9.5 10-5.2472 0-9.5-4.477-9.5-10"/><path d="m73.562 124c2.4853 0 4.5-2.239 4.5-5s-2.0147-5-4.5-5-4.5 2.239-4.5 5 2.0147 5 4.5 5z" fill="#000"/><path d="m115.562 124c2.485 0 4.5-2.239 4.5-5s-2.015-5-4.5-5-4.5 2.239-4.5 5 2.015 5 4.5 5z" fill="#000"/><path d="m105.621 51h-22.1381c-4.3218 9.3907-9.6019 19.6917-15.4209 30.2897l16.1695-5.8069 7.5258 14.5172 12.4067-11.2592 16.898 2.5585c-5.829-10.6077-11.119-20.8991-15.441-30.2993z" fill="#fff"/></g></svg>