<svg fill="none" height="205" viewBox="0 0 250 205" width="250" xmlns="http://www.w3.org/2000/svg"><g stroke-miterlimit="10" stroke-width="3"><path d="m102.673 202.361c-3.5996-1-5.6996-4.6-4.7996-8.2l48.8996-182.2996c1-3.60001 4.6-5.70001 8.2-4.80001 3.6 1 5.7 4.60001 4.8 8.20001l-48.9 182.2996c-1 3.7-4.7 5.8-8.2 4.8z" fill="#ac4300" stroke="#000" stroke-linecap="round" stroke-linejoin="round"/><g stroke="#231f20"><path d="m144.7 19.0948-17.346 66.7851 103.275 26.8241 17.346-66.7848z" fill="#3b68fb"/><path d="m141.21 32.4076-3.469 13.357 103.275 26.8244 3.469-13.357z" fill="#fff"/><path d="m134.314 59.2114-3.469 13.357 103.275 26.8243 3.469-13.357z" fill="#fff"/><path d="m184.812 29.5349-40.071-10.4079-10.408 40.071 40.071 10.408z" fill="#ff3801"/><path d="m173.073 43.8607-8.8-2.3 2.3-8.8-7.5-2-2.3 8.8-8.8-2.3-1.9 7.6 8.8 2.3-2.3 8.7 7.5 2 2.3-8.8 8.8 2.3z" fill="#fff"/></g><path d="m154.773 21.5609c5.4-.6 9.3-5.4 8.7-10.8-.6-5.39998-5.4-9.29998-10.8-8.69998s-9.3 5.4-8.7 10.79998c.6 5.4 5.4 9.3 10.8 8.7z" fill="#ff5" stroke="#110b15" stroke-linecap="round" stroke-linejoin="round"/><path d="m139.073 197.661-48.7996-182.3003c-1-3.6 1.2-7.30002 4.8-8.20002 3.6-1 7.2996 1.2 8.1996 4.80002l48.9 182.3003c1 3.6-1.2 7.3-4.8 8.2s-7.3-1.2-8.3-4.8z" fill="#ac4300" stroke="#000" stroke-linecap="round" stroke-linejoin="round"/><g stroke="#231f20"><path d="m105.275 19.0565-103.275 26.8244 17.3466 66.7851 103.2754-26.8244z" fill="#3b68fb"/><path d="m108.731 32.4743-103.27452 26.8245 3.4693 13.3571 103.27522-26.8246z" fill="#fff"/><path d="m115.721 59.1629-103.275 26.8244 3.4693 13.357 103.2747-26.8244z" fill="#fff"/><path d="m75.6382 69.5583 40.0708-10.4079-10.408-40.0711-40.0707 10.408z" fill="#ff3801"/><path d="m76.8734 43.8607 8.8-2.3-2.3-8.8 7.5-2 2.3 8.8 8.7996-2.3 2 7.6-8.7996 2.3 2.3 8.7-7.6 2-2.3-8.8-8.7 2.3z" fill="#fff"/></g><path d="m105.973 12.8607c.6-5.39996-3.3-10.19996-8.6996-10.79996-5.3-.5-10.2 3.4-10.7 8.79996-.6 5.4 3.3 10.2 8.7 10.8 5.2996.5 10.1996-3.4 10.6996-8.8z" fill="#ff5" stroke="#110b15" stroke-linecap="round" stroke-linejoin="round"/></g></svg>