<svg fill="none" height="205" viewBox="0 0 212 205" width="212" xmlns="http://www.w3.org/2000/svg"><g fill="#ffd200"><path d="m154.006 171.185h-98.9799v31.415h98.9799z" stroke="#000" stroke-linecap="round" stroke-linejoin="round" stroke-miterlimit="10" stroke-width="3"/><path d="m55.0261 171.114 10.3116-17.214h79.1533l9.515 17.214z" stroke="#000" stroke-linecap="round" stroke-linejoin="round" stroke-miterlimit="10" stroke-width="3"/><path d="m101.827 92.3915s-15.4559 25.9895-15.4442 66.0295c0 7.734 39.9932 8.273 39.9932.152-.012-45.64-15.831-67.658-15.831-67.658"/></g><path d="m101.827 92.3915s-15.4559 25.9895-15.4442 66.0295c0 7.734 39.9932 8.273 39.9932.152-.012-45.64-15.831-67.658-15.831-67.658" stroke="#000" stroke-linecap="round" stroke-linejoin="round" stroke-miterlimit="10" stroke-width="3"/><g fill="#ffd200"><path d="m52.5 26.748s-28.0924 0-36.0136 0c-11.61234 0-19.01797 13.4169-11.35455 28.5094 7.92125 15.5729 20.78735 30.8412 31.40365 38.0124 11.3545 7.6522 23.2246 4.2184 23.2246 4.2184zm-1.5 48.752c-8.718-1.5819-20.5226-14.1728-23.6864-20.7699-2.5193-5.2379-2.906-7.9212 1.8514-7.9212h21.835z" stroke="#000" stroke-miterlimit="10" stroke-width="3"/><path d="m152.049 97.4882s11.882 3.4338 23.225-4.2184c10.628-7.1595 23.494-22.4395 31.403-38.0124 7.676-15.0925.27-28.5094-11.354-28.5094-7.921 0-32.2 0-32.2 0zm11.355-50.6793h19.264c4.745 0 4.359 2.6833 1.851 7.9212-3.164 6.5971-15.313 19.688-24.019 21.2699z" stroke="#000" stroke-miterlimit="10" stroke-width="3"/><path d="m163.345 24.6621v33.2902c0 44.9377-30.279 78.8837-57.862 78.8837-27.5838 0-56.679-33.946-56.679-78.8837 0-11.917 0-33.2902 0-33.2902"/></g><path d="m163.345 24.6621v33.2902c0 44.9377-30.279 78.8837-57.862 78.8837-27.5838 0-56.679-33.946-56.679-78.8837 0-11.917 0-33.2902 0-33.2902" stroke="#000" stroke-miterlimit="10" stroke-width="3"/><path d="m106.104 47.3243c31.652 0 57.311-10.1462 57.311-22.6621 0-12.516-25.659-22.6622-57.311-22.6622-31.6524 0-57.3117 10.1462-57.3117 22.6622 0 12.5159 25.6593 22.6621 57.3117 22.6621z" fill="#ffd200" stroke="#000" stroke-miterlimit="10" stroke-width="3"/><path d="m106.104 46.774c23.589 0 42.711-6.3532 42.711-14.1902 0-7.8371-19.122-14.1902-42.711-14.1902-23.5889 0-42.7114 6.3531-42.7114 14.1902 0 7.837 19.1225 14.1902 42.7114 14.1902z" fill="#000" stroke="#000" stroke-miterlimit="10" stroke-width="3"/></svg>