<svg fill="none" height="200" viewBox="0 0 200 200" width="200" xmlns="http://www.w3.org/2000/svg"><g stroke="#000" stroke-width="3"><path d="m198.069 100.027c0 54.108-43.864 97.973-97.973 97.973-54.108 0-97.97259-43.865-97.97259-97.973 0-54.1087 43.86459-97.97329 97.97259-97.97329 54.109 0 97.973 43.86459 97.973 97.97329z" fill="#ff5"/><path d="m100.622 100.026-8.668 23.903h12.608" stroke-linecap="round" stroke-miterlimit="10"/><path d="m81.1848 135.224s3.4146 9.718 18.9112 9.718c15.498 0 18.912-9.718 18.912-9.718" stroke-linecap="round" stroke-miterlimit="10"/><path d="m171.278 130.495c0 10.244-8.405 18.386-18.387 18.386-10.243 0-18.386-8.405-18.386-18.386 0-10.244 8.143-18.386 18.386-18.386 10.244-.263 18.387 8.142 18.387 18.386z" fill="#ff3801"/><path d="m65.9503 130.496c0 10.244-8.4052 18.386-18.3863 18.386-10.2439 0-18.3864-8.405-18.3864-18.386 0-10.244 8.4052-18.386 18.3864-18.386 9.9811-.263 18.3863 8.142 18.3863 18.386z" fill="#ff3801"/><path d="m197.807 91.8853c-3.415-39.1366-29.944-74.0707-69.868-85.89051-52.0074-15.23441-106.3785 14.44641-121.87558 66.19081-3.67727 12.3452-4.72792 24.6903-3.67727 36.7724l22.06365-20.75 17.073 4.9906 18.649-27.5795 18.9117 14.1837 19.437-33.8834 20.2245 29.9435 23.377-9.7185 17.861 20.4877 20.751-11.0318z" fill="#ac4300"/><g fill="#000"><path d="m135.369 100.291c0 4.162-3.531 7.693-7.693 7.693s-7.693-3.531-7.693-7.693c0-4.1623 3.531-7.6933 7.693-7.6933 4.19 0 7.693 3.2962 7.693 7.6933z"/><path d="m80.2101 100.291c0 4.162-3.531 7.693-7.6932 7.693-4.1621 0-7.6932-3.531-7.6932-7.693 0-4.1623 3.5311-7.6933 7.6932-7.6933 4.4248 0 7.6932 3.2683 7.6932 7.6933z"/></g></g></svg>