<svg fill="none" height="170" viewBox="0 0 195 170" width="195" xmlns="http://www.w3.org/2000/svg"><g stroke="#000" stroke-linecap="round" stroke-linejoin="round" stroke-miterlimit="10" stroke-width="3"><path d="m97.3061 2-95.69557 165.7h191.27847z" fill="#ec00ff"/><path d="m104.374 103.044c0-3.9263-3.141-7.1797-7.1802-7.1797-4.0387 0-7.1799 3.1412-7.1799 7.1797"/><path d="m123.208 87.5025c.402-2.2569-1.102-4.4123-3.359-4.8142s-4.412 1.1019-4.814 3.3589 1.102 4.4124 3.359 4.8142c2.257.4019 4.412-1.1019 4.814-3.3589z" fill="#000"/><path d="m79.4067 87.5758c.4018-2.257-1.102-4.4124-3.3589-4.8143-2.257-.4018-4.4124 1.102-4.8143 3.359-.4019 2.2569 1.102 4.4123 3.3589 4.8142 2.257.4019 4.4124-1.102 4.8143-3.3589z" fill="#000"/><path d="m112.788 113.814c0 8.639-6.956 15.594-15.5942 15.594-8.6384 0-15.5939-6.955-15.5939-15.594"/></g></svg>