<svg fill="none" height="185" viewBox="0 0 209 185" width="209" xmlns="http://www.w3.org/2000/svg"><g stroke="#000" stroke-linecap="round" stroke-linejoin="round" stroke-miterlimit="10" stroke-width="3"><path d="m169.664 183.451c-20.946 0-36.578-30.26-39.471-39.052-4.912-14.883-19.27-26.33-13.118-35.926 3.753-5.861 19.614 8.068 24.01 20.549-.103-15.412.896-40.1096 1.171-43.385.562-6.6312 1.859-16.4459 7.46-17.6642 5.601-1.2182 8.941 4.4477 9.584 12.7109l.011 35.2363-.011-43.9592s-.872-12.6649 6.313-12.6649c7.15 0 8.642 5.9877 9.641 14.8944l.769 41.6957-.769-41.6957c.47-5.2981 3.615-9.0676 8.126-8.6079 3.626.3792 7.425 5.0567 7.896 14.3773l-.057 35.6043c.011-6.241.046-24.4105.046-24.4105.631-3.9995 1.974-10.4928 6.978-10.6307 5.784-.1724 7.54 6.0796 8.757 15.5151 0 0-.218 51.6251-4.442 62.8191-5.36 14.113-13.497 24.594-32.894 24.594z" fill="#ff5"/><path d="m39.336 183.451c20.9462 0 36.5785-30.26 39.4708-39.052 4.9123-14.883 19.2705-26.33 13.1186-35.926-3.7531-5.861-19.6148 8.068-24.0107 20.549.1033-15.412-.8952-40.1096-1.1707-43.385-.5624-6.6312-1.8593-16.4459-7.4603-17.6642-5.601-1.2182-8.9409 4.4477-9.5836 12.7109l-.0115 35.2363.0115-43.9592s.8723-12.6649-6.3126-12.6649c-7.1504 0-8.6425 5.9877-9.641 14.8944l-.769 41.6957.769-41.6957c-.4706-5.2981-3.6154-9.0676-8.126-8.6079-3.6269.3792-7.4259 5.0567-7.8965 14.3773l.0574 35.6043c-.0115-6.241-.0459-24.4105-.0459-24.4105-.6312-3.9995-1.9741-10.4928-6.9782-10.6307-5.78465-.1724-7.5407 6.0796-8.7573 15.5151 0 0 .21807 51.6251 4.44175 62.8191 5.35995 14.113 13.50895 24.594 32.89425 24.594z" fill="#ff5"/><path d="m44.3474 23.6855 22.1362 21.1738"/><path d="m79.9578 1.54883 10.5868 27.91077"/><path d="m135.779 2.51074-12.511 26.94836"/><path d="m167.54 23.6855-21.174 22.1362"/></g></svg>