<svg fill="none" height="207" viewBox="0 0 207 207" width="207" xmlns="http://www.w3.org/2000/svg"><g stroke-miterlimit="10" stroke-width="3"><path d="m159.224 150.311c0-53.5476-24.941-96.9575-55.719-96.9575-30.7784 0-55.7085 43.4206-55.7085 96.9575 0 53.537 24.9408 54.687 55.7195 54.687 30.778 0 55.708-1.14 55.708-54.687z" fill="#fff" stroke="#000"/><g stroke="#110b15" stroke-linecap="round" stroke-linejoin="round"><path d="m111.481 173.672c0 4.397-3.569 7.966-7.966 7.966-4.3965 0-7.9656-3.569-7.9656-7.966"/><path d="m89.4474 157.21c1.6331-1.478 1.7586-4 .2804-5.634-1.4783-1.633-4.0005-1.758-5.6336-.28s-1.7586 4.001-.2803 5.634c1.4782 1.633 4.0004 1.758 5.6335.28z" fill="#000"/><path d="m122.924 157.21c1.633-1.478 1.759-4 .281-5.634-1.478-1.633-4.001-1.758-5.634-.28s-1.758 4.001-.28 5.634 4 1.758 5.633.28z" fill="#000"/></g><g stroke="#000"><path d="m191.27 56.4925c-7.729 0-13.986-6.2674-13.986-13.9862 0-4.1389 1.795-7.8477 4.644-10.4171-6.998-6.9017-15.34-12.8681-24.726-17.6198-3.461 11.5244-14.147 19.9096-26.8 19.9096-15.459 0-27.983-12.5241-27.983-27.98309 0-1.4943.118-2.95635.344-4.38614-20.8667.11825-40.228 5.35367-56.2998 14.22273 9.0948 4.6226 15.3192 14.0614 15.3192 24.9623 0 15.459-12.5241 27.9831-27.9831 27.9831-10.7503 0-20.0816-6.0632-24.76878-14.9537-4.52589 9.3205-7.00922 19.4904-7.00922 30.1117 0 35.6801 27.9831 43.9691 67.1144 45.8721-3.6551-4.731-5.8267-10.654-5.8267-17.093 0-15.4594 12.5241-27.9836 27.9831-27.9836 15.4589 0 27.9829 12.5242 27.9829 27.9836 0 6.686-2.343 12.825-6.267 17.641 19.49-.086 37.39-.624 52.107-3.558-1.161-2.043-1.828-4.408-1.828-6.924 0-7.729 6.268-13.986 13.986-13.986 6.526 0 12.019 4.472 13.557 10.525 8.987-6.881 14.147-17.1579 14.147-32.4771 0-10.4601-2.408-20.4687-6.794-29.6817-2.032 1.1718-4.397 1.8383-6.913 1.8383zm-157.4707 54.0955c-7.7295 0-13.9862-6.267-13.9862-13.986 0-7.7187 6.2675-13.9862 13.9862-13.9862 7.7295 0 13.9862 6.2675 13.9862 13.9862 0 7.719-6.2567 13.986-13.9862 13.986zm57.5036-50.3329c-7.7295 0-13.9862-6.2674-13.9862-13.9862 0-7.7187 6.2674-13.9862 13.9862-13.9862 7.7295 0 13.9861 6.2675 13.9861 13.9862 0 7.7188-6.2674 13.9862-13.9861 13.9862z" fill="#ff3801"/><g fill="#fff"><path d="m33.7992 69.1774c15.4589 0 27.9829-12.524 27.9829-27.9829 0-10.9008-6.2244-20.3395-15.3191-24.9621-16.7489 9.256-29.9072 22.468-37.43236 37.9806 4.68706 8.9013 14.01836 14.9644 24.76856 14.9644z"/><path d="m91.3024 85.1426c-15.4589 0-27.9829 12.524-27.9829 27.9824 0 6.44 2.1715 12.363 5.8266 17.093 10.7287.527 22.3068.57 34.3689.57 3.203 0 6.375 0 9.514-.021 3.913-4.816 6.267-10.955 6.267-17.642-.022-15.4476-12.546-27.9824-27.9936-27.9824z"/><path d="m43.6898 106.491c5.4618-5.462 5.4618-14.3171 0-19.779-5.4619-5.4619-14.3172-5.4619-19.7791 0-5.4618 5.4619-5.4618 14.317 0 19.779 5.4619 5.462 14.3172 5.462 19.7791 0z"/><path d="m101.185 56.1611c5.462-5.4619 5.462-14.3173 0-19.7792-5.4621-5.4618-14.3175-5.4618-19.7793 0-5.4618 5.4619-5.4618 14.3173 0 19.7792 5.4619 5.4618 14.3172 5.4618 19.7793 0z"/><path d="m177.284 106.299c-7.729 0-13.986 6.267-13.986 13.986 0 2.515.667 4.881 1.828 6.923 10.309-2.053 19.06-5.3 25.714-10.395-1.548-6.042-7.03-10.514-13.556-10.514z"/><path d="m177.284 42.4961c0 7.7294 6.268 13.9861 13.986 13.9861 2.516 0 4.881-.6665 6.924-1.8276-3.935-8.2454-9.45-15.8566-16.266-22.5755-2.848 2.5693-4.644 6.2781-4.644 10.417z"/><path d="m130.412 34.3788c12.653 0 23.338-8.396 26.8-19.9095-15.577-7.89068-33.982-12.45953-53.697-12.45953-.248 0-.495 0-.742 0-.226 1.42978-.344 2.89181-.344 4.3861 0 15.45883 12.524 27.98293 27.983 27.98293z"/><path d="m146.044 99.333c15.454 0 27.983-12.5284 27.983-27.9829s-12.529-27.9829-27.983-27.9829c-15.455 0-27.983 12.5284-27.983 27.9829s12.528 27.9829 27.983 27.9829z"/></g><path d="m198.194 54.6435c-3.935-8.2456-9.45-15.8568-16.266-22.5758-6.998-6.9017-15.34-12.8681-24.725-17.6198-15.567-7.90147-33.972-12.45962-53.698-12.45962-.248 0-.495 0-.742 0-20.8667.11826-40.2388 5.35367-56.2998 14.22272-16.749 9.256-29.9074 22.4682-37.43268 37.9809-4.52589 9.3421-7.00922 19.5012-7.00922 30.1333 0 29.2728 18.8239 40.0988 47.194 44.1088-.9353 7.031-1.419 14.352-1.419 21.866 0 53.547 24.9408 54.687 55.7187 54.687 30.779 0 55.719-1.15 55.719-54.687 0-7.525-.494-14.835-1.419-21.866 2.516-.355 4.967-.763 7.321-1.236 10.31-2.054 19.061-5.3 25.715-10.396 8.987-6.88 14.148-17.1576 14.148-32.4768-.011-10.4709-2.419-20.4794-6.805-29.6817z"/><path d="m198.172 54.6435c-3.934-8.2456-9.449-15.8568-16.265-22.5758-6.998-6.9017-15.341-12.8681-24.726-17.6198-15.577-7.90147-33.982-12.45962-53.698-12.45962-.247 0-.494 0-.742 0-20.8659.12901-40.2381 5.35367-56.2991 14.23342-16.749 9.2561-29.9074 22.4683-37.43268 37.981-4.52589 9.3313-7.00922 19.4904-7.00922 30.1225 0 35.6808 27.9831 43.9688 67.1144 45.8718 10.7288.527 22.307.57 34.3686.57 3.204 0 6.375 0 9.514-.022 19.491-.086 37.39-.623 52.107-3.558 10.31-2.054 19.061-5.3 25.715-10.396 8.987-6.88 14.147-17.1573 14.147-32.4766 0-10.4601-2.408-20.4686-6.794-29.6709z"/></g></g></svg>