<svg fill="none" height="202" viewBox="0 0 202 202" width="202" xmlns="http://www.w3.org/2000/svg"><g stroke="#000" stroke-miterlimit="10" stroke-width="3"><path d="m2 41.4826c0 21.8009 17.6818 39.4826 39.4826 39.4826 21.8009 0 39.4826-17.6817 39.4826-39.4826 0-21.8008-17.6712-39.4826-39.4826-39.4826-21.8113 0-39.4826 17.6713-39.4826 39.4826z" fill="#ff3801" stroke-linecap="round" stroke-linejoin="round"/><path d="m121.035 41.4826c0 21.8009 17.682 39.4826 39.482 39.4826 21.801 0 39.483-17.6817 39.483-39.4826 0-21.8008-17.671-39.4826-39.483-39.4826-21.811 0-39.482 17.6713-39.482 39.4826z" fill="#ff3801" stroke-linecap="round" stroke-linejoin="round"/><path d="m101.058 199.885c54.644 0 98.942-44.298 98.942-98.943 0-54.644-44.298-98.942-98.942-98.942-54.6447 0-98.9427 44.298-98.9427 98.942 0 54.645 44.298 98.943 98.9427 98.943z" fill="#fff"/><path d="m101.058 177.392c-9.8003 0-19.4325-1.688-27.8489-4.874-9.2653-3.511-16.7594-8.741-21.6646-15.114-5.8275-7.567-4.4021-18.426 3.1654-24.253 7.5674-5.828 18.4259-4.402 24.2534 3.165.5241.681 2.5574 2.369 6.5088 3.868 4.465 1.698 9.9991 2.63 15.5749 2.63 5.576 0 11.11-.932 15.575-2.63 3.952-1.499 5.985-3.187 6.509-3.868 5.828-7.567 16.686-8.982 24.253-3.165 7.568 5.827 8.983 16.686 3.166 24.253-4.905 6.373-12.389 11.603-21.665 15.114-8.395 3.186-18.027 4.874-27.827 4.874z" fill="#ff3801" stroke-linecap="round" stroke-linejoin="round"/><path d="m82.3068 106.906c0 10.356 8.3954 18.741 18.7402 18.741 10.345 0 18.74-8.396 18.74-18.741 0-10.355-8.395-18.74-18.74-18.74-10.3448 0-18.7402 8.3954-18.7402 18.74z" fill="#ff3801" stroke-linecap="round" stroke-linejoin="round"/><path d="m55.6397 110.021c2.4573-10.2987-3.8991-20.6392-14.1974-23.0965-10.2983-2.4574-20.6388 3.899-23.0961 14.1975-2.4573 10.298 3.8991 20.639 14.1974 23.096s20.6388-3.899 23.0961-14.197z" fill="#ff8080"/><path d="m169.569 124.227c10.298-2.457 16.655-12.798 14.197-23.096-2.457-10.2985-12.797-16.6549-23.096-14.1976-10.298 2.4574-16.654 12.7978-14.197 23.0966 2.457 10.298 12.798 16.654 23.096 14.197z" fill="#ff8080"/><g stroke-linecap="round" stroke-linejoin="round"><path d="m65.2539 146.85c5.88 7.651 19.7466 13.248 35.7931 13.248 16.047 0 29.913-5.597 35.793-13.248"/><path d="m70.9243 87.0028c9.9853 0 18.08-8.0947 18.08-18.08s-8.0947-18.08-18.08-18.08c-9.9854 0-18.0801 8.0947-18.0801 18.08s8.0947 18.08 18.0801 18.08z" fill="#fff"/><path d="m71 75c3.3137 0 6-2.6863 6-6s-2.6863-6-6-6-6 2.6863-6 6 2.6863 6 6 6z" fill="#000"/><path d="m131.191 87.0028c9.985 0 18.08-8.0947 18.08-18.08s-8.095-18.08-18.08-18.08-18.08 8.0947-18.08 18.08 8.095 18.08 18.08 18.08z" fill="#fff"/><path d="m131 75c3.314 0 6-2.6863 6-6s-2.686-6-6-6-6 2.6863-6 6 2.686 6 6 6z" fill="#000"/></g></g></svg>