<svg fill="none" height="227" viewBox="0 0 188 227" width="188" xmlns="http://www.w3.org/2000/svg"><g fill="#cbccbe" stroke="#000" stroke-width="3"><path d="m74.0703 122.057-13.6854 6.569-8.2112-7.117z"/><path d="m119.569 122.446 15.664.461-5.067 4.146z"/><g stroke-linecap="round" stroke-linejoin="round"><path d="m186.131 121.523-9.691-22.6121-81.5671-96.9109 62.9921 104.179z"/><path d="m111.832 120.716 18.575 8.076 27.458-22.613-62.9921-104.179-.8076 111.447z"/><path d="m111.832 120.715-17.7666-7.269-13.7291 7.269-20.1898 9.691 29.0733 94.488 41.1872-96.103z"/><path d="m157.865 106.182-18.575 15.344-8.883 7.268-41.1872 96.103 96.9112-103.371z"/><path d="m94.8729 2-83.1818 97.7185-9.6911 20.1895 31.496-12.114z"/><path d="m33.496 107.794 14.5367 12.114 12.1138 10.499 33.9188-16.959.8076-111.448z"/><path d="m60.1465 130.404-12.1138-10.499-14.5367-12.114-31.496 12.114 87.2198 104.987z"/></g></g></svg>