<svg xmlns="http://www.w3.org/2000/svg" xmlns:xlink="http://www.w3.org/1999/xlink" fill="none" height="128" viewBox="0 0 155 128" width="155"><mask id="a" fill="#fff"><path clip-rule="evenodd" d="m104.147 97.814c-2.573 17.086-17.3171 30.186-35.1209 30.186-18.5278 0-33.7422-14.187-35.3735-32.2896-.9107.0807-1.8328.122-2.7645.122-17.059 0-30.8881-13.8291-30.8881-30.8882 0-8.278 3.25642-15.7955 8.55813-21.3413-1.43326-3.5614-2.22209-7.4514-2.22209-11.5256 0-17.0591 13.82906-30.8882 30.88816-30.8882 9.5241 0 18.0414 4.31057 23.7075 11.0872 6.5127-7.51956 16.1303-12.2763 26.8589-12.2763 6.2104 0 12.0486 1.59393 17.1274 4.39503 4.488-2.3782 9.607-3.725158 15.04-3.725158 17.766 0 32.168 14.401928 32.168 32.167528 0 4.849-1.073 9.4474-2.995 13.5708 3.591 5.5499 5.675 12.1651 5.675 19.2672 0 19.6162-15.902 35.5186-35.518 35.5186-5.416 0-10.548-1.2124-15.141-3.38z" fill="#fff" fill-rule="evenodd"/></mask><path clip-rule="evenodd" d="m104.147 97.814c-2.573 17.086-17.3171 30.186-35.1209 30.186-18.5278 0-33.7422-14.187-35.3735-32.2896-.9107.0807-1.8328.122-2.7645.122-17.059 0-30.8881-13.8291-30.8881-30.8882 0-8.278 3.25642-15.7955 8.55813-21.3413-1.43326-3.5614-2.22209-7.4514-2.22209-11.5256 0-17.0591 13.82906-30.8882 30.88816-30.8882 9.5241 0 18.0414 4.31057 23.7075 11.0872 6.5127-7.51956 16.1303-12.2763 26.8589-12.2763 6.2104 0 12.0486 1.59393 17.1274 4.39503 4.488-2.3782 9.607-3.725158 15.04-3.725158 17.766 0 32.168 14.401928 32.168 32.167528 0 4.849-1.073 9.4474-2.995 13.5708 3.591 5.5499 5.675 12.1651 5.675 19.2672 0 19.6162-15.902 35.5186-35.518 35.5186-5.416 0-10.548-1.2124-15.141-3.38z" fill="#fff" fill-rule="evenodd"/><path d="m104.147 97.814 1.28-2.713c-.857-.4048-1.856-.3802-2.693.0663-.836.4465-1.413 1.2623-1.554 2.2001zm-70.4944-2.1036 2.9879-.2693c-.1486-1.6485-1.6042-2.8652-3.2529-2.719zm-25.09447-52.1075 2.16847 2.0731c.814-.8514 1.0544-2.1004.6146-3.1931zm52.37357-31.3266-2.3015 1.9243c.5641.6747 1.3959 1.0679 2.2754 1.0756.8795.0076 1.718-.371 2.2938-1.0359zm43.9863-7.88127-1.448 2.62699c.886.48875 1.959.49772 2.853.02386zm44.213 42.01317-2.719-1.2671c-.436.9357-.36 2.0299.201 2.8966zm-47.951 50.9592c-2.3547 15.6406-15.8565 27.6326-32.1539 27.6326v6c19.3103 0 35.2969-14.207 38.0869-32.7393zm-32.1539 27.6326c-16.9612 0-30.8923-12.988-32.3856-29.5589l-5.9758.5385c1.7694 19.6354 18.2671 35.0204 38.3614 35.0204zm-35.6385-32.2779c-.8227.073-1.6564.1103-2.4995.1103v6c1.0203 0 2.0308-.0452 3.0295-.1338zm-2.4995.1103c-15.4022 0-27.8881-12.486-27.8881-27.8882h-6c0 18.716 15.1722 33.8882 33.8881 33.8882zm-27.8881-27.8882c0-7.4753 2.93718-14.2583 7.7266-19.2682l-4.33697-4.1461c-5.813971 6.0816-9.38963 14.3336-9.38963 23.4143zm8.3412-22.4613c-1.2924-3.2114-2.00516-6.7216-2.00516-10.4056h-6c0 4.4644.86488 8.7343 2.43901 12.6457zm-2.00516-10.4056c0-15.4022 12.48596-27.8882 27.88816-27.8882v-6c-18.7159 0-33.88816 15.1722-33.88816 33.8882zm27.88816-27.8882c8.5981 0 16.2855 3.88743 21.406 10.0115l4.603-3.8486c-6.2116-7.4292-15.5589-12.1629-26.009-12.1629zm25.9752 10.0512c5.9671-6.88959 14.7693-11.2403 24.5912-11.2403v-6c-11.6354 0-22.0684 5.16278-29.1266 13.3122zm24.5912-11.2403c5.691 0 11.0322 1.45939 15.6794 4.02202l2.897-5.25398c-5.511-3.03956-11.8466-4.76804-18.5764-4.76804zm18.5324 4.04588c4.066-2.15448 8.703-3.37601 13.635-3.37601v-6c-5.934 0-11.534 1.472393-16.444 4.07431zm13.635-3.37601c16.109 0 29.168 13.05873 29.168 29.16753h6c0-19.4225-15.745-35.16753-35.168-35.16753zm29.168 29.16753c0 4.4023-.974 8.569-2.714 12.3037l5.439 2.5342c2.102-4.512 3.275-9.5422 3.275-14.8379zm-2.513 15.2003c3.285 5.0792 5.193 11.131 5.193 17.6377h6c0-7.6975-2.261-14.876-6.156-20.8967zm5.193 17.6377c0 17.9593-14.559 32.5183-32.518 32.5183v6.0003c21.273 0 38.518-17.2455 38.518-38.5186zm-32.518 32.5183c-4.964 0-9.66-1.1101-13.861-3.0927l-2.561 5.426c4.985 2.353 10.554 3.667 16.422 3.667z" fill="#000" mask="url(#a)"/></svg>