<svg xmlns="http://www.w3.org/2000/svg" xmlns:xlink="http://www.w3.org/1999/xlink" fill="none" height="58" viewBox="0 0 63 58" width="63"><mask id="a" fill="#fff"><path clip-rule="evenodd" d="m59.3218 31.9447c1.8882-3.1636 2.9731-6.8622 2.9731-10.8141 0-11.67012-9.4604-21.1306-21.1305-21.1306-6.9594 0-13.1329 3.36437-16.983 8.55538-2.3199-1.25952-4.9781-1.97491-7.8034-1.97491-9.04531 0-16.378 7.33273-16.378 16.37803 0 8.1782 5.99426 14.9565 13.8289 16.1808-.0549.5458-.083 1.0995-.083 1.6597 0 9.0453 7.3327 16.378 16.378 16.378 5.6716 0 10.6699-2.8829 13.6094-7.2633 2.0041 1.5292 4.5075 2.4373 7.2229 2.4373 6.5821 0 11.9179-5.3358 11.9179-11.9179 0-3.3223-1.3594-6.327-3.5523-8.4884z" fill="#fff" fill-rule="evenodd"/></mask><path clip-rule="evenodd" d="m59.3218 31.9447c1.8882-3.1636 2.9731-6.8622 2.9731-10.8141 0-11.67012-9.4604-21.1306-21.1305-21.1306-6.9594 0-13.1329 3.36437-16.983 8.55538-2.3199-1.25952-4.9781-1.97491-7.8034-1.97491-9.04531 0-16.378 7.33273-16.378 16.37803 0 8.1782 5.99426 14.9565 13.8289 16.1808-.0549.5458-.083 1.0995-.083 1.6597 0 9.0453 7.3327 16.378 16.378 16.378 5.6716 0 10.6699-2.8829 13.6094-7.2633 2.0041 1.5292 4.5075 2.4373 7.2229 2.4373 6.5821 0 11.9179-5.3358 11.9179-11.9179 0-3.3223-1.3594-6.327-3.5523-8.4884z" fill="#fff" fill-rule="evenodd"/><path d="m59.3218 31.9447-2.576-1.5376c-.7084 1.1868-.5142 2.704.4701 3.6742zm-35.1404-23.38932-1.4314 2.63652c1.3132.7129 2.9508.3508 3.841-.8494zm-10.3525 30.58392 2.985.3004c.1595-1.5851-.9478-3.0184-2.5218-3.2644zm29.9044 10.7744 1.8199-2.385c-.6577-.5018-1.4934-.7098-2.3096-.5747-.8162.135-1.5404.6011-2.0013 1.2881zm18.1646-16.4315c2.1579-3.6155 3.397-7.8435 3.397-12.3516h-6c0 3.3957-.9306 6.5649-2.5491 9.2765zm3.397-12.3516c0-13.32698-10.8036-24.1306-24.1305-24.1306v6c10.0132 0 18.1305 8.1173 18.1305 18.1306zm-24.1305-24.1306c-7.9495 0-15.001 3.847109-19.3926 9.76824l4.8192 3.57426c3.3085-4.46088 8.6041-7.3425 14.5734-7.3425zm-15.5516 8.9189c-2.7483-1.49212-5.8972-2.33843-9.2348-2.33843v6c2.313 0 4.4805.58443 6.372 1.61143zm-9.2348-2.33843c-10.70217 0-19.378 8.67583-19.378 19.37803h6c0-7.3885 5.98954-13.37803 13.378-13.37803zm-19.378 19.37803c0 9.6791 7.09341 17.6958 16.3657 19.1448l.9264-5.928c-6.397-.9997-11.2921-6.5394-11.2921-13.2168zm13.844 15.8804c-.0649.6454-.0981 1.2994-.0981 1.9601h6c0-.4598.0231-.9132.068-1.3593zm-.0981 1.9601c0 10.7022 8.6758 19.378 19.378 19.378v-6c-7.3885 0-13.378-5.9895-13.378-13.378zm19.378 19.378c6.7134 0 12.6276-3.4164 16.1005-8.5916l-4.9821-3.3433c-2.4062 3.5855-6.4885 5.9349-11.1184 5.9349zm20.8323-10.826c-2.0352 0-3.9035-.6781-5.403-1.8223l-3.6397 4.77c2.5086 1.9142 5.647 3.0523 9.0427 3.0523zm8.9179-8.9179c0 4.9252-3.9926 8.9179-8.9179 8.9179v6c8.239 0 14.9179-6.6789 14.9179-14.9179zm-2.6582-6.3518c1.6444 1.6208 2.6582 3.8651 2.6582 6.3518h6c0-4.1579-1.7049-7.923-4.4464-10.625z" fill="#000" mask="url(#a)"/></svg>