<svg xmlns="http://www.w3.org/2000/svg" xmlns:xlink="http://www.w3.org/1999/xlink" fill="none" height="47" viewBox="0 0 57 47" width="57"><mask id="a" fill="#fff"><path clip-rule="evenodd" d="m38.2413 35.9157c-.9445 6.274-6.3585 11.084-12.8958 11.084-6.8031 0-12.3896-5.2089-12.9887-11.856-.3344.0297-.673.0449-1.0151.0449-6.26384 0-11.3417-5.0779-11.3417-11.3418 0-3.0396 1.19573-5.7999 3.14246-7.8362-.52629-1.3077-.81594-2.7361-.81594-4.2321 0-6.26389 5.07785-11.341749 11.34168-11.341749 3.4971 0 6.6245 1.582749 8.705 4.070989 2.3914-2.76111 5.9229-4.50774 9.8623-4.50774 2.2804 0 4.4241.585274 6.2891 1.6138 1.648-.873233 3.5274-1.367814 5.5224-1.367814 6.5233 0 11.8115 5.288184 11.8115 11.811514 0 1.7804-.394 3.4688-1.0994 4.9828 1.3183 2.0378 2.0837 4.4668 2.0837 7.0745 0 7.2028-5.8391 13.0419-13.0419 13.0419-1.9885 0-3.8731-.4451-5.5596-1.241z" fill="#fff" fill-rule="evenodd"/></mask><path clip-rule="evenodd" d="m38.2413 35.9157c-.9445 6.274-6.3585 11.084-12.8958 11.084-6.8031 0-12.3896-5.2089-12.9887-11.856-.3344.0297-.673.0449-1.0151.0449-6.26384 0-11.3417-5.0779-11.3417-11.3418 0-3.0396 1.19573-5.7999 3.14246-7.8362-.52629-1.3077-.81594-2.7361-.81594-4.2321 0-6.26389 5.07785-11.341749 11.34168-11.341749 3.4971 0 6.6245 1.582749 8.705 4.070989 2.3914-2.76111 5.9229-4.50774 9.8623-4.50774 2.2804 0 4.4241.585274 6.2891 1.6138 1.648-.873233 3.5274-1.367814 5.5224-1.367814 6.5233 0 11.8115 5.288184 11.8115 11.811514 0 1.7804-.394 3.4688-1.0994 4.9828 1.3183 2.0378 2.0837 4.4668 2.0837 7.0745 0 7.2028-5.8391 13.0419-13.0419 13.0419-1.9885 0-3.8731-.4451-5.5596-1.241z" fill="#fff" fill-rule="evenodd"/><path d="m38.2413 35.9157 1.2804-2.713c-.8576-.4048-1.8561-.3802-2.6928.0663s-1.413 1.2623-1.5541 2.2001zm-25.8845-.772 2.9879-.2693c-.1486-1.6485-1.6042-2.8651-3.2529-2.7189zm-9.21434-19.1331 2.16849 2.0731c.81396-.8515 1.05435-2.1004.61458-3.1932zm19.23074-11.50286-2.3015 1.92435c.5642.67472 1.396 1.0679 2.2755 1.07554.8794.00764 1.718-.37103 2.2938-1.03585zm16.1514-2.89394-1.4488 2.62699c.8862.48875 1.9591.49772 2.8534.02387zm16.2345 15.4265-2.7193-1.2671c-.436.9357-.3603 2.0299.2004 2.8966zm-19.4843 18.4288c-.7269 4.8281-4.8984 8.5306-9.9293 8.5306v6c8.0438 0 14.7002-5.9175 15.8624-13.6374zm-9.9293 8.5306c-5.2366 0-9.5398-4.0104-10.0008-9.1253l-5.97578.5387c.73728 8.1792 7.60698 14.5866 15.97658 14.5866zm-13.2537-11.8442c-.2464.0218-.4966.0331-.7501.0331v6c.4307 0 .8577-.0191 1.2801-.0566zm-.7501.0331c-4.60699 0-8.3417-3.7348-8.3417-8.3418h-6c0 7.9208 6.421 14.3418 14.3417 14.3418zm-8.3417-8.3418c0-2.2368.87648-4.2627 2.31095-5.7631l-4.336984-4.1462c-2.458996 2.5722-3.973966 6.067-3.973966 9.9093zm2.92553-8.9563c-.38541-.9576-.59901-2.0062-.59901-3.112h-6.000005c0 1.8862.365713 3.6944 1.032871 5.3521zm-.59901-3.112c0-4.60704 3.73471-8.34175 8.34168-8.34175v-6c-7.92068 0-14.341685 6.421-14.341685 14.34175zm8.34168-8.34175c2.5711 0 4.8686 1.15962 6.4035 2.99534l4.603-3.8487c-2.6261-3.140759-6.5834-5.14664-11.0065-5.14664zm10.9728 3.03503c1.8457-2.13118 4.5619-3.47178 7.5945-3.47178v-6c-4.8462 0-9.1931 2.152673-12.13 5.5437zm7.5945-3.47178c1.761 0 3.4077.45072 4.8403 1.24079l2.8976-5.25397c-2.2974-1.267-4.9381-1.98682-7.7379-1.98682zm7.6937 1.26466c1.2258-.64953 2.6243-1.01867 4.1178-1.01867v-6c-2.4964 0-4.8568.62001-6.927 1.71696zm4.1178-1.01867c4.8664 0 8.8115 3.94503 8.8115 8.81151h6c0-8.18019-6.6314-14.81151-14.8115-14.81151zm8.8115 8.81151c0 1.3337-.2943 2.5904-.8187 3.7157l5.4386 2.5341c.8865-1.9026 1.3801-4.0227 1.3801-6.2498zm-.6183 6.6123c1.0138 1.567 1.6026 3.4327 1.6026 5.445h6c0-3.2031-.9419-6.1954-2.5648-8.704zm1.6026 5.445c0 5.546-4.4959 10.0419-10.0419 10.0419v6c8.8597 0 16.0419-7.1822 16.0419-16.0419zm-10.0419 10.0419c-1.5366 0-2.9847-.3431-4.2792-.954l-2.5608 5.426c2.0785.981 4.3996 1.528 6.84 1.528z" fill="#000" mask="url(#a)"/></svg>