<svg xmlns="http://www.w3.org/2000/svg" xmlns:xlink="http://www.w3.org/1999/xlink" fill="none" height="217" viewBox="0 0 466 217" width="466"><mask id="a" fill="#fff"><path clip-rule="evenodd" d="m206.781 216.781c20.297 0 38.231-10.123 49.026-25.597 12.307 9.282 27.625 14.786 44.228 14.786 14.643 0 28.287-4.282 39.748-11.661 6.826 3.977 14.763 6.255 23.232 6.255 20.951 0 38.647-13.94 44.318-33.051 3.96 1.105 8.134 1.695 12.445 1.695 25.528 0 46.222-20.694 46.222-46.222 0-20.934-13.917-38.6171-33.003-44.3034-.989-35.2627-29.885-63.545-65.387-63.545-17.028 0-32.536 6.5064-44.175 17.1688-17.065-18.2187-41.338-29.60281-68.27-29.60281-26.216 0-49.912 10.78631-66.894 28.16301-10.179-18.4044-29.789-30.8666-52.309-30.8666-16.942 0-32.236 7.05252-43.1077 18.3819-8.5343-4.1568-18.1209-6.489-28.2522-6.489-35.6788 0-64.6021 28.9234-64.6021 64.6021 0 31.509 22.5577 57.749 52.4046 63.452 4.2412 35.665 34.5878 63.32 71.3934 63.32 13.045 0 25.279-3.474 35.826-9.547 10.931 14.034 27.99 23.061 47.157 23.061z" fill="#fff" fill-rule="evenodd"/></mask><path clip-rule="evenodd" d="m206.781 216.781c20.297 0 38.231-10.123 49.026-25.597 12.307 9.282 27.625 14.786 44.228 14.786 14.643 0 28.287-4.282 39.748-11.661 6.826 3.977 14.763 6.255 23.232 6.255 20.951 0 38.647-13.94 44.318-33.051 3.96 1.105 8.134 1.695 12.445 1.695 25.528 0 46.222-20.694 46.222-46.222 0-20.934-13.917-38.6171-33.003-44.3034-.989-35.2627-29.885-63.545-65.387-63.545-17.028 0-32.536 6.5064-44.175 17.1688-17.065-18.2187-41.338-29.60281-68.27-29.60281-26.216 0-49.912 10.78631-66.894 28.16301-10.179-18.4044-29.789-30.8666-52.309-30.8666-16.942 0-32.236 7.05252-43.1077 18.3819-8.5343-4.1568-18.1209-6.489-28.2522-6.489-35.6788 0-64.6021 28.9234-64.6021 64.6021 0 31.509 22.5577 57.749 52.4046 63.452 4.2412 35.665 34.5878 63.32 71.3934 63.32 13.045 0 25.279-3.474 35.826-9.547 10.931 14.034 27.99 23.061 47.157 23.061z" fill="#fff" fill-rule="evenodd"/><path d="m255.807 191.184 1.806-2.395c-.65-.491-1.473-.696-2.277-.568-.805.129-1.523.578-1.989 1.247zm83.976 3.125 1.51-2.592c-.975-.568-2.186-.541-3.134.07zm67.55-26.796.806-2.89c-1.577-.439-3.216.467-3.682 2.037zm25.664-88.8304-2.999.0841c.037 1.2954.9 2.4211 2.142 2.7911zm-109.562-46.3762-2.189 2.0509c1.124 1.1998 3.004 1.2716 4.216.1611zm-135.164-1.4398-2.625 1.4519c.459.83 1.284 1.394 2.224 1.521.94.1271 1.884-.1979 2.547-.8762zm-95.4167-12.4847-1.3137 2.6971c1.1711.5703 2.5764.3199 3.4783-.62zm-40.4497 121.5651 2.9791-.354c-.1544-1.298-1.1318-2.347-2.416-2.592zm107.2194 53.773 2.367-1.844c-.919-1.18-2.567-1.503-3.864-.756zm93.723-4.252c-10.259 14.703-27.29 24.313-46.566 24.313v6c21.319 0 40.154-10.637 51.486-26.88zm46.688 13.502c-15.929 0-30.617-5.278-42.422-14.181l-3.612 4.79c12.809 9.661 28.757 15.391 46.034 15.391zm38.124-11.183c-10.991 7.077-24.074 11.183-38.124 11.183v6c15.236 0 29.442-4.457 41.372-12.138zm24.856 5.777c-7.924 0-15.342-2.13-21.722-5.847l-3.02 5.185c7.272 4.236 15.728 6.662 24.742 6.662zm41.442-30.904c-5.304 17.872-21.855 30.904-41.442 30.904v6c22.316 0 41.155-14.848 47.194-35.197zm15.321-.452c-4.036 0-7.939-.553-11.639-1.585l-1.612 5.78c4.22 1.177 8.665 1.805 13.251 1.805zm43.222-43.222c0 23.871-19.351 43.222-43.222 43.222v6c27.185 0 49.222-22.037 49.222-49.222zm-30.86-41.4282c17.85 5.3178 30.86 21.8582 30.86 41.4282h6c0-22.297-14.823-41.1238-35.146-47.1785zm-64.53-63.4202c33.873 0 61.445 26.9852 62.388 60.6291l5.998-.1681c-1.034-36.8817-31.255-66.461-68.386-66.461zm-42.148 16.3808c11.107-10.1754 25.899-16.3808 42.148-16.3808v-6c-17.807 0-34.031 6.8075-46.201 17.9568zm-70.297-28.81481c26.068 0 49.559 11.01521 66.081 28.65371l4.379-4.1018c-17.609-18.7989-42.664-30.551906-70.46-30.551906zm-64.748 27.25971c16.44-16.8229 39.372-27.25971 64.748-27.25971v-5.999996c-27.056 0-51.517 11.135706-69.039 29.066206zm-54.455-29.9633c21.385 0 40.012 11.8307 49.684 29.3185l5.251-2.9039c-10.686-19.3209-31.28-32.4146-54.935-32.4146zm-40.9431 17.459c10.3291-10.76424 24.8521-17.459 40.9431-17.459v-6c-17.792 0-33.859 7.41028-45.2723 19.3047zm-30.4168-5.5661c9.6662 0 18.8045 2.2243 26.9385 6.1861l2.6273-5.3942c-8.9346-4.3518-18.9695-6.79185-29.5658-6.79185zm-61.6021 61.6021c0-34.0219 27.5802-61.6021 61.6021-61.6021v-5.99995c-37.3356 0-67.6021 30.26645-67.6021 67.60205zm49.9677 60.506c-28.4593-5.438-49.9677-30.464-49.9677-60.506h-6c0 32.975 23.607 60.431 54.8416 66.399zm70.8303 63.266c-35.2678 0-64.3505-26.501-68.4143-60.674l-5.9581.709c4.4185 37.155 36.0289 65.965 74.3724 65.965zm34.329-9.147c-10.104 5.818-21.823 9.147-34.329 9.147v6c13.584 0 26.333-3.619 37.323-9.948zm48.654 22.661c-18.203 0-34.403-8.569-44.79-21.905l-4.734 3.687c11.475 14.733 29.392 24.218 49.524 24.218z" fill="#000" mask="url(#a)"/></svg>