<svg xmlns="http://www.w3.org/2000/svg" xmlns:xlink="http://www.w3.org/1999/xlink" fill="none" height="248" viewBox="0 0 363 248" width="363"><mask id="a" fill="#fff"><path clip-rule="evenodd" d="m241.238 35.294c-11.221-21.0028-33.36-35.294-58.836-35.294-18.927 0-36.012 7.8882-48.146 20.5564-12.951-7.1587-27.844-11.23335-43.6883-11.23335-49.9465 0-90.436108 40.48965-90.436108 90.43605 0 37.2179 22.482308 69.1849 54.606908 83.0609-.3506 2.564-.5317 5.181-.5317 7.841 0 31.667 25.6712 57.339 57.3382 57.339 24.658 0 45.68-15.565 53.779-37.405 10.536 6.005 22.73 9.435 35.725 9.435 36.398 0 66.51-26.913 71.523-61.925 5.748 1.472 11.773 2.255 17.981 2.255 39.905 0 72.255-32.35 72.255-72.2555 0-39.9057-32.35-72.2556-72.255-72.2556-19.064 0-36.403 7.3827-49.315 19.4451z" fill="#fff" fill-rule="evenodd"/></mask><path clip-rule="evenodd" d="m241.238 35.294c-11.221-21.0028-33.36-35.294-58.836-35.294-18.927 0-36.012 7.8882-48.146 20.5564-12.951-7.1587-27.844-11.23335-43.6883-11.23335-49.9465 0-90.436108 40.48965-90.436108 90.43605 0 37.2179 22.482308 69.1849 54.606908 83.0609-.3506 2.564-.5317 5.181-.5317 7.841 0 31.667 25.6712 57.339 57.3382 57.339 24.658 0 45.68-15.565 53.779-37.405 10.536 6.005 22.73 9.435 35.725 9.435 36.398 0 66.51-26.913 71.523-61.925 5.748 1.472 11.773 2.255 17.981 2.255 39.905 0 72.255-32.35 72.255-72.2555 0-39.9057-32.35-72.2556-72.255-72.2556-19.064 0-36.403 7.3827-49.315 19.4451z" fill="#fff" fill-rule="evenodd"/><path d="m241.238 35.294-2.646 1.4137c.439.8221 1.235 1.3934 2.155 1.5459.919.1525 1.857-.131 2.539-.7674zm-106.982-14.7376-1.452 2.6256c1.191.6584 2.677.4325 3.618-.5504zm-79.5175 162.2636 2.9723.407c.1825-1.335-.5465-2.627-1.7827-3.161zm110.5855 27.775 1.485-2.607c-.765-.436-1.683-.514-2.511-.212-.827.301-1.481.95-1.787 1.776zm107.248-52.49.744-2.906c-.826-.212-1.702-.062-2.411.411-.709.474-1.182 1.226-1.303 2.07zm-28.688-124.2246c-11.722-21.9405-34.855-36.8804-61.482-36.8804v6c24.326 0 45.47 13.6424 56.19 33.7077zm-61.482-36.8804c-19.778 0-37.636 8.24679-50.313 21.4813l4.333 4.1503c11.592-12.102 27.904-19.6316 45.98-19.6316zm-46.695 20.9309c-13.383-7.3981-28.774-11.60785-45.1393-11.60785v6.00005c15.3243 0 29.7193 3.9396 42.2363 10.8589zm-45.1393-11.60785c-51.6033 0-93.43611 41.83275-93.43611 93.43605h6c0-48.2896 39.14651-87.436 87.43611-87.436zm-93.43611 93.43605c0 38.4569 23.23321 71.4819 56.41731 85.8149l2.3792-5.508c-31.0651-13.418-52.79651-44.328-52.79651-80.3069zm54.63451 82.6549c-.3689 2.698-.5593 5.451-.5593 8.247h6c0-2.523.1718-5.005.504-7.434zm-.5593 8.247c0 33.324 27.0144 60.339 60.3382 60.339v-6c-30.0101 0-54.3382-24.328-54.3382-54.339zm60.3382 60.339c25.953 0 48.071-16.384 56.592-39.362l-5.626-2.086c-7.677 20.702-27.603 35.448-50.966 35.448zm52.293-37.799c10.977 6.256 23.681 9.829 37.211 9.829v-6c-12.461 0-24.144-3.288-34.24-9.042zm37.211 9.829c37.912 0 69.272-28.031 74.492-64.5l-5.939-.85c-4.804 33.555-33.669 59.35-68.553 59.35zm89.504-65.67c-5.955 0-11.73-.751-17.237-2.161l-1.489 5.812c5.99 1.534 12.265 2.349 18.726 2.349zm69.255-69.2555c0 38.2485-31.007 69.2555-69.255 69.2555v6c41.562 0 75.255-33.693 75.255-75.2555zm-69.255-69.2556c38.248 0 69.255 31.0068 69.255 69.2556h6c0-41.5625-33.693-75.2556-75.255-75.2556zm-47.267 18.6373c12.378-11.5639 28.993-18.6373 47.267-18.6373v-6c-19.854 0-37.918 7.6921-51.363 20.2529z" fill="#000" mask="url(#a)"/></svg>