<svg xmlns="http://www.w3.org/2000/svg" xmlns:xlink="http://www.w3.org/1999/xlink" fill="none" height="89" viewBox="0 0 104 89" width="104"><mask id="a" fill="#fff"><path clip-rule="evenodd" d="m93.042 34.0463c.8579-2.5583 1.3221-5.2932 1.3221-8.1348 0-14.3105-11.7741-25.9115-26.2982-25.9115-6.9115 0-13.2003 2.62701-17.8939 6.9229-4.1845-3.36372-9.501-5.37655-15.2877-5.37655-13.4863 0-24.419 10.93275-24.419 24.41895 0 3.297.6534 6.4413 1.8377 9.3106-7.24635 3.2033-12.303 10.4546-12.303 18.8869 0 11.3991 9.24078 20.6399 20.6399 20.6399 4.6743 0 8.9857-1.5538 12.4458-4.1732 1.4975 9.9322 10.069 17.5461 20.4187 17.5461 10.2668 0 18.7836-7.4922 20.3813-17.3074.0985-.0407.1967-.0819.2946-.1236 2.6044 1.1855 5.4984 1.846 8.5466 1.846 11.405 0 20.6501-9.2456 20.6501-20.6505 0-7.6478-4.1569-14.3246-10.335-17.8938z" fill="#fff" fill-rule="evenodd"/></mask><path clip-rule="evenodd" d="m93.042 34.0463c.8579-2.5583 1.3221-5.2932 1.3221-8.1348 0-14.3105-11.7741-25.9115-26.2982-25.9115-6.9115 0-13.2003 2.62701-17.8939 6.9229-4.1845-3.36372-9.501-5.37655-15.2877-5.37655-13.4863 0-24.419 10.93275-24.419 24.41895 0 3.297.6534 6.4413 1.8377 9.3106-7.24635 3.2033-12.303 10.4546-12.303 18.8869 0 11.3991 9.24078 20.6399 20.6399 20.6399 4.6743 0 8.9857-1.5538 12.4458-4.1732 1.4975 9.9322 10.069 17.5461 20.4187 17.5461 10.2668 0 18.7836-7.4922 20.3813-17.3074.0985-.0407.1967-.0819.2946-.1236 2.6044 1.1855 5.4984 1.846 8.5466 1.846 11.405 0 20.6501-9.2456 20.6501-20.6505 0-7.6478-4.1569-14.3246-10.335-17.8938z" fill="#fff" fill-rule="evenodd"/><path d="m93.042 34.0463-2.8444-.9537c-.4535 1.3527.1083 2.8377 1.3437 3.5514zm-42.87-27.1234-1.8796 2.33821c1.1542.92779 2.8127.87459 3.9051-.1252zm-37.869 28.353 1.213 2.7439c1.4889-.6582 2.1812-2.3837 1.5601-3.8885zm20.7827 35.3536 2.9665-.4472c-.1578-1.0465-.8552-1.9324-1.8354-2.3314-.9801-.399-2.098-.252-2.9418.3867zm40.8.2387-1.1455-2.7727c-.9614.3972-1.6484 1.264-1.8155 2.2907zm.2946-.1236 1.243-2.7304c-.7666-.349-1.6445-.3597-2.4193-.0294zm21.706-35.7445c.9595-2.8615 1.4778-5.9182 1.4778-9.0886h-6c0 2.5129-.4102 4.9258-1.1665 7.1811zm1.4778-9.0886c0-16.00915-13.1593-28.9115-29.2982-28.9115v6c12.9093 0 23.2982 10.2996 23.2982 22.9115zm-29.2982-28.9115c-7.6848 0-14.6902 2.9238703-19.9194 7.70989l4.051 4.42602c4.1581-3.80576 9.7302-6.13591 15.8684-6.13591zm-16.0143 7.5847c-4.698-3.776489-10.6726-6.03835-17.1673-6.03835v6c5.0786 0 9.7371 1.76381 13.4081 4.71476zm-17.1673-6.03835c-15.1431 0-27.41902 12.27595-27.41902 27.41895h6.00002c0-11.8293 9.5896-21.41895 21.419-21.41895zm-27.41902 27.41895c0 3.6965.73311 7.2293 2.06468 10.4553l5.54614-2.2893c-1.0372-2.5126-1.6108-5.2685-1.6108-8.166zm3.62482 6.5668c-8.29327 3.6661-14.0901 11.9681-14.0901 21.6307h6c0-7.202 4.31647-13.4025 10.516-16.143zm-14.0901 21.6307c0 13.056 10.58393 23.6399 23.6399 23.6399v-6c-9.7423 0-17.6399-7.8976-17.6399-17.6399zm23.6399 23.6399c5.3503 0 10.2933-1.781 14.2565-4.7812l-3.6214-4.7839c-2.957 2.2385-6.6368 3.5651-10.6351 3.5651zm9.4794-6.7259c1.7154 11.3777 11.5291 20.0988 23.3851 20.0988v-6c-8.8435 0-16.1727-6.5068-17.4522-14.9933zm23.3851 20.0988c11.7612 0 21.5121-8.5819 23.3423-19.8254l-5.922-.964c-1.3653 8.3869-8.6479 14.7894-17.4203 14.7894zm21.5269-17.5347c.1089-.045.2173-.0905.3253-.1366l-2.3526-5.5195c-.0878.0374-.1758.0743-.2638.1107zm7.6956-4.0503c-2.6109 0-5.0817-.565-7.3036-1.5764l-2.4859 5.4608c2.9869 1.3597 6.304 2.1156 9.7895 2.1156zm17.6501-17.6505c0 9.7481-7.902 17.6505-17.6501 17.6505v6c13.0618 0 23.6501-10.5887 23.6501-23.6505zm-8.8357-15.2961c5.2884 3.0552 8.8357 8.7631 8.8357 15.2961h6c0-8.7627-4.767-16.4083-11.8343-20.4914z" fill="#000" mask="url(#a)"/></svg>