<svg xmlns="http://www.w3.org/2000/svg" xmlns:xlink="http://www.w3.org/1999/xlink" fill="none" height="94" viewBox="0 0 123 94" width="123"><mask id="a" fill="#fff"><path clip-rule="evenodd" d="m54.9485 15.2059c-1.1403 0-2.2625.0778-3.3615.2283-3.5087-9.03188-12.2855-15.4342-22.5576-15.4342-13.3604 0-24.19116 10.8308-24.19116 24.1912 0 4.45 1.20153 8.6193 3.29788 12.2013-5.00237 4.61-8.13612 11.2171-8.13612 18.556 0 13.933 11.2949 25.228 25.2279 25.228 4.203 0 8.166-1.0278 11.6512-2.8458 4.8328 9.8716 14.9771 16.6693 26.7091 16.6693 13.6147 0 25.0912-9.1544 28.61-21.6437 17.2558-1.9326 30.6698-16.571 30.6698-34.3424 0-19.0863-15.473-34.55882-34.5592-34.55882-10.7733 0-20.3952 4.92962-26.7331 12.65622-2.1081-.59-4.3308-.9054-6.6272-.9054z" fill="#fff" fill-rule="evenodd"/></mask><path clip-rule="evenodd" d="m54.9485 15.2059c-1.1403 0-2.2625.0778-3.3615.2283-3.5087-9.03188-12.2855-15.4342-22.5576-15.4342-13.3604 0-24.19116 10.8308-24.19116 24.1912 0 4.45 1.20153 8.6193 3.29788 12.2013-5.00237 4.61-8.13612 11.2171-8.13612 18.556 0 13.933 11.2949 25.228 25.2279 25.228 4.203 0 8.166-1.0278 11.6512-2.8458 4.8328 9.8716 14.9771 16.6693 26.7091 16.6693 13.6147 0 25.0912-9.1544 28.61-21.6437 17.2558-1.9326 30.6698-16.571 30.6698-34.3424 0-19.0863-15.473-34.55882-34.5592-34.55882-10.7733 0-20.3952 4.92962-26.7331 12.65622-2.1081-.59-4.3308-.9054-6.6272-.9054z" fill="#fff" fill-rule="evenodd"/><path d="m51.587 15.4342-2.7964 1.0864c.5028 1.2942 1.828 2.0743 3.2036 1.8859zm-43.45088 20.9583 2.03308 2.2061c1.0369-.9556 1.2683-2.5044.5561-3.7214zm28.74298 40.9382 2.6945-1.3191c-.3557-.7266-.9897-1.2787-1.7583-1.5311-.7685-.2524-1.6064-.1838-2.3236.1903zm55.3191-4.9744-.3339-2.9814c-1.213.1359-2.2227.993-2.5537 2.1678zm-30.6225-56.245-.8085 2.889c1.146.3207 2.3733-.0663 3.128-.9864zm-9.5815 2.2952c.9644-.1322 1.9506-.2006 2.9543-.2006v-6c-1.2769 0-2.5352.0871-3.7687.2561zm-22.9648-15.4065c8.9935 0 16.6856 5.60364 19.7612 13.5206l5.5928-2.1727c-3.9419-10.1469-13.8033-17.3479-25.354-17.3479zm-21.19116 21.1912c0-11.7036 9.48756-21.1912 21.19116-21.1912v-6c-15.0173 0-27.19116 12.1739-27.19116 27.1912zm2.88706 10.686c-1.83464-3.1348-2.88706-6.7829-2.88706-10.686h-6c0 4.9969 1.35065 9.6875 3.7087 13.7166zm-7.7253 20.0713c0-6.4662 2.75724-12.284 7.1692-16.3499l-4.06611-4.4122c-5.592836 5.1542-9.10309 12.5505-9.10309 20.7621zm22.2279 22.228c-12.2761 0-22.2279-9.9518-22.2279-22.228h-6c0 15.5899 12.63808 28.228 28.2279 28.228zm10.2638-2.5057c-3.0671 1.5999-6.5553 2.5057-10.2638 2.5057v6c4.6975 0 9.1353-1.1498 13.0387-3.1859zm28.0965 16.3292c-10.5433 0-19.6662-6.1061-24.0146-14.9884l-5.3889 2.6382c5.3171 10.8608 16.4829 18.3502 29.4035 18.3502zm25.7224-19.4573c-3.164 11.2302-13.4863 19.4573-25.7224 19.4573v6c14.9933 0 27.6241-10.0818 31.4976-23.8301zm30.5574-33.5288c0 16.2267-12.249 29.5966-28.0037 31.361l.6678 5.9628c18.7569-2.1008 33.3359-18.0076 33.3359-37.3238zm-31.5592-31.55882c17.4292 0 31.5592 14.12932 31.5592 31.55882h6c0-20.7432-16.816-37.558822-37.5592-37.558822zm-24.4136 11.55882c5.7925-7.0617 14.5767-11.55882 24.4136-11.55882v-6.000002c-11.7096 0-22.1693 5.362142-29.0526 13.753622zm-8.9467.192c2.0205 0 3.9713.2774 5.8187.7944l1.617-5.778c-2.3687-.6629-4.8633-1.0164-7.4357-1.0164z" fill="#000" mask="url(#a)"/></svg>