<svg xmlns="http://www.w3.org/2000/svg" xmlns:xlink="http://www.w3.org/1999/xlink" fill="none" height="36" viewBox="0 0 50 36" width="50"><mask id="a" fill="#fff"><path clip-rule="evenodd" d="m25.7692.2305c3.5436 0 6.6394 1.91682 8.3072 4.77016 1.1434-.35089 2.3576-.53973 3.6159-.53973 6.7974 0 12.3077 5.51034 12.3077 12.30767 0 6.7974-5.5103 12.3077-12.3077 12.3077-1.2929 0-2.5393-.1994-3.71-.569-1.7439 2.4402-4.6004 4.0308-7.8284 4.0308-1.8059 0-3.4956-.4978-4.9392-1.3638-2.1332 2.9249-5.5866 4.8254-9.4839 4.8254-6.47876 0-11.7308-5.252-11.7308-11.7308 0-4.9434 3.05778-9.1726 7.38512-10.8995-.05097-.3339-.0774-.6758-.0774-1.0239 0-3.71735 3.01348-6.73082 6.73078-6.73082 1.0061 0 1.9607.22076 2.8179.61649 1.4287-3.51909 4.8809-6.00067 8.9128-6.00067z" fill="#fff" fill-rule="evenodd"/></mask><path clip-rule="evenodd" d="m25.7692.2305c3.5436 0 6.6394 1.91682 8.3072 4.77016 1.1434-.35089 2.3576-.53973 3.6159-.53973 6.7974 0 12.3077 5.51034 12.3077 12.30767 0 6.7974-5.5103 12.3077-12.3077 12.3077-1.2929 0-2.5393-.1994-3.71-.569-1.7439 2.4402-4.6004 4.0308-7.8284 4.0308-1.8059 0-3.4956-.4978-4.9392-1.3638-2.1332 2.9249-5.5866 4.8254-9.4839 4.8254-6.47876 0-11.7308-5.252-11.7308-11.7308 0-4.9434 3.05778-9.1726 7.38512-10.8995-.05097-.3339-.0774-.6758-.0774-1.0239 0-3.71735 3.01348-6.73082 6.73078-6.73082 1.0061 0 1.9607.22076 2.8179.61649 1.4287-3.51909 4.8809-6.00067 8.9128-6.00067z" fill="#fff" fill-rule="evenodd"/><path d="m34.0764 5.00066-2.59 1.5139c.7025 1.2018 2.1394 1.76249 3.4702 1.35407zm-.0941 23.50664.9033-2.8608c-1.2389-.3912-2.5888.0595-3.3441 1.1165zm-12.7676 2.667 1.5433-2.5726c-1.3314-.7986-3.0522-.4495-3.9671.8048zm-13.82958-17.8049 1.1119 2.7864c1.29598-.5172 2.06428-1.8596 1.85378-3.239zm9.47128-7.13823-1.2574 2.72377c.7445.34371 1.5973.36766 2.36.06629.7626-.30137 1.3686-.90179 1.6771-1.6616zm19.81-2.74441c-2.1836-3.73574-6.2443-6.25626-10.8972-6.25626v6c2.4343 0 4.5652 1.31313 5.7172 3.28406zm1.0259-2.02583c-1.56 0-3.0707.23432-4.496.67175l1.7603 5.73595c.8613-.26434 1.779-.4077 2.7357-.4077zm15.3077 15.30767c0-8.45418-6.8535-15.30767-15.3077-15.30767v6c5.1405 0 9.3077 4.16717 9.3077 9.30767zm-15.3077 15.3077c8.4542 0 15.3077-6.8535 15.3077-15.3077h-6c0 5.1405-4.1672 9.3077-9.3077 9.3077zm-4.6134-.7083c1.4596.4609 3.0105.7083 4.6134.7083v-6c-.9829 0-1.9248-.1513-2.8067-.4298zm-6.925 4.1701c4.2375 0 7.9863-2.0921 10.2691-5.2865l-4.8815-3.4886c-1.205 1.686-3.1691 2.7751-5.3876 2.7751zm-6.4824-1.7911c1.8968 1.1378 4.1179 1.7911 6.4824 1.7911v-6c-1.2473 0-2.4055-.3423-3.3959-.9364zm-.8806-4.3405c-1.5928 2.1839-4.1617 3.5932-7.0601 3.5932v6c4.8961 0 9.234-2.3917 11.9077-6.0575zm-7.0601 3.5932c-4.8219 0-8.7308-3.9089-8.7308-8.7308h-6c0 8.1356 6.59519 14.7308 14.7308 14.7308zm-8.7308-8.7308c0-3.6744 2.27096-6.8258 5.49702-8.1131l-2.2238-5.5727c-5.428624 2.1663-9.27322 7.4735-9.27322 13.6858zm1.30772-11.9234c0 .5001.03799.9934.11174 1.4766l5.93134-.9053c-.0282-.1846-.0431-.3753-.0431-.5713zm9.73078-9.73082c-5.37416 0-9.73078 4.35662-9.73078 9.73082h5.99998c0-2.0605 1.6703-3.73082 3.7308-3.73082zm4.0753.89272c-1.2434-.574-2.6262-.89272-4.0753-.89272v6c.5632 0 1.0895.12281 1.5605.34026zm7.6554-6.2769c-5.2945 0-9.8203 3.260722-11.6925 7.87222l5.5594 2.25691c.9852-2.4267 3.3639-4.12913 6.1331-4.12913z" fill="#000" mask="url(#a)"/></svg>