<svg xmlns="http://www.w3.org/2000/svg" xmlns:xlink="http://www.w3.org/1999/xlink" fill="none" height="232" viewBox="0 0 321 232" width="321"><mask id="a" fill="#fff"><path clip-rule="evenodd" d="m38.4193 167.495c-22.1435-6.051-38.4193-26.313-38.4193-50.376 0-22.9958 14.865-42.5202 35.5103-49.4879-.2965-2.4229-.4492-4.8902-.4492-7.3932 0-33.2685 26.9694-60.2379 60.2379-60.2379 31.455 0 57.279 24.1094 60.001 54.8571 6.064-6.2296 14.541-10.0988 23.922-10.0988 18.436 0 33.382 14.9459 33.382 33.3826v.0916c5.487.5291 10.755 1.8034 15.703 3.7204 9.438-6.2956 20.777-9.9654 32.973-9.9654 32.856 0 59.491 26.6354 59.491 59.4915 0 32.857-26.635 59.492-59.491 59.492h-.151-.084c-3.098 23.164-22.937 41.029-46.949 41.029-19.099 0-35.559-11.303-43.053-27.586-4.858 1.683-10.076 2.597-15.506 2.597-11.93 0-22.83-4.41-31.158-11.689-8.589 12.041-22.673 19.893-38.5913 19.893-26.1615 0-47.3697-21.208-47.3697-47.37 0-.117.0004-.233.0013-.35z" fill="#fff" fill-rule="evenodd"/></mask><path clip-rule="evenodd" d="m38.4193 167.495c-22.1435-6.051-38.4193-26.313-38.4193-50.376 0-22.9958 14.865-42.5202 35.5103-49.4879-.2965-2.4229-.4492-4.8902-.4492-7.3932 0-33.2685 26.9694-60.2379 60.2379-60.2379 31.455 0 57.279 24.1094 60.001 54.8571 6.064-6.2296 14.541-10.0988 23.922-10.0988 18.436 0 33.382 14.9459 33.382 33.3826v.0916c5.487.5291 10.755 1.8034 15.703 3.7204 9.438-6.2956 20.777-9.9654 32.973-9.9654 32.856 0 59.491 26.6354 59.491 59.4915 0 32.857-26.635 59.492-59.491 59.492h-.151-.084c-3.098 23.164-22.937 41.029-46.949 41.029-19.099 0-35.559-11.303-43.053-27.586-4.858 1.683-10.076 2.597-15.506 2.597-11.93 0-22.83-4.41-31.158-11.689-8.589 12.041-22.673 19.893-38.5913 19.893-26.1615 0-47.3697-21.208-47.3697-47.37 0-.117.0004-.233.0013-.35z" fill="#fff" fill-rule="evenodd"/><path d="m38.4193 167.495 2.9999.022c.0098-1.36-.8968-2.557-2.209-2.916zm-2.909-99.8639.9593 2.8424c1.3482-.455 2.1913-1.7945 2.0185-3.2069zm119.7897-12.774-2.988.2645c.103 1.168.877 2.1688 1.982 2.5619s2.337.1064 3.155-.7338zm57.304 23.2838 3 .004v-.004zm0 .0916-3-.004c-.002 1.5469 1.173 2.8417 2.712 2.9902zm15.703 3.7204-1.083 2.7974c.91.3528 1.936.2403 2.748-.3017zm32.973 109.0181-.004 3h.004zm-.151 0-.01 3h.006zm-.084 0 .01-3c-1.507-.005-2.783 1.109-2.983 2.602zm-90.002 13.443 2.725-1.254c-.645-1.402-2.248-2.085-3.707-1.58zm-46.664-9.092 1.974-2.259c-.638-.557-1.481-.819-2.323-.721-.841.099-1.602.548-2.093 1.238zm-85.1688-30.721c-20.8725-5.704-36.2102-24.805-36.2102-47.482h-6c0 25.45 17.214 46.871 40.6284 53.27zm-36.2102-47.482c0-21.67 14.0069-40.0768 33.4696-46.6455l-1.9187-5.6849c-21.8278 7.3669-37.5509 28.0088-37.5509 52.3304zm35.4881-49.8524c-.2818-2.3022-.427-4.6478-.427-7.0287h-6c0 2.6251.1601 5.2141.4714 7.7576zm-.427-7.0287c0-31.6116 25.6263-57.2379 57.2379-57.2379v-6c-34.9253 0-63.2379 28.3126-63.2379 63.2379zm57.2379-57.2379c29.887 0 54.427 22.9084 57.013 52.1216l5.976-.5291c-2.858-32.2821-29.966-57.5925-62.989-57.5925zm62.15 53.9497c5.523-5.6734 13.235-9.1914 21.773-9.1914v-6c-10.223 0-19.466 4.2204-26.072 11.0061zm21.773-9.1914c16.78 0 30.382 13.6028 30.382 30.3826h6c0-20.0935-16.289-36.3826-36.382-36.3826zm30.382 30.3786v.0916l6 .008v-.0916zm2.712 3.0818c5.21.5024 10.211 1.7122 14.908 3.5316l2.167-5.5948c-5.2-2.0146-10.736-3.3534-16.499-3.9091zm17.656 3.2299c8.96-5.977 19.722-9.4611 31.308-9.4611v-6c-12.807 0-24.722 3.8555-34.637 10.4697zm31.308-9.4611c31.199 0 56.491 25.2925 56.491 56.4915h6c0-34.5129-27.978-62.4915-62.491-62.4915zm56.491 56.4915c0 31.2-25.292 56.492-56.491 56.492v6c34.513 0 62.491-27.978 62.491-62.492zm-56.488 56.492h-.15l-.008 6h.151zm-.144 0h-.084l-.019 6h.083zm-3.067 2.602c-2.902 21.694-21.487 38.427-43.976 38.427v6c25.535 0 46.628-18.998 49.923-43.631zm-43.976 38.427c-17.885 0-33.305-10.582-40.328-25.84l-5.45 2.509c7.966 17.307 25.465 29.331 45.778 29.331zm-44.035-27.42c-4.547 1.574-9.432 2.431-14.524 2.431v6c5.769 0 11.318-.972 16.488-2.762zm-14.524 2.431c-11.177 0-21.381-4.129-29.184-10.948l-3.948 4.518c8.854 7.738 20.449 12.43 33.132 12.43zm-33.6-10.431c-8.051 11.286-21.242 18.635-36.1493 18.635v6c16.9283 0 31.9053-8.354 41.0333-21.151zm-36.1493 18.635c-24.5047 0-44.3697-19.865-44.3697-44.37h-6c0 27.819 22.5513 50.37 50.3697 50.37zm-44.3697-44.37c0-.109.0004-.219.0012-.328l-5.9998-.043c-.0009.123-.0014.247-.0014.371z" fill="#000" mask="url(#a)"/></svg>