<svg xmlns="http://www.w3.org/2000/svg" xmlns:xlink="http://www.w3.org/1999/xlink" fill="none" height="198" viewBox="0 0 218 198" width="218"><mask id="a" fill="#fff"><path clip-rule="evenodd" d="m204.858 110.316c6.521-10.9251 10.268-23.6975 10.268-37.345 0-40.3008-32.671-72.971-72.971-72.971-24.034 0-45.3531 11.6184-58.6487 29.5449-8.0112-4.3495-17.1908-6.82-26.9474-6.82-31.2366 0-56.5589 25.3223-56.5589 56.5589 0 28.2422 20.7002 51.6502 47.7561 55.8782-.1897 1.884-.2868 3.796-.2868 5.731 0 31.236 25.3222 56.559 56.5587 56.559 19.586 0 36.847-9.956 46.998-25.083 6.921 5.281 15.566 8.417 24.943 8.417 22.73 0 41.157-18.426 41.157-41.157 0-11.473-4.695-21.849-12.268-29.313z" fill="#fff" fill-rule="evenodd"/></mask><path clip-rule="evenodd" d="m204.858 110.316c6.521-10.9251 10.268-23.6975 10.268-37.345 0-40.3008-32.671-72.971-72.971-72.971-24.034 0-45.3531 11.6184-58.6487 29.5449-8.0112-4.3495-17.1908-6.82-26.9474-6.82-31.2366 0-56.5589 25.3223-56.5589 56.5589 0 28.2422 20.7002 51.6502 47.7561 55.8782-.1897 1.884-.2868 3.796-.2868 5.731 0 31.236 25.3222 56.559 56.5587 56.559 19.586 0 36.847-9.956 46.998-25.083 6.921 5.281 15.566 8.417 24.943 8.417 22.73 0 41.157-18.426 41.157-41.157 0-11.473-4.695-21.849-12.268-29.313z" fill="#fff" fill-rule="evenodd"/><path d="m204.858 110.316-2.576-1.538c-.708 1.187-.514 2.704.471 3.674zm-121.3517-80.7711-1.4314 2.6365c1.3132.7129 2.9509.3508 3.841-.8494zm-35.7502 105.6171 2.9849.3c.1595-1.585-.9478-3.018-2.5217-3.264zm103.2699 37.207 1.82-2.385c-.658-.502-1.494-.71-2.31-.575s-1.54.601-2.001 1.288zm56.409-60.516c6.79-11.377 10.691-24.6783 10.691-38.882h-6c0 13.0913-3.593 25.3343-9.844 35.807zm10.691-38.882c0-41.9576-34.014-75.971-75.971-75.971v6c38.644 0 69.971 31.3271 69.971 69.971zm-75.971-75.971c-25.024 0-47.2212 12.10114-61.0582 30.7577l4.8191 3.5743c12.7541-17.1964 33.1961-28.332 56.2391-28.332zm-57.2172 29.9084c-8.4397-4.5821-18.11-7.1835-28.3789-7.1835v6c9.2443 0 17.9332 2.3396 25.516 6.4565zm-28.3789-7.1835c-32.8935 0-59.5589 26.6654-59.5589 59.5589h6c0-29.5797 23.9791-53.5589 53.5589-53.5589zm-59.5589 59.5589c0 29.7432 21.7994 54.3892 50.2928 58.8422l.9265-5.928c-25.6183-4.004-45.2193-26.173-45.2193-52.9142zm47.7711 55.5772c-.1996 1.985-.3018 3.997-.3018 6.032h6c0-1.834.0921-3.646.2717-5.431zm-.3018 6.032c0 32.893 26.6654 59.559 59.5587 59.559v-6c-29.5796 0-53.5587-23.98-53.5587-53.559zm59.5587 59.559c20.628 0 38.805-10.49 49.489-26.411l-4.982-3.344c-9.618 14.332-25.963 23.755-44.507 23.755zm71.941-22.666c-8.697 0-16.707-2.906-23.123-7.802l-3.64 4.77c7.426 5.666 16.706 9.032 26.763 9.032zm38.157-38.157c0 21.074-17.083 38.157-38.157 38.157v6c24.387 0 44.157-19.77 44.157-44.157zm-11.373-27.177c7.024 6.924 11.373 16.54 11.373 27.177h6c0-12.308-5.04-23.445-13.162-31.45z" fill="#000" mask="url(#a)"/></svg>