<svg fill="none" height="59" viewBox="0 0 46 59" width="46" xmlns="http://www.w3.org/2000/svg"><path d="m28.6015 54.5256c-1.2947 1.2372-2.9426 2.4744-5.5321 2.4744-2.5896 0-4.1198-1.3497-5.5322-2.4744l-13.5362-12.0348c-1.29476-1.1247-2.001-2.4744-2.001-4.0491 0-2.4744 1.76559-4.3865 4.11971-4.3865 1.88329 0 3.06035 1.0123 4.59049 2.4745l7.6509 6.9734v-36.32928c0-3.03681 1.8833-5.17382 4.826-5.17382 2.8249 0 4.8259 2.13701 4.8259 5.17382v36.32928l7.5332-6.861c1.2947-1.2372 2.7072-2.4744 4.5905-2.4744 2.3541 0 4.1197 1.9121 4.1197 4.3865 0 1.5746-.7062 2.9243-2.001 4.0491z" style="fill:#ff8080;stroke:#000;stroke-width:2.42801;stroke-miterlimit:10;stroke-linecap:round;stroke-linejoin:round"/></svg>