<svg fill="none" height="362" viewBox="0 0 1320 362" width="1320" xmlns="http://www.w3.org/2000/svg"><g fill="#000"><path d="m98.2998 273h126.1002v60h-189.6002v-304.5h63.5z"/><path d="m444.1 109v224h-58.3v-25.7c-11.7 19.6-35.7 32.2-66.6 32.2-46.1 0-81.8-25.2-81.8-86.6v-143.9h60.9v131c0 27.4 11.3 43.9 38.3 43.9 29.6 0 46.5-18.7 46.5-53.1v-121.8z"/><path d="m473.3 280.4 107.9-117h-105.7v-54.4h186.2v53.1l-107.5 116.6h112.2v54.3h-193.1z"/><path d="m897 240.4h-162.7c1.7 32.2 23.5 48.3 53.9 48.3 22.2 0 37.4-6.1 45.7-20h62.2c-15.7 47.8-53.1 70.9-108.7 70.9-72.6 0-115.7-45.2-115.7-119.2 0-71.8 45.7-117.9 113.5-117.9 70 0 113.5 42.2 113.5 107.9 0 11.7-.4 21.7-1.7 30zm-61.4-45.2c0-27.4-20.9-44.4-50.9-44.4-27.8 0-47.4 14.8-50 44.4z"/><path d="m925.2 333v-224h58.3v28.7c10.9-22.6 29.6-33.5 60.9-33.5 3.9 0 8.3.4 12.2 1.3v60.5c-4.4-.4-8.3-.9-14.4-.9-38.3 0-56.1 22.2-56.1 60.9v107z"/><path d="m1079.7 333v-224h58.3v25.7c11.3-19.6 35.2-32.2 66.6-32.2 45.7 0 81.8 25.2 81.8 86.6v144h-60.9v-131c0-27.4-11.7-43.9-38.7-43.9-29.1 0-46.1 18.7-46.1 53.1v121.7z"/></g></svg>