<svg fill="none" height="326" viewBox="0 0 354 326" width="354" xmlns="http://www.w3.org/2000/svg" xmlns:xlink="http://www.w3.org/1999/xlink"><clipPath id="a"><path d="m0 0h354v326h-354z"/></clipPath><g clip-path="url(#a)"><path d="m311 29.0055 2.831-11.9201 16.787-16.886733c.348-.19866814.447-.198667.547-.198667l3.675.745005c.348.099334.447.198666.646.447005l4.42 4.42036c.199.09933.348.34767.447.64567l.745 3.67536c.1.1987.1.3477-.099.5463l-16.887 16.7875-11.92 2.831c-.546.0993-.745.0993-.993-.0993-.199-.2484-.199-.447-.199-.9934zm28.807-19.27077-.546-2.03635-16.142 16.14182.447 2.1853zm-4.768-7.05271-16.589 16.34048.546 3.0296 3.129.6457 16.49-16.43976zm-19.619 15.04908 2.186.3477 16.141-16.04245-2.185-.54634zm-.447 8.4434c.547.5463.745 1.0927.845 1.639l6.605-1.3907-.546-2.4833-3.228-.5464c-.199-.0993-.348-.0993-.547-.3476-.099-.0994-.198-.3477-.198-.447l-.547-3.129-2.582-.5464-1.391 6.5064c.646.1987 1.192.5463 1.589.745z" fill="#0068ff"/><path d="m47.1636 189.006-2.831-11.921-16.7875-16.886c-.3477-.199-.447-.199-.5463-.199l-3.6754.745c-.3476.099-.447.199-.6456.447l-4.4204 4.42c-.1987.1-.3477.348-.447.646l-.745 3.675c-.0994.199-.0993.348.0993.547l16.8868 16.787 11.9201 2.831c.5463.1.745.1.9933-.099.1987-.248.1987-.447.1987-.993zm-28.8069-19.271.5464-2.037 16.1417 16.142-.447 2.185zm4.7681-7.053 16.5887 16.34-.5463 3.03-3.129.646-16.4895-16.44zm19.6184 15.049-2.1853.348-16.1418-16.043 2.1853-.546zm.447 8.443c-.5463.547-.745 1.093-.8443 1.64l-6.6057-1.391.5463-2.484 3.2284-.546c.1986-.099.3476-.099.5463-.348.0993-.099.1987-.347.1987-.447l.5463-3.129 2.5827-.546 1.3907 6.506c-.6457.199-1.1921.547-1.5894.745z" fill="#0068ff"/><path d="m57.0896 61.904c-.3395 0-.5626.2328-.7615.4414-.2813.5093-.9361.9701-1.5763 1.1592-.2765.1358-.4462.3153-.4462.6015 0 .3104.2279.5577.5578.5577.5917 0 1.2707-.3104 1.6005-.8051v4.6369c0 .3589.2571.616.6306.616.3492 0 .5966-.2571.5966-.616v-5.9125c0-.4172-.1843-.6791-.6015-.6791zm6.7371 7.096c.3638 0 .6014-.2377.6014-.5917 0-.359-.2425-.6015-.6014-.6015h-3.0654c.1067-.4704.5384-.7954 1.5133-1.2659 1.3872-.6499 2.0226-1.2805 2.0226-2.4833 0-1.3824-.9749-2.1875-2.4494-2.1875-.9846 0-1.8868.4268-2.3088 1.1495-.1843.3007-.3104.6305-.3104.9555 0 .3638.2037.5917.5675.5917.2086 0 .422-.1164.5384-.3589.2473-.713.7566-1.1786 1.523-1.1786.7469 0 1.198.4705 1.198 1.0234 0 .6257-.3298.9992-1.523 1.5763-1.7364.8343-2.3378 1.5861-2.3378 2.6047 0 .5092.2279.7663.679.7663zm4.5059-4.6175c-.4705 0-.9264.1067-1.3484.3638l.1504-1.5424h2.5997c.359 0 .5966-.2328.5966-.5917 0-.3541-.2425-.5966-.5966-.5966h-3.1284c-.3347 0-.5917.2134-.6208.5626l-.2183 2.4203c-.0048.0631-.0145.1552-.0145.2328 0 .4074.2037.6888.5965.6888.2135 0 .3784-.0534.5821-.1601.3152-.1843.6984-.3201 1.1398-.3201.7954 0 1.2999.4705 1.2999 1.2465 0 .7373-.5869 1.2562-1.3678 1.2562-.7761 0-1.2805-.291-1.5182-.713-.1794-.1794-.3201-.2716-.5286-.2716-.3396 0-.5627.2328-.5627.5675 0 .2619.1164.5238.2717.7421.3734.5287 1.2028.8779 2.1971.8779 1.6152 0 2.7598-.9652 2.7598-2.4688 0-1.392-.9167-2.2942-2.2893-2.2942z" fill="#ff3801"/><path d="m155.464 140.445c.66-.248 1.024-.776 1.024-1.451 0-1.212-.907-1.978-2.338-1.978h-2.517c-.374.004-.616.271-.616.64v5.704c0 .368.242.635.616.64h2.541c1.445 0 2.367-.829 2.367-2.066 0-.704-.398-1.252-1.077-1.489zm-.291-1.353c0 .509-.383.824-1.076.824h-1.829v-1.693h1.829c.683 0 1.076.325 1.076.869zm-2.905 3.7v-1.838h1.862c.704 0 1.097.344 1.097.907 0 .592-.408.931-1.097.931zm9.856-4.937c-.272-.67-.592-.985-1.203-.985s-.931.315-1.203.985l-2.158 5.267c-.063.16-.088.311-.088.412 0 .325.277.592.602.592.315 0 .519-.145.621-.402l.528-1.344h3.4l.529 1.344c.097.257.306.402.621.402.32 0 .601-.267.601-.592 0-.101-.024-.252-.092-.412zm-1.198.213 1.227 3.119h-2.459zm7.265 6.078c1.625 0 2.678-.835 2.678-2.178 0-1.208-.684-1.732-1.897-1.984l-1.173-.247c-.65-.131-1.009-.316-1.009-.869 0-.519.465-.8 1.212-.8.835 0 1.475.364 1.751.863.155.19.354.277.577.277.345 0 .544-.262.544-.606 0-.417-.262-.888-.704-1.169-.47-.306-1.173-.563-2.056-.563-1.62 0-2.629.82-2.629 2.1 0 1.155.65 1.742 1.901 1.989l1.198.238c.665.126.98.378.98.877 0 .544-.461.869-1.3.869-.931 0-1.576-.354-1.95-1.004-.106-.16-.276-.238-.451-.238-.33 0-.582.276-.582.616 0 .412.248.883.665 1.188.543.403 1.256.641 2.245.641zm5.704-1.383v-1.712h2.818c.34 0 .602-.238.602-.582 0-.34-.257-.587-.602-.587h-2.818v-1.63h3.148c.364 0 .631-.257.631-.62 0-.364-.267-.616-.631-.616h-3.778c-.374 0-.626.261-.626.64v5.699c0 .378.252.645.626.645h3.798c.363 0 .63-.257.63-.621s-.267-.616-.63-.616zm6.907 0v-5.219c0-.378-.252-.64-.63-.64-.374 0-.626.262-.626.64v5.816c0 .373.252.64.626.64h3.565c.363 0 .63-.257.63-.621s-.267-.616-.63-.616zm5.597 1.349c.379 0 .631-.267.631-.646v-5.922c0-.378-.252-.64-.631-.64-.373 0-.625.262-.625.64v5.922c0 .379.252.646.625.646zm8.042-7.203c-.368 0-.625.262-.625.635v4.448l-3.071-4.477c-.33-.465-.533-.606-.863-.606-.461 0-.762.32-.762.81v5.752c0 .374.248.636.626.636.374 0 .626-.262.626-.636v-4.375l3.094 4.443c.296.412.534.568.859.568.436 0 .747-.325.747-.815v-5.748c0-.373-.257-.635-.631-.635zm3.977 5.854v-1.712h2.818c.34 0 .602-.238.602-.582 0-.34-.257-.587-.602-.587h-2.818v-1.63h3.148c.364 0 .631-.257.631-.62 0-.364-.267-.616-.631-.616h-3.778c-.374 0-.626.261-.626.64v5.699c0 .378.252.645.626.645h3.798c.363 0 .63-.257.63-.621s-.267-.616-.63-.616z" fill="#0068ff"/><path d="m155.639 321.44c.626-.281.98-.791.98-1.446 0-1.212-.912-1.978-2.343-1.978h-2.512c-.369 0-.616.266-.616.64v5.704c0 .373.247.64.616.64h2.536c1.446 0 2.367-.829 2.367-2.066 0-.684-.378-1.213-1.028-1.494zm-.34-1.348c0 .509-.378.824-1.076.824h-1.824v-1.693h1.824c.683 0 1.076.325 1.076.869zm-2.9 3.7v-1.838h1.858c.703 0 1.096.344 1.096.907 0 .592-.403.931-1.096.931zm9.851-4.937c-.272-.67-.592-.985-1.208-.985-.606 0-.926.315-1.198.985l-2.158 5.267c-.068.16-.092.311-.092.412 0 .325.281.592.601.592.315 0 .524-.145.621-.402l.529-1.344h3.4l.528 1.344c.102.257.306.402.621.402.325 0 .602-.267.602-.592 0-.101-.025-.252-.088-.412zm-1.203.213 1.227 3.119h-2.459zm7.271 6.078c1.624 0 2.677-.835 2.677-2.178 0-1.208-.684-1.732-1.897-1.984l-1.168-.247c-.65-.131-1.009-.316-1.009-.869 0-.519.465-.8 1.207-.8.844 0 1.494.374 1.771.873.165.189.344.267.562.267.34 0 .544-.262.544-.606 0-.417-.267-.888-.704-1.169-.47-.306-1.173-.563-2.061-.563-1.615 0-2.629.82-2.629 2.1 0 1.155.65 1.742 1.901 1.989l1.203.238c.66.126.975.378.975.877 0 .544-.456.869-1.295.869-.931 0-1.581-.354-1.955-1.004-.106-.16-.271-.238-.446-.238-.33 0-.587.276-.587.616 0 .412.248.883.665 1.188.543.403 1.261.641 2.246.641zm5.679-1.383v-1.712h2.818c.34 0 .602-.238.602-.582 0-.34-.257-.587-.602-.587h-2.818v-1.63h3.148c.364 0 .631-.257.631-.62 0-.364-.267-.616-.631-.616h-3.778c-.374 0-.626.261-.626.64v5.699c0 .378.252.645.626.645h3.797c.364 0 .631-.257.631-.621s-.267-.616-.631-.616zm6.888 0v-5.219c0-.378-.253-.64-.631-.64-.373 0-.626.262-.626.64v5.816c0 .373.253.64.626.64h3.565c.364 0 .631-.257.631-.621s-.267-.616-.631-.616zm5.5 1.349c.378 0 .63-.267.63-.646v-5.922c0-.378-.252-.64-.63-.64-.374 0-.626.262-.626.64v5.922c0 .379.252.646.626.646zm7.945-7.203c-.369 0-.626.262-.626.635v4.448l-3.07-4.477c-.33-.465-.534-.606-.864-.606-.46 0-.761.32-.761.81v5.752c0 .374.247.636.621.636.378 0 .63-.262.63-.636v-4.375l3.095 4.443c.291.412.533.568.853.568.437 0 .752-.325.752-.815v-5.748c0-.373-.257-.635-.63-.635zm3.88 5.854v-1.712h2.818c.339 0 .601-.238.601-.582 0-.34-.257-.587-.601-.587h-2.818v-1.63h3.148c.364 0 .63-.257.63-.62 0-.364-.266-.616-.63-.616h-3.779c-.373 0-.625.261-.625.64v5.699c0 .378.252.645.625.645h3.798c.364 0 .631-.257.631-.621s-.267-.616-.631-.616z" fill="#0068ff"/><path d="m155.387 217.518c.126-.135.165-.281.165-.417 0-.31-.282-.572-.597-.572-.184 0-.349.092-.534.31l-1.396 1.635-1.397-1.635c-.185-.223-.35-.31-.534-.31-.315 0-.596.262-.596.572 0 .136.038.282.16.417l1.576 1.795-1.576 1.833c-.122.141-.16.282-.16.413 0 .31.281.577.596.577.18 0 .349-.078.539-.311l1.392-1.668 1.392 1.668c.189.233.359.311.538.311.315 0 .597-.267.597-.577 0-.122-.044-.272-.165-.413l-1.577-1.833zm4.952 2.052c.368 0 .635-.252.635-.611s-.267-.611-.635-.611h-2.842c-.364 0-.636.252-.636.611s.272.611.636.611zm7.726-4.666c-.373 0-.625.262-.625.64v2.338h-3.391v-2.338c0-.378-.252-.64-.63-.64-.374 0-.626.262-.626.64v5.922c0 .379.252.646.626.646.378 0 .63-.267.63-.646v-2.391h3.391v2.391c0 .379.252.646.625.646.374 0 .626-.267.626-.646v-5.922c0-.378-.252-.64-.626-.64zm3.968 5.859v-1.712h2.818c.339 0 .601-.238.601-.582 0-.34-.257-.587-.601-.587h-2.818v-1.63h3.148c.363 0 .63-.257.63-.62 0-.364-.267-.616-.63-.616h-3.779c-.373 0-.625.261-.625.64v5.699c0 .378.252.645.625.645h3.798c.364 0 .631-.257.631-.621s-.267-.616-.631-.616zm6.276 1.349c.378 0 .631-.267.631-.646v-5.922c0-.378-.253-.64-.631-.64-.373 0-.626.262-.626.64v5.922c0 .379.253.646.626.646zm5.918-4.021c-.335 0-.612.213-.612.596 0 .335.277.587.612.587h2.071c-.044.999-.776 1.635-1.965 1.635-1.416 0-2.347-.999-2.347-2.396 0-1.407.945-2.411 2.313-2.411.917 0 1.518.374 1.902.892.208.19.378.262.601.262.291 0 .567-.194.567-.557 0-.393-.324-.854-.761-1.164-.543-.384-1.3-.665-2.27-.665-2.115 0-3.647 1.504-3.647 3.652 0 2.139 1.46 3.624 3.608 3.624 1.95 0 3.279-1.208 3.279-3.323v-.097c0-.422-.291-.635-.66-.635zm10.399-3.187c-.374 0-.626.262-.626.64v2.338h-3.391v-2.338c0-.378-.252-.64-.63-.64-.374 0-.626.262-.626.64v5.922c0 .379.252.646.626.646.378 0 .63-.267.63-.646v-2.391h3.391v2.391c0 .379.252.646.626.646.373 0 .625-.267.625-.646v-5.922c0-.378-.252-.64-.625-.64zm2.672.112c-.359 0-.626.252-.626.616 0 .363.267.62.626.62h1.736v5.214c0 .379.258.646.626.646.378 0 .631-.267.631-.646v-5.214h1.736c.359 0 .626-.257.626-.62 0-.364-.267-.616-.626-.616z" fill="#0068ff"/><path d="m143.809 192.146c1.159 0 2.066-.384 2.702-1.121.237-.276.412-.674.412-.941 0-.339-.262-.611-.587-.611-.204 0-.403.092-.592.34-.412.693-1.033 1.071-1.925 1.071-1.315 0-2.231-.984-2.231-2.371 0-1.397.916-2.382 2.231-2.382.892 0 1.518.369 1.925 1.067.185.252.388.345.592.345.325 0 .587-.277.587-.616 0-.287-.184-.684-.437-.975-.63-.728-1.532-1.082-2.677-1.082-2.071 0-3.516 1.494-3.516 3.643 0 2.143 1.445 3.633 3.516 3.633zm8.619-6.291c-.272-.67-.592-.985-1.203-.985s-.931.315-1.203.985l-2.158 5.267c-.063.16-.087.311-.087.412 0 .325.276.592.601.592.315 0 .519-.145.621-.402l.529-1.344h3.4l.528 1.344c.097.257.306.402.621.402.32 0 .602-.267.602-.592 0-.101-.025-.252-.093-.412zm-1.198.213 1.227 3.119h-2.459zm5.306-1.052c-.373 0-.625.261-.625.64v5.81c0 .379.252.646.625.646.379 0 .631-.267.631-.646v-1.92h1.678c1.431 0 2.517-.878 2.517-2.265 0-1.373-1.086-2.265-2.517-2.265zm.631 3.337v-2.144h1.717c.698 0 1.169.427 1.169 1.072s-.471 1.072-1.169 1.072zm8.478 3.793c1.625 0 2.677-.835 2.677-2.178 0-1.208-.683-1.732-1.896-1.984l-1.174-.247c-.65-.131-1.009-.316-1.009-.869 0-.519.466-.8 1.213-.8.834 0 1.474.364 1.751.863.155.19.354.277.577.277.344 0 .543-.262.543-.606 0-.417-.262-.888-.703-1.169-.471-.306-1.174-.563-2.057-.563-1.62 0-2.628.82-2.628 2.1 0 1.155.65 1.742 1.901 1.989l1.198.238c.664.126.98.378.98.877 0 .544-.461.869-1.3.869-.931 0-1.577-.354-1.95-1.004-.107-.16-.276-.238-.451-.238-.33 0-.582.276-.582.616 0 .412.247.883.664 1.188.544.403 1.257.641 2.246.641zm12.795-7.242c-.373 0-.626.262-.626.64v2.338h-3.39v-2.338c0-.378-.252-.64-.63-.64-.374 0-.626.262-.626.64v5.922c0 .379.252.646.626.646.378 0 .63-.267.63-.646v-2.391h3.39v2.391c0 .379.253.646.626.646.374 0 .626-.267.626-.646v-5.922c0-.378-.252-.64-.626-.64zm3.968 5.859v-1.712h2.818c.339 0 .601-.238.601-.582 0-.34-.257-.587-.601-.587h-2.818v-1.63h3.147c.364 0 .631-.257.631-.62 0-.364-.267-.616-.631-.616h-3.778c-.373 0-.626.261-.626.64v5.699c0 .378.253.645.626.645h3.798c.364 0 .63-.257.63-.621s-.266-.616-.63-.616zm6.276 1.349c.378 0 .63-.267.63-.646v-5.922c0-.378-.252-.64-.63-.64-.374 0-.626.262-.626.64v5.922c0 .379.252.646.626.646zm5.917-4.021c-.334 0-.611.213-.611.596 0 .335.277.587.611.587h2.071c-.043.999-.776 1.635-1.964 1.635-1.416 0-2.348-.999-2.348-2.396 0-1.407.946-2.411 2.314-2.411.917 0 1.518.374 1.901.892.209.19.379.262.602.262.291 0 .567-.194.567-.557 0-.393-.325-.854-.761-1.164-.543-.384-1.3-.665-2.27-.665-2.115 0-3.648 1.504-3.648 3.652 0 2.139 1.46 3.624 3.609 3.624 1.95 0 3.279-1.208 3.279-3.323v-.097c0-.422-.291-.635-.66-.635zm10.399-3.187c-.373 0-.625.262-.625.64v2.338h-3.391v-2.338c0-.378-.252-.64-.63-.64-.374 0-.626.262-.626.64v5.922c0 .379.252.646.626.646.378 0 .63-.267.63-.646v-2.391h3.391v2.391c0 .379.252.646.625.646.374 0 .626-.267.626-.646v-5.922c0-.378-.252-.64-.626-.64zm2.673.112c-.359 0-.626.252-.626.616 0 .363.267.62.626.62h1.736v5.214c0 .379.257.646.626.646.378 0 .63-.267.63-.646v-5.214h1.737c.359 0 .626-.257.626-.62 0-.364-.267-.616-.626-.616z" fill="#0068ff"/><path d="m155.387 34.5183c.126-.1358.165-.2813.165-.4171 0-.3104-.282-.5723-.597-.5723-.184 0-.349.0921-.534.3104l-1.396 1.6345-1.397-1.6345c-.185-.2231-.35-.3104-.534-.3104-.315 0-.596.2619-.596.5723 0 .1358.038.2813.16.4171l1.576 1.7946-1.576 1.8334c-.122.1407-.16.2814-.16.4123 0 .3104.281.5772.596.5772.18 0 .349-.0776.539-.3104l1.392-1.6685 1.392 1.6685c.189.2328.359.3104.538.3104.315 0 .597-.2668.597-.5772 0-.1212-.044-.2716-.165-.4123l-1.577-1.8334zm4.952 2.0517c.368 0 .635-.2522.635-.6111 0-.359-.267-.6112-.635-.6112h-2.842c-.364 0-.636.2522-.636.6112 0 .3589.272.6111.636.6111zm7.726-4.666c-.373 0-.625.2619-.625.6403v2.3378h-3.391v-2.3378c0-.3784-.252-.6403-.63-.6403-.374 0-.626.2619-.626.6403v5.9222c0 .3783.252.6451.626.6451.378 0 .63-.2668.63-.6451v-2.3912h3.391v2.3912c0 .3783.252.6451.625.6451.374 0 .626-.2668.626-.6451v-5.9222c0-.3784-.252-.6403-.626-.6403zm3.968 5.8592v-1.7122h2.818c.339 0 .601-.2376.601-.582 0-.3395-.257-.5869-.601-.5869h-2.818v-1.6297h3.148c.363 0 .63-.2571.63-.6208 0-.3638-.267-.616-.63-.616h-3.779c-.373 0-.625.2619-.625.6402v5.6991c0 .3783.252.6451.625.6451h3.798c.364 0 .631-.2571.631-.6208 0-.3638-.267-.616-.631-.616zm6.276 1.3484c.378 0 .631-.2668.631-.6451v-5.9222c0-.3784-.253-.6403-.631-.6403-.373 0-.626.2619-.626.6403v5.9222c0 .3783.253.6451.626.6451zm5.918-4.0209c-.335 0-.612.2134-.612.5966 0 .3346.277.5868.612.5868h2.071c-.044.9992-.776 1.6346-1.965 1.6346-1.416 0-2.347-.9992-2.347-2.3961 0-1.4065.945-2.4106 2.313-2.4106.917 0 1.518.3735 1.902.8925.208.1892.378.2619.601.2619.291 0 .567-.194.567-.5578 0-.3928-.324-.8536-.761-1.164-.543-.3832-1.3-.6645-2.27-.6645-2.115 0-3.647 1.5036-3.647 3.6522 0 2.139 1.46 3.6232 3.608 3.6232 1.95 0 3.279-1.2077 3.279-3.3224v-.097c0-.422-.291-.6354-.66-.6354zm10.399-3.1867c-.374 0-.626.2619-.626.6403v2.3378h-3.391v-2.3378c0-.3784-.252-.6403-.63-.6403-.374 0-.626.2619-.626.6403v5.9222c0 .3783.252.6451.626.6451.378 0 .63-.2668.63-.6451v-2.3912h3.391v2.3912c0 .3783.252.6451.626.6451.373 0 .625-.2668.625-.6451v-5.9222c0-.3784-.252-.6403-.625-.6403zm2.672.1116c-.359 0-.626.2522-.626.616 0 .3637.267.6208.626.6208h1.736v5.2141c0 .3783.258.6451.626.6451.378 0 .631-.2668.631-.6451v-5.2141h1.736c.359 0 .626-.2571.626-.6208 0-.3638-.267-.616-.626-.616z" fill="#0068ff"/><path d="m143.809 8.14551c1.159 0 2.066-.38317 2.702-1.12042.237-.27647.412-.67419.412-.94096 0-.33952-.262-.61113-.587-.61113-.204 0-.403.09215-.592.33952-.412.69359-1.033 1.07191-1.925 1.07191-1.315 0-2.231-.98461-2.231-2.37179 0-1.39688.916-2.38149 2.231-2.38149.892 0 1.518.36862 1.925 1.06706.185.25222.388.34437.592.34437.325 0 .587-.27646.587-.61598 0-.28617-.184-.6839-.437-.97491-.63-.72755-1.532-1.081618-2.677-1.081618-2.071 0-3.516 1.493888-3.516 3.642568 0 2.14383 1.445 3.63287 3.516 3.63287zm8.619-6.29083c-.272-.66934-.592-.984608-1.203-.984608s-.931.315268-1.203.984608l-2.158 5.26742c-.063.16006-.087.31042-.087.41227 0 .32497.276.59174.601.59174.315 0 .519-.14551.621-.40258l.529-1.34353h3.4l.528 1.34353c.097.25707.306.40258.621.40258.32 0 .602-.26677.602-.59174 0-.10185-.025-.25221-.093-.41227zm-1.198.21341 1.227 3.11874h-2.459zm5.306-1.05251c-.373 0-.625.26192-.625.64024v5.81065c0 .37832.252.64509.625.64509.379 0 .631-.26677.631-.64509v-1.92072h1.678c1.431 0 2.517-.8779 2.517-2.26508 0-1.37264-1.086-2.26509-2.517-2.26509zm.631 3.337v-2.14383h1.717c.698 0 1.169.42683 1.169 1.07192s-.471 1.07191-1.169 1.07191zm8.478 3.79293c1.625 0 2.677-.83425 2.677-2.17778 0-1.20772-.683-1.73156-1.896-1.98377l-1.174-.24737c-.65-.13095-1.009-.31526-1.009-.8682 0-.51898.466-.8003 1.213-.8003.834 0 1.474.36378 1.751.86336.155.18916.354.27646.577.27646.344 0 .543-.26191.543-.60628 0-.41713-.262-.88761-.703-1.16892-.471-.30557-1.174-.562638-2.057-.562638-1.62 0-2.628.819698-2.628 2.100178 0 1.15437.65 1.74125 1.901 1.98862l1.198.23766c.664.12611.98.37832.98.8779 0 .54324-.461.86821-1.3.86821-.931 0-1.577-.35407-1.95-1.00401-.107-.16006-.276-.23767-.451-.23767-.33 0-.582.27647-.582.61599 0 .41227.247.88275.664 1.18832.544.40257 1.257.64024 2.246.64024zm12.795-7.241486c-.373 0-.626.261916-.626.640236v2.33784h-3.39v-2.33784c0-.37832-.252-.640236-.63-.640236-.374 0-.626.261916-.626.640236v5.92221c0 .37832.252.64509.626.64509.378 0 .63-.26677.63-.64509v-2.3912h3.39v2.3912c0 .37832.253.64509.626.64509.374 0 .626-.26677.626-.64509v-5.92221c0-.37832-.252-.640236-.626-.640236zm3.968 5.859156v-1.71216h2.818c.339 0 .601-.23766.601-.58203 0-.33952-.257-.58689-.601-.58689h-2.818v-1.6297h3.147c.364 0 .631-.25706.631-.62083s-.267-.61599-.631-.61599h-3.778c-.373 0-.626.26192-.626.64024v5.69909c0 .37832.253.64509.626.64509h3.798c.364 0 .63-.25707.63-.62084s-.266-.61598-.63-.61598zm6.276 1.34838c.378 0 .63-.26677.63-.64509v-5.92221c0-.37832-.252-.640236-.63-.640236-.374 0-.626.261916-.626.640236v5.92221c0 .37832.252.64509.626.64509zm5.917-4.02089c-.334 0-.611.21341-.611.59658 0 .33467.277.58689.611.58689h2.071c-.043.99916-.776 1.63454-1.964 1.63454-1.416 0-2.348-.99916-2.348-2.39604 0-1.40658.946-2.41059 2.314-2.41059.917 0 1.518.37347 1.901.89245.209.18916.379.26192.602.26192.291 0 .567-.19402.567-.55779 0-.39287-.325-.85365-.761-1.16407-.543-.38317-1.3-.664488-2.27-.664488-2.115 0-3.648 1.503588-3.648 3.652268 0 2.13898 1.46 3.62317 3.609 3.62317 1.95 0 3.279-1.20772 3.279-3.32245v-.09701c0-.42197-.291-.63538-.66-.63538zm10.399-3.186646c-.373 0-.625.261916-.625.640236v2.33784h-3.391v-2.33784c0-.37832-.252-.640236-.63-.640236-.374 0-.626.261916-.626.640236v5.92221c0 .37832.252.64509.626.64509.378 0 .63-.26677.63-.64509v-2.3912h3.391v2.3912c0 .37832.252.64509.625.64509.374 0 .626-.26677.626-.64509v-5.92221c0-.37832-.252-.640236-.626-.640236zm2.673.111556c-.359 0-.626.25222-.626.61599s.267.62083.626.62083h1.736v5.21407c0 .37832.257.64509.626.64509.378 0 .63-.26677.63-.64509v-5.21407h1.737c.359 0 .626-.25706.626-.62083s-.267-.61599-.626-.61599z" fill="#0068ff"/><path d="m144.59 161.016c-.374 0-.626.261-.626.64v5.704c0 .373.252.64.626.64h2.25c2.047 0 3.396-1.431 3.396-3.492 0-2.057-1.349-3.492-3.396-3.492zm.63 5.757v-4.535h1.616c1.256 0 2.076.951 2.076 2.27 0 1.329-.82 2.265-2.076 2.265zm8.023-.01v-1.712h2.818c.339 0 .601-.238.601-.582 0-.34-.257-.587-.601-.587h-2.818v-1.63h3.148c.363 0 .63-.257.63-.62 0-.364-.267-.616-.63-.616h-3.779c-.373 0-.625.261-.625.64v5.699c0 .378.252.645.625.645h3.798c.364 0 .631-.257.631-.621s-.267-.616-.631-.616zm8.197 1.383c1.625 0 2.677-.835 2.677-2.178 0-1.208-.684-1.732-1.896-1.984l-1.174-.247c-.65-.131-1.009-.316-1.009-.869 0-.519.466-.8 1.213-.8.834 0 1.474.364 1.751.863.155.19.354.277.577.277.344 0 .543-.262.543-.606 0-.417-.262-.888-.703-1.169-.471-.306-1.174-.563-2.057-.563-1.62 0-2.629.82-2.629 2.1 0 1.155.65 1.742 1.902 1.989l1.198.238c.664.126.979.378.979.877 0 .544-.46.869-1.299.869-.932 0-1.577-.354-1.95-1.004-.107-.16-.277-.238-.451-.238-.33 0-.582.276-.582.616 0 .412.247.883.664 1.188.543.403 1.256.641 2.246.641zm7.615 0c1.159 0 2.066-.384 2.701-1.121.238-.276.413-.674.413-.941 0-.339-.262-.611-.587-.611-.204 0-.403.092-.592.34-.412.693-1.033 1.071-1.925 1.071-1.315 0-2.232-.984-2.232-2.371 0-1.397.917-2.382 2.232-2.382.892 0 1.518.369 1.925 1.067.184.252.388.345.592.345.325 0 .587-.277.587-.616 0-.287-.185-.684-.437-.975-.63-.728-1.533-1.082-2.677-1.082-2.071 0-3.517 1.494-3.517 3.643 0 2.143 1.446 3.633 3.517 3.633zm6.053-1.383v-1.712h2.818c.34 0 .601-.238.601-.582 0-.34-.257-.587-.601-.587h-2.818v-1.63h3.148c.364 0 .63-.257.63-.62 0-.364-.266-.616-.63-.616h-3.779c-.373 0-.625.261-.625.64v5.699c0 .378.252.645.625.645h3.798c.364 0 .631-.257.631-.621s-.267-.616-.631-.616zm10.971-5.854c-.368 0-.625.262-.625.635v4.448l-3.071-4.477c-.329-.465-.533-.606-.863-.606-.461 0-.761.32-.761.81v5.752c0 .374.247.636.625.636.374 0 .626-.262.626-.636v-4.375l3.094 4.443c.296.412.534.568.859.568.436 0 .747-.325.747-.815v-5.748c0-.373-.257-.635-.631-.635zm3.347.107c-.373 0-.626.261-.626.64v5.704c0 .373.253.64.626.64h2.251c2.046 0 3.395-1.431 3.395-3.492 0-2.057-1.349-3.492-3.395-3.492zm.631 5.757v-4.535h1.615c1.256 0 2.076.951 2.076 2.27 0 1.329-.82 2.265-2.076 2.265zm8.022-.01v-1.712h2.818c.339 0 .601-.238.601-.582 0-.34-.257-.587-.601-.587h-2.818v-1.63h3.148c.364 0 .63-.257.63-.62 0-.364-.266-.616-.63-.616h-3.779c-.373 0-.625.261-.625.64v5.699c0 .378.252.645.625.645h3.798c.364 0 .631-.257.631-.621s-.267-.616-.631-.616zm9.744-1.503c.82-.335 1.363-1.063 1.363-2.023 0-1.319-1.048-2.221-2.43-2.221h-2.401c-.373 0-.625.261-.625.64v5.81c0 .379.252.646.625.646.379 0 .631-.267.631-.646v-2.008h1.518l1.596 2.363c.121.174.3.286.528.286.325 0 .611-.253.611-.544 0-.14-.038-.295-.169-.48zm-1.052-3.051c.659 0 1.11.407 1.11 1.028 0 .626-.451 1.028-1.11 1.028h-1.785v-2.056z" fill="#0068ff"/><path d="m120.09 84.904c-.34 0-.563.2328-.762.4414-.281.5093-.936.9701-1.576 1.1592-.277.1358-.446.3153-.446.6015 0 .3104.228.5577.557.5577.592 0 1.271-.3104 1.601-.8051v4.6369c0 .3589.257.616.63.616.35 0 .597-.2571.597-.616v-5.9125c0-.4172-.184-.6791-.601-.6791zm6.737 7.096c.363 0 .601-.2377.601-.5917 0-.359-.242-.6015-.601-.6015h-3.066c.107-.4704.539-.7954 1.514-1.2659 1.387-.6499 2.022-1.2805 2.022-2.4833 0-1.3824-.975-2.1875-2.449-2.1875-.985 0-1.887.4268-2.309 1.1495-.184.3007-.31.6305-.31.9555 0 .3638.203.5917.567.5917.209 0 .422-.1164.538-.3589.248-.713.757-1.1786 1.523-1.1786.747 0 1.198.4705 1.198 1.0234 0 .6257-.329.9992-1.522 1.5763-1.737.8343-2.338 1.5861-2.338 2.6047 0 .5092.228.7663.679.7663zm4.666.1455c1.852 0 3.021-1.4114 3.021-3.6377s-1.169-3.6377-3.021-3.6377c-1.853 0-3.027 1.4114-3.027 3.6377s1.174 3.6377 3.027 3.6377zm0-1.198c-1.092 0-1.727-.8294-1.727-2.4397s.635-2.4446 1.727-2.4446c1.086 0 1.726.8343 1.726 2.4446s-.64 2.4397-1.726 2.4397z" fill="#ff3801"/><path d="m177.09 84.904c-.34 0-.563.2328-.762.4414-.281.5093-.936.9701-1.576 1.1592-.277.1358-.446.3153-.446.6015 0 .3104.228.5577.557.5577.592 0 1.271-.3104 1.601-.8051v4.6369c0 .3589.257.616.63.616.35 0 .597-.2571.597-.616v-5.9125c0-.4172-.184-.6791-.601-.6791zm6.737 7.096c.363 0 .601-.2377.601-.5917 0-.359-.242-.6015-.601-.6015h-3.066c.107-.4704.539-.7954 1.514-1.2659 1.387-.6499 2.022-1.2805 2.022-2.4833 0-1.3824-.975-2.1875-2.449-2.1875-.985 0-1.887.4268-2.309 1.1495-.184.3007-.31.6305-.31.9555 0 .3638.203.5917.567.5917.209 0 .422-.1164.538-.3589.248-.713.757-1.1786 1.523-1.1786.747 0 1.198.4705 1.198 1.0234 0 .6257-.329.9992-1.522 1.5763-1.737.8343-2.338 1.5861-2.338 2.6047 0 .5092.228.7663.679.7663zm4.666.1455c1.852 0 3.021-1.4114 3.021-3.6377s-1.169-3.6377-3.021-3.6377c-1.853 0-3.027 1.4114-3.027 3.6377s1.174 3.6377 3.027 3.6377zm0-1.198c-1.092 0-1.727-.8294-1.727-2.4397s.635-2.4446 1.727-2.4446c1.086 0 1.726.8343 1.726 2.4446s-.64 2.4397-1.726 2.4397z" fill="#ff3801"/><path d="m156.09 228.904c-.34 0-.563.233-.762.441-.281.51-.936.97-1.576 1.16-.277.135-.446.315-.446.601 0 .31.228.558.557.558.592 0 1.271-.311 1.601-.805v4.637c0 .358.257.616.63.616.35 0 .597-.258.597-.616v-5.913c0-.417-.184-.679-.601-.679zm5.204 7.242c1.853 0 3.022-1.412 3.022-3.638s-1.169-3.638-3.022-3.638-3.027 1.412-3.027 3.638 1.174 3.638 3.027 3.638zm0-1.199c-1.091 0-1.727-.829-1.727-2.439 0-1.611.636-2.445 1.727-2.445 1.086 0 1.727.834 1.727 2.445 0 1.61-.641 2.439-1.727 2.439zm7.12 1.199c1.853 0 3.022-1.412 3.022-3.638s-1.169-3.638-3.022-3.638-3.026 1.412-3.026 3.638 1.173 3.638 3.026 3.638zm0-1.199c-1.091 0-1.726-.829-1.726-2.439 0-1.611.635-2.445 1.726-2.445 1.087 0 1.727.834 1.727 2.445 0 1.61-.64 2.439-1.727 2.439z" fill="#ff3801"/><path d="m156.09 303.904c-.34 0-.563.233-.762.441-.281.51-.936.97-1.576 1.16-.277.135-.446.315-.446.601 0 .31.228.558.557.558.592 0 1.271-.311 1.601-.805v4.637c0 .358.257.616.63.616.35 0 .597-.258.597-.616v-5.913c0-.417-.184-.679-.601-.679zm5.204 7.242c1.853 0 3.022-1.412 3.022-3.638s-1.169-3.638-3.022-3.638-3.027 1.412-3.027 3.638 1.174 3.638 3.027 3.638zm0-1.199c-1.091 0-1.727-.829-1.727-2.439 0-1.611.636-2.445 1.727-2.445 1.086 0 1.727.834 1.727 2.445 0 1.61-.641 2.439-1.727 2.439zm7.12 1.199c1.853 0 3.022-1.412 3.022-3.638s-1.169-3.638-3.022-3.638-3.026 1.412-3.026 3.638 1.173 3.638 3.026 3.638zm0-1.199c-1.091 0-1.726-.829-1.726-2.439 0-1.611.635-2.445 1.726-2.445 1.087 0 1.727.834 1.727 2.445 0 1.61-.64 2.439-1.727 2.439z" fill="#ff3801"/><path d="m113.09 253.904c-.34 0-.563.233-.762.441-.281.51-.936.97-1.576 1.16-.277.135-.446.315-.446.601 0 .31.228.558.557.558.592 0 1.271-.311 1.601-.805v4.637c0 .358.257.616.63.616.35 0 .597-.258.597-.616v-5.913c0-.417-.184-.679-.601-.679zm6.737 7.096c.363 0 .601-.238.601-.592 0-.359-.242-.601-.601-.601h-3.066c.107-.471.539-.796 1.514-1.266 1.387-.65 2.022-1.281 2.022-2.483 0-1.383-.975-2.188-2.449-2.188-.985 0-1.887.427-2.309 1.15-.184.3-.31.63-.31.955 0 .364.203.592.567.592.209 0 .422-.117.538-.359.248-.713.757-1.179 1.523-1.179.747 0 1.198.471 1.198 1.024 0 .625-.329.999-1.522 1.576-1.737.834-2.338 1.586-2.338 2.605 0 .509.228.766.679.766zm4.506-4.617c-.471 0-.927.106-1.349.363l.151-1.542h2.599c.359 0 .597-.233.597-.592 0-.354-.243-.596-.597-.596h-3.128c-.335 0-.592.213-.621.562l-.218 2.421c-.005.063-.015.155-.015.232 0 .408.204.689.597.689.213 0 .378-.053.582-.16.315-.184.698-.32 1.14-.32.795 0 1.3.47 1.3 1.246 0 .738-.587 1.257-1.368 1.257-.776 0-1.281-.291-1.518-.713-.18-.18-.32-.272-.529-.272-.34 0-.563.233-.563.568 0 .261.117.523.272.742.373.528 1.203.878 2.197.878 1.615 0 2.76-.966 2.76-2.469 0-1.392-.917-2.294-2.289-2.294z" fill="#ff3801"/><path d="m178.09 278.904c-.34 0-.563.233-.762.441-.281.51-.936.97-1.576 1.16-.277.135-.446.315-.446.601 0 .31.228.558.557.558.592 0 1.271-.311 1.601-.805v4.637c0 .358.257.616.63.616.35 0 .597-.258.597-.616v-5.913c0-.417-.184-.679-.601-.679zm6.737 7.096c.363 0 .601-.238.601-.592 0-.359-.242-.601-.601-.601h-3.066c.107-.471.539-.796 1.514-1.266 1.387-.65 2.022-1.281 2.022-2.483 0-1.383-.975-2.188-2.449-2.188-.985 0-1.887.427-2.309 1.15-.184.3-.31.63-.31.955 0 .364.203.592.567.592.209 0 .422-.117.538-.359.248-.713.757-1.179 1.523-1.179.747 0 1.198.471 1.198 1.024 0 .625-.329.999-1.522 1.576-1.737.834-2.338 1.586-2.338 2.605 0 .509.228.766.679.766zm4.506-4.617c-.471 0-.927.106-1.349.363l.151-1.542h2.599c.359 0 .597-.233.597-.592 0-.354-.243-.596-.597-.596h-3.128c-.335 0-.592.213-.621.562l-.218 2.421c-.005.063-.015.155-.015.232 0 .408.204.689.597.689.213 0 .378-.053.582-.16.315-.184.698-.32 1.14-.32.795 0 1.3.47 1.3 1.246 0 .738-.587 1.257-1.368 1.257-.776 0-1.281-.291-1.518-.713-.18-.18-.32-.272-.529-.272-.34 0-.563.233-.563.568 0 .261.117.523.272.742.373.528 1.203.878 2.197.878 1.615 0 2.76-.966 2.76-2.469 0-1.392-.917-2.294-2.289-2.294z" fill="#ff3801"/><path d="m179.09 252.904c-.34 0-.563.233-.762.441-.281.51-.936.97-1.576 1.16-.277.135-.446.315-.446.601 0 .31.228.558.557.558.592 0 1.271-.311 1.601-.805v4.637c0 .358.257.616.63.616.35 0 .597-.258.597-.616v-5.913c0-.417-.184-.679-.601-.679zm6.737 7.096c.363 0 .601-.238.601-.592 0-.359-.242-.601-.601-.601h-3.066c.107-.471.539-.796 1.514-1.266 1.387-.65 2.022-1.281 2.022-2.483 0-1.383-.975-2.188-2.449-2.188-.985 0-1.887.427-2.309 1.15-.184.3-.31.63-.31.955 0 .364.203.592.567.592.209 0 .422-.117.538-.359.248-.713.757-1.179 1.523-1.179.747 0 1.198.471 1.198 1.024 0 .625-.329.999-1.522 1.576-1.737.834-2.338 1.586-2.338 2.605 0 .509.228.766.679.766zm4.506-4.617c-.471 0-.927.106-1.349.363l.151-1.542h2.599c.359 0 .597-.233.597-.592 0-.354-.243-.596-.597-.596h-3.128c-.335 0-.592.213-.621.562l-.218 2.421c-.005.063-.015.155-.015.232 0 .408.204.689.597.689.213 0 .378-.053.582-.16.315-.184.698-.32 1.14-.32.795 0 1.3.47 1.3 1.246 0 .738-.587 1.257-1.368 1.257-.776 0-1.281-.291-1.518-.713-.18-.18-.32-.272-.529-.272-.34 0-.563.233-.563.568 0 .261.117.523.272.742.373.528 1.203.878 2.197.878 1.615 0 2.76-.966 2.76-2.469 0-1.392-.917-2.294-2.289-2.294z" fill="#ff3801"/><path d="m156.794 272.146c1.833 0 3.021-1.199 3.021-4.021 0-2.076-1.013-3.255-2.735-3.255-1.572 0-2.629 1.033-2.629 2.527 0 1.412 1.028 2.411 2.416 2.411.771 0 1.338-.286 1.673-.835 0 1.291-.825 1.931-1.649 1.931-.548 0-.956-.165-1.281-.461-.16-.121-.305-.194-.504-.194-.311 0-.539.218-.539.548 0 .243.107.456.296.655.403.417 1.072.694 1.931.694zm.271-3.43c-.795 0-1.343-.553-1.343-1.363 0-.814.553-1.377 1.368-1.377.81 0 1.353.553 1.353 1.377 0 .81-.548 1.363-1.378 1.363zm6.553-1.333c-.47 0-.926.101-1.348.363l.145-1.542h2.6c.364 0 .601-.233.601-.592 0-.354-.242-.596-.601-.596h-3.124c-.334 0-.591.213-.62.562l-.219 2.421c-.005.063-.019.155-.019.232 0 .408.208.689.597.689.218 0 .378-.053.582-.16.32-.184.703-.32 1.144-.32.791 0 1.3.47 1.3 1.246 0 .738-.587 1.257-1.373 1.257-.771 0-1.28-.291-1.513-.713-.184-.18-.32-.272-.533-.272-.34 0-.558.233-.558.568 0 .261.111.523.267.742.378.528 1.202.878 2.197.878 1.62 0 2.764-.966 2.764-2.469 0-1.392-.921-2.294-2.289-2.294z" fill="#ff3801"/><path d="m212.09 253.904c-.34 0-.563.233-.762.441-.281.51-.936.97-1.576 1.16-.277.135-.446.315-.446.601 0 .31.228.558.557.558.592 0 1.271-.311 1.601-.805v4.637c0 .358.257.616.63.616.35 0 .597-.258.597-.616v-5.913c0-.417-.184-.679-.601-.679zm6.737 7.096c.363 0 .601-.238.601-.592 0-.359-.242-.601-.601-.601h-3.066c.107-.471.539-.796 1.514-1.266 1.387-.65 2.022-1.281 2.022-2.483 0-1.383-.975-2.188-2.449-2.188-.985 0-1.887.427-2.309 1.15-.184.3-.31.63-.31.955 0 .364.203.592.567.592.209 0 .422-.117.538-.359.248-.713.757-1.179 1.523-1.179.747 0 1.198.471 1.198 1.024 0 .625-.329.999-1.522 1.576-1.737.834-2.338 1.586-2.338 2.605 0 .509.228.766.679.766zm4.666.146c1.852 0 3.021-1.412 3.021-3.638s-1.169-3.638-3.021-3.638c-1.853 0-3.027 1.412-3.027 3.638s1.174 3.638 3.027 3.638zm0-1.199c-1.092 0-1.727-.829-1.727-2.439 0-1.611.635-2.445 1.727-2.445 1.086 0 1.726.834 1.726 2.445 0 1.61-.64 2.439-1.726 2.439z" fill="#ff3801"/><path d="m268.09 253.904c-.34 0-.563.233-.762.441-.281.51-.936.97-1.576 1.16-.277.135-.446.315-.446.601 0 .31.228.558.557.558.592 0 1.271-.311 1.601-.805v4.637c0 .358.257.616.63.616.35 0 .597-.258.597-.616v-5.913c0-.417-.184-.679-.601-.679zm6.737 7.096c.363 0 .601-.238.601-.592 0-.359-.242-.601-.601-.601h-3.066c.107-.471.539-.796 1.514-1.266 1.387-.65 2.022-1.281 2.022-2.483 0-1.383-.975-2.188-2.449-2.188-.985 0-1.887.427-2.309 1.15-.184.3-.31.63-.31.955 0 .364.203.592.567.592.209 0 .422-.117.538-.359.248-.713.757-1.179 1.523-1.179.747 0 1.198.471 1.198 1.024 0 .625-.329.999-1.522 1.576-1.737.834-2.338 1.586-2.338 2.605 0 .509.228.766.679.766zm4.666.146c1.852 0 3.021-1.412 3.021-3.638s-1.169-3.638-3.021-3.638c-1.853 0-3.027 1.412-3.027 3.638s1.174 3.638 3.027 3.638zm0-1.199c-1.092 0-1.727-.829-1.727-2.439 0-1.611.635-2.445 1.727-2.445 1.086 0 1.726.834 1.726 2.445 0 1.61-.64 2.439-1.726 2.439z" fill="#ff3801"/><path d="m326.09 253.904c-.34 0-.563.233-.762.441-.281.51-.936.97-1.576 1.16-.277.135-.446.315-.446.601 0 .31.228.558.557.558.592 0 1.271-.311 1.601-.805v4.637c0 .358.257.616.63.616.35 0 .597-.258.597-.616v-5.913c0-.417-.184-.679-.601-.679zm6.737 7.096c.363 0 .601-.238.601-.592 0-.359-.242-.601-.601-.601h-3.066c.107-.471.539-.796 1.514-1.266 1.387-.65 2.022-1.281 2.022-2.483 0-1.383-.975-2.188-2.449-2.188-.985 0-1.887.427-2.309 1.15-.184.3-.31.63-.31.955 0 .364.203.592.567.592.209 0 .422-.117.538-.359.248-.713.757-1.179 1.523-1.179.747 0 1.198.471 1.198 1.024 0 .625-.329.999-1.522 1.576-1.737.834-2.338 1.586-2.338 2.605 0 .509.228.766.679.766zm4.666.146c1.852 0 3.021-1.412 3.021-3.638s-1.169-3.638-3.021-3.638c-1.853 0-3.027 1.412-3.027 3.638s1.174 3.638 3.027 3.638zm0-1.199c-1.092 0-1.727-.829-1.727-2.439 0-1.611.635-2.445 1.727-2.445 1.086 0 1.726.834 1.726 2.445 0 1.61-.64 2.439-1.726 2.439z" fill="#ff3801"/><path d="m234.09 231.904c-.34 0-.563.233-.762.441-.281.51-.936.97-1.576 1.16-.277.135-.446.315-.446.601 0 .31.228.558.557.558.592 0 1.271-.311 1.601-.805v4.637c0 .358.257.616.63.616.35 0 .597-.258.597-.616v-5.913c0-.417-.184-.679-.601-.679zm6.737 7.096c.363 0 .601-.238.601-.592 0-.359-.242-.601-.601-.601h-3.066c.107-.471.539-.796 1.514-1.266 1.387-.65 2.022-1.281 2.022-2.483 0-1.383-.975-2.188-2.449-2.188-.985 0-1.887.427-2.309 1.15-.184.3-.31.63-.31.955 0 .364.203.592.567.592.209 0 .422-.117.538-.359.248-.713.757-1.179 1.523-1.179.747 0 1.198.471 1.198 1.024 0 .625-.329.999-1.522 1.576-1.737.834-2.338 1.586-2.338 2.605 0 .509.228.766.679.766zm4.666.146c1.852 0 3.021-1.412 3.021-3.638s-1.169-3.638-3.021-3.638c-1.853 0-3.027 1.412-3.027 3.638s1.174 3.638 3.027 3.638zm0-1.199c-1.092 0-1.727-.829-1.727-2.439 0-1.611.635-2.445 1.727-2.445 1.086 0 1.726.834 1.726 2.445 0 1.61-.64 2.439-1.726 2.439z" fill="#ff3801"/><path d="m293.09 229.904c-.34 0-.563.233-.762.441-.281.51-.936.97-1.576 1.16-.277.135-.446.315-.446.601 0 .31.228.558.557.558.592 0 1.271-.311 1.601-.805v4.637c0 .358.257.616.63.616.35 0 .597-.258.597-.616v-5.913c0-.417-.184-.679-.601-.679zm4.734 0c-.34 0-.563.233-.762.441-.281.51-.936.97-1.576 1.16-.277.135-.447.315-.447.601 0 .31.228.558.558.558.592 0 1.271-.311 1.601-.805v4.637c0 .358.257.616.63.616.35 0 .597-.258.597-.616v-5.913c0-.417-.184-.679-.601-.679zm5.044 2.479c-.471 0-.927.106-1.349.363l.151-1.542h2.6c.358 0 .596-.233.596-.592 0-.354-.242-.596-.596-.596h-3.129c-.335 0-.592.213-.621.562l-.218 2.421c-.005.063-.015.155-.015.232 0 .408.204.689.597.689.213 0 .378-.053.582-.16.315-.184.699-.32 1.14-.32.795 0 1.3.47 1.3 1.246 0 .738-.587 1.257-1.368 1.257-.776 0-1.28-.291-1.518-.713-.18-.18-.32-.272-.529-.272-.339 0-.562.233-.562.568 0 .261.116.523.271.742.374.528 1.203.878 2.197.878 1.615 0 2.76-.966 2.76-2.469 0-1.392-.917-2.294-2.289-2.294z" fill="#ff3801"/><path d="m210.09 70.904c-.34 0-.563.2328-.762.4414-.281.5093-.936.9701-1.576 1.1592-.277.1358-.446.3153-.446.6015 0 .3104.228.5577.557.5577.592 0 1.271-.3104 1.601-.8051v4.6369c0 .3589.257.616.63.616.35 0 .597-.2571.597-.616v-5.9125c0-.4172-.184-.6791-.601-.6791zm6.737 7.096c.363 0 .601-.2377.601-.5917 0-.359-.242-.6015-.601-.6015h-3.066c.107-.4704.539-.7954 1.514-1.2659 1.387-.6499 2.022-1.2805 2.022-2.4833 0-1.3824-.975-2.1875-2.449-2.1875-.985 0-1.887.4268-2.309 1.1495-.184.3007-.31.6305-.31.9555 0 .3638.203.5917.567.5917.209 0 .422-.1164.538-.3589.248-.713.757-1.1786 1.523-1.1786.747 0 1.198.4705 1.198 1.0234 0 .6257-.329.9992-1.522 1.5763-1.737.8343-2.338 1.5861-2.338 2.6047 0 .5092.228.7663.679.7663zm4.506-4.6175c-.471 0-.927.1067-1.349.3638l.151-1.5424h2.599c.359 0 .597-.2328.597-.5917 0-.3541-.243-.5966-.597-.5966h-3.128c-.335 0-.592.2134-.621.5626l-.218 2.4203c-.005.0631-.015.1552-.015.2328 0 .4074.204.6888.597.6888.213 0 .378-.0534.582-.1601.315-.1843.698-.3201 1.14-.3201.795 0 1.3.4705 1.3 1.2465 0 .7373-.587 1.2562-1.368 1.2562-.776 0-1.281-.291-1.518-.713-.18-.1794-.32-.2716-.529-.2716-.34 0-.563.2328-.563.5675 0 .2619.117.5238.272.7421.373.5287 1.203.8779 2.197.8779 1.615 0 2.76-.9652 2.76-2.4688 0-1.392-.917-2.2942-2.289-2.2942z" fill="#ff3801"/><path d="m278.09 70.904c-.34 0-.563.2328-.762.4414-.281.5093-.936.9701-1.576 1.1592-.277.1358-.446.3153-.446.6015 0 .3104.228.5577.557.5577.592 0 1.271-.3104 1.601-.8051v4.6369c0 .3589.257.616.63.616.35 0 .597-.2571.597-.616v-5.9125c0-.4172-.184-.6791-.601-.6791zm6.737 7.096c.363 0 .601-.2377.601-.5917 0-.359-.242-.6015-.601-.6015h-3.066c.107-.4704.539-.7954 1.514-1.2659 1.387-.6499 2.022-1.2805 2.022-2.4833 0-1.3824-.975-2.1875-2.449-2.1875-.985 0-1.887.4268-2.309 1.1495-.184.3007-.31.6305-.31.9555 0 .3638.203.5917.567.5917.209 0 .422-.1164.538-.3589.248-.713.757-1.1786 1.523-1.1786.747 0 1.198.4705 1.198 1.0234 0 .6257-.329.9992-1.522 1.5763-1.737.8343-2.338 1.5861-2.338 2.6047 0 .5092.228.7663.679.7663zm4.666.1455c1.852 0 3.021-1.4114 3.021-3.6377s-1.169-3.6377-3.021-3.6377c-1.853 0-3.027 1.4114-3.027 3.6377s1.174 3.6377 3.027 3.6377zm0-1.198c-1.092 0-1.727-.8294-1.727-2.4397s.635-2.4446 1.727-2.4446c1.086 0 1.726.8343 1.726 2.4446s-.64 2.4397-1.726 2.4397z" fill="#ff3801"/><path d="m134.871 97.3281h-19.871" stroke="#ff3801" stroke-linecap="round" stroke-linejoin="round" stroke-miterlimit="10" stroke-width=".993339"/><path d="m132.883 94.8936 2.117 2.4336-2.117 2.384" stroke="#ff3801" stroke-linecap="round" stroke-linejoin="round" stroke-miterlimit="10" stroke-width=".993339"/><path d="m117.203 99.7122-2.117-2.384 2.117-2.4337" stroke="#ff3801" stroke-linecap="round" stroke-linejoin="round" stroke-miterlimit="10" stroke-width=".993339"/><path d="m191.871 97.3281h-19.871" stroke="#ff3801" stroke-linecap="round" stroke-linejoin="round" stroke-miterlimit="10" stroke-width=".993339"/><path d="m189.883 94.8936 2.117 2.4336-2.117 2.384" stroke="#ff3801" stroke-linecap="round" stroke-linejoin="round" stroke-miterlimit="10" stroke-width=".993339"/><path d="m174.203 99.7122-2.117-2.384 2.117-2.4337" stroke="#ff3801" stroke-linecap="round" stroke-linejoin="round" stroke-miterlimit="10" stroke-width=".993339"/><path d="m224.871 83.3281h-19.871" stroke="#ff3801" stroke-linecap="round" stroke-linejoin="round" stroke-miterlimit="10" stroke-width=".993339"/><path d="m222.883 80.8936 2.117 2.4336-2.117 2.384" stroke="#ff3801" stroke-linecap="round" stroke-linejoin="round" stroke-miterlimit="10" stroke-width=".993339"/><path d="m207.203 85.7122-2.117-2.384 2.117-2.4337" stroke="#ff3801" stroke-linecap="round" stroke-linejoin="round" stroke-miterlimit="10" stroke-width=".993339"/><path d="m292.871 83.3281h-19.871" stroke="#ff3801" stroke-linecap="round" stroke-linejoin="round" stroke-miterlimit="10" stroke-width=".993339"/><path d="m290.883 80.8936 2.117 2.4336-2.117 2.384" stroke="#ff3801" stroke-linecap="round" stroke-linejoin="round" stroke-miterlimit="10" stroke-width=".993339"/><path d="m275.203 85.7122-2.117-2.384 2.117-2.4337" stroke="#ff3801" stroke-linecap="round" stroke-linejoin="round" stroke-miterlimit="10" stroke-width=".993339"/><path d="m19.5386 252.904c-.3395 0-.5627.233-.7615.441-.2813.51-.9361.97-1.5764 1.16-.2764.135-.4462.315-.4462.601 0 .31.228.558.5578.558.5917 0 1.2708-.311 1.6006-.805v4.637c0 .358.257.616.6305.616.3492 0 .5966-.258.5966-.616v-5.913c0-.417-.1843-.679-.6014-.679zm6.737 7.096c.3638 0 .6015-.238.6015-.592 0-.359-.2426-.601-.6015-.601h-3.0654c.1067-.471.5384-.796 1.5133-1.266 1.3872-.65 2.0226-1.281 2.0226-2.483 0-1.383-.9749-2.188-2.4494-2.188-.9846 0-1.8868.427-2.3087 1.15-.1843.3-.3104.63-.3104.955 0 .364.2037.592.5674.592.2086 0 .422-.117.5384-.359.2474-.713.7567-1.179 1.523-1.179.747 0 1.198.471 1.198 1.024 0 .625-.3298.999-1.523 1.576-1.7364.834-2.3378 1.586-2.3378 2.605 0 .509.228.766.679.766zm4.5059-4.617c-.4704 0-.9264.106-1.3483.363l.1503-1.542h2.5998c.3589 0 .5966-.233.5966-.592 0-.354-.2425-.596-.5966-.596h-3.1285c-.3346 0-.5917.213-.6208.562l-.2183 2.421c-.0048.063-.0145.155-.0145.232 0 .408.2037.689.5966.689.2134 0 .3783-.053.582-.16.3153-.184.6985-.32 1.1398-.32.7955 0 1.2999.47 1.2999 1.246 0 .738-.5869 1.257-1.3678 1.257-.776 0-1.2804-.291-1.5181-.713-.1795-.18-.3201-.272-.5287-.272-.3395 0-.5626.233-.5626.568 0 .261.1164.523.2716.742.3735.528 1.2029.878 2.1972.878 1.6151 0 2.7598-.966 2.7598-2.469 0-1.392-.9167-2.294-2.2894-2.294z" fill="#ff3801"/><path d="m84.1797 267.904c-.3396 0-.5627.233-.7615.441-.2814.51-.9362.97-1.5764 1.16-.2765.135-.4462.315-.4462.601 0 .31.2279.558.5578.558.5917 0 1.2707-.311 1.6006-.805v4.637c0 .358.257.616.6305.616.3492 0 .5966-.258.5966-.616v-5.913c0-.417-.1843-.679-.6014-.679zm6.9165 1.237c.1794-.155.2764-.354.2764-.543 0-.364-.2473-.582-.6548-.582h-3.8171c-.3541 0-.616.247-.616.591 0 .345.257.587.616.587h2.5803l-1.7509 1.533c-.1698.15-.2523.305-.2523.456 0 .281.2232.465.5287.465.1552 0 .4123-.038.616-.038.9701 0 1.5182.412 1.5182 1.135 0 .713-.553 1.198-1.3678 1.198-.713 0-1.2077-.316-1.4891-.825-.1649-.204-.3249-.276-.5383-.276-.3444 0-.5578.213-.5578.572 0 .276.1212.577.3104.839.4171.568 1.2853.893 2.2651.893 1.586 0 2.6434-.941 2.6434-2.367 0-1.208-.7809-1.945-2.1778-2.023zm4.2537 6.005c1.8528 0 3.0217-1.412 3.0217-3.638s-1.1689-3.638-3.0217-3.638-3.0266 1.412-3.0266 3.638 1.1738 3.638 3.0266 3.638zm0-1.199c-1.0913 0-1.7267-.829-1.7267-2.439 0-1.611.6354-2.445 1.7267-2.445 1.0864 0 1.7267.834 1.7267 2.445 0 1.61-.6403 2.439-1.7267 2.439z" fill="#ff3801"/><path d="m56.9053 301.904c-.3346 0-.5578.233-.7615.441-.2764.51-.9361.97-1.5715 1.16-.2813.135-.451.315-.451.601 0 .31.2279.558.5626.558.5869 0 1.2659-.306 1.5957-.805v4.637c0 .358.2571.616.6354.616.3444 0 .5966-.258.5966-.616v-5.913c0-.417-.1892-.679-.6063-.679zm5.0928 7.242c1.8528 0 3.0218-1.412 3.0218-3.638s-1.169-3.638-3.0218-3.638-3.0266 1.412-3.0266 3.638 1.1738 3.638 3.0266 3.638zm0-1.199c-1.0913 0-1.7267-.829-1.7267-2.439 0-1.611.6354-2.445 1.7267-2.445 1.0865 0 1.7267.834 1.7267 2.445 0 1.61-.6402 2.439-1.7267 2.439zm6.8292-3.564c-.4704 0-.9264.101-1.3483.363l.1455-1.542h2.5997c.3638 0 .6015-.233.6015-.592 0-.354-.2426-.596-.6015-.596h-3.1236c-.3346 0-.5917.213-.6208.562l-.2183 2.421c-.0048.063-.0194.155-.0194.232 0 .408.2086.689.5966.689.2183 0 .3783-.053.5821-.16.3201-.184.7032-.32 1.1446-.32.7906 0 1.2999.47 1.2999 1.246 0 .738-.5869 1.257-1.3726 1.257-.7712 0-1.2805-.291-1.5133-.713-.1843-.18-.3201-.272-.5336-.272-.3395 0-.5577.233-.5577.568 0 .261.1115.523.2667.742.3784.528 1.2029.878 2.1972.878 1.62 0 2.7647-.966 2.7647-2.469 0-1.392-.9216-2.294-2.2894-2.294z" fill="#ff3801"/><path d="m57.0896 200.904c-.3395 0-.5626.233-.7615.441-.2813.51-.9361.97-1.5763 1.16-.2765.135-.4462.315-.4462.601 0 .31.2279.558.5578.558.5917 0 1.2707-.311 1.6005-.805v4.637c0 .358.2571.616.6306.616.3492 0 .5966-.258.5966-.616v-5.913c0-.417-.1843-.679-.6015-.679zm5.2044 7.242c1.8528 0 3.0217-1.412 3.0217-3.638s-1.1689-3.638-3.0217-3.638-3.0266 1.412-3.0266 3.638 1.1738 3.638 3.0266 3.638zm0-1.199c-1.0913 0-1.7267-.829-1.7267-2.439 0-1.611.6354-2.445 1.7267-2.445 1.0865 0 1.7267.834 1.7267 2.445 0 1.61-.6402 2.439-1.7267 2.439zm6.9602-3.564c-.4705 0-.9264.106-1.3484.363l.1503-1.542h2.5998c.3589 0 .5966-.233.5966-.592 0-.354-.2425-.596-.5966-.596h-3.1284c-.3347 0-.5918.213-.6209.562l-.2182 2.421c-.0049.063-.0146.155-.0146.232 0 .408.2037.689.5966.689.2134 0 .3783-.053.582-.16.3153-.184.6985-.32 1.1399-.32.7954 0 1.2998.47 1.2998 1.246 0 .738-.5869 1.257-1.3678 1.257-.776 0-1.2804-.291-1.5181-.713-.1795-.18-.3201-.272-.5287-.272-.3395 0-.5626.233-.5626.568 0 .261.1164.523.2716.742.3735.528 1.2029.878 2.1972.878 1.6151 0 2.7598-.966 2.7598-2.469 0-1.392-.9167-2.294-2.2893-2.294z" fill="#ff3801"/><path d="m57.0896 250.904c-.3395 0-.5626.233-.7615.441-.2813.51-.9361.97-1.5763 1.16-.2765.135-.4462.315-.4462.601 0 .31.2279.558.5578.558.5917 0 1.2707-.311 1.6005-.805v4.637c0 .358.2571.616.6306.616.3492 0 .5966-.258.5966-.616v-5.913c0-.417-.1843-.679-.6015-.679zm5.2044 7.242c1.8528 0 3.0217-1.412 3.0217-3.638s-1.1689-3.638-3.0217-3.638-3.0266 1.412-3.0266 3.638 1.1738 3.638 3.0266 3.638zm0-1.199c-1.0913 0-1.7267-.829-1.7267-2.439 0-1.611.6354-2.445 1.7267-2.445 1.0865 0 1.7267.834 1.7267 2.445 0 1.61-.6402 2.439-1.7267 2.439zm7.1202 1.199c1.8528 0 3.0218-1.412 3.0218-3.638s-1.169-3.638-3.0218-3.638-3.0266 1.412-3.0266 3.638 1.1738 3.638 3.0266 3.638zm0-1.199c-1.0913 0-1.7267-.829-1.7267-2.439 0-1.611.6354-2.445 1.7267-2.445 1.0865 0 1.7267.834 1.7267 2.445 0 1.61-.6402 2.439-1.7267 2.439z" fill="#ff3801"/><g stroke="#0068ff"><path d="m11 130.063h94.451v-19.733h-66.1158l63.4168-79.9458v-18.3842h-88.5474v19.7335h60.381l-63.5856 80.1145z" stroke-width=".96383"/><path d="m172.888 43.2025v46.7194c0 15.6851-7.421 24.1191-20.746 24.1191-11.806 0-16.866-6.916-16.866-19.2279v-51.6106h-20.239v55.3212c0 24.4563 14.167 34.0693 32.046 34.0693 12.312 0 22.263-5.059 26.48-13.661v11.131h19.564v-86.8605z" stroke-width=".96383"/><path d="m272.964 52.3102c-5.397-7.5898-14.505-11.6376-26.649-11.6376-24.793 0-41.322 17.7095-41.322 41.6595 0 24.1189 16.529 41.8279 40.648 41.8279 12.481 0 20.914-3.879 26.648-11.3v7.084c0 14.167-9.445 21.082-22.432 21.082-11.638 0-19.227-4.047-20.745-10.288h-20.24c1.181 15.854 17.204 27.155 40.479 27.155 25.637 0 42.84-12.481 43.178-39.13v-75.5605h-19.565zm-23.613 54.9838c-14.167 0-23.781-9.951-23.781-24.9619 0-14.8423 9.614-24.7933 23.781-24.7933 13.999 0 23.782 9.951 23.782 24.7933 0 15.0109-9.783 24.9619-23.782 24.9619z" stroke-width=".96383"/><path d="m65.0439 313.589c23.4441 0 36.4311-13.662 36.4311-32.72 0-13.831-7.7585-24.794-19.3962-27.998 9.6137-3.711 16.3602-12.987 16.3602-25.468 0-18.553-13.1556-31.877-36.2623-31.877h-47.3941v118.063zm-29.3472-100.86h23.444c11.1317 0 17.8782 6.409 17.8782 16.192 0 9.951-6.7465 16.36-17.8782 16.36h-23.444zm0 50.093h26.1426c11.4691 0 18.2155 6.578 18.2155 16.697 0 10.289-6.7464 16.866-18.2155 16.866h-26.1426z" stroke-width=".96383"/><path d="m194.69 265.352c0-24.625-15.855-41.154-43.346-41.154-25.806 0-43.347 17.71-43.347 45.539 0 29.01 16.867 46.382 44.527 46.382 20.914 0 34.745-8.264 41.154-26.649h-20.577c-3.879 6.578-10.288 9.445-20.239 9.445-13.493 0-22.939-7.421-23.951-22.6h65.104c.506-3.036.675-6.409.675-10.963zm-65.61-4.723c1.518-13.83 10.289-19.902 22.095-19.902 13.324 0 22.769 7.421 22.769 19.902z" stroke-width=".96383"/><path d="m227.313 313.589v-41.997c0-16.697 7.421-26.48 23.612-26.48 1.856 0 3.542 0 5.06.338v-20.24c-1.349-.169-2.867-.337-4.385-.337-13.493 0-20.745 4.891-24.962 14.167v-12.312h-19.565v86.861z" stroke-width=".96383"/><path d="m283.281 313.589v-46.719c0-15.686 7.421-24.119 20.745-24.119 11.807 0 16.866 6.915 16.866 19.227v51.611h20.24v-55.321c0-24.456-13.999-34.07-32.046-34.07-12.144 0-22.095 5.06-26.48 13.662v-11.132h-19.565v86.861z" stroke-width=".96383"/><g stroke-dasharray=".1 2" stroke-linecap="round" stroke-linejoin="round"><path d="m135.5 155.5v-143"/><path d="m192.5 130.5v-86"/><path d="m292.5 155.5v-143"/><path d="m225.5 155.5v-143"/><path d="m115.5 155.5v-143"/><path d="m283.5 313.5v-117"/><path d="m341.5 313.5v-117"/><path d="m227.5 313.5v-117"/><path d="m128.5 313.5v-117"/><path d="m101.5 313.5v-117"/><path d="m35.5 313.5v-117"/><path d="m194.5 313.5v-86"/><path d="m263.5 313.5v-117"/><path d="m321.5 313.5v-117"/><path d="m207.5 313.5v-117"/><path d="m108.5 313.5v-117"/><path d="m80.5 313.5v-117"/><path d="m14.5 313.5v-117"/><path d="m174.5 313.5v-86"/><path d="m172.5 130.5v-86"/><path d="m272.5 155.5v-143"/><path d="m204.5 155.5v-143"/><path d="m-.5 11.5h354"/><path d="m-.5 155.5h354"/><path d="m-.5 43.5h354"/><path d="m-.5 31.5h354"/><path d="m-.5 110.5h354"/><path d="m-.5 130.5h354"/><path d="m-.5 195.5h354"/><path d="m-.5 212.5h354"/><path d="m-.5 245.5h354"/><path d="m-.5 262.5h354"/><path d="m-.5 296.5h354"/><path d="m-.5 226.5h354"/><path d="m-.5 313.5h354"/></g></g><path d="m74.6849 116.64c-.3396 0-.5627.233-.7615.442-.2814.509-.9362.97-1.5764 1.159-.2765.136-.4462.315-.4462.601 0 .311.2279.558.5578.558.5917 0 1.2707-.31 1.6006-.805v4.637c0 .359.257.616.6305.616.3492 0 .5966-.257.5966-.616v-5.913c0-.417-.1843-.679-.6014-.679zm6.737 7.096c.3638 0 .6014-.237.6014-.591 0-.359-.2425-.602-.6014-.602h-3.0654c.1067-.47.5384-.795 1.5133-1.266 1.3872-.65 2.0226-1.28 2.0226-2.483 0-1.382-.9749-2.188-2.4494-2.188-.9846 0-1.8868.427-2.3088 1.15-.1843.301-.3104.63-.3104.955 0 .364.2037.592.5675.592.2086 0 .422-.116.5384-.359.2474-.713.7566-1.178 1.523-1.178.7469 0 1.198.47 1.198 1.023 0 .626-.3298.999-1.523 1.576-1.7364.835-2.3378 1.586-2.3378 2.605 0 .509.2279.766.679.766zm4.666.146c1.8528 0 3.0217-1.412 3.0217-3.638s-1.1689-3.638-3.0217-3.638-3.0266 1.412-3.0266 3.638 1.1738 3.638 3.0266 3.638zm0-1.198c-1.0913 0-1.7267-.83-1.7267-2.44s.6354-2.444 1.7267-2.444c1.0864 0 1.7267.834 1.7267 2.444s-.6403 2.44-1.7267 2.44z" fill="#ff3801"/><path d="m68.4331 129.897v-18.897" stroke="#ff3801" stroke-linecap="round" stroke-linejoin="round" stroke-miterlimit="10" stroke-width=".993339"/><path d="m70.8674 127.89-2.4337 2.008-2.4337-2.008" stroke="#ff3801" stroke-linecap="round" stroke-linejoin="round" stroke-miterlimit="10" stroke-width=".993339"/><path d="m66.0015 113.011 2.4337-2.009 2.4336 2.009" stroke="#ff3801" stroke-linecap="round" stroke-linejoin="round" stroke-miterlimit="10" stroke-width=".993339"/><path d="m64.5818 76.5597-16.365-9.4484" stroke="#ff3801" stroke-linecap="round" stroke-linejoin="round" stroke-miterlimit="10" stroke-width=".993339"/><path d="m64.0597 73.4478.5226 3.1119-2.9563 1.1034" stroke="#ff3801" stroke-linecap="round" stroke-linejoin="round" stroke-miterlimit="10" stroke-width=".993339"/><path d="m48.7419 70.223-.5226-3.1119 2.9563-1.1033" stroke="#ff3801" stroke-linecap="round" stroke-linejoin="round" stroke-miterlimit="10" stroke-width=".993339"/><path d="m152.685 119.64c-.34 0-.563.233-.762.442-.281.509-.936.97-1.576 1.159-.276.136-.446.315-.446.601 0 .311.228.558.558.558.591 0 1.27-.31 1.6-.805v4.637c0 .359.257.616.631.616.349 0 .596-.257.596-.616v-5.913c0-.417-.184-.679-.601-.679zm4.734 0c-.34 0-.563.233-.762.442-.281.509-.936.97-1.576 1.159-.277.136-.446.315-.446.601 0 .311.228.558.557.558.592 0 1.271-.31 1.601-.805v4.637c0 .359.257.616.631.616.349 0 .596-.257.596-.616v-5.913c0-.417-.184-.679-.601-.679zm5.204 7.242c1.853 0 3.022-1.412 3.022-3.638s-1.169-3.638-3.022-3.638-3.026 1.412-3.026 3.638 1.173 3.638 3.026 3.638zm0-1.198c-1.091 0-1.727-.83-1.727-2.44s.636-2.444 1.727-2.444c1.087 0 1.727.834 1.727 2.444s-.64 2.44-1.727 2.44z" fill="#ff3801"/><path d="m147.433 132.897v-18.897" stroke="#ff3801" stroke-linecap="round" stroke-linejoin="round" stroke-miterlimit="10" stroke-width=".993339"/><path d="m149.867 130.889-2.433 2.008-2.434-2.008" stroke="#ff3801" stroke-linecap="round" stroke-linejoin="round" stroke-miterlimit="10" stroke-width=".993339"/><path d="m145.001 116.011 2.434-2.009 2.434 2.009" stroke="#ff3801" stroke-linecap="round" stroke-linejoin="round" stroke-miterlimit="10" stroke-width=".993339"/><path d="m152.501 119.64c-.335 0-.558.233-.762.442-.276.509-.936.97-1.571 1.159-.282.136-.452.315-.452.601 0 .311.228.558.563.558.587 0 1.266-.305 1.596-.805v4.637c0 .359.257.616.635.616.345 0 .597-.257.597-.616v-5.913c0-.417-.189-.679-.606-.679zm4.51 0c-.334 0-.557.233-.761.442-.277.509-.936.97-1.572 1.159-.281.136-.451.315-.451.601 0 .311.228.558.563.558.587 0 1.266-.305 1.596-.805v4.637c0 .359.257.616.635.616.344 0 .597-.257.597-.616v-5.913c0-.417-.19-.679-.607-.679zm5.093 7.242c1.853 0 3.022-1.412 3.022-3.638s-1.169-3.638-3.022-3.638-3.026 1.412-3.026 3.638 1.173 3.638 3.026 3.638zm0-1.198c-1.091 0-1.727-.83-1.727-2.44s.636-2.444 1.727-2.444c1.087 0 1.727.834 1.727 2.444s-.64 2.44-1.727 2.44z" fill="#ff3801"/><path d="m147.433 132.897v-18.897" stroke="#ff3801" stroke-linecap="round" stroke-linejoin="round" stroke-miterlimit="10" stroke-width=".993339"/><path d="m149.867 130.889-2.433 2.008-2.434-2.008" stroke="#ff3801" stroke-linecap="round" stroke-linejoin="round" stroke-miterlimit="10" stroke-width=".993339"/><path d="m145.001 116.011 2.434-2.009 2.434 2.009" stroke="#ff3801" stroke-linecap="round" stroke-linejoin="round" stroke-miterlimit="10" stroke-width=".993339"/><path d="m232.501 112.457c-.335 0-.558.233-.762.441-.276.509-.936.97-1.571 1.159-.282.136-.452.316-.452.602 0 .31.228.558.563.558.587 0 1.266-.306 1.596-.806v4.637c0 .359.257.616.635.616.345 0 .597-.257.597-.616v-5.912c0-.417-.189-.679-.606-.679zm5.092 7.241c1.853 0 3.022-1.411 3.022-3.637 0-2.227-1.169-3.638-3.022-3.638-1.852 0-3.026 1.411-3.026 3.638 0 2.226 1.174 3.637 3.026 3.637zm0-1.198c-1.091 0-1.726-.829-1.726-2.439 0-1.611.635-2.445 1.726-2.445 1.087 0 1.727.834 1.727 2.445 0 1.61-.64 2.439-1.727 2.439zm6.83-3.565c-.471 0-.927.102-1.349.364l.146-1.542h2.599c.364 0 .602-.233.602-.592 0-.354-.243-.597-.602-.597h-3.123c-.335 0-.592.214-.621.563l-.218 2.42c-.005.063-.02.155-.02.233 0 .407.209.689.597.689.218 0 .378-.054.582-.16.32-.185.703-.32 1.145-.32.79 0 1.3.47 1.3 1.246 0 .737-.587 1.256-1.373 1.256-.771 0-1.281-.291-1.513-.713-.185-.179-.321-.271-.534-.271-.339 0-.558.233-.558.567 0 .262.112.524.267.742.378.529 1.203.878 2.197.878 1.62 0 2.765-.965 2.765-2.469 0-1.392-.922-2.294-2.289-2.294z" fill="#ff3801"/><path d="m249.433 123.897v-16.897" stroke="#ff3801" stroke-linecap="round" stroke-linejoin="round" stroke-miterlimit="10" stroke-width=".993339"/><path d="m251.867 122.102-2.433 1.796-2.434-1.796" stroke="#ff3801" stroke-linecap="round" stroke-linejoin="round" stroke-miterlimit="10" stroke-width=".993339"/><path d="m247.001 108.798 2.434-1.796 2.434 1.796" stroke="#ff3801" stroke-linecap="round" stroke-linejoin="round" stroke-miterlimit="10" stroke-width=".993339"/><path d="m232.501 145.457c-.335 0-.558.233-.762.441-.276.509-.936.97-1.571 1.159-.282.136-.452.316-.452.602 0 .31.228.558.563.558.587 0 1.266-.306 1.596-.806v4.637c0 .359.257.616.635.616.345 0 .597-.257.597-.616v-5.912c0-.417-.189-.679-.606-.679zm5.092 7.241c1.853 0 3.022-1.411 3.022-3.637 0-2.227-1.169-3.638-3.022-3.638-1.852 0-3.026 1.411-3.026 3.638 0 2.226 1.174 3.637 3.026 3.637zm0-1.198c-1.091 0-1.726-.829-1.726-2.439 0-1.611.635-2.445 1.726-2.445 1.087 0 1.727.834 1.727 2.445 0 1.61-.64 2.439-1.727 2.439zm6.83-3.565c-.471 0-.927.102-1.349.364l.146-1.542h2.599c.364 0 .602-.233.602-.592 0-.354-.243-.597-.602-.597h-3.123c-.335 0-.592.214-.621.563l-.218 2.42c-.005.063-.02.155-.02.233 0 .407.209.689.597.689.218 0 .378-.054.582-.16.32-.185.703-.32 1.145-.32.79 0 1.3.47 1.3 1.246 0 .737-.587 1.256-1.373 1.256-.771 0-1.281-.291-1.513-.713-.185-.179-.321-.271-.534-.271-.339 0-.558.233-.558.567 0 .262.112.524.267.742.378.529 1.203.878 2.197.878 1.62 0 2.765-.965 2.765-2.469 0-1.392-.922-2.294-2.289-2.294z" fill="#ff3801"/><path d="m249.433 157.897v-16.897" stroke="#ff3801" stroke-linecap="round" stroke-linejoin="round" stroke-miterlimit="10" stroke-width=".993339"/><path d="m251.867 156.102-2.433 1.796-2.434-1.796" stroke="#ff3801" stroke-linecap="round" stroke-linejoin="round" stroke-miterlimit="10" stroke-width=".993339"/><path d="m247.001 142.798 2.434-1.796 2.434 1.796" stroke="#ff3801" stroke-linecap="round" stroke-linejoin="round" stroke-miterlimit="10" stroke-width=".993339"/><path d="m232.501 46.4568c-.335 0-.558.2328-.762.4413-.276.5093-.936.9701-1.571 1.1593-.282.1358-.452.3152-.452.6014 0 .3104.228.5578.563.5578.587 0 1.266-.3056 1.596-.8052v4.6369c0 .3589.257.616.635.616.345 0 .597-.2571.597-.616v-5.9125c0-.4171-.189-.679-.606-.679zm5.092 7.2414c1.853 0 3.022-1.4114 3.022-3.6377s-1.169-3.6377-3.022-3.6377c-1.852 0-3.026 1.4114-3.026 3.6377s1.174 3.6377 3.026 3.6377zm0-1.198c-1.091 0-1.726-.8294-1.726-2.4397s.635-2.4445 1.726-2.4445c1.087 0 1.727.8342 1.727 2.4445s-.64 2.4397-1.727 2.4397zm6.83-3.5649c-.471 0-.927.1018-1.349.3637l.146-1.5424h2.599c.364 0 .602-.2328.602-.5917 0-.3541-.243-.5966-.602-.5966h-3.123c-.335 0-.592.2134-.621.5626l-.218 2.4203c-.005.0631-.02.1553-.02.2329 0 .4074.209.6887.597.6887.218 0 .378-.0534.582-.1601.32-.1843.703-.3201 1.145-.3201.79 0 1.3.4705 1.3 1.2465 0 .7373-.587 1.2563-1.373 1.2563-.771 0-1.281-.291-1.513-.713-.185-.1795-.321-.2716-.534-.2716-.339 0-.558.2328-.558.5674 0 .262.112.5239.267.7421.378.5287 1.203.8779 2.197.8779 1.62 0 2.765-.9652 2.765-2.4688 0-1.392-.922-2.2941-2.289-2.2941z" fill="#ff3801"/><path d="m249.433 57.8968v-16.8968" stroke="#ff3801" stroke-linecap="round" stroke-linejoin="round" stroke-miterlimit="10" stroke-width=".993339"/><path d="m251.867 56.1016-2.433 1.7959-2.434-1.7959" stroke="#ff3801" stroke-linecap="round" stroke-linejoin="round" stroke-miterlimit="10" stroke-width=".993339"/><path d="m247.001 42.7979 2.434-1.7959 2.434 1.7959" stroke="#ff3801" stroke-linecap="round" stroke-linejoin="round" stroke-miterlimit="10" stroke-width=".993339"/><path d="m38.6849 17.6404c-.3396 0-.5627.2328-.7615.4413-.2814.5093-.9362.9701-1.5764 1.1592-.2765.1359-.4462.3153-.4462.6015 0 .3104.2279.5578.5578.5578.5917 0 1.2707-.3105 1.6006-.8052v4.6369c0 .3589.257.616.6305.616.3492 0 .5966-.2571.5966-.616v-5.9125c0-.4171-.1843-.679-.6014-.679zm6.737 7.0959c.3638 0 .6014-.2376.6014-.5917 0-.3589-.2425-.6014-.6014-.6014h-3.0654c.1067-.4705.5384-.7955 1.5133-1.266 1.3872-.6499 2.0226-1.2804 2.0226-2.4833 0-1.3824-.9749-2.1875-2.4494-2.1875-.9846 0-1.8868.4268-2.3088 1.1495-.1843.3007-.3104.6306-.3104.9555 0 .3638.2037.5918.5675.5918.2086 0 .422-.1164.5384-.359.2474-.713.7566-1.1786 1.523-1.1786.7469 0 1.198.4705 1.198 1.0234 0 .6257-.3298.9992-1.523 1.5764-1.7364.8342-2.3378 1.586-2.3378 2.6046 0 .5093.2279.7663.679.7663zm4.666.1455c1.8528 0 3.0217-1.4114 3.0217-3.6377s-1.1689-3.6377-3.0217-3.6377-3.0266 1.4114-3.0266 3.6377 1.1738 3.6377 3.0266 3.6377zm0-1.198c-1.0913 0-1.7267-.8294-1.7267-2.4397s.6354-2.4445 1.7267-2.4445c1.0864 0 1.7267.8342 1.7267 2.4445s-.6403 2.4397-1.7267 2.4397z" fill="#ff3801"/><path d="m32.4331 30.8967v-18.8967" stroke="#ff3801" stroke-linecap="round" stroke-linejoin="round" stroke-miterlimit="10" stroke-width=".993339"/><path d="m34.8674 28.8887-2.4337 2.0085-2.4337-2.0085" stroke="#ff3801" stroke-linecap="round" stroke-linejoin="round" stroke-miterlimit="10" stroke-width=".993339"/><path d="m30.0015 14.0105 2.4337-2.0085 2.4336 2.0085" stroke="#ff3801" stroke-linecap="round" stroke-linejoin="round" stroke-miterlimit="10" stroke-width=".993339"/><g fill="#ff3801"><path d="m49.6464 212.354c.1953.195.5119.195.7072 0l3.1819-3.182c.1953-.196.1953-.512 0-.708-.1952-.195-.5118-.195-.7071 0l-2.8284 2.829-2.8284-2.829c-.1953-.195-.5119-.195-.7071 0-.1953.196-.1953.512 0 .708zm-.1464-16.354v16h1v-16z"/><path d="m49.6464 313.354c.1953.195.5119.195.7072 0l3.1819-3.182c.1953-.196.1953-.512 0-.708-.1952-.195-.5118-.195-.7071 0l-2.8284 2.829-2.8284-2.829c-.1953-.195-.5119-.195-.7071 0-.1953.196-.1953.512 0 .708zm-.1464-16.354v16h1v-16z"/><path d="m49.6464 262.354c.1953.195.5119.195.7072 0l3.1819-3.182c.1953-.196.1953-.512 0-.708-.1952-.195-.5118-.195-.7071 0l-2.8284 2.829-2.8284-2.829c-.1953-.195-.5119-.195-.7071 0-.1953.196-.1953.512 0 .708zm-.1464-16.354v16h1v-16z"/><path d="m50.3536 195.646c-.1953-.195-.5119-.195-.7072 0l-3.1819 3.182c-.1953.196-.1953.512 0 .708.1952.195.5118.195.7071 0l2.8284-2.829 2.8284 2.829c.1953.195.5119.195.7071 0 .1953-.196.1953-.512 0-.708zm.1464 16.354v-16h-1v16z"/><path d="m50.3536 296.646c-.1953-.195-.5119-.195-.7072 0l-3.1819 3.182c-.1953.196-.1953.512 0 .708.1952.195.5118.195.7071 0l2.8284-2.829 2.8284 2.829c.1953.195.5119.195.7071 0 .1953-.196.1953-.512 0-.708zm.1464 16.354v-16h-1v16z"/><path d="m50.3536 245.646c-.1953-.195-.5119-.195-.7072 0l-3.1819 3.182c-.1953.196-.1953.512 0 .708.1952.195.5118.195.7071 0l2.8284-2.829 2.8284 2.829c.1953.195.5119.195.7071 0 .1953-.196.1953-.512 0-.708zm.1464 16.354v-16h-1v16z"/><path d="m207.646 267.646c-.195.196-.195.512 0 .708l3.182 3.182c.196.195.512.195.708 0 .195-.196.195-.512 0-.708l-2.829-2.828 2.829-2.828c.195-.196.195-.512 0-.708-.196-.195-.512-.195-.708 0zm16.354-.146h-16v1h16z"/><path d="m227.354 268.354c.195-.196.195-.512 0-.708l-3.182-3.182c-.196-.195-.512-.195-.708 0-.195.196-.195.512 0 .708l2.829 2.828-2.829 2.828c-.195.196-.195.512 0 .708.196.195.512.195.708 0zm-12.354.146h12v-1h-12z"/><path d="m263.646 267.646c-.195.196-.195.512 0 .708l3.182 3.182c.196.195.512.195.708 0 .195-.196.195-.512 0-.708l-2.829-2.828 2.829-2.828c.195-.196.195-.512 0-.708-.196-.195-.512-.195-.708 0zm16.354-.146h-16v1h16z"/><path d="m283.354 268.354c.195-.196.195-.512 0-.708l-3.182-3.182c-.196-.195-.512-.195-.708 0-.195.196-.195.512 0 .708l2.829 2.828-2.829 2.828c-.195.196-.195.512 0 .708.196.195.512.195.708 0zm-12.354.146h12v-1h-12z"/><path d="m321.646 267.646c-.195.196-.195.512 0 .708l3.182 3.182c.196.195.512.195.708 0 .195-.196.195-.512 0-.708l-2.829-2.828 2.829-2.828c.195-.196.195-.512 0-.708-.196-.195-.512-.195-.708 0zm16.354-.146h-16v1h16z"/><path d="m341.354 268.354c.195-.196.195-.512 0-.708l-3.182-3.182c-.196-.195-.512-.195-.708 0-.195.196-.195.512 0 .708l2.829 2.828-2.829 2.828c-.195.196-.195.512 0 .708.196.195.512.195.708 0zm-12.354.146h12v-1h-12z"/><path d="m108.646 267.646c-.195.196-.195.512 0 .708l3.182 3.182c.196.195.512.195.708 0 .195-.196.195-.512 0-.708l-2.829-2.828 2.829-2.828c.195-.196.195-.512 0-.708-.196-.195-.512-.195-.708 0zm16.354-.146h-16v1h16z"/><path d="m128.354 268.354c.195-.196.195-.512 0-.708l-3.182-3.182c-.196-.195-.512-.195-.708 0-.195.196-.195.512 0 .708l2.829 2.828-2.829 2.828c-.195.196-.195.512 0 .708.196.195.512.195.708 0zm-12.354.146h12v-1h-12z"/><path d="m14.6464 267.646c-.1952.196-.1952.512 0 .708l3.182 3.182c.1953.195.5119.195.7071 0 .1953-.196.1953-.512 0-.708l-2.8284-2.828 2.8284-2.828c.1953-.196.1953-.512 0-.708-.1952-.195-.5118-.195-.7071 0zm16.3536-.146h-16v1h16z"/><path d="m77.6464 226.646c-.1952.196-.1952.512 0 .708l3.182 3.182c.1953.195.5119.195.7071 0 .1953-.196.1953-.512 0-.708l-2.8284-2.828 2.8284-2.828c.1953-.196.1953-.512 0-.708-.1952-.195-.5118-.195-.7071 0zm16.3536-.146h-16v1h16z"/><path d="m80.6464 278.646c-.1952.196-.1952.512 0 .708l3.182 3.182c.1953.195.5119.195.7071 0 .1953-.196.1953-.512 0-.708l-2.8284-2.828 2.8284-2.828c.1953-.196.1953-.512 0-.708-.1952-.195-.5118-.195-.7071 0zm16.3536-.146h-16v1h16z"/><path d="m35.3536 268.354c.1952-.196.1952-.512 0-.708l-3.182-3.182c-.1953-.195-.5119-.195-.7071 0-.1953.196-.1953.512 0 .708l2.8284 2.828-2.8284 2.828c-.1953.196-.1953.512 0 .708.1952.195.5118.195.7071 0zm-12.3536.146h12v-1h-12z"/><path d="m98.3536 227.354c.1952-.196.1952-.512 0-.708l-3.182-3.182c-.1953-.195-.5119-.195-.7071 0-.1953.196-.1953.512 0 .708l2.8284 2.828-2.8284 2.828c-.1953.196-.1953.512 0 .708.1952.195.5118.195.7071 0zm-12.3536.146h12v-1h-12z"/><path d="m101.354 279.354c.195-.196.195-.512 0-.708l-3.1824-3.182c-.1953-.195-.5119-.195-.7071 0-.1953.196-.1953.512 0 .708l2.8285 2.828-2.8285 2.828c-.1953.196-.1953.512 0 .708.1952.195.5118.195.7071 0zm-12.354.146h12v-1h-12z"/><path d="m174.646 267.646c-.195.196-.195.512 0 .708l3.182 3.182c.196.195.512.195.708 0 .195-.196.195-.512 0-.708l-2.829-2.828 2.829-2.828c.195-.196.195-.512 0-.708-.196-.195-.512-.195-.708 0zm16.354-.146h-16v1h16z"/><path d="m194.354 268.354c.195-.196.195-.512 0-.708l-3.182-3.182c-.196-.195-.512-.195-.708 0-.195.196-.195.512 0 .708l2.829 2.828-2.829 2.828c-.195.196-.195.512 0 .708.196.195.512.195.708 0zm-12.354.146h12v-1h-12z"/><path d="m151.354 224.646c-.196-.195-.512-.195-.708 0l-3.182 3.182c-.195.196-.195.512 0 .708.196.195.512.195.708 0l2.828-2.829 2.828 2.829c.196.195.512.195.708 0 .195-.196.195-.512 0-.708zm.146 11.354v-11h-1v11z"/><path d="m249.354 225.646c-.196-.195-.512-.195-.708 0l-3.182 3.182c-.195.196-.195.512 0 .708.196.195.512.195.708 0l2.828-2.829 2.828 2.829c.196.195.512.195.708 0 .195-.196.195-.512 0-.708zm.146 11.354v-11h-1v11z"/><path d="m307.354 224.646c-.196-.195-.512-.195-.708 0l-3.182 3.182c-.195.196-.195.512 0 .708.196.195.512.195.708 0l2.828-2.829 2.828 2.829c.196.195.512.195.708 0 .195-.196.195-.512 0-.708zm.146 11.354v-11h-1v11z"/><path d="m151.354 260.646c-.196-.195-.512-.195-.708 0l-3.182 3.182c-.195.196-.195.512 0 .708.196.195.512.195.708 0l2.828-2.829 2.828 2.829c.196.195.512.195.708 0 .195-.196.195-.512 0-.708zm.146 11.354v-11h-1v11z"/><path d="m151.354 299.646c-.196-.195-.512-.195-.708 0l-3.182 3.182c-.195.196-.195.512 0 .708.196.195.512.195.708 0l2.828-2.829 2.828 2.829c.196.195.512.195.708 0 .195-.196.195-.512 0-.708zm.146 11.354v-11h-1v11z"/><path d="m150.646 240.354c.196.195.512.195.708 0l3.182-3.182c.195-.196.195-.512 0-.708-.196-.195-.512-.195-.708 0l-2.828 2.829-2.828-2.829c-.196-.195-.512-.195-.708 0-.195.196-.195.512 0 .708zm-.146-12.354v12h1v-12z"/><path d="m248.646 244.354c.196.195.512.195.708 0l3.182-3.182c.195-.196.195-.512 0-.708-.196-.195-.512-.195-.708 0l-2.828 2.829-2.828-2.829c-.196-.195-.512-.195-.708 0-.195.196-.195.512 0 .708zm-.146-12.354v12h1v-12z"/><path d="m306.646 242.354c.196.195.512.195.708 0l3.182-3.182c.195-.196.195-.512 0-.708-.196-.195-.512-.195-.708 0l-2.828 2.829-2.828-2.829c-.196-.195-.512-.195-.708 0-.195.196-.195.512 0 .708zm-.146-12.354v12h1v-12z"/><path d="m150.646 276.354c.196.195.512.195.708 0l3.182-3.182c.195-.196.195-.512 0-.708-.196-.195-.512-.195-.708 0l-2.828 2.829-2.828-2.829c-.196-.195-.512-.195-.708 0-.195.196-.195.512 0 .708zm-.146-12.354v12h1v-12z"/><path d="m150.646 315.354c.196.195.512.195.708 0l3.182-3.182c.195-.196.195-.512 0-.708-.196-.195-.512-.195-.708 0l-2.828 2.829-2.828-2.829c-.196-.195-.512-.195-.708 0-.195.196-.195.512 0 .708zm-.146-12.354v12h1v-12z"/><path d="m80.1797 215.904c-.3396 0-.5627.233-.7615.441-.2814.51-.9362.97-1.5764 1.16-.2765.135-.4462.315-.4462.601 0 .31.2279.558.5578.558.5917 0 1.2707-.311 1.6006-.805v4.637c0 .358.257.616.6305.616.3492 0 .5966-.258.5966-.616v-5.913c0-.417-.1843-.679-.6014-.679zm6.9165 1.237c.1794-.155.2764-.354.2764-.543 0-.364-.2473-.582-.6548-.582h-3.8171c-.3541 0-.616.247-.616.591 0 .345.257.587.616.587h2.5803l-1.7509 1.533c-.1698.15-.2523.305-.2523.456 0 .281.2232.465.5287.465.1552 0 .4123-.038.616-.038.9701 0 1.5182.412 1.5182 1.135 0 .713-.553 1.198-1.3678 1.198-.713 0-1.2077-.316-1.4891-.825-.1649-.204-.3249-.276-.5383-.276-.3444 0-.5578.213-.5578.572 0 .276.1212.577.3104.839.4171.568 1.2853.893 2.2651.893 1.586 0 2.6434-.941 2.6434-2.367 0-1.208-.7809-1.945-2.1778-2.023zm4.2537 6.005c1.8528 0 3.0217-1.412 3.0217-3.638s-1.1689-3.638-3.0217-3.638-3.0266 1.412-3.0266 3.638 1.1738 3.638 3.0266 3.638zm0-1.199c-1.0913 0-1.7267-.829-1.7267-2.439 0-1.611.6354-2.445 1.7267-2.445 1.0864 0 1.7267.834 1.7267 2.445 0 1.61-.6403 2.439-1.7267 2.439z"/></g></g></svg>