<svg fill="none" height="101" viewBox="0 0 187 101" width="187" xmlns="http://www.w3.org/2000/svg"><path d="m1 65.8018h83.5294v34.5255h-83.5294z" fill="#fff" stroke="#000"/><path d="m1 1.20605h65.7098l17.8196 17.81965v14.4784 32.298h-83.5294z" fill="#fff" stroke="#000"/><g fill="#000"><path d="m30.8561 86.6192c1.2633 0 2.2518-.4176 2.9495-1.221.2537-.3013.4493-.7348.4493-1.0255 0-.37-.2854-.666-.6396-.666-.2273 0-.4387.1004-.6448.37-.4546.7559-1.1259 1.1682-2.0985 1.1682-1.4378 0-2.4315-1.073-2.4315-2.5848 0-1.5223.9937-2.5954 2.4315-2.5954.9726 0 1.6545.4018 2.0985 1.1629.2008.2749.4228.3753.6396.3753.3594 0 .6448-.3013.6448-.6713 0-.3118-.2008-.7453-.4757-1.0624-.6872-.7929-1.6756-1.1788-2.9231-1.1788-2.2517 0-3.8269 1.6281-3.8269 3.9697 0 2.3363 1.5752 3.9591 3.8269 3.9591z"/><path d="m38.7794 86.6192c1.8025 0 3.0975-1.2263 3.0975-3.0658 0-1.8448-1.295-3.0658-3.0975-3.0658-1.8078 0-3.1028 1.221-3.1028 3.0658 0 1.8395 1.295 3.0658 3.1028 3.0658zm0-1.1946c-1.036 0-1.7708-.7559-1.7708-1.8712s.7348-1.8712 1.7708-1.8712 1.7708.7559 1.7708 1.8712-.7348 1.8712-1.7708 1.8712z"/><path d="m44.3346 86.5822c.3753 0 .6396-.2802.6396-.6713v-6.5175c0-.3911-.2643-.666-.6396-.666-.3806 0-.6501.2749-.6501.666v6.5175c0 .3911.2695.6713.6501.6713z"/><path d="m49.8793 86.6192c1.8024 0 3.0975-1.2263 3.0975-3.0658 0-1.8448-1.2951-3.0658-3.0975-3.0658-1.8078 0-3.1028 1.221-3.1028 3.0658 0 1.8395 1.295 3.0658 3.1028 3.0658zm0-1.1946c-1.0361 0-1.7708-.7559-1.7708-1.8712s.7347-1.8712 1.7708-1.8712c1.036 0 1.7707.7559 1.7707 1.8712s-.7347 1.8712-1.7707 1.8712z"/><path d="m58.68 80.8629c-.2326-.222-.6079-.3753-1.0836-.3753-.6449 0-1.1893.2802-1.5223.7823v-.074c0-.3964-.2643-.6713-.6396-.6713-.3806 0-.6502.2749-.6502.6713v4.715c0 .3911.2696.6713.6502.6713.3753 0 .6396-.2802.6396-.6713v-2.5531h.0052c0-1.0201.4916-1.628 1.0942-1.628.296 0 .5074.1533.6766.3224.1374.148.3013.2855.5286.2855.4123 0 .6501-.2908.6501-.7083 0-.2855-.1163-.5498-.3488-.7665z"/></g><path d="m42.0678 60.8877c-2.161 0-4.6091 1.2226-6.9595 1.2226-10.9602-.0029-20.0406-13.1729-20.0406-28.7163 0-12.0909 13.523-21.685 27.0001-21.685s27.0001 9.597 27.0001 21.685c0 15.5434-9.6515 28.7134-20.0406 28.7134-2.1639 0-4.7985-1.2197-6.9595-1.2197z" fill="#ff3801" stroke="#110b15" stroke-linecap="round" stroke-linejoin="round" stroke-miterlimit="10"/><path d="m45.3777 43.3926c0 1.8284-1.4811 3.3094-3.3094 3.3094-1.8284 0-3.3095-1.481-3.3095-3.3094" stroke="#110b15" stroke-linecap="round" stroke-linejoin="round" stroke-miterlimit="10"/><path d="m35.12 36.9832c.9147 0 1.6562-.7415 1.6562-1.6561 0-.9147-.7415-1.6562-1.6562-1.6562s-1.6562.7415-1.6562 1.6562c0 .9146.7415 1.6561 1.6562 1.6561z" fill="#000" stroke="#110b15" stroke-linecap="round" stroke-linejoin="round" stroke-miterlimit="10"/><path d="m49.0161 36.9832c.9146 0 1.6561-.7415 1.6561-1.6561 0-.9147-.7415-1.6562-1.6561-1.6562-.9147 0-1.6562.7415-1.6562 1.6562 0 .9146.7415 1.6561 1.6562 1.6561z" fill="#000" stroke="#110b15" stroke-linecap="round" stroke-linejoin="round" stroke-miterlimit="10"/><path d="m40.093 17.3828c0-1.8281.6486-2.5025 1.9285-4.5172 1.2226-1.9257 2.7064-3.39511 3.4784-4.10111 1.125-1.02456 2.9416-1.01882 4.058.01435s1.1107 2.70346-.0172 3.72796c-1.8482 1.6818-3.7108 2.9647-3.7108 4.876" fill="#ac4300"/><path d="m40.093 17.3828c0-1.8281.6486-2.5025 1.9285-4.5172 1.2226-1.9257 2.7064-3.39511 3.4784-4.10111 1.125-1.02456 2.9416-1.01882 4.058.01435s1.1107 2.70346-.0172 3.72796c-1.8482 1.6818-3.7108 2.9647-3.7108 4.876" stroke="#110b15" stroke-linecap="round" stroke-linejoin="round" stroke-miterlimit="10"/><path d="m47.5206 16.376c-.9958 1.036-2.6776 1.6588-4.5602 1.6588-1.8827 0-3.7711-.8294-4.5603-1.6588" stroke="#110b15" stroke-linecap="round" stroke-linejoin="round" stroke-miterlimit="10"/><path d="m47.9404 9.4786c1.3029-.40753 7.5421-1.6875 12.4812-1.20249 5.3753.52806 12.7453 9.93279 5.625 19.07629-4.7669-.8438-12.6735-4.5718-15.1301-7.0514-2.3591-2.3791-2.273-8.4117-2.9761-10.8224z" fill="#5f5" stroke="#110b15" stroke-linecap="round" stroke-linejoin="round" stroke-miterlimit="10"/><path d="m47.9404 9.47949c6.595 1.36611 16.8922 9.36451 18.1062 17.87381z" fill="#5f5"/><path d="m47.9404 9.47949c6.595 1.36611 16.8922 9.36451 18.1062 17.87381" stroke="#110b15" stroke-linecap="round" stroke-linejoin="round" stroke-miterlimit="10"/><path d="m66.7098 1 17.8196 17.8196h-17.8196z" fill="#fff" stroke="#000" stroke-linecap="round" stroke-linejoin="round"/><path d="m102.068 65.8018h83.5294v34.5255h-83.5294z" fill="#fff" stroke="#000"/><path d="m102.068 1.20605h65.71l17.819 17.81965v14.4784 32.298h-83.529z" fill="#fff" stroke="#000"/><g fill="#000"><path d="m125.949 77.5808c.681-.3066 1.067-.8616 1.067-1.5752 0-1.3214-.993-2.1566-2.553-2.1566h-2.738c-.402 0-.671.2907-.671.6977v6.2162c0 .407.269.6977.671.6977h2.765c1.575 0 2.579-.9039 2.579-2.2517 0-.7454-.412-1.3215-1.12-1.6281zm-.37-1.4695c0 .5551-.413.8986-1.174.8986h-1.987v-1.8447h1.987c.745 0 1.174.3541 1.174.9461zm-3.161 4.0331v-2.0033h2.024c.767 0 1.195.3753 1.195.9885 0 .6448-.439 1.0148-1.195 1.0148z"/><path d="m129.765 81.5822c.375 0 .639-.2802.639-.6713v-6.5175c0-.3911-.264-.666-.639-.666-.381 0-.65.2749-.65.666v6.5175c0 .3911.269.6713.65.6713z"/><path d="m138.037 80.0334c-.122 0-.201.0476-.28.1428-.074.1057-.164.1691-.296.1691-.238 0-.317-.1744-.317-.4123v-2.4473c0-1.3004-.836-1.9981-2.289-1.9981-.983 0-1.808.3595-2.31.9779-.169.2009-.275.4176-.275.6449 0 .296.222.4916.534.4916.211 0 .37-.1058.618-.3383.354-.3965.862-.6449 1.422-.6449.635 0 1.015.2854 1.015.7506 0 .3118-.143.444-.613.5444l-1.295.2855c-1.121.2484-1.665.814-1.665 1.7179 0 1.0201.787 1.6809 1.993 1.6809.724 0 1.348-.2696 1.744-.7401.206.4546.613.7189 1.147.7189.396 0 .809-.2061 1.02-.5021.148-.1956.217-.3701.217-.5973 0-.2538-.153-.4441-.37-.4441zm-3.446.4916c-.566 0-.941-.2801-.941-.6977 0-.407.29-.666.925-.7982l.66-.1374c.296-.0634.497-.1533.629-.2643v.7083c0 .6766-.549 1.1893-1.273 1.1893z"/><path d="m142.286 81.6192c.915 0 1.676-.3383 2.131-.814.285-.3013.491-.703.491-.9885 0-.333-.264-.5708-.571-.5708-.274 0-.428.111-.602.3594-.275.4599-.73.8193-1.412.8193-.999 0-1.728-.7665-1.728-1.8712 0-1.11.729-1.8712 1.728-1.8712.614 0 1.095.3013 1.375.7506.19.2484.365.3647.639.3647.318 0 .55-.2378.55-.5603 0-.296-.195-.6924-.497-1.0043-.438-.4546-1.157-.7453-2.104-.7453-1.739 0-3.023 1.2739-3.023 3.0658s1.284 3.0658 3.023 3.0658z"/><path d="m150.099 78.0671 1.649-1.4166c.27-.2273.344-.4123.344-.592 0-.3383-.249-.5497-.582-.5497-.243 0-.412.074-.756.3753l-2.807 2.4367v-3.9274c0-.3911-.264-.666-.639-.666-.381 0-.65.2749-.65.666v6.5175c0 .3911.269.6713.65.6713.375 0 .639-.2802.639-.6713v-.9885l1.153-.9937 1.829 2.3363c.185.2485.407.3013.602.3013.37 0 .635-.2854.635-.5655 0-.1798-.027-.2961-.249-.5921z"/><path d="m162.763 79.8432c.117-.1956.217-.4018.302-.6132.121-.3066.253-.7823.253-1.0466 0-.3224-.216-.6132-.56-.6132-.439 0-.603.4123-.698.7031-.069.2378-.153.4651-.254.6765l-1.39-1.2897c.989-.4916 1.544-1.1417 1.544-2.0721 0-1.1734-.899-1.8976-2.204-1.8976-1.311 0-2.31.74-2.31 1.9294 0 .8404.444 1.3901.851 1.7866-.941.4704-1.634 1.0677-1.634 2.1143 0 1.3109 1.179 2.0985 2.781 2.0985 1.036 0 1.887-.333 2.532-.8669l.576.5392c.174.1586.38.3171.629.3171.275 0 .592-.1955.592-.5656 0-.2537-.169-.4175-.27-.5127zm-3.06-5.0427c.549 0 .935.3541.935.8616 0 .5127-.444.8615-1.152 1.2051-.402-.3647-.735-.7241-.735-1.1734 0-.5128.381-.8933.952-.8933zm-.132 5.6875c-.793 0-1.539-.3541-1.539-1.0519 0-.5391.492-.9144 1.179-1.2474l1.882 1.7496c-.391.3436-.888.5497-1.522.5497z"/><path d="m136.517 84.7274c-.354 0-.629.2168-.692.5445l-1.337 5.7193-1.486-5.2489c-.148-.5761-.539-1.0149-1.115-1.0149s-.967.4388-1.115 1.0149l-1.486 5.2594-1.337-5.7298c-.063-.3277-.338-.5445-.687-.5445-.418 0-.751.3013-.751.6978 0 .0687.005.185.037.3065l1.39 5.4445c.207.9091.703 1.4324 1.332 1.4324.64 0 1.116-.5444 1.343-1.4959l1.274-4.5722 1.274 4.5722c.227.9515.698 1.4959 1.342 1.4959.64 0 1.126-.5286 1.332-1.4324l1.396-5.4445c.026-.1215.037-.2378.037-.3065 0-.3965-.338-.6978-.751-.6978z"/><path d="m141.967 86.4876c-.777 0-1.417.2749-1.782.7823v-1.8817c0-.3912-.264-.6661-.639-.6661-.381 0-.65.2749-.65.6661v6.5174c0 .3912.269.666.65.666.375 0 .639-.2748.639-.666v-2.9918c.133-.7559.672-1.2422 1.491-1.2422.851 0 1.374.4969 1.374 1.5277v2.7116c0 .3806.265.6713.64.6713s.65-.2854.65-.6713v-2.9389c0-1.5911-.941-2.4844-2.373-2.4844z"/><path d="m147.147 85.8216c.465 0 .808-.3383.808-.7982 0-.444-.343-.7928-.808-.7928s-.814.3488-.814.7928c0 .4599.349.7982.814.7982zm-.006 6.7606c.376 0 .64-.2802.64-.6713v-4.715c0-.3964-.264-.6713-.64-.6713-.38 0-.65.2749-.65.6713v4.715c0 .3911.27.6713.65.6713z"/><path d="m153.59 90.896c-.201 0-.344.0952-.465.1903-.206.1639-.412.296-.671.296-.402 0-.656-.2537-.656-.7559v-2.812h1.528c.354 0 .602-.2432.602-.5868 0-.3383-.248-.5814-.602-.5814h-1.528v-.999c0-.3912-.264-.666-.645-.666-.38 0-.645.2748-.645.666v.999h-.798c-.349 0-.602.2431-.602.5814 0 .3436.253.5868.602.5868h.798v2.9918c0 1.1206.761 1.813 1.782 1.813.576 0 1.126-.2167 1.464-.5233.222-.2061.333-.4387.333-.6766 0-.3066-.201-.5233-.497-.5233z"/><path d="m160.329 90.6159c-.206 0-.386.1004-.571.2484-.354.3541-.777.5392-1.39.5392-1.052 0-1.771-.5815-1.855-1.4959h3.784c.455 0 .688-.2379.688-.7295 0-1.5752-1.163-2.6958-2.834-2.6958-1.733 0-2.928 1.2263-2.928 3.0658 0 1.8554 1.221 3.0605 3.098 3.0605.93 0 1.876-.3277 2.32-.962.106-.1586.19-.333.19-.5127 0-.3119-.164-.518-.502-.518zm-2.215-3.0658c.91 0 1.47.518 1.586 1.3109h-3.177c.111-.7876.725-1.3109 1.591-1.3109z"/></g><path d="m143.136 58.8877c-2.161 0-4.609 1.2226-6.96 1.2226-10.96-.0029-20.04-13.1729-20.04-28.7163 0-12.0909 13.523-21.68502 27-21.68502s27 9.59702 27 21.68502c0 15.5434-9.652 28.7134-20.041 28.7134-2.164 0-4.798-1.2197-6.959-1.2197z" fill="#fff" stroke="#110b15" stroke-linecap="round" stroke-linejoin="round" stroke-miterlimit="10"/><path d="m146.446 41.3926c0 1.8284-1.482 3.3094-3.31 3.3094s-3.309-1.481-3.309-3.3094" stroke="#110b15" stroke-linecap="round" stroke-linejoin="round" stroke-miterlimit="10"/><path d="m136.188 34.9832c.914 0 1.656-.7415 1.656-1.6561 0-.9147-.742-1.6562-1.656-1.6562-.915 0-1.656.7415-1.656 1.6562 0 .9146.741 1.6561 1.656 1.6561z" fill="#000" stroke="#110b15" stroke-linecap="round" stroke-linejoin="round" stroke-miterlimit="10"/><path d="m150.084 34.9832c.915 0 1.656-.7415 1.656-1.6561 0-.9147-.741-1.6562-1.656-1.6562s-1.656.7415-1.656 1.6562c0 .9146.741 1.6561 1.656 1.6561z" fill="#000" stroke="#110b15" stroke-linecap="round" stroke-linejoin="round" stroke-miterlimit="10"/><path d="m141.161 15.3828c0-1.8281.648-2.5025 1.928-4.5172 1.223-1.92572 2.707-3.39511 3.479-4.10111 1.125-1.02456 2.941-1.01882 4.058.01435 1.116 1.03317 1.11 2.70345-.018 3.72796-1.848 1.6818-3.71 2.9647-3.71 4.876" fill="#fff"/><path d="m141.161 15.3828c0-1.8281.648-2.5025 1.928-4.5172 1.223-1.92572 2.707-3.39511 3.479-4.10111 1.125-1.02456 2.941-1.01882 4.058.01435 1.116 1.03317 1.11 2.70345-.018 3.72796-1.848 1.6818-3.71 2.9647-3.71 4.876" stroke="#110b15" stroke-linecap="round" stroke-linejoin="round" stroke-miterlimit="10"/><path d="m148.588 14.376c-.995 1.036-2.677 1.6588-4.56 1.6588-1.882 0-3.771-.8294-4.56-1.6588" stroke="#110b15" stroke-linecap="round" stroke-linejoin="round" stroke-miterlimit="10"/><path d="m149.008 7.4786c1.303-.40753 7.542-1.6875 12.481-1.20249 5.376.52806 12.746 9.93279 5.625 19.07629-4.766-.8438-12.673-4.5718-15.13-7.0514-2.359-2.3791-2.273-8.41168-2.976-10.8224z" fill="#fff" stroke="#110b15" stroke-linecap="round" stroke-linejoin="round" stroke-miterlimit="10"/><path d="m149.008 7.47949c6.595 1.36608 16.892 9.36451 18.106 17.87381z" fill="#fff"/><path d="m149.008 7.47949c6.595 1.36608 16.892 9.36451 18.106 17.87381" stroke="#110b15" stroke-linecap="round" stroke-linejoin="round" stroke-miterlimit="10"/><path d="m167.778 1 17.819 17.8196h-17.819z" fill="#fff" stroke="#000" stroke-linecap="round" stroke-linejoin="round"/></svg>