<svg fill="none" height="218" viewBox="0 0 596 218" width="596" xmlns="http://www.w3.org/2000/svg"><path d="m.93219 65.8018h83.5294v34.5255h-83.5294z" fill="#fff" stroke="#000"/><path d="m102.281 65.8018h83.5294v34.5255h-83.5294z" fill="#fff" stroke="#000"/><path d="m203.63 65.8018h83.5294v34.5255h-83.5294z" fill="#fff" stroke="#000"/><path d="m304.979 65.8018h83.5294v34.5255h-83.5294z" fill="#fff" stroke="#000"/><path d="m406.328 65.8018h83.5294v34.5255h-83.5294z" fill="#fff" stroke="#000"/><path d="m.93219 1.20605h65.70981l17.8196 17.81965v14.4784 32.298h-83.52941z" fill="#fff" stroke="#000"/><path d="m102.281 1.20605h65.71l17.82 17.81965v14.4784 32.298h-83.53z" fill="#fff" stroke="#000"/><path d="m203.63 1.20605h65.71l17.82 17.81965v14.4784 32.298h-83.53z" fill="#fff" stroke="#000"/><path d="m304.979 1.20605h65.71l17.82 17.81965v14.4784 32.298h-83.53z" fill="#fff" stroke="#000"/><path d="m406.328 1.20605h65.71l17.82 17.81965v14.4784 32.298h-83.53z" fill="#fff" stroke="#000"/><g fill="#000"><path d="m32.0163 18.2763c-.5591-1.3378-1.1981-1.9169-2.3762-1.9169-1.1582 0-1.7972.5791-2.3563 1.9169l-10.7829 25.9191c-.0999.2196-.1598.5191-.1598.7388 0 .7388.5991 1.2181 1.258 1.2181.5392 0 .9186-.2596 1.1382-.7788l3.175-7.7078h15.4755l3.175 7.7078c.2197.5192.5991.7788 1.1382.7788.659 0 1.258-.4793 1.258-1.2181 0-.2197-.0599-.5192-.1597-.7388zm-2.3562.5592 6.7493 16.434h-13.5186z"/><path d="m67.2318 42.0987c-.4393 0-.7188.2596-.9784.7188-.3794.679-.8786 1.0783-1.6175 1.0783-1.3378 0-1.9369-.8586-1.9369-2.6558v-10.9227c0-4.5528-2.9154-7.1687-8.227-7.1687-3.4745 0-6.2501 1.4378-7.8875 3.6942-.4792.659-.9585 1.4377-.9585 2.1965 0 .5791.4393 1.0184.9984 1.0184.679 0 1.0384-.4792 1.4977-1.2979 1.1981-2.1367 3.3147-3.3947 6.3899-3.3947 3.6742 0 5.9106 1.7573 5.9106 4.6127 0 1.6774-.6589 2.2764-3.4346 2.8156l-4.6127.8986c-4.6726.9185-6.8292 2.8954-6.8292 6.33 0 3.8339 2.8156 6.2101 7.3884 6.2101 3.2748 0 6.0704-1.5575 7.5081-4.0336.1398 2.4761 1.5375 3.9138 3.9138 3.9138 1.3578 0 2.6957-.7987 3.3547-1.9369.2396-.3994.3794-.7988.3794-1.1382 0-.5591-.3195-.9385-.8587-.9385zm-14.0378 1.9569c-3.155 0-5.2716-1.6374-5.2716-4.0736 0-2.2964 1.5376-3.5743 5.3316-4.3132l3.7141-.7188c1.9169-.3595 2.9154-.7189 3.4545-1.3379v3.2948c0 3.9937-3.155 7.1487-7.2286 7.1487z"/><path d="m134.522 19.2548c-.798-1.9968-1.757-2.8954-3.554-2.8954-1.777 0-2.716.8986-3.534 2.8954l-9.905 23.9821c-.179.4193-.259.8786-.259 1.1781 0 1.0184.838 1.7772 1.817 1.7772.879 0 1.478-.4193 1.777-1.1781l2.716-6.7094h14.816l2.716 6.7094c.3.7588.899 1.1781 1.777 1.1781.959 0 1.817-.7588 1.817-1.7772 0-.2995-.079-.7588-.259-1.1781zm-3.534.6989 5.971 14.7966h-11.941z"/><path d="m168.68 41.2999c-.46 0-.759.2397-.999.639-.319.5192-.739.8587-1.378.8587-1.238 0-1.597-.9186-1.597-2.1766v-10.1639c0-4.6926-3.035-7.3085-8.487-7.3085-3.574 0-6.489 1.3978-8.247 3.7541-.499.659-.938 1.4178-.938 2.1965 0 .8187.619 1.3978 1.458 1.3978.778 0 1.318-.4593 1.877-1.2979 1.178-1.7772 3.235-2.8955 5.93-2.8955 3.115 0 4.972 1.4378 4.972 3.7741 0 1.4377-.599 1.9569-2.915 2.4361l-4.752.9785c-4.453.9185-6.59 3.0552-6.59 6.4698 0 3.8539 2.895 6.27 7.468 6.27 2.995 0 5.551-1.238 7.029-3.2948.519 2.0169 1.977 3.195 4.074 3.195 1.477 0 2.935-.7788 3.674-1.917.359-.5591.559-1.0583.559-1.6574 0-.7188-.439-1.258-1.138-1.258zm-13.539 1.7373c-2.696 0-4.493-1.298-4.493-3.2549 0-1.9169 1.338-3.0152 4.493-3.6542l3.175-.639c1.538-.3195 2.456-.6989 2.975-1.2181v2.9354c0 3.2748-2.695 5.8308-6.15 5.8308z"/><path d="m237.269 20.413c-1.118-2.7557-2.436-4.0536-4.972-4.0536-2.496 0-3.814 1.2979-4.932 4.0536l-8.886 21.6857c-.28.6589-.379 1.2779-.379 1.6973 0 1.3379 1.158 2.4361 2.476 2.4361 1.298 0 2.156-.599 2.556-1.6573l2.176-5.5313h13.998l2.177 5.5313c.419 1.0583 1.258 1.6573 2.556 1.6573 1.337 0 2.476-1.0982 2.476-2.4361 0-.4194-.1-1.0384-.36-1.6973zm-4.952.8786 5.052 12.8397h-10.124z"/><path d="m270.228 40.3215c-.459 0-.758.1797-1.058.5391-.28.3994-.619.639-1.118.639-.899 0-1.198-.6589-1.198-1.5575v-9.2454c0-4.9122-3.155-7.5481-8.647-7.5481-3.714 0-6.829 1.3579-8.726 3.6942-.639.7588-1.038 1.5775-1.038 2.4361 0 1.1183.838 1.8571 2.017 1.8571.798 0 1.397-.3994 2.336-1.278 1.338-1.4976 3.255-2.4361 5.371-2.4361 2.397 0 3.834 1.0783 3.834 2.8355 0 1.1781-.539 1.6773-2.316 2.0567l-4.892 1.0783c-4.234.9386-6.29 3.0752-6.29 6.4898 0 3.8539 2.975 6.3499 7.528 6.3499 2.735 0 5.092-1.0184 6.589-2.7955.779 1.7172 2.317 2.7157 4.334 2.7157 1.497 0 3.055-.7788 3.853-1.897.56-.7389.819-1.3978.819-2.2565 0-.9585-.579-1.6773-1.398-1.6773zm-13.019 1.857c-2.137 0-3.554-1.0583-3.554-2.6358 0-1.5376 1.098-2.516 3.494-3.0152l2.496-.5192c1.118-.2396 1.877-.5791 2.376-.9984v2.6757c0 2.556-2.076 4.4929-4.812 4.4929z"/><path d="m339.697 21.3515c-1.358-3.3947-2.956-4.9921-6.071-4.9921-3.075 0-4.692 1.5974-6.05 4.9921l-8.067 19.8486c-.34.8586-.46 1.6174-.46 2.1166 0 1.5776 1.378 2.9554 2.996 2.9554 1.617 0 2.675-.7389 3.155-2.0368l1.777-4.5927h13.319l1.777 4.5927c.479 1.2979 1.537 2.0368 3.155 2.0368 1.617 0 2.995-1.3778 2.995-2.9554 0-.4992-.1-1.258-.459-2.1166zm-6.051.9984 4.353 11.3021h-8.706z"/><path d="m371.717 39.5427c-.459 0-.759.1398-1.098.4793-.26.2795-.539.4592-.939.4592-.619 0-.838-.4592-.838-1.0783v-8.5265c0-5.0919-3.275-7.7278-8.806-7.7278-3.794 0-7.089 1.318-9.086 3.6543-.759.8386-1.098 1.6973-1.098 2.6358 0 1.3379.978 2.2165 2.436 2.2165.799 0 1.478-.3594 2.696-1.278 1.477-1.278 3.274-2.0767 4.912-2.0767 1.857 0 2.955.7987 2.955 2.1166 0 .9386-.499 1.4378-1.857 1.7373l-4.992 1.1781c-4.074.9385-6.05 3.0752-6.05 6.5097 0 3.8539 3.035 6.4099 7.568 6.4099 2.576 0 4.812-.8986 6.33-2.516.918 1.5176 2.476 2.4162 4.433 2.4162 1.537 0 3.175-.7788 4.033-1.8771.699-.8786 1.019-1.6773 1.019-2.7157 0-1.1382-.679-2.0168-1.618-2.0168zm-12.6 1.9569c-1.697 0-2.835-.8586-2.835-2.1366 0-1.238.918-2.1167 2.715-2.4961l1.977-.4393c.819-.1996 1.458-.4792 1.897-.8187v2.4561c0 1.9769-1.597 3.4346-3.754 3.4346z"/><path d="m442.503 22.5696c-1.677-4.1934-3.674-6.2102-7.548-6.2102-3.854 0-5.851 2.0168-7.528 6.2102l-6.989 17.4324c-.439 1.1182-.579 2.0567-.579 2.6558 0 1.9369 1.697 3.6542 3.694 3.6542 2.057 0 3.375-.9185 3.974-2.536l1.238-3.3547h12.4l1.238 3.3547c.6 1.6175 1.917 2.536 3.974 2.536 1.997 0 3.694-1.7173 3.694-3.6542 0-.5991-.139-1.5376-.579-2.6558zm-7.528 1.1981 3.415 9.2254h-6.849z"/><path d="m473.286 38.5044c-.459 0-.759.0998-1.158.3794-.24.1597-.44.2196-.679.2196-.26 0-.42-.1597-.42-.4193v-7.5481c0-5.3316-3.394-7.9874-8.985-7.9874-3.934 0-7.429 1.278-9.585 3.5944-.899.9584-1.198 1.877-1.198 2.8954 0 1.6374 1.198 2.6957 3.015 2.6957.819 0 1.577-.2995 3.195-1.278 1.637-.9784 3.295-1.5775 4.313-1.5775 1.118 0 1.777.4194 1.777 1.1382 0 .659-.439 1.1382-1.238 1.3379l-5.132 1.278c-3.854.9585-5.731 3.0951-5.731 6.5297 0 3.8539 3.095 6.4897 7.608 6.4897 2.436 0 4.493-.7588 6.031-2.2165 1.078 1.3579 2.656 2.1366 4.553 2.1366 1.557 0 3.314-.7787 4.233-1.857.898-1.0584 1.278-2.0368 1.278-3.3348 0-1.3978-.819-2.476-1.877-2.476zm-12.061 2.0966c-1.118 0-1.857-.599-1.857-1.4776 0-.8387.679-1.5975 1.657-1.8371l1.278-.3195c.479-.1198.919-.3195 1.258-.5591v2.1765c0 1.1981-.938 2.0168-2.336 2.0168z"/><path d="m29.6994 83.1136v-5.6876c0-.4122-.2748-.6977-.6871-.6977-.4071 0-.6819.2855-.6819.6977v6.3378c0 .407.2748.6977.6819.6977h3.8851c.3964 0 .6871-.2801.6871-.6766 0-.3964-.2907-.6713-.6871-.6713z"/><path d="m35.7674 77.8225c.4651 0 .8087-.3383.8087-.7982 0-.444-.3436-.7929-.8087-.7929-.4652 0-.8141.3489-.8141.7929 0 .4599.3489.7982.8141.7982zm-.0053 6.7606c.3753 0 .6396-.2802.6396-.6713v-4.715c0-.3964-.2643-.6713-.6396-.6713-.3806 0-.6502.2749-.6502.6713v4.715c0 .3911.2696.6713.6502.6713z"/><path d="m40.3394 82.696c-.3277 0-.518-.148-.518-.3805 0-.1216.0528-.2168.1691-.2961.3383.111.7348.1745 1.1735.1745 1.517 0 2.4738-.7136 2.4738-1.8501 0-.3224-.074-.6078-.2167-.851l.407-.3594c.1797-.1639.2854-.3489.2854-.5339 0-.2431-.2062-.4652-.4916-.4652-.1691 0-.3436.0793-.4916.2009l-.5233.4387c-.3911-.185-.8774-.2854-1.443-.2854-1.5118 0-2.4791.7189-2.4791 1.8553 0 .5075.1956.9356.5498 1.2475-.407.2484-.5868.5603-.5868.9673 0 .3594.1533.6607.4229.8669-.4334.2008-.7242.5603-.7242 1.0413 0 .925.9621 1.406 2.717 1.406 1.9346 0 3.0129-.6237 3.0129-1.7443 0-.925-.6607-1.4325-1.8659-1.4325zm.8405-3.2825c.7188 0 1.1628.3489 1.1628.9145 0 .5708-.444.9144-1.1628.9144-.7295 0-1.1894-.3488-1.1894-.9144 0-.5603.4599-.9145 1.1894-.9145zm-.0529 5.4814c-1.0149 0-1.4959-.2061-1.4959-.6448 0-.222.1004-.3912.3013-.5233.074.0053.148.0105.222.0105h1.8025c.5338 0 .7928.1745.7928.5075 0 .4176-.555.6501-1.6227.6501z"/><path d="m49.1243 78.4885c-.7771 0-1.4166.2749-1.7814.7823v-1.8818c0-.3911-.2643-.666-.6395-.666-.3806 0-.6502.2749-.6502.666v6.5175c0 .3911.2696.666.6502.666.3752 0 .6395-.2749.6395-.666v-2.9918c.1322-.7559.6713-1.2422 1.4906-1.2422.8511 0 1.3744.4969 1.3744 1.5276v2.7117c0 .3806.2643.6713.6396.6713.3752 0 .6501-.2855.6501-.6713v-2.939c0-1.591-.9409-2.4843-2.3733-2.4843z"/><path d="m57.2854 82.8969c-.2009 0-.3436.0951-.4652.1903-.2061.1638-.4123.296-.6713.296-.4017 0-.6554-.2537-.6554-.7559v-2.8121h1.5276c.3542 0 .6026-.2431.6026-.5867 0-.3383-.2484-.5814-.6026-.5814h-1.5276v-.999c0-.3912-.2643-.6661-.6449-.6661s-.6448.2749-.6448.6661v.999h-.7982c-.3489 0-.6026.2431-.6026.5814 0 .3436.2537.5867.6026.5867h.7982v2.9918c0 1.1206.7611 1.8131 1.7813 1.8131.5761 0 1.1259-.2167 1.4642-.5233.222-.2062.333-.4387.333-.6766 0-.3066-.2009-.5233-.4969-.5233z"/><path d="m126.339 81.4752c.893-.3647 1.485-1.1576 1.485-2.2042 0-1.4377-1.141-2.4209-2.648-2.4209h-2.616c-.407 0-.682.2854-.682.6977v6.3325c0 .4123.275.703.682.703.412 0 .687-.2907.687-.703v-2.1884h1.654l1.739 2.5742c.132.1903.328.3119.576.3119.355 0 .666-.2749.666-.592 0-.1533-.042-.3225-.185-.5233zm-1.147-3.3248c.719 0 1.21.444 1.21 1.1206 0 .6819-.491 1.1206-1.21 1.1206h-1.945v-2.2412z"/><path d="m134.664 82.6169c-.206 0-.386.1005-.571.2485-.354.3541-.777.5391-1.39.5391-1.052 0-1.771-.5814-1.855-1.4959h3.784c.455 0 .687-.2378.687-.7294 0-1.5752-1.162-2.6958-2.833-2.6958-1.734 0-2.928 1.2263-2.928 3.0658 0 1.8553 1.221 3.0605 3.097 3.0605.931 0 1.877-.3277 2.321-.962.106-.1586.19-.333.19-.5127 0-.3119-.164-.5181-.502-.5181zm-2.215-3.0657c.909 0 1.47.518 1.586 1.3108h-3.177c.111-.7875.724-1.3108 1.591-1.3108z"/><path d="m138.824 82.6962c-.328 0-.518-.148-.518-.3805 0-.1216.053-.2168.169-.2961.338.1111.735.1745 1.173.1745 1.517 0 2.474-.7136 2.474-1.8501 0-.3224-.074-.6078-.217-.851l.407-.3594c.18-.1639.286-.3489.286-.5339 0-.2431-.206-.4651-.492-.4651-.169 0-.343.0792-.491.2008l-.524.4387c-.391-.185-.877-.2854-1.443-.2854-1.511 0-2.479.7189-2.479 1.8553 0 .5075.196.9356.55 1.2475-.407.2484-.587.5603-.587.9673 0 .3594.154.6607.423.8669-.433.2008-.724.5603-.724 1.0413 0 .925.962 1.406 2.717 1.406 1.934 0 3.013-.6237 3.013-1.7443 0-.925-.661-1.4325-1.866-1.4325zm.84-3.2825c.719 0 1.163.3489 1.163.9145 0 .5708-.444.9144-1.163.9144-.729 0-1.189-.3488-1.189-.9144 0-.5603.46-.9145 1.189-.9145zm-.053 5.4814c-1.015 0-1.496-.2061-1.496-.6448 0-.222.101-.3912.302-.5233.074.0053.148.0105.222.0105h1.802c.534 0 .793.1745.793.5075 0 .4176-.555.6501-1.623.6501z"/><path d="m149.3 78.5257c-.375 0-.645.2749-.645.6713v2.7804c-.058.8721-.629 1.4589-1.522 1.4589-.846 0-1.369-.4969-1.369-1.5277v-2.7169c0-.3753-.264-.666-.645-.666-.375 0-.645.2854-.645.666v2.9389c0 1.5964.941 2.4897 2.373 2.4897.793 0 1.449-.2907 1.808-.8193v.111c0 .3911.27.6713.645.6713s.645-.2802.645-.6713v-4.715c0-.3911-.27-.6713-.645-.6713z"/><path d="m152.878 84.5833c.376 0 .64-.2802.64-.6713v-6.5175c0-.3911-.264-.666-.64-.666-.38 0-.65.2749-.65.666v6.5175c0 .3911.27.6713.65.6713z"/><path d="m161.15 83.0345c-.121 0-.2.0476-.28.1427-.074.1058-.164.1692-.296.1692-.238 0-.317-.1744-.317-.4123v-2.4473c0-1.3004-.835-1.9981-2.289-1.9981-.983 0-1.807.3594-2.31.9779-.169.2008-.274.4176-.274.6449 0 .296.222.4915.534.4915.211 0 .37-.1057.618-.3383.354-.3964.862-.6448 1.422-.6448.634 0 1.015.2854 1.015.7506 0 .3118-.143.444-.613.5444l-1.295.2854c-1.121.2485-1.666.8141-1.666 1.7179 0 1.0202.788 1.6809 1.993 1.6809.724 0 1.348-.2695 1.745-.74.206.4546.613.7189 1.147.7189.396 0 .808-.2062 1.02-.5022.148-.1955.217-.37.217-.5973 0-.2537-.154-.444-.371-.444zm-3.446.4916c-.565 0-.941-.2801-.941-.6977 0-.407.291-.666.925-.7982l.661-.1374c.296-.0634.497-.1533.629-.2643v.7083c0 .6766-.55 1.1893-1.274 1.1893z"/><path d="m166.748 78.864c-.233-.222-.608-.3753-1.084-.3753-.644 0-1.189.2802-1.522.7823v-.074c0-.3964-.264-.6713-.64-.6713-.38 0-.65.2749-.65.6713v4.715c0 .3911.27.6713.65.6713.376 0 .64-.2802.64-.6713v-2.5531h.005c0-1.0202.492-1.628 1.095-1.628.296 0 .507.1533.676.3224.138.148.301.2854.529.2854.412 0 .65-.2907.65-.7083 0-.2854-.116-.5497-.349-.7664z"/><path d="m229.778 76.7283c-.454 0-.681.2114-.951.7083l-2.241 4.2498-2.241-4.2498c-.259-.481-.481-.7083-.947-.7083-.496 0-.861.333-.861.9303v6.2056c0 .4176.291.7189.676.7189.392 0 .682-.3119.682-.7189v-4.6463l1.797 3.4623c.291.5497.487.777.894.777s.597-.2273.893-.777l1.803-3.4623v4.6463c0 .407.285.7189.676.7189s.682-.3013.682-.7189v-6.2056c0-.5973-.365-.9303-.862-.9303z"/><path d="m237.607 82.6167c-.207 0-.386.1005-.571.2485-.354.3541-.777.5391-1.391.5391-1.051 0-1.77-.5814-1.855-1.4959h3.785c.454 0 .687-.2378.687-.7294 0-1.5752-1.163-2.6958-2.833-2.6958-1.734 0-2.929 1.2263-2.929 3.0658 0 1.8553 1.221 3.0605 3.098 3.0605.93 0 1.876-.3277 2.32-.962.106-.1586.191-.333.191-.5127 0-.3119-.164-.5181-.502-.5181zm-2.215-3.0657c.909 0 1.469.518 1.586 1.3108h-3.177c.111-.7875.724-1.3108 1.591-1.3108z"/><path d="m245.001 76.7283c-.38 0-.645.2749-.645.6713v1.9346c-.438-.5497-1.115-.8457-1.913-.8457-1.633 0-2.849 1.2316-2.849 3.0658 0 1.8289 1.216 3.0658 2.849 3.0658.819 0 1.464-.259 1.913-.8193v.111c0 .3911.265.6713.645.6713.376 0 .645-.2802.645-.6713v-6.5122c0-.3964-.269-.6713-.645-.6713zm-2.347 6.6972c-.972 0-1.733-.7189-1.733-1.8712 0-1.1576.761-1.8712 1.733-1.8712 1.042 0 1.734.8246 1.734 1.8712s-.692 1.8712-1.734 1.8712z"/><path d="m248.516 77.8225c.465 0 .809-.3383.809-.7982 0-.444-.344-.7929-.809-.7929s-.814.3489-.814.7929c0 .4599.349.7982.814.7982zm-.005 6.7606c.375 0 .639-.2802.639-.6713v-4.715c0-.3964-.264-.6713-.639-.6713-.381 0-.65.2749-.65.6713v4.715c0 .3911.269.6713.65.6713z"/><path d="m256.149 78.5255c-.376 0-.645.2749-.645.6713v2.7804c-.058.8721-.629 1.4589-1.523 1.4589-.845 0-1.369-.4969-1.369-1.5277v-2.7169c0-.3753-.264-.666-.644-.666-.376 0-.645.2854-.645.666v2.9389c0 1.5964.941 2.4897 2.373 2.4897.793 0 1.448-.2907 1.808-.8193v.111c0 .3911.269.6713.645.6713.375 0 .645-.2802.645-.6713v-4.715c0-.3911-.27-.6713-.645-.6713z"/><path d="m266.059 78.4885c-1.025 0-1.686.3859-2.051.9937-.385-.6448-1.062-.9937-1.924-.9937-.755 0-1.374.2907-1.717.814v-.1057c0-.3964-.265-.6713-.64-.6713-.381 0-.65.2749-.65.6713v4.715c0 .3911.269.6713.65.6713.375 0 .64-.2802.64-.6713v-2.6218c0-.9673.544-1.6175 1.432-1.6175.793 0 1.279.4969 1.279 1.5276v2.7117c0 .3806.264.6713.64.6713.375 0 .65-.2855.65-.6713v-2.6218c0-.9673.544-1.6175 1.432-1.6175.793 0 1.28.4969 1.28 1.5276v2.7117c0 .3806.264.6713.639.6713s.65-.2855.65-.6713v-2.939c0-1.591-.935-2.4843-2.31-2.4843z"/><path d="m339.294 80.5819c.682-.3066 1.068-.8616 1.068-1.5752 0-1.3214-.994-2.1566-2.553-2.1566h-2.739c-.401 0-.671.2907-.671.6977v6.2162c0 .407.27.6977.671.6977h2.765c1.575 0 2.579-.9039 2.579-2.2518 0-.7453-.412-1.3214-1.12-1.628zm-.37-1.4695c0 .555-.412.8986-1.174.8986h-1.987v-1.8447h1.987c.746 0 1.174.3541 1.174.9461zm-3.161 4.0331v-2.0033h2.024c.767 0 1.195.3753 1.195.9884 0 .6449-.439 1.0149-1.195 1.0149z"/><path d="m345.087 84.6203c1.802 0 3.097-1.2263 3.097-3.0658 0-1.8448-1.295-3.0658-3.097-3.0658-1.808 0-3.103 1.221-3.103 3.0658 0 1.8395 1.295 3.0658 3.103 3.0658zm0-1.1946c-1.036 0-1.771-.7559-1.771-1.8712s.735-1.8712 1.771-1.8712 1.771.7559 1.771 1.8712-.735 1.8712-1.771 1.8712z"/><path d="m350.642 84.5833c.375 0 .64-.2802.64-.6713v-6.5175c0-.3911-.265-.666-.64-.666-.38 0-.65.2749-.65.666v6.5175c0 .3911.27.6713.65.6713z"/><path d="m358.497 76.7285c-.381 0-.645.2749-.645.6713v1.9346c-.439-.5497-1.116-.8457-1.914-.8457-1.633 0-2.849 1.2316-2.849 3.0658 0 1.8289 1.216 3.0658 2.849 3.0658.82 0 1.465-.259 1.914-.8193v.111c0 .3911.264.6713.645.6713.375 0 .645-.2802.645-.6713v-6.5122c0-.3964-.27-.6713-.645-.6713zm-2.347 6.6972c-.973 0-1.734-.7189-1.734-1.8712 0-1.1576.761-1.8712 1.734-1.8712 1.041 0 1.734.8246 1.734 1.8712s-.693 1.8712-1.734 1.8712z"/><path d="m437.892 80.5819c.682-.3066 1.067-.8616 1.067-1.5752 0-1.3214-.993-2.1566-2.553-2.1566h-2.738c-.401 0-.671.2907-.671.6977v6.2162c0 .407.27.6977.671.6977h2.765c1.575 0 2.579-.9039 2.579-2.2518 0-.7453-.412-1.3214-1.12-1.628zm-.37-1.4695c0 .555-.413.8986-1.174.8986h-1.987v-1.8447h1.987c.746 0 1.174.3541 1.174.9461zm-3.161 4.0331v-2.0033h2.024c.767 0 1.195.3753 1.195.9884 0 .6449-.439 1.0149-1.195 1.0149z"/><path d="m441.708 84.5833c.375 0 .639-.2802.639-.6713v-6.5175c0-.3911-.264-.666-.639-.666-.381 0-.65.2749-.65.666v6.5175c0 .3911.269.6713.65.6713z"/><path d="m449.98 83.0345c-.122 0-.201.0476-.28.1427-.074.1058-.164.1692-.296.1692-.238 0-.317-.1744-.317-.4123v-2.4473c0-1.3004-.835-1.9981-2.289-1.9981-.983 0-1.808.3594-2.31.9779-.169.2008-.275.4176-.275.6449 0 .296.222.4915.534.4915.211 0 .37-.1057.618-.3383.355-.3964.862-.6448 1.422-.6448.635 0 1.015.2854 1.015.7506 0 .3118-.142.444-.613.5444l-1.295.2854c-1.121.2485-1.665.8141-1.665 1.7179 0 1.0202.788 1.6809 1.993 1.6809.724 0 1.348-.2695 1.744-.74.206.4546.613.7189 1.147.7189.397 0 .809-.2062 1.02-.5022.148-.1955.217-.37.217-.5973 0-.2537-.153-.444-.37-.444zm-3.446.4916c-.566 0-.941-.2801-.941-.6977 0-.407.291-.666.925-.7982l.661-.1374c.296-.0634.496-.1533.629-.2643v.7083c0 .6766-.55 1.1893-1.274 1.1893z"/><path d="m454.23 84.6203c.914 0 1.675-.3383 2.13-.814.285-.3013.491-.7031.491-.9885 0-.333-.264-.5709-.57-.5709-.275 0-.429.111-.603.3595-.275.4598-.729.8193-1.411.8193-.999 0-1.729-.7665-1.729-1.8712 0-1.11.73-1.8712 1.729-1.8712.613 0 1.094.3013 1.374.7506.19.2484.365.3647.64.3647.317 0 .549-.2378.549-.5603 0-.296-.195-.6924-.497-1.0043-.438-.4546-1.157-.7453-2.103-.7453-1.739 0-3.024 1.2739-3.024 3.0658s1.285 3.0658 3.024 3.0658z"/><path d="m462.042 81.0682 1.649-1.4166c.27-.2273.344-.4123.344-.592 0-.3383-.249-.5498-.582-.5498-.243 0-.412.074-.756.3753l-2.806 2.4368v-3.9274c0-.3911-.265-.666-.64-.666-.381 0-.65.2749-.65.666v6.5175c0 .3911.269.6713.65.6713.375 0 .64-.2802.64-.6713v-.9885l1.152-.9937 1.829 2.3363c.185.2485.407.3013.602.3013.37 0 .635-.2854.635-.5656 0-.1797-.027-.296-.249-.592z"/></g><path d="m66.642 1.20605 17.8196 17.81965h-17.8196z" stroke="#000" stroke-linecap="round" stroke-linejoin="round"/><path d="m167.991 1.20605 17.82 17.81965h-17.82z" stroke="#000" stroke-linecap="round" stroke-linejoin="round"/><path d="m269.34 1.20605 17.82 17.81965h-17.82z" stroke="#000" stroke-linecap="round" stroke-linejoin="round"/><path d="m370.689 1.20605 17.82 17.81965h-17.82z" stroke="#000" stroke-linecap="round" stroke-linejoin="round"/><path d="m472.038 1.20605 17.82 17.81965h-17.82z" stroke="#000" stroke-linecap="round" stroke-linejoin="round"/><path d="m.93219 182.743h83.5294v34.5255h-83.5294z" fill="#fff" stroke="#000"/><path d="m102.281 182.743h83.5294v34.5255h-83.5294z" fill="#fff" stroke="#000"/><path d="m203.63 182.743h83.5294v34.5255h-83.5294z" fill="#fff" stroke="#000"/><path d="m304.979 182.743h83.5294v34.5255h-83.5294z" fill="#fff" stroke="#000"/><path d="m406.328 182.743h83.5294v34.5255h-83.5294z" fill="#fff" stroke="#000"/><path d="m.93219 118.147h65.70981l17.8196 17.82v14.478 32.299h-83.52941z" fill="#fff" stroke="#000"/><path d="m102.281 118.147h65.71l17.82 17.82v14.478 32.299h-83.53z" fill="#fff" stroke="#000"/><path d="m203.63 118.147h65.71l17.82 17.82v14.478 32.299h-83.53z" fill="#fff" stroke="#000"/><path d="m304.979 118.147h65.71l17.82 17.82v14.478 32.299h-83.53z" fill="#fff" stroke="#000"/><path d="m406.328 118.147h65.71l17.82 17.82v14.478 32.299h-83.53z" fill="#fff" stroke="#000"/><g fill="#000"><path d="m35.391 135.217c-.3994-1.338-.9784-1.917-2.1566-1.917-1.1581 0-1.857.579-2.5759 1.917l-13.9779 25.919c-.1198.219-.2197.519-.2396.739-.0999.738.4393 1.218 1.0982 1.218.5392 0 .9585-.26 1.2381-.779l4.1135-7.708h15.4755l2.2365 7.708c.1597.519.4992.779 1.0383.779.659 0 1.3179-.48 1.4178-1.218.02-.22 0-.52-.0799-.739zm-2.4361.559 4.7325 16.434h-13.5186z"/><path d="m67.6712 159.039c-.4393 0-.7389.26-1.0584.719-.4592.679-1.0184 1.078-1.7572 1.078-1.3379 0-1.8371-.858-1.5975-2.656l1.3379-10.922c.5591-4.553-2.0368-7.169-7.3484-7.169-3.4745 0-6.4298 1.438-8.3468 3.694-.5591.659-1.1382 1.438-1.218 2.197-.0799.579.2995 1.018.8586 1.018.6789 0 1.0983-.479 1.6574-1.298 1.4577-2.136 3.7341-3.394 6.8092-3.394 3.6742 0 5.691 1.757 5.3516 4.612-.2197 1.678-.9386 2.277-3.794 2.816l-4.7126.898c-4.7924.919-7.1886 2.896-7.608 6.33-.4792 3.834 2.0568 6.211 6.6296 6.211 3.2748 0 6.2501-1.558 8.0073-4.034-.1797 2.476 1.0583 3.914 3.4346 3.914 1.3578 0 2.7756-.799 3.5743-1.937.2995-.4.4793-.799.5192-1.138.0799-.56-.1997-.939-.7388-.939zm-14.2775 1.957c-3.155 0-5.0719-1.637-4.7724-4.074.2795-2.296 1.9769-3.574 5.8707-4.313l3.794-.719c1.9569-.359 3.0152-.718 3.6143-1.337l-.3994 3.294c-.4792 3.994-4.0336 7.149-8.1072 7.149z"/><path d="m137.777 136.195c-.559-1.997-1.417-2.895-3.215-2.895-1.777 0-2.815.898-3.873 2.895l-12.86 23.982c-.22.42-.36.879-.399 1.178-.12 1.019.619 1.778 1.597 1.778.879 0 1.538-.42 1.917-1.179l3.554-6.709h14.817l1.877 6.709c.22.759.759 1.179 1.637 1.179.959 0 1.917-.759 2.037-1.778.04-.299.02-.758-.12-1.178zm-3.634.699 4.154 14.797h-11.942z"/><path d="m169.219 158.24c-.459 0-.779.24-1.078.639-.38.52-.839.859-1.478.859-1.238 0-1.478-.919-1.338-2.177l1.258-10.163c.579-4.693-2.137-7.309-7.588-7.309-3.574 0-6.669 1.398-8.706 3.754-.579.659-1.118 1.418-1.218 2.197-.1.818.459 1.397 1.298 1.397.778 0 1.357-.459 2.036-1.298 1.378-1.777 3.575-2.895 6.27-2.895 3.116 0 4.813 1.438 4.513 3.774-.179 1.438-.838 1.957-3.215 2.436l-4.872.979c-4.573.918-6.969 3.055-7.388 6.469-.459 3.854 2.136 6.271 6.709 6.271 2.995 0 5.691-1.238 7.428-3.295.28 2.017 1.578 3.195 3.675 3.195 1.477 0 3.035-.779 3.913-1.917.44-.559.699-1.059.759-1.658.1-.718-.279-1.258-.978-1.258zm-13.758 1.738c-2.696 0-4.334-1.298-4.094-3.255.24-1.917 1.717-3.015 4.952-3.654l3.255-.639c1.578-.32 2.536-.699 3.115-1.219l-.359 2.936c-.4 3.275-3.415 5.831-6.869 5.831z"/><path d="m240.384 137.353c-.778-2.755-1.957-4.053-4.493-4.053-2.496 0-3.953 1.298-5.411 4.053l-11.562 21.686c-.359.659-.539 1.278-.579 1.697-.16 1.338.859 2.437 2.177 2.437 1.298 0 2.216-.599 2.755-1.658l2.856-5.531h13.998l1.497 5.531c.28 1.059 1.059 1.658 2.357 1.658 1.338 0 2.616-1.099 2.775-2.437.04-.419.02-1.038-.159-1.697zm-5.072.879 3.475 12.84h-10.124z"/><path d="m270.887 157.262c-.459 0-.778.18-1.118.539-.339.399-.699.639-1.198.639-.899 0-1.118-.659-1.018-1.557l1.138-9.246c.619-4.912-2.217-7.548-7.708-7.548-3.714 0-7.009 1.358-9.185 3.694-.739.759-1.239 1.578-1.338 2.436-.14 1.119.619 1.857 1.797 1.857.799 0 1.438-.399 2.476-1.278 1.537-1.497 3.554-2.436 5.671-2.436 2.396 0 3.714 1.079 3.494 2.836-.139 1.178-.738 1.677-2.576 2.057l-5.012 1.078c-4.353.938-6.669 3.075-7.088 6.49-.48 3.854 2.196 6.35 6.749 6.35 2.736 0 5.212-1.019 6.929-2.796.559 1.717 1.977 2.716 3.994 2.716 1.497 0 3.155-.779 4.093-1.897.659-.739.999-1.398 1.098-2.257.12-.958-.379-1.677-1.198-1.677zm-13.239 1.857c-2.136 0-3.434-1.058-3.235-2.636.18-1.537 1.398-2.516 3.854-3.015l2.576-.519c1.138-.24 1.937-.579 2.496-.999l-.339 2.676c-.3 2.556-2.616 4.493-5.352 4.493z"/><path d="m342.692 138.292c-.939-3.395-2.356-4.992-5.471-4.992-3.076 0-4.873 1.597-6.65 4.992l-10.503 19.849c-.46.858-.659 1.617-.719 2.116-.2 1.578 1.018 2.956 2.636 2.956 1.617 0 2.755-.739 3.394-2.037l2.337-4.593h13.319l1.218 4.593c.319 1.298 1.298 2.037 2.915 2.037s3.155-1.378 3.355-2.956c.06-.499.04-1.258-.2-2.116zm-6.17.998 2.955 11.302h-8.706z"/><path d="m372.476 156.483c-.459 0-.779.14-1.158.479-.3.28-.599.46-.999.46-.619 0-.778-.46-.698-1.079l1.038-8.526c.639-5.092-2.316-7.728-7.848-7.728-3.794 0-7.248 1.318-9.545 3.654-.858.839-1.298 1.698-1.417 2.636-.16 1.338.699 2.217 2.156 2.217.799 0 1.538-.36 2.856-1.278 1.637-1.278 3.534-2.077 5.172-2.077 1.857 0 2.855.799 2.695 2.117-.12.938-.679 1.437-2.076 1.737l-5.132 1.178c-4.194.938-6.43 3.075-6.849 6.51-.48 3.854 2.256 6.41 6.789 6.41 2.576 0 4.912-.899 6.629-2.516.739 1.517 2.177 2.416 4.134 2.416 1.537 0 3.275-.779 4.273-1.877.799-.879 1.218-1.678 1.358-2.716.14-1.138-.439-2.017-1.378-2.017zm-12.84 1.957c-1.697 0-2.735-.859-2.576-2.137.16-1.238 1.179-2.116 3.016-2.496l2.036-.439c.839-.2 1.518-.479 1.997-.819l-.299 2.456c-.24 1.977-2.017 3.435-4.174 3.435z"/><path d="m445.339 139.51c-1.158-4.193-2.916-6.21-6.789-6.21-3.854 0-6.091 2.017-8.287 6.21l-9.126 17.432c-.579 1.119-.839 2.057-.898 2.656-.24 1.937 1.238 3.654 3.234 3.654 2.057 0 3.495-.918 4.294-2.536l1.657-3.354h12.4l.819 3.354c.399 1.618 1.598 2.536 3.654 2.536 1.997 0 3.914-1.717 4.154-3.654.06-.599.04-1.537-.26-2.656zm-7.668 1.198 2.276 9.226h-6.849z"/><path d="m474.164 155.445c-.459 0-.758.1-1.198.379-.259.16-.459.22-.699.22-.259 0-.399-.16-.379-.419l.939-7.549c.639-5.331-2.417-7.987-8.008-7.987-3.934 0-7.588 1.278-10.024 3.594-1.018.959-1.438 1.877-1.557 2.896-.2 1.637.858 2.696 2.675 2.696.819 0 1.618-.3 3.355-1.278 1.757-.979 3.494-1.578 4.513-1.578 1.118 0 1.717.419 1.637 1.138-.08.659-.579 1.138-1.397 1.338l-5.292 1.278c-3.974.959-6.11 3.095-6.53 6.53-.479 3.854 2.297 6.49 6.809 6.49 2.437 0 4.573-.759 6.29-2.217.919 1.358 2.397 2.137 4.294 2.137 1.557 0 3.414-.779 4.473-1.857 1.018-1.059 1.517-2.037 1.677-3.335.18-1.398-.519-2.476-1.578-2.476zm-12.32 2.096c-1.118 0-1.777-.599-1.657-1.477.099-.839.858-1.598 1.877-1.837l1.318-.32c.499-.12.958-.319 1.317-.559l-.259 2.177c-.16 1.198-1.198 2.016-2.596 2.016z"/><path d="m29.6994 196.077v-5.688c0-.412-.2748-.698-.6871-.698-.407 0-.6819.286-.6819.698v6.338c0 .407.2749.697.6819.697h3.8851c.3964 0 .6871-.28.6871-.676 0-.397-.2907-.671-.6871-.671z"/><path d="m35.7674 190.785c.4651 0 .8087-.338.8087-.798 0-.444-.3436-.793-.8087-.793-.4652 0-.8141.349-.8141.793 0 .46.3489.798.8141.798zm-.0053 6.761c.3753 0 .6396-.28.6396-.671v-4.715c0-.397-.2643-.672-.6396-.672-.3806 0-.6502.275-.6502.672v4.715c0 .391.2696.671.6502.671z"/><path d="m40.3394 195.659c-.3277 0-.518-.148-.518-.381 0-.121.0529-.216.1691-.296.3383.111.7348.175 1.1735.175 1.517 0 2.4738-.714 2.4738-1.85 0-.323-.074-.608-.2167-.851l.407-.36c.1797-.164.2854-.349.2854-.534 0-.243-.2061-.465-.4916-.465-.1691 0-.3436.08-.4916.201l-.5233.439c-.3911-.185-.8774-.286-1.443-.286-1.5118 0-2.4791.719-2.4791 1.856 0 .507.1956.935.5498 1.247-.407.249-.5868.56-.5868.967 0 .36.1533.661.4229.867-.4334.201-.7242.561-.7242 1.042 0 .925.9621 1.406 2.717 1.406 1.9346 0 3.0129-.624 3.0129-1.745 0-.925-.6607-1.432-1.8659-1.432zm.8405-3.283c.7188 0 1.1628.349 1.1628.915 0 .571-.444.914-1.1628.914-.7295 0-1.1894-.349-1.1894-.914 0-.56.4599-.915 1.1894-.915zm-.0529 5.482c-1.0149 0-1.4959-.206-1.4959-.645 0-.222.1004-.391.3013-.523.074.005.148.01.222.01h1.8025c.5338 0 .7929.175.7929.508 0 .417-.5551.65-1.6228.65z"/><path d="m49.1243 191.451c-.777 0-1.4166.275-1.7814.783v-1.882c0-.391-.2642-.666-.6395-.666-.3806 0-.6502.275-.6502.666v6.517c0 .392.2696.666.6502.666.3753 0 .6395-.274.6395-.666v-2.991c.1322-.756.6713-1.243 1.4907-1.243.851 0 1.3743.497 1.3743 1.528v2.712c0 .38.2643.671.6396.671s.6501-.285.6501-.671v-2.939c0-1.591-.9409-2.485-2.3733-2.485z"/><path d="m57.2854 195.86c-.2009 0-.3436.095-.4651.19-.2062.164-.4123.296-.6714.296-.4017 0-.6554-.254-.6554-.756v-2.812h1.5276c.3542 0 .6026-.243.6026-.587 0-.338-.2484-.581-.6026-.581h-1.5276v-.999c0-.391-.2643-.666-.6449-.666-.3805 0-.6448.275-.6448.666v.999h-.7982c-.3489 0-.6026.243-.6026.581 0 .344.2537.587.6026.587h.7982v2.992c0 1.121.7611 1.813 1.7813 1.813.5761 0 1.1259-.217 1.4642-.523.222-.206.333-.439.333-.677 0-.306-.2009-.523-.4969-.523z"/><path d="m23.9328 208.583c2.294 0 3.9168-1.639 3.9168-3.964 0-2.331-1.6228-3.965-3.9168-3.965-2.2994 0-3.9221 1.634-3.9221 3.965 0 2.325 1.6227 3.964 3.9221 3.964zm0-1.374c-1.4642 0-2.5108-1.058-2.5108-2.59 0-1.539 1.0466-2.59 2.5108-2.59 1.4589 0 2.5108 1.051 2.5108 2.59 0 1.532-1.0519 2.59-2.5108 2.59z"/><path d="m33.0401 202.451c-.7982 0-1.4801.296-1.9188.851v-1.939c0-.397-.2643-.672-.6396-.672-.3806 0-.6501.275-.6501.672v6.512c0 .391.2695.671.6501.671.3753 0 .6396-.28.6396-.671v-.111c.4546.56 1.0995.819 1.9188.819 1.628 0 2.849-1.237 2.849-3.066 0-1.834-1.221-3.066-2.849-3.066zm-.2167 4.937c-1.0414 0-1.7285-.824-1.7285-1.871 0-1.046.6871-1.871 1.7285-1.871.9778 0 1.7337.714 1.7337 1.871 0 1.152-.7559 1.871-1.7337 1.871z"/><path d="m38.3416 208.546c.3753 0 .6396-.28.6396-.671v-6.518c0-.391-.2643-.666-.6396-.666-.3806 0-.6502.275-.6502.666v6.518c0 .391.2696.671.6502.671z"/><path d="m41.8512 201.785c.4651 0 .8087-.338.8087-.798 0-.444-.3436-.793-.8087-.793-.4652 0-.8141.349-.8141.793 0 .46.3489.798.8141.798zm-.0053 6.761c.3753 0 .6396-.28.6396-.671v-4.715c0-.397-.2643-.672-.6396-.672-.3806 0-.6502.275-.6502.672v4.715c0 .391.2696.671.6502.671z"/><path d="m49.6581 202.488c-.3805 0-.6448.275-.6448.672v.153c-.444-.56-1.1101-.862-1.9135-.862-1.6333 0-2.8491 1.232-2.8491 3.066 0 1.829 1.2158 3.066 2.8491 3.066.8246 0 1.4536-.254 1.9135-.814v1.39c0 .391.2643.666.6448.666.3806 0 .6449-.275.6449-.666v-5.999c0-.397-.2696-.672-.6449-.672zm-2.3469 4.9c-.9726 0-1.7337-.719-1.7337-1.871 0-1.157.7611-1.871 1.7337-1.871 1.0413 0 1.7338.825 1.7338 1.866 0 1.046-.6925 1.876-1.7338 1.876z"/><path d="m57.3436 202.488c-.3753 0-.6449.275-.6449.672v2.78c-.0582.872-.629 1.459-1.5223 1.459-.8458 0-1.3691-.497-1.3691-1.528v-2.717c0-.375-.2643-.666-.6449-.666-.3752 0-.6448.286-.6448.666v2.939c0 1.597.9409 2.49 2.3733 2.49.7929 0 1.4483-.291 1.8078-.819v.111c0 .391.2696.671.6449.671.3752 0 .6448-.28.6448-.671v-4.715c0-.391-.2696-.672-.6448-.672z"/><path d="m64.9021 206.58c-.2061 0-.3859.1-.5709.248-.3541.354-.777.539-1.3901.539-1.0519 0-1.7708-.581-1.8554-1.496h3.7847c.4546 0 .6871-.238.6871-.729 0-1.575-1.1628-2.696-2.8332-2.696-1.7337 0-2.9283 1.226-2.9283 3.066 0 1.855 1.221 3.06 3.0975 3.06.9303 0 1.8765-.327 2.3205-.962.1057-.158.1903-.333.1903-.512 0-.312-.1639-.518-.5022-.518zm-2.2148-3.066c.9092 0 1.4695.518 1.5858 1.311h-3.1768c.111-.788.7242-1.311 1.591-1.311z"/><path d="m126.339 194.437c.893-.365 1.485-1.157 1.485-2.204 0-1.438-1.141-2.421-2.648-2.421h-2.616c-.407 0-.682.285-.682.698v6.332c0 .412.275.703.682.703.412 0 .687-.291.687-.703v-2.188h1.654l1.739 2.574c.132.19.328.312.576.312.355 0 .666-.275.666-.592 0-.153-.042-.323-.185-.523zm-1.147-3.325c.719 0 1.21.444 1.21 1.121 0 .682-.491 1.121-1.21 1.121h-1.945v-2.242z"/><path d="m134.664 195.579c-.206 0-.386.1-.571.248-.354.354-.777.539-1.39.539-1.052 0-1.771-.581-1.855-1.495h3.784c.455 0 .687-.238.687-.73 0-1.575-1.163-2.696-2.833-2.696-1.734 0-2.928 1.227-2.928 3.066 0 1.855 1.221 3.061 3.097 3.061.931 0 1.877-.328 2.321-.962.106-.159.19-.333.19-.513 0-.312-.164-.518-.502-.518zm-2.215-3.066c.909 0 1.47.518 1.586 1.311h-3.177c.111-.788.724-1.311 1.591-1.311z"/><path d="m138.824 195.658c-.328 0-.518-.148-.518-.38 0-.122.053-.217.169-.296.338.111.735.174 1.173.174 1.517 0 2.474-.714 2.474-1.85 0-.322-.074-.608-.217-.851l.407-.36c.18-.163.286-.348.286-.533 0-.244-.206-.466-.492-.466-.169 0-.343.08-.491.201l-.524.439c-.391-.185-.877-.285-1.443-.285-1.511 0-2.479.718-2.479 1.855 0 .507.196.936.55 1.247-.407.249-.587.561-.587.968 0 .359.154.66.423.867-.433.2-.724.56-.724 1.041 0 .925.962 1.406 2.717 1.406 1.934 0 3.013-.624 3.013-1.744 0-.925-.661-1.433-1.866-1.433zm.84-3.282c.719 0 1.163.349 1.163.914 0 .571-.444.915-1.163.915-.729 0-1.189-.349-1.189-.915 0-.56.46-.914 1.189-.914zm-.053 5.481c-1.015 0-1.496-.206-1.496-.645 0-.222.101-.391.302-.523.074.005.148.01.222.01h1.802c.534 0 .793.175.793.508 0 .417-.555.65-1.623.65z"/><path d="m149.3 191.488c-.375 0-.645.274-.645.671v2.78c-.058.872-.629 1.459-1.522 1.459-.846 0-1.369-.497-1.369-1.527v-2.717c0-.376-.264-.666-.645-.666-.375 0-.645.285-.645.666v2.939c0 1.596.941 2.489 2.373 2.489.793 0 1.449-.291 1.808-.819v.111c0 .391.27.671.645.671s.645-.28.645-.671v-4.715c0-.391-.27-.671-.645-.671z"/><path d="m152.878 197.545c.376 0 .64-.28.64-.671v-6.518c0-.391-.264-.666-.64-.666-.38 0-.65.275-.65.666v6.518c0 .391.27.671.65.671z"/><path d="m161.15 195.996c-.121 0-.2.048-.28.143-.074.106-.164.169-.296.169-.238 0-.317-.174-.317-.412v-2.447c0-1.301-.835-1.998-2.289-1.998-.983 0-1.807.359-2.31.977-.169.201-.274.418-.274.645 0 .296.222.492.533.492.212 0 .37-.106.619-.338.354-.397.862-.645 1.422-.645.634 0 1.015.285 1.015.75 0 .312-.143.444-.613.545l-1.295.285c-1.121.249-1.666.814-1.666 1.718 0 1.02.788 1.681 1.993 1.681.724 0 1.348-.27 1.745-.74.206.455.613.719 1.147.719.396 0 .808-.206 1.02-.502.148-.196.216-.37.216-.598 0-.253-.153-.444-.37-.444zm-3.446.492c-.565 0-.941-.28-.941-.698 0-.407.291-.666.925-.798l.661-.137c.296-.064.497-.154.629-.265v.709c0 .676-.55 1.189-1.274 1.189z"/><path d="m166.748 191.826c-.233-.222-.608-.375-1.084-.375-.645 0-1.189.28-1.522.782v-.074c0-.397-.264-.671-.64-.671-.38 0-.65.274-.65.671v4.715c0 .391.27.671.65.671.376 0 .64-.28.64-.671v-2.553h.005c0-1.02.492-1.628 1.095-1.628.296 0 .507.153.676.322.138.148.301.286.529.286.412 0 .65-.291.65-.709 0-.285-.116-.549-.349-.766z"/><path d="m125.282 208.582c2.294 0 3.917-1.638 3.917-3.964 0-2.331-1.623-3.965-3.917-3.965-2.3 0-3.922 1.634-3.922 3.965 0 2.326 1.622 3.964 3.922 3.964zm0-1.374c-1.464 0-2.511-1.057-2.511-2.59 0-1.538 1.047-2.59 2.511-2.59 1.459 0 2.511 1.052 2.511 2.59 0 1.533-1.052 2.59-2.511 2.59z"/><path d="m134.389 202.451c-.798 0-1.48.296-1.919.851v-1.94c0-.397-.264-.672-.639-.672-.381 0-.65.275-.65.672v6.512c0 .391.269.671.65.671.375 0 .639-.28.639-.671v-.111c.455.56 1.1.819 1.919.819 1.628 0 2.849-1.237 2.849-3.066 0-1.834-1.221-3.065-2.849-3.065zm-.217 4.937c-1.041 0-1.728-.825-1.728-1.872 0-1.046.687-1.871 1.728-1.871.978 0 1.734.714 1.734 1.871 0 1.153-.756 1.872-1.734 1.872z"/><path d="m139.691 208.545c.375 0 .639-.28.639-.671v-6.518c0-.391-.264-.666-.639-.666-.381 0-.651.275-.651.666v6.518c0 .391.27.671.651.671z"/><path d="m143.2 201.785c.465 0 .809-.339.809-.799 0-.444-.344-.792-.809-.792s-.814.348-.814.792c0 .46.349.799.814.799zm-.005 6.76c.375 0 .639-.28.639-.671v-4.715c0-.397-.264-.671-.639-.671-.381 0-.65.274-.65.671v4.715c0 .391.269.671.65.671z"/><path d="m151.007 202.488c-.38 0-.645.274-.645.671v.153c-.444-.56-1.11-.861-1.913-.861-1.634 0-2.849 1.231-2.849 3.065 0 1.829 1.215 3.066 2.849 3.066.824 0 1.453-.254 1.913-.814v1.39c0 .392.265.666.645.666.381 0 .645-.274.645-.666v-5.999c0-.397-.27-.671-.645-.671zm-2.347 4.9c-.972 0-1.734-.719-1.734-1.872 0-1.157.762-1.871 1.734-1.871 1.042 0 1.734.825 1.734 1.866 0 1.047-.692 1.877-1.734 1.877z"/><path d="m158.693 202.488c-.376 0-.645.274-.645.671v2.78c-.058.872-.629 1.459-1.523 1.459-.845 0-1.369-.497-1.369-1.527v-2.717c0-.376-.264-.666-.645-.666-.375 0-.644.285-.644.666v2.939c0 1.596.94 2.489 2.373 2.489.793 0 1.448-.291 1.808-.819v.111c0 .391.269.671.645.671.375 0 .644-.28.644-.671v-4.715c0-.391-.269-.671-.644-.671z"/><path d="m166.251 206.579c-.206 0-.386.1-.571.248-.354.354-.777.539-1.39.539-1.052 0-1.771-.581-1.855-1.495h3.784c.455 0 .688-.238.688-.73 0-1.575-1.163-2.696-2.834-2.696-1.733 0-2.928 1.227-2.928 3.066 0 1.855 1.221 3.061 3.097 3.061.931 0 1.877-.328 2.321-.962.106-.159.19-.333.19-.513 0-.312-.164-.518-.502-.518zm-2.215-3.066c.909 0 1.47.518 1.586 1.311h-3.177c.111-.788.724-1.311 1.591-1.311z"/><path d="m229.778 189.691c-.454 0-.681.212-.951.709l-2.241 4.249-2.241-4.249c-.259-.482-.481-.709-.947-.709-.496 0-.861.333-.861.931v6.205c0 .418.291.719.676.719.392 0 .682-.312.682-.719v-4.646l1.797 3.462c.291.55.487.777.894.777s.597-.227.893-.777l1.803-3.462v4.646c0 .407.285.719.676.719s.682-.301.682-.719v-6.205c0-.598-.365-.931-.862-.931z"/><path d="m237.607 195.58c-.207 0-.386.1-.571.248-.354.354-.777.539-1.39.539-1.052 0-1.771-.581-1.856-1.496h3.785c.454 0 .687-.238.687-.729 0-1.575-1.163-2.696-2.833-2.696-1.734 0-2.929 1.226-2.929 3.066 0 1.855 1.221 3.06 3.098 3.06.93 0 1.876-.327 2.32-.962.106-.158.191-.333.191-.512 0-.312-.164-.518-.502-.518zm-2.215-3.066c.909 0 1.469.518 1.586 1.311h-3.177c.111-.788.724-1.311 1.591-1.311z"/><path d="m245.001 189.691c-.38 0-.645.275-.645.672v1.934c-.438-.55-1.115-.846-1.913-.846-1.633 0-2.849 1.232-2.849 3.066 0 1.829 1.216 3.066 2.849 3.066.819 0 1.464-.259 1.913-.819v.111c0 .391.265.671.645.671.376 0 .645-.28.645-.671v-6.512c0-.397-.269-.672-.645-.672zm-2.347 6.697c-.972 0-1.733-.719-1.733-1.871 0-1.157.761-1.871 1.733-1.871 1.042 0 1.734.825 1.734 1.871 0 1.047-.692 1.871-1.734 1.871z"/><path d="m248.516 190.785c.465 0 .809-.338.809-.798 0-.444-.344-.793-.809-.793s-.814.349-.814.793c0 .46.349.798.814.798zm-.005 6.761c.375 0 .639-.28.639-.671v-4.715c0-.397-.264-.672-.639-.672-.381 0-.65.275-.65.672v4.715c0 .391.269.671.65.671z"/><path d="m256.149 191.488c-.376 0-.645.275-.645.672v2.78c-.058.872-.629 1.459-1.523 1.459-.845 0-1.369-.497-1.369-1.528v-2.717c0-.375-.264-.666-.644-.666-.376 0-.645.286-.645.666v2.939c0 1.597.941 2.49 2.373 2.49.793 0 1.448-.291 1.808-.819v.111c0 .391.269.671.645.671.375 0 .645-.28.645-.671v-4.715c0-.391-.27-.672-.645-.672z"/><path d="m266.059 191.451c-1.025 0-1.686.386-2.05.994-.386-.645-1.063-.994-1.925-.994-.755 0-1.374.291-1.717.814v-.105c0-.397-.265-.672-.64-.672-.381 0-.65.275-.65.672v4.715c0 .391.269.671.65.671.375 0 .64-.28.64-.671v-2.622c0-.967.544-1.618 1.432-1.618.793 0 1.279.497 1.279 1.528v2.712c0 .38.265.671.64.671s.65-.285.65-.671v-2.622c0-.967.544-1.618 1.432-1.618.793 0 1.28.497 1.28 1.528v2.712c0 .38.264.671.639.671s.65-.285.65-.671v-2.939c0-1.591-.935-2.485-2.31-2.485z"/><path d="m226.631 208.583c2.294 0 3.917-1.639 3.917-3.964 0-2.331-1.623-3.965-3.917-3.965-2.3 0-3.922 1.634-3.922 3.965 0 2.325 1.622 3.964 3.922 3.964zm0-1.374c-1.464 0-2.511-1.058-2.511-2.59 0-1.539 1.047-2.59 2.511-2.59 1.459 0 2.511 1.051 2.511 2.59 0 1.532-1.052 2.59-2.511 2.59z"/><path d="m235.738 202.451c-.798 0-1.48.296-1.919.851v-1.939c0-.397-.264-.672-.639-.672-.381 0-.65.275-.65.672v6.512c0 .391.269.671.65.671.375 0 .639-.28.639-.671v-.111c.455.56 1.1.819 1.919.819 1.628 0 2.849-1.237 2.849-3.066 0-1.834-1.221-3.066-2.849-3.066zm-.217 4.937c-1.041 0-1.728-.824-1.728-1.871 0-1.046.687-1.871 1.728-1.871.978 0 1.734.714 1.734 1.871 0 1.152-.756 1.871-1.734 1.871z"/><path d="m241.04 208.546c.375 0 .639-.28.639-.671v-6.518c0-.391-.264-.666-.639-.666-.381 0-.651.275-.651.666v6.518c0 .391.27.671.651.671z"/><path d="m244.549 201.785c.465 0 .809-.338.809-.798 0-.444-.344-.793-.809-.793s-.814.349-.814.793c0 .46.349.798.814.798zm-.005 6.761c.375 0 .64-.28.64-.671v-4.715c0-.397-.265-.672-.64-.672-.381 0-.65.275-.65.672v4.715c0 .391.269.671.65.671z"/><path d="m252.356 202.488c-.38 0-.645.275-.645.672v.153c-.444-.56-1.11-.862-1.913-.862-1.633 0-2.849 1.232-2.849 3.066 0 1.829 1.216 3.066 2.849 3.066.824 0 1.453-.254 1.913-.814v1.39c0 .391.265.666.645.666.381 0 .645-.275.645-.666v-5.999c0-.397-.27-.672-.645-.672zm-2.347 4.9c-.972 0-1.733-.719-1.733-1.871 0-1.157.761-1.871 1.733-1.871 1.042 0 1.734.825 1.734 1.866 0 1.046-.692 1.876-1.734 1.876z"/><path d="m260.042 202.488c-.376 0-.645.275-.645.672v2.78c-.058.872-.629 1.459-1.523 1.459-.845 0-1.369-.497-1.369-1.528v-2.717c0-.375-.264-.666-.645-.666-.375 0-.644.286-.644.666v2.939c0 1.597.941 2.49 2.373 2.49.793 0 1.448-.291 1.808-.819v.111c0 .391.269.671.645.671.375 0 .644-.28.644-.671v-4.715c0-.391-.269-.672-.644-.672z"/><path d="m267.6 206.58c-.206 0-.386.1-.571.248-.354.354-.777.539-1.39.539-1.052 0-1.771-.581-1.855-1.496h3.784c.455 0 .688-.238.688-.729 0-1.575-1.163-2.696-2.834-2.696-1.733 0-2.928 1.226-2.928 3.066 0 1.855 1.221 3.06 3.098 3.06.93 0 1.876-.327 2.32-.962.106-.158.19-.333.19-.512 0-.312-.164-.518-.502-.518zm-2.215-3.066c.91 0 1.47.518 1.586 1.311h-3.177c.111-.788.725-1.311 1.591-1.311z"/><path d="m339.294 193.544c.682-.307 1.068-.862 1.068-1.575 0-1.322-.994-2.157-2.553-2.157h-2.739c-.401 0-.671.291-.671.698v6.216c0 .407.27.698.671.698h2.765c1.575 0 2.579-.904 2.579-2.252 0-.745-.412-1.322-1.12-1.628zm-.37-1.47c0 .555-.412.899-1.174.899h-1.987v-1.845h1.987c.746 0 1.174.354 1.174.946zm-3.161 4.033v-2.003h2.024c.767 0 1.195.375 1.195.989 0 .644-.439 1.014-1.195 1.014z"/><path d="m345.087 197.582c1.802 0 3.097-1.226 3.097-3.066 0-1.844-1.295-3.065-3.097-3.065-1.808 0-3.103 1.221-3.103 3.065 0 1.84 1.295 3.066 3.103 3.066zm0-1.194c-1.036 0-1.771-.756-1.771-1.872 0-1.115.735-1.871 1.771-1.871s1.771.756 1.771 1.871c0 1.116-.735 1.872-1.771 1.872z"/><path d="m350.642 197.545c.375 0 .64-.28.64-.671v-6.518c0-.391-.265-.666-.64-.666-.38 0-.65.275-.65.666v6.518c0 .391.27.671.65.671z"/><path d="m358.497 189.69c-.381 0-.645.275-.645.672v1.934c-.439-.549-1.115-.845-1.914-.845-1.633 0-2.849 1.231-2.849 3.065 0 1.829 1.216 3.066 2.849 3.066.82 0 1.465-.259 1.914-.819v.111c0 .391.264.671.645.671.375 0 .645-.28.645-.671v-6.512c0-.397-.27-.672-.645-.672zm-2.347 6.698c-.973 0-1.734-.719-1.734-1.872 0-1.157.761-1.871 1.734-1.871 1.041 0 1.734.825 1.734 1.871 0 1.047-.693 1.872-1.734 1.872z"/><path d="m327.98 208.582c2.294 0 3.917-1.638 3.917-3.964 0-2.331-1.623-3.965-3.917-3.965-2.3 0-3.922 1.634-3.922 3.965 0 2.326 1.622 3.964 3.922 3.964zm0-1.374c-1.464 0-2.511-1.057-2.511-2.59 0-1.538 1.047-2.59 2.511-2.59 1.459 0 2.511 1.052 2.511 2.59 0 1.533-1.052 2.59-2.511 2.59z"/><path d="m337.087 202.451c-.798 0-1.48.296-1.919.851v-1.94c0-.397-.264-.672-.639-.672-.381 0-.65.275-.65.672v6.512c0 .391.269.671.65.671.375 0 .639-.28.639-.671v-.111c.455.56 1.1.819 1.919.819 1.628 0 2.849-1.237 2.849-3.066 0-1.834-1.221-3.065-2.849-3.065zm-.217 4.937c-1.041 0-1.728-.825-1.728-1.872 0-1.046.687-1.871 1.728-1.871.978 0 1.734.714 1.734 1.871 0 1.153-.756 1.872-1.734 1.872z"/><path d="m342.389 208.545c.375 0 .639-.28.639-.671v-6.518c0-.391-.264-.666-.639-.666-.381 0-.651.275-.651.666v6.518c0 .391.27.671.651.671z"/><path d="m345.898 201.785c.465 0 .809-.339.809-.799 0-.444-.344-.792-.809-.792s-.814.348-.814.792c0 .46.349.799.814.799zm-.005 6.76c.375 0 .64-.28.64-.671v-4.715c0-.397-.265-.671-.64-.671-.381 0-.65.274-.65.671v4.715c0 .391.269.671.65.671z"/><path d="m353.705 202.488c-.38 0-.645.274-.645.671v.153c-.444-.56-1.11-.861-1.913-.861-1.633 0-2.849 1.231-2.849 3.065 0 1.829 1.216 3.066 2.849 3.066.824 0 1.453-.254 1.913-.814v1.39c0 .392.265.666.645.666.381 0 .645-.274.645-.666v-5.999c0-.397-.27-.671-.645-.671zm-2.347 4.9c-.972 0-1.733-.719-1.733-1.872 0-1.157.761-1.871 1.733-1.871 1.042 0 1.734.825 1.734 1.866 0 1.047-.692 1.877-1.734 1.877z"/><path d="m361.391 202.488c-.376 0-.645.274-.645.671v2.78c-.058.872-.629 1.459-1.523 1.459-.845 0-1.369-.497-1.369-1.527v-2.717c0-.376-.264-.666-.644-.666-.376 0-.645.285-.645.666v2.939c0 1.596.941 2.489 2.373 2.489.793 0 1.448-.291 1.808-.819v.111c0 .391.269.671.645.671.375 0 .644-.28.644-.671v-4.715c0-.391-.269-.671-.644-.671z"/><path d="m368.949 206.579c-.206 0-.386.1-.571.248-.354.354-.777.539-1.39.539-1.052 0-1.771-.581-1.855-1.495h3.784c.455 0 .688-.238.688-.73 0-1.575-1.163-2.696-2.834-2.696-1.733 0-2.928 1.227-2.928 3.066 0 1.855 1.221 3.061 3.098 3.061.93 0 1.876-.328 2.32-.962.106-.159.19-.333.19-.513 0-.312-.164-.518-.502-.518zm-2.215-3.066c.91 0 1.47.518 1.586 1.311h-3.177c.111-.788.725-1.311 1.591-1.311z"/><path d="m437.892 193.544c.682-.307 1.067-.862 1.067-1.575 0-1.322-.993-2.157-2.553-2.157h-2.738c-.401 0-.671.291-.671.698v6.216c0 .407.27.698.671.698h2.765c1.575 0 2.579-.904 2.579-2.252 0-.745-.412-1.322-1.12-1.628zm-.37-1.47c0 .555-.413.899-1.174.899h-1.987v-1.845h1.987c.746 0 1.174.354 1.174.946zm-3.161 4.033v-2.003h2.024c.767 0 1.195.375 1.195.989 0 .644-.439 1.014-1.195 1.014z"/><path d="m441.708 197.545c.375 0 .64-.28.64-.671v-6.518c0-.391-.265-.666-.64-.666-.381 0-.65.275-.65.666v6.518c0 .391.269.671.65.671z"/><path d="m449.98 195.996c-.122 0-.201.048-.28.143-.074.106-.164.169-.296.169-.238 0-.317-.174-.317-.412v-2.447c0-1.301-.835-1.998-2.289-1.998-.983 0-1.808.359-2.31.977-.169.201-.275.418-.275.645 0 .296.222.492.534.492.212 0 .37-.106.619-.338.354-.397.861-.645 1.421-.645.635 0 1.015.285 1.015.75 0 .312-.142.444-.613.545l-1.295.285c-1.12.249-1.665.814-1.665 1.718 0 1.02.788 1.681 1.993 1.681.724 0 1.348-.27 1.744-.74.206.455.613.719 1.147.719.397 0 .809-.206 1.02-.502.148-.196.217-.37.217-.598 0-.253-.153-.444-.37-.444zm-3.446.492c-.566 0-.941-.28-.941-.698 0-.407.291-.666.925-.798l.661-.137c.296-.064.496-.154.629-.265v.709c0 .676-.55 1.189-1.274 1.189z"/><path d="m454.23 197.582c.914 0 1.675-.338 2.13-.814.285-.301.491-.703.491-.988 0-.333-.264-.571-.57-.571-.275 0-.429.111-.603.359-.275.46-.729.82-1.411.82-.999 0-1.729-.767-1.729-1.872 0-1.11.73-1.871 1.729-1.871.613 0 1.094.302 1.374.751.19.248.365.365.64.365.317 0 .549-.238.549-.561 0-.296-.195-.692-.497-1.004-.438-.455-1.157-.745-2.103-.745-1.739 0-3.024 1.274-3.024 3.065 0 1.792 1.285 3.066 3.024 3.066z"/><path d="m462.042 194.03 1.649-1.416c.27-.228.344-.413.344-.593 0-.338-.249-.549-.582-.549-.243 0-.412.074-.756.375l-2.806 2.437v-3.928c0-.391-.265-.666-.64-.666-.381 0-.65.275-.65.666v6.518c0 .391.269.671.65.671.375 0 .64-.28.64-.671v-.989l1.152-.993 1.829 2.336c.185.248.407.301.602.301.37 0 .635-.285.635-.565 0-.18-.027-.296-.249-.592z"/><path d="m429.329 208.582c2.294 0 3.917-1.638 3.917-3.964 0-2.331-1.623-3.965-3.917-3.965-2.299 0-3.922 1.634-3.922 3.965 0 2.326 1.623 3.964 3.922 3.964zm0-1.374c-1.464 0-2.511-1.057-2.511-2.59 0-1.538 1.047-2.59 2.511-2.59 1.459 0 2.511 1.052 2.511 2.59 0 1.533-1.052 2.59-2.511 2.59z"/><path d="m438.436 202.451c-.798 0-1.48.296-1.919.851v-1.94c0-.397-.264-.672-.639-.672-.381 0-.65.275-.65.672v6.512c0 .391.269.671.65.671.375 0 .639-.28.639-.671v-.111c.455.56 1.1.819 1.919.819 1.628 0 2.849-1.237 2.849-3.066 0-1.834-1.221-3.065-2.849-3.065zm-.217 4.937c-1.041 0-1.728-.825-1.728-1.872 0-1.046.687-1.871 1.728-1.871.978 0 1.734.714 1.734 1.871 0 1.153-.756 1.872-1.734 1.872z"/><path d="m443.738 208.545c.375 0 .639-.28.639-.671v-6.518c0-.391-.264-.666-.639-.666-.381 0-.65.275-.65.666v6.518c0 .391.269.671.65.671z"/><path d="m447.247 201.785c.465 0 .809-.339.809-.799 0-.444-.344-.792-.809-.792s-.814.348-.814.792c0 .46.349.799.814.799zm-.005 6.76c.375 0 .64-.28.64-.671v-4.715c0-.397-.265-.671-.64-.671-.381 0-.65.274-.65.671v4.715c0 .391.269.671.65.671z"/><path d="m455.054 202.488c-.38 0-.645.274-.645.671v.153c-.444-.56-1.11-.861-1.913-.861-1.633 0-2.849 1.231-2.849 3.065 0 1.829 1.216 3.066 2.849 3.066.825 0 1.454-.254 1.913-.814v1.39c0 .392.265.666.645.666.381 0 .645-.274.645-.666v-5.999c0-.397-.269-.671-.645-.671zm-2.347 4.9c-.972 0-1.733-.719-1.733-1.872 0-1.157.761-1.871 1.733-1.871 1.042 0 1.734.825 1.734 1.866 0 1.047-.692 1.877-1.734 1.877z"/><path d="m462.74 202.488c-.376 0-.645.274-.645.671v2.78c-.058.872-.629 1.459-1.523 1.459-.845 0-1.369-.497-1.369-1.527v-2.717c0-.376-.264-.666-.644-.666-.376 0-.645.285-.645.666v2.939c0 1.596.941 2.489 2.373 2.489.793 0 1.448-.291 1.808-.819v.111c0 .391.269.671.645.671.375 0 .645-.28.645-.671v-4.715c0-.391-.27-.671-.645-.671z"/><path d="m470.298 206.579c-.206 0-.386.1-.571.248-.354.354-.777.539-1.39.539-1.052 0-1.771-.581-1.855-1.495h3.785c.454 0 .687-.238.687-.73 0-1.575-1.163-2.696-2.834-2.696-1.733 0-2.928 1.227-2.928 3.066 0 1.855 1.221 3.061 3.098 3.061.93 0 1.876-.328 2.32-.962.106-.159.19-.333.19-.513 0-.312-.163-.518-.502-.518zm-2.215-3.066c.91 0 1.47.518 1.586 1.311h-3.177c.111-.788.725-1.311 1.591-1.311z"/></g><path d="m66.642 118.147 17.8196 17.82h-17.8196z" stroke="#000" stroke-linecap="round" stroke-linejoin="round"/><path d="m167.991 118.147 17.82 17.82h-17.82z" stroke="#000" stroke-linecap="round" stroke-linejoin="round"/><path d="m269.34 118.147 17.82 17.82h-17.82z" stroke="#000" stroke-linecap="round" stroke-linejoin="round"/><path d="m370.689 118.147 17.82 17.82h-17.82z" stroke="#000" stroke-linecap="round" stroke-linejoin="round"/><path d="m472.038 118.147 17.82 17.82h-17.82z" stroke="#000" stroke-linecap="round" stroke-linejoin="round"/><path d="m511.018 117.688h83.5294v34.5255h-83.5294z" fill="#fff" stroke="#000"/><path d="m511.017 53.0928h65.71l17.82 17.8196v14.4784 32.2982h-83.53z" fill="#fff" stroke="#000"/><path d="m531.192 74.1859c-.203-.523-.437-.7494-.898-.7494-.445 0-.687.2264-.89.7494l-3.895 10.1322c-.031.0781-.063.203-.063.2889 0 .2888.235.4761.477.4761.21 0 .359-.1014.437-.3044l1.147-3.0131h5.582l1.147 3.0131c.078.203.226.3044.437.3044.242 0 .476-.1873.476-.4761 0-.0781-.023-.1874-.062-.2889zm-.89.2264 2.435 6.4165h-4.879z" fill="#000"/><path d="m542.885 74.5762c-.281-.7728-.64-1.1397-1.35-1.1397-.703 0-1.062.3747-1.343 1.1397l-3.528 9.3673c-.055.1639-.094.3434-.094.4605 0 .3981.328.6947.687.6947.343 0 .578-.1561.687-.4683l.96-2.615h5.269l.96 2.615c.11.3122.352.4683.687.4683.359 0 .695-.2966.695-.6947 0-.1171-.039-.281-.102-.4605zm-1.343.2732 2.124 5.7765h-4.247z" fill="#000"/><path d="m554.664 75.029c-.366-1.0617-.882-1.5925-1.881-1.5925-1.007 0-1.514.5464-1.881 1.5925l-3.099 8.4695c-.086.2576-.133.4996-.133.6635 0 .523.445.9524.945.9524.492 0 .835-.2186.983-.6557l.757-2.1545h4.856l.757 2.1545c.148.4371.492.6557.984.6557.499 0 .944-.4294.944-.9524 0-.1639-.039-.3981-.133-.6713zm-1.881.3434 1.757 5.0115h-3.513z" fill="#000"/><path d="m566.327 75.3958c-.437-1.2958-1.07-1.9593-2.303-1.9593-1.249 0-1.866.687-2.303 1.9593l-2.755 7.7514c-.118.3357-.172.6323-.172.8275 0 .6167.538 1.1553 1.155 1.1553.601 0 1.038-.2654 1.21-.8041l.601-1.7875h4.528l.601 1.7875c.171.5387.601.8041 1.21.8041.616 0 1.155-.5386 1.155-1.1553 0-.1952-.055-.4918-.172-.8353zm-2.303.406 1.475 4.3948h-2.95z" fill="#000"/><path d="m578.137 75.8798c-.538-1.6002-1.327-2.4433-2.872-2.4433-1.569 0-2.334.8743-2.865 2.4433l-2.303 6.7991c-.148.4371-.211.804-.211 1.0382 0 .7572.656 1.4285 1.421 1.4285s1.311-.3279 1.522-.9992l.406-1.3036h4.059l.406 1.3036c.211.6713.757.9992 1.522.9992s1.421-.6713 1.421-1.4285c0-.242-.063-.6089-.211-1.046zm-2.872.484 1.116 3.5752h-2.233z" fill="#000"/><path d="m535.243 96.4985c-.18 0-.289.1015-.398.2888-.148.2576-.359.4138-.656.4138-.609 0-.788-.4372-.788-1.0383v-4.2699c0-1.7797-1.179-2.8023-3.318-2.8023-1.397 0-2.521.562-3.177 1.4441-.195.2576-.39.562-.39.8587 0 .2263.179.3981.398.3981.273 0 .414-.1874.601-.5074.484-.8353 1.327-1.3271 2.584-1.3271 1.491 0 2.404.687 2.404 1.8032 0 .6557-.265.8899-1.397 1.1007l-1.858.3513c-1.663.3122-2.763.9757-2.763 2.4745 0 1.4987 1.139 2.4277 2.982 2.4277 1.327 0 2.466-.6089 3.044-1.5925.047.9758.617 1.5456 1.577 1.5456.538 0 1.085-.3122 1.342-.7494.102-.1639.156-.3122.156-.4527 0-.2186-.132-.3669-.343-.3669zm-5.675.765c-1.28 0-2.147-.6401-2.147-1.5924 0-1.0148.812-1.4363 2.17-1.6861l1.507-.2811c.726-.1327 1.171-.2654 1.405-.523v1.288c0 1.5612-1.288 2.7946-2.935 2.7946z" fill="#000"/><path d="m546.343 96.1863c-.179 0-.304.0936-.406.2498-.125.2029-.296.3356-.554.3356-.531 0-.648-.4059-.648-.8508v-3.9733c0-1.8344-1.233-2.857-3.442-2.857-1.452 0-2.623.5464-3.341 1.4753-.195.2498-.375.5464-.375.8509 0 .32.258.5464.585.5464.321 0 .539-.1795.765-.5152.469-.6869 1.32-1.1241 2.405-1.1241 1.256 0 2.014.5621 2.014 1.4754 0 .562-.242.765-1.179.9523l-1.928.3825c-1.803.3591-2.67 1.1943-2.67 2.5292 0 1.5065 1.179 2.4511 3.021 2.4511 1.218 0 2.256-.484 2.849-1.288.211.7884.812 1.2489 1.655 1.2489.593 0 1.187-.3044 1.483-.7494.149-.2185.227-.4215.227-.6479 0-.281-.18-.4917-.461-.4917zm-5.487.6791c-1.085 0-1.819-.5074-1.819-1.2724 0-.7494.538-1.1787 1.819-1.4285l1.295-.2498c.625-.1249.992-.2732 1.202-.4762v1.1475c0 1.2802-1.092 2.2794-2.497 2.2794z" fill="#000"/><path d="m557.49 95.8038c-.179 0-.296.0702-.429.2107-.117.1562-.258.2498-.468.2498-.391 0-.5-.2888-.5-.6088v-3.6142c0-1.9203-1.288-2.9507-3.536-2.9507-1.507 0-2.771.5308-3.552 1.4519-.25.2888-.406.6167-.406.9445 0 .4372.328.726.796.726.328 0 .578-.1639.945-.5074.523-.5776 1.327-.9445 2.209-.9445 1.007 0 1.608.4215 1.608 1.1084 0 .4606-.219.6557-.96.804l-1.998.4216c-1.741.3669-2.584 1.2021-2.584 2.5369 0 1.5066 1.217 2.4824 3.068 2.4824 1.139 0 2.107-.406 2.716-1.1007.32.6713.945 1.0694 1.756 1.0694.625 0 1.257-.3044 1.577-.7493.219-.2811.32-.5465.32-.8743 0-.3747-.226-.6557-.562-.6557zm-5.339.7259c-.89 0-1.491-.4137-1.491-1.0304 0-.601.46-.9757 1.467-1.1787l1.054-.2029c.469-.0937.781-.2264.984-.3981v1.0538c0 .9991-.867 1.7563-2.014 1.7563z" fill="#000"/><path d="m568.661 95.4993c-.18 0-.297.0547-.445.1874-.117.1093-.234.1795-.406.1795-.281 0-.375-.1951-.375-.4215v-3.3332c0-1.9905-1.343-3.0209-3.614-3.0209-1.561 0-2.896.5152-3.716 1.4285-.296.3278-.445.6791-.445 1.0304 0 .523.398.8665.96.8665.352 0 .625-.1484 1.093-.5074.57-.484 1.335-.8041 2.061-.8041.804 0 1.288.3123 1.288.8275 0 .3669-.203.562-.796.6869l-2.053.4528c-1.686.3668-2.514 1.2099-2.514 2.5447 0 1.5066 1.249 2.5058 3.115 2.5058 1.085 0 2.014-.3591 2.638-1.007.375.6089 1.015.9679 1.811.9679.633 0 1.296-.3044 1.647-.7415.274-.3357.399-.6557.399-1.0539 0-.4449-.274-.7884-.648-.7884zm-5.223.765c-.741 0-1.233-.3356-1.233-.8352 0-.484.398-.8197 1.179-.9758l.866-.1717c.359-.0781.633-.1874.82-.3357v.9758c0 .7728-.695 1.3426-1.632 1.3426z" fill="#000"/><path d="m579.808 95.0934c-.188 0-.297.0312-.476.1483-.102.0625-.196.0859-.313.0859-.14 0-.218-.0624-.218-.1639v-2.9507c0-2.0842-1.405-3.1224-3.716-3.1224-1.616 0-3.052.4996-3.934 1.4051-.351.3668-.484.7493-.484 1.1318 0 .6401.476 1.0539 1.186 1.0539.359 0 .664-.1327 1.281-.4996.624-.3669 1.342-.6167 1.857-.6167.539 0 .867.1639.867.4449 0 .2576-.188.4372-.578.5308l-2.123.4918c-1.624.3747-2.42 1.2178-2.42 2.5526 0 1.5066 1.288 2.537 3.162 2.537 1.038 0 1.928-.3045 2.56-.8821.437.5386 1.085.8508 1.858.8508.663 0 1.366-.3044 1.748-.7415.344-.3981.492-.7884.492-1.288 0-.5465-.328-.968-.749-.968zm-5.074.8197c-.531 0-.882-.2342-.882-.5777 0-.3278.312-.6167.804-.7181l.609-.1249c.234-.0469.437-.1327.593-.242v.8742c0 .4684-.461.7885-1.124.7885z" fill="#000"/><path d="m534.709 124.925c-.322 0-.55.19-.655.502l-2.157 5.909-2.162-5.909c-.111-.312-.344-.502-.666-.502-.407 0-.703.274-.703.639 0 .079.026.206.048.27l2.13 5.814c.275.788.719 1.158 1.353 1.158.624 0 1.057-.37 1.337-1.158l2.13-5.814c.027-.069.053-.185.053-.27 0-.365-.296-.639-.708-.639z" fill="#000"/><path d="m542.458 131.231c-.122 0-.201.047-.28.142-.074.106-.164.169-.296.169-.238 0-.318-.174-.318-.412v-2.447c0-1.3-.835-1.998-2.288-1.998-.983 0-1.808.359-2.31.978-.169.201-.275.417-.275.645 0 .296.222.491.534.491.211 0 .37-.106.618-.338.354-.397.862-.645 1.422-.645.634 0 1.015.285 1.015.751 0 .311-.143.444-.613.544l-1.295.285c-1.121.249-1.665.814-1.665 1.718 0 1.02.787 1.681 1.993 1.681.724 0 1.347-.269 1.744-.74.206.455.613.719 1.147.719.396 0 .809-.206 1.02-.502.148-.196.217-.37.217-.597 0-.254-.153-.444-.37-.444zm-3.447.491c-.565 0-.94-.28-.94-.698 0-.407.29-.666.925-.798l.66-.137c.296-.064.497-.153.629-.264v.708c0 .676-.549 1.189-1.274 1.189z" fill="#000"/><path d="m548.055 127.06c-.232-.222-.608-.375-1.083-.375-.645 0-1.19.28-1.523.782v-.074c0-.396-.264-.671-.639-.671-.381 0-.65.275-.65.671v4.715c0 .391.269.671.65.671.375 0 .639-.28.639-.671v-2.553h.006c0-1.02.491-1.628 1.094-1.628.296 0 .507.153.676.322.138.148.302.286.529.286.412 0 .65-.291.65-.708 0-.286-.116-.55-.349-.767z" fill="#000"/><path d="m550.444 126.019c.465 0 .809-.339.809-.798 0-.444-.344-.793-.809-.793s-.814.349-.814.793c0 .459.349.798.814.798zm-.005 6.76c.375 0 .64-.28.64-.671v-4.715c0-.396-.265-.671-.64-.671-.381 0-.65.275-.65.671v4.715c0 .391.269.671.65.671z" fill="#000"/><path d="m558.669 131.231c-.122 0-.201.047-.28.142-.074.106-.164.169-.296.169-.238 0-.317-.174-.317-.412v-2.447c0-1.3-.836-1.998-2.289-1.998-.983 0-1.808.359-2.31.978-.169.201-.275.417-.275.645 0 .296.222.491.534.491.211 0 .37-.106.618-.338.354-.397.862-.645 1.422-.645.635 0 1.015.285 1.015.751 0 .311-.143.444-.613.544l-1.295.285c-1.121.249-1.665.814-1.665 1.718 0 1.02.787 1.681 1.993 1.681.724 0 1.348-.269 1.744-.74.206.455.613.719 1.147.719.396 0 .809-.206 1.02-.502.148-.196.217-.37.217-.597 0-.254-.153-.444-.37-.444zm-3.447.491c-.565 0-.94-.28-.94-.698 0-.407.29-.666.925-.798l.66-.137c.296-.064.497-.153.629-.264v.708c0 .676-.549 1.189-1.274 1.189z" fill="#000"/><path d="m563.579 126.685c-.798 0-1.48.296-1.919.851v-1.94c0-.397-.264-.671-.639-.671-.381 0-.65.274-.65.671v6.512c0 .391.269.671.65.671.375 0 .639-.28.639-.671v-.111c.455.56 1.1.819 1.919.819 1.628 0 2.849-1.237 2.849-3.065 0-1.835-1.221-3.066-2.849-3.066zm-.217 4.937c-1.041 0-1.728-.825-1.728-1.871 0-1.047.687-1.872 1.728-1.872.978 0 1.734.714 1.734 1.872 0 1.152-.756 1.871-1.734 1.871z" fill="#000"/><path d="m568.881 132.779c.375 0 .639-.28.639-.671v-6.517c0-.392-.264-.666-.639-.666-.381 0-.65.274-.65.666v6.517c0 .391.269.671.65.671z" fill="#000"/><path d="m576.429 130.813c-.206 0-.386.1-.571.248-.354.355-.777.54-1.39.54-1.052 0-1.771-.582-1.856-1.496h3.785c.455 0 .687-.238.687-.73 0-1.575-1.163-2.695-2.833-2.695-1.734 0-2.928 1.226-2.928 3.065 0 1.856 1.221 3.061 3.097 3.061.93 0 1.877-.328 2.321-.962.105-.159.19-.333.19-.513 0-.312-.164-.518-.502-.518zm-2.215-3.066c.909 0 1.469.518 1.586 1.311h-3.177c.111-.787.724-1.311 1.591-1.311z" fill="#000"/><path d="m544.588 137.394c.396 0 .687-.28.687-.677 0-.396-.291-.671-.687-.671h-4.134c-.407 0-.682.286-.682.698v6.332c0 .413.275.703.682.703.413 0 .687-.29.687-.703v-2.426h3.029c.397 0 .687-.275.687-.671 0-.397-.29-.677-.687-.677h-3.029v-1.908z" fill="#000"/><path d="m549.847 143.816c1.802 0 3.097-1.226 3.097-3.065 0-1.845-1.295-3.066-3.097-3.066-1.808 0-3.103 1.221-3.103 3.066 0 1.839 1.295 3.065 3.103 3.065zm0-1.194c-1.036 0-1.771-.756-1.771-1.871 0-1.116.735-1.872 1.771-1.872s1.771.756 1.771 1.872c0 1.115-.735 1.871-1.771 1.871z" fill="#000"/><path d="m557.855 137.685c-.798 0-1.454.291-1.813.824v-.116c0-.396-.264-.671-.64-.671-.38 0-.65.275-.65.671v4.715c0 .391.27.671.65.671.376 0 .64-.28.64-.671v-2.622c0-.967.576-1.617 1.522-1.617.851 0 1.374.497 1.374 1.527v2.712c0 .381.265.671.64.671s.65-.285.65-.671v-2.939c0-1.591-.941-2.484-2.373-2.484z" fill="#000"/><path d="m566.016 142.093c-.201 0-.344.095-.465.19-.206.164-.412.296-.671.296-.402 0-.656-.253-.656-.755v-2.812h1.528c.354 0 .602-.244.602-.587 0-.338-.248-.582-.602-.582h-1.528v-.999c0-.391-.264-.666-.645-.666-.38 0-.645.275-.645.666v.999h-.798c-.349 0-.602.244-.602.582 0 .343.253.587.602.587h.798v2.991c0 1.121.761 1.813 1.782 1.813.576 0 1.126-.216 1.464-.523.222-.206.333-.439.333-.677 0-.306-.201-.523-.497-.523z" fill="#000"/><path d="m576.728 53.0928 17.82 17.8196h-17.82z" stroke="#000" stroke-linecap="round" stroke-linejoin="round"/></svg>