<svg fill="none" height="218" viewBox="0 0 596 218" width="596" xmlns="http://www.w3.org/2000/svg"><path d="m.93219 65.8018h83.5294v34.5255h-83.5294z" fill="#fff" stroke="#000"/><path d="m102.281 65.8018h83.5294v34.5255h-83.5294z" fill="#fff" stroke="#000"/><path d="m203.63 65.8018h83.5294v34.5255h-83.5294z" fill="#fff" stroke="#000"/><path d="m304.979 65.8018h83.5294v34.5255h-83.5294z" fill="#fff" stroke="#000"/><path d="m406.328 65.8018h83.5294v34.5255h-83.5294z" fill="#fff" stroke="#000"/><path d="m.93219 1.20605h65.70981l17.8196 17.81965v14.4784 32.298h-83.52941z" fill="#fff" stroke="#000"/><path d="m102.281 1.20605h65.71l17.82 17.81965v14.4784 32.298h-83.53z" fill="#fff" stroke="#000"/><path d="m203.63 1.20605h65.71l17.82 17.81965v14.4784 32.298h-83.53z" fill="#fff" stroke="#000"/><path d="m304.979 1.20605h65.71l17.82 17.81965v14.4784 32.298h-83.53z" fill="#fff" stroke="#000"/><path d="m406.328 1.20605h65.71l17.82 17.81965v14.4784 32.298h-83.53z" fill="#fff" stroke="#000"/><path d="m31.0126 18.5634c-.5192-1.3379-1.1183-1.917-2.2964-1.917-1.1382 0-1.7572.5791-2.2764 1.917l-9.9642 25.919c-.0799.1997-.1598.5192-.1598.7388 0 .7389.5991 1.2181 1.2181 1.2181.5391 0 .9185-.2596 1.1182-.7788l2.9354-7.7078h14.2774l2.9354 7.7078c.1996.5192.579.7788 1.1182.7788.619 0 1.2181-.4792 1.2181-1.2181 0-.1997-.0599-.4792-.1598-.7388zm-2.2764.5791 6.2301 16.414h-12.4803zm40.1676 23.3431c-.4592 0-.7388.2595-1.0183.7388-.3794.6589-.9186 1.0583-1.6774 1.0583-1.5575 0-2.0168-1.1182-2.0168-2.6558v-11.0226c0-4.5528-3.0152-7.1686-8.4866-7.1686-3.5743 0-6.4498 1.4377-8.1271 3.6941-.4992.659-.9985 1.4378-.9985 2.1966 0 .5791.4593 1.0184 1.0184 1.0184.6989 0 1.0584-.4793 1.5376-1.298 1.238-2.1366 3.3946-3.3946 6.6096-3.3946 3.8139 0 6.1502 1.7572 6.1502 4.6127 0 1.6773-.6789 2.2764-3.5743 2.8155l-4.7525.8986c-4.2533.7987-7.0688 2.4961-7.0688 6.33 0 3.8739 2.9154 6.2901 7.6279 6.2901 3.3946 0 6.31-1.4577 7.7677-4.0536.1398 2.496 1.5975 3.9537 4.0536 3.9537 1.3778 0 2.7756-.7987 3.4346-1.917.2596-.4193.3994-.7987.3994-1.1581 0-.5591-.3395-.9385-.8787-.9385zm-14.517 1.9169c-3.2748 0-5.4913-1.6574-5.4913-4.1334 0-2.5959 2.0767-3.6742 5.5512-4.3132l3.8539-.7189c1.8571-.3394 2.9953-.6789 3.5943-1.3379v3.2948c0 4.0336-3.2948 7.2086-7.5081 7.2086z" fill="#000"/><path d="m133.171 19.5618c-.719-1.9769-1.638-2.9154-3.455-2.9154-1.797 0-2.716.9585-3.434 2.9154l-9.026 23.9621c-.14.4194-.24.8786-.24 1.1782 0 1.0183.839 1.7771 1.758 1.7771.878 0 1.477-.3993 1.757-1.1981l2.456-6.6894h13.479l2.456 6.6894c.279.7988.898 1.1981 1.757 1.1981.918 0 1.777-.7588 1.777-1.7771 0-.2996-.1-.7189-.26-1.1782zm-3.435.6989 5.432 14.7766h-10.863zm39.808 21.3263c-.459 0-.778.2396-1.038.639-.319.5191-.759.8586-1.418.8586-1.358 0-1.657-1.0383-1.657-2.1765v-10.164c0-4.6926-3.155-7.3084-8.806-7.3084-3.714 0-6.71 1.3978-8.547 3.774-.499.639-.958 1.3978-.958 2.1766 0 .8187.659 1.3978 1.498 1.3978.818 0 1.377-.4593 1.956-1.318 1.199-1.7572 3.375-2.8754 6.151-2.8754 3.215 0 5.152 1.4377 5.152 3.774 0 1.4378-.619 1.9569-3.016 2.4362l-4.932.9784c-4.613.9186-6.829 3.0552-6.829 6.4698 0 3.8539 3.015 6.2701 7.728 6.2701 3.115 0 5.771-1.2381 7.288-3.2948.539 2.0168 2.077 3.1949 4.233 3.1949 1.518 0 3.036-.7787 3.794-1.9169.38-.5591.58-1.0783.58-1.6574 0-.7189-.46-1.258-1.179-1.258zm-14.037 1.7372c-2.776 0-4.653-1.2979-4.653-3.2548 0-1.917 1.378-3.0153 4.653-3.6542l3.314-.639c1.598-.3195 2.536-.6989 3.076-1.2181v2.9354c0 3.2748-2.796 5.8307-6.39 5.8307z" fill="#000"/><path d="m236.549 20.72c-.939-2.7157-2.257-4.0736-4.813-4.0736-2.576 0-3.874 1.3978-4.812 4.0736l-7.928 21.6657c-.219.659-.339 1.278-.339 1.6973 0 1.3379 1.138 2.4362 2.416 2.4362 1.258 0 2.137-.5591 2.516-1.6774l1.937-5.5113h12.42l1.937 5.5113c.38 1.1183 1.258 1.6774 2.516 1.6774 1.278 0 2.416-1.0983 2.416-2.4362 0-.4193-.099-1.0184-.339-1.7173zm-4.813.8786 4.493 12.8197h-8.986zm39.569 19.0099c-.459 0-.759.1797-1.098.5392-.3.3993-.659.639-1.199.639-.998 0-1.278-.7389-1.278-1.5576v-9.2454c0-4.9122-3.294-7.548-9.045-7.548-3.854 0-7.089 1.3578-9.086 3.7141-.639.7388-1.038 1.5775-1.038 2.4162 0 1.1182.838 1.8571 2.037 1.8571.838 0 1.477-.4194 2.416-1.298 1.338-1.4777 3.394-2.4162 5.651-2.4162 2.576 0 4.113 1.0783 4.113 2.8355 0 1.1782-.559 1.6774-2.456 2.0568l-5.112 1.0783c-4.453.9385-6.609 3.0751-6.609 6.4897 0 3.8739 3.115 6.3699 7.847 6.3699 2.916 0 5.392-1.0383 6.949-2.8355.819 1.7173 2.416 2.7357 4.493 2.7357 1.598 0 3.195-.7788 4.034-1.917.559-.7188.819-1.3978.819-2.2364 0-.9585-.58-1.6774-1.438-1.6774zm-13.659 1.8571c-2.276 0-3.814-1.0583-3.814-2.6358 0-1.5376 1.179-2.4961 3.754-3.0153l2.696-.5192c1.198-.2396 1.997-.579 2.516-1.0183v2.6957c0 2.556-2.216 4.4929-5.152 4.4929z" fill="#000"/><path d="m338.627 21.6585c-1.118-3.3148-2.736-5.0121-5.891-5.0121-3.195 0-4.772 1.7572-5.891 5.0121l-7.048 19.8286c-.3.8587-.44 1.6175-.44 2.1167 0 1.5775 1.378 2.9553 2.956 2.9553 1.537 0 2.655-.6789 3.095-2.0567l1.537-4.5728h11.582l1.538 4.5728c.439 1.3778 1.537 2.0567 3.095 2.0567 1.577 0 2.955-1.3778 2.955-2.9553 0-.4992-.14-1.258-.439-2.1366zm-5.891 1.0384 3.774 11.2422h-7.548zm39.389 17.1329c-.459 0-.759.1397-1.138.4792-.3.2796-.599.4593-1.038.4593-.719 0-.959-.4992-.959-1.0783v-8.5265c0-5.092-3.435-7.7278-9.245-7.7278-3.994 0-7.409 1.3179-9.505 3.6542-.759.8387-1.139 1.7373-1.139 2.6358 0 1.3379 1.019 2.2165 2.457 2.2165.898 0 1.597-.3794 2.795-1.2979 1.458-1.2381 3.415-2.0568 5.272-2.0568 2.057 0 3.295.7988 3.295 2.1167 0 .9385-.52 1.4377-2.037 1.7572l-5.252 1.1582c-4.313.9385-6.43 3.0951-6.43 6.5097 0 3.8739 3.195 6.4498 7.968 6.4498 2.775 0 5.152-.9385 6.749-2.5959.959 1.5775 2.596 2.496 4.633 2.496 1.617 0 3.314-.7987 4.213-1.9369.699-.8586 1.018-1.6773 1.018-2.6957 0-1.1382-.698-2.0168-1.657-2.0168zm-13.359 1.9569c-1.897 0-3.155-.8587-3.155-2.1367 0-1.238 1.019-2.0966 3.015-2.496l2.217-.4393c.918-.1997 1.617-.4793 2.097-.8587v2.4961c0 1.9769-1.778 3.4346-4.174 3.4346z" fill="#000"/><path d="m442.085 22.8965c-1.378-4.0935-3.395-6.2501-7.349-6.2501-4.013 0-5.97 2.2365-7.328 6.2501l-5.891 17.3925c-.379 1.1183-.539 2.0568-.539 2.6558 0 1.937 1.677 3.6543 3.634 3.6543s3.355-.8387 3.894-2.556l1.038-3.3347h10.384l1.038 3.3347c.539 1.7173 1.937 2.556 3.894 2.556s3.634-1.7173 3.634-3.6543c0-.619-.159-1.5575-.539-2.6757zm-7.349 1.2381 2.856 9.1455h-5.711zm39.149 14.6568c-.479 0-.758.0799-1.218.3794-.259.1597-.499.2197-.798.2197-.36 0-.559-.1598-.559-.4194v-7.548c0-5.3316-3.595-7.9874-9.505-7.9874-4.134 0-7.808 1.278-10.065 3.5943-.898.9385-1.238 1.917-1.238 2.8954 0 1.6374 1.219 2.6958 3.036 2.6958.918 0 1.697-.3395 3.274-1.278 1.598-.9385 3.435-1.5775 4.753-1.5775 1.378 0 2.216.4193 2.216 1.1382 0 .6589-.479 1.1182-1.477 1.3578l-5.432 1.258c-4.153.9585-6.19 3.1151-6.19 6.5297 0 3.8939 3.295 6.5497 8.087 6.5497 2.656 0 4.913-.7788 6.55-2.2964 1.118 1.3778 2.776 2.1965 4.752 2.1965 1.698 0 3.475-.7987 4.473-1.9369.879-1.0184 1.258-2.0168 1.258-3.2948 0-1.3978-.838-2.4761-1.917-2.4761zm-12.979 2.0967c-1.358 0-2.256-.5991-2.256-1.4777 0-.8387.798-1.5775 2.056-1.8371l1.558-.3195c.599-.1198 1.118-.3394 1.517-.619v2.2365c0 1.1981-1.178 2.0168-2.875 2.0168z" fill="#000"/><path d="m29.4457 83.1136v-5.6876c0-.4122-.2749-.6977-.6872-.6977-.407 0-.6818.2855-.6818.6977v6.3378c0 .407.2748.6977.6818.6977h3.8851c.3965 0 .6872-.2801.6872-.6766 0-.3964-.2907-.6713-.6872-.6713z" fill="#000"/><path d="m35.6564 77.8225c.4651 0 .7981-.3436.7981-.7982 0-.4493-.333-.7929-.7981-.7929-.4652 0-.8088.3436-.8088.7929 0 .4546.3436.7982.8088.7982zm-.0053 6.7606c.3753 0 .6396-.2802.6396-.6713v-4.715c0-.3964-.2643-.6713-.6396-.6713-.3806 0-.6502.2749-.6502.6713v4.715c0 .3911.2696.6713.6502.6713z" fill="#000"/><path d="m40.2918 82.7066c-.3277 0-.518-.1533-.518-.3911 0-.1216.0582-.2168.1745-.3013.333.1162.7294.1744 1.1681.1744 1.5171 0 2.4738-.7136 2.4738-1.8501 0-.3171-.074-.6025-.2167-.8457l.4123-.3594c.1797-.1639.2854-.3489.2854-.5339 0-.2431-.2114-.4652-.4916-.4652-.1691 0-.3488.0793-.4968.2009l-.5233.4387c-.3859-.185-.8775-.2854-1.4431-.2854-1.5117 0-2.479.7189-2.479 1.85 0 .5075.1955.9356.5497 1.2475-.407.2484-.5867.5656-.5867.9726 0 .3594.1533.6607.4175.8722-.4281.2008-.7188.5603-.7188 1.036 0 .925.962 1.406 2.7222 1.406 1.9293 0 3.0129-.6237 3.0129-1.739 0-.9198-.6607-1.4272-1.8712-1.4272zm.8405-3.2931c.7189 0 1.1682.3489 1.1682.9145 0 .5603-.4493.9091-1.1682.9091-.7295 0-1.1893-.3488-1.1893-.9091s.4598-.9145 1.1893-.9145zm-.0529 5.4814c-1.0149 0-1.4959-.2061-1.4959-.6395 0-.2168.1005-.3859.296-.5181.074.0053.148.0106.2273.0106h1.8025c.5339 0 .7929.1692.7929.5022 0 .4123-.555.6448-1.6228.6448z" fill="#000"/><path d="m49.2194 78.4885c-.7981 0-1.4536.2907-1.813.8246v-1.9241c0-.3911-.2643-.666-.6396-.666-.3806 0-.6502.2749-.6502.666v6.5175c0 .3911.2696.666.6502.666.3753 0 .6396-.2749.6396-.666v-2.6165c0-.9673.5814-1.6175 1.5276-1.6175.8457 0 1.369.4969 1.369 1.5276v2.7117c0 .3806.2643.6713.6449.6713.3753 0 .6449-.2855.6449-.6713v-2.939c0-1.591-.9409-2.4843-2.3734-2.4843z" fill="#000"/><path d="m57.4704 82.8969c-.1956 0-.3436.0951-.4651.1903-.2062.1638-.4071.296-.6713.296-.3965 0-.6555-.2537-.6555-.7559v-2.8121h1.5329c.3489 0 .6026-.2431.6026-.5867 0-.3383-.2537-.5814-.6026-.5814h-1.5329v-.999c0-.3912-.2643-.6661-.6396-.6661-.3806 0-.6501.2749-.6501.6661v.999h-.7929c-.3542 0-.6079.2431-.6079.5814 0 .3436.2537.5867.6079.5867h.7929v2.9918c0 1.1206.7611 1.8131 1.7866 1.8131.5708 0 1.1259-.2167 1.4589-.5233.2273-.2062.3435-.4387.3435-.6766 0-.3066-.2114-.5233-.5074-.5233z" fill="#000"/><path d="m126.101 81.4752c.893-.3647 1.485-1.1576 1.485-2.2042 0-1.4377-1.141-2.4209-2.648-2.4209h-2.616c-.407 0-.682.2854-.682.6977v6.3325c0 .4123.275.703.682.703.412 0 .687-.2907.687-.703v-2.1884h1.654l1.739 2.5742c.133.1903.328.3119.577.3119.354 0 .666-.2749.666-.592 0-.1533-.043-.3225-.185-.5233zm-1.147-3.3248c.719 0 1.211.444 1.211 1.1206 0 .6819-.492 1.1206-1.211 1.1206h-1.945v-2.2412z" fill="#000"/><path d="m134.458 82.6169c-.222 0-.397.1005-.576.2538-.333.3805-.777.5603-1.391.5603-1.041 0-1.749-.5762-1.844-1.4854h3.774c.454 0 .687-.2325.687-.7294 0-1.591-1.163-2.7275-2.828-2.7275-1.734 0-2.939 1.2316-2.939 3.0499 0 1.8818 1.226 3.0817 3.103 3.0817.925 0 1.876-.3277 2.32-.9726.111-.1533.191-.333.191-.5127 0-.3119-.154-.5181-.497-.5181zm-2.226-3.0763c.894 0 1.496.5021 1.592 1.3637h-3.177c.09-.8404.708-1.3637 1.585-1.3637z" fill="#000"/><path d="m138.485 82.7068c-.327 0-.518-.1533-.518-.3911 0-.1216.059-.2168.175-.3013.333.1163.729.1744 1.168.1744 1.517 0 2.474-.7136 2.474-1.8501 0-.3171-.074-.6025-.217-.8457l.412-.3594c.18-.1639.286-.3489.286-.5339 0-.2431-.212-.4651-.492-.4651-.169 0-.349.0792-.497.2008l-.523.4387c-.386-.185-.877-.2854-1.443-.2854-1.512 0-2.479.7189-2.479 1.85 0 .5075.196.9356.55 1.2475-.407.2484-.587.5656-.587.9726 0 .3594.153.6607.418.8722-.429.2008-.719.5603-.719 1.036 0 .925.962 1.406 2.722 1.406 1.929 0 3.013-.6237 3.013-1.739 0-.9198-.661-1.4272-1.871-1.4272zm.841-3.2931c.719 0 1.168.3489 1.168.9145 0 .5603-.449.9091-1.168.9091-.73 0-1.189-.3488-1.189-.9091s.459-.9145 1.189-.9145zm-.053 5.4814c-1.015 0-1.496-.2061-1.496-.6395 0-.2168.101-.3859.296-.5181.074.0053.148.0106.227.0106h1.803c.534 0 .793.1692.793.5022 0 .4123-.555.6448-1.623.6448z" fill="#000"/><path d="m149.078 78.5257c-.375 0-.645.2749-.645.6713v2.6218c0 .962-.576 1.6175-1.522 1.6175-.851 0-1.374-.4969-1.374-1.5277v-2.7169c0-.3753-.265-.666-.64-.666s-.65.2854-.65.666v2.9389c0 1.5964.941 2.4897 2.373 2.4897.798 0 1.454-.2907 1.813-.8299v.1216c0 .3911.27.6713.645.6713s.645-.2802.645-.6713v-4.715c0-.3911-.27-.6713-.645-.6713z" fill="#000"/><path d="m152.757 84.5833c.375 0 .639-.2802.639-.6713v-6.5175c0-.3911-.264-.666-.639-.666-.381 0-.65.2749-.65.666v6.5175c0 .3911.269.6713.65.6713z" fill="#000"/><path d="m161.219 83.0451c-.116 0-.19.0423-.28.1427-.085.1057-.174.1692-.301.1692-.217 0-.317-.1322-.317-.4018v-2.4684c0-1.3004-.836-1.9981-2.289-1.9981-.983 0-1.787.3489-2.289.9726-.174.2009-.275.4176-.275.6449 0 .296.217.4916.529.4916.211 0 .375-.1058.624-.3436.354-.3965.84-.6343 1.4-.6343.635 0 1.015.2854 1.015.7506 0 .3118-.143.444-.613.5444l-1.295.2854c-1.121.2485-1.665.8141-1.665 1.7179 0 1.0255.788 1.6862 1.993 1.6862.724 0 1.342-.2696 1.739-.74.211.4599.629.7295 1.178.7295.407 0 .777-.2168.994-.5075.148-.1956.217-.3753.217-.592 0-.259-.153-.4493-.365-.4493zm-3.451.481c-.566 0-.941-.2801-.941-.6977 0-.407.29-.666.925-.7982l.66-.1374c.296-.0634.497-.1533.629-.2643v.7083c0 .6766-.549 1.1893-1.273 1.1893z" fill="#000"/><path d="m166.764 78.864c-.238-.222-.613-.3753-1.084-.3753-.645 0-1.194.2802-1.522.7823v-.074c0-.3964-.264-.6713-.64-.6713-.38 0-.65.2749-.65.6713v4.715c0 .3911.27.6713.65.6713.376 0 .64-.2802.64-.6713v-2.5531c0-1.0202.492-1.628 1.099-1.628.296 0 .518.1427.677.3224.116.1374.301.2854.523.2854.418 0 .656-.2907.656-.7083 0-.2854-.122-.5497-.349-.7664z" fill="#000"/><path d="m229.778 76.7283c-.454 0-.681.2114-.951.7083l-2.241 4.2498-2.241-4.2498c-.259-.481-.481-.7083-.947-.7083-.496 0-.861.333-.861.9303v6.2056c0 .4176.291.7189.676.7189.392 0 .682-.3119.682-.7189v-4.6463l1.797 3.4623c.291.5497.487.777.894.777s.597-.2273.893-.777l1.803-3.4623v4.6463c0 .407.285.7189.676.7189s.682-.3013.682-.7189v-6.2056c0-.5973-.365-.9303-.862-.9303z" fill="#000"/><path d="m237.607 82.6167c-.207 0-.386.1005-.571.2485-.354.3541-.777.5391-1.391.5391-1.051 0-1.77-.5814-1.855-1.4959h3.785c.454 0 .687-.2378.687-.7294 0-1.5752-1.163-2.6958-2.833-2.6958-1.734 0-2.929 1.2263-2.929 3.0658 0 1.8553 1.221 3.0605 3.098 3.0605.93 0 1.876-.3277 2.32-.962.106-.1586.191-.333.191-.5127 0-.3119-.164-.5181-.502-.5181zm-2.215-3.0657c.909 0 1.469.518 1.586 1.3108h-3.177c.111-.7875.724-1.3108 1.591-1.3108z" fill="#000"/><path d="m245.001 76.7283c-.38 0-.645.2749-.645.6713v1.9346c-.438-.5497-1.115-.8457-1.913-.8457-1.633 0-2.849 1.2316-2.849 3.0658 0 1.8289 1.216 3.0658 2.849 3.0658.819 0 1.464-.259 1.913-.8193v.111c0 .3911.265.6713.645.6713.376 0 .645-.2802.645-.6713v-6.5122c0-.3964-.269-.6713-.645-.6713zm-2.347 6.6972c-.972 0-1.733-.7189-1.733-1.8712 0-1.1576.761-1.8712 1.733-1.8712 1.042 0 1.734.8246 1.734 1.8712s-.692 1.8712-1.734 1.8712z" fill="#000"/><path d="m248.516 77.8225c.465 0 .809-.3383.809-.7982 0-.444-.344-.7929-.809-.7929s-.814.3489-.814.7929c0 .4599.349.7982.814.7982zm-.005 6.7606c.375 0 .639-.2802.639-.6713v-4.715c0-.3964-.264-.6713-.639-.6713-.381 0-.65.2749-.65.6713v4.715c0 .3911.269.6713.65.6713z" fill="#000"/><path d="m256.149 78.5255c-.376 0-.645.2749-.645.6713v2.7804c-.058.8721-.629 1.4589-1.523 1.4589-.845 0-1.369-.4969-1.369-1.5277v-2.7169c0-.3753-.264-.666-.644-.666-.376 0-.645.2854-.645.666v2.9389c0 1.5964.941 2.4897 2.373 2.4897.793 0 1.448-.2907 1.808-.8193v.111c0 .3911.269.6713.645.6713.375 0 .645-.2802.645-.6713v-4.715c0-.3911-.27-.6713-.645-.6713z" fill="#000"/><path d="m266.059 78.4885c-1.025 0-1.686.3859-2.051.9937-.385-.6448-1.062-.9937-1.924-.9937-.755 0-1.374.2907-1.717.814v-.1057c0-.3964-.265-.6713-.64-.6713-.381 0-.65.2749-.65.6713v4.715c0 .3911.269.6713.65.6713.375 0 .64-.2802.64-.6713v-2.6218c0-.9673.544-1.6175 1.432-1.6175.793 0 1.279.4969 1.279 1.5276v2.7117c0 .3806.264.6713.64.6713.375 0 .65-.2855.65-.6713v-2.6218c0-.9673.544-1.6175 1.432-1.6175.793 0 1.28.4969 1.28 1.5276v2.7117c0 .3806.264.6713.639.6713s.65-.2855.65-.6713v-2.939c0-1.591-.935-2.4843-2.31-2.4843z" fill="#000"/><path d="m339.294 80.5819c.682-.3066 1.068-.8616 1.068-1.5752 0-1.3214-.994-2.1566-2.553-2.1566h-2.739c-.401 0-.671.2907-.671.6977v6.2162c0 .407.27.6977.671.6977h2.765c1.575 0 2.579-.9039 2.579-2.2518 0-.7453-.412-1.3214-1.12-1.628zm-.37-1.4695c0 .555-.412.8986-1.174.8986h-1.987v-1.8447h1.987c.746 0 1.174.3541 1.174.9461zm-3.161 4.0331v-2.0033h2.024c.767 0 1.195.3753 1.195.9884 0 .6449-.439 1.0149-1.195 1.0149z" fill="#000"/><path d="m345.087 84.6203c1.802 0 3.097-1.2263 3.097-3.0658 0-1.8448-1.295-3.0658-3.097-3.0658-1.808 0-3.103 1.221-3.103 3.0658 0 1.8395 1.295 3.0658 3.103 3.0658zm0-1.1946c-1.036 0-1.771-.7559-1.771-1.8712s.735-1.8712 1.771-1.8712 1.771.7559 1.771 1.8712-.735 1.8712-1.771 1.8712z" fill="#000"/><path d="m350.642 84.5833c.375 0 .64-.2802.64-.6713v-6.5175c0-.3911-.265-.666-.64-.666-.38 0-.65.2749-.65.666v6.5175c0 .3911.27.6713.65.6713z" fill="#000"/><path d="m358.497 76.7285c-.381 0-.645.2749-.645.6713v1.9346c-.439-.5497-1.116-.8457-1.914-.8457-1.633 0-2.849 1.2316-2.849 3.0658 0 1.8289 1.216 3.0658 2.849 3.0658.82 0 1.465-.259 1.914-.8193v.111c0 .3911.264.6713.645.6713.375 0 .645-.2802.645-.6713v-6.5122c0-.3964-.27-.6713-.645-.6713zm-2.347 6.6972c-.973 0-1.734-.7189-1.734-1.8712 0-1.1576.761-1.8712 1.734-1.8712 1.041 0 1.734.8246 1.734 1.8712s-.693 1.8712-1.734 1.8712z" fill="#000"/><path d="m437.368 80.5872c.719-.2696 1.116-.8458 1.116-1.5805 0-1.3214-.989-2.1566-2.548-2.1566h-2.743c-.407.0053-.672.296-.672.6977v6.2162c0 .4017.265.6924.672.6977h2.769c1.576 0 2.58-.9039 2.58-2.2518 0-.7664-.434-1.3637-1.174-1.6227zm-.317-1.4748c0 .555-.417.8986-1.173.8986h-1.993v-1.8447h1.993c.745 0 1.173.3541 1.173.9461zm-3.166 4.0331v-2.0033h2.03c.766 0 1.194.3753 1.194.9884 0 .6449-.444 1.0149-1.194 1.0149z" fill="#000"/><path d="m441.359 84.5833c.375 0 .64-.2802.64-.6713v-6.5175c0-.3911-.265-.666-.64-.666-.381 0-.65.2749-.65.666v6.5175c0 .3911.269.6713.65.6713z" fill="#000"/><path d="m449.821 83.0451c-.116 0-.19.0423-.28.1427-.084.1057-.174.1692-.301.1692-.217 0-.317-.1322-.317-.4018v-2.4684c0-1.3004-.835-1.9981-2.289-1.9981-.983 0-1.787.3489-2.289.9726-.174.2009-.275.4176-.275.6449 0 .296.217.4916.529.4916.211 0 .375-.1058.624-.3436.354-.3965.84-.6343 1.401-.6343.634 0 1.014.2854 1.014.7506 0 .3118-.142.444-.613.5444l-1.295.2854c-1.12.2485-1.665.8141-1.665 1.7179 0 1.0255.788 1.6862 1.993 1.6862.724 0 1.343-.2696 1.739-.74.211.4599.629.7295 1.179.7295.407 0 .777-.2168.993-.5075.148-.1956.217-.3753.217-.592 0-.259-.153-.4493-.365-.4493zm-3.451.481c-.566 0-.941-.2801-.941-.6977 0-.407.291-.666.925-.7982l.661-.1374c.296-.0634.497-.1533.629-.2643v.7083c0 .6766-.55 1.1893-1.274 1.1893z" fill="#000"/><path d="m454.103 84.6203c.92 0 1.681-.3383 2.135-.814.286-.3013.487-.7031.487-.9885 0-.333-.259-.5709-.571-.5709-.275 0-.428.111-.603.3595-.269.4598-.729.8193-1.406.8193-1.004 0-1.734-.7665-1.734-1.8712 0-1.11.73-1.8712 1.734-1.8712.613 0 1.094.3013 1.369.7506.19.2484.365.3647.645.3647.317 0 .544-.2378.544-.5603 0-.296-.195-.6924-.496-1.0043-.434-.4546-1.158-.7453-2.104-.7453-1.739 0-3.018 1.2739-3.018 3.0658s1.279 3.0658 3.018 3.0658z" fill="#000"/><path d="m462.01 81.0682 1.649-1.4166c.27-.2273.344-.4123.344-.592 0-.3383-.248-.5498-.581-.5498-.244 0-.413.074-.756.3753l-2.807 2.4368v-3.9274c0-.3911-.264-.666-.64-.666-.38 0-.65.2749-.65.666v6.5175c0 .3911.27.6713.65.6713.376 0 .64-.2802.64-.6713v-.9885l1.152-.9937 1.829 2.3363c.185.2485.407.3013.603.3013.37 0 .634-.2854.634-.5656 0-.1797-.026-.296-.248-.592z" fill="#000"/><path d="m66.642 1.20605 17.8196 17.81965h-17.8196z" stroke="#000" stroke-linecap="round" stroke-linejoin="round"/><path d="m167.991 1.20605 17.82 17.81965h-17.82z" stroke="#000" stroke-linecap="round" stroke-linejoin="round"/><path d="m269.34 1.20605 17.82 17.81965h-17.82z" stroke="#000" stroke-linecap="round" stroke-linejoin="round"/><path d="m370.689 1.20605 17.82 17.81965h-17.82z" stroke="#000" stroke-linecap="round" stroke-linejoin="round"/><path d="m472.038 1.20605 17.82 17.81965h-17.82z" stroke="#000" stroke-linecap="round" stroke-linejoin="round"/><path d="m.93219 182.743h83.5294v34.5255h-83.5294z" fill="#fff" stroke="#000"/><path d="m102.281 182.743h83.5294v34.5255h-83.5294z" fill="#fff" stroke="#000"/><path d="m203.63 182.743h83.5294v34.5255h-83.5294z" fill="#fff" stroke="#000"/><path d="m304.979 182.743h83.5294v34.5255h-83.5294z" fill="#fff" stroke="#000"/><path d="m406.328 182.743h83.5294v34.5255h-83.5294z" fill="#fff" stroke="#000"/><path d="m.93219 118.147h65.70981l17.8196 17.82v14.478 32.299h-83.52941z" fill="#fff" stroke="#000"/><path d="m102.281 118.147h65.71l17.82 17.82v14.478 32.299h-83.53z" fill="#fff" stroke="#000"/><path d="m203.63 118.147h65.71l17.82 17.82v14.478 32.299h-83.53z" fill="#fff" stroke="#000"/><path d="m304.979 118.147h65.71l17.82 17.82v14.478 32.299h-83.53z" fill="#fff" stroke="#000"/><path d="m406.328 118.147h65.71l17.82 17.82v14.478 32.299h-83.53z" fill="#fff" stroke="#000"/><g fill="#000"><path d="m34.3872 135.563c-.3594-1.337-.8985-1.917-2.0767-1.917-1.1382 0-1.8171.58-2.496 1.917l-13.1592 25.919c-.0999.2-.2197.52-.2397.739-.0998.739.4394 1.218 1.0584 1.218.5391 0 .9585-.259 1.218-.778l3.8739-7.708h14.2774l1.9969 7.708c.1398.519.4792.778 1.0184.778.619 0 1.278-.479 1.3778-1.218.02-.199 0-.479-.0799-.739zm-2.3562.579 4.2133 16.415h-12.4803zm37.3122 23.344c-.4593 0-.7788.259-1.1183.738-.4593.659-1.0383 1.059-1.7971 1.059-1.5576 0-1.897-1.119-1.6974-2.656l1.3579-11.023c.5591-4.552-2.1366-7.168-7.608-7.168-3.5743 0-6.6295 1.437-8.5864 3.694-.5791.659-1.1781 1.438-1.258 2.196-.0799.579.3195 1.019.8786 1.019.6989 0 1.1182-.479 1.6973-1.298 1.4977-2.137 3.814-3.395 7.0289-3.395 3.814 0 5.9306 1.757 5.5912 4.613-.2197 1.677-.9585 2.276-3.9338 2.815l-4.8523.899c-4.3532.799-7.3684 2.496-7.8476 6.33-.4793 3.874 2.1366 6.29 6.8491 6.29 3.3947 0 6.4898-1.458 8.267-4.054-.1598 2.497 1.1182 3.954 3.5743 3.954 1.3778 0 2.8755-.799 3.6742-1.917.2995-.419.4992-.798.5392-1.158.0599-.559-.2197-.938-.7588-.938zm-14.7567 1.917c-3.2748 0-5.2916-1.658-4.9921-4.134.3195-2.596 2.536-3.674 6.0903-4.313l3.9338-.719c1.897-.339 3.0752-.679 3.7541-1.338l-.3994 3.295c-.4992 4.034-4.1734 7.209-8.3867 7.209z"/><path d="m136.426 136.562c-.48-1.977-1.298-2.916-3.115-2.916-1.798 0-2.816.959-3.775 2.916l-11.981 23.962c-.179.419-.339.879-.379 1.178-.12 1.018.619 1.777 1.538 1.777.878 0 1.537-.399 1.897-1.198l3.294-6.689h13.479l1.618 6.689c.199.799.758 1.198 1.617 1.198.919 0 1.877-.759 1.997-1.777.04-.299-.02-.719-.12-1.178zm-3.535.699 3.614 14.776h-10.862zm37.193 21.326c-.46 0-.799.24-1.119.639-.379.519-.858.859-1.517.859-1.358 0-1.538-1.039-1.398-2.177l1.258-10.164c.579-4.692-2.256-7.308-7.908-7.308-3.714 0-6.889 1.397-9.005 3.774-.579.639-1.139 1.398-1.238 2.176-.1.819.499 1.398 1.338 1.398.818 0 1.417-.459 2.116-1.318 1.398-1.757 3.714-2.875 6.49-2.875 3.215 0 4.992 1.437 4.693 3.774-.18 1.437-.859 1.957-3.315 2.436l-5.052.978c-4.733.919-7.209 3.055-7.628 6.47-.459 3.854 2.256 6.27 6.969 6.27 3.115 0 5.91-1.238 7.688-3.295.299 2.017 1.677 3.195 3.834 3.195 1.517 0 3.135-.778 4.033-1.917.459-.559.719-1.078.779-1.657.1-.719-.3-1.258-1.018-1.258zm-14.258 1.737c-2.776 0-4.493-1.298-4.253-3.255.239-1.917 1.757-3.015 5.112-3.654l3.394-.639c1.638-.319 2.616-.699 3.215-1.218l-.359 2.935c-.4 3.275-3.515 5.831-7.109 5.831z"/><path d="m239.644 137.72c-.599-2.716-1.758-4.074-4.314-4.074-2.575 0-4.033 1.398-5.311 4.074l-10.583 21.666c-.3.659-.5 1.278-.54 1.697-.159 1.338.839 2.436 2.117 2.436 1.258 0 2.197-.559 2.716-1.677l2.616-5.511h12.42l1.258 5.511c.24 1.118 1.058 1.677 2.316 1.677 1.278 0 2.556-1.098 2.716-2.436.04-.419.02-1.018-.14-1.717zm-4.913.879 2.916 12.819h-8.986zm37.233 19.01c-.46 0-.779.179-1.158.539-.36.399-.739.639-1.278.639-.999 0-1.199-.739-1.099-1.558l1.139-9.245c.619-4.912-2.357-7.548-8.108-7.548-3.854 0-7.268 1.358-9.545 3.714-.738.739-1.238 1.577-1.337 2.416-.14 1.118.619 1.857 1.817 1.857.838 0 1.517-.419 2.576-1.298 1.517-1.478 3.674-2.416 5.93-2.416 2.576 0 3.994 1.078 3.774 2.835-.14 1.179-.759 1.678-2.715 2.057l-5.232 1.078c-4.573.939-6.989 3.076-7.408 6.49-.48 3.874 2.336 6.37 7.068 6.37 2.916 0 5.512-1.038 7.289-2.835.619 1.717 2.077 2.735 4.153 2.735 1.598 0 3.295-.778 4.274-1.917.658-.719.998-1.397 1.098-2.236.12-.959-.38-1.677-1.238-1.677zm-13.878 1.857c-2.277 0-3.694-1.059-3.495-2.636.18-1.538 1.478-2.496 4.114-3.015l2.775-.52c1.218-.239 2.057-.579 2.636-1.018l-.339 2.696c-.3 2.556-2.756 4.493-5.691 4.493z"/><path d="m341.622 138.658c-.719-3.314-2.137-5.012-5.292-5.012-3.194 0-4.972 1.758-6.489 5.012l-9.485 19.829c-.42.859-.639 1.618-.699 2.117-.2 1.577 1.018 2.955 2.596 2.955 1.537 0 2.735-.679 3.334-2.057l2.097-4.572h11.582l.978 4.572c.28 1.378 1.298 2.057 2.856 2.057 1.577 0 3.115-1.378 3.315-2.955.059-.499 0-1.258-.18-2.137zm-6.03 1.039 2.396 11.242h-7.548zm37.292 17.133c-.459 0-.779.14-1.198.479-.34.28-.659.459-1.098.459-.719 0-.899-.499-.819-1.078l1.038-8.527c.639-5.091-2.476-7.727-8.287-7.727-3.993 0-7.568 1.318-9.964 3.654-.859.839-1.338 1.737-1.458 2.636-.159 1.338.739 2.216 2.177 2.216.898 0 1.657-.379 2.955-1.298 1.618-1.238 3.674-2.056 5.531-2.056 2.057 0 3.195.798 3.036 2.116-.12.939-.699 1.438-2.257 1.757l-5.391 1.159c-4.433.938-6.809 3.095-7.229 6.509-.479 3.874 2.396 6.45 7.169 6.45 2.775 0 5.272-.938 7.069-2.596.778 1.578 2.296 2.496 4.333 2.496 1.617 0 3.414-.798 4.453-1.937.799-.858 1.218-1.677 1.358-2.695.139-1.139-.46-2.017-1.418-2.017zm-13.599 1.957c-1.897 0-3.055-.859-2.895-2.137.16-1.238 1.278-2.097 3.315-2.496l2.276-.439c.939-.2 1.677-.48 2.197-.859l-.3 2.496c-.24 1.977-2.196 3.435-4.593 3.435z"/><path d="m444.92 139.897c-.879-4.094-2.636-6.251-6.59-6.251-4.013 0-6.23 2.237-8.087 6.251l-8.027 17.392c-.519 1.118-.799 2.057-.859 2.656-.239 1.937 1.218 3.654 3.175 3.654s3.455-.839 4.214-2.556l1.457-3.335h10.384l.619 3.335c.319 1.717 1.617 2.556 3.574 2.556s3.854-1.717 4.094-3.654c.08-.619.02-1.558-.22-2.676zm-7.508 1.238 1.737 9.145h-5.711zm37.352 14.656c-.479 0-.759.08-1.258.38-.28.16-.519.219-.819.219-.359 0-.539-.159-.519-.419l.939-7.548c.639-5.332-2.616-7.987-8.527-7.987-4.133 0-7.967 1.278-10.503 3.594-1.019.939-1.478 1.917-1.598 2.895-.199 1.638.879 2.696 2.696 2.696.919 0 1.737-.339 3.435-1.278 1.717-.938 3.634-1.577 4.952-1.577 1.378 0 2.156.419 2.076 1.138-.079.659-.619 1.118-1.657 1.358l-5.571 1.258c-4.273.958-6.57 3.115-6.989 6.529-.479 3.894 2.476 6.55 7.268 6.55 2.656 0 5.013-.779 6.83-2.296.958 1.378 2.516 2.196 4.493 2.196 1.697 0 3.574-.799 4.712-1.937.999-1.018 1.498-2.017 1.658-3.295.179-1.397-.54-2.476-1.618-2.476zm-13.239 2.097c-1.358 0-2.177-.599-2.057-1.478.1-.838.979-1.577 2.277-1.837l1.597-.319c.619-.12 1.158-.34 1.598-.619l-.28 2.236c-.16 1.198-1.438 2.017-3.135 2.017z"/><path d="m29.4457 196.077v-5.688c0-.412-.2749-.698-.6872-.698-.407 0-.6818.286-.6818.698v6.338c0 .407.2748.697.6818.697h3.8851c.3965 0 .6872-.28.6872-.676 0-.397-.2907-.671-.6872-.671z"/><path d="m35.6564 190.785c.4651 0 .7981-.343.7981-.798 0-.449-.333-.793-.7981-.793-.4652 0-.8088.344-.8088.793 0 .455.3436.798.8088.798zm-.0053 6.761c.3753 0 .6396-.28.6396-.671v-4.715c0-.397-.2643-.672-.6396-.672-.3806 0-.6502.275-.6502.672v4.715c0 .391.2696.671.6502.671z"/><path d="m40.2918 195.669c-.3277 0-.518-.153-.518-.391 0-.121.0582-.216.1745-.301.333.116.7294.174 1.1681.174 1.5171 0 2.4738-.713 2.4738-1.85 0-.317-.074-.602-.2167-.845l.4123-.36c.1797-.164.2854-.349.2854-.534 0-.243-.2114-.465-.4916-.465-.1691 0-.3488.08-.4968.201l-.5233.439c-.3859-.185-.8775-.286-1.4431-.286-1.5117 0-2.479.719-2.479 1.85 0 .508.1955.936.5497 1.248-.407.248-.5867.565-.5867.972 0 .36.1533.661.4176.873-.4282.201-.7189.56-.7189 1.036 0 .925.962 1.406 2.7222 1.406 1.9293 0 3.0129-.624 3.0129-1.739 0-.92-.6607-1.428-1.8712-1.428zm.8405-3.293c.7189 0 1.1682.349 1.1682.915 0 .56-.4493.909-1.1682.909-.7295 0-1.1893-.349-1.1893-.909s.4598-.915 1.1893-.915zm-.0529 5.482c-1.0149 0-1.4959-.206-1.4959-.64 0-.216.1005-.386.296-.518.074.006.148.011.2273.011h1.8025c.5339 0 .7929.169.7929.502 0 .412-.555.645-1.6228.645z"/><path d="m49.2194 191.451c-.7981 0-1.4536.291-1.813.825v-1.924c0-.391-.2643-.666-.6396-.666-.3806 0-.6502.275-.6502.666v6.517c0 .392.2696.666.6502.666.3753 0 .6396-.274.6396-.666v-2.616c0-.967.5814-1.618 1.5276-1.618.8457 0 1.369.497 1.369 1.528v2.712c0 .38.2643.671.6449.671.3753 0 .6449-.285.6449-.671v-2.939c0-1.591-.9409-2.485-2.3734-2.485z"/><path d="m57.4704 195.86c-.1956 0-.3436.095-.4651.19-.2062.164-.4071.296-.6713.296-.3965 0-.6555-.254-.6555-.756v-2.812h1.5329c.3489 0 .6026-.243.6026-.587 0-.338-.2537-.581-.6026-.581h-1.5329v-.999c0-.391-.2643-.666-.6396-.666-.3806 0-.6501.275-.6501.666v.999h-.7929c-.3542 0-.6079.243-.6079.581 0 .344.2537.587.6079.587h.7929v2.992c0 1.121.7611 1.813 1.7866 1.813.5708 0 1.1259-.217 1.4589-.523.2273-.206.3436-.439.3436-.677 0-.306-.2115-.523-.5075-.523z"/><path d="m23.6632 208.583c2.2993 0 3.9221-1.639 3.9221-3.964 0-2.331-1.6228-3.965-3.9221-3.965s-3.9221 1.634-3.9221 3.965c0 2.325 1.6228 3.964 3.9221 3.964zm0-1.374c-1.4589 0-2.5108-1.058-2.5108-2.59 0-1.539 1.0519-2.59 2.5108-2.59 1.4642 0 2.5108 1.051 2.5108 2.59 0 1.532-1.0466 2.59-2.5108 2.59z"/><path d="m32.8604 202.451c-.7982 0-1.4801.296-1.9188.851v-1.939c0-.397-.2643-.672-.6396-.672-.3806 0-.6501.275-.6501.672v6.512c0 .391.2695.671.6501.671.3753 0 .6396-.28.6396-.671v-.111c.4546.56 1.0995.819 1.9188.819 1.628 0 2.849-1.237 2.849-3.066 0-1.834-1.221-3.066-2.849-3.066zm-.2168 4.937c-1.0413 0-1.7284-.824-1.7284-1.871 0-1.046.6871-1.871 1.7284-1.871.9779 0 1.7338.714 1.7338 1.871 0 1.152-.7559 1.871-1.7338 1.871z"/><path d="m38.2253 208.546c.3753 0 .6396-.28.6396-.671v-6.518c0-.391-.2643-.666-.6396-.666-.3806 0-.6502.275-.6502.666v6.518c0 .391.2696.671.6502.671z"/><path d="m41.8776 201.785c.4651 0 .7982-.343.7982-.798 0-.449-.3331-.793-.7982-.793-.4652 0-.8087.344-.8087.793 0 .455.3435.798.8087.798zm-.0053 6.761c.3753 0 .6396-.28.6396-.671v-4.715c0-.397-.2643-.672-.6396-.672-.3806 0-.6501.275-.6501.672v4.715c0 .391.2695.671.6501.671z"/><path d="m49.7744 202.488c-.3805 0-.6448.275-.6448.672v.153c-.444-.56-1.1101-.862-1.9135-.862-1.6333 0-2.8491 1.232-2.8491 3.066 0 1.829 1.2158 3.066 2.8491 3.066.8246 0 1.4536-.254 1.9135-.814v1.39c0 .391.2643.666.6448.666.3806 0 .6449-.275.6449-.666v-5.999c0-.397-.2696-.672-.6449-.672zm-2.3469 4.9c-.9726 0-1.7337-.719-1.7337-1.871 0-1.157.7611-1.871 1.7337-1.871 1.0413 0 1.7338.825 1.7338 1.866 0 1.046-.6925 1.876-1.7338 1.876z"/><path d="m57.5708 202.488c-.3752 0-.6448.275-.6448.672v2.621c0 .962-.5762 1.618-1.5224 1.618-.851 0-1.3743-.497-1.3743-1.528v-2.717c0-.375-.2643-.666-.6396-.666s-.6501.286-.6501.666v2.939c0 1.597.9409 2.49 2.3733 2.49.7982 0 1.4536-.291 1.8131-.83v.122c0 .391.2696.671.6448.671.3753 0 .6449-.28.6449-.671v-4.715c0-.391-.2696-.672-.6449-.672z"/><path d="m65.1981 206.58c-.222 0-.3964.1-.5761.253-.3331.381-.7771.561-1.3902.561-1.0413 0-1.7496-.576-1.8448-1.486h3.7741c.4546 0 .6872-.232.6872-.729 0-1.591-1.1629-2.728-2.828-2.728-1.7337 0-2.9389 1.232-2.9389 3.05 0 1.882 1.2263 3.082 3.1028 3.082.925 0 1.8765-.328 2.3205-.973.111-.153.1903-.333.1903-.512 0-.312-.1533-.518-.4969-.518zm-2.2253-3.077c.8933 0 1.4959.502 1.591 1.364h-3.1768c.0899-.84.7083-1.364 1.5858-1.364z"/><path d="m126.101 194.437c.893-.365 1.485-1.157 1.485-2.204 0-1.438-1.141-2.421-2.648-2.421h-2.616c-.407 0-.682.285-.682.698v6.332c0 .412.275.703.682.703.412 0 .687-.291.687-.703v-2.188h1.654l1.739 2.574c.133.19.328.312.577.312.354 0 .666-.275.666-.592 0-.153-.043-.323-.185-.523zm-1.147-3.325c.719 0 1.211.444 1.211 1.121 0 .682-.492 1.121-1.211 1.121h-1.945v-2.242z"/><path d="m134.458 195.579c-.222 0-.397.1-.576.254-.333.38-.777.56-1.391.56-1.041 0-1.749-.576-1.844-1.485h3.774c.454 0 .687-.233.687-.73 0-1.591-1.163-2.727-2.828-2.727-1.734 0-2.939 1.231-2.939 3.05 0 1.881 1.226 3.081 3.103 3.081.925 0 1.876-.328 2.32-.972.111-.154.191-.333.191-.513 0-.312-.154-.518-.497-.518zm-2.226-3.077c.894 0 1.496.503 1.592 1.364h-3.177c.09-.84.708-1.364 1.585-1.364z"/><path d="m138.485 195.669c-.327 0-.518-.154-.518-.391 0-.122.059-.217.175-.302.333.117.729.175 1.168.175 1.517 0 2.474-.714 2.474-1.85 0-.317-.074-.603-.217-.846l.412-.36c.18-.163.286-.348.286-.533 0-.244-.212-.466-.492-.466-.169 0-.349.08-.497.201l-.523.439c-.386-.185-.877-.285-1.443-.285-1.512 0-2.479.718-2.479 1.85 0 .507.196.935.55 1.247-.407.249-.587.566-.587.973 0 .359.153.66.418.872-.429.201-.719.56-.719 1.036 0 .925.962 1.406 2.722 1.406 1.929 0 3.013-.624 3.013-1.739 0-.92-.661-1.427-1.871-1.427zm.841-3.293c.719 0 1.168.349 1.168.914 0 .56-.449.909-1.168.909-.73 0-1.189-.349-1.189-.909s.459-.914 1.189-.914zm-.053 5.481c-1.015 0-1.496-.206-1.496-.64 0-.216.101-.385.296-.518.074.006.148.011.227.011h1.803c.534 0 .793.169.793.502 0 .412-.555.645-1.623.645z"/><path d="m149.078 191.488c-.375 0-.645.274-.645.671v2.622c0 .962-.576 1.617-1.522 1.617-.851 0-1.374-.497-1.374-1.527v-2.717c0-.376-.265-.666-.64-.666s-.65.285-.65.666v2.939c0 1.596.941 2.489 2.373 2.489.798 0 1.454-.291 1.813-.83v.122c0 .391.27.671.645.671s.645-.28.645-.671v-4.715c0-.391-.27-.671-.645-.671z"/><path d="m152.757 197.545c.375 0 .639-.28.639-.671v-6.518c0-.391-.264-.666-.639-.666-.381 0-.65.275-.65.666v6.518c0 .391.269.671.65.671z"/><path d="m161.219 196.007c-.116 0-.19.042-.28.143-.085.105-.174.169-.301.169-.217 0-.317-.132-.317-.402v-2.468c0-1.301-.836-1.998-2.289-1.998-.983 0-1.787.348-2.289.972-.174.201-.275.418-.275.645 0 .296.217.492.529.492.211 0 .375-.106.624-.344.354-.396.84-.634 1.4-.634.635 0 1.015.285 1.015.75 0 .312-.143.444-.613.545l-1.295.285c-1.121.249-1.665.814-1.665 1.718 0 1.026.788 1.686 1.993 1.686.724 0 1.342-.269 1.739-.74.211.46.629.73 1.178.73.407 0 .777-.217.994-.508.148-.195.217-.375.217-.592 0-.259-.153-.449-.365-.449zm-3.451.481c-.566 0-.941-.28-.941-.698 0-.407.29-.666.925-.798l.66-.137c.296-.064.497-.154.629-.265v.709c0 .676-.549 1.189-1.273 1.189z"/><path d="m166.764 191.826c-.238-.222-.613-.375-1.084-.375-.645 0-1.194.28-1.522.782v-.074c0-.397-.264-.671-.64-.671-.38 0-.65.274-.65.671v4.715c0 .391.27.671.65.671.376 0 .64-.28.64-.671v-2.553c0-1.02.492-1.628 1.099-1.628.296 0 .518.143.677.322.116.138.301.286.523.286.418 0 .656-.291.656-.709 0-.285-.122-.549-.349-.766z"/><path d="m125.012 208.582c2.3 0 3.922-1.638 3.922-3.964 0-2.331-1.622-3.965-3.922-3.965-2.299 0-3.922 1.634-3.922 3.965 0 2.326 1.623 3.964 3.922 3.964zm0-1.374c-1.459 0-2.511-1.057-2.511-2.59 0-1.538 1.052-2.59 2.511-2.59 1.464 0 2.511 1.052 2.511 2.59 0 1.533-1.047 2.59-2.511 2.59z"/><path d="m134.209 202.451c-.798 0-1.48.296-1.918.851v-1.94c0-.397-.265-.672-.64-.672-.381 0-.65.275-.65.672v6.512c0 .391.269.671.65.671.375 0 .64-.28.64-.671v-.111c.454.56 1.099.819 1.918.819 1.628 0 2.849-1.237 2.849-3.066 0-1.834-1.221-3.065-2.849-3.065zm-.216 4.937c-1.042 0-1.729-.825-1.729-1.872 0-1.046.687-1.871 1.729-1.871.978 0 1.733.714 1.733 1.871 0 1.153-.755 1.872-1.733 1.872z"/><path d="m139.574 208.545c.376 0 .64-.28.64-.671v-6.518c0-.391-.264-.666-.64-.666-.38 0-.65.275-.65.666v6.518c0 .391.27.671.65.671z"/><path d="m143.227 201.785c.465 0 .798-.344.798-.799 0-.449-.333-.792-.798-.792-.466 0-.809.343-.809.792 0 .455.343.799.809.799zm-.006 6.76c.376 0 .64-.28.64-.671v-4.715c0-.397-.264-.671-.64-.671-.38 0-.65.274-.65.671v4.715c0 .391.27.671.65.671z"/><path d="m151.123 202.488c-.38 0-.644.274-.644.671v.153c-.444-.56-1.11-.861-1.914-.861-1.633 0-2.849 1.231-2.849 3.065 0 1.829 1.216 3.066 2.849 3.066.825 0 1.454-.254 1.914-.814v1.39c0 .392.264.666.644.666.381 0 .645-.274.645-.666v-5.999c0-.397-.269-.671-.645-.671zm-2.346 4.9c-.973 0-1.734-.719-1.734-1.872 0-1.157.761-1.871 1.734-1.871 1.041 0 1.733.825 1.733 1.866 0 1.047-.692 1.877-1.733 1.877z"/><path d="m158.92 202.488c-.375 0-.645.274-.645.671v2.622c0 .962-.576 1.617-1.522 1.617-.851 0-1.375-.497-1.375-1.527v-2.717c0-.376-.264-.666-.639-.666-.376 0-.65.285-.65.666v2.939c0 1.596.94 2.489 2.373 2.489.798 0 1.454-.291 1.813-.83v.122c0 .391.27.671.645.671s.645-.28.645-.671v-4.715c0-.391-.27-.671-.645-.671z"/><path d="m166.547 206.579c-.222 0-.396.1-.576.254-.333.38-.777.56-1.39.56-1.042 0-1.75-.576-1.845-1.485h3.774c.455 0 .687-.233.687-.73 0-1.591-1.163-2.727-2.828-2.727-1.733 0-2.939 1.231-2.939 3.05 0 1.881 1.227 3.081 3.103 3.081.925 0 1.877-.328 2.321-.972.111-.154.19-.333.19-.513 0-.312-.153-.518-.497-.518zm-2.225-3.076c.893 0 1.496.502 1.591 1.363h-3.177c.09-.84.708-1.363 1.586-1.363z"/><path d="m229.778 189.691c-.454 0-.681.212-.951.709l-2.241 4.249-2.241-4.249c-.259-.482-.481-.709-.947-.709-.496 0-.861.333-.861.931v6.205c0 .418.291.719.676.719.392 0 .682-.312.682-.719v-4.646l1.797 3.462c.291.55.487.777.894.777s.597-.227.893-.777l1.803-3.462v4.646c0 .407.285.719.676.719s.682-.301.682-.719v-6.205c0-.598-.365-.931-.862-.931z"/><path d="m237.607 195.58c-.207 0-.386.1-.571.248-.354.354-.777.539-1.39.539-1.052 0-1.771-.581-1.856-1.496h3.785c.454 0 .687-.238.687-.729 0-1.575-1.163-2.696-2.833-2.696-1.734 0-2.929 1.226-2.929 3.066 0 1.855 1.221 3.06 3.098 3.06.93 0 1.876-.327 2.32-.962.106-.158.191-.333.191-.512 0-.312-.164-.518-.502-.518zm-2.215-3.066c.909 0 1.469.518 1.586 1.311h-3.177c.111-.788.724-1.311 1.591-1.311z"/><path d="m245.001 189.691c-.38 0-.645.275-.645.672v1.934c-.438-.55-1.115-.846-1.913-.846-1.633 0-2.849 1.232-2.849 3.066 0 1.829 1.216 3.066 2.849 3.066.819 0 1.464-.259 1.913-.819v.111c0 .391.265.671.645.671.376 0 .645-.28.645-.671v-6.512c0-.397-.269-.672-.645-.672zm-2.347 6.697c-.972 0-1.733-.719-1.733-1.871 0-1.157.761-1.871 1.733-1.871 1.042 0 1.734.825 1.734 1.871 0 1.047-.692 1.871-1.734 1.871z"/><path d="m248.516 190.785c.465 0 .809-.338.809-.798 0-.444-.344-.793-.809-.793s-.814.349-.814.793c0 .46.349.798.814.798zm-.005 6.761c.375 0 .639-.28.639-.671v-4.715c0-.397-.264-.672-.639-.672-.381 0-.65.275-.65.672v4.715c0 .391.269.671.65.671z"/><path d="m256.149 191.488c-.376 0-.645.275-.645.672v2.78c-.058.872-.629 1.459-1.523 1.459-.845 0-1.369-.497-1.369-1.528v-2.717c0-.375-.264-.666-.644-.666-.376 0-.645.286-.645.666v2.939c0 1.597.941 2.49 2.373 2.49.793 0 1.448-.291 1.808-.819v.111c0 .391.269.671.645.671.375 0 .645-.28.645-.671v-4.715c0-.391-.27-.672-.645-.672z"/><path d="m266.059 191.451c-1.025 0-1.686.386-2.05.994-.386-.645-1.063-.994-1.925-.994-.755 0-1.374.291-1.717.814v-.105c0-.397-.265-.672-.64-.672-.381 0-.65.275-.65.672v4.715c0 .391.269.671.65.671.375 0 .64-.28.64-.671v-2.622c0-.967.544-1.618 1.432-1.618.793 0 1.279.497 1.279 1.528v2.712c0 .38.265.671.64.671s.65-.285.65-.671v-2.622c0-.967.544-1.618 1.432-1.618.793 0 1.28.497 1.28 1.528v2.712c0 .38.264.671.639.671s.65-.285.65-.671v-2.939c0-1.591-.935-2.485-2.31-2.485z"/><path d="m226.631 208.583c2.294 0 3.917-1.639 3.917-3.964 0-2.331-1.623-3.965-3.917-3.965-2.3 0-3.922 1.634-3.922 3.965 0 2.325 1.622 3.964 3.922 3.964zm0-1.374c-1.464 0-2.511-1.058-2.511-2.59 0-1.539 1.047-2.59 2.511-2.59 1.459 0 2.511 1.051 2.511 2.59 0 1.532-1.052 2.59-2.511 2.59z"/><path d="m235.738 202.451c-.798 0-1.48.296-1.919.851v-1.939c0-.397-.264-.672-.639-.672-.381 0-.65.275-.65.672v6.512c0 .391.269.671.65.671.375 0 .639-.28.639-.671v-.111c.455.56 1.1.819 1.919.819 1.628 0 2.849-1.237 2.849-3.066 0-1.834-1.221-3.066-2.849-3.066zm-.217 4.937c-1.041 0-1.728-.824-1.728-1.871 0-1.046.687-1.871 1.728-1.871.978 0 1.734.714 1.734 1.871 0 1.152-.756 1.871-1.734 1.871z"/><path d="m241.04 208.546c.375 0 .639-.28.639-.671v-6.518c0-.391-.264-.666-.639-.666-.381 0-.651.275-.651.666v6.518c0 .391.27.671.651.671z"/><path d="m244.549 201.785c.465 0 .809-.338.809-.798 0-.444-.344-.793-.809-.793s-.814.349-.814.793c0 .46.349.798.814.798zm-.005 6.761c.375 0 .64-.28.64-.671v-4.715c0-.397-.265-.672-.64-.672-.381 0-.65.275-.65.672v4.715c0 .391.269.671.65.671z"/><path d="m252.356 202.488c-.38 0-.645.275-.645.672v.153c-.444-.56-1.11-.862-1.913-.862-1.633 0-2.849 1.232-2.849 3.066 0 1.829 1.216 3.066 2.849 3.066.824 0 1.453-.254 1.913-.814v1.39c0 .391.265.666.645.666.381 0 .645-.275.645-.666v-5.999c0-.397-.27-.672-.645-.672zm-2.347 4.9c-.972 0-1.733-.719-1.733-1.871 0-1.157.761-1.871 1.733-1.871 1.042 0 1.734.825 1.734 1.866 0 1.046-.692 1.876-1.734 1.876z"/><path d="m260.042 202.488c-.376 0-.645.275-.645.672v2.78c-.058.872-.629 1.459-1.523 1.459-.845 0-1.369-.497-1.369-1.528v-2.717c0-.375-.264-.666-.645-.666-.375 0-.644.286-.644.666v2.939c0 1.597.941 2.49 2.373 2.49.793 0 1.448-.291 1.808-.819v.111c0 .391.269.671.645.671.375 0 .644-.28.644-.671v-4.715c0-.391-.269-.672-.644-.672z"/><path d="m267.6 206.58c-.206 0-.386.1-.571.248-.354.354-.777.539-1.39.539-1.052 0-1.771-.581-1.855-1.496h3.784c.455 0 .688-.238.688-.729 0-1.575-1.163-2.696-2.834-2.696-1.733 0-2.928 1.226-2.928 3.066 0 1.855 1.221 3.06 3.098 3.06.93 0 1.876-.327 2.32-.962.106-.158.19-.333.19-.512 0-.312-.164-.518-.502-.518zm-2.215-3.066c.91 0 1.47.518 1.586 1.311h-3.177c.111-.788.725-1.311 1.591-1.311z"/><path d="m339.141 193.549c.718-.269 1.115-.846 1.115-1.58 0-1.322-.989-2.157-2.548-2.157h-2.743c-.407.005-.672.296-.672.698v6.216c0 .402.265.692.672.698h2.77c1.575 0 2.579-.904 2.579-2.252 0-.767-.433-1.364-1.173-1.623zm-.318-1.475c0 .555-.417.899-1.173.899h-1.993v-1.845h1.993c.745 0 1.173.354 1.173.946zm-3.166 4.033v-2.003h2.03c.766 0 1.195.375 1.195.989 0 .644-.444 1.014-1.195 1.014z"/><path d="m345.066 197.582c1.808 0 3.103-1.226 3.103-3.066 0-1.844-1.295-3.065-3.103-3.065-1.803 0-3.098 1.221-3.098 3.065 0 1.84 1.295 3.066 3.098 3.066zm0-1.194c-1.036 0-1.771-.756-1.771-1.872 0-1.115.735-1.871 1.771-1.871s1.771.756 1.771 1.871c0 1.116-.735 1.872-1.771 1.872z"/><path d="m350.684 197.545c.376 0 .64-.28.64-.671v-6.518c0-.391-.264-.666-.64-.666-.38 0-.65.275-.65.666v6.518c0 .391.27.671.65.671z"/><path d="m358.602 189.69c-.38 0-.644.275-.644.672v1.934c-.439-.549-1.116-.845-1.914-.845-1.633 0-2.849 1.231-2.849 3.065 0 1.829 1.216 3.066 2.849 3.066.819 0 1.464-.259 1.914-.819v.111c0 .391.264.671.644.671.376 0 .645-.28.645-.671v-6.512c0-.397-.269-.672-.645-.672zm-2.346 6.698c-.973 0-1.734-.719-1.734-1.872 0-1.157.761-1.871 1.734-1.871 1.041 0 1.733.825 1.733 1.871 0 1.047-.692 1.872-1.733 1.872z"/><path d="m327.71 208.582c2.3 0 3.922-1.638 3.922-3.964 0-2.331-1.622-3.965-3.922-3.965-2.299 0-3.922 1.634-3.922 3.965 0 2.326 1.623 3.964 3.922 3.964zm0-1.374c-1.459 0-2.511-1.057-2.511-2.59 0-1.538 1.052-2.59 2.511-2.59 1.464 0 2.511 1.052 2.511 2.59 0 1.533-1.047 2.59-2.511 2.59z"/><path d="m336.907 202.451c-.798 0-1.48.296-1.918.851v-1.94c0-.397-.265-.672-.64-.672-.381 0-.65.275-.65.672v6.512c0 .391.269.671.65.671.375 0 .64-.28.64-.671v-.111c.454.56 1.099.819 1.918.819 1.628 0 2.849-1.237 2.849-3.066 0-1.834-1.221-3.065-2.849-3.065zm-.216 4.937c-1.042 0-1.729-.825-1.729-1.872 0-1.046.687-1.871 1.729-1.871.978 0 1.733.714 1.733 1.871 0 1.153-.755 1.872-1.733 1.872z"/><path d="m342.272 208.545c.376 0 .64-.28.64-.671v-6.518c0-.391-.264-.666-.64-.666-.38 0-.65.275-.65.666v6.518c0 .391.27.671.65.671z"/><path d="m345.925 201.785c.465 0 .798-.344.798-.799 0-.449-.333-.792-.798-.792-.466 0-.809.343-.809.792 0 .455.343.799.809.799zm-.006 6.76c.376 0 .64-.28.64-.671v-4.715c0-.397-.264-.671-.64-.671-.38 0-.65.274-.65.671v4.715c0 .391.27.671.65.671z"/><path d="m353.821 202.488c-.38 0-.644.274-.644.671v.153c-.444-.56-1.11-.861-1.914-.861-1.633 0-2.849 1.231-2.849 3.065 0 1.829 1.216 3.066 2.849 3.066.825 0 1.454-.254 1.914-.814v1.39c0 .392.264.666.644.666.381 0 .645-.274.645-.666v-5.999c0-.397-.269-.671-.645-.671zm-2.346 4.9c-.973 0-1.734-.719-1.734-1.872 0-1.157.761-1.871 1.734-1.871 1.041 0 1.733.825 1.733 1.866 0 1.047-.692 1.877-1.733 1.877z"/><path d="m361.618 202.488c-.375 0-.645.274-.645.671v2.622c0 .962-.576 1.617-1.522 1.617-.851 0-1.375-.497-1.375-1.527v-2.717c0-.376-.264-.666-.639-.666-.376 0-.65.285-.65.666v2.939c0 1.596.941 2.489 2.373 2.489.798 0 1.454-.291 1.813-.83v.122c0 .391.27.671.645.671s.645-.28.645-.671v-4.715c0-.391-.27-.671-.645-.671z"/><path d="m369.245 206.579c-.222 0-.396.1-.576.254-.333.38-.777.56-1.39.56-1.041 0-1.75-.576-1.845-1.485h3.774c.455 0 .687-.233.687-.73 0-1.591-1.163-2.727-2.828-2.727-1.733 0-2.939 1.231-2.939 3.05 0 1.881 1.227 3.081 3.103 3.081.925 0 1.877-.328 2.321-.972.111-.154.19-.333.19-.513 0-.312-.153-.518-.497-.518zm-2.225-3.076c.893 0 1.496.502 1.591 1.363h-3.177c.09-.84.708-1.363 1.586-1.363z"/><path d="m437.368 193.549c.719-.269 1.116-.846 1.116-1.58 0-1.322-.989-2.157-2.548-2.157h-2.743c-.407.005-.672.296-.672.698v6.216c0 .402.265.692.672.698h2.769c1.576 0 2.58-.904 2.58-2.252 0-.767-.434-1.364-1.174-1.623zm-.317-1.475c0 .555-.417.899-1.173.899h-1.993v-1.845h1.993c.745 0 1.173.354 1.173.946zm-3.166 4.033v-2.003h2.03c.766 0 1.194.375 1.194.989 0 .644-.444 1.014-1.194 1.014z"/><path d="m441.359 197.545c.375 0 .64-.28.64-.671v-6.518c0-.391-.265-.666-.64-.666-.381 0-.65.275-.65.666v6.518c0 .391.269.671.65.671z"/><path d="m449.821 196.007c-.116 0-.19.042-.28.143-.084.105-.174.169-.301.169-.217 0-.317-.132-.317-.402v-2.468c0-1.301-.835-1.998-2.289-1.998-.983 0-1.787.348-2.289.972-.174.201-.275.418-.275.645 0 .296.217.492.529.492.211 0 .375-.106.624-.344.354-.396.84-.634 1.401-.634.634 0 1.014.285 1.014.75 0 .312-.142.444-.613.545l-1.295.285c-1.12.249-1.665.814-1.665 1.718 0 1.026.788 1.686 1.993 1.686.724 0 1.343-.269 1.739-.74.211.46.629.73 1.179.73.407 0 .777-.217.993-.508.148-.195.217-.375.217-.592 0-.259-.153-.449-.365-.449zm-3.451.481c-.566 0-.941-.28-.941-.698 0-.407.291-.666.925-.798l.661-.137c.296-.064.497-.154.629-.265v.709c0 .676-.55 1.189-1.274 1.189z"/><path d="m454.103 197.582c.92 0 1.681-.338 2.135-.814.286-.301.487-.703.487-.988 0-.333-.259-.571-.571-.571-.275 0-.428.111-.603.359-.269.46-.729.82-1.406.82-1.004 0-1.734-.767-1.734-1.872 0-1.11.73-1.871 1.734-1.871.613 0 1.094.302 1.369.751.19.248.365.365.645.365.317 0 .544-.238.544-.561 0-.296-.195-.692-.496-1.004-.434-.455-1.158-.745-2.104-.745-1.739 0-3.018 1.274-3.018 3.065 0 1.792 1.279 3.066 3.018 3.066z"/><path d="m462.01 194.03 1.649-1.416c.27-.228.344-.413.344-.593 0-.338-.248-.549-.581-.549-.244 0-.413.074-.756.375l-2.807 2.437v-3.928c0-.391-.264-.666-.64-.666-.38 0-.65.275-.65.666v6.518c0 .391.27.671.65.671.376 0 .64-.28.64-.671v-.989l1.152-.993 1.829 2.336c.185.248.407.301.603.301.37 0 .634-.285.634-.565 0-.18-.026-.296-.248-.592z"/><path d="m429.059 208.582c2.3 0 3.922-1.638 3.922-3.964 0-2.331-1.622-3.965-3.922-3.965-2.299 0-3.922 1.634-3.922 3.965 0 2.326 1.623 3.964 3.922 3.964zm0-1.374c-1.459 0-2.51-1.057-2.51-2.59 0-1.538 1.051-2.59 2.51-2.59 1.464 0 2.511 1.052 2.511 2.59 0 1.533-1.047 2.59-2.511 2.59z"/><path d="m438.256 202.451c-.798 0-1.48.296-1.918.851v-1.94c0-.397-.265-.672-.64-.672-.38 0-.65.275-.65.672v6.512c0 .391.27.671.65.671.375 0 .64-.28.64-.671v-.111c.454.56 1.099.819 1.918.819 1.629 0 2.85-1.237 2.85-3.066 0-1.834-1.221-3.065-2.85-3.065zm-.216 4.937c-1.042 0-1.729-.825-1.729-1.872 0-1.046.687-1.871 1.729-1.871.978 0 1.734.714 1.734 1.871 0 1.153-.756 1.872-1.734 1.872z"/><path d="m443.621 208.545c.376 0 .64-.28.64-.671v-6.518c0-.391-.264-.666-.64-.666-.38 0-.65.275-.65.666v6.518c0 .391.27.671.65.671z"/><path d="m447.274 201.785c.465 0 .798-.344.798-.799 0-.449-.333-.792-.798-.792s-.809.343-.809.792c0 .455.344.799.809.799zm-.006 6.76c.376 0 .64-.28.64-.671v-4.715c0-.397-.264-.671-.64-.671-.38 0-.65.274-.65.671v4.715c0 .391.27.671.65.671z"/><path d="m455.171 202.488c-.381 0-.645.274-.645.671v.153c-.444-.56-1.11-.861-1.914-.861-1.633 0-2.849 1.231-2.849 3.065 0 1.829 1.216 3.066 2.849 3.066.825 0 1.454-.254 1.914-.814v1.39c0 .392.264.666.645.666.38 0 .644-.274.644-.666v-5.999c0-.397-.269-.671-.644-.671zm-2.347 4.9c-.973 0-1.734-.719-1.734-1.872 0-1.157.761-1.871 1.734-1.871 1.041 0 1.733.825 1.733 1.866 0 1.047-.692 1.877-1.733 1.877z"/><path d="m462.967 202.488c-.375 0-.645.274-.645.671v2.622c0 .962-.576 1.617-1.522 1.617-.851 0-1.375-.497-1.375-1.527v-2.717c0-.376-.264-.666-.639-.666s-.65.285-.65.666v2.939c0 1.596.941 2.489 2.373 2.489.798 0 1.454-.291 1.813-.83v.122c0 .391.27.671.645.671s.645-.28.645-.671v-4.715c0-.391-.27-.671-.645-.671z"/><path d="m470.594 206.579c-.222 0-.396.1-.576.254-.333.38-.777.56-1.39.56-1.041 0-1.75-.576-1.845-1.485h3.774c.455 0 .687-.233.687-.73 0-1.591-1.163-2.727-2.828-2.727-1.733 0-2.938 1.231-2.938 3.05 0 1.881 1.226 3.081 3.102 3.081.925 0 1.877-.328 2.321-.972.111-.154.19-.333.19-.513 0-.312-.153-.518-.497-.518zm-2.225-3.076c.893 0 1.496.502 1.591 1.363h-3.177c.09-.84.708-1.363 1.586-1.363z"/></g><path d="m66.642 118.147 17.8196 17.82h-17.8196z" stroke="#000" stroke-linecap="round" stroke-linejoin="round"/><path d="m167.991 118.147 17.82 17.82h-17.82z" stroke="#000" stroke-linecap="round" stroke-linejoin="round"/><path d="m269.34 118.147 17.82 17.82h-17.82z" stroke="#000" stroke-linecap="round" stroke-linejoin="round"/><path d="m370.689 118.147 17.82 17.82h-17.82z" stroke="#000" stroke-linecap="round" stroke-linejoin="round"/><path d="m472.038 118.147 17.82 17.82h-17.82z" stroke="#000" stroke-linecap="round" stroke-linejoin="round"/><path d="m511.018 117.688h83.5294v34.5255h-83.5294z" fill="#fff" stroke="#000"/><path d="m511.017 53.0928h65.71l17.82 17.8196v14.4784 32.2982h-83.53z" fill="#fff" stroke="#000"/><path d="m530.945 74.1314c-.206-.5299-.443-.7593-.91-.7593-.451 0-.696.2294-.902.7593l-3.947 10.2674c-.032.0791-.063.2057-.063.2927 0 .2927.237.4825.482.4825.214 0 .364-.1028.443-.3085l1.163-3.0533h5.656l1.162 3.0533c.08.2057.23.3085.443.3085.246 0 .483-.1898.483-.4825 0-.0791-.024-.1898-.063-.2927zm-.902.2294 2.468 6.5022h-4.944zm12.589.1662c-.285-.7832-.649-1.1549-1.369-1.1549-.711 0-1.075.3797-1.36 1.1549l-3.575 9.4921c-.056.1662-.095.3481-.095.4667 0 .4035.332.704.696.704.348 0 .585-.1582.696-.4746l.973-2.6499h5.339l.973 2.6499c.111.3164.356.4746.696.4746.364 0 .704-.3005.704-.704 0-.1186-.039-.2847-.103-.4667zm-1.361.2768 2.152 5.8535h-4.303zm13.135.1819c-.371-1.0757-.893-1.6136-1.906-1.6136-1.02 0-1.535.5537-1.906 1.6136l-3.141 8.5826c-.087.261-.134.5062-.134.6723 0 .53.451.9651.957.9651.498 0 .846-.2215.997-.6645l.767-2.1832h4.92l.767 2.1832c.151.443.499.6645.997.6645.506 0 .957-.4351.957-.9651 0-.1661-.039-.4034-.134-.6802zm-1.906.3481 1.78 5.0783h-3.56zm13.562.0237c-.443-1.3131-1.084-1.9854-2.333-1.9854-1.266 0-1.891.6961-2.334 1.9854l-2.792 7.8548c-.119.3401-.174.6407-.174.8385 0 .6249.546 1.1707 1.171 1.1707.609 0 1.052-.269 1.226-.8148l.609-1.8114h4.588l.609 1.8114c.174.5458.609.8148 1.226.8148.625 0 1.17-.5458 1.17-1.1707 0-.1978-.055-.4984-.174-.8464zm-2.333.4113 1.495 4.4535h-2.99zm14.139.0791c-.546-1.6215-1.345-2.4758-2.911-2.4758-1.59 0-2.365.8859-2.903 2.4758l-2.333 6.8898c-.151.443-.214.8147-.214 1.052 0 .7673.665 1.4476 1.44 1.4476s1.329-.3322 1.542-1.0125l.412-1.321h4.113l.411 1.321c.214.6803.768 1.0125 1.543 1.0125s1.439-.6803 1.439-1.4476c0-.2452-.063-.6169-.213-1.0599zm-2.911.4905 1.131 3.6228h-2.262zm-39.907 20.2299c-.182 0-.293.1028-.404.2926-.15.2611-.363.4193-.664.4193-.617 0-.799-.443-.799-1.0521v-4.3268c0-1.8035-1.194-2.8398-3.362-2.8398-1.416 0-2.555.5696-3.219 1.4634-.198.261-.396.5695-.396.8701 0 .2294.182.4034.404.4034.277 0 .419-.1898.609-.5141.49-.8464 1.345-1.3447 2.618-1.3447 1.511 0 2.436.696 2.436 1.8272 0 .6644-.269.9018-1.416 1.1153l-1.882.356c-1.685.3164-2.8.9888-2.8 2.5075 0 1.5188 1.155 2.4601 3.021 2.4601 1.345 0 2.5-.617 3.085-1.6137.048.9888.625 1.5662 1.598 1.5662.546 0 1.1-.3164 1.361-.7594.103-.1661.158-.3164.158-.4588 0-.2214-.135-.3717-.348-.3717zm-5.751.7752c-1.297 0-2.175-.6487-2.175-1.6137 0-1.0283.823-1.4555 2.199-1.7086l1.527-.2848c.735-.1344 1.186-.2689 1.423-.53v1.3052c0 1.5821-1.305 2.8319-2.974 2.8319zm16.837-1.0916c-.182 0-.308.0949-.411.2531-.127.2056-.301.3401-.562.3401-.538 0-.656-.4113-.656-.8622v-4.0263c0-1.8588-1.25-2.8951-3.489-2.8951-1.471 0-2.658.5537-3.385 1.495-.198.2532-.38.5538-.38.8622 0 .3244.261.5538.593.5538.325 0 .546-.182.775-.5221.475-.6961 1.337-1.1391 2.437-1.1391 1.273 0 2.041.5696 2.041 1.495 0 .5696-.246.7752-1.195.9651l-1.954.3876c-1.827.3639-2.705 1.2102-2.705 2.5629 0 1.5266 1.195 2.4838 3.061 2.4838 1.234 0 2.286-.4905 2.888-1.3052.213.7989.822 1.2656 1.676 1.2656.602 0 1.203-.3085 1.503-.7594.151-.2214.23-.4271.23-.6565 0-.2848-.182-.4983-.467-.4983zm-5.561.6881c-1.099 0-1.843-.5141-1.843-1.2893 0-.7594.546-1.1945 1.843-1.4476l1.313-.2531c.633-.1266 1.005-.2769 1.219-.4825v1.1628c0 1.2972-1.108 2.3097-2.532 2.3097zm16.695-1.0757c-.182 0-.301.0711-.435.2135-.119.1582-.261.2532-.475.2532-.395 0-.506-.2927-.506-.617v-3.6624c0-1.9459-1.305-2.9901-3.583-2.9901-1.527 0-2.808.5379-3.6 1.4713-.253.2927-.411.6249-.411.9571 0 .443.332.7357.807.7357.332 0 .585-.1661.957-.5142.53-.5853 1.345-.9571 2.239-.9571 1.02 0 1.629.4271 1.629 1.1232 0 .4667-.221.6645-.973.8148l-2.025.4271c-1.764.3718-2.618 1.2182-2.618 2.5708 0 1.5267 1.234 2.5155 3.109 2.5155 1.155 0 2.135-.4114 2.752-1.1154.325.6803.958 1.0837 1.78 1.0837.633 0 1.274-.3085 1.598-.7594.222-.2847.324-.5537.324-.8859 0-.3797-.229-.6644-.569-.6644zm-5.411.7356c-.901 0-1.511-.4192-1.511-1.0441 0-.6091.467-.9888 1.488-1.1945l1.067-.2056c.475-.095.791-.2294.997-.4035v1.0679c0 1.0125-.878 1.7798-2.041 1.7798zm16.568-1.0441c-.182 0-.3.0553-.451.1898-.118.1107-.237.1819-.411.1819-.285 0-.38-.1977-.38-.4271v-3.3776c0-2.0171-1.36-3.0613-3.662-3.0613-1.582 0-2.935.5221-3.765 1.4476-.301.3322-.451.6882-.451 1.0441 0 .53.403.878.973.878.356 0 .633-.1502 1.107-.5141.578-.4904 1.353-.8148 2.089-.8148.814 0 1.305.3164 1.305.8385 0 .3718-.206.5696-.807.6961l-2.081.4588c-1.708.3718-2.547 1.2261-2.547 2.5787 0 1.5267 1.266 2.5392 3.157 2.5392 1.099 0 2.04-.3639 2.673-1.0204.38.617 1.029.9808 1.835.9808.641 0 1.313-.3085 1.669-.7514.277-.3402.404-.6645.404-1.0679 0-.4509-.277-.7989-.657-.7989zm-5.292.7752c-.751 0-1.249-.3402-1.249-.8464 0-.4905.403-.8306 1.194-.9888l.878-.174c.364-.0791.641-.1899.831-.3402v.9888c0 .7831-.704 1.3606-1.654 1.3606zm16.426-1.1866c-.19 0-.301.0317-.483.1503-.102.0633-.197.087-.316.087-.142 0-.221-.0632-.221-.1661v-2.99c0-2.112-1.424-3.1641-3.766-3.1641-1.637 0-3.093.5063-3.986 1.4239-.356.3717-.491.7593-.491 1.1469 0 .6487.483 1.0679 1.203 1.0679.363 0 .672-.1345 1.297-.5063.633-.3717 1.36-.6249 1.882-.6249.546 0 .878.1662.878.4509 0 .2611-.189.443-.585.5379l-2.151.4984c-1.646.3796-2.453 1.2339-2.453 2.5866 0 1.5266 1.306 2.5708 3.204 2.5708 1.052 0 1.954-.3085 2.595-.8939.442.5458 1.099.8622 1.882.8622.672 0 1.384-.3085 1.772-.7514.348-.4034.498-.799.498-1.3052 0-.5537-.332-.9809-.759-.9809zm-5.142.8306c-.538 0-.893-.2373-.893-.5854 0-.3322.316-.6249.814-.7277l.617-.1265c.238-.0475.443-.1345.601-.2453v.886c0 .4746-.466.7989-1.139.7989z" fill="#000"/><path d="m534.709 124.925c-.323 0-.55.19-.656.502l-2.156 5.909-2.162-5.909c-.111-.312-.344-.502-.666-.502-.407 0-.703.274-.703.639 0 .079.026.206.047.27l2.131 5.814c.275.788.719 1.158 1.353 1.158.624 0 1.057-.37 1.337-1.158l2.13-5.814c.027-.069.053-.185.053-.27 0-.365-.296-.639-.708-.639z" fill="#000"/><path d="m542.458 131.231c-.122 0-.201.047-.28.142-.074.106-.164.169-.296.169-.238 0-.318-.174-.318-.412v-2.447c0-1.3-.835-1.998-2.288-1.998-.983 0-1.808.359-2.31.978-.169.201-.275.417-.275.645 0 .296.222.491.534.491.211 0 .37-.106.618-.338.354-.397.862-.645 1.422-.645.634 0 1.015.285 1.015.751 0 .311-.143.444-.613.544l-1.295.285c-1.121.249-1.665.814-1.665 1.718 0 1.02.787 1.681 1.993 1.681.724 0 1.347-.269 1.744-.74.206.455.613.719 1.147.719.396 0 .809-.206 1.02-.502.148-.196.217-.37.217-.597 0-.254-.154-.444-.37-.444zm-3.447.491c-.565 0-.94-.28-.94-.698 0-.407.29-.666.925-.798l.66-.137c.296-.064.497-.153.629-.264v.708c0 .676-.549 1.189-1.274 1.189z" fill="#000"/><path d="m548.055 127.06c-.232-.222-.608-.375-1.083-.375-.645 0-1.19.28-1.523.782v-.074c0-.396-.264-.671-.639-.671-.381 0-.65.275-.65.671v4.715c0 .391.269.671.65.671.375 0 .639-.28.639-.671v-2.553h.006c0-1.02.491-1.628 1.094-1.628.296 0 .507.153.676.322.138.148.302.286.529.286.412 0 .65-.291.65-.708 0-.286-.116-.55-.349-.767z" fill="#000"/><path d="m550.444 126.019c.465 0 .809-.339.809-.798 0-.444-.344-.793-.809-.793s-.814.349-.814.793c0 .459.349.798.814.798zm-.005 6.76c.375 0 .64-.28.64-.671v-4.715c0-.396-.265-.671-.64-.671-.381 0-.65.275-.65.671v4.715c0 .391.269.671.65.671z" fill="#000"/><path d="m558.669 131.231c-.122 0-.201.047-.28.142-.074.106-.164.169-.296.169-.238 0-.317-.174-.317-.412v-2.447c0-1.3-.836-1.998-2.289-1.998-.983 0-1.808.359-2.31.978-.169.201-.275.417-.275.645 0 .296.222.491.534.491.211 0 .37-.106.618-.338.354-.397.862-.645 1.422-.645.634 0 1.015.285 1.015.751 0 .311-.143.444-.613.544l-1.295.285c-1.121.249-1.665.814-1.665 1.718 0 1.02.787 1.681 1.993 1.681.724 0 1.347-.269 1.744-.74.206.455.613.719 1.147.719.396 0 .809-.206 1.02-.502.148-.196.217-.37.217-.597 0-.254-.153-.444-.37-.444zm-3.447.491c-.565 0-.94-.28-.94-.698 0-.407.29-.666.925-.798l.66-.137c.296-.064.497-.153.629-.264v.708c0 .676-.549 1.189-1.274 1.189z" fill="#000"/><path d="m563.579 126.685c-.798 0-1.48.296-1.919.851v-1.94c0-.397-.264-.671-.639-.671-.381 0-.65.274-.65.671v6.512c0 .391.269.671.65.671.375 0 .639-.28.639-.671v-.111c.455.56 1.1.819 1.919.819 1.628 0 2.849-1.237 2.849-3.065 0-1.835-1.221-3.066-2.849-3.066zm-.217 4.937c-1.041 0-1.728-.825-1.728-1.871 0-1.047.687-1.872 1.728-1.872.978 0 1.734.714 1.734 1.872 0 1.152-.756 1.871-1.734 1.871z" fill="#000"/><path d="m568.881 132.779c.375 0 .639-.28.639-.671v-6.517c0-.392-.264-.666-.639-.666-.381 0-.651.274-.651.666v6.517c0 .391.27.671.651.671z" fill="#000"/><path d="m576.429 130.813c-.207 0-.386.1-.571.248-.354.355-.777.54-1.39.54-1.052 0-1.771-.582-1.856-1.496h3.785c.454 0 .687-.238.687-.73 0-1.575-1.163-2.695-2.833-2.695-1.734 0-2.929 1.226-2.929 3.065 0 1.856 1.222 3.061 3.098 3.061.93 0 1.876-.328 2.32-.962.106-.159.191-.333.191-.513 0-.312-.164-.518-.502-.518zm-2.215-3.066c.909 0 1.469.518 1.586 1.311h-3.177c.111-.787.724-1.311 1.591-1.311z" fill="#000"/><path d="m544.588 137.394c.396 0 .687-.28.687-.677 0-.396-.291-.671-.687-.671h-4.134c-.407 0-.682.286-.682.698v6.332c0 .413.275.703.682.703.413 0 .687-.29.687-.703v-2.426h3.029c.397 0 .687-.275.687-.671 0-.397-.29-.677-.687-.677h-3.029v-1.908z" fill="#000"/><path d="m549.847 143.816c1.802 0 3.097-1.226 3.097-3.065 0-1.845-1.295-3.066-3.097-3.066-1.808 0-3.103 1.221-3.103 3.066 0 1.839 1.295 3.065 3.103 3.065zm0-1.194c-1.036 0-1.771-.756-1.771-1.871 0-1.116.735-1.872 1.771-1.872s1.771.756 1.771 1.872c0 1.115-.735 1.871-1.771 1.871z" fill="#000"/><path d="m557.855 137.685c-.798 0-1.454.291-1.813.824v-.116c0-.396-.265-.671-.64-.671-.38 0-.65.275-.65.671v4.715c0 .391.27.671.65.671.375 0 .64-.28.64-.671v-2.622c0-.967.576-1.617 1.522-1.617.851 0 1.374.497 1.374 1.527v2.712c0 .381.265.671.64.671s.65-.285.65-.671v-2.939c0-1.591-.941-2.484-2.373-2.484z" fill="#000"/><path d="m566.016 142.093c-.201 0-.344.095-.465.19-.206.164-.413.296-.672.296-.401 0-.655-.253-.655-.755v-2.812h1.528c.354 0 .602-.244.602-.587 0-.338-.248-.582-.602-.582h-1.528v-.999c0-.391-.264-.666-.645-.666-.38 0-.645.275-.645.666v.999h-.798c-.349 0-.602.244-.602.582 0 .343.253.587.602.587h.798v2.991c0 1.121.761 1.813 1.782 1.813.576 0 1.125-.216 1.464-.523.222-.206.333-.439.333-.677 0-.306-.201-.523-.497-.523z" fill="#000"/><path d="m576.728 53.0928 17.82 17.8196h-17.82z" stroke="#000" stroke-linecap="round" stroke-linejoin="round"/></svg>