<svg fill="none" height="334" viewBox="0 0 596 334" width="596" xmlns="http://www.w3.org/2000/svg"><path d="m511.199 182.596h83.5294v34.5255h-83.5294z" fill="#fff" stroke="#000"/><path d="m511.198 118h65.71l17.819 17.82v14.478 32.298h-83.529z" fill="#fff" stroke="#000"/><path d="m540.323 149.119c1.099 0 1.724-.53 2.033-1.938.063-.277.095-.546.118-1.013-.269 0-.553-.047-.712-.079-.253-.047-.411-.158-.411-.419 0-.222.119-.364.38-.364.063 0 .15.008.316.024.261.023.593.039.823.039.229 0 .561-.016.823-.039.166-.016.253-.024.316-.024.261 0 .38.142.38.364 0 .261-.159.372-.412.419-.158.032-.443.079-.712.079.024.467.056.736.119 1.013.309 1.408.933 1.938 2.033 1.938 1.123 0 1.867-.736 1.867-2.033 0-.222-.016-.847-.048-1.234l-.332-4.153c-.221-2.8-1.724-4.208-4.034-4.208s-3.813 1.408-4.034 4.208l-.333 4.153c-.031.387-.047 1.012-.047 1.234 0 1.297.744 2.033 1.867 2.033zm1.028-6.661c0-.261.158-.364.411-.411.159-.032.443-.071.712-.071v-.807c0-.245.119-.427.396-.427s.395.182.395.427v.807c.269 0 .554.039.712.071.253.047.412.15.412.411 0 .23-.119.372-.38.372-.063 0-.15-.008-.316-.024-.262-.023-.594-.039-.823-.039-.23 0-.562.016-.823.039-.166.016-.253.024-.316.024-.261 0-.38-.142-.38-.372zm8.839 6.661c1.147 0 1.804-.53 2.112-1.938.071-.325.095-.633.119-1.171-.356 0-.736-.04-.949-.079-.151-.024-.253-.095-.253-.245 0-.135.071-.222.229-.222.055 0 .19.016.308.024.285.032.657.039.902.039.253 0 .617-.007.902-.039.127-.008.253-.024.308-.024.159 0 .23.087.23.222 0 .15-.095.221-.253.245-.206.039-.586.079-.949.079.023.538.047.846.118 1.171.309 1.408.973 1.938 2.112 1.938 1.171 0 1.946-.736 1.946-2.033 0-.23-.016-.847-.047-1.234l-.333-4.153c-.221-2.8-1.724-4.208-4.034-4.208s-3.812 1.408-4.034 4.208l-.332 4.153c-.032.387-.048 1.004-.048 1.234 0 1.297.776 2.033 1.946 2.033zm1.029-6.669c0-.158.102-.221.253-.245.213-.039.593-.071.949-.071v-1.044c0-.158.071-.269.237-.269s.238.111.238.269v1.044c.363 0 .743.032.949.071.158.024.253.087.253.245 0 .135-.071.222-.23.222-.055 0-.181-.016-.308-.024-.285-.031-.649-.039-.902-.039-.245 0-.617.008-.902.039-.118.008-.253.024-.308.024-.158 0-.229-.087-.229-.222zm8.68 6.669c1.187 0 1.883-.522 2.192-1.938.079-.364.095-.72.118-1.329-.451 0-.925-.032-1.186-.071-.056-.008-.095-.032-.095-.08 0-.039.024-.071.079-.071.047 0 .221.016.3.024.309.032.712.04.981.04s.673-.008.981-.04c.079-.008.253-.024.301-.024.055 0 .079.032.079.071 0 .048-.04.072-.095.08-.261.039-.736.071-1.187.071.024.609.04.965.119 1.329.309 1.416 1.005 1.938 2.191 1.938 1.218 0 2.025-.736 2.025-2.033 0-.238-.016-.847-.047-1.234l-.332-4.153c-.222-2.8-1.725-4.208-4.035-4.208-2.309 0-3.812 1.408-4.034 4.208l-.332 4.153c-.032.387-.048.996-.048 1.234 0 1.297.807 2.033 2.025 2.033zm1.029-6.677c0-.047.039-.071.095-.079.261-.039.735-.071 1.186-.071v-1.281c0-.064.024-.111.079-.111.056 0 .079.047.079.111v1.281c.451 0 .926.032 1.187.071.055.008.095.032.095.079 0 .048-.024.072-.079.072-.048 0-.222-.016-.301-.024-.308-.032-.712-.04-.981-.04s-.672.008-.981.04c-.079.008-.253.024-.3.024-.055 0-.079-.024-.079-.072zm-18.825 19.716c1.154 0 1.969-.902 2.436-2.009.119-.277.261-.316.411-.316.19 0 .38.134.38.363 0 .048-.016.103-.032.182-.118.404-.553 1.1-.894 1.488.206.15.657.292 1.052.292 1.234 0 2.049-.815 2.049-1.962v-3.259c0-2.301-1.574-3.796-4.01-3.796-2.421 0-4.295 1.202-4.295 2.76 0 .989.806 1.416 1.7 1.416.768 0 1.369-.522 1.456-1.297.039-.324.166-.435.403-.435.222 0 .38.158.38.482 0 1.005-.973 2.041-2.231 2.041-.403 0-.854-.071-1.202-.229-.245.387-.372.775-.372 1.36 0 1.733 1.194 2.919 2.769 2.919zm1.067-2.99v-.807c0-.245.119-.427.396-.427s.395.182.395.427v.807c0 .245-.118.427-.395.427s-.396-.182-.396-.427zm8.199 2.99c1.305 0 2.112-.917 2.571-2.072.071-.166.158-.198.245-.198.111 0 .221.087.221.229 0 .048-.015.103-.047.198-.158.419-.522 1.028-.862 1.392.221.261.767.451 1.226.451 1.234 0 2.048-.815 2.048-1.962v-3.259c0-2.301-1.574-3.796-4.01-3.796-2.42 0-4.295 1.202-4.295 2.76 0 1.005.807 1.574 1.701 1.574.846 0 1.566-.625 1.613-1.526.016-.206.095-.285.237-.285.143 0 .23.095.23.324 0 .989-.894 1.962-2.073 1.962-.356 0-.759-.079-1.067-.245-.333.435-.507.878-.507 1.534 0 1.733 1.195 2.919 2.769 2.919zm1.226-3.148v-.965c0-.158.071-.269.237-.269s.238.111.238.269v.965c0 .15-.072.269-.238.269s-.237-.119-.237-.269zm7.882 3.148c1.447 0 2.246-.933 2.697-2.128.024-.063.056-.079.087-.079.032 0 .064.032.064.087 0 .056-.024.103-.072.214-.189.443-.482.965-.83 1.297.245.372.886.609 1.408.609 1.234 0 2.049-.815 2.049-1.962v-3.259c0-2.301-1.575-3.796-4.011-3.796-2.42 0-4.295 1.202-4.295 2.76 0 1.021.807 1.733 1.701 1.733.917 0 1.764-.728 1.764-1.756 0-.08.023-.135.079-.135.055 0 .079.032.079.166 0 .973-.823 1.883-1.915 1.883-.316 0-.664-.079-.933-.253-.427.482-.641.973-.641 1.7 0 1.733 1.195 2.919 2.769 2.919zm1.384-3.306v-1.123c0-.064.024-.111.079-.111.056 0 .079.047.079.111v1.123c0 .063-.023.11-.079.11-.055 0-.079-.047-.079-.11z" fill="#000"/><path d="m534.889 189.832c-.322 0-.549.191-.655.502l-2.157 5.91-2.162-5.91c-.111-.311-.343-.502-.666-.502-.407 0-.703.275-.703.64 0 .079.027.206.048.269l2.13 5.815c.275.787.719 1.157 1.353 1.157.624 0 1.058-.37 1.338-1.157l2.13-5.815c.026-.068.053-.185.053-.269 0-.365-.296-.64-.709-.64zm7.749 6.306c-.121 0-.201.048-.28.143-.074.106-.164.169-.296.169-.238 0-.317-.174-.317-.412v-2.448c0-1.3-.835-1.998-2.289-1.998-.983 0-1.808.36-2.31.978-.169.201-.275.418-.275.645 0 .296.222.492.534.492.212 0 .37-.106.619-.339.354-.396.861-.644 1.422-.644.634 0 1.015.285 1.015.75 0 .312-.143.444-.614.545l-1.295.285c-1.12.248-1.665.814-1.665 1.718 0 1.02.788 1.681 1.993 1.681.724 0 1.348-.27 1.744-.74.207.454.614.719 1.147.719.397 0 .809-.206 1.021-.502.148-.196.216-.37.216-.598 0-.253-.153-.444-.37-.444zm-3.446.492c-.566 0-.941-.28-.941-.698 0-.407.291-.666.925-.798l.661-.137c.296-.064.497-.154.629-.265v.709c0 .676-.55 1.189-1.274 1.189zm9.044-4.662c-.233-.222-.608-.376-1.084-.376-.645 0-1.189.281-1.522.783v-.074c0-.397-.264-.672-.64-.672-.38 0-.65.275-.65.672v4.715c0 .391.27.671.65.671.376 0 .64-.28.64-.671v-2.553h.005c0-1.021.492-1.628 1.094-1.628.296 0 .508.153.677.322.137.148.301.285.529.285.412 0 .65-.29.65-.708 0-.285-.117-.55-.349-.766zm2.389-1.042c.465 0 .809-.338.809-.798 0-.444-.344-.793-.809-.793s-.814.349-.814.793c0 .46.349.798.814.798zm-.005 6.761c.375 0 .639-.28.639-.671v-4.715c0-.397-.264-.672-.639-.672-.381 0-.651.275-.651.672v4.715c0 .391.27.671.651.671zm8.229-1.549c-.121 0-.2.048-.28.143-.074.106-.164.169-.296.169-.238 0-.317-.174-.317-.412v-2.448c0-1.3-.835-1.998-2.289-1.998-.983 0-1.807.36-2.31.978-.169.201-.274.418-.274.645 0 .296.222.492.533.492.212 0 .37-.106.619-.339.354-.396.861-.644 1.422-.644.634 0 1.015.285 1.015.75 0 .312-.143.444-.614.545l-1.295.285c-1.12.248-1.665.814-1.665 1.718 0 1.02.788 1.681 1.993 1.681.724 0 1.348-.27 1.744-.74.207.454.614.719 1.147.719.397 0 .809-.206 1.021-.502.148-.196.216-.37.216-.598 0-.253-.153-.444-.37-.444zm-3.446.492c-.566 0-.941-.28-.941-.698 0-.407.291-.666.925-.798l.661-.137c.296-.064.497-.154.629-.265v.709c0 .676-.55 1.189-1.274 1.189zm8.357-5.038c-.798 0-1.48.296-1.919.851v-1.939c0-.397-.264-.672-.64-.672-.38 0-.65.275-.65.672v6.512c0 .391.27.671.65.671.376 0 .64-.28.64-.671v-.111c.455.56 1.099.819 1.919.819 1.628 0 2.849-1.237 2.849-3.066 0-1.834-1.221-3.066-2.849-3.066zm-.217 4.937c-1.041 0-1.728-.824-1.728-1.871 0-1.046.687-1.871 1.728-1.871.978 0 1.734.714 1.734 1.871 0 1.153-.756 1.871-1.734 1.871zm5.518 1.158c.375 0 .64-.28.64-.671v-6.518c0-.391-.265-.666-.64-.666-.38 0-.65.275-.65.666v6.518c0 .391.27.671.65.671zm7.548-1.966c-.206 0-.386.1-.571.248-.354.354-.777.539-1.39.539-1.052 0-1.771-.581-1.855-1.496h3.784c.455 0 .688-.237.688-.729 0-1.575-1.163-2.696-2.834-2.696-1.733 0-2.928 1.226-2.928 3.066 0 1.855 1.221 3.06 3.098 3.06.93 0 1.876-.327 2.32-.962.106-.158.19-.333.19-.512 0-.312-.164-.518-.502-.518zm-2.215-3.066c.91 0 1.47.518 1.586 1.311h-3.177c.111-.788.725-1.311 1.591-1.311zm-29.626 9.647c.397 0 .687-.28.687-.677 0-.396-.29-.671-.687-.671h-4.133c-.407 0-.682.285-.682.698v6.332c0 .412.275.703.682.703.412 0 .687-.291.687-.703v-2.426h3.029c.396 0 .687-.275.687-.672 0-.396-.291-.676-.687-.676h-3.029v-1.908zm5.259 6.422c1.803 0 3.098-1.226 3.098-3.066 0-1.845-1.295-3.066-3.098-3.066-1.807 0-3.102 1.221-3.102 3.066 0 1.84 1.295 3.066 3.102 3.066zm0-1.195c-1.036 0-1.77-.755-1.77-1.871 0-1.115.734-1.871 1.77-1.871 1.037 0 1.771.756 1.771 1.871 0 1.116-.734 1.871-1.771 1.871zm8.008-4.937c-.798 0-1.453.291-1.813.825v-.116c0-.397-.264-.672-.639-.672-.381 0-.65.275-.65.672v4.715c0 .391.269.671.65.671.375 0 .639-.28.639-.671v-2.622c0-.967.576-1.618 1.523-1.618.851 0 1.374.497 1.374 1.528v2.712c0 .38.264.671.64.671.375 0 .65-.285.65-.671v-2.939c0-1.591-.941-2.485-2.374-2.485zm8.161 4.409c-.2 0-.343.095-.465.19-.206.164-.412.296-.671.296-.402 0-.655-.254-.655-.756v-2.812h1.527c.354 0 .603-.243.603-.587 0-.338-.249-.581-.603-.581h-1.527v-.999c0-.391-.265-.666-.645-.666-.381 0-.645.275-.645.666v.999h-.798c-.349 0-.603.243-.603.581 0 .344.254.587.603.587h.798v2.992c0 1.121.761 1.813 1.781 1.813.576 0 1.126-.217 1.464-.523.222-.206.333-.439.333-.677 0-.306-.201-.523-.497-.523z" fill="#000"/><path d="m576.909 118 17.819 17.82h-17.819z" stroke="#000" stroke-linecap="round" stroke-linejoin="round"/><path d="m1.11273 65.8018h83.5294v34.5255h-83.5294z" fill="#fff" stroke="#000"/><path d="m1.11273 1.20605h65.70977l17.8197 17.81965v14.4784 32.298h-83.52947z" fill="#fff" stroke="#000"/><path d="m24.4877 49.2995c2.7756 0 4.3531-1.3379 5.1319-4.8922.1597-.6989.2396-1.3779.2995-2.556-.6789 0-1.3978-.1198-1.7972-.1997-.6389-.1198-1.0383-.3993-1.0383-1.0583 0-.5591.2995-.9186.9585-.9186.1597 0 .3794.02.7987.06.659.0599 1.4976.0998 2.0767.0998s1.4178-.0399 2.0767-.0998c.4194-.04.639-.06.7988-.06.6589 0 .9585.3595.9585.9186 0 .659-.3994.9385-1.0384 1.0583-.3994.0799-1.1182.1997-1.7972.1997.06 1.1781.1398 1.8571.2996 2.556.7787 3.5543 2.3562 4.8922 5.1319 4.8922 2.8355 0 4.7125-1.857 4.7125-5.1319 0-.5591-.0399-2.1366-.1198-3.115l-.8387-10.4835c-.5591-7.0688-4.3531-10.6232-10.1839-10.6232s-9.6248 3.5544-10.1839 10.6232l-.8386 10.4835c-.0799.9784-.1199 2.5559-.1199 3.115 0 3.2749 1.8771 5.1319 4.7126 5.1319zm2.5959-16.8134c0-.6589.3994-.9185 1.0383-1.0383.3994-.0799 1.1183-.1798 1.7972-.1798v-2.0367c0-.6191.2995-1.0783.9984-1.0783s.9984.4592.9984 1.0783v2.0367c.679 0 1.3978.0999 1.7972.1798.639.1198 1.0384.3794 1.0384 1.0383 0 .5791-.2996.9385-.9585.9385-.1598 0-.3794-.0199-.7988-.0599-.6589-.0599-1.4976-.0998-2.0767-.0998s-1.4177.0399-2.0767.0998c-.4193.04-.639.0599-.7987.0599-.659 0-.9585-.3594-.9585-.9385zm23.403 16.9133c2.9154 0 4.9721-2.2764 6.1503-5.072.2995-.6989.6589-.7987 1.0383-.7987.4793 0 .9585.3394.9585.9185 0 .1198-.0399.2596-.0799.4593-.2995 1.0184-1.3978 2.7756-2.2564 3.754.5192.3794 1.6574.7389 2.6558.7389 3.1151 0 5.1718-2.0568 5.1718-4.9522v-8.227c0-5.8108-3.9737-9.5848-10.124-9.5848-6.1103 0-10.8428 3.0352-10.8428 6.9689 0 2.4961 2.0367 3.5744 4.2932 3.5744 1.9369 0 3.4545-1.3179 3.6742-3.2748.0998-.8187.4193-1.0983 1.0184-1.0983.5591 0 .9584.3994.9584 1.2181 0 2.536-2.4561 5.1518-5.6311 5.1518-1.0183 0-2.1565-.1797-3.0352-.579-.619.9784-.9385 1.9569-.9385 3.4345 0 4.3731 3.0153 7.3684 6.989 7.3684zm2.6957-7.5481v-2.0368c0-.619.2995-1.0783.9984-1.0783s.9985.4593.9985 1.0783v2.0368c0 .619-.2996 1.0783-.9985 1.0783s-.9984-.4593-.9984-1.0783z" fill="#000"/><path d="m38.658 80.2668c-.4546 0-.6819.2114-.9515.7083l-2.2412 4.2498-2.2412-4.2498c-.259-.481-.481-.7083-.9461-.7083-.4969 0-.8616.333-.8616.9303v6.2056c0 .4176.2907.7189.6766.7189.3911 0 .6818-.3119.6818-.7189v-4.6463l1.7972 3.4623c.2908.5497.4863.777.8933.777.4071 0 .5973-.2273.8934-.777l1.8024-3.4623v4.6463c0 .407.2855.7189.6766.7189.3912 0 .6819-.3013.6819-.7189v-6.2056c0-.5973-.3647-.9303-.8616-.9303zm3.9325 1.0942c.4651 0 .7981-.3436.7981-.7982 0-.4493-.333-.7929-.7981-.7929-.4652 0-.8088.3436-.8088.7929 0 .4546.3436.7982.8088.7982zm-.0053 6.7606c.3753 0 .6396-.2802.6396-.6713v-4.715c0-.3964-.2643-.6713-.6396-.6713-.3806 0-.6502.2749-.6502.6713v4.715c0 .3911.2696.6713.6502.6713zm6.1102-6.0946c-.7982 0-1.4536.2907-1.8131.8246v-.1163c0-.3964-.2642-.6713-.6395-.6713-.3806 0-.6502.2749-.6502.6713v4.715c0 .3911.2696.6713.6502.6713.3753 0 .6395-.2802.6395-.6713v-2.6218c0-.9673.5815-1.6175 1.5277-1.6175.8457 0 1.369.4969 1.369 1.5276v2.7117c0 .3806.2643.6713.6449.6713.3753 0 .6448-.2855.6448-.6713v-2.939c0-1.591-.9408-2.4843-2.3733-2.4843zm5.3226-.666c.4652 0 .7982-.3436.7982-.7982 0-.4493-.333-.7929-.7982-.7929-.4651 0-.8087.3436-.8087.7929 0 .4546.3436.7982.8087.7982zm-.0053 6.7606c.3753 0 .6396-.2802.6396-.6713v-4.715c0-.3964-.2643-.6713-.6396-.6713-.3805 0-.6501.2749-.6501.6713v4.715c0 .3911.2696.6713.6501.6713z" fill="#000"/><path d="m66.8225 1.20605 17.8196 17.81965h-17.8196z" stroke="#000" stroke-linecap="round" stroke-linejoin="round"/><path d="m101.113 65.8018h83.5294v34.5255h-83.5294z" fill="#fff" stroke="#000"/><path d="m101.113 1.20605h65.71l17.819 17.81965v14.4784 32.298h-83.529z" fill="#fff" stroke="#000"/><path d="m122.598 51.0093c3.075 0 5.231-1.3579 6.429-4.3132 1.199 2.9553 3.355 4.3132 6.43 4.3132 3.934 0 6.71-2.7357 6.71-7.1288 0-.5791-.04-2.2364-.12-3.2748l-.839-10.4834c-.659-8.1671-5.351-12.4603-12.181-12.4603-6.829 0-11.521 4.2932-12.18 12.4603l-.839 10.4834c-.08 1.0384-.12 2.6957-.12 3.2748 0 4.3931 2.776 7.1288 6.71 7.1288zm-4.713-7.1288c0-.5591.04-2.1366.12-3.115l.839-10.4835c.559-7.0688 4.353-10.6232 10.183-10.6232 5.831 0 9.625 3.5544 10.184 10.6232l.839 10.4835c.08.9784.12 2.5559.12 3.115 0 3.2749-1.877 5.1319-4.713 5.1319-2.775 0-4.353-1.3379-5.132-4.8922-.159-.6989-.239-1.3779-.299-2.556.679 0 1.398-.1198 1.797-.1997.639-.1198 1.038-.3994 1.038-1.0583 0-.5591-.299-.9186-.958-.9186-.16 0-.379.02-.799.0599-.659.0599-1.497.0999-2.077.0999-.579 0-1.417-.04-2.076-.0999-.42-.0399-.639-.0599-.799-.0599-.659 0-.958.3595-.958.9186 0 .6589.399.9385 1.038 1.0583.399.0799 1.118.1997 1.797.1997-.06 1.1781-.14 1.8571-.299 2.556-.779 3.5543-2.357 4.8922-5.132 4.8922-2.836 0-4.713-1.857-4.713-5.1319zm7.309-11.6815c0 .5791.299.9385.958.9385.16 0 .379-.0199.799-.0599.659-.0599 1.497-.0998 2.076-.0998.58 0 1.418.0399 2.077.0998.42.04.639.0599.799.0599.659 0 .958-.3594.958-.9385 0-.659-.399-.9185-1.038-1.0384-.399-.0798-1.118-.1797-1.797-.1797v-2.0367c0-.6191-.3-1.0783-.999-1.0783-.698 0-.998.4592-.998 1.0783v2.0367c-.679 0-1.398.0999-1.797.1797-.639.1199-1.038.3794-1.038 1.0384zm27.396 18.9101c1.797 0 3.275-.639 4.273-1.3778 1.139.8586 2.676 1.3778 4.194 1.3778 4.213 0 7.168-2.9553 7.168-6.949v-8.227c0-6.949-4.892-11.5817-12.12-11.5817-7.009 0-12.84 3.6942-12.84 8.9658 0 1.6374.599 2.9753 1.597 3.8939-.818 1.2979-1.258 2.6558-1.258 4.5328 0 5.4913 3.914 9.3652 8.986 9.3652zm-7.328-17.7919c0-3.9337 4.732-6.9689 10.843-6.9689 6.15 0 10.124 3.774 10.124 9.5848v8.227c0 2.8954-2.057 4.9522-5.172 4.9522-.999 0-2.137-.3595-2.656-.7389.859-.9784 1.957-2.7356 2.256-3.754.04-.1997.08-.3395.08-.4593 0-.5791-.479-.9186-.958-.9186-.38 0-.739.0999-1.039.7988-1.178 2.7956-3.234 5.072-6.15 5.072-3.974 0-6.989-2.9953-6.989-7.3684 0-1.4777.32-2.4561.939-3.4346.878.3994 2.017.5791 3.035.5791 3.175 0 5.631-2.6158 5.631-5.1518 0-.8187-.399-1.2181-.958-1.2181-.599 0-.919.2796-1.019 1.0983-.219 1.9569-1.737 3.2748-3.674 3.2748-2.256 0-4.293-1.0783-4.293-3.5744zm10.024 8.247c0 .619.299 1.0783.998 1.0783s.999-.4593.999-1.0783v-2.0368c0-.619-.3-1.0783-.999-1.0783s-.998.4593-.998 1.0783z" fill="#000"/><path d="m125.071 88.1586c2.299 0 3.922-1.6386 3.922-3.9644 0-2.3311-1.623-3.9644-3.922-3.9644s-3.922 1.6333-3.922 3.9644c0 2.3258 1.623 3.9644 3.922 3.9644zm0-1.3743c-1.459 0-2.511-1.0572-2.511-2.5901 0-1.5382 1.052-2.5901 2.511-2.5901 1.464 0 2.511 1.0519 2.511 2.5901 0 1.5329-1.047 2.5901-2.511 2.5901zm10.757-4.7203c-.376 0-.645.2749-.645.6713v2.6218c0 .962-.577 1.6174-1.523 1.6174-.851 0-1.374-.4968-1.374-1.5276v-2.7169c0-.3753-.264-.666-.64-.666-.375 0-.65.2854-.65.666v2.9389c0 1.5964.941 2.4897 2.374 2.4897.798 0 1.453-.2907 1.813-.8299v.1216c0 .3911.269.6713.645.6713.375 0 .644-.2802.644-.6713v-4.715c0-.3912-.269-.6713-.644-.6713zm6.585 4.3714c-.195 0-.343.0951-.465.1903-.206.1638-.407.296-.671.296-.396 0-.655-.2537-.655-.7559v-2.8121h1.532c.349 0 .603-.2431.603-.5867 0-.3383-.254-.5814-.603-.5814h-1.532v-.9991c0-.3911-.265-.666-.64-.666-.381 0-.65.2749-.65.666v.9991h-.793c-.354 0-.608.2431-.608.5814 0 .3436.254.5867.608.5867h.793v2.9918c0 1.1206.761 1.8131 1.786 1.8131.571 0 1.126-.2167 1.459-.5233.228-.2062.344-.4387.344-.6766 0-.3066-.212-.5233-.508-.5233zm2.934 1.6862c.375 0 .64-.2802.64-.6713v-6.5175c0-.3911-.265-.666-.64-.666-.381 0-.65.2749-.65.666v6.5175c0 .3911.269.6713.65.6713zm3.652-6.7606c.465 0 .798-.3436.798-.7982 0-.4493-.333-.7929-.798-.7929s-.809.3436-.809.7929c0 .4546.344.7982.809.7982zm-.005 6.7606c.375 0 .64-.2802.64-.6713v-4.715c0-.3964-.265-.6713-.64-.6713-.381 0-.65.2749-.65.6713v4.715c0 .3911.269.6713.65.6713zm6.11-6.0946c-.798 0-1.453.2907-1.813.8246v-.1163c0-.3964-.264-.6713-.639-.6713-.381 0-.651.2749-.651.6713v4.715c0 .3911.27.6713.651.6713.375 0 .639-.2802.639-.6713v-2.6218c0-.9673.582-1.6175 1.528-1.6175.845 0 1.369.4969 1.369 1.5276v2.7117c0 .3806.264.6713.645.6713.375 0 .645-.2855.645-.6713v-2.939c0-1.591-.941-2.4843-2.374-2.4843zm9.292 4.1282c-.222 0-.396.1005-.576.2538-.333.3805-.777.5603-1.39.5603-1.041 0-1.749-.5762-1.845-1.4854h3.774c.455 0 .688-.2325.688-.7294 0-1.591-1.163-2.7275-2.828-2.7275-1.734 0-2.939 1.2316-2.939 3.0499 0 1.8818 1.226 3.0817 3.103 3.0817.925 0 1.876-.3277 2.32-.9726.111-.1533.19-.333.19-.5127 0-.3119-.153-.5181-.497-.5181zm-2.225-3.0763c.893 0 1.496.5021 1.591 1.3637h-3.177c.09-.8404.709-1.3637 1.586-1.3637z" fill="#000"/><path d="m166.823 1.20605 17.819 17.81965h-17.819z" stroke="#000" stroke-linecap="round" stroke-linejoin="round"/><path d="m205.113 65.8018h83.5294v34.5255h-83.5294z" fill="#fff" stroke="#000"/><path d="m205.113 1.20605h65.71l17.819 17.81965v14.4784 32.298h-83.529z" fill="#fff" stroke="#000"/><path d="m226.598 55.0029c3.075 0 5.231-1.3578 6.429-4.3131 1.199 2.9154 3.335 4.3131 6.43 4.3131 3.934 0 6.71-2.7356 6.71-7.1287 0-.5791-.04-2.2364-.12-3.2748l-.839-10.4834c-.439-5.3715-2.616-9.0657-5.99-10.9627-2.097-3.6143-5.691-5.4913-10.184-5.4913-6.829 0-11.522 4.2932-12.181 12.4603l-.839 10.4834c-.08 1.0384-.119 2.6957-.119 3.2748 0 3.4546 1.737 5.9307 4.433 6.7893.918 2.7157 3.254 4.3331 6.27 4.3331zm-8.707-11.1224c0-.5591.04-2.1366.12-3.115l.839-10.4835c.559-7.0688 4.353-10.6232 10.184-10.6232s9.625 3.5544 10.184 10.6232l.838 10.4835c.08.9784.12 2.5559.12 3.115 0 3.2749-1.877 5.1319-4.712 5.1319-2.776 0-4.354-1.3379-5.132-4.8922-.16-.6989-.24-1.3779-.3-2.556.679 0 1.398-.1198 1.797-.1997.639-.1198 1.039-.3994 1.039-1.0583 0-.5591-.3-.9186-.959-.9186-.16 0-.379.02-.799.0599-.658.0599-1.497.0999-2.076.0999s-1.418-.04-2.077-.0999c-.419-.0399-.639-.0599-.799-.0599-.659 0-.958.3595-.958.9186 0 .6589.399.9385 1.038 1.0583.4.0799 1.118.1997 1.797.1997-.06 1.1781-.139 1.8571-.299 2.556-.779 3.5543-2.356 4.8922-5.132 4.8922-2.836 0-4.713-1.857-4.713-5.1319zm7.309-11.6815c0 .5791.299.9385.958.9385.16 0 .38-.0199.799-.0599.659-.0599 1.498-.0998 2.077-.0998s1.418.0399 2.076.0998c.42.04.639.0599.799.0599.659 0 .959-.3594.959-.9385 0-.659-.4-.9185-1.039-1.0384-.399-.0798-1.118-.1797-1.797-.1797v-2.0367c0-.6191-.299-1.0783-.998-1.0783s-.999.4592-.999 1.0783v2.0367c-.679 0-1.397.0999-1.797.1797-.639.1199-1.038.3794-1.038 1.0384zm35.384 22.9038c1.657 0 3.115-.5192 4.273-1.3778 1.038.8586 2.716 1.3778 4.193 1.3778 4.214 0 7.169-2.9553 7.169-6.949v-8.227c0-4.4929-2.057-8.0273-5.471-9.9643-1.957-3.4944-5.771-5.6111-10.643-5.6111-7.009 0-12.84 3.6942-12.84 8.9658 0 1.6175.599 2.9554 1.597 3.8939-.798 1.278-1.258 2.6757-1.258 4.5328 0 3.9138 2.017 7.0289 5.012 8.4666 1.458 2.9953 4.433 4.8923 7.968 4.8923zm-11.322-21.7856c0-3.9337 4.732-6.9689 10.843-6.9689 6.15 0 10.124 3.774 10.124 9.5848v8.227c0 2.8954-2.057 4.9522-5.172 4.9522-.999 0-2.137-.3595-2.656-.7389.859-.9784 1.957-2.7356 2.256-3.754.04-.1997.08-.3395.08-.4593 0-.5791-.479-.9186-.958-.9186-.38 0-.739.0999-1.039.7988-1.178 2.7956-3.234 5.072-6.15 5.072-3.974 0-6.989-2.9953-6.989-7.3684 0-1.4777.32-2.4561.939-3.4346.878.3994 2.017.5791 3.035.5791 3.175 0 5.631-2.6158 5.631-5.1518 0-.8187-.399-1.2181-.958-1.2181-.599 0-.919.2796-1.019 1.0983-.219 1.9569-1.737 3.2748-3.674 3.2748-2.256 0-4.293-1.0783-4.293-3.5744zm10.024 8.247c0 .619.299 1.0783.998 1.0783s.999-.4593.999-1.0783v-2.0368c0-.619-.3-1.0783-.999-1.0783s-.998.4593-.998 1.0783z" fill="#000"/><path d="m228.069 88.1586c1.771 0 2.918-.9092 2.918-2.3734 0-1.3161-.745-1.887-2.067-2.1619l-1.279-.2696c-.708-.1427-1.099-.3435-1.099-.9461 0-.5656.507-.8722 1.321-.8722.909 0 1.607.3964 1.908.9409.169.2061.386.3013.629.3013.376 0 .592-.2855.592-.6607 0-.4546-.285-.9674-.766-1.2739-.513-.333-1.279-.6132-2.241-.6132-1.766 0-2.865.8933-2.865 2.2888 0 1.258.708 1.8976 2.072 2.1672l1.305.259c.725.1374 1.068.4123 1.068.9567 0 .592-.502.9462-1.416.9462-1.015 0-1.718-.3859-2.125-1.0942-.117-.1744-.302-.259-.492-.259-.359 0-.634.3013-.634.6713 0 .4493.269.962.724 1.295.592.4388 1.369.6978 2.447.6978zm8.198-6.1316c-.798 0-1.453.2907-1.813.8246v-1.9241c0-.3911-.264-.666-.639-.666-.381 0-.65.2749-.65.666v6.5175c0 .3911.269.666.65.666.375 0 .639-.2749.639-.666v-2.6165c0-.9673.582-1.6175 1.528-1.6175.846 0 1.369.4969 1.369 1.5276v2.7117c0 .3806.264.6713.645.6713.375 0 .645-.2855.645-.6713v-2.939c0-1.591-.941-2.4843-2.374-2.4843zm10.133 4.5564c-.116 0-.19.0423-.28.1427-.085.1057-.174.1692-.301.1692-.217 0-.317-.1322-.317-.4018v-2.4685c0-1.3003-.836-1.998-2.289-1.998-.983 0-1.787.3489-2.289.9726-.174.2009-.275.4176-.275.6449 0 .296.217.4915.529.4915.211 0 .375-.1057.623-.3435.355-.3965.841-.6343 1.401-.6343.635 0 1.015.2854 1.015.7506 0 .3118-.143.444-.613.5444l-1.295.2854c-1.121.2485-1.665.8141-1.665 1.7179 0 1.0255.787 1.6862 1.993 1.6862.724 0 1.342-.2696 1.739-.74.211.4599.629.7294 1.178.7294.407 0 .777-.2167.994-.5074.148-.1956.217-.3753.217-.592 0-.259-.153-.4493-.365-.4493zm-3.451.481c-.566 0-.941-.2801-.941-.6977 0-.407.29-.666.925-.7982l.66-.1374c.296-.0635.497-.1533.629-.2643v.7083c0 .6766-.549 1.1893-1.273 1.1893zm10.122-6.7976c-.381 0-.645.2749-.645.6713v1.9346c-.439-.5497-1.115-.8457-1.914-.8457-1.633 0-2.849 1.2316-2.849 3.0658 0 1.8289 1.216 3.0658 2.849 3.0658.82 0 1.465-.259 1.914-.8193v.111c0 .3911.264.6713.645.6713.375 0 .645-.2802.645-.6713v-6.5122c0-.3964-.27-.6713-.645-.6713zm-2.347 6.6972c-.973 0-1.734-.7189-1.734-1.8712 0-1.1576.761-1.8712 1.734-1.8712 1.041 0 1.734.8246 1.734 1.8712s-.693 1.8712-1.734 1.8712zm9.974-.8088c-.222 0-.396.1005-.576.2538-.333.3805-.777.5603-1.39.5603-1.042 0-1.75-.5762-1.845-1.4854h3.774c.455 0 .687-.2325.687-.7294 0-1.591-1.163-2.7275-2.828-2.7275-1.734 0-2.939 1.2316-2.939 3.0499 0 1.8818 1.227 3.0817 3.103 3.0817.925 0 1.877-.3277 2.321-.9726.111-.1533.19-.333.19-.5127 0-.3119-.153-.5181-.497-.5181zm-2.225-3.0763c.893 0 1.496.5021 1.591 1.3637h-3.177c.09-.8404.708-1.3637 1.586-1.3637zm9.641-2.8121c-.381 0-.645.2749-.645.6713v1.9346c-.439-.5497-1.115-.8457-1.914-.8457-1.633 0-2.849 1.2316-2.849 3.0658 0 1.8289 1.216 3.0658 2.849 3.0658.82 0 1.465-.259 1.914-.8193v.111c0 .3911.264.6713.645.6713.375 0 .645-.2802.645-.6713v-6.5122c0-.3964-.27-.6713-.645-.6713zm-2.347 6.6972c-.973 0-1.734-.7189-1.734-1.8712 0-1.1576.761-1.8712 1.734-1.8712 1.041 0 1.734.8246 1.734 1.8712s-.693 1.8712-1.734 1.8712z" fill="#000"/><path d="m270.823 1.20605 17.819 17.81965h-17.819z" stroke="#000" stroke-linecap="round" stroke-linejoin="round"/><path d="m306.113 65.8018h83.5294v34.5255h-83.5294z" fill="#fff" stroke="#000"/><path d="m306.113 1.20605h65.71l17.819 17.81965v14.4784 32.298h-83.529z" fill="#fff" stroke="#000"/><path d="m329.594 49.0124c2.776 0 4.354-1.3379 5.132-4.8922.16-.6989.24-1.3779.3-2.556-.679 0-1.398-.1198-1.797-.1997-.639-.1198-1.039-.3994-1.039-1.0583 0-.5591.3-.9186.959-.9186.16 0 .379.02.799.0599.659.0599 1.497.0999 2.076.0999s1.418-.04 2.077-.0999c.419-.0399.639-.0599.799-.0599.659 0 .958.3595.958.9186 0 .6589-.399.9385-1.038 1.0583-.399.0799-1.118.1997-1.797.1997.06 1.1781.14 1.8571.299 2.556.779 3.5543 2.357 4.8922 5.132 4.8922 2.836 0 4.713-1.857 4.713-5.1319 0-.5591-.04-2.1366-.12-3.115l-.839-10.4835c-.559-7.0688-4.353-10.6232-10.184-10.6232-5.83 0-9.624 3.5544-10.184 10.6232l-.838 10.4835c-.08.9784-.12 2.5559-.12 3.115 0 3.2749 1.877 5.1319 4.712 5.1319zm-1.717-21.3462c0-.1997.02-.4393.1-.7189.679-2.3363 2.356-4.413 4.533-5.0919.279-.0799.519-.0999.739-.0999.519.02.898.4793.918.9385.02.5392-.299.8587-.838 1.0184-1.977.5791-2.996 2.1966-3.515 4.1535-.12.4592-.459.7787-.978.7787-.559 0-.959-.4193-.959-.9784zm4.313 4.5328c0-.659.4-.9185 1.039-1.0384.399-.0798 1.118-.1797 1.797-.1797v-2.0367c0-.6191.299-1.0783.998-1.0783s.999.4592.999 1.0783v2.0367c.679 0 1.398.0999 1.797.1797.639.1199 1.038.3794 1.038 1.0384 0 .5791-.299.9385-.958.9385-.16 0-.38-.0199-.799-.0599-.659-.0599-1.498-.0998-2.077-.0998s-1.417.0399-2.076.0998c-.42.04-.639.0599-.799.0599-.659 0-.959-.3594-.959-.9385zm23.403 16.9133c2.916 0 4.972-2.2764 6.151-5.072.299-.6989.659-.7988 1.038-.7988.479 0 .958.3395.958.9186 0 .1198-.039.2596-.079.4593-.3 1.0184-1.398 2.7756-2.257 3.754.519.3794 1.658.7389 2.656.7389 3.115 0 5.172-2.0568 5.172-4.9522v-8.227c0-5.8108-3.974-9.5848-10.124-9.5848-6.111 0-10.843 3.0352-10.843 6.9689 0 2.4961 2.037 3.5744 4.293 3.5744 1.937 0 3.455-1.3179 3.674-3.2748.1-.8187.42-1.0983 1.019-1.0983.559 0 .958.3994.958 1.2181 0 2.536-2.456 5.1518-5.631 5.1518-1.018 0-2.156-.1797-3.035-.5791-.619.9785-.939 1.9569-.939 3.4346 0 4.3731 3.016 7.3684 6.989 7.3684zm-5.072-17.4524c0-.3195.16-.639.46-.9585.838-.9186 2.416-1.7772 3.674-2.0967.339-.0999.519-.1198.659-.1198.579 0 1.018.3594 1.018.9585 0 .4792-.379.9185-.858 1.0184-1.139.2396-2.377.9185-3.096 1.7172-.219.2397-.579.4393-.898.4393-.559 0-.959-.4393-.959-.9584zm7.768 9.9043v-2.0368c0-.619.3-1.0783.999-1.0783.698 0 .998.4593.998 1.0783v2.0368c0 .619-.3 1.0783-.998 1.0783-.699 0-.999-.4593-.999-1.0783z" fill="#000"/><path d="m337.119 83.7396c-.364 0-.666.2326-.666.6502 0 .3647.302.6396.666.6396h2.257c-.047 1.0888-.845 1.7813-2.14 1.7813-1.544 0-2.559-1.0889-2.559-2.6112 0-1.5329 1.031-2.6271 2.522-2.6271.999 0 1.654.407 2.072.9726.227.2062.412.2854.655.2854.317 0 .619-.2114.619-.6078 0-.4282-.355-.9303-.83-1.2686-.592-.4176-1.417-.7242-2.474-.7242-2.305 0-3.975 1.6386-3.975 3.9802 0 2.3311 1.591 3.9486 3.933 3.9486 2.125 0 3.573-1.3162 3.573-3.6208v-.1057c0-.4599-.317-.6925-.719-.6925zm6.37 4.382c.375 0 .639-.2802.639-.6713v-6.5175c0-.3911-.264-.666-.639-.666-.381 0-.651.2749-.651.666v6.5175c0 .3911.27.6713.651.6713zm5.608.037c1.807 0 3.102-1.2263 3.102-3.0658 0-1.8448-1.295-3.0658-3.102-3.0658-1.803 0-3.098 1.221-3.098 3.0658 0 1.8395 1.295 3.0658 3.098 3.0658zm0-1.1946c-1.036 0-1.771-.7559-1.771-1.8712s.735-1.8712 1.771-1.8712 1.77.7559 1.77 1.8712-.734 1.8712-1.77 1.8712zm13.288-4.9106c-.317 0-.555.185-.634.4916l-1.279 4.1388-1.364-3.9062c-.127-.3912-.349-.7347-.888-.7347-.534 0-.756.3435-.888.7347l-1.359 3.8904-1.284-4.123c-.079-.3119-.312-.4916-.634-.4916-.376 0-.651.2485-.651.6026 0 .0846.016.185.048.296l1.321 4.123c.17.5814.492 1.0836 1.121 1.0836.576 0 .925-.4123 1.147-1.0836l1.179-3.4411 1.179 3.4411c.232.6977.597 1.0836 1.141 1.0836.624 0 .952-.481 1.126-1.0836l1.322-4.123c.037-.111.053-.2114.053-.296 0-.3541-.281-.6026-.656-.6026z" fill="#000"/><path d="m371.823 1.20605 17.819 17.81965h-17.819z" stroke="#000" stroke-linecap="round" stroke-linejoin="round"/><path d="m407.113 65.8018h83.5294v34.5255h-83.5294z" fill="#fff" stroke="#000"/><path d="m407.113 1.20605h65.71l17.819 17.81965v14.4784 32.298h-83.529z" fill="#fff" stroke="#000"/><path d="m428.598 55.0029c3.075 0 5.231-1.3578 6.429-4.3131 1.199 2.9154 3.335 4.3131 6.43 4.3131 3.934 0 6.71-2.7356 6.71-7.1287 0-.5791-.04-2.2364-.12-3.2748l-.839-10.4834c-.439-5.3715-2.616-9.0657-5.99-10.9627-2.097-3.6143-5.691-5.4913-10.184-5.4913-6.829 0-11.522 4.2932-12.181 12.4603l-.839 10.4834c-.08 1.0384-.119 2.6957-.119 3.2748 0 3.4546 1.737 5.9307 4.433 6.7893.918 2.7157 3.254 4.3331 6.27 4.3331zm-8.707-11.1224c0-.5591.04-2.1366.12-3.115l.839-10.4835c.559-7.0688 4.353-10.6232 10.184-10.6232s9.625 3.5544 10.184 10.6232l.838 10.4835c.08.9784.12 2.5559.12 3.115 0 3.2749-1.877 5.1319-4.712 5.1319-2.776 0-4.354-1.3379-5.132-4.8922-.16-.6989-.24-1.3779-.3-2.556.679 0 1.398-.1198 1.797-.1997.639-.1198 1.039-.3994 1.039-1.0583 0-.5591-.3-.9186-.959-.9186-.16 0-.379.02-.799.0599-.658.0599-1.497.0999-2.076.0999s-1.418-.04-2.077-.0999c-.419-.0399-.639-.0599-.799-.0599-.659 0-.958.3595-.958.9186 0 .6589.399.9385 1.038 1.0583.4.0799 1.118.1997 1.797.1997-.06 1.1781-.139 1.8571-.299 2.556-.779 3.5543-2.356 4.8922-5.132 4.8922-2.836 0-4.713-1.857-4.713-5.1319zm3.115-16.2143c0 .5591.4.9784.959.9784.519 0 .859-.3195.978-.7787.52-1.9569 1.538-3.5744 3.515-4.1535.539-.1597.858-.4792.839-1.0184-.02-.4592-.4-.9185-.919-.9385-.22 0-.459.02-.739.0999-2.176.6789-3.854 2.7556-4.533 5.0919-.08.2796-.1.5192-.1.7189zm4.194 4.5328c0 .5791.299.9385.958.9385.16 0 .38-.0199.799-.0599.659-.0599 1.498-.0998 2.077-.0998s1.418.0399 2.076.0998c.42.04.639.0599.799.0599.659 0 .959-.3594.959-.9385 0-.659-.4-.9185-1.039-1.0384-.399-.0798-1.118-.1797-1.797-.1797v-2.0367c0-.6191-.299-1.0783-.998-1.0783s-.999.4592-.999 1.0783v2.0367c-.679 0-1.397.0999-1.797.1797-.639.1199-1.038.3794-1.038 1.0384zm35.384 22.9038c1.657 0 3.115-.5192 4.273-1.3778 1.038.8586 2.716 1.3778 4.193 1.3778 4.214 0 7.169-2.9553 7.169-6.949v-8.227c0-4.4929-2.057-8.0273-5.471-9.9643-1.957-3.4944-5.771-5.6111-10.643-5.6111-7.009 0-12.84 3.6942-12.84 8.9658 0 1.6175.599 2.9554 1.597 3.8939-.798 1.278-1.258 2.6757-1.258 4.5328 0 3.9138 2.017 7.0289 5.012 8.4666 1.458 2.9953 4.433 4.8923 7.968 4.8923zm-11.322-21.7856c0-3.9337 4.732-6.9689 10.843-6.9689 6.15 0 10.124 3.774 10.124 9.5848v8.227c0 2.8954-2.057 4.9522-5.172 4.9522-.999 0-2.137-.3595-2.656-.7389.859-.9784 1.957-2.7356 2.256-3.754.04-.1997.08-.3395.08-.4593 0-.5791-.479-.9186-.958-.9186-.38 0-.739.0999-1.039.7988-1.178 2.7956-3.234 5.072-6.15 5.072-3.974 0-6.989-2.9953-6.989-7.3684 0-1.4777.32-2.4561.939-3.4346.878.3994 2.017.5791 3.035.5791 3.175 0 5.631-2.6158 5.631-5.1518 0-.8187-.399-1.2181-.958-1.2181-.599 0-.919.2796-1.019 1.0983-.219 1.9569-1.737 3.2748-3.674 3.2748-2.256 0-4.293-1.0783-4.293-3.5744zm2.256-1.6573c0 .5191.4.9584.959.9584.319 0 .679-.1996.898-.4393.719-.7987 1.957-1.4776 3.095-1.7172.48-.0999.859-.5392.859-1.0184 0-.5991-.439-.9585-1.018-.9585-.14 0-.32.0199-.659.1198-1.258.3195-2.836 1.1781-3.675 2.0967-.299.3195-.459.639-.459.9585zm7.768 9.9043c0 .619.299 1.0783.998 1.0783s.999-.4593.999-1.0783v-2.0368c0-.619-.3-1.0783-.999-1.0783s-.998.4593-.998 1.0783z" fill="#000"/><path d="m431.932 88.1586c1.264 0 2.252-.4176 2.945-1.2211.259-.3012.449-.7347.449-1.0254 0-.37-.285-.666-.64-.666-.222 0-.438.1004-.645.37-.449.7559-1.125 1.1682-2.098 1.1682-1.432 0-2.431-1.0731-2.431-2.5848 0-1.5223.999-2.5954 2.431-2.5954.973 0 1.654.4018 2.098 1.1629.201.2749.423.3753.645.3753.355 0 .64-.3013.64-.6713 0-.3119-.201-.7453-.476-1.0624-.687-.7929-1.67-1.1788-2.918-1.1788-2.257 0-3.832 1.628-3.832 3.9697 0 2.3363 1.575 3.9591 3.832 3.9591zm7.977 0c1.807 0 3.102-1.2263 3.102-3.0658 0-1.8448-1.295-3.0658-3.102-3.0658-1.803 0-3.098 1.221-3.098 3.0658 0 1.8395 1.295 3.0658 3.098 3.0658zm0-1.1946c-1.036 0-1.771-.7559-1.771-1.8712s.735-1.8712 1.771-1.8712 1.77.7559 1.77 1.8712-.734 1.8712-1.77 1.8712zm11.951-4.937c-1.021 0-1.692.3859-2.051.999-.386-.6501-1.063-.999-1.919-.999-.756 0-1.374.2907-1.723.814v-.1057c0-.3964-.265-.6713-.64-.6713-.38 0-.65.2749-.65.6713v4.715c0 .3911.27.6713.65.6713.375 0 .64-.2802.64-.6713v-2.6218c0-.9673.544-1.6175 1.432-1.6175.793 0 1.279.4969 1.279 1.5276v2.7117c0 .3806.265.6713.645.6713.376 0 .645-.2855.645-.6713v-2.6218c0-.9673.545-1.6175 1.433-1.6175.793 0 1.279.4969 1.279 1.5276v2.7117c0 .3806.264.6713.645.6713.375 0 .645-.2855.645-.6713v-2.939c0-1.591-.931-2.4843-2.31-2.4843zm7.838 0c-.798 0-1.48.296-1.918.851v-1.9399c0-.3964-.265-.6713-.64-.6713-.381 0-.65.2749-.65.6713v6.5122c0 .3911.269.6713.65.6713.375 0 .64-.2802.64-.6713v-.111c.454.5603 1.099.8193 1.918.8193 1.628 0 2.849-1.2369 2.849-3.0658 0-1.8342-1.221-3.0658-2.849-3.0658zm-.216 4.937c-1.042 0-1.729-.8246-1.729-1.8712s.687-1.8712 1.729-1.8712c.978 0 1.733.7136 1.733 1.8712 0 1.1523-.755 1.8712-1.733 1.8712zm7.516 1.1946c1.808 0 3.103-1.2263 3.103-3.0658 0-1.8448-1.295-3.0658-3.103-3.0658-1.803 0-3.098 1.221-3.098 3.0658 0 1.8395 1.295 3.0658 3.098 3.0658zm0-1.1946c-1.036 0-1.771-.7559-1.771-1.8712s.735-1.8712 1.771-1.8712 1.771.7559 1.771 1.8712-.735 1.8712-1.771 1.8712z" fill="#000"/><path d="m472.823 1.20605 17.819 17.81965h-17.819z" stroke="#000" stroke-linecap="round" stroke-linejoin="round"/><path d="m2.11267 182.596h83.5294v34.5255h-83.5294z" fill="#fff" stroke="#000"/><path d="m2.11267 118h65.70983l17.8196 17.82v14.478 32.298h-83.52943z" fill="#fff" stroke="#000"/><path d="m39.4719 197.267c-.4545 0-.6818.211-.9514.708l-2.2412 4.25-2.2412-4.25c-.259-.481-.481-.708-.9462-.708-.4968 0-.8616.333-.8616.93v6.206c0 .417.2908.719.6766.719.3912 0 .6819-.312.6819-.719v-4.647l1.7972 3.463c.2907.549.4863.777.8933.777s.5973-.228.8933-.777l1.8025-3.463v4.647c0 .407.2854.719.6766.719.3911 0 .6818-.302.6818-.719v-6.206c0-.597-.3647-.93-.8616-.93zm3.9325 1.094c.4652 0 .7982-.344.7982-.798 0-.449-.333-.793-.7982-.793s-.8087.344-.8087.793c0 .454.3435.798.8087.798zm-.0053 6.761c.3753 0 .6396-.281.6396-.672v-4.715c0-.396-.2643-.671-.6396-.671-.3806 0-.6501.275-.6501.671v4.715c0 .391.2695.672.6501.672zm7.9021-7.855c-.3805 0-.6448.275-.6448.671v1.935c-.4388-.55-1.1153-.846-1.9135-.846-1.6333 0-2.8491 1.232-2.8491 3.066 0 1.829 1.2158 3.066 2.8491 3.066.8193 0 1.4642-.259 1.9135-.82v.111c0 .391.2643.672.6448.672.3753 0 .6449-.281.6449-.672v-6.512c0-.396-.2696-.671-.6449-.671zm-2.3469 6.697c-.9726 0-1.7337-.719-1.7337-1.871 0-1.158.7611-1.871 1.7337-1.871 1.0413 0 1.7338.824 1.7338 1.871 0 1.046-.6925 1.871-1.7338 1.871zm6.0045-5.603c.4652 0 .7982-.344.7982-.798 0-.449-.333-.793-.7982-.793-.4651 0-.8087.344-.8087.793 0 .454.3436.798.8087.798zm-.0052 6.761c.3752 0 .6395-.281.6395-.672v-4.715c0-.396-.2643-.671-.6395-.671-.3806 0-.6502.275-.6502.671v4.715c0 .391.2696.672.6502.672z" fill="#000"/><path d="m67.8225 118 17.8196 17.82h-17.8196z" stroke="#000" stroke-linecap="round" stroke-linejoin="round"/><path d="m102.113 182.596h83.5294v34.5255h-83.5294z" fill="#fff" stroke="#000"/><path d="m102.113 118h65.709l17.82 17.82v14.478 32.298h-83.529z" fill="#fff" stroke="#000"/><path d="m125.948 205.159c2.3 0 3.923-1.639 3.923-3.965 0-2.331-1.623-3.964-3.923-3.964-2.299 0-3.922 1.633-3.922 3.964 0 2.326 1.623 3.965 3.922 3.965zm0-1.375c-1.458 0-2.51-1.057-2.51-2.59 0-1.538 1.052-2.59 2.51-2.59 1.465 0 2.511 1.052 2.511 2.59 0 1.533-1.046 2.59-2.511 2.59zm10.757-4.72c-.375 0-.645.275-.645.671v2.622c0 .962-.576 1.618-1.522 1.618-.851 0-1.375-.497-1.375-1.528v-2.717c0-.375-.264-.666-.639-.666s-.65.285-.65.666v2.939c0 1.596.941 2.49 2.373 2.49.798 0 1.454-.291 1.813-.83v.121c0 .391.27.672.645.672s.645-.281.645-.672v-4.715c0-.391-.27-.671-.645-.671zm6.586 4.371c-.196 0-.344.096-.465.191-.206.164-.407.296-.672.296-.396 0-.655-.254-.655-.756v-2.812h1.533c.349 0 .602-.243.602-.587 0-.338-.253-.581-.602-.581h-1.533v-.999c0-.392-.264-.666-.64-.666-.38 0-.65.274-.65.666v.999h-.793c-.354 0-.608.243-.608.581 0 .344.254.587.608.587h.793v2.992c0 1.12.761 1.813 1.787 1.813.571 0 1.126-.217 1.459-.524.227-.206.343-.438.343-.676 0-.307-.211-.524-.507-.524zm2.933 1.687c.376 0 .64-.281.64-.672v-6.517c0-.391-.264-.666-.64-.666-.38 0-.65.275-.65.666v6.517c0 .391.27.672.65.672zm3.653-6.761c.465 0 .798-.344.798-.798 0-.449-.333-.793-.798-.793-.466 0-.809.344-.809.793 0 .454.343.798.809.798zm-.006 6.761c.376 0 .64-.281.64-.672v-4.715c0-.396-.264-.671-.64-.671-.38 0-.65.275-.65.671v4.715c0 .391.27.672.65.672zm6.111-6.095c-.799 0-1.454.291-1.814.825v-.117c0-.396-.264-.671-.639-.671-.381 0-.65.275-.65.671v4.715c0 .391.269.672.65.672.375 0 .639-.281.639-.672v-2.622c0-.967.582-1.617 1.528-1.617.846 0 1.369.497 1.369 1.528v2.711c0 .381.264.672.645.672.375 0 .645-.286.645-.672v-2.939c0-1.591-.941-2.484-2.373-2.484zm9.292 4.128c-.222 0-.397.101-.576.254-.333.381-.777.56-1.39.56-1.042 0-1.75-.576-1.845-1.485h3.774c.454 0 .687-.233.687-.73 0-1.591-1.163-2.727-2.828-2.727-1.734 0-2.939 1.232-2.939 3.05 0 1.882 1.226 3.082 3.103 3.082.925 0 1.876-.328 2.32-.973.111-.153.191-.333.191-.513 0-.312-.154-.518-.497-.518zm-2.225-3.076c.893 0 1.495.502 1.591 1.364h-3.177c.09-.841.708-1.364 1.586-1.364z" fill="#000"/><path d="m167.822 118 17.82 17.82h-17.82z" stroke="#000" stroke-linecap="round" stroke-linejoin="round"/><path d="m206.113 182.596h83.5294v34.5255h-83.5294z" fill="#fff" stroke="#000"/><path d="m206.113 118h65.71l17.819 17.82v14.478 32.298h-83.529z" fill="#fff" stroke="#000"/><path d="m228.947 205.159c1.77 0 2.917-.91 2.917-2.374 0-1.316-.745-1.887-2.066-2.162l-1.279-.269c-.709-.143-1.1-.344-1.1-.946 0-.566.508-.873 1.322-.873.909 0 1.606.397 1.908.941.169.206.386.302.629.302.375 0 .592-.286.592-.661 0-.455-.286-.967-.767-1.274-.512-.333-1.279-.613-2.241-.613-1.765 0-2.865.893-2.865 2.289 0 1.258.709 1.897 2.072 2.167l1.306.259c.724.137 1.068.412 1.068.957 0 .592-.503.946-1.417.946-1.015 0-1.718-.386-2.125-1.094-.116-.175-.301-.259-.491-.259-.36 0-.635.301-.635.671 0 .449.27.962.724 1.295.592.439 1.369.698 2.448.698zm8.198-6.132c-.798 0-1.454.291-1.813.825v-1.924c0-.392-.264-.666-.64-.666-.38 0-.65.274-.65.666v6.517c0 .391.27.666.65.666.376 0 .64-.275.64-.666v-2.617c0-.967.581-1.617 1.527-1.617.846 0 1.369.497 1.369 1.528v2.711c0 .381.265.672.645.672.376 0 .645-.286.645-.672v-2.939c0-1.591-.941-2.484-2.373-2.484zm10.133 4.556c-.117 0-.191.043-.281.143-.084.106-.174.169-.301.169-.217 0-.317-.132-.317-.401v-2.469c0-1.3-.835-1.998-2.289-1.998-.983 0-1.786.349-2.289.973-.174.2-.274.417-.274.644 0 .296.216.492.528.492.212 0 .375-.106.624-.344.354-.396.84-.634 1.401-.634.634 0 1.015.286 1.015.751 0 .312-.143.444-.614.544l-1.295.286c-1.12.248-1.665.814-1.665 1.718 0 1.025.788 1.686 1.993 1.686.724 0 1.343-.27 1.739-.74.212.46.629.729 1.179.729.407 0 .777-.217.994-.507.148-.196.216-.376.216-.592 0-.259-.153-.45-.364-.45zm-3.452.481c-.566 0-.941-.28-.941-.697 0-.407.291-.666.925-.798l.661-.138c.296-.063.497-.153.629-.264v.708c0 .677-.55 1.189-1.274 1.189zm10.122-6.797c-.38 0-.645.275-.645.671v1.935c-.438-.55-1.115-.846-1.913-.846-1.634 0-2.849 1.232-2.849 3.066 0 1.829 1.215 3.066 2.849 3.066.819 0 1.464-.259 1.913-.82v.111c0 .391.265.672.645.672.375 0 .645-.281.645-.672v-6.512c0-.396-.27-.671-.645-.671zm-2.347 6.697c-.972 0-1.734-.719-1.734-1.871 0-1.158.762-1.871 1.734-1.871 1.042 0 1.734.824 1.734 1.871 0 1.046-.692 1.871-1.734 1.871zm9.974-.809c-.222 0-.396.101-.576.254-.333.381-.777.56-1.39.56-1.041 0-1.75-.576-1.845-1.485h3.774c.455 0 .688-.233.688-.73 0-1.591-1.163-2.727-2.828-2.727-1.734 0-2.939 1.232-2.939 3.05 0 1.882 1.226 3.082 3.102 3.082.926 0 1.877-.328 2.321-.973.111-.153.19-.333.19-.513 0-.312-.153-.518-.497-.518zm-2.225-3.076c.893 0 1.496.502 1.591 1.364h-3.177c.09-.841.709-1.364 1.586-1.364zm9.641-2.812c-.38 0-.645.275-.645.671v1.935c-.438-.55-1.115-.846-1.913-.846-1.633 0-2.849 1.232-2.849 3.066 0 1.829 1.216 3.066 2.849 3.066.819 0 1.464-.259 1.913-.82v.111c0 .391.265.672.645.672.376 0 .645-.281.645-.672v-6.512c0-.396-.269-.671-.645-.671zm-2.347 6.697c-.972 0-1.733-.719-1.733-1.871 0-1.158.761-1.871 1.733-1.871 1.042 0 1.734.824 1.734 1.871 0 1.046-.692 1.871-1.734 1.871z" fill="#000"/><path d="m271.823 118 17.819 17.82h-17.819z" stroke="#000" stroke-linecap="round" stroke-linejoin="round"/><path d="m307.113 182.596h83.5294v34.5255h-83.5294z" fill="#fff" stroke="#000"/><path d="m307.113 118h65.71l17.819 17.82v14.478 32.298h-83.529z" fill="#fff" stroke="#000"/><path d="m337.997 200.74c-.365 0-.666.232-.666.65 0 .364.301.639.666.639h2.257c-.048 1.089-.846 1.782-2.141 1.782-1.543 0-2.558-1.089-2.558-2.612 0-1.532 1.031-2.627 2.521-2.627.999 0 1.655.407 2.072.973.227.206.412.285.656.285.317 0 .618-.211.618-.607 0-.429-.354-.931-.83-1.269-.592-.418-1.416-.724-2.474-.724-2.304 0-3.975 1.638-3.975 3.98 0 2.331 1.591 3.949 3.933 3.949 2.125 0 3.573-1.317 3.573-3.621v-.106c0-.46-.317-.692-.719-.692zm6.369 4.382c.375 0 .64-.281.64-.672v-6.517c0-.391-.265-.666-.64-.666-.381 0-.65.275-.65.666v6.517c0 .391.269.672.65.672zm5.608.037c1.808 0 3.103-1.227 3.103-3.066 0-1.845-1.295-3.066-3.103-3.066-1.802 0-3.097 1.221-3.097 3.066 0 1.839 1.295 3.066 3.097 3.066zm0-1.195c-1.036 0-1.771-.756-1.771-1.871 0-1.116.735-1.871 1.771-1.871s1.771.755 1.771 1.871c0 1.115-.735 1.871-1.771 1.871zm13.289-4.911c-.318 0-.555.185-.635.492l-1.279 4.139-1.364-3.906c-.127-.392-.349-.735-.888-.735-.534 0-.756.343-.888.735l-1.358 3.89-1.285-4.123c-.079-.312-.312-.492-.634-.492-.375 0-.65.249-.65.603 0 .085.016.185.047.296l1.322 4.123c.169.581.492 1.084 1.121 1.084.576 0 .925-.413 1.147-1.084l1.178-3.441 1.179 3.441c.233.698.597 1.084 1.142 1.084.624 0 .951-.481 1.126-1.084l1.321-4.123c.037-.111.053-.211.053-.296 0-.354-.28-.603-.655-.603z" fill="#000"/><path d="m372.823 118 17.819 17.82h-17.819z" stroke="#000" stroke-linecap="round" stroke-linejoin="round"/><path d="m408.113 182.596h83.5294v34.5255h-83.5294z" fill="#fff" stroke="#000"/><path d="m408.113 118h65.709l17.82 17.82v14.478 32.298h-83.529z" fill="#fff" stroke="#000"/><g fill="#000"><path d="m25.8671 165.3c2.8954 0 4.5528-1.338 5.3316-4.893.1797-.818.2396-1.597.2995-2.955-.8986 0-1.8571-.1-2.3962-.2-.3794-.06-.639-.239-.639-.619 0-.339.1797-.559.5791-.559.1398 0 .4792.04.7787.06.7189.08 1.6574.1 2.2764.1.639 0 1.5576-.02 2.2764-.1.3195-.02.639-.06.7788-.06.3994 0 .5791.22.5791.559 0 .38-.2396.559-.639.619-.5192.1-1.4777.2-2.3962.2.0599 1.358.1198 2.137.2995 2.955.7788 3.555 2.4561 4.893 5.3316 4.893 2.9553 0 4.9122-1.858 4.9122-5.132 0-.579-.0399-2.137-.1198-3.115l-.8387-10.484c-.5591-7.069-4.3531-10.623-10.1839-10.623-5.8307 0-9.6247 3.554-10.1839 10.623l-.8386 10.484c-.0799.978-.1198 2.536-.1198 3.115 0 3.274 1.9569 5.132 4.9122 5.132zm2.5959-16.834c0-.399.2596-.559.639-.619.5391-.1 1.4976-.18 2.3962-.18v-2.635c0-.4.1797-.679.599-.679.4194 0 .5991.279.5991.679v2.635c.9185 0 1.877.08 2.3962.18.3994.06.639.22.639.619 0 .34-.1797.559-.5791.559-.1398 0-.4593-.04-.7788-.06-.7188-.08-1.6374-.099-2.2764-.099-.619 0-1.5575.019-2.2764.099-.2995.02-.6389.06-.7787.06-.3994 0-.5791-.219-.5791-.559zm22.8439 16.933c3.2948 0 5.3315-2.316 6.4897-5.231.1797-.42.3994-.5.619-.5.2796 0 .5591.22.5591.58 0 .119-.0399.259-.1198.499-.3993 1.058-1.3179 2.596-2.1765 3.514.5591.659 1.9369 1.138 3.0951 1.138 3.115 0 5.1718-2.056 5.1718-4.952v-8.227c0-5.811-3.9737-9.585-10.124-9.585-6.1103 0-10.8428 3.036-10.8428 6.969 0 2.536 2.0367 3.974 4.2932 3.974 2.1366 0 3.9537-1.577 4.0735-3.854.04-.519.2396-.719.5991-.719.3594 0 .5791.24.5791.819 0 2.496-2.2565 4.952-5.2318 4.952-.8985 0-1.9169-.2-2.6957-.619-.8387 1.098-1.278 2.217-1.278 3.874 0 4.373 3.0152 7.368 6.989 7.368zm3.0951-7.947v-2.436c0-.4.1797-.679.599-.679.4194 0 .5991.279.5991.679v2.436c0 .379-.1797.679-.5991.679-.4193 0-.599-.3-.599-.679z"/><path d="m124.776 166.498c3.135 0 5.172-1.398 6.19-4.773.02-.1.02-.18.04-.299l.06.299c1.018 3.375 3.055 4.773 6.17 4.773 3.614 0 6.11-2.397 6.11-6.33 0-.599-.04-2.197-.119-3.215l-.839-10.484c-.619-7.727-4.932-11.721-11.382-11.721-6.43 0-10.763 3.994-11.382 11.721l-.839 10.484c-.08 1.018-.12 2.616-.12 3.215 0 3.933 2.516 6.33 6.111 6.33zm-4.912-6.33c0-.579.039-2.137.119-3.115l.839-10.484c.559-7.069 4.353-10.623 10.184-10.623s9.625 3.554 10.184 10.623l.838 10.484c.08.978.12 2.536.12 3.115 0 3.274-1.957 5.132-4.912 5.132-2.875 0-4.553-1.338-5.332-4.893-.179-.818-.239-1.597-.299-2.955.919 0 1.877-.1 2.396-.2.4-.06.639-.239.639-.619 0-.339-.18-.559-.579-.559-.14 0-.459.04-.779.06-.719.08-1.637.1-2.276.1-.619 0-1.558-.02-2.276-.1-.3-.02-.639-.06-.779-.06-.4 0-.579.22-.579.559 0 .38.259.559.639.619.539.1 1.497.2 2.396.2-.06 1.358-.12 2.137-.3 2.955-.778 3.555-2.436 4.893-5.331 4.893-2.956 0-4.912-1.858-4.912-5.132zm7.508-11.702c0 .34.179.559.579.559.14 0 .479-.04.779-.06.718-.08 1.657-.099 2.276-.099.639 0 1.557.019 2.276.099.32.02.639.06.779.06.399 0 .579-.219.579-.559 0-.399-.239-.559-.639-.619-.519-.1-1.477-.18-2.396-.18v-2.635c0-.4-.18-.679-.599-.679s-.599.279-.599.679v2.635c-.899 0-1.857.08-2.396.18-.38.06-.639.22-.639.619zm25.24 18.131c1.877 0 3.374-.639 4.453-1.517.938.958 2.556 1.517 4.013 1.517 3.774 0 6.37-2.595 6.37-6.15v-8.227c0-6.49-4.513-10.783-11.322-10.783-6.649 0-12.041 3.415-12.041 8.167 0 1.658.719 3.036 1.817 3.894-.958 1.298-1.477 2.636-1.477 4.533 0 5.032 3.554 8.566 8.187 8.566zm-7.329-16.993c0-3.933 4.733-6.969 10.843-6.969 6.15 0 10.124 3.774 10.124 9.585v8.227c0 2.896-2.057 4.952-5.172 4.952-1.158 0-2.536-.479-3.095-1.138.859-.918 1.777-2.456 2.177-3.514.08-.24.12-.38.12-.499 0-.36-.28-.58-.559-.58-.22 0-.44.08-.62.5-1.158 2.915-3.194 5.231-6.489 5.231-3.974 0-6.989-2.995-6.989-7.368 0-1.657.439-2.776 1.278-3.874.779.419 1.797.619 2.696.619 2.975 0 5.231-2.456 5.231-4.952 0-.579-.219-.819-.579-.819-.359 0-.559.2-.599.719-.12 2.277-1.937 3.854-4.073 3.854-2.257 0-4.294-1.438-4.294-3.974zm10.424 7.848c0 .379.18.679.599.679s.599-.3.599-.679v-2.436c0-.4-.18-.679-.599-.679s-.599.279-.599.679z"/><path d="m228.776 169.094c2.975 0 4.992-1.258 6.05-4.274.999 2.396 2.975 4.274 6.27 4.274 3.754 0 6.25-2.377 6.25-6.33 0-.6-.04-2.197-.119-3.215l-.839-10.484c-.379-4.712-2.157-8.047-4.932-9.904-1.977-2.916-5.132-4.413-9.046-4.413-6.43 0-10.763 3.994-11.382 11.721l-.839 10.484c-.08 1.018-.119 2.616-.119 3.215 0 2.775 1.278 4.792 3.294 5.691.939 2.056 2.916 3.235 5.412 3.235zm-7.508-8.926c0-.579.04-2.137.119-3.115l.839-10.484c.559-7.069 4.353-10.623 10.184-10.623s9.625 3.554 10.184 10.623l.839 10.484c.079.978.119 2.536.119 3.115 0 3.274-1.957 5.132-4.912 5.132-2.875 0-4.553-1.338-5.331-4.893-.18-.818-.24-1.597-.3-2.955.919 0 1.877-.1 2.396-.2.4-.06.639-.239.639-.619 0-.339-.179-.559-.579-.559-.14 0-.459.04-.779.06-.718.08-1.637.1-2.276.1-.619 0-1.558-.02-2.276-.1-.3-.02-.639-.06-.779-.06-.4 0-.579.22-.579.559 0 .38.259.559.639.619.539.1 1.497.2 2.396.2-.06 1.358-.12 2.137-.3 2.955-.778 3.555-2.436 4.893-5.331 4.893-2.955 0-4.912-1.858-4.912-5.132zm7.508-11.702c0 .34.179.559.579.559.14 0 .479-.04.779-.06.718-.08 1.657-.099 2.276-.099.639 0 1.558.019 2.276.099.32.02.639.06.779.06.4 0 .579-.219.579-.559 0-.399-.239-.559-.639-.619-.519-.1-1.477-.18-2.396-.18v-2.635c0-.4-.18-.679-.599-.679s-.599.279-.599.679v2.635c-.899 0-1.857.08-2.396.18-.38.06-.639.22-.639.619zm30.432 20.727c1.797 0 3.294-.579 4.453-1.517.878.958 2.576 1.517 4.013 1.517 3.774 0 6.37-2.596 6.37-6.15v-8.227c0-3.894-1.657-6.969-4.453-8.786-1.857-2.875-5.212-4.593-9.465-4.593-6.649 0-12.041 3.415-12.041 8.167 0 1.658.699 3.016 1.797 3.894-.938 1.278-1.457 2.636-1.457 4.533 0 3.295 1.577 5.951 3.973 7.328 1.358 2.357 3.854 3.834 6.81 3.834zm-9.925-19.589c0-3.933 4.733-6.969 10.843-6.969 6.15 0 10.124 3.774 10.124 9.585v8.227c0 2.896-2.057 4.952-5.172 4.952-1.158 0-2.536-.479-3.095-1.138.859-.918 1.777-2.456 2.177-3.514.08-.24.12-.38.12-.499 0-.36-.28-.58-.559-.58-.22 0-.44.08-.62.5-1.158 2.915-3.194 5.231-6.489 5.231-3.974 0-6.989-2.995-6.989-7.368 0-1.657.439-2.776 1.278-3.874.779.419 1.797.619 2.696.619 2.975 0 5.231-2.456 5.231-4.952 0-.579-.219-.819-.579-.819-.359 0-.559.2-.599.719-.12 2.277-1.937 3.854-4.073 3.854-2.257 0-4.294-1.438-4.294-3.974zm10.424 7.848c0 .379.18.679.599.679s.599-.3.599-.679v-2.436c0-.4-.18-.679-.599-.679s-.599.279-.599.679z"/><path d="m330.974 165.3c2.895 0 4.553-1.338 5.331-4.893.18-.818.24-1.597.3-2.955-.899 0-1.857-.1-2.396-.2-.38-.06-.639-.239-.639-.619 0-.339.179-.559.579-.559.14 0 .479.04.779.06.718.08 1.657.1 2.276.1.639 0 1.558-.02 2.276-.1.32-.02.639-.06.779-.06.4 0 .579.22.579.559 0 .38-.239.559-.639.619-.519.1-1.477.2-2.396.2.06 1.358.12 2.137.3 2.955.778 3.555 2.456 4.893 5.331 4.893 2.955 0 4.912-1.858 4.912-5.132 0-.579-.04-2.137-.119-3.115l-.839-10.484c-.559-7.069-4.353-10.623-10.184-10.623s-9.625 3.554-10.184 10.623l-.839 10.484c-.079.978-.119 2.536-.119 3.115 0 3.274 1.957 5.132 4.912 5.132zm-2.157-21.546c0-.16.06-.44.12-.639.819-2.616 2.576-4.593 4.832-5.332.2-.06.4-.08.56-.08.319 0 .539.26.559.539.02.32-.18.519-.559.639-2.237.679-3.635 2.416-4.354 4.952-.079.3-.279.5-.599.5-.319 0-.559-.22-.559-.579zm4.753 4.712c0-.399.259-.559.639-.619.539-.1 1.497-.18 2.396-.18v-2.635c0-.4.18-.679.599-.679s.599.279.599.679v2.635c.919 0 1.877.08 2.396.18.4.06.639.22.639.619 0 .34-.179.559-.579.559-.14 0-.459-.04-.779-.06-.718-.08-1.637-.099-2.276-.099-.619 0-1.558.019-2.276.099-.3.02-.639.06-.779.06-.4 0-.579-.219-.579-.559zm22.844 16.933c3.294 0 5.331-2.316 6.489-5.231.18-.42.4-.5.619-.5.28 0 .56.22.56.58 0 .119-.04.259-.12.499-.4 1.058-1.318 2.596-2.177 3.514.559.659 1.937 1.138 3.095 1.138 3.115 0 5.172-2.056 5.172-4.952v-8.227c0-5.811-3.974-9.585-10.124-9.585-6.11 0-10.843 3.036-10.843 6.969 0 2.536 2.037 3.974 4.293 3.974 2.137 0 3.954-1.577 4.074-3.854.04-.519.24-.719.599-.719s.579.24.579.819c0 2.496-2.256 4.952-5.232 4.952-.898 0-1.917-.2-2.695-.619-.839 1.098-1.278 2.217-1.278 3.874 0 4.373 3.015 7.368 6.989 7.368zm-5.292-17.752c0-.199.1-.399.28-.599.958-1.198 2.695-2.116 4.153-2.496.2-.06.339-.08.459-.08.34 0 .599.22.599.56 0 .299-.219.539-.579.619-1.318.319-2.895 1.138-3.774 2.236-.16.18-.379.32-.579.32-.319 0-.559-.26-.559-.56zm8.387 9.805v-2.436c0-.4.179-.679.599-.679.419 0 .599.279.599.679v2.436c0 .379-.18.679-.599.679-.42 0-.599-.3-.599-.679z"/><path d="m430.776 169.094c2.975 0 4.992-1.258 6.05-4.274.999 2.396 2.975 4.274 6.27 4.274 3.754 0 6.25-2.377 6.25-6.33 0-.6-.04-2.197-.119-3.215l-.839-10.484c-.379-4.712-2.157-8.047-4.932-9.904-1.977-2.916-5.132-4.413-9.046-4.413-6.43 0-10.763 3.994-11.382 11.721l-.839 10.484c-.08 1.018-.119 2.616-.119 3.215 0 2.775 1.278 4.792 3.294 5.691.939 2.056 2.916 3.235 5.412 3.235zm-7.508-8.926c0-.579.04-2.137.119-3.115l.839-10.484c.559-7.069 4.353-10.623 10.184-10.623s9.625 3.554 10.184 10.623l.839 10.484c.079.978.119 2.536.119 3.115 0 3.274-1.957 5.132-4.912 5.132-2.875 0-4.553-1.338-5.331-4.893-.18-.818-.24-1.597-.3-2.955.919 0 1.877-.1 2.396-.2.4-.06.639-.239.639-.619 0-.339-.179-.559-.579-.559-.14 0-.459.04-.779.06-.718.08-1.637.1-2.276.1-.619 0-1.558-.02-2.276-.1-.3-.02-.639-.06-.779-.06-.4 0-.579.22-.579.559 0 .38.259.559.639.619.539.1 1.497.2 2.396.2-.06 1.358-.12 2.137-.3 2.955-.778 3.555-2.436 4.893-5.331 4.893-2.955 0-4.912-1.858-4.912-5.132zm2.815-16.414c0 .359.24.599.559.599.32 0 .519-.22.599-.52.719-2.536 2.117-4.273 4.353-4.952.38-.12.58-.319.56-.639-.02-.279-.24-.539-.56-.539-.159 0-.359.02-.559.08-2.256.739-4.013 2.716-4.832 5.332-.06.199-.12.479-.12.639zm4.693 4.712c0 .34.179.559.579.559.14 0 .479-.04.779-.06.718-.08 1.657-.099 2.276-.099.639 0 1.558.019 2.276.099.32.02.639.06.779.06.4 0 .579-.219.579-.559 0-.399-.239-.559-.639-.619-.519-.1-1.477-.18-2.396-.18v-2.635c0-.4-.18-.679-.599-.679s-.599.279-.599.679v2.635c-.899 0-1.857.08-2.396.18-.38.06-.639.22-.639.619zm30.432 20.727c1.797 0 3.294-.579 4.453-1.517.878.958 2.576 1.517 4.013 1.517 3.774 0 6.37-2.596 6.37-6.15v-8.227c0-3.894-1.657-6.969-4.453-8.786-1.857-2.875-5.212-4.593-9.465-4.593-6.649 0-12.041 3.415-12.041 8.167 0 1.658.699 3.016 1.797 3.894-.938 1.278-1.457 2.636-1.457 4.533 0 3.295 1.577 5.951 3.973 7.328 1.358 2.357 3.854 3.834 6.81 3.834zm-9.925-19.589c0-3.933 4.733-6.969 10.843-6.969 6.15 0 10.124 3.774 10.124 9.585v8.227c0 2.896-2.057 4.952-5.172 4.952-1.158 0-2.536-.479-3.095-1.138.859-.918 1.777-2.456 2.177-3.514.08-.24.12-.38.12-.499 0-.36-.28-.58-.559-.58-.22 0-.44.08-.62.5-1.158 2.915-3.194 5.231-6.489 5.231-3.974 0-6.989-2.995-6.989-7.368 0-1.657.439-2.776 1.278-3.874.779.419 1.797.619 2.696.619 2.975 0 5.231-2.456 5.231-4.952 0-.579-.219-.819-.579-.819-.359 0-.559.2-.599.719-.12 2.277-1.937 3.854-4.073 3.854-2.257 0-4.294-1.438-4.294-3.974zm2.037-1.957c0 .3.24.56.559.56.2 0 .42-.14.579-.32.879-1.098 2.456-1.917 3.774-2.236.36-.08.579-.32.579-.619 0-.34-.259-.56-.599-.56-.119 0-.259.02-.459.08-1.458.38-3.195 1.298-4.153 2.496-.18.2-.28.4-.28.599zm8.387 9.805c0 .379.18.679.599.679s.599-.3.599-.679v-2.436c0-.4-.18-.679-.599-.679s-.599.279-.599.679z"/><path d="m432.81 205.159c1.263 0 2.252-.418 2.944-1.221.259-.302.449-.735.449-1.026 0-.37-.285-.666-.639-.666-.222 0-.439.101-.645.37-.449.756-1.126 1.168-2.099 1.168-1.432 0-2.431-1.073-2.431-2.585 0-1.522.999-2.595 2.431-2.595.973 0 1.655.402 2.099 1.163.201.275.423.375.645.375.354 0 .639-.301.639-.671 0-.312-.201-.745-.475-1.062-.688-.793-1.671-1.179-2.918-1.179-2.257 0-3.832 1.628-3.832 3.969 0 2.337 1.575 3.96 3.832 3.96zm7.976 0c1.808 0 3.103-1.227 3.103-3.066 0-1.845-1.295-3.066-3.103-3.066-1.803 0-3.098 1.221-3.098 3.066 0 1.839 1.295 3.066 3.098 3.066zm0-1.195c-1.036 0-1.771-.756-1.771-1.871 0-1.116.735-1.871 1.771-1.871s1.771.755 1.771 1.871c0 1.115-.735 1.871-1.771 1.871zm11.951-4.937c-1.02 0-1.691.386-2.051.999-.386-.65-1.062-.999-1.919-.999-.755 0-1.374.291-1.723.814v-.106c0-.396-.264-.671-.639-.671-.381 0-.651.275-.651.671v4.715c0 .391.27.672.651.672.375 0 .639-.281.639-.672v-2.622c0-.967.545-1.617 1.433-1.617.793 0 1.279.497 1.279 1.528v2.711c0 .381.264.672.645.672.375 0 .645-.286.645-.672v-2.622c0-.967.544-1.617 1.432-1.617.793 0 1.279.497 1.279 1.528v2.711c0 .381.265.672.645.672.375 0 .645-.286.645-.672v-2.939c0-1.591-.93-2.484-2.31-2.484zm7.839 0c-.798 0-1.48.296-1.919.851v-1.94c0-.396-.264-.671-.64-.671-.38 0-.65.275-.65.671v6.512c0 .391.27.672.65.672.376 0 .64-.281.64-.672v-.111c.455.561 1.099.82 1.919.82 1.628 0 2.849-1.237 2.849-3.066 0-1.834-1.221-3.066-2.849-3.066zm-.217 4.937c-1.041 0-1.728-.825-1.728-1.871 0-1.047.687-1.871 1.728-1.871.978 0 1.734.713 1.734 1.871 0 1.152-.756 1.871-1.734 1.871zm7.516 1.195c1.808 0 3.103-1.227 3.103-3.066 0-1.845-1.295-3.066-3.103-3.066-1.802 0-3.097 1.221-3.097 3.066 0 1.839 1.295 3.066 3.097 3.066zm0-1.195c-1.036 0-1.77-.756-1.77-1.871 0-1.116.734-1.871 1.77-1.871s1.771.755 1.771 1.871c0 1.115-.735 1.871-1.771 1.871z"/></g><path d="m473.822 118 17.82 17.82h-17.82z" stroke="#000" stroke-linecap="round" stroke-linejoin="round"/><path d="m1.11273 298.743h83.5294v34.5255h-83.5294z" fill="#fff" stroke="#000"/><path d="m1.11273 234.147h65.70977l17.8197 17.82v14.478 32.299h-83.52947z" fill="#fff" stroke="#000"/><path d="m37.3207 313.267c-.4546 0-.6819.211-.9515.708l-2.2412 4.25-2.2412-4.25c-.259-.481-.481-.708-.9461-.708-.4969 0-.8616.333-.8616.93v6.206c0 .417.2907.719.6766.719.3911 0 .6818-.312.6818-.719v-4.647l1.7972 3.463c.2907.549.4863.777.8933.777s.5973-.228.8933-.777l1.8025-3.463v4.647c0 .407.2854.719.6766.719.3911 0 .6819-.302.6819-.719v-6.206c0-.597-.3648-.93-.8616-.93zm8.7426 6.316c-.1163 0-.1903.043-.2802.143-.0846.106-.1744.169-.3013.169-.2167 0-.3171-.132-.3171-.401v-2.469c0-1.3-.8352-1.998-2.2888-1.998-.9832 0-1.7866.349-2.2888.973-.1744.2-.2748.417-.2748.644 0 .296.2167.492.5285.492.2115 0 .3753-.106.6238-.344.3541-.396.8404-.634 1.4007-.634.6343 0 1.0149.286 1.0149.751 0 .312-.1427.444-.6132.544l-1.295.286c-1.1206.248-1.665.814-1.665 1.718 0 1.025.7876 1.686 1.9927 1.686.7242 0 1.3426-.27 1.7391-.74.2114.46.629.729 1.1787.729.407 0 .777-.217.9938-.507.148-.196.2167-.376.2167-.592 0-.259-.1533-.45-.3647-.45zm-3.4517.481c-.5656 0-.9409-.28-.9409-.697 0-.407.2907-.666.925-.798l.6608-.138c.296-.063.4968-.153.629-.264v.708c0 .677-.5497 1.189-1.2739 1.189zm10.0535-3.948c.1374-.148.1797-.307.1797-.455 0-.338-.3066-.623-.6502-.623-.2008 0-.3806.1-.5814.338l-1.5223 1.781-1.5224-1.781c-.2008-.243-.3805-.338-.5814-.338-.3436 0-.6502.285-.6502.623 0 .148.0423.307.1745.455l1.7179 1.956-1.7179 1.998c-.1322.153-.1745.306-.1745.449 0 .338.3066.629.6502.629.1956 0 .3806-.085.5867-.338l1.5171-1.819 1.517 1.819c.2061.253.3911.338.5867.338.3436 0 .6502-.291.6502-.629 0-.132-.0476-.296-.1797-.449l-1.7179-1.998zm2.6902-1.755c.4652 0 .7982-.344.7982-.798 0-.449-.333-.793-.7982-.793-.4651 0-.8087.344-.8087.793 0 .454.3436.798.8087.798zm-.0052 6.761c.3753 0 .6395-.281.6395-.672v-4.715c0-.396-.2642-.671-.6395-.671-.3806 0-.6502.275-.6502.671v4.715c0 .391.2696.672.6502.672z" fill="#000"/><path d="m66.8225 234.147 17.8196 17.82h-17.8196z" stroke="#000" stroke-linecap="round" stroke-linejoin="round"/><path d="m101.113 298.743h83.5294v34.5255h-83.5294z" fill="#fff" stroke="#000"/><path d="m101.113 234.147h65.71l17.819 17.82v14.478 32.299h-83.529z" fill="#fff" stroke="#000"/><path d="m125.071 321.159c2.299 0 3.922-1.639 3.922-3.965 0-2.331-1.623-3.964-3.922-3.964s-3.922 1.633-3.922 3.964c0 2.326 1.623 3.965 3.922 3.965zm0-1.375c-1.459 0-2.511-1.057-2.511-2.59 0-1.538 1.052-2.59 2.511-2.59 1.464 0 2.511 1.052 2.511 2.59 0 1.533-1.047 2.59-2.511 2.59zm10.757-4.72c-.376 0-.645.275-.645.671v2.622c0 .962-.577 1.618-1.523 1.618-.851 0-1.374-.497-1.374-1.528v-2.717c0-.375-.264-.666-.64-.666-.375 0-.65.285-.65.666v2.939c0 1.596.941 2.49 2.374 2.49.798 0 1.453-.291 1.813-.83v.121c0 .391.269.672.645.672.375 0 .644-.281.644-.672v-4.715c0-.391-.269-.671-.644-.671zm6.585 4.371c-.195 0-.343.096-.465.191-.206.164-.407.296-.671.296-.396 0-.655-.254-.655-.756v-2.812h1.532c.349 0 .603-.243.603-.587 0-.338-.254-.581-.603-.581h-1.532v-.999c0-.392-.265-.666-.64-.666-.381 0-.65.274-.65.666v.999h-.793c-.354 0-.608.243-.608.581 0 .344.254.587.608.587h.793v2.992c0 1.12.761 1.813 1.786 1.813.571 0 1.126-.217 1.459-.524.228-.206.344-.438.344-.676 0-.307-.212-.524-.508-.524zm2.934 1.687c.375 0 .64-.281.64-.672v-6.517c0-.391-.265-.666-.64-.666-.381 0-.65.275-.65.666v6.517c0 .391.269.672.65.672zm3.652-6.761c.465 0 .798-.344.798-.798 0-.449-.333-.793-.798-.793s-.809.344-.809.793c0 .454.344.798.809.798zm-.005 6.761c.375 0 .64-.281.64-.672v-4.715c0-.396-.265-.671-.64-.671-.381 0-.65.275-.65.671v4.715c0 .391.269.672.65.672zm6.11-6.095c-.798 0-1.453.291-1.813.825v-.117c0-.396-.264-.671-.639-.671-.381 0-.651.275-.651.671v4.715c0 .391.27.672.651.672.375 0 .639-.281.639-.672v-2.622c0-.967.582-1.617 1.528-1.617.845 0 1.369.497 1.369 1.528v2.711c0 .381.264.672.645.672.375 0 .645-.286.645-.672v-2.939c0-1.591-.941-2.484-2.374-2.484zm9.292 4.128c-.222 0-.396.101-.576.254-.333.381-.777.56-1.39.56-1.041 0-1.749-.576-1.845-1.485h3.774c.455 0 .688-.233.688-.73 0-1.591-1.163-2.727-2.828-2.727-1.734 0-2.939 1.232-2.939 3.05 0 1.882 1.226 3.082 3.103 3.082.925 0 1.876-.328 2.32-.973.111-.153.19-.333.19-.513 0-.312-.153-.518-.497-.518zm-2.225-3.076c.893 0 1.496.502 1.591 1.364h-3.177c.09-.841.709-1.364 1.586-1.364z" fill="#000"/><path d="m166.823 234.147 17.819 17.82h-17.819z" stroke="#000" stroke-linecap="round" stroke-linejoin="round"/><path d="m205.113 298.743h83.5294v34.5255h-83.5294z" fill="#fff" stroke="#000"/><path d="m205.113 234.147h65.71l17.819 17.82v14.478 32.299h-83.529z" fill="#fff" stroke="#000"/><path d="m228.069 321.159c1.771 0 2.918-.91 2.918-2.374 0-1.316-.745-1.887-2.067-2.162l-1.279-.269c-.708-.143-1.099-.344-1.099-.946 0-.566.507-.873 1.321-.873.909 0 1.607.397 1.908.941.169.206.386.302.629.302.376 0 .592-.286.592-.661 0-.455-.285-.967-.766-1.274-.513-.333-1.279-.613-2.241-.613-1.766 0-2.865.893-2.865 2.289 0 1.258.708 1.897 2.072 2.167l1.305.259c.725.137 1.068.412 1.068.957 0 .592-.502.946-1.416.946-1.015 0-1.718-.386-2.125-1.094-.117-.175-.302-.259-.492-.259-.359 0-.634.301-.634.671 0 .449.269.962.724 1.295.592.439 1.369.698 2.447.698zm8.198-6.132c-.798 0-1.453.291-1.813.825v-1.924c0-.392-.264-.666-.639-.666-.381 0-.65.274-.65.666v6.517c0 .391.269.666.65.666.375 0 .639-.275.639-.666v-2.617c0-.967.582-1.617 1.528-1.617.846 0 1.369.497 1.369 1.528v2.711c0 .381.264.672.645.672.375 0 .645-.286.645-.672v-2.939c0-1.591-.941-2.484-2.374-2.484zm10.133 4.556c-.116 0-.19.043-.28.143-.085.106-.174.169-.301.169-.217 0-.317-.132-.317-.401v-2.469c0-1.3-.836-1.998-2.289-1.998-.983 0-1.787.349-2.289.973-.174.2-.275.417-.275.644 0 .296.217.492.529.492.211 0 .375-.106.623-.344.355-.396.841-.634 1.401-.634.635 0 1.015.286 1.015.751 0 .312-.143.444-.613.544l-1.295.286c-1.121.248-1.665.814-1.665 1.718 0 1.025.787 1.686 1.993 1.686.724 0 1.342-.27 1.739-.74.211.46.629.729 1.178.729.407 0 .777-.217.994-.507.148-.196.217-.376.217-.592 0-.259-.153-.45-.365-.45zm-3.451.481c-.566 0-.941-.28-.941-.697 0-.407.29-.666.925-.798l.66-.138c.296-.063.497-.153.629-.264v.708c0 .677-.549 1.189-1.273 1.189zm10.122-6.797c-.381 0-.645.275-.645.671v1.935c-.439-.55-1.115-.846-1.914-.846-1.633 0-2.849 1.232-2.849 3.066 0 1.829 1.216 3.066 2.849 3.066.82 0 1.465-.259 1.914-.82v.111c0 .391.264.672.645.672.375 0 .645-.281.645-.672v-6.512c0-.396-.27-.671-.645-.671zm-2.347 6.697c-.973 0-1.734-.719-1.734-1.871 0-1.158.761-1.871 1.734-1.871 1.041 0 1.734.824 1.734 1.871 0 1.046-.693 1.871-1.734 1.871zm9.974-.809c-.222 0-.396.101-.576.254-.333.381-.777.56-1.39.56-1.042 0-1.75-.576-1.845-1.485h3.774c.455 0 .687-.233.687-.73 0-1.591-1.163-2.727-2.828-2.727-1.734 0-2.939 1.232-2.939 3.05 0 1.882 1.227 3.082 3.103 3.082.925 0 1.877-.328 2.321-.973.111-.153.19-.333.19-.513 0-.312-.153-.518-.497-.518zm-2.225-3.076c.893 0 1.496.502 1.591 1.364h-3.177c.09-.841.708-1.364 1.586-1.364zm9.641-2.812c-.381 0-.645.275-.645.671v1.935c-.439-.55-1.115-.846-1.914-.846-1.633 0-2.849 1.232-2.849 3.066 0 1.829 1.216 3.066 2.849 3.066.82 0 1.465-.259 1.914-.82v.111c0 .391.264.672.645.672.375 0 .645-.281.645-.672v-6.512c0-.396-.27-.671-.645-.671zm-2.347 6.697c-.973 0-1.734-.719-1.734-1.871 0-1.158.761-1.871 1.734-1.871 1.041 0 1.734.824 1.734 1.871 0 1.046-.693 1.871-1.734 1.871z" fill="#000"/><path d="m270.823 234.147 17.819 17.82h-17.819z" stroke="#000" stroke-linecap="round" stroke-linejoin="round"/><path d="m306.113 298.743h83.5294v34.5255h-83.5294z" fill="#fff" stroke="#000"/><path d="m306.113 234.147h65.71l17.819 17.82v14.478 32.299h-83.529z" fill="#fff" stroke="#000"/><path d="m337.119 316.74c-.364 0-.666.232-.666.65 0 .364.302.639.666.639h2.257c-.047 1.089-.845 1.782-2.14 1.782-1.544 0-2.559-1.089-2.559-2.612 0-1.532 1.031-2.627 2.522-2.627.999 0 1.654.407 2.072.973.227.206.412.285.655.285.317 0 .619-.211.619-.607 0-.429-.355-.931-.83-1.269-.592-.418-1.417-.724-2.474-.724-2.305 0-3.975 1.638-3.975 3.98 0 2.331 1.591 3.949 3.933 3.949 2.125 0 3.573-1.317 3.573-3.621v-.106c0-.46-.317-.692-.719-.692zm6.37 4.382c.375 0 .639-.281.639-.672v-6.517c0-.391-.264-.666-.639-.666-.381 0-.651.275-.651.666v6.517c0 .391.27.672.651.672zm5.608.037c1.807 0 3.102-1.227 3.102-3.066 0-1.845-1.295-3.066-3.102-3.066-1.803 0-3.098 1.221-3.098 3.066 0 1.839 1.295 3.066 3.098 3.066zm0-1.195c-1.036 0-1.771-.756-1.771-1.871 0-1.116.735-1.871 1.771-1.871s1.77.755 1.77 1.871c0 1.115-.734 1.871-1.77 1.871zm13.288-4.911c-.317 0-.555.185-.634.492l-1.279 4.139-1.364-3.906c-.127-.392-.349-.735-.888-.735-.534 0-.756.343-.888.735l-1.359 3.89-1.284-4.123c-.079-.312-.312-.492-.634-.492-.376 0-.651.249-.651.603 0 .085.016.185.048.296l1.321 4.123c.17.581.492 1.084 1.121 1.084.576 0 .925-.413 1.147-1.084l1.179-3.441 1.179 3.441c.232.698.597 1.084 1.141 1.084.624 0 .952-.481 1.126-1.084l1.322-4.123c.037-.111.053-.211.053-.296 0-.354-.281-.603-.656-.603z" fill="#000"/><path d="m371.823 234.147 17.819 17.82h-17.819z" stroke="#000" stroke-linecap="round" stroke-linejoin="round"/><path d="m407.113 298.743h83.5294v34.5255h-83.5294z" fill="#fff" stroke="#000"/><path d="m407.113 234.147h65.71l17.819 17.82v14.478 32.299h-83.529z" fill="#fff" stroke="#000"/><g fill="#000"><path d="m25.2465 280.3c2.9953 0 4.7525-1.318 5.5312-4.893.1997-.918.2397-1.817.2996-3.354-1.1382 0-2.3363-.08-2.9953-.18-.1398-.02-.2396-.08-.2396-.2 0-.1.0599-.18.1997-.18.1198 0 .5591.04.7588.06.7787.08 1.7971.1 2.4761.1.6789 0 1.6973-.02 2.476-.1.1997-.02.639-.06.7588-.06.1398 0 .1997.08.1997.18 0 .12-.0998.18-.2396.2-.659.1-1.8571.18-2.9953.18.0599 1.537.0999 2.436.2996 3.354.7787 3.575 2.536 4.893 5.5312 4.893 3.0752 0 5.1119-1.858 5.1119-5.132 0-.599-.0399-2.137-.1198-3.115l-.8386-10.484c-.5592-7.069-4.3532-10.623-10.1839-10.623-5.8308 0-9.6248 3.554-10.1839 10.623l-.8387 10.484c-.0799.978-.1198 2.516-.1198 3.115 0 3.274 2.0368 5.132 5.1119 5.132zm2.5959-16.854c0-.12.0998-.18.2396-.2.659-.099 1.8571-.179 2.9953-.179v-3.235c0-.16.0599-.28.1997-.28.1397 0 .1996.12.1996.28v3.235c1.1382 0 2.3363.08 2.9953.179.1398.02.2396.08.2396.2s-.0599.18-.1997.18c-.1198 0-.5591-.04-.7588-.06-.7787-.08-1.7971-.1-2.476-.1-.679 0-1.6974.02-2.4761.1-.1997.02-.639.06-.7588.06-.1398 0-.1997-.06-.1997-.18zm22.2847 16.953c3.6543 0 5.6711-2.356 6.8093-5.371.0599-.16.1398-.2.2196-.2.0799 0 .1598.08.1598.22s-.0599.259-.1797.539c-.4793 1.118-1.2181 2.436-2.0967 3.275.619.938 2.2364 1.537 3.5544 1.537 3.115 0 5.1718-2.056 5.1718-4.952v-8.227c0-5.811-3.9737-9.585-10.124-9.585-6.1103 0-10.8429 3.036-10.8429 6.969 0 2.576 2.0368 4.373 4.2932 4.373 2.3164 0 4.453-1.837 4.453-4.433 0-.199.0599-.339.1997-.339s.1997.08.1997.419c0 2.456-2.0767 4.753-4.8324 4.753-.7987 0-1.6773-.2-2.3563-.639-1.0783 1.218-1.6174 2.456-1.6174 4.293 0 4.373 3.0152 7.368 6.9889 7.368zm3.4945-8.346v-2.836c0-.16.0599-.28.1997-.28s.1997.12.1997.28v2.836c0 .159-.0599.279-.1997.279s-.1997-.12-.1997-.279z"/><path d="m124.954 280.699c3.175 0 5.092-1.438 5.931-5.212.039-.2.059-.379.099-.599.04.22.06.399.1.599.839 3.774 2.756 5.212 5.931 5.212 3.275 0 5.511-2.037 5.511-5.531 0-.599-.04-2.157-.12-3.155l-.838-10.484c-.579-7.268-4.533-10.982-10.584-10.982-6.05 0-10.004 3.714-10.583 10.982l-.839 10.484c-.079.998-.119 2.556-.119 3.155 0 3.494 2.236 5.531 5.511 5.531zm-5.112-5.531c0-.599.04-2.137.12-3.115l.838-10.484c.56-7.069 4.354-10.623 10.184-10.623 5.831 0 9.625 3.554 10.184 10.623l.839 10.484c.08.978.12 2.516.12 3.115 0 3.274-2.037 5.132-5.112 5.132-2.995 0-4.753-1.318-5.531-4.893-.2-.918-.24-1.817-.3-3.354 1.138 0 2.336-.08 2.995-.18.14-.02.24-.08.24-.2 0-.1-.06-.18-.2-.18-.12 0-.559.04-.759.06-.778.08-1.797.1-2.476.1s-1.697-.02-2.476-.1c-.199-.02-.639-.06-.759-.06-.139 0-.199.08-.199.18 0 .12.1.18.239.2.659.1 1.857.18 2.996.18-.06 1.537-.1 2.436-.3 3.354-.779 3.575-2.536 4.893-5.531 4.893-3.075 0-5.112-1.858-5.112-5.132zm7.708-11.722c0 .12.06.18.199.18.12 0 .56-.04.759-.06.779-.08 1.797-.1 2.476-.1s1.698.02 2.476.1c.2.02.639.06.759.06.14 0 .2-.06.2-.18s-.1-.18-.24-.2c-.659-.099-1.857-.179-2.995-.179v-3.235c0-.16-.06-.28-.2-.28-.139 0-.199.12-.199.28v3.235c-1.139 0-2.337.08-2.996.179-.139.02-.239.08-.239.2zm23.083 17.353c1.937 0 3.455-.639 4.613-1.658.739 1.039 2.456 1.658 3.854 1.658 3.335 0 5.571-2.237 5.571-5.352v-8.227c0-6.03-4.153-9.984-10.523-9.984-6.29 0-11.242 3.155-11.242 7.368 0 1.698.818 3.095 2.016 3.914-1.098 1.278-1.677 2.596-1.677 4.513 0 4.593 3.195 7.768 7.388 7.768zm-7.328-16.195c0-3.933 4.732-6.969 10.843-6.969 6.15 0 10.124 3.774 10.124 9.585v8.227c0 2.896-2.057 4.952-5.172 4.952-1.318 0-2.935-.599-3.554-1.537.878-.839 1.617-2.157 2.096-3.275.12-.28.18-.399.18-.539s-.08-.22-.16-.22-.16.04-.219.2c-1.139 3.015-3.155 5.371-6.81 5.371-3.973 0-6.989-2.995-6.989-7.368 0-1.837.539-3.075 1.618-4.293.679.439 1.557.639 2.356.639 2.756 0 4.832-2.297 4.832-4.753 0-.339-.059-.419-.199-.419s-.2.14-.2.339c0 2.596-2.137 4.433-4.453 4.433-2.256 0-4.293-1.797-4.293-4.373zm10.823 7.449c0 .159.06.279.199.279.14 0 .2-.12.2-.279v-2.836c0-.16-.06-.28-.2-.28-.139 0-.199.12-.199.28z"/><path d="m228.954 281.897c2.875 0 4.732-1.178 5.671-4.213.779 1.857 2.596 4.213 6.09 4.213 3.575 0 5.811-2.037 5.811-5.531 0-.599-.04-2.157-.12-3.155l-.838-10.484c-.32-4.053-1.698-7.009-3.894-8.826-1.857-2.216-4.553-3.354-7.888-3.354-6.05 0-10.004 3.714-10.583 10.982l-.839 10.484c-.08.998-.119 2.556-.119 3.155 0 2.096.798 3.654 2.136 4.592.959 1.378 2.576 2.137 4.573 2.137zm-6.31-6.729c0-.599.04-2.137.12-3.115l.838-10.484c.559-7.069 4.353-10.623 10.184-10.623s9.625 3.554 10.184 10.623l.839 10.484c.08.978.12 2.516.12 3.115 0 3.274-2.037 5.132-5.112 5.132-2.996 0-4.753-1.318-5.532-4.893-.199-.918-.239-1.817-.299-3.354 1.138 0 2.336-.08 2.995-.18.14-.02.24-.08.24-.2 0-.1-.06-.18-.2-.18-.12 0-.559.04-.759.06-.778.08-1.797.1-2.476.1s-1.697-.02-2.476-.1c-.2-.02-.639-.06-.759-.06-.139 0-.199.08-.199.18 0 .12.1.18.239.2.659.1 1.857.18 2.996.18-.06 1.537-.1 2.436-.3 3.354-.779 3.575-2.536 4.893-5.531 4.893-3.075 0-5.112-1.858-5.112-5.132zm7.708-11.722c0 .12.06.18.199.18.12 0 .559-.04.759-.06.779-.08 1.797-.1 2.476-.1s1.698.02 2.476.1c.2.02.639.06.759.06.14 0 .2-.06.2-.18s-.1-.18-.24-.2c-.659-.099-1.857-.179-2.995-.179v-3.235c0-.16-.06-.28-.2-.28s-.199.12-.199.28v3.235c-1.139 0-2.337.08-2.996.179-.139.02-.239.08-.239.2zm25.479 18.551c1.937 0 3.455-.639 4.613-1.658.739 1.039 2.456 1.658 3.854 1.658 3.335 0 5.571-2.237 5.571-5.352v-8.227c0-3.255-1.218-5.91-3.354-7.688-1.838-2.196-4.733-3.494-8.367-3.494-6.29 0-11.242 3.155-11.242 7.368 0 1.698.818 3.095 2.016 3.914-1.098 1.278-1.677 2.596-1.677 4.513 0 2.656 1.098 4.892 2.835 6.23 1.318 1.717 3.395 2.736 5.751 2.736zm-8.526-17.393c0-3.933 4.732-6.969 10.843-6.969 6.15 0 10.124 3.774 10.124 9.585v8.227c0 2.896-2.057 4.952-5.172 4.952-1.318 0-2.935-.599-3.554-1.537.878-.839 1.617-2.157 2.096-3.275.12-.28.18-.399.18-.539s-.08-.22-.16-.22-.16.04-.219.2c-1.139 3.015-3.155 5.371-6.81 5.371-3.973 0-6.989-2.995-6.989-7.368 0-1.837.539-3.075 1.618-4.293.679.439 1.557.639 2.356.639 2.756 0 4.832-2.297 4.832-4.753 0-.339-.059-.419-.199-.419s-.2.14-.2.339c0 2.596-2.137 4.433-4.453 4.433-2.256 0-4.293-1.797-4.293-4.373zm10.823 7.449c0 .159.06.279.199.279.14 0 .2-.12.2-.279v-2.836c0-.16-.06-.28-.2-.28-.139 0-.199.12-.199.28z"/><path d="m330.353 280.3c2.996 0 4.753-1.318 5.532-4.893.199-.918.239-1.817.299-3.354-1.138 0-2.336-.08-2.995-.18-.14-.02-.24-.08-.24-.2 0-.1.06-.18.2-.18.12 0 .559.04.759.06.778.08 1.797.1 2.476.1s1.697-.02 2.476-.1c.2-.02.639-.06.759-.06.139 0 .199.08.199.18 0 .12-.1.18-.239.2-.659.1-1.857.18-2.996.18.06 1.537.1 2.436.3 3.354.779 3.575 2.536 4.893 5.531 4.893 3.075 0 5.112-1.858 5.112-5.132 0-.599-.04-2.137-.12-3.115l-.838-10.484c-.559-7.069-4.353-10.623-10.184-10.623s-9.625 3.554-10.184 10.623l-.839 10.484c-.08.978-.12 2.516-.12 3.115 0 3.274 2.037 5.132 5.112 5.132zm-2.616-21.746c0-.12.1-.439.14-.559.959-2.876 2.796-4.773 5.152-5.551.12-.04.28-.08.379-.08.1 0 .16.04.18.139.02.12-.06.2-.259.26-2.496.799-4.294 2.656-5.192 5.771-.04.14-.12.22-.22.22-.08 0-.18-.04-.18-.2zm5.212 4.892c0-.12.1-.18.24-.2.659-.099 1.857-.179 2.995-.179v-3.235c0-.16.06-.28.2-.28s.199.12.199.28v3.235c1.139 0 2.337.08 2.996.179.139.02.239.08.239.2s-.06.18-.199.18c-.12 0-.559-.04-.759-.06-.779-.08-1.797-.1-2.476-.1s-1.698.02-2.476.1c-.2.02-.639.06-.759.06-.14 0-.2-.06-.2-.18zm22.285 16.953c3.654 0 5.671-2.356 6.809-5.371.06-.16.14-.2.22-.2s.16.08.16.22-.06.259-.18.539c-.479 1.118-1.218 2.436-2.097 3.275.619.938 2.237 1.537 3.555 1.537 3.115 0 5.171-2.056 5.171-4.952v-8.227c0-5.811-3.973-9.585-10.124-9.585-6.11 0-10.842 3.036-10.842 6.969 0 2.576 2.036 4.373 4.293 4.373 2.316 0 4.453-1.837 4.453-4.433 0-.199.06-.339.199-.339.14 0 .2.08.2.419 0 2.456-2.077 4.753-4.832 4.753-.799 0-1.678-.2-2.357-.639-1.078 1.218-1.617 2.456-1.617 4.293 0 4.373 3.015 7.368 6.989 7.368zm-5.531-18.051c0-.08.04-.16.1-.24 1.098-1.477 2.995-2.456 4.632-2.895.08-.02.18-.04.26-.04.12 0 .199.08.199.16 0 .139-.079.179-.299.239-1.498.4-3.435 1.358-4.453 2.736-.1.12-.18.2-.28.2-.079 0-.159-.06-.159-.16zm9.025 9.705v-2.836c0-.16.06-.28.2-.28s.2.12.2.28v2.836c0 .159-.06.279-.2.279s-.2-.12-.2-.279z"/><path d="m430.954 281.897c2.875 0 4.732-1.178 5.671-4.213.779 1.857 2.596 4.213 6.09 4.213 3.575 0 5.811-2.037 5.811-5.531 0-.599-.04-2.157-.12-3.155l-.838-10.484c-.32-4.053-1.698-7.009-3.894-8.826-1.857-2.216-4.553-3.354-7.888-3.354-6.05 0-10.004 3.714-10.583 10.982l-.839 10.484c-.08.998-.119 2.556-.119 3.155 0 2.096.798 3.654 2.136 4.592.959 1.378 2.576 2.137 4.573 2.137zm-6.31-6.729c0-.599.04-2.137.12-3.115l.838-10.484c.559-7.069 4.353-10.623 10.184-10.623s9.625 3.554 10.184 10.623l.839 10.484c.08.978.12 2.516.12 3.115 0 3.274-2.037 5.132-5.112 5.132-2.996 0-4.753-1.318-5.532-4.893-.199-.918-.239-1.817-.299-3.354 1.138 0 2.336-.08 2.995-.18.14-.02.24-.08.24-.2 0-.1-.06-.18-.2-.18-.12 0-.559.04-.759.06-.778.08-1.797.1-2.476.1s-1.697-.02-2.476-.1c-.2-.02-.639-.06-.759-.06-.139 0-.199.08-.199.18 0 .12.1.18.239.2.659.1 1.857.18 2.996.18-.06 1.537-.1 2.436-.3 3.354-.779 3.575-2.536 4.893-5.531 4.893-3.075 0-5.112-1.858-5.112-5.132zm2.496-16.594c0 .16.1.2.18.2.099 0 .179-.1.219-.24.899-3.115 2.696-4.972 5.192-5.771.2-.06.3-.14.28-.26-.02-.099-.1-.139-.2-.139s-.26.04-.379.08c-2.357.778-4.194 2.675-5.152 5.551-.04.12-.14.459-.14.579zm5.212 4.872c0 .12.06.18.199.18.12 0 .559-.04.759-.06.779-.08 1.797-.1 2.476-.1s1.698.02 2.476.1c.2.02.639.06.759.06.14 0 .2-.06.2-.18s-.1-.18-.24-.2c-.659-.099-1.857-.179-2.995-.179v-3.235c0-.16-.06-.28-.2-.28s-.199.12-.199.28v3.235c-1.139 0-2.337.08-2.996.179-.139.02-.239.08-.239.2zm25.479 18.551c1.937 0 3.455-.639 4.613-1.658.739 1.039 2.456 1.658 3.854 1.658 3.335 0 5.571-2.237 5.571-5.352v-8.227c0-3.255-1.218-5.91-3.354-7.688-1.838-2.196-4.733-3.494-8.367-3.494-6.29 0-11.242 3.155-11.242 7.368 0 1.698.818 3.095 2.016 3.914-1.098 1.278-1.677 2.596-1.677 4.513 0 2.656 1.098 4.892 2.835 6.23 1.318 1.717 3.395 2.736 5.751 2.736zm-8.526-17.393c0-3.933 4.732-6.969 10.843-6.969 6.15 0 10.124 3.774 10.124 9.585v8.227c0 2.896-2.057 4.952-5.172 4.952-1.318 0-2.935-.599-3.554-1.537.878-.839 1.617-2.157 2.096-3.275.12-.28.18-.399.18-.539s-.08-.22-.16-.22-.16.04-.219.2c-1.139 3.015-3.155 5.371-6.81 5.371-3.973 0-6.989-2.995-6.989-7.368 0-1.837.539-3.075 1.618-4.293.679.439 1.557.639 2.356.639 2.756 0 4.832-2.297 4.832-4.753 0-.339-.059-.419-.199-.419s-.2.14-.2.339c0 2.596-2.137 4.433-4.453 4.433-2.256 0-4.293-1.797-4.293-4.373zm1.797-2.256c0 .1.08.16.16.16.1 0 .18-.08.279-.2 1.019-1.378 2.956-2.336 4.453-2.736.22-.06.3-.1.3-.239 0-.08-.08-.16-.2-.16-.08 0-.18.02-.259.04-1.638.439-3.535 1.418-4.633 2.895-.06.08-.1.16-.1.24zm9.026 9.705c0 .159.06.279.199.279.14 0 .2-.12.2-.279v-2.836c0-.16-.06-.28-.2-.28-.139 0-.199.12-.199.28z"/><path d="m431.932 321.159c1.264 0 2.252-.418 2.945-1.221.259-.302.449-.735.449-1.026 0-.37-.285-.666-.64-.666-.222 0-.438.101-.645.37-.449.756-1.125 1.168-2.098 1.168-1.432 0-2.431-1.073-2.431-2.585 0-1.522.999-2.595 2.431-2.595.973 0 1.654.402 2.098 1.163.201.275.423.375.645.375.355 0 .64-.301.64-.671 0-.312-.201-.745-.476-1.062-.687-.793-1.67-1.179-2.918-1.179-2.257 0-3.832 1.628-3.832 3.969 0 2.337 1.575 3.96 3.832 3.96zm7.977 0c1.807 0 3.102-1.227 3.102-3.066 0-1.845-1.295-3.066-3.102-3.066-1.803 0-3.098 1.221-3.098 3.066 0 1.839 1.295 3.066 3.098 3.066zm0-1.195c-1.036 0-1.771-.756-1.771-1.871 0-1.116.735-1.871 1.771-1.871s1.77.755 1.77 1.871c0 1.115-.734 1.871-1.77 1.871zm11.951-4.937c-1.021 0-1.692.386-2.051.999-.386-.65-1.063-.999-1.919-.999-.756 0-1.374.291-1.723.814v-.106c0-.396-.265-.671-.64-.671-.38 0-.65.275-.65.671v4.715c0 .391.27.672.65.672.375 0 .64-.281.64-.672v-2.622c0-.967.544-1.617 1.432-1.617.793 0 1.279.497 1.279 1.528v2.711c0 .381.265.672.645.672.376 0 .645-.286.645-.672v-2.622c0-.967.545-1.617 1.433-1.617.793 0 1.279.497 1.279 1.528v2.711c0 .381.264.672.645.672.375 0 .645-.286.645-.672v-2.939c0-1.591-.931-2.484-2.31-2.484zm7.838 0c-.798 0-1.48.296-1.918.851v-1.94c0-.396-.265-.671-.64-.671-.381 0-.65.275-.65.671v6.512c0 .391.269.672.65.672.375 0 .64-.281.64-.672v-.111c.454.561 1.099.82 1.918.82 1.628 0 2.849-1.237 2.849-3.066 0-1.834-1.221-3.066-2.849-3.066zm-.216 4.937c-1.042 0-1.729-.825-1.729-1.871 0-1.047.687-1.871 1.729-1.871.978 0 1.733.713 1.733 1.871 0 1.152-.755 1.871-1.733 1.871zm7.516 1.195c1.808 0 3.103-1.227 3.103-3.066 0-1.845-1.295-3.066-3.103-3.066-1.803 0-3.098 1.221-3.098 3.066 0 1.839 1.295 3.066 3.098 3.066zm0-1.195c-1.036 0-1.771-.756-1.771-1.871 0-1.116.735-1.871 1.771-1.871s1.771.755 1.771 1.871c0 1.115-.735 1.871-1.771 1.871z"/></g><path d="m472.823 234.147 17.819 17.82h-17.819z" stroke="#000" stroke-linecap="round" stroke-linejoin="round"/></svg>