<svg fill="none" height="340" viewBox="0 0 375 340" width="375" xmlns="http://www.w3.org/2000/svg" xmlns:xlink="http://www.w3.org/1999/xlink"><clipPath id="a"><path d="m0 0h375v340h-375z"/></clipPath><g clip-path="url(#a)"><g fill="#0068ff"><path d="m104.3 263.167c10.833 0 19.621-8.788 19.621-19.621v-9.555c0-10.833-8.788-19.622-19.621-19.622h-67.1936c-10.8327 0-19.6215 8.789-19.6215 19.622v9.606c0 10.833 8.7888 19.622 19.6215 19.622h25.6511v27.541c0 4.855-1.4308 6.49-5.7741 6.49-1.5329 0-3.5257-.562-4.5988-2.146-2.4527-3.628-7.4092-4.599-11.0882-2.147-3.6279 2.453-4.5988 7.41-2.1461 11.089 3.8834 5.723 10.5261 9.197 17.8331 9.197 13.1832 0 21.7166-8.789 21.7166-22.432v-27.541h25.6zm-72.3034-19.57v-9.606c0-2.811 2.2994-5.11 5.1098-5.11h67.1936c2.81 0 5.11 2.299 5.11 5.11v9.606c0 2.81-2.3 5.11-5.11 5.11h-67.1936c-2.8104 0-5.1098-2.3-5.1098-5.11z"/><path d="m16.0027 210.792h109.4513c4.395 0 7.971-3.576 7.971-7.971 0-4.394-3.576-7.971-7.971-7.971h-46.039v-1.84c0-4.803-3.8834-8.686-8.6866-8.686s-8.6866 3.883-8.6866 8.686v1.789h-46.0391c-4.3944 0-7.97121 3.577-7.97121 7.971s3.57681 8.022 7.97121 8.022z"/><path d="m128.009 287.388c-8.483-2.913-15.176-8.534-20.439-17.22-2.3-3.781-7.205-4.957-10.9354-2.657-3.7812 2.299-4.9564 7.205-2.657 10.935 7.2044 11.854 16.9134 19.928 28.9214 24.016.869.306 1.737.408 2.555.408 3.321 0 6.438-2.095 7.562-5.416 1.38-4.088-.868-8.635-5.007-10.066z"/><path d="m47.5299 278.497c2.2994-3.781 1.0731-8.687-2.6571-10.935-3.7812-2.3-8.6866-1.073-10.9349 2.657-5.2631 8.687-11.9569 14.307-20.4391 17.22-4.19 1.431-6.38719 5.927-4.95646 10.117 1.12415 3.322 4.24116 5.417 7.56246 5.417.8687 0 1.7373-.154 2.5549-.409 11.9569-4.139 21.6654-12.264 28.8702-24.067z"/><path d="m214.633 222.954c0-4.599 3.628-7.87 8.636-7.87 4.956 0 7.307 2.606 9.555 8.023l20.899 44.353 19.417-43.893c2.606-6.234 5.008-8.483 9.76-8.483s8.431 3.322 8.431 7.512c0 2.248-.715 5.007-2.197 8.227l-28.87 63.207c-6.183 13.541-14.001 19.878-26.622 19.878-6.234 0-11.191-1.482-15.585-4.957-2.964-2.35-5.008-6.081-5.008-9.402 0-4.548 3.117-8.278 7.205-8.278 1.329 0 2.913.562 4.241 1.84 2.402 2.963 5.468 4.445 8.585 4.445 4.905 0 8.431-2.963 11.548-9.351l-27.338-57.025c-1.635-3.525-2.657-6.234-2.657-8.226z"/><path d="m286.393 256.013c0-24.68 17.373-41.032 41.491-41.032 24.221 0 41.543 16.352 41.543 41.032 0 24.629-17.322 41.031-41.543 41.031-24.118 0-41.491-16.402-41.491-41.031zm41.491 25.038c13.848 0 23.71-10.118 23.71-25.038 0-14.921-9.862-25.038-23.71-25.038-13.847 0-23.709 10.117-23.709 25.038 0 14.92 9.862 25.038 23.709 25.038z"/></g><g stroke="#ff3801" stroke-dasharray=".05 3" stroke-linecap="round" stroke-linejoin="round" stroke-miterlimit="10"><path d="m1.38892 193.01h674.49008"/><path d="m1.38892 293.671h674.49008"/><path d="m1.38892 217.536h674.49008"/><path d="m1.38892 311.556h674.49008"/></g><path d="m125.556 39.3242c4.394 0 7.971-3.5769 7.971-7.9713s-3.577-7.9712-7.971-7.9712h-46.7545c-.3577-4.0878-3.7813-7.307-7.9202-7.307s-7.6646 3.2192-7.9712 7.307h-46.7545c-4.3944 0-7.97122 3.5768-7.97122 7.9712s3.57682 7.9713 7.97122 7.9713h46.7545v4.5477h-25.6511c-10.8327 0-19.6215 8.7888-19.6215 19.6215v16.1469c0 10.8327 8.7888 19.6215 19.6215 19.6215h12.2124c-9.2998 9.7082-19.1106 15.0742-35.2575 19.0082-4.29219 1.022-6.89818 5.365-5.82513 9.658.86866 3.628 4.13893 6.08 7.71573 6.08.6132 0 1.2775-.051 1.8906-.255 20.9501-5.11 33.3669-12.775 44.8639-25.498v28.461c0 4.395 3.5768 7.972 7.9712 7.972s7.9713-3.577 7.9713-7.972v-28.461c11.497 12.723 23.9135 20.337 44.8635 25.498.613.153 1.278.255 1.891.255 3.577 0 6.847-2.452 7.716-6.08 1.022-4.293-1.584-8.585-5.825-9.658-16.147-3.934-25.958-9.3-35.2579-19.0082h12.2119c10.833 0 19.622-8.7888 19.622-19.6215v-16.1469c0-10.8327-8.789-19.6215-19.622-19.6215h-25.6506v-4.5477zm-88.297 19.0594h25.6511v5.9274h-30.7609v-.8176c0-2.8104 2.2994-5.1098 5.1098-5.1098zm0 26.3665c-2.8104 0-5.1098-2.2994-5.1098-5.1098v-.8176h30.7609v5.9274h-1.7374zm67.194 0c-3.447 0-25.6004 0-25.6004 0v-5.9274h30.7604v.8176c-.051 2.8104-2.35 5.1098-5.16 5.1098zm0-26.3665c2.81 0 5.109 2.2994 5.109 5.1098v.8176h-30.7605v-5.9274z" fill="#0068ff"/><path d="m176.397 118.168v-76.0846h-25.344c-5.212 0-9.147-3.7301-9.147-9.0443s3.884-8.9932 9.147-8.9932h68.982c5.212 0 9.146 3.679 9.146 8.9932s-3.883 9.0443-9.146 9.0443h-25.345v76.0846c0 5.519-3.679 9.402-9.197 9.402-5.365.051-9.096-3.883-9.096-9.402z" fill="#0068ff"/><path d="m213.148 87.0496c0-24.6803 17.322-41.0315 41.492-41.0315 24.22 0 41.542 16.3512 41.542 41.0315 0 24.6294-17.322 41.0314-41.542 41.0314-24.119 0-41.492-16.402-41.492-41.0314zm41.492 25.0374c13.847 0 23.709-10.117 23.709-25.0374 0-14.9206-9.862-25.0379-23.709-25.0379-13.848 0-23.71 10.1173-23.71 25.0379 0 14.9204 9.862 25.0374 23.71 25.0374z" fill="#0068ff"/><path d="m1.38892 24.0459h674.49008" stroke="#ff3801" stroke-dasharray=".05 3" stroke-linecap="round" stroke-linejoin="round" stroke-miterlimit="10"/><path d="m1.38892 124.709h674.49008" stroke="#ff3801" stroke-dasharray=".05 3" stroke-linecap="round" stroke-linejoin="round" stroke-miterlimit="10"/><path d="m1.38892 48.5742h674.49008" stroke="#ff3801" stroke-dasharray=".05 3" stroke-linecap="round" stroke-linejoin="round" stroke-miterlimit="10"/><path d="m1.38892 142.594h674.49008" stroke="#ff3801" stroke-dasharray=".05 3" stroke-linecap="round" stroke-linejoin="round" stroke-miterlimit="10"/><path d="m194.971 291.632-24.321-31.059-15.333 13.195v13.144c0 5.176-3.504 8.932-8.53 8.932-5.078 0-8.632-3.705-8.632-8.932v-86.628c0-5.177 3.605-8.881 8.632-8.881 4.976 0 8.53 3.654 8.53 8.881v52.22l37.319-32.428c4.569-4.009 6.803-4.973 10.053-4.973 4.417 0 7.718 2.791 7.718 7.307 0 2.386-.965 4.872-4.57 7.866l-21.934 18.828 24.168 31.16c2.945 3.958 3.3 5.481 3.3 7.866 0 3.705-3.503 7.511-8.428 7.511-2.539 0-5.484-.66-7.972-4.009z" fill="#0068ff"/></g></svg>