<svg fill="none" height="327" viewBox="0 0 1322 327" width="1322" xmlns="http://www.w3.org/2000/svg"><g fill="#0068ff"><path d="m243.772 78.8999c8.6 0 15.6-7 15.6-15.6s-7-15.6-15.6-15.6h-91.5c-.7-8-7.4-14.3-15.5-14.3s-15 6.3-15.6 14.3h-91.4998c-8.6 0-15.5999 7-15.5999 15.6s6.9999 15.6 15.5999 15.6h91.4998v8.9h-50.1998c-21.2 0-38.3999 17.2001-38.3999 38.4001v31.6c0 21.2 17.1999 38.4 38.3999 38.4h23.9001c-18.2 19-37.4 29.5-69 37.2-8.4 2-13.5001 10.5-11.4001 18.9 1.7 7.1 8.1001 11.9 15.1001 11.9 1.2 0 2.5-.1 3.7-.5 41-10 65.2999-25 87.7997-49.9v55.7c0 8.6 7 15.6 15.6 15.6s15.6-7 15.6-15.6v-55.7c22.5 24.9 46.8 39.8 87.8 49.9 1.2.3 2.5.5 3.7.5 7 0 13.4-4.8 15.1-11.9 2-8.4-3.1-16.8-11.4-18.9-31.6-7.7-50.8-18.2-69-37.2h23.9c21.2 0 38.4-17.2 38.4-38.4v-31.6c0-21.2-17.2-38.4001-38.4-38.4001h-50.2v-8.9zm-172.7998 37.3001h50.1998v11.6h-60.1998v-1.6c0-5.5 4.5-10 10-10zm0 51.6c-5.5 0-10-4.5-10-10v-1.6h60.1998v11.6zm131.4998 0h-50.1c0-3.867 0-7.733 0-11.6h60.2v1.6c-.1 5.5-4.6 10-10.1 10zm0-51.6c5.5 0 10 4.5 10 10v1.6h-60.2v-11.6z"/><path d="m464.872 186.3c21.2 0 38.4-17.2 38.4-38.4v-18.7c0-21.2-17.2-38.4-38.4-38.4h-131.5c-21.2 0-38.4 17.2-38.4 38.4v18.8c0 21.2 17.2 38.4 38.4 38.4h50.2v53.9c0 9.5-2.8 12.7-11.3 12.7-3 0-6.9-1.1-9-4.2-4.8-7.1-14.5-9-21.7-4.2-7.1 4.8-9 14.5-4.2 21.7 7.6 11.2 20.6 18 34.9 18 25.8 0 42.5-17.2 42.5-43.9v-53.9h50.1zm-141.5-38.3v-18.8c0-5.5 4.5-10 10-10h131.5c5.5 0 10 4.5 10 10v18.8c0 5.5-4.5 10-10 10h-131.5c-5.5 0-10-4.5-10-10z"/><path d="m292.072 83.8h214.2c8.6 0 15.6-7 15.6-15.6s-7-15.6-15.6-15.6h-90.1v-3.6c0-9.4-7.6-17-17-17s-17 7.6-17 17v3.5h-90.1c-8.6 0-15.6 7-15.6 15.6s7 15.7 15.6 15.7z"/><path d="m511.272 233.7c-16.6-5.7-29.7-16.7-40-33.7-4.5-7.4-14.1-9.7-21.4-5.2-7.4 4.5-9.7 14.1-5.2 21.4 14.1 23.2 33.1 39 56.6 47 1.7.6 3.4.8 5 .8 6.5 0 12.6-4.1 14.8-10.6 2.7-8-1.7-16.9-9.8-19.7z"/><path d="m353.772 216.3c4.5-7.4 2.1-17-5.2-21.4-7.4-4.5-17-2.1-21.4 5.2-10.3 17-23.4 28-40 33.7-8.2 2.8-12.5 11.6-9.7 19.8 2.2 6.5 8.3 10.6 14.8 10.6 1.7 0 3.4-.3 5-.8 23.4-8.1 42.4-24 56.5-47.1z"/><path d="m601.072 233.2v-148.9h-49.6c-10.2 0-17.9-7.3-17.9-17.7s7.6-17.6 17.9-17.6h135c10.2 0 17.9 7.2 17.9 17.6s-7.6 17.7-17.9 17.7h-49.6v148.9c0 10.8-7.2 18.4-18 18.4-10.5.1-17.8-7.6-17.8-18.4z"/><path d="m662.272 172.3c0-48.3 33.9-80.3 81.2-80.3 47.4 0 81.3 32 81.3 80.3 0 48.2-33.9 80.3-81.3 80.3-47.2 0-81.2-32.1-81.2-80.3zm81.2 49c27.1 0 46.4-19.8 46.4-49s-19.3-49-46.4-49-46.4 19.8-46.4 49 19.3 49 46.4 49z"/><path d="m955.772 243.3-47.9-61.2-30.2 26v25.9c0 10.2-6.9 17.6-16.8 17.6-10 0-17-7.3-17-17.6v-170.7c0-10.2 7.1-17.5 17-17.5 9.8 0 16.8 7.2 16.8 17.5v102.9l73.5-63.9c9-7.8999 13.4-9.8 19.8-9.8 8.7 0 15.2 5.5001 15.2 14.4 0 4.7-1.9 9.6-9 15.5l-43.2 37.1 47.6 61.4c5.8 7.8 6.5 10.8 6.5 15.5 0 7.3-6.9 14.8-16.6 14.8-5 0-10.8-1.3-15.7-7.9z"/><path d="m997.972 107.6c0-9.0001 7.098-15.4 16.898-15.4 9.7 0 14.3 5.1 18.7 15.7l40.9 86.8 38-85.9c5.1-12.2 9.8-16.6 19.1-16.6s16.5 6.5 16.5 14.7c0 4.4-1.4 9.8-4.3 16.1l-56.5 123.7c-12.1 26.5-27.4 38.9-52.1 38.9-12.2 0-21.9-2.9-30.5-9.7-5.798-4.6-9.798-11.9-9.798-18.4 0-8.9 6.098-16.2 14.098-16.2 2.6 0 5.7 1.1 8.3 3.6 4.7 5.8 10.7 8.7 16.8 8.7 9.6 0 16.5-5.8 22.6-18.3l-53.5-111.6c-3.198-6.9-5.198-12.2-5.198-16.1z"/><path d="m1145.77 172.3c0-48.3 34-80.3 81.2-80.3 47.4 0 81.3 32 81.3 80.3 0 48.2-33.9 80.3-81.3 80.3-47.2 0-81.2-32.1-81.2-80.3zm81.2 49c27.1 0 46.4-19.8 46.4-49s-19.3-49-46.4-49-46.4 19.8-46.4 49 19.3 49 46.4 49z"/></g></svg>