<svg fill="none" height="327" viewBox="0 0 1322 327" width="1322" xmlns="http://www.w3.org/2000/svg"><g stroke-linecap="round" stroke-linejoin="round"><g stroke="#0068ff" stroke-width="3"><path d="m122.9 156.2c0-.829-.672-1.5-1.5-1.5h-60.2c-.8284 0-1.5.671-1.5 1.5v1.6c0 6.328 5.1716 11.5 11.5 11.5h50.2c.828 0 1.5-.672 1.5-1.5v-.001-.001-.001-.001-.001-.002-.002-.002-.002-.002-.003-.003-.003-.003-.003-.004-.003-.004-.005-.004-.005-.004-.005-.006-.005-.005-.006-.006-.006-.007-.006-.007-.007-.007-.007-.007-.008-.008-.008-.008-.008-.009-.009-.008-.009-.01-.009-.01-.01-.009-.011-.01-.01-.011-.011-.011-.011-.011-.012-.011-.012-.012-.012-.013-.012-.013-.013-.013-.013-.013-.013-.014-.014-.014-.014-.014-.015-.014-.015-.015-.015-.015-.015-.016-.015-.016-.016-.016-.016-.017-.016-.017-.016-.017-.017-.018-.017-.018-.017-.018-.018-.018-.018-.018-.019-.018-.019-.019-.019-.019-.019-.02-.019-.02-.02-.02-.02-.02-.02-.02-.021-.021-.02-.021-.021-.021-.022-.021-.022-.021-.022-.022-.022-.022-.022-.022-.023-.022-.023-.022-.023-.023-.023-.023-.024-.023-.024-.023-.024-.024-.024-.024-.024-.024-.024-.025-.024-.025-.024-.025-.025-.025-.025-.025-.025-.026-.025-.026-.025-.026-.026-.026-.026-.026-.026-.026-.026-.027-.026-.027-.026-.027-.027-.027-.026-.028-.027-.027-.027-.027-.028-.027-.028-.027-.028-.028-.027-.028-.028-.028-.028-.029-.028-.028-.028-.029-.028-.029-.028-.029-.029-.028-.029-.029-.029-.029-.029-.029-.029-.029-.03-.029-.029-.03-.029-.03-.029-.03-.029-.03-.03-.029-.03-.03-.03-.03-.03-.03-.03-.03-.03-.03-.03-.031-.03-.03-.03-.031-.03-.031-.03-.031-.03-.031-.03-.031-.03-.031-.031-.03-.031-.031-.03-.031-.031-.031-.031-.031-.03-.031-.031-.031-.031-.031-.031-.031-.031-.031-.031-.031-.031-.031-.031-.031-.031-.031-.031-.031-.031-.031-.031-.031-.031-.031-.031-.031-.031-.031-.031-.031-.031-.031-.031-.031-.031-.031-.031-.031-.031-.031-.031-.031-.031-.031-.031-.03-.031-.031-.031-.03-.031-.031-.031-.03-.031-.031-.03-.031-.03-.031-.03-.031-.03-.031-.03-.03-.031-.03-.03-.03-.03-.031-.03-.03-.03-.03-.03-.03-.029-.03-.03-.03-.029-.03-.03-.029-.03-.029-.03-.029-.029-.03-.029-.029-.029-.029-.029-.029-.029-.029-.028-.029-.029-.028-.029-.028-.029-.028-.029-.028-.028-.028-.028-.028-.028-.028-.028-.027-.028-.027-.028-.027-.028-.027-.027-.027-.027-.027-.027-.027-.027-.026-.027-.026-.027-.026-.026-.027-.026-.026-.025-.026-.026-.026-.025-.026-.025-.025-.026-.025-.025-.025-.024-.025-.025-.024-.025-.024-.024-.024-.024-.024-.024-.024-.024-.023-.024-.023-.023-.023-.023-.023-.023-.023-.022-.023-.022-.022-.022-.022-.022-.022-.021-.022-.021-.022-.021-.021-.021-.021-.02-.021-.02-.021-.02-.02-.02-.02-.02-.019-.02-.019-.019-.019-.019-.019-.018-.019-.018-.019-.018-.018-.017-.018-.018-.017-.017-.017-.017-.017-.017-.017-.016-.016-.016-.016-.016-.016-.015-.016-.015-.015-.015-.015-.014-.015-.014-.014-.014zm28.106-108.3693c.068.7747.716 1.3692 1.494 1.3692h91.5c7.772 0 14.1 6.3284 14.1 14.1s-6.328 14.1-14.1 14.1h-91.6c-.828 0-1.5.6716-1.5 1.5v8.9c0 .8284.672 1.5 1.5 1.5h50.2c20.372 0 36.9 16.5281 36.9 36.9001v31.6c0 20.371-16.528 36.9-36.9 36.9h-23.9c-.601 0-1.144.358-1.38.911-.235.553-.119 1.193.297 1.627 18.434 19.244 37.905 29.864 69.721 37.618 7.498 1.9 12.112 9.492 10.303 17.095-1.534 6.406-7.316 10.749-13.641 10.749-1.046 0-2.221-.176-3.336-.455l-.005-.002c-40.74-10.035-64.767-24.793-87.046-49.449-.416-.46-1.073-.617-1.652-.394s-.961.779-.961 1.4v55.7c0 7.771-6.328 14.1-14.1 14.1s-14.1-6.329-14.1-14.1v-55.7c0-.621-.382-1.177-.961-1.4s-1.236-.066-1.652.394c-22.2808 24.658-46.3079 39.513-87.0424 49.449-.0401.009-.0798.021-.1189.034-.9776.326-2.0922.423-3.2257.423-6.3253 0-12.1072-4.343-13.6412-10.749l-.0036-.015c-1.9002-7.601 2.7157-15.273 10.2923-17.077l.0077-.002c31.8201-7.753 51.293-18.374 69.7281-37.619.4156-.434.5322-1.074.2963-1.627s-.7787-.911-1.3796-.911h-23.9c-20.3715 0-36.9-16.529-36.9-36.9v-31.6c0-20.372 16.5285-36.9001 36.9-36.9001h50.2c.828 0 1.5-.6716 1.5-1.5v-8.9c0-.8284-.672-1.5-1.5-1.5h-91.5c-7.7715 0-14.1-6.3284-14.1-14.1s6.3285-14.1 14.1-14.1h91.5c.785 0 1.437-.6051 1.496-1.3878.54-7.1993 6.771-12.9122 14.104-12.9122 7.305 0 13.372 5.6885 14.006 12.9308zm-28.106 68.3693c0-.829-.672-1.5-1.5-1.5h-50.2c-6.3284 0-11.5 5.171-11.5 11.5v1.6c0 .828.6716 1.5 1.5 1.5h60.2c.828 0 1.5-.672 1.5-1.5zm28.2 51.6c0 .828.672 1.5 1.5 1.5h50.1c6.334 0 11.485-5.171 11.6-11.473v-.027-1.6c0-.829-.672-1.5-1.5-1.5h-60.2c-.828 0-1.5.671-1.5 1.5v.023.022.023.023.022.023.022.023.023.022.023.023.022.023.023.022.023.023.022.023.023.022.023.023.022.023.023.022.023.023.022.023.023.022.023.023.022.023.022.023.023.022.023.023.022.023.023.022.023.023.022.023.023.022.023.023.022.023.023.022.023.023.022.023.023.022.023.023.022.023.022.023.023.022.023.023.022.023.023.022.023.023.022.023.023.022.023.023.022.023.023.022.023.023.022.023.023.022.023.023.022.023.022.023.023.022.023.023.022.023.023.022.023.023.022.023.023.022.023.023.022.023.023.022.023.023.022.023.023.022.023.023.022.023.022.023.023.022.023.023.022.023.023.022.023.023.022.023.023.022.023.023.022.023.023.022.023.023.022.023.023.022.023.023.022.023.022.023.023.022.023.023.022.023.023.022.023.023.022.023.023.022.023.023.022.023.023.022.023.023.022.023.023.022.023.023.022.023.022.023.023.022.023.023.022.023.023.022.023.023.022.023.023.022.023.023.022.023.023.022.023.023.022.023.023.022.023.023.022.023.023.022.023.022.023.023.022.023.023.022.023.023.022.023.023.022.023.023.022.023.023.022.023.023.022.023.023.022.023.023.022.023.022.023.023.022.023.023.022.023.023.022.023.023.022.023.023.022.023.023.022.023.023.022.023.023.022.023.023.022.023.023.022.023.022.023.023.022.023.023.022.023.023.022.023.023.022.023.023.022.023.023.022.023.023.022.023.023.022.023.023.022.023.023.022.023.023.022.023.022.023.023.022.023.023.022.023.023.022.023.023.022.023.023.022.023.023.022.023.023.022.023.023.022.023.023.022.023.022.023.023.022.023.023.022.023.023.022.023.023.022.023.023.022.023.023.022.023.023.022.023.023.022.023.023.022.023.023.022.023.023.022.023.022.023.023.022.023.023.022.023.023.022.023.023.022.023.023.022.023.023.022.023.023.022.023.023.022.023.023.022.023.023.022.023.022.023.023.022.023.023.022.023.023.022.023.023.022.023.023.022.023.023.022.023.023.022.023.023.022.023.023.022.023.022.023.023.022.023.023.022.023.023.022.023.023.022.023.023.022.023.023.022.023.023.022.023.023.022.023.023.022.023.023.022.023.023.022.023.022.023.023.022.023.023.022.023.023.022.023.023.022.023.023.022.023.023.022.023.023.022zm61.6-38.5c.828 0 1.5-.672 1.5-1.5v-1.6c0-6.329-5.172-11.5-11.5-11.5h-50.2c-.828 0-1.5.671-1.5 1.5v11.6c0 .828.672 1.5 1.5 1.5z"/><path d="m465.1 184.8c-.273 0-.529.073-.749.2h-49.351c-.828 0-1.5.672-1.5 1.5v53.9c0 13.035-4.071 23.61-11.152 30.919-7.077 7.303-17.291 11.481-29.848 11.481-13.823 0-26.346-6.569-33.656-17.338-4.34-6.517-2.614-15.282 3.791-19.616 6.519-4.343 15.289-2.616 19.622 3.794l.001.001c2.492 3.679 6.986 4.859 10.242 4.859 4.37 0 7.757-.808 9.96-3.292 2.154-2.429 2.84-6.104 2.84-10.908v-53.9c0-.828-.672-1.5-1.5-1.5h-50.2c-20.372 0-36.9-16.528-36.9-36.9v-18.8c0-20.372 16.528-36.9 36.9-36.9h131.5c20.371 0 36.9 16.528 36.9 36.9v18.7c0 20.372-16.529 36.9-36.9 36.9zm-143-55.6v18.8c0 6.328 5.172 11.5 11.5 11.5h131.5c6.328 0 11.5-5.172 11.5-11.5v-18.8c0-6.328-5.172-11.5-11.5-11.5h-131.5c-6.328 0-11.5 5.172-11.5 11.5z"/><path d="m414.9 52.6c0 .8284.672 1.5 1.5 1.5h90.1c7.772 0 14.1 6.3284 14.1 14.1s-6.328 14.1-14.1 14.1h-214.2c-7.759 0-14.1-6.4159-14.1-14.2 0-7.7716 6.328-14.1 14.1-14.1h90.1c.828 0 1.5-.6716 1.5-1.5v-3.5c0-8.5716 6.928-15.5 15.5-15.5s15.5 6.9284 15.5 15.5z"/><path d="m450.879 196.082.008-.005c6.588-4.061 15.261-1.99 19.331 4.701 10.457 17.26 23.821 28.512 40.794 34.34 7.332 2.536 11.299 10.596 8.867 17.802-1.987 5.869-7.5 9.58-13.379 9.58-1.476 0-3-.185-4.501-.715l-.016-.005c-23.133-7.875-41.865-23.429-55.801-46.359l-.005-.008c-4.061-6.589-1.99-15.262 4.702-19.331z"/><path d="m348.021 196.182.005.003c6.586 3.97 8.761 12.643 4.693 19.334-13.934 22.828-32.661 38.479-55.688 46.456-1.471.458-3.012.725-4.531.725-5.88 0-11.393-3.712-13.379-9.581l-.002-.004c-2.533-7.419 1.353-15.364 8.766-17.896h.002c16.974-5.829 30.338-17.081 40.796-34.342l.002-.003c3.97-6.587 12.644-8.762 19.336-4.692z"/><path d="m602.8 84.3c0-.8284-.672-1.5-1.5-1.5h-49.6c-9.405 0-16.4-6.6618-16.4-16.2 0-9.5325 6.889-16.1 16.4-16.1h135c9.417 0 16.4 6.573 16.4 16.1 0 9.5437-6.9 16.2-16.4 16.2h-49.6c-.828 0-1.5.6716-1.5 1.5v148.9c0 5.062-1.682 9.271-4.527 12.206-2.84 2.93-6.938 4.694-11.973 4.694h-.014c-4.865.046-8.909-1.706-11.742-4.652-2.839-2.952-4.544-7.19-4.544-12.248z"/><path d="m664 172.3c0-23.786 8.34-43.461 22.41-57.189 14.075-13.732 33.983-21.611 57.29-21.611 23.357 0 43.291 7.879 57.378 21.612 14.082 13.728 22.422 33.402 22.422 57.188 0 23.736-8.339 43.41-22.423 57.151-14.087 13.746-34.021 21.649-57.377 21.649-23.255 0-43.164-7.903-57.252-21.649-14.085-13.741-22.448-33.417-22.448-57.151zm79.7 50.5c13.929 0 25.931-5.096 34.447-14.014 8.512-8.914 13.453-21.551 13.453-36.486s-4.941-27.572-13.453-36.486c-8.516-8.918-20.518-14.014-34.447-14.014s-25.931 5.096-34.447 14.014c-8.512 8.914-13.453 21.551-13.453 36.486s4.941 27.572 13.453 36.486c8.516 8.918 20.518 14.014 34.447 14.014z"/><path d="m957.204 242.406c-.007-.01-.015-.02-.023-.03l-47.9-61.2c-.252-.323-.626-.529-1.034-.569s-.815.089-1.126.356l-30.2 26c-.331.285-.521.7-.521 1.137v25.9c0 9.448-6.303 16.1-15.3 16.1-4.621 0-8.472-1.679-11.17-4.478-2.702-2.804-4.33-6.817-4.33-11.622v-170.7c0-9.4123 6.469-16 15.5-16 4.519 0 8.321 1.6529 10.995 4.4283 2.677 2.7788 4.305 6.7674 4.305 11.5717v102.9c0 .588.343 1.121.878 1.365s1.163.153 1.606-.233l73.5-63.9.006-.005c4.471-3.9248 7.699-6.2665 10.538-7.639 2.785-1.3465 5.254-1.788 8.272-1.788 4.037 0 7.456 1.2734 9.849 3.4681 2.378 2.1813 3.851 5.3689 3.851 9.4319 0 4.146-1.608 8.654-8.459 14.346l-.018.016-43.2 37.1c-.607.521-.698 1.425-.209 2.057l47.592 61.388c2.869 3.861 4.396 6.429 5.221 8.55.806 2.071.973 3.79.973 6.043 0 6.398-6.153 13.3-15.1 13.3-4.672 0-9.956-1.179-14.496-7.294z"/><path d="m1032.41 108.475c.01.022.02.043.03.064l40.9 86.8c.25.532.79.868 1.38.861s1.11-.356 1.35-.893l38-85.9c.01-.01.01-.019.01-.029 2.53-6.049 4.88-9.9362 7.59-12.3283 2.63-2.3261 5.75-3.3497 10.13-3.3497 8.63 0 15 5.9812 15 13.2 0 4.103-1.31 9.281-4.16 15.473v.004l-56.5 123.7c-6 13.128-12.72 22.61-20.87 28.817-8.13 6.182-17.79 9.206-29.87 9.206-11.93 0-21.28-2.824-29.57-9.375-5.52-4.377-9.23-11.273-9.23-17.225 0-8.293 5.63-14.7 12.6-14.7 2.17 0 4.88.92 7.2 3.119 4.94 6.057 11.32 9.181 17.9 9.181 5.14 0 9.6-1.566 13.56-4.801 3.92-3.203 7.29-7.991 10.39-14.341.2-.412.2-.893 0-1.306l-53.49-111.583c0-.003 0-.006 0-.009-1.59-3.429-2.87-6.418-3.74-9.013-.88-2.609-1.32-4.732-1.32-6.447 0-8.0392 6.29-13.9 15.4-13.9 4.55 0 7.75 1.1828 10.34 3.4939 2.65 2.3694 4.8 6.0371 6.97 11.2811z"/><path d="m1147.5 172.3c0-23.785 8.36-43.46 22.45-57.188 14.08-13.734 33.99-21.612 57.25-21.612 23.36 0 43.29 7.879 57.38 21.612 14.08 13.728 22.42 33.402 22.42 57.188 0 23.736-8.34 43.41-22.42 57.151-14.09 13.746-34.02 21.649-57.38 21.649-23.25 0-43.16-7.903-57.25-21.649-14.09-13.741-22.45-33.417-22.45-57.151zm79.7 50.5c13.93 0 25.93-5.096 34.45-14.014 8.51-8.914 13.45-21.551 13.45-36.486s-4.94-27.572-13.45-36.486c-8.52-8.918-20.52-14.014-34.45-14.014s-25.93 5.096-34.45 14.014c-8.51 8.914-13.45 21.551-13.45 36.486s4.94 27.572 13.45 36.486c8.52 8.918 20.52 14.014 34.45 14.014z"/></g><g stroke="#ff3801" stroke-dasharray=".1 8" stroke-miterlimit="10" stroke-width="2"><path d="m1 49h1320"/><path d="m1 246h1320"/><path d="m1 97h1320"/><path d="m1 281h1320"/></g></g><g fill="#ff3801"><path d="m535.396 28.3662c2.917 0 5.2-.9643 6.812-2.8198.585-.6958 1.037-1.6968 1.037-2.3682 0-.8545-.659-1.5381-1.477-1.5381-.525 0-1.013.232-1.489.8545-1.05 1.7456-2.6 2.6978-4.846 2.6978-3.321 0-5.616-2.478-5.616-5.9693 0-3.5156 2.295-5.9936 5.616-5.9936 2.246 0 3.82.9277 4.846 2.6855.464.6348.976.8667 1.477.8667.83 0 1.489-.6958 1.489-1.5503 0-.7202-.464-1.7211-1.099-2.4536-1.586-1.831-3.869-2.7221-6.75-2.7221-5.2 0-8.838 3.7597-8.838 9.1674 0 5.3956 3.638 9.1431 8.838 9.1431zm22.058-15.8325c-.684-1.6846-1.49-2.478-3.04-2.478-1.526 0-2.331.7934-3.015 2.478l-5.432 13.2568c-.171.4029-.232.7813-.232 1.0376 0 .8179.708 1.4893 1.514 1.4893.793 0 1.318-.3662 1.562-1.0132l1.331-3.3813h8.557l1.33 3.3813c.257.647.769 1.0132 1.563 1.0132.818 0 1.513-.6714 1.513-1.4893 0-.2563-.061-.6347-.219-1.0376zm-3.028.5371 3.089 7.8491h-6.189zm13.757-2.6489c-.94 0-1.575.6592-1.575 1.6113v14.624c0 .9522.635 1.6236 1.575 1.6236.952 0 1.587-.6714 1.587-1.6236v-4.834h4.224c3.601 0 6.335-2.2094 6.335-5.7006 0-3.4546-2.734-5.7007-6.335-5.7007zm1.587 8.3984v-5.3955h4.321c1.758 0 2.942 1.0742 2.942 2.6978 0 1.6235-1.184 2.6977-2.942 2.6977zm21.997 9.5459c4.089 0 6.738-2.0996 6.738-5.4809 0-3.0396-1.721-4.358-4.773-4.9927l-2.942-.6226c-1.636-.3296-2.539-.7934-2.539-2.185 0-1.3062 1.172-2.0142 3.04-2.0142 2.124 0 3.759.9399 4.455 2.1973.415.476.867.6714 1.416.6714.855 0 1.367-.6592 1.367-1.5259 0-1.0498-.671-2.2339-1.77-2.9419-1.184-.7691-2.954-1.416-5.188-1.416-4.065 0-6.616 2.063-6.616 5.2856 0 2.9053 1.636 4.3823 4.785 5.0049l3.028.5981c1.66.3174 2.453.9522 2.453 2.2095 0 1.3672-1.147 2.1851-3.259 2.1851-2.344 0-3.98-.8911-4.92-2.5269-.268-.4028-.683-.5981-1.123-.5981-.83 0-1.477.6958-1.477 1.5503 0 1.0376.623 2.2216 1.673 2.9907 1.367 1.0132 3.174 1.6113 5.652 1.6113zm33.19-18.2251c-.94 0-1.575.6592-1.575 1.6113v5.8838h-8.533v-5.8838c0-.9521-.635-1.6113-1.587-1.6113-.94 0-1.574.6592-1.574 1.6113v14.9048c0 .9522.634 1.6236 1.574 1.6236.952 0 1.587-.6714 1.587-1.6236v-6.018h8.533v6.018c0 .9522.635 1.6236 1.575 1.6236.939 0 1.574-.6714 1.574-1.6236v-14.9048c0-.9521-.635-1.6113-1.574-1.6113zm10.241 14.7461v-4.3091h7.092c.855 0 1.514-.5981 1.514-1.4648 0-.8545-.647-1.4771-1.514-1.4771h-7.092v-4.1015h7.922c.916 0 1.587-.647 1.587-1.5625 0-.9156-.671-1.5503-1.587-1.5503h-9.509c-.94 0-1.575.6592-1.575 1.6113v14.3433c0 .9521.635 1.6235 1.575 1.6235h9.558c.915 0 1.587-.647 1.587-1.5625s-.672-1.5503-1.587-1.5503zm16.247 3.3936c.952 0 1.587-.6714 1.587-1.6236v-14.9048c0-.9521-.635-1.6113-1.587-1.6113-.94 0-1.575.6592-1.575 1.6113v14.9048c0 .9522.635 1.6236 1.575 1.6236zm15.185-10.1197c-.855 0-1.55.5371-1.55 1.5015 0 .8423.695 1.477 1.55 1.477h5.212c-.11 2.5147-1.953 4.1138-4.944 4.1138-3.564 0-5.908-2.5146-5.908-6.0303 0-3.54 2.381-6.0669 5.823-6.0669 2.307 0 3.821.94 4.785 2.2461.513.4761.94.6592 1.514.6592.732 0 1.416-.4883 1.416-1.4038 0-.9888-.806-2.1484-1.917-2.9297-1.355-.9643-3.259-1.6723-5.713-1.6723-5.31 0-9.167 3.7841-9.167 9.1919 0 5.3833 3.662 9.1186 9.07 9.1186 4.907 0 8.252-3.0395 8.252-8.3618v-.2441c0-1.0621-.733-1.5992-1.648-1.5992zm26.147-8.02c-.94 0-1.575.6592-1.575 1.6113v5.8838h-8.533v-5.8838c0-.9521-.634-1.6113-1.586-1.6113-.94 0-1.575.6592-1.575 1.6113v14.9048c0 .9522.635 1.6236 1.575 1.6236.952 0 1.586-.6714 1.586-1.6236v-6.018h8.533v6.018c0 .9522.635 1.6236 1.575 1.6236s1.575-.6714 1.575-1.6236v-14.9048c0-.9521-.635-1.6113-1.575-1.6113zm7.018.2808c-.915 0-1.587.6347-1.587 1.5503 0 .9155.672 1.5625 1.587 1.5625h4.371v13.1225c0 .9522.634 1.6236 1.574 1.6236s1.575-.6714 1.575-1.6236v-13.1225h4.37c.916 0 1.587-.647 1.587-1.5625 0-.9156-.671-1.5503-1.587-1.5503z"/><path d="m383.349 17.978 5.383-4.9194c.635-.5737.83-1.0132.83-1.5869 0-.6592-.647-1.2696-1.343-1.2696-.586 0-.964.2076-1.343.5494l-8.569 7.8857v-6.8848c0-.9521-.647-1.6113-1.587-1.6113s-1.587.6592-1.587 1.6113v14.9048c0 .9522.647 1.6236 1.587 1.6236s1.587-.6714 1.587-1.6236v-4.0649l2.783-2.5513 5.957 7.5073c.379.4883.977.7325 1.465.7325.818 0 1.538-.5982 1.538-1.3184 0-.4517-.171-.7812-.671-1.416zm24.23-6.4331c0-.769-.635-1.4038-1.501-1.4038-.769 0-1.172.4883-1.563 1.062l-4.565 6.5674-4.566-6.5674c-.39-.5737-.793-1.062-1.562-1.062-.867 0-1.514.6348-1.514 1.4038 0 .3296.122.6104.293.8545l5.762 8.252v6.0058c0 .9522.647 1.6236 1.575 1.6236.952 0 1.586-.6714 1.586-1.6236v-6.018l5.774-8.2398c.171-.2441.281-.5249.281-.8545zm12.048 16.8213c5.298 0 9.045-3.7842 9.045-9.1553 0-5.3833-3.747-9.1552-9.045-9.1552-5.31 0-9.058 3.7719-9.058 9.1552 0 5.3711 3.748 9.1553 9.058 9.1553zm0-3.1738c-3.381 0-5.798-2.4414-5.798-5.9815 0-3.5522 2.417-5.9814 5.798-5.9814 3.369 0 5.798 2.4292 5.798 5.9814 0 3.5401-2.429 5.9815-5.798 5.9815z"/><path d="m120.563 10.4219c-.916 0-1.587.6347-1.587 1.5503 0 .9155.671 1.5625 1.587 1.5625h4.37v13.1225c0 .9522.635 1.6236 1.575 1.6236s1.575-.6714 1.575-1.6236v-13.1225h4.37c.915 0 1.587-.647 1.587-1.5625 0-.9156-.672-1.5503-1.587-1.5503zm25.573 17.9443c5.298 0 9.046-3.7842 9.046-9.1553 0-5.3833-3.748-9.1552-9.046-9.1552-5.31 0-9.057 3.7719-9.057 9.1552 0 5.3711 3.747 9.1553 9.057 9.1553zm0-3.1738c-3.381 0-5.798-2.4414-5.798-5.9815 0-3.5522 2.417-5.9814 5.798-5.9814 3.369 0 5.799 2.4292 5.799 5.9814 0 3.5401-2.43 5.9815-5.799 5.9815z"/><path d="m1019.93 65.6313c.28-.3295.4-.6713.4-1.0864 0-.7812-.67-1.4038-1.57-1.4038-.66 0-1.1.3296-1.53.8423l-4.68 5.8228-4.75-5.8228c-.45-.5371-.92-.8423-1.54-.8423-.88 0-1.55.6226-1.55 1.4038 0 .4151.12.7447.41 1.0987l5.35 6.5063-5.35 6.6406c-.29.354-.41.6714-.41 1.0865 0 .769.67 1.4038 1.55 1.4038.62 0 1.09-.2686 1.54-.8545l4.7-5.9937 4.73 5.9937c.48.6103.96.8545 1.53.8545.9 0 1.57-.6348 1.57-1.4038 0-.4395-.13-.7569-.4-1.0865l-5.37-6.7016zm12.45 9.253c.93 0 1.6-.6348 1.6-1.5381s-.67-1.5381-1.6-1.5381h-7.15c-.92 0-1.6.6348-1.6 1.5381s.68 1.5381 1.6 1.5381zm19.7-11.7432c-.94 0-1.57.6592-1.57 1.6113v5.8838h-8.53v-5.8838c0-.9521-.64-1.6113-1.59-1.6113-.94 0-1.57.6592-1.57 1.6113v14.9048c0 .9522.63 1.6236 1.57 1.6236.95 0 1.59-.6714 1.59-1.6236v-6.018h8.53v6.018c0 .9522.63 1.6236 1.57 1.6236s1.58-.6714 1.58-1.6236v-14.9048c0-.9521-.64-1.6113-1.58-1.6113zm10.25 14.7461v-4.3091h7.09c.85 0 1.51-.5981 1.51-1.4648 0-.8545-.65-1.4771-1.51-1.4771h-7.09v-4.1015h7.92c.91 0 1.58-.647 1.58-1.5625 0-.9156-.67-1.5503-1.58-1.5503h-9.51c-.94 0-1.58.6592-1.58 1.6113v14.3433c0 .9521.64 1.6235 1.58 1.6235h9.56c.91 0 1.58-.647 1.58-1.5625s-.67-1.5503-1.58-1.5503zm16.24 3.3936c.95 0 1.59-.6714 1.59-1.6236v-14.9048c0-.9521-.64-1.6113-1.59-1.6113-.94 0-1.57.6592-1.57 1.6113v14.9048c0 .9522.63 1.6236 1.57 1.6236zm15.19-10.1197c-.86 0-1.55.5371-1.55 1.5015 0 .8423.69 1.477 1.55 1.477h5.21c-.11 2.5147-1.95 4.1138-4.94 4.1138-3.57 0-5.91-2.5146-5.91-6.0303 0-3.54 2.38-6.0669 5.82-6.0669 2.31 0 3.82.94 4.79 2.2461.51.4761.94.6592 1.51.6592.73 0 1.42-.4883 1.42-1.4038 0-.9888-.81-2.1484-1.92-2.9297-1.36-.9643-3.26-1.6723-5.71-1.6723-5.31 0-9.17 3.7841-9.17 9.1919 0 5.3833 3.66 9.1186 9.07 9.1186 4.91 0 8.25-3.0395 8.25-8.3618v-.2441c0-1.0621-.73-1.5992-1.65-1.5992zm26.14-8.02c-.94 0-1.57.6592-1.57 1.6113v5.8838h-8.53v-5.8838c0-.9521-.64-1.6113-1.59-1.6113-.94 0-1.57.6592-1.57 1.6113v14.9048c0 .9522.63 1.6236 1.57 1.6236.95 0 1.59-.6714 1.59-1.6236v-6.018h8.53v6.018c0 .9522.63 1.6236 1.57 1.6236s1.58-.6714 1.58-1.6236v-14.9048c0-.9521-.64-1.6113-1.58-1.6113zm7.02.2808c-.91 0-1.58.6347-1.58 1.5503 0 .9155.67 1.5625 1.58 1.5625h4.37v13.1225c0 .9522.64 1.6236 1.58 1.6236s1.57-.6714 1.57-1.6236v-13.1225h4.37c.92 0 1.59-.647 1.59-1.5625 0-.9156-.67-1.5503-1.59-1.5503z"/><path d="m565.248 265.04c1.574-.708 2.465-1.99 2.465-3.638 0-3.051-2.295-4.98-5.896-4.98h-6.323c-.928 0-1.55.671-1.55 1.611v14.356c0 .94.622 1.611 1.55 1.611h6.384c3.638 0 5.957-2.087 5.957-5.2 0-1.721-.952-3.052-2.587-3.76zm-.855-3.394c0 1.282-.952 2.076-2.71 2.076h-4.59v-4.261h4.59c1.721 0 2.71.818 2.71 2.185zm-7.3 9.314v-4.626h4.676c1.77 0 2.758.867 2.758 2.283 0 1.489-1.013 2.343-2.758 2.343zm25.293-12.426c-.684-1.685-1.49-2.478-3.04-2.478-1.526 0-2.331.793-3.015 2.478l-5.432 13.257c-.171.402-.232.781-.232 1.037 0 .818.708 1.489 1.514 1.489.793 0 1.318-.366 1.562-1.013l1.331-3.381h8.557l1.33 3.381c.257.647.769 1.013 1.563 1.013.818 0 1.514-.671 1.514-1.489 0-.256-.061-.635-.22-1.037zm-3.028.537 3.089 7.849h-6.189zm18.799 15.295c4.089 0 6.738-2.099 6.738-5.481 0-3.039-1.721-4.358-4.773-4.992l-2.942-.623c-1.636-.33-2.539-.793-2.539-2.185 0-1.306 1.172-2.014 3.04-2.014 2.124 0 3.759.94 4.455 2.197.415.476.867.671 1.416.671.855 0 1.367-.659 1.367-1.525 0-1.05-.671-2.234-1.77-2.942-1.184-.769-2.954-1.416-5.188-1.416-4.065 0-6.616 2.063-6.616 5.285 0 2.906 1.636 4.383 4.785 5.005l3.028.598c1.66.318 2.453.952 2.453 2.21 0 1.367-1.147 2.185-3.259 2.185-2.344 0-3.979-.891-4.919-2.527-.269-.403-.684-.598-1.123-.598-.831 0-1.477.696-1.477 1.55 0 1.038.622 2.222 1.672 2.991 1.367 1.013 3.174 1.611 5.652 1.611zm14.794-3.479v-4.309h7.092c.855 0 1.514-.598 1.514-1.465 0-.854-.647-1.477-1.514-1.477h-7.092v-4.101h7.923c.915 0 1.586-.647 1.586-1.563 0-.915-.671-1.55-1.586-1.55h-9.51c-.94 0-1.574.659-1.574 1.611v14.343c0 .953.634 1.624 1.574 1.624h9.558c.916 0 1.587-.647 1.587-1.562 0-.916-.671-1.551-1.587-1.551zm17.834 0v-13.135c0-.952-.635-1.611-1.587-1.611-.94 0-1.574.659-1.574 1.611v14.637c0 .94.634 1.611 1.574 1.611h8.972c.916 0 1.587-.647 1.587-1.562 0-.916-.671-1.551-1.587-1.551zm14.343 3.394c.952 0 1.587-.672 1.587-1.624v-14.905c0-.952-.635-1.611-1.587-1.611-.94 0-1.575.659-1.575 1.611v14.905c0 .952.635 1.624 1.575 1.624zm20.495-18.128c-.928 0-1.575.659-1.575 1.599v11.194l-7.727-11.267c-.83-1.172-1.342-1.526-2.173-1.526-1.159 0-1.916.806-1.916 2.039v14.477c0 .94.622 1.6 1.562 1.6.953 0 1.587-.66 1.587-1.6v-11.01l7.788 11.181c.733 1.038 1.343 1.429 2.149 1.429 1.099 0 1.892-.818 1.892-2.051v-14.466c0-.94-.647-1.599-1.587-1.599zm10.266 14.734v-4.309h7.092c.854 0 1.514-.598 1.514-1.465 0-.854-.647-1.477-1.514-1.477h-7.092v-4.101h7.922c.916 0 1.587-.647 1.587-1.563 0-.915-.671-1.55-1.587-1.55h-9.509c-.94 0-1.575.659-1.575 1.611v14.343c0 .953.635 1.624 1.575 1.624h9.558c.915 0 1.587-.647 1.587-1.562 0-.916-.672-1.551-1.587-1.551z"/><path d="m990.568 297.422c-.94 0-1.574.659-1.574 1.611v14.356c0 .94.634 1.611 1.574 1.611h5.664c5.148 0 8.548-3.601 8.548-8.789 0-5.176-3.4-8.789-8.548-8.789zm1.587 14.49v-11.414h4.065c3.162 0 5.22 2.393 5.22 5.713 0 3.345-2.058 5.701-5.22 5.701zm20.475-.025v-4.309h7.09c.85 0 1.51-.598 1.51-1.465 0-.854-.65-1.477-1.51-1.477h-7.09v-4.101h7.92c.91 0 1.59-.647 1.59-1.563 0-.915-.68-1.55-1.59-1.55h-9.51c-.94 0-1.58.659-1.58 1.611v14.343c0 .953.64 1.624 1.58 1.624h9.56c.91 0 1.58-.647 1.58-1.562 0-.916-.67-1.551-1.58-1.551zm21.28 3.479c4.09 0 6.74-2.099 6.74-5.481 0-3.039-1.72-4.358-4.77-4.992l-2.94-.623c-1.64-.33-2.54-.793-2.54-2.185 0-1.306 1.17-2.014 3.04-2.014 2.12 0 3.76.94 4.45 2.197.42.476.87.671 1.42.671.85 0 1.37-.659 1.37-1.525 0-1.05-.67-2.234-1.77-2.942-1.19-.769-2.96-1.416-5.19-1.416-4.07 0-6.62 2.063-6.62 5.285 0 2.906 1.64 4.383 4.79 5.005l3.03.598c1.66.318 2.45.952 2.45 2.21 0 1.367-1.15 2.185-3.26 2.185-2.34 0-3.98-.891-4.92-2.527-.27-.403-.68-.598-1.12-.598-.83 0-1.48.696-1.48 1.55 0 1.038.62 2.222 1.67 2.991 1.37 1.013 3.18 1.611 5.65 1.611zm19.66 0c2.91 0 5.2-.964 6.81-2.82.58-.695 1.04-1.696 1.04-2.368 0-.854-.66-1.538-1.48-1.538-.53 0-1.01.232-1.49.855-1.05 1.745-2.6 2.697-4.85 2.697-3.32 0-5.61-2.478-5.61-5.969 0-3.515 2.29-5.994 5.61-5.994 2.25 0 3.82.928 4.85 2.686.46.635.98.867 1.48.867.83 0 1.49-.696 1.49-1.551 0-.72-.47-1.721-1.1-2.453-1.59-1.831-3.87-2.722-6.75-2.722-5.2 0-8.84 3.759-8.84 9.167 0 5.396 3.64 9.143 8.84 9.143zm15.51-3.479v-4.309h7.09c.86 0 1.52-.598 1.52-1.465 0-.854-.65-1.477-1.52-1.477h-7.09v-4.101h7.92c.92 0 1.59-.647 1.59-1.563 0-.915-.67-1.55-1.59-1.55h-9.5c-.94 0-1.58.659-1.58 1.611v14.343c0 .953.64 1.624 1.58 1.624h9.55c.92 0 1.59-.647 1.59-1.562 0-.916-.67-1.551-1.59-1.551zm28.07-14.734c-.93 0-1.58.659-1.58 1.599v11.194l-7.73-11.267c-.83-1.172-1.34-1.526-2.17-1.526-1.16 0-1.92.806-1.92 2.039v14.477c0 .94.63 1.6 1.57 1.6.95 0 1.58-.66 1.58-1.6v-11.01l7.79 11.181c.73 1.038 1.34 1.429 2.15 1.429 1.1 0 1.89-.818 1.89-2.051v-14.466c0-.94-.64-1.599-1.58-1.599zm8.67.269c-.94 0-1.57.659-1.57 1.611v14.356c0 .94.63 1.611 1.57 1.611h5.67c5.15 0 8.54-3.601 8.54-8.789 0-5.176-3.39-8.789-8.54-8.789zm1.59 14.49v-11.414h4.07c3.16 0 5.22 2.393 5.22 5.713 0 3.345-2.06 5.701-5.22 5.701zm20.47-.025v-4.309h7.09c.86 0 1.52-.598 1.52-1.465 0-.854-.65-1.477-1.52-1.477h-7.09v-4.101h7.92c.92 0 1.59-.647 1.59-1.563 0-.915-.67-1.55-1.59-1.55h-9.51c-.94 0-1.57.659-1.57 1.611v14.343c0 .953.63 1.624 1.57 1.624h9.56c.92 0 1.59-.647 1.59-1.562 0-.916-.67-1.551-1.59-1.551zm24.98-3.784c2.06-.842 3.43-2.673 3.43-5.09 0-3.321-2.64-5.591-6.12-5.591h-6.04c-.94 0-1.58.659-1.58 1.611v14.624c0 .952.64 1.624 1.58 1.624.95 0 1.59-.672 1.59-1.624v-5.053h3.82l4.01 5.944c.31.44.76.721 1.33.721.82 0 1.54-.635 1.54-1.368 0-.354-.1-.744-.43-1.208zm-2.65-7.678c1.66 0 2.79 1.025 2.79 2.588 0 1.574-1.13 2.588-2.79 2.588h-4.49v-5.176z"/><path d="m107.307 311.887v-4.309h7.092c.854 0 1.514-.598 1.514-1.465 0-.854-.647-1.477-1.514-1.477h-7.092v-4.101h7.922c.916 0 1.587-.647 1.587-1.563 0-.915-.671-1.55-1.587-1.55h-9.509c-.94 0-1.575.659-1.575 1.611v14.343c0 .953.635 1.624 1.575 1.624h9.558c.915 0 1.587-.647 1.587-1.562 0-.916-.672-1.551-1.587-1.551zm24.377-12.353c-.684-1.685-1.49-2.478-3.04-2.478-1.526 0-2.332.793-3.015 2.478l-5.432 13.257c-.171.402-.232.781-.232 1.037 0 .818.708 1.489 1.514 1.489.793 0 1.318-.366 1.562-1.013l1.331-3.381h8.557l1.33 3.381c.257.647.769 1.013 1.563 1.013.818 0 1.513-.671 1.513-1.489 0-.256-.061-.635-.219-1.037zm-3.028.537 3.089 7.849h-6.189zm18.799 15.295c4.089 0 6.738-2.099 6.738-5.481 0-3.039-1.721-4.358-4.773-4.992l-2.942-.623c-1.636-.33-2.539-.793-2.539-2.185 0-1.306 1.172-2.014 3.04-2.014 2.124 0 3.759.94 4.455 2.197.415.476.867.671 1.416.671.855 0 1.367-.659 1.367-1.525 0-1.05-.671-2.234-1.77-2.942-1.184-.769-2.954-1.416-5.188-1.416-4.065 0-6.616 2.063-6.616 5.285 0 2.906 1.636 4.383 4.785 5.005l3.028.598c1.66.318 2.453.952 2.453 2.21 0 1.367-1.147 2.185-3.259 2.185-2.344 0-3.98-.891-4.92-2.527-.268-.403-.683-.598-1.123-.598-.83 0-1.477.696-1.477 1.55 0 1.038.623 2.222 1.673 2.991 1.367 1.013 3.174 1.611 5.652 1.611zm11.571-17.944c-.915 0-1.587.635-1.587 1.55 0 .916.672 1.563 1.587 1.563h4.37v13.122c0 .952.635 1.624 1.575 1.624s1.575-.672 1.575-1.624v-13.122h4.37c.916 0 1.587-.647 1.587-1.563 0-.915-.671-1.55-1.587-1.55z"/><path d="m353.015 315.366c2.918 0 5.2-.964 6.812-2.82.586-.695 1.037-1.696 1.037-2.368 0-.854-.659-1.538-1.477-1.538-.525 0-1.013.232-1.489.855-1.05 1.745-2.6 2.697-4.846 2.697-3.321 0-5.615-2.478-5.615-5.969 0-3.515 2.294-5.994 5.615-5.994 2.246 0 3.821.928 4.846 2.686.464.635.977.867 1.477.867.83 0 1.489-.696 1.489-1.551 0-.72-.464-1.721-1.098-2.453-1.587-1.831-3.87-2.722-6.751-2.722-5.2 0-8.838 3.759-8.838 9.167 0 5.396 3.638 9.143 8.838 9.143zm22.058-15.832c-.684-1.685-1.49-2.478-3.04-2.478-1.526 0-2.331.793-3.015 2.478l-5.432 13.257c-.171.402-.232.781-.232 1.037 0 .818.708 1.489 1.514 1.489.793 0 1.318-.366 1.562-1.013l1.331-3.381h8.557l1.33 3.381c.257.647.769 1.013 1.563 1.013.818 0 1.514-.671 1.514-1.489 0-.256-.061-.635-.22-1.037zm-3.028.537 3.089 7.849h-6.189zm13.757-2.649c-.94 0-1.574.659-1.574 1.611v14.624c0 .952.634 1.624 1.574 1.624.952 0 1.587-.672 1.587-1.624v-4.834h4.224c3.601 0 6.335-2.209 6.335-5.7 0-3.455-2.734-5.701-6.335-5.701zm1.587 8.398v-5.395h4.321c1.758 0 2.942 1.074 2.942 2.698 0 1.623-1.184 2.697-2.942 2.697zm16.955 9.461c.952 0 1.587-.672 1.587-1.624v-14.905c0-.952-.635-1.611-1.587-1.611-.94 0-1.574.659-1.574 1.611v14.905c0 .952.634 1.624 1.574 1.624zm7.043-17.859c-.915 0-1.587.635-1.587 1.55 0 .916.672 1.563 1.587 1.563h4.37v13.122c0 .952.635 1.624 1.575 1.624s1.575-.672 1.575-1.624v-13.122h4.37c.915 0 1.587-.647 1.587-1.563 0-.915-.672-1.55-1.587-1.55zm27.038 2.112c-.683-1.685-1.489-2.478-3.039-2.478-1.526 0-2.332.793-3.015 2.478l-5.433 13.257c-.17.402-.231.781-.231 1.037 0 .818.708 1.489 1.513 1.489.794 0 1.319-.366 1.563-1.013l1.33-3.381h8.557l1.331 3.381c.256.647.769 1.013 1.562 1.013.818 0 1.514-.671 1.514-1.489 0-.256-.061-.635-.22-1.037zm-3.027.537 3.088 7.849h-6.189zm15.344 11.816v-13.135c0-.952-.635-1.611-1.587-1.611-.94 0-1.575.659-1.575 1.611v14.637c0 .94.635 1.611 1.575 1.611h8.972c.915 0 1.587-.647 1.587-1.562 0-.916-.672-1.551-1.587-1.551z"/></g></svg>