<svg fill="none" height="340" viewBox="0 0 376 340" width="376" xmlns="http://www.w3.org/2000/svg" xmlns:xlink="http://www.w3.org/1999/xlink"><clipPath id="a"><path d="m.5 0h375v340h-375z"/></clipPath><g clip-path="url(#a)"><g stroke-linecap="round" stroke-linejoin="round"><g stroke="#0068ff" stroke-width="1.53293"><path d="m104.8 262.401c-.139 0-.27.037-.383.102h-25.217c-.4233 0-.7665.343-.7665.767v27.541c0 6.661-2.0803 12.065-5.6986 15.799-3.6159 3.732-8.8352 5.867-15.2515 5.867-7.063 0-13.4623-3.357-17.1972-8.859-2.2179-3.33-1.3362-7.809 1.937-10.024 3.331-2.219 7.8119-1.337 10.0264 1.939h.0004c1.2732 1.88 3.5697 2.483 5.2334 2.483 2.2329 0 3.9638-.413 5.0892-1.682 1.1008-1.241 1.4513-3.119 1.4513-5.574v-27.541c0-.424-.3431-.767-.7664-.767h-25.6511c-10.4094 0-18.8551-8.446-18.8551-18.855v-9.606c0-10.41 8.4457-18.855 18.8551-18.855h67.1936c10.409 0 18.855 8.445 18.855 18.855v9.555c0 10.409-8.446 18.855-18.855 18.855zm-73.0698-28.41v9.606c0 3.234 2.6425 5.876 5.8762 5.876h67.1936c3.234 0 5.876-2.642 5.876-5.876v-9.606c0-3.234-2.642-5.877-5.876-5.877h-67.1936c-3.2337 0-5.8762 2.643-5.8762 5.877z"/><path d="m79.1486 194.849c0 .424.3431.767.7664.767h46.039c3.971 0 7.205 3.234 7.205 7.205s-3.234 7.204-7.205 7.204h-109.4513c-3.9647 0-7.20474-3.278-7.20474-7.255 0-3.972 3.23364-7.205 7.20474-7.205h46.0391c.4233 0 .7665-.343.7665-.767v-1.788c0-4.38 3.5403-7.92 7.9201-7.92 4.3799 0 7.9202 3.54 7.9202 7.92z"/><path d="m97.5329 268.165.0039-.002c3.3662-2.075 7.7982-1.017 9.8772 2.402 5.344 8.819 12.172 14.569 20.845 17.547 3.746 1.295 5.774 5.414 4.531 9.096-1.015 2.999-3.832 4.895-6.836 4.895-.755 0-1.533-.094-2.3-.365l-.008-.002c-11.821-4.025-21.392-11.972-28.5134-23.689l-.0026-.004c-2.0752-3.367-1.0168-7.798 2.4029-9.878z"/><path d="m44.9746 268.216.0026.002c3.3657 2.028 4.477 6.46 2.3981 9.88-7.1199 11.664-16.6892 19.661-28.4552 23.737-.7518.234-1.5392.371-2.3153.371-3.0044 0-5.8214-1.897-6.83644-4.896l-.00067-.002c-1.29448-3.791.69091-7.851 4.47881-9.144l.0012-.001c8.6732-2.978 15.502-8.728 20.8457-17.547l.001-.002c2.0287-3.366 6.4609-4.477 9.8802-2.398z"/><path d="m232.616 223.4c.005.011.01.022.015.033l20.899 44.353c.128.271.402.443.702.44.3-.004.571-.182.692-.457l19.417-43.893.006-.014c1.293-3.091 2.49-5.078 3.875-6.3 1.347-1.188 2.939-1.712 5.178-1.712 4.411 0 7.665 3.057 7.665 6.745 0 2.097-.671 4.743-2.127 7.907l-.001.002-28.871 63.208c-3.063 6.708-6.496 11.553-10.663 14.724-4.151 3.16-9.09 4.705-15.261 4.705-6.096 0-10.875-1.444-15.109-4.791-2.82-2.236-4.717-5.76-4.717-8.801 0-4.238 2.878-7.512 6.438-7.512 1.111 0 2.492.471 3.677 1.594 2.524 3.095 5.786 4.691 9.149 4.691 2.626 0 4.906-.8 6.929-2.453 2.004-1.637 3.724-4.083 5.308-7.328.102-.21.103-.456.002-.667l-27.333-57.017c-.001-.001-.002-.003-.002-.004-.813-1.753-1.463-3.28-1.909-4.606-.448-1.333-.675-2.418-.675-3.294 0-4.108 3.214-7.103 7.869-7.103 2.326 0 3.96.605 5.283 1.786 1.356 1.21 2.452 3.084 3.564 5.764z"/><path d="m287.66 256.013c0-12.154 4.273-22.207 11.469-29.222 7.199-7.017 17.372-11.043 29.255-11.043 11.936 0 22.121 4.026 29.319 11.043 7.196 7.015 11.457 17.068 11.457 29.222 0 12.128-4.261 22.182-11.457 29.203-7.198 7.023-17.384 11.062-29.319 11.062-11.882 0-22.055-4.038-29.254-11.062-7.197-7.022-11.47-17.075-11.47-29.203zm40.724 25.804c7.118 0 13.251-2.604 17.602-7.161 4.35-4.554 6.874-11.012 6.874-18.643 0-7.632-2.524-14.089-6.874-18.644-4.351-4.556-10.484-7.16-17.602-7.16-7.117 0-13.25 2.604-17.601 7.16-4.35 4.555-6.874 11.012-6.874 18.644 0 7.631 2.524 14.089 6.874 18.643 4.351 4.557 10.484 7.161 17.601 7.161z"/></g><path d="m1.88867 193.01h674.49033" stroke="#ff3801" stroke-dasharray=".05 4.09" stroke-miterlimit="10" stroke-width="1.02196"/><path d="m1.88867 293.671h674.49033" stroke="#ff3801" stroke-dasharray=".05 4.09" stroke-miterlimit="10" stroke-width="1.02196"/><path d="m1.88867 217.536h674.49033" stroke="#ff3801" stroke-dasharray=".05 4.09" stroke-miterlimit="10" stroke-width="1.02196"/><path d="m1.88867 311.556h674.49033" stroke="#ff3801" stroke-dasharray=".05 4.09" stroke-miterlimit="10" stroke-width="1.02196"/></g><path d="m147.854 182.669c1.312 0 2.338-.434 3.057-1.268.269-.313.467-.763.467-1.065 0-.384-.297-.691-.664-.691-.231 0-.456.104-.67.384-.467.785-1.169 1.213-2.179 1.213-1.488 0-2.525-1.114-2.525-2.684 0-1.581 1.037-2.695 2.525-2.695 1.01 0 1.718.417 2.179 1.207.209.286.439.39.67.39.367 0 .664-.313.664-.697 0-.324-.209-.774-.494-1.103-.714-.824-1.735-1.224-3.03-1.224-2.344 0-3.98 1.69-3.98 4.122 0 2.426 1.636 4.111 3.98 4.111zm10.091-7.119c-.307-.758-.67-1.114-1.361-1.114-.692 0-1.054.356-1.361 1.114l-2.443 5.961c-.071.181-.099.351-.099.466 0 .368.313.67.681.67.357 0 .587-.165.702-.455l.599-1.521h3.848l.598 1.521c.11.29.346.455.702.455.363 0 .681-.302.681-.67 0-.115-.027-.285-.104-.466zm-1.356.241 1.389 3.53h-2.783zm6.343-1.191c-.423 0-.708.297-.708.725v6.576c0 .428.285.73.708.73.428 0 .713-.302.713-.73v-2.174h1.899c1.62 0 2.849-.994 2.849-2.563 0-1.554-1.229-2.564-2.849-2.564zm.713 3.777v-2.426h1.943c.791 0 1.323.483 1.323 1.213s-.532 1.213-1.323 1.213zm9.932 4.292c1.839 0 3.03-.944 3.03-2.465 0-1.366-.774-1.959-2.146-2.245l-1.328-.279c-.736-.149-1.142-.357-1.142-.983 0-.587.527-.906 1.372-.906.944 0 1.669.412 1.982.977.175.214.4.313.653.313.39 0 .615-.296.615-.686 0-.472-.297-1.004-.796-1.323-.533-.346-1.329-.636-2.328-.636-1.833 0-2.975.927-2.975 2.376 0 1.307.736 1.971 2.152 2.251l1.356.269c.752.142 1.109.428 1.109.993 0 .615-.522.983-1.471.983-1.054 0-1.784-.401-2.207-1.136-.121-.182-.313-.269-.511-.269-.373 0-.658.312-.658.697 0 .466.28.999.752 1.345.615.455 1.421.724 2.541.724zm15.155-8.195c-.423 0-.708.296-.708.725v2.645h-3.837v-2.645c0-.429-.286-.725-.714-.725-.422 0-.708.296-.708.725v6.702c0 .428.286.73.708.73.428 0 .714-.302.714-.73v-2.706h3.837v2.706c0 .428.285.73.708.73.422 0 .708-.302.708-.73v-6.702c0-.429-.286-.725-.708-.725zm4.827 6.631v-1.938h3.189c.384 0 .681-.269.681-.659 0-.384-.291-.664-.681-.664h-3.189v-1.844h3.562c.412 0 .714-.291.714-.703 0-.411-.302-.697-.714-.697h-4.276c-.422 0-.708.297-.708.725v6.449c0 .428.286.73.708.73h4.298c.412 0 .714-.291.714-.702 0-.412-.302-.697-.714-.697zm7.44 1.526c.428 0 .714-.302.714-.73v-6.702c0-.429-.286-.725-.714-.725-.423 0-.708.296-.708.725v6.702c0 .428.285.73.708.73zm7.034-4.551c-.379 0-.692.242-.692.675 0 .379.313.665.692.665h2.344c-.05 1.13-.879 1.849-2.223 1.849-1.603 0-2.657-1.13-2.657-2.711 0-1.592 1.07-2.728 2.618-2.728 1.038 0 1.718.422 2.152 1.01.236.214.428.296.681.296.329 0 .642-.219.642-.631 0-.445-.368-.966-.862-1.317-.615-.434-1.471-.752-2.569-.752-2.393 0-4.128 1.701-4.128 4.133 0 2.42 1.653 4.1 4.084 4.1 2.207 0 3.711-1.367 3.711-3.76v-.11c0-.477-.33-.719-.747-.719zm12.106-3.606c-.423 0-.709.296-.709.725v2.645h-3.836v-2.645c0-.429-.286-.725-.714-.725-.423 0-.708.296-.708.725v6.702c0 .428.285.73.708.73.428 0 .714-.302.714-.73v-2.706h3.836v2.706c0 .428.286.73.709.73.422 0 .708-.302.708-.73v-6.702c0-.429-.286-.725-.708-.725zm3.361.126c-.406 0-.708.286-.708.697 0 .412.302.703.708.703h1.965v5.901c0 .428.291.73.708.73.429 0 .714-.302.714-.73v-5.901h1.965c.406 0 .708-.291.708-.703 0-.411-.302-.697-.708-.697z" fill="#ff3801"/><path d="m63.3621 177.998 2.4207-2.212c.2854-.258.3732-.456.3732-.714 0-.296-.2909-.571-.6038-.571-.2635 0-.4336.094-.6038.247l-3.8533 3.546v-3.095c0-.429-.2909-.725-.7135-.725-.4227 0-.7136.296-.7136.725v6.702c0 .428.2909.73.7136.73.4226 0 .7135-.302.7135-.73v-1.828l1.2515-1.147 2.6787 3.375c.1701.22.4391.33.6587.33.3677 0 .6916-.269.6916-.593 0-.203-.0769-.351-.3019-.637zm11.0079-2.893c0-.346-.2854-.631-.6752-.631-.3458 0-.5269.22-.7025.478l-2.0529 2.953-2.0529-2.953c-.1757-.258-.3568-.478-.7026-.478-.3897 0-.6807.285-.6807.631 0 .148.0549.275.1318.384l2.5908 3.711v2.701c0 .428.2909.73.7081.73.4281 0 .7135-.302.7135-.73v-2.706l2.5963-3.706c.0769-.109.1263-.236.1263-.384zm5.5299 7.564c2.3822 0 4.0673-1.702 4.0673-4.117 0-2.42-1.6851-4.116-4.0673-4.116-2.3878 0-4.0729 1.696-4.0729 4.116 0 2.415 1.6851 4.117 4.0729 4.117zm0-1.427c-1.5205 0-2.6073-1.098-2.6073-2.69 0-1.597 1.0868-2.689 2.6073-2.689 1.5149 0 2.6072 1.092 2.6072 2.689 0 1.592-1.0923 2.69-2.6072 2.69z" fill="#ff3801"/><path d="m228.75 201.143c.126-.148.181-.302.181-.488 0-.352-.302-.632-.708-.632-.297 0-.494.148-.686.379l-2.108 2.618-2.135-2.618c-.204-.241-.412-.379-.692-.379-.395 0-.697.28-.697.632 0 .186.055.334.186.494l2.405 2.925-2.405 2.986c-.131.159-.186.302-.186.489 0 .346.302.631.697.631.28 0 .488-.121.692-.384l2.113-2.695 2.13 2.695c.214.274.428.384.686.384.406 0 .708-.285.708-.631 0-.198-.061-.341-.181-.489l-2.416-3.013zm5.711 4.161c.417 0 .719-.286.719-.692s-.302-.692-.719-.692h-3.217c-.412 0-.719.286-.719.692s.307.692.719.692zm8.971-5.281c-.423 0-.708.297-.708.725v2.646h-3.837v-2.646c0-.428-.285-.725-.713-.725-.423 0-.708.297-.708.725v6.702c0 .428.285.73.708.73.428 0 .713-.302.713-.73v-2.706h3.837v2.706c0 .428.285.73.708.73s.708-.302.708-.73v-6.702c0-.428-.285-.725-.708-.725zm4.718 6.631v-1.938h3.189c.384 0 .68-.269.68-.658 0-.385-.291-.664-.68-.664h-3.189v-1.845h3.562c.412 0 .714-.291.714-.702 0-.412-.302-.697-.714-.697h-4.276c-.423 0-.708.296-.708.724v6.45c0 .428.285.73.708.73h4.298c.412 0 .713-.291.713-.703s-.301-.697-.713-.697zm7.418 1.526c.428 0 .713-.302.713-.73v-6.702c0-.428-.285-.725-.713-.725-.423 0-.708.297-.708.725v6.702c0 .428.285.73.708.73zm6.94-4.55c-.384 0-.697.241-.697.675 0 .378.313.664.697.664h2.344c-.049 1.131-.878 1.85-2.223 1.85-1.603 0-2.657-1.131-2.657-2.712 0-1.592 1.071-2.728 2.619-2.728 1.037 0 1.718.423 2.151 1.01.231.214.423.296.681.296.329 0 .637-.219.637-.631 0-.444-.363-.966-.862-1.317-.609-.434-1.466-.752-2.569-.752-2.388 0-4.122 1.701-4.122 4.133 0 2.421 1.646 4.1 4.078 4.1 2.207 0 3.711-1.366 3.711-3.76v-.109c0-.478-.33-.719-.741-.719zm11.87-3.607c-.423 0-.708.297-.708.725v2.646h-3.837v-2.646c0-.428-.285-.725-.714-.725-.422 0-.708.297-.708.725v6.702c0 .428.286.73.708.73.429 0 .714-.302.714-.73v-2.706h3.837v2.706c0 .428.285.73.708.73.422 0 .708-.302.708-.73v-6.702c0-.428-.286-.725-.708-.725zm3.268.127c-.411 0-.713.285-.713.697 0 .411.302.702.713.702h1.965v5.901c0 .428.286.73.708.73.423 0 .708-.302.708-.73v-5.901h1.966c.411 0 .713-.291.713-.702 0-.412-.302-.697-.713-.697z" fill="#ff3801"/><path d="m212.643 317.49c-.423 0-.709.296-.709.724v6.455c0 .423.286.725.709.725h2.546c2.317 0 3.843-1.619 3.843-3.952 0-2.327-1.526-3.952-3.843-3.952zm.713 6.515v-5.132h1.828c1.422 0 2.349 1.076 2.349 2.569 0 1.504-.927 2.563-2.349 2.563zm9.317-.011v-1.937h3.189c.385 0 .681-.269.681-.659 0-.384-.291-.664-.681-.664h-3.189v-1.844h3.563c.411 0 .713-.291.713-.703s-.302-.697-.713-.697h-4.276c-.423 0-.708.296-.708.724v6.45c0 .428.285.73.708.73h4.298c.411 0 .713-.291.713-.703 0-.411-.302-.697-.713-.697zm9.685 1.565c1.839 0 3.03-.944 3.03-2.465 0-1.367-.774-1.959-2.146-2.245l-1.323-.28c-.735-.148-1.141-.357-1.141-.982 0-.588.527-.906 1.366-.906.955 0 1.691.423 2.004.988.186.214.39.302.637.302.384 0 .614-.297.614-.686 0-.472-.302-1.005-.796-1.323-.532-.346-1.328-.637-2.332-.637-1.828 0-2.975.928-2.975 2.377 0 1.306.735 1.97 2.151 2.25l1.362.269c.746.143 1.103.429 1.103.994 0 .615-.516.982-1.466.982-1.054 0-1.789-.4-2.212-1.136-.121-.181-.307-.269-.505-.269-.373 0-.664.313-.664.697 0 .467.28.999.752 1.345.615.456 1.427.725 2.541.725zm8.95 0c1.312 0 2.338-.434 3.063-1.268.263-.313.466-.763.466-1.065 0-.384-.296-.692-.664-.692-.236 0-.455.105-.669.384-.473.785-1.17 1.214-2.18 1.214-1.493 0-2.525-1.115-2.525-2.685 0-1.58 1.032-2.695 2.525-2.695 1.01 0 1.718.417 2.18 1.208.208.285.439.39.664.39.373 0 .669-.313.669-.697 0-.324-.208-.774-.494-1.104-.713-.823-1.74-1.224-3.035-1.224-2.338 0-3.974 1.691-3.974 4.122 0 2.427 1.636 4.112 3.974 4.112zm7.089-1.565v-1.937h3.189c.384 0 .68-.269.68-.659 0-.384-.29-.664-.68-.664h-3.189v-1.844h3.562c.412 0 .714-.291.714-.703s-.302-.697-.714-.697h-4.276c-.423 0-.708.296-.708.724v6.45c0 .428.285.73.708.73h4.298c.412 0 .714-.291.714-.703 0-.411-.302-.697-.714-.697zm12.731-6.625c-.417 0-.708.297-.708.719v5.034l-3.475-5.067c-.373-.527-.603-.686-.977-.686-.521 0-.861.362-.861.917v6.51c0 .422.28.719.702.719.428 0 .714-.297.714-.719v-4.951l3.502 5.028c.329.466.604.642.966.642.494 0 .851-.368.851-.922v-6.505c0-.422-.291-.719-.714-.719zm4.015.121c-.423 0-.708.296-.708.724v6.455c0 .423.285.725.708.725h2.547c2.316 0 3.842-1.619 3.842-3.952 0-2.327-1.526-3.952-3.842-3.952zm.714 6.515v-5.132h1.827c1.422 0 2.35 1.076 2.35 2.569 0 1.504-.928 2.563-2.35 2.563zm9.317-.011v-1.937h3.189c.384 0 .681-.269.681-.659 0-.384-.291-.664-.681-.664h-3.189v-1.844h3.562c.412 0 .714-.291.714-.703s-.302-.697-.714-.697h-4.276c-.422 0-.708.296-.708.724v6.45c0 .428.286.73.708.73h4.298c.412 0 .714-.291.714-.703 0-.411-.302-.697-.714-.697zm11.343-1.701c.927-.379 1.542-1.202 1.542-2.289 0-1.493-1.186-2.514-2.75-2.514h-2.717c-.423 0-.708.296-.708.724v6.576c0 .428.285.73.708.73.428 0 .713-.302.713-.73v-2.272h1.719l1.805 2.673c.138.198.341.324.599.324.368 0 .691-.286.691-.615 0-.159-.044-.335-.192-.543zm-1.192-3.453c.747 0 1.257.461 1.257 1.164 0 .708-.51 1.164-1.257 1.164h-2.02v-2.328z" fill="#ff3801"/><path d="m49.4975 325.559c1.3119 0 2.3383-.434 3.0629-1.268.2635-.313.4665-.763.4665-1.065 0-.384-.2964-.692-.6641-.692-.2361 0-.4556.105-.6697.384-.472.785-1.1691 1.214-2.1791 1.214-1.493 0-2.525-1.115-2.525-2.685 0-1.58 1.032-2.695 2.525-2.695 1.01 0 1.718.417 2.1791 1.208.2086.285.4391.39.6642.39.3732 0 .6696-.313.6696-.697 0-.324-.2085-.774-.494-1.104-.7135-.823-1.74-1.224-3.0354-1.224-2.3383 0-3.974 1.691-3.974 4.122 0 2.427 1.6357 4.112 3.974 4.112zm10.0309-7.12c-.3074-.757-.6697-1.114-1.3668-1.114-.6861 0-1.0484.357-1.3558 1.114l-2.4426 5.962c-.0769.181-.1043.351-.1043.466 0 .368.3184.67.6806.67.3568 0 .5928-.165.7026-.456l.5983-1.52h3.8478l.5983 1.52c.1153.291.3458.456.7026.456.3678 0 .6807-.302.6807-.67 0-.115-.0275-.285-.0988-.466zm-1.3613.242 1.3887 3.529h-2.7829zm6.2983-1.191c-.4227 0-.7081.296-.7081.724v6.576c0 .428.2854.73.7081.73.4281 0 .7136-.302.7136-.73v-2.173h1.8992c1.6192 0 2.8488-.994 2.8488-2.564 0-1.553-1.2296-2.563-2.8488-2.563zm.7136 3.776v-2.426h1.9431c.7904 0 1.3228.483 1.3228 1.213s-.5324 1.213-1.3228 1.213zm7.7364 4.254c.4282 0 .7136-.302.7136-.73v-6.702c0-.428-.2854-.724-.7136-.724-.4226 0-.7081.296-.7081.724v6.702c0 .428.2855.73.7081.73zm3.2794-8.03c-.4117 0-.7136.285-.7136.697s.3019.703.7136.703h1.965v5.9c0 .428.2855.73.7081.73.4227 0 .7081-.302.7081-.73v-5.9h1.9651c.4116 0 .7135-.291.7135-.703s-.3019-.697-.7135-.697zm12.2703.949c-.3074-.757-.6696-1.114-1.3667-1.114-.6862 0-1.0484.357-1.3558 1.114l-2.4426 5.962c-.0769.181-.1043.351-.1043.466 0 .368.3183.67.6806.67.3568 0 .5928-.165.7026-.456l.5983-1.52h3.8478l.5983 1.52c.1153.291.3458.456.7026.456.3678 0 .6806-.302.6806-.67 0-.115-.0274-.285-.0988-.466zm-1.3612.242 1.3887 3.529h-2.783zm7.0118 5.313v-5.906c0-.428-.2854-.724-.7135-.724-.4227 0-.7081.296-.7081.724v6.581c0 .423.2854.725.7081.725h4.0344c.4117 0 .7136-.291.7136-.703 0-.411-.3019-.697-.7136-.697z" fill="#ff3801"/><g stroke-linecap="round" stroke-linejoin="round"><path d="m78.5379 23.4485c.0347.3959.3661.6997.7636.6997h46.7545c3.971 0 7.205 3.2336 7.205 7.2047s-3.234 7.2048-7.205 7.2048h-46.8056c-.4234 0-.7665.3432-.7665.7665v4.5477c0 .4233.3431.7664.7665.7664h25.6506c10.41 0 18.856 8.4457 18.856 18.8551v16.1469c0 10.4094-8.446 18.8551-18.856 18.8551h-12.2119c-.307 0-.5844.1832-.7049.4655-.1206.2824-.061.6094.1514.8311 9.4194 9.833 19.3684 15.26 35.6264 19.222 3.831.971 6.189 4.851 5.264 8.735-.784 3.274-3.738 5.493-6.97 5.493-.535 0-1.135-.09-1.705-.233h-.002c-20.817-5.129-33.0947-12.669-44.4789-25.268-.2125-.235-.548-.315-.8439-.201-.296.114-.4912.398-.4912.715v28.461c0 3.972-3.2337 7.205-7.2048 7.205s-7.2048-3.233-7.2048-7.205v-28.461c0-.317-.1952-.601-.4911-.715s-.6314-.034-.844.201c-11.385 12.6-23.6623 20.19-44.4768 25.267-.0205.005-.0407.011-.0607.018-.4996.166-1.0691.216-1.6483.216-3.2321 0-6.1865-2.219-6.9703-5.493l-.00185-.007c-.97098-3.884 1.38765-7.804 5.25905-8.726l.004-.001c16.2593-3.962 26.2095-9.389 35.6295-19.223.2123-.2217.2719-.5487.1514-.8311-.1205-.2823-.3979-.4655-.7049-.4655h-12.2124c-10.4094 0-18.8551-8.4457-18.8551-18.8551v-16.1469c0-10.4094 8.4457-18.8551 18.8551-18.8551h25.6511c.4233 0 .7664-.3431.7664-.7664v-4.5477c0-.4233-.3431-.7665-.7664-.7665h-46.7545c-3.9711 0-7.20475-3.2337-7.20475-7.2048s3.23365-7.2047 7.20475-7.2047h46.7545c.401 0 .7343-.3092.7643-.7092.2759-3.6787 3.4598-6.5978 7.2069-6.5978 3.7329 0 6.8328 2.9067 7.1566 6.6073zm-14.3614 34.9351c0-.4233-.3431-.7664-.7664-.7664h-25.6511c-3.2337 0-5.8762 2.6425-5.8762 5.8762v.8176c0 .4233.3431.7664.7664.7664h30.7609c.4233 0 .7664-.3431.7664-.7664zm-31.5273 19.6727c-.4233 0-.7664.3431-.7664.7664v.8176c0 3.2337 2.6425 5.8762 5.8762 5.8762h23.9137 1.7374c.4233 0 .7664-.3431.7664-.7664v-5.9274c0-.4233-.3431-.7664-.7664-.7664zm45.9369 6.6938c0 .4233.3432.7664.7665.7664h1.7373 23.8631c3.236 0 5.868-2.6422 5.927-5.8623v-.0139-.8176c0-.4233-.343-.7664-.767-.7664h-30.7604c-.4233 0-.7665.3431-.7665.7664zm31.4759-19.6727c.424 0 .767-.3431.767-.7664v-.8176c0-3.2337-2.643-5.8762-5.876-5.8762h-25.6515c-.4233 0-.7665.3431-.7665.7664v5.9274c0 .4233.3432.7664.7665.7664z" stroke="#0068ff" stroke-width="1.53293"/><path d="m177.664 42.0834c0-.4233-.343-.7665-.766-.7665h-25.345c-4.806 0-8.38-3.404-8.38-8.2778 0-4.8709 3.52-8.2267 8.38-8.2267h68.982c4.812 0 8.38 3.3586 8.38 8.2267 0 4.8766-3.526 8.2778-8.38 8.2778h-25.344c-.424 0-.767.3432-.767.7665v76.0846c0 2.587-.859 4.737-2.313 6.237-1.451 1.497-3.545 2.398-6.118 2.398h-.007c-2.486.024-4.553-.872-6-2.377-1.451-1.508-2.322-3.673-2.322-6.258z" stroke="#0068ff" stroke-width="1.53293"/><path d="m214.415 87.0496c0-12.1544 4.261-22.2075 11.451-29.2223 7.192-7.0169 17.364-11.0428 29.274-11.0428 11.935 0 22.12 4.0262 29.318 11.0431 7.196 7.0146 11.458 17.0677 11.458 29.222 0 12.1284-4.262 22.1814-11.458 29.2034-7.198 7.023-17.384 11.062-29.318 11.062-11.883 0-22.056-4.038-29.255-11.062-7.197-7.022-11.47-17.0757-11.47-29.2034zm40.725 25.8044c7.117 0 13.25-2.604 17.601-7.161 4.35-4.555 6.874-11.0119 6.874-18.6434 0-7.6316-2.524-14.0888-6.874-18.6435-4.351-4.5569-10.484-7.1609-17.601-7.1609-7.118 0-13.251 2.604-17.602 7.1609-4.35 4.5547-6.874 11.0119-6.874 18.6435 0 7.6315 2.524 14.0884 6.874 18.6434 4.351 4.557 10.484 7.161 17.602 7.161z" stroke="#0068ff" stroke-width="1.53293"/><path d="m1.88867 24.0459h674.49033" stroke="#ff3801" stroke-dasharray=".05 4.09" stroke-miterlimit="10" stroke-width="1.02196"/><path d="m1.88867 124.709h674.49033" stroke="#ff3801" stroke-dasharray=".05 4.09" stroke-miterlimit="10" stroke-width="1.02196"/><path d="m1.88867 48.5742h674.49033" stroke="#ff3801" stroke-dasharray=".05 4.09" stroke-miterlimit="10" stroke-width="1.02196"/><path d="m1.88867 142.594h674.49033" stroke="#ff3801" stroke-dasharray=".05 4.09" stroke-miterlimit="10" stroke-width="1.02196"/></g><path d="m147.717 13.7062c1.312 0 2.339-.4337 3.063-1.268.264-.3129.467-.763.467-1.0649 0-.3842-.297-.6916-.664-.6916-.236 0-.456.1043-.67.3843-.472.7849-1.169 1.213-2.179 1.213-1.493 0-2.525-1.1142-2.525-2.6841 0-1.58084 1.032-2.69511 2.525-2.69511 1.01 0 1.718.41717 2.179 1.20759.209.28543.439.38972.664.38972.373 0 .67-.31288.67-.69711 0-.32385-.209-.77395-.494-1.10329-.714-.82335-1.74-1.22405-3.036-1.22405-2.338 0-3.974 1.69062-3.974 4.12225 0 2.4261 1.636 4.1113 3.974 4.1113zm10.031-7.11928c-.307-.75748-.669-1.11427-1.367-1.11427-.686 0-1.048.35679-1.355 1.11427l-2.443 5.96108c-.077.1811-.104.3513-.104.4666 0 .3677.318.6696.68.6696.357 0 .593-.1647.703-.4556l.598-1.5204h3.848l.598 1.5204c.116.2909.346.4556.703.4556.368 0 .681-.3019.681-.6696 0-.1153-.028-.2855-.099-.4666zm-1.361.24152 1.389 3.52946h-2.783zm6.298-1.19112c-.422 0-.708.29641-.708.72455v6.57583c0 .4282.286.7301.708.7301.428 0 .714-.3019.714-.7301v-2.1736h1.899c1.619 0 2.849-.99355 2.849-2.56341 0-1.55339-1.23-2.56337-2.849-2.56337zm.714 3.77644v-2.42614h1.943c.79 0 1.323.48303 1.323 1.21307s-.533 1.21307-1.323 1.21307zm10.003 4.29244c1.839 0 3.03-.9441 3.03-2.4646 0-1.36676-.774-1.95957-2.146-2.245l-1.323-.27994c-.735-.1482-1.142-.35679-1.142-.98254 0-.58732.527-.90568 1.367-.90568.955 0 1.691.42265 2.004.98802.186.21407.389.3019.636.3019.385 0 .615-.29641.615-.68613 0-.47206-.302-1.00449-.796-1.32285-.532-.34581-1.328-.63673-2.333-.63673-1.827 0-2.975.92764-2.975 2.37674 0 1.30639.736 1.97056 2.152 2.25051l1.361.269c.747.1427 1.104.4281 1.104.9935 0 .6147-.516.9825-1.466.9825-1.054 0-1.789-.4007-2.212-1.1362-.121-.1812-.307-.269-.505-.269-.373 0-.664.3129-.664.6971 0 .4666.28.999.752 1.3448.615.4556 1.427.7246 2.541.7246zm15.149-8.19513c-.422 0-.708.29641-.708.72455v2.64571h-3.837v-2.64571c0-.42814-.285-.72455-.713-.72455-.423 0-.708.29641-.708.72455v6.70208c0 .4282.285.7301.708.7301.428 0 .713-.3019.713-.7301v-2.7061h3.837v2.7061c0 .4282.286.7301.708.7301.423 0 .708-.3019.708-.7301v-6.70208c0-.42814-.285-.72455-.708-.72455zm4.718 6.63073v-1.9376h3.189c.384 0 .68-.26898.68-.6587 0-.38423-.29-.66417-.68-.66417h-3.189v-1.84431h3.562c.412 0 .714-.29092.714-.70259 0-.41168-.302-.69711-.714-.69711h-4.276c-.423 0-.708.29641-.708.72455v6.44963c0 .4281.285.73.708.73h4.298c.412 0 .714-.2909.714-.7026s-.302-.6971-.714-.6971zm7.418 1.526c.428 0 .713-.3019.713-.7301v-6.70208c0-.42814-.285-.72455-.713-.72455-.423 0-.708.29641-.708.72455v6.70208c0 .4282.285.7301.708.7301zm6.94-4.55044c-.384 0-.697.24151-.697.67515 0 .37869.313.66419.697.66419h2.344c-.049 1.1307-.878 1.8498-2.223 1.8498-1.603 0-2.657-1.1308-2.657-2.7116 0-1.59181 1.071-2.72804 2.619-2.72804 1.037 0 1.718.42265 2.151 1.00998.231.21407.423.29641.681.29641.329 0 .637-.21956.637-.63124 0-.44461-.363-.96607-.862-1.31736-.609-.43364-1.466-.752-2.569-.752-2.388 0-4.122 1.70159-4.122 4.13323 0 2.42062 1.647 4.10032 4.078 4.10032 2.207 0 3.711-1.3668 3.711-3.76v-.10978c0-.47755-.33-.71906-.741-.71906zm11.87-3.60629c-.423 0-.708.29641-.708.72455v2.64571h-3.837v-2.64571c0-.42814-.285-.72455-.713-.72455-.423 0-.709.29641-.709.72455v6.70208c0 .4282.286.7301.709.7301.428 0 .713-.3019.713-.7301v-2.7061h3.837v2.7061c0 .4282.285.7301.708.7301s.708-.3019.708-.7301v-6.70208c0-.42814-.285-.72455-.708-.72455zm3.268.12625c-.411 0-.713.28543-.713.69711 0 .41167.302.70259.713.70259h1.965v5.90068c0 .4282.286.7301.709.7301.422 0 .708-.3019.708-.7301v-5.90068h1.965c.411 0 .713-.29092.713-.70259 0-.41168-.302-.69711-.713-.69711z" fill="#ff3801"/><path d="m63.9644 5.63732c-.4117 0-.7136.28543-.7136.69711 0 .41167.3019.70259.7136.70259h1.965v5.90068c0 .4282.2855.7301.7081.7301.4227 0 .7081-.3019.7081-.7301v-5.90068h1.9651c.4116 0 .7135-.29092.7135-.70259 0-.41168-.3019-.69711-.7135-.69711zm11.6116 8.06888c2.3823 0 4.0674-1.7016 4.0674-4.11679 0-2.42065-1.6851-4.11676-4.0674-4.11676-2.3877 0-4.0728 1.69611-4.0728 4.11676 0 2.41519 1.6851 4.11679 4.0728 4.11679zm0-1.4272c-1.5204 0-2.6072-1.0978-2.6072-2.68959 0-1.5973 1.0868-2.68962 2.6072-2.68962 1.515 0 2.6073 1.09232 2.6073 2.68962 0 1.59179-1.0923 2.68959-2.6073 2.68959z" fill="#ff3801"/><path d="m161.309 134.374c.708-.318 1.109-.894 1.109-1.635 0-1.373-1.032-2.24-2.651-2.24h-2.844c-.417 0-.697.302-.697.725v6.455c0 .422.28.724.697.724h2.871c1.636 0 2.679-.938 2.679-2.338 0-.774-.428-1.372-1.164-1.691zm-.384-1.526c0 .577-.428.934-1.219.934h-2.064v-1.916h2.064c.774 0 1.219.368 1.219.982zm-3.283 4.189v-2.081h2.103c.796 0 1.24.39 1.24 1.027 0 .669-.455 1.054-1.24 1.054zm11.486-5.588c-.308-.758-.67-1.115-1.367-1.115-.686 0-1.048.357-1.356 1.115l-2.442 5.961c-.077.181-.105.351-.105.466 0 .368.319.67.681.67.357 0 .593-.165.703-.456l.598-1.52h3.848l.598 1.52c.115.291.346.456.703.456.367 0 .68-.302.68-.67 0-.115-.027-.285-.099-.466zm-1.361.241 1.388 3.53h-2.783zm8.565 6.878c1.839 0 3.03-.944 3.03-2.465 0-1.366-.774-1.959-2.146-2.245l-1.323-.28c-.736-.148-1.142-.356-1.142-.982 0-.587.527-.906 1.367-.906.955 0 1.69.423 2.003.988.187.214.39.302.637.302.384 0 .615-.296.615-.686 0-.472-.302-1.004-.796-1.323-.533-.346-1.329-.637-2.333-.637-1.828 0-2.975.928-2.975 2.377 0 1.307.735 1.971 2.152 2.251l1.361.269c.746.142 1.103.428 1.103.993 0 .615-.516.983-1.465.983-1.054 0-1.79-.401-2.212-1.137-.121-.181-.308-.268-.505-.268-.374 0-.665.312-.665.697 0 .466.28.999.752 1.344.615.456 1.428.725 2.542.725zm6.765-1.564v-1.938h3.189c.384 0 .68-.269.68-.659 0-.384-.29-.664-.68-.664h-3.189v-1.844h3.562c.412 0 .714-.291.714-.703 0-.411-.302-.697-.714-.697h-4.276c-.423 0-.708.297-.708.725v6.449c0 .428.285.73.708.73h4.298c.412 0 .714-.291.714-.702 0-.412-.302-.697-.714-.697zm8.131 0v-5.907c0-.428-.285-.724-.713-.724-.423 0-.708.296-.708.724v6.582c0 .422.285.724.708.724h4.034c.412 0 .714-.291.714-.702 0-.412-.302-.697-.714-.697zm6.562 1.526c.428 0 .714-.302.714-.73v-6.703c0-.428-.286-.724-.714-.724-.423 0-.708.296-.708.724v6.703c0 .428.285.73.708.73zm9.328-8.152c-.417 0-.708.297-.708.719v5.034l-3.474-5.066c-.373-.527-.604-.687-.977-.687-.522 0-.862.363-.862.917v6.51c0 .423.28.719.703.719.428 0 .713-.296.713-.719v-4.951l3.502 5.028c.329.466.604.642.966.642.494 0 .851-.368.851-.922v-6.505c0-.422-.291-.719-.714-.719zm4.729 6.626v-1.938h3.189c.384 0 .681-.269.681-.659 0-.384-.291-.664-.681-.664h-3.189v-1.844h3.562c.412 0 .714-.291.714-.703 0-.411-.302-.697-.714-.697h-4.276c-.422 0-.708.297-.708.725v6.449c0 .428.286.73.708.73h4.298c.412 0 .714-.291.714-.702 0-.412-.302-.697-.714-.697z" fill="#ff3801"/><path d="m57.8911 156.565v-1.938h3.1891c.3842 0 .6806-.269.6806-.659 0-.384-.2909-.664-.6806-.664h-3.1891v-1.844h3.5624c.4116 0 .7135-.291.7135-.703 0-.411-.3019-.697-.7135-.697h-4.276c-.4226 0-.7081.297-.7081.725v6.449c0 .428.2855.73.7081.73h4.2979c.4117 0 .7136-.291.7136-.702 0-.412-.3019-.697-.7136-.697zm11.0738-5.555c-.3074-.758-.6697-1.114-1.3668-1.114-.6861 0-1.0484.356-1.3558 1.114l-2.4426 5.961c-.0769.181-.1043.351-.1043.466 0 .368.3184.67.6806.67.3568 0 .5929-.165.7026-.456l.5983-1.52h3.8478l.5983 1.52c.1153.291.3458.456.7026.456.3678 0 .6807-.302.6807-.67 0-.115-.0275-.285-.0988-.466zm-1.3613.241 1.3887 3.53h-2.7829zm8.5653 6.878c1.8388 0 3.0299-.944 3.0299-2.465 0-1.366-.774-1.959-2.1462-2.245l-1.3229-.279c-.7355-.149-1.1417-.357-1.1417-.983 0-.587.527-.906 1.3668-.906.9551 0 1.6906.423 2.0035.988.1866.214.3897.302.6367.302.3842 0 .6148-.296.6148-.686 0-.472-.3019-1.004-.7959-1.323-.5325-.346-1.3284-.636-2.3329-.636-1.8278 0-2.975.927-2.975 2.376 0 1.307.7355 1.971 2.1517 2.251l1.3613.269c.7465.142 1.1033.428 1.1033.993 0 .615-.516.983-1.4656.983-1.0539 0-1.7894-.401-2.2121-1.136-.1207-.182-.3074-.269-.505-.269-.3732 0-.6641.312-.6641.697 0 .466.2799.999.7519 1.344.6148.456 1.4272.725 2.5415.725zm5.3157-8.069c-.4116 0-.7135.286-.7135.697 0 .412.3019.703.7135.703h1.9651v5.901c0 .428.2854.73.7081.73.4226 0 .7081-.302.7081-.73v-5.901h1.965c.4117 0 .7136-.291.7136-.703 0-.411-.3019-.697-.7136-.697z" fill="#ff3801"/><path d="m196.086 291.175-.011-.016-24.321-31.058c-.129-.165-.32-.27-.529-.29-.208-.021-.416.045-.574.182l-15.334 13.194c-.169.146-.267.358-.267.581v13.144c0 4.792-3.198 8.166-7.763 8.166-2.346 0-4.3-.852-5.669-2.272-1.371-1.421-2.197-3.457-2.197-5.894v-86.628c0-4.774 3.282-8.115 7.866-8.115 2.293 0 4.222.839 5.579 2.246 1.358 1.409 2.184 3.432 2.184 5.869v52.22c0 .301.176.573.449.698.273.124.594.078.82-.119l37.319-32.429.003-.002c2.27-1.992 3.909-3.18 5.35-3.876 1.413-.683 2.666-.907 4.198-.907 2.049 0 3.783.646 4.998 1.759 1.206 1.106 1.953 2.722 1.953 4.782 0 2.102-.815 4.389-4.293 7.277l-.009.008-21.935 18.828c-.309.266-.356.728-.106 1.051l24.164 31.153c1.457 1.96 2.232 3.262 2.651 4.338.409 1.05.493 1.922.493 3.065 0 3.244-3.122 6.745-7.662 6.745-2.371 0-5.053-.599-7.357-3.7z" stroke="#0068ff" stroke-linecap="round" stroke-linejoin="round" stroke-width="1.53252"/></g></svg>