<svg viewBox="0 0 650 650" xmlns="http://www.w3.org/2000/svg"><g stroke-linecap="round" stroke-linejoin="round" stroke-width="5"><g stroke="#110b15"><path d="m323.05 537.19c-22.2 0-47.33 12.33-71.46 12.33-112.59 0-205.82-132.8-205.82-289.52 0-121.9 138.87-218.67 277.28-218.67s277.3 96.75 277.3 218.67c0 156.74-99.11 289.54-205.82 289.54-22.21-.02-49.28-12.35-71.48-12.35z" fill="#ff3801"/><path d="m357 360.8c0 18.42-15.21 33.36-34 33.36s-34-14.94-34-33.36" fill="none"/><ellipse cx="251.69" cy="279.47" rx="17" ry="16.69"/><ellipse cx="394.43" cy="279.47" rx="17" ry="16.69"/><path d="m400 11.78c-11.46-10.42-30.12-10.48-41.68-.14a213.42 213.42 0 0 0 -35.74 41.36c-13.14 20.29-19.8 27.69-19.8 46.11a79.85 79.85 0 0 0 29.46 5.95 78.28 78.28 0 0 0 29.49-5.49c.43-18.93 19.34-33.46 38.09-50.24 11.56-10.33 11.64-27.12.18-37.55z" fill="#ac4300"/><g fill="#5f5"><path d="m383.37 18.84c13.37-4.12 77.47-17 128.19-12.13 55.2 5.34 130.9 100.15 57.77 192.35-48.94-8.5-130.14-46.06-155.33-71.06-24.3-24-23.41-84.87-30.63-109.16z"/><path d="m383.37 18.84c67.74 13.78 173.47 94.42 186 180.22"/></g></g><g fill="#5f5" stroke="#000"><path d="m203.81 604a23.94 23.94 0 0 1 2 9.06 13 13 0 0 1 -12.81 12.64c-6.92 0-11.45-3.16-13.5-8.71l-7.61-19.66h-57l-7.64 19.67c-2 5.55-6.58 8.71-13.5 8.71a13 13 0 0 1 -12.82-12.64 25.9 25.9 0 0 1 2-9.06l34.52-84.94c5.81-14.52 12.73-21.36 25.89-21.36 13.33 0 20.17 6.84 26 21.36zm-79-32.3h37.19l-18.6-48.36z"/><path d="m311.72 576.31c0 29.74-19.74 49.56-45.72 49.56-12.13 0-21.27-3.16-28.11-10.33v17.26c0 7.86-5.21 13.33-12.73 13.33s-12.9-5.47-12.9-13.33v-92.2c0-7.86 5.3-13.33 12.9-13.33a12.17 12.17 0 0 1 12.56 10.85c6.67-7.35 16.49-11.37 28.28-11.37 26 0 45.72 19.83 45.72 49.56zm-26.32 0c0-15.8-10.25-26.06-24-26.06-14.27 0-23.93 11.2-23.93 26.06s9.66 26.07 23.93 26.07c13.75 0 24-10.26 24-26.07z"/><path d="m422.28 576.31c0 29.74-19.74 49.56-45.72 49.56-12.13 0-21.27-3.16-28.11-10.33v17.26c0 7.86-5.21 13.33-12.73 13.33s-12.9-5.47-12.9-13.33v-92.2c0-7.86 5.29-13.33 12.9-13.33a12.17 12.17 0 0 1 12.56 10.85c6.66-7.35 16.49-11.37 28.28-11.37 25.98 0 45.72 19.83 45.72 49.56zm-26.32 0c0-15.8-10.25-26.06-24-26.06-14.27 0-23.93 11.2-23.93 26.06s9.66 26.07 23.93 26.07c13.75 0 24.04-10.26 24.04-26.07z"/><path d="m433.37 612v-100.46c0-7.86 5.3-13.33 12.91-13.33s12.72 5.47 12.72 13.33v100.46c0 7.86-5.21 13.33-12.73 13.33s-12.9-5.44-12.9-13.33z"/><path d="m562.22 602.2c0 3-1.45 6.16-3.42 8.81-6.92 9.4-22 14.78-37.42 14.78-30.85 0-51.19-19.31-51.19-49.3 0-29.4 20-49.74 48.37-49.74 26.91 0 45.88 18 45.88 43 0 9.92-4.27 14.36-13.33 14.36h-55.37c1.62 11.28 12.22 18.2 26.92 18.2 8.37 0 14.27-2.31 19.14-6.32 3.59-2.22 6.75-3.85 10.85-3.85 6.49-.02 9.57 3.86 9.57 10.06zm-66.48-37.76h43.41c-1.71-10.51-9.4-17.43-21.62-17.43-11.88-.01-20.17 6.92-21.79 17.43z"/></g><path d="m379.07 88.37c-10.23 10.44-27.49 16.73-46.82 16.73s-38.74-8.37-46.82-16.73" fill="none" stroke="#110b15"/></g></svg>