<svg viewBox="0 0 108 130" xmlns="http://www.w3.org/2000/svg"><g stroke="#110b15" stroke-linecap="round" stroke-linejoin="round" stroke-width="3"><path d="m54.08 86.24c-3.49 0-7.45 1.94-11.25 1.94-17.72 0-32.41-20.91-32.41-45.58 0-19.2 21.87-34.43 43.66-34.43s43.66 15.23 43.66 34.43c0 24.67-15.6 45.58-32.4 45.58-3.5 0-7.76-1.94-11.26-1.94z" fill="#ff3801"/><path d="m59.43 58.47a5.35 5.35 0 0 1 -10.7 0" fill="none"/><ellipse cx="42.85" cy="45.66" rx="2.68" ry="2.63"/><ellipse cx="65.32" cy="45.66" rx="2.68" ry="2.63"/><path d="m50.89 17.18c0-2.91 1-4 3.12-7.17a33.75 33.75 0 0 1 5.62-6.52 5 5 0 0 1 6.57 0 3.91 3.91 0 0 1 0 5.92c-3 2.67-6 4.7-6 7.74" fill="#ac4300"/><path d="m62.9 15.58a10.4 10.4 0 0 1 -7.37 2.63 11.36 11.36 0 0 1 -7.37-2.63" fill="none"/><g fill="#5f5"><path d="m63.58 4.63c2.1-.63 12.2-2.63 20.18-1.91 8.69.84 20.61 15.77 9.1 30.28-7.71-1.34-20.49-7.26-24.47-11.19-3.81-3.81-3.67-13.36-4.81-17.18z"/><path d="m63.58 4.63c10.66 2.17 27.31 14.86 29.28 28.37"/></g></g></svg>