<svg viewBox="0 0 650 650" xmlns="http://www.w3.org/2000/svg"><g stroke-linecap="round" stroke-linejoin="round" stroke-width="5"><g fill="#ff5" stroke="#000"><path d="m120.59 585.21c0 22.13-16.24 37.25-42.73 37.25h-44c-8-.08-13.25-5.72-13.25-13.84v-95.28c0-8.2 5.22-13.84 13.25-13.92h43.75c26.15 0 42.29 14.26 42.29 36.14 0 10.85-5.55 19.31-15.72 24.69 10.43 5.22 16.41 13.93 16.41 24.96zm-43.49-59.73h-29.48v24.18h29.48c9.05 0 14.44-4.62 14.44-11.79 0-7.69-5.47-12.39-14.44-12.39zm.42 70.92c9.06 0 14.79-4.7 14.79-13.07 0-8-5.56-12.91-14.79-12.91h-29.9v26z"/><path d="m230.63 604.69c0 4.44-1.36 7.86-4.35 11.62-3.68 4.7-10.68 8-17.26 8-8.38 0-15-3.84-19-10.34-6.5 6.92-16.07 10.77-27.09 10.77-19.4 0-32.39-10.94-32.39-27.43 0-14.7 8.46-23.84 25.9-27.86l21.36-5c5.81-1.28 7.94-3.42 7.94-7.43 0-5.64-4.7-9.06-12.64-9.06-7 0-14.7 3.42-21 8.89-5.21 3.93-8.12 5.47-11.54 5.47-6.24 0-10.42-3.76-10.42-9.49 0-4 1.45-7.69 4.7-11.28 8.54-10 22.64-15.64 38.88-15.64 23.67 0 37.68 11.28 37.68 33.07v36.49c0 2.65.94 4.61 3.59 4.61a5.23 5.23 0 0 0 4-2 6 6 0 0 1 4.7-2.05c4.04.03 6.94 3.79 6.94 8.66zm-44.77-15v-10.47a21.76 21.76 0 0 1 -8.12 3.51l-8.46 1.88c-7.69 1.62-11.62 5.38-11.62 10.68 0 5.47 4.87 9.14 12.14 9.14 9.2 0 16.06-6.24 16.06-14.7z"/><path d="m326 566.06v45.12c0 7.69-5.38 13.33-12.81 13.33-7.61 0-12.82-5.81-12.82-13.33v-41.1c0-13.84-7.26-20.93-19.06-20.93s-19.65 7.69-20.5 19.48v42.55c0 7.86-5.3 13.33-12.74 13.33s-12.9-5.55-12.9-13.33v-71.43c0-7.86 5.39-13.33 12.9-13.33a12.2 12.2 0 0 1 12.46 10.58c5.73-7.18 15.55-11.11 26.83-11.11 22.99.01 38.64 14.46 38.64 40.17z"/><path d="m437.48 604.69c0 4.44-1.36 7.86-4.36 11.62-3.67 4.7-10.68 8-17.26 8-8.37 0-15-3.84-19-10.34-6.49 6.92-16.06 10.77-27.08 10.77-19.4 0-32.39-10.94-32.39-27.43 0-14.7 8.46-23.84 25.89-27.86l21.37-5c5.81-1.28 7.94-3.42 7.94-7.43 0-5.64-4.7-9.06-12.64-9.06-7 0-14.7 3.42-21 8.89-5.22 3.93-8.12 5.47-11.54 5.47-6.24 0-10.42-3.76-10.42-9.49 0-4 1.45-7.69 4.69-11.28 8.55-10 22.65-15.64 38.88-15.64 23.67 0 37.69 11.28 37.69 33.07v36.49c0 2.65.94 4.61 3.59 4.61a5.25 5.25 0 0 0 4-2 6 6 0 0 1 4.7-2.05c4.04.03 6.94 3.79 6.94 8.66zm-44.77-15v-10.47a21.84 21.84 0 0 1 -8.12 3.51l-8.46 1.88c-7.69 1.62-11.62 5.38-11.62 10.68 0 5.47 4.87 9.14 12.13 9.14 9.23 0 16.07-6.24 16.07-14.7z"/><path d="m532.83 566.06v45.12c0 7.69-5.38 13.33-12.82 13.33-7.6 0-12.81-5.81-12.81-13.33v-41.1c0-13.84-7.27-20.93-19.06-20.93s-19.65 7.69-20.51 19.48v42.55c0 7.86-5.29 13.33-12.73 13.33s-12.9-5.51-12.9-13.33v-71.43c0-7.86 5.38-13.33 12.9-13.33a12.2 12.2 0 0 1 12.48 10.58c5.72-7.18 15.55-11.11 26.83-11.11 22.98.01 38.62 14.46 38.62 40.17z"/><path d="m644.33 604.69c0 4.44-1.37 7.86-4.36 11.62-3.67 4.7-10.68 8-17.26 8-8.37 0-15-3.84-19-10.34-6.49 6.92-16.06 10.77-27.08 10.77-19.4 0-32.39-10.94-32.39-27.43 0-14.7 8.46-23.84 25.89-27.86l21.36-5c5.81-1.28 8-3.42 8-7.43 0-5.64-4.7-9.06-12.65-9.06-7 0-14.69 3.42-21 8.89-5.21 3.93-8.11 5.47-11.53 5.47-6.24 0-10.43-3.76-10.43-9.49 0-4 1.46-7.69 4.7-11.28 8.55-10 22.65-15.64 38.88-15.64 23.67 0 37.68 11.28 37.68 33.07v36.49c0 2.65.94 4.61 3.59 4.61a5.25 5.25 0 0 0 4-2 6 6 0 0 1 4.7-2.05c4 .03 6.9 3.79 6.9 8.66zm-44.77-15v-10.47a21.84 21.84 0 0 1 -8.12 3.51l-8.44 1.88c-7.69 1.62-11.62 5.38-11.62 10.68 0 5.47 4.87 9.14 12.13 9.14 9.21 0 16.05-6.24 16.05-14.7z"/></g><path d="m409.81 223.3c-70.51-10.51-143.31 1-162.24 133.51-24.08 168.57 141.24 16.1 141.24 16.1z" fill="#ffff64" stroke="#010101"/><path d="m409.81 223.3c-41.19 72.89-105.42 142.7-204.23 127.93-58-8.65-95-24.46-124.7-28.89-31.3-4.67-45 5.89-47.67 23.72-11.79 79 56.54 142 212.79 165.3 141.43 21.09 268.47-61.71 332.23-215.16-38.87-3.75-81.64 4.12-123.73 31.58 17.84-39.57-12.63-87.62-44.69-104.48z" fill="#ffff64" stroke="#110b15"/><g stroke="#010101"><path d="m570.48 6c-42.08-6.28-65.8 6.82-99.39 76.45-9.14 19-27.43 81-61.28 140.84 32.06 16.86 62.53 64.91 44.69 104.48 42.09-27.46 84.86-35.33 123.73-31.58 16.4-39.46 28.62-83.6 35.81-131.84 12.51-83.89-2.25-152.18-43.56-158.35z" fill="#fff"/><path d="m33.21 346.06c42.79 37.83 106.27 72.65 213.79 88.69 79.63 11.87 149.74-26.56 207.48-107" fill="none"/></g></g><circle cx="517.65" cy="103.15" r="12.48" transform="matrix(.26134694 -.96524493 .96524493 .26134694 282.83 575.87)"/><circle cx="572.01" cy="111.26" r="12.48" transform="matrix(.26134694 -.96524493 .96524493 .26134694 315.16 634.33)"/><g stroke-linecap="round" stroke-linejoin="round" stroke-width="5"><path d="m454.5 327.78c12 28.12 1.83 125.16-11.7 177.46-4.51 17.43-1.32 35.27 23.92 39 39.33 5.87 102-77.29 111.64-141.89s10.6-89.81 2.38-112.32c-37.74-5.59-84.74 1.36-126.24 37.75" fill="#fff" stroke="#010101"/><path d="m568.12 155.94c-2 13.17-16.94 21.86-33.45 19.39s-28.3-15.13-26.34-28.33" fill="none" stroke="#110b15"/><ellipse cx="51.84" cy="354.67" fill="#ac4300" rx="34.5" ry="20.98" stroke="#010101" transform="matrix(.16 -.99 .99 .16 -306.55 348.64)"/></g></svg>