<svg viewBox="0 0 108 130" xmlns="http://www.w3.org/2000/svg"><g stroke-linecap="round" stroke-linejoin="round" stroke-width="3"><path d="m64 40c-11.48 0-22.85 4.08-22.72 25.62.17 27.41 22.87-.79 22.87-.79z" fill="#ffff64" stroke="#010101"/><path d="m64 40.5c-4.85 12.59-13.42 25.22-29.5 25.22-9.44 0-15.71-1.64-20.54-1.64-5.1 0-7 2-7 4.91 0 12.86 12.37 21.27 37.81 21.27 23 0 41.28-16.2 47.79-42.15a30.53 30.53 0 0 0 -19 8c1.92-6.76-4.08-13.68-9.56-15.61z" fill="#ffff64" stroke="#110b15"/><path d="m84.4 2.09c-6.85 0-10.31 2.65-14 14.53-1.01 3.24-2.4 13.54-6.4 23.88 5.5 1.93 11.5 8.85 9.6 15.58a30.53 30.53 0 0 1 19-8 90 90 0 0 0 2.5-21.81c0-13.66-3.97-24.18-10.7-24.18z" fill="#fff" stroke="#110b15"/><path d="m6.93 69c7.72 5 18.65 9 36.15 9 13 0 22.55-8.19 29.83-22.36" fill="none" stroke="#010101"/></g><circle cx="77.84" cy="18.81" r="2.22"/><circle cx="87.6" cy="18.81" r="2.22"/><g stroke-linecap="round" stroke-linejoin="round" stroke-width="3"><path d="m73.72 55.27c2.57 4.19 3.12 20.69 2.21 29.34-.31 2.88.62 5.65 4.73 5.65 6.4 0 14.41-14.73 14.41-25.25s-.25-14.55-2.07-17.94a27.17 27.17 0 0 0 -19.26 8.2" fill="#fff" stroke="#010101"/><path d="m87.59 26c0 2.14-2.18 3.88-4.87 3.88s-4.86-1.72-4.86-3.88" fill="none" stroke="#110b15"/><ellipse cx="10.2" cy="70.46" fill="#ac4300" rx="3.27" ry="5.41" stroke="#010101"/></g></svg>