<svg viewBox="0 0 650 650" xmlns="http://www.w3.org/2000/svg"><path d="m171.74 259.75c-72 0-89.85 58.69-89.71 107.07 0 33.79 14.89 122.72 132.67 122.72 36.77 0 132.69-23.34 132.69-122.72 0-28.19-11.67-96.19-70-96.19h-.39c-7.84 0-33.28 2.32-62.27 13.47-13.39-14.17-25.73-24.35-42.99-24.35z" fill="#ff3801" stroke="#110b15" stroke-linecap="round" stroke-linejoin="round" stroke-width="5"/><path d="m502.06 282.05c-22.37 0-42.75 4.4-56.79 25.42-10.21-10.88-27.71-15.75-44.25-15.75h-.15c-21.09 0-79.18 9.34-79.18 100.83 0 70.43 76.23 114.83 137.64 114.83 73.12-2.4 130.19-55.27 130.1-117.65-.02-54.93-40.11-107.68-87.37-107.68z" fill="#ff3801" stroke="#110b15" stroke-linecap="round" stroke-linejoin="round" stroke-width="5"/><circle cx="150.5" cy="360.62" r="12.76"/><circle cx="206.65" cy="360.62" r="12.76"/><path d="m445.26 309.12a16.13 16.13 0 0 1 -16.1-15.49c-2.23-56.74-13.6-93.63-34.77-142.63-18-41.62-40.36-74.88-58.45-101.67-3.22 5.56-7.14 12.55-11.84 21.22-12.77 23.59-27.86 44.28-41.11 72.09-15.42 32.36-20.33 44.36-30.05 69.36-14 36-18.1 54.27-19.05 63.24a16.12 16.12 0 1 1 -32.06-3.39c1.72-16.2 8.67-39.77 21.26-72.05 10.1-25.88 15.44-38.85 31.31-72.11 13.59-28.47 29-49.73 42-73.7 20.22-37.25 25.81-43.14 27.65-45.07a16.11 16.11 0 0 1 25.2 2.31c3.94 6.06 8.27 12.47 12.85 19.25 18.94 28 42.51 62.92 61.87 107.72a445.47 445.47 0 0 1 25 75.51c7 29.6 11.13 46.46 12.4 78.65a16.13 16.13 0 0 1 -15.48 16.74z" fill="#5f5" stroke="#110b15" stroke-linecap="round" stroke-linejoin="round" stroke-width="5"/><circle cx="468.82" cy="394.76" r="12.76"/><circle cx="524.97" cy="394.76" r="12.76"/><g stroke="#000" stroke-linecap="round" stroke-linejoin="round" stroke-width="5"><path d="m514.87 429a17.21 17.21 0 0 1 -34.41 0" fill="none"/><path d="m194.58 396.19a17.21 17.21 0 0 1 -34.41 0" fill="none"/><g fill="#5f5"><path d="m37.45 561c0-37.85 25.38-64.17 61.86-64.17 20.77 0 36.66 6.15 48.28 19.57 4.19 4.87 6.67 10.85 6.67 15.64a13.12 13.12 0 0 1 -12.82 13.24c-3.93 0-8.29-1.71-12.13-6.07-7.27-9.91-16.5-15.12-29.66-15.12-20.25 0-34.35 15.3-34.35 36.91s14.1 36.75 34.35 36.75c13.16 0 22.31-5.39 29.66-15.13 4-4.36 8.28-6.06 12.3-6.06a13 13 0 0 1 12.73 13.24c0 4.44-2.48 10.42-6.49 15.12-11.62 13.52-27.6 20.08-48.54 20.08-36.48 0-61.86-26.12-61.86-64z"/><path d="m257.72 566.06v45.12c0 7.69-5.38 13.33-12.81 13.33s-12.74-5.81-12.74-13.33v-41.1c0-13.84-7.26-20.93-19.14-20.93-11.1 0-18.54 6.75-20.16 17.26v44.59c0 7.78-5.21 13.25-12.73 13.25s-12.91-5.47-12.91-13.25v-100.56c0-7.78 5.3-13.25 12.91-13.25s12.73 5.47 12.73 13.25v26c5.81-6.83 15.38-10.51 26.32-10.51 22.98-.03 38.53 14.42 38.53 40.13z"/><path d="m359.74 601.35c0 3-1.46 6.16-3.42 8.81-6.92 9.4-22 14.78-37.43 14.78-30.84 0-51.18-19.31-51.18-49.3 0-29.4 20-49.74 48.36-49.74 26.92 0 45.89 18 45.89 43 0 9.92-4.27 14.36-13.33 14.36h-55.37c1.62 11.28 12.22 18.2 26.91 18.2 8.38 0 14.27-2.31 19.14-6.32 3.59-2.22 6.75-3.85 10.86-3.85 6.49-.02 9.57 3.83 9.57 10.06zm-66.48-37.76h43.41c-1.71-10.51-9.4-17.43-21.62-17.43-11.88 0-20.17 6.92-21.79 17.43z"/><path d="m445.86 547.35c0 8.55-4.7 14.36-13.16 14.36-4.53 0-7.61-2.82-10.08-5.64-2.74-2.82-5.64-5.56-10-5.56-7 0-13.93 6.33-13.93 21.62v39c0 7.86-5.3 13.33-12.73 13.33s-12.9-5.55-12.9-13.33v-71.38c0-7.86 5.38-13.33 12.9-13.33a12.23 12.23 0 0 1 12.47 10.51c5.56-7.35 14-11 23.42-11 7.43 0 13.41 2.57 17.26 6.24a20.13 20.13 0 0 1 6.75 15.18z"/><path d="m525.06 547.35c0 8.55-4.7 14.36-13.16 14.36-4.53 0-7.61-2.82-10.08-5.64-2.74-2.82-5.64-5.56-10-5.56-7 0-13.93 6.33-13.93 21.62v39c0 7.86-5.3 13.33-12.73 13.33s-12.9-5.55-12.9-13.33v-71.38c0-7.86 5.38-13.33 12.9-13.33a12.23 12.23 0 0 1 12.47 10.51c5.56-7.35 14-11 23.42-11 7.43 0 13.41 2.57 17.26 6.24a20.13 20.13 0 0 1 6.75 15.18z"/><path d="m617.42 537c0 3.42-1.12 7.86-3.42 12.82l-33.07 71.52c-7.43 16.24-18 24.1-34 24.1-8.46 0-14.87-2-20.76-6.58a14.61 14.61 0 0 1 -5.73-11.11c0-6.67 4.53-12.31 10.6-12.31a10.35 10.35 0 0 1 5.47 1.8c2.9 2.48 6.49 4 9.31 4 4.44 0 8.2-2.47 11.19-7.26l-29.22-63.74c-2.48-5.56-4-9.83-4-12.73 0-6.76 5.22-11.54 12.74-11.54 7.77 0 11.1 4.1 14.52 12.56l19.57 45.2 19.57-44.52c4-9.74 7.6-13.24 14.78-13.24s12.45 4.8 12.45 11.03z"/></g></g></svg>