<svg viewBox="0 0 108 130" xmlns="http://www.w3.org/2000/svg"><path d="m27.72 42.28c-11.48 0-14.33 9.36-14.31 17.08 0 5.39 2.38 19.57 21.16 19.57 5.86 0 21.16-3.72 21.16-19.57 0-4.5-1.86-15.34-11.16-15.34h-.07a31.46 31.46 0 0 0 -9.93 2.14c-2.13-2.25-4.1-3.88-6.85-3.88z" fill="#ff3801" stroke="#110b15" stroke-linecap="round" stroke-linejoin="round" stroke-width="3"/><path d="m80.4 45.84c-3.56 0-6.81.7-9.05 4-1.63-1.73-4.42-2.51-7.06-2.51-3.36 0-12.62 1.49-12.62 16.08 0 11.24 12.16 18.32 22 18.32 11.58-.33 20.68-8.73 20.67-18.73 0-8.75-6.4-17.16-13.94-17.16z" fill="#ff3801" stroke="#110b15" stroke-linecap="round" stroke-linejoin="round" stroke-width="3"/><circle cx="24.33" cy="58.37" r="2.03"/><circle cx="33.29" cy="58.37" r="2.03"/><path d="m71.34 50.16a2.57 2.57 0 0 1 -2.56-2.47c-.36-9-2.17-14.94-5.55-22.75a97.64 97.64 0 0 0 -9.32-16.22c-.51.89-1.14 2-1.89 3.38-2 3.77-4.44 7.07-6.56 11.5-2.46 5.17-3.24 7.08-4.79 11.07-2.24 5.74-2.89 8.65-3 10.08a2.57 2.57 0 1 1 -5.11-.54c.27-2.58 1.38-6.34 3.39-11.49 1.61-4.13 2.46-6.2 5-11.5 2.17-4.54 4.63-7.93 6.7-11.75 3.23-6 4.12-6.89 4.41-7.19a2.57 2.57 0 0 1 4 .37c.63 1 1.32 2 2 3.07a102.11 102.11 0 0 1 9.94 17.18 71.1 71.1 0 0 1 4 12 56.54 56.54 0 0 1 2 12.54 2.57 2.57 0 0 1 -2.47 2.67z" fill="#5f5" stroke="#110b15" stroke-linecap="round" stroke-linejoin="round" stroke-width="3"/><circle cx="75.1" cy="63.81" r="2.03"/><circle cx="84.06" cy="63.81" r="2.03"/><g fill="none" stroke="#000" stroke-linecap="round" stroke-linejoin="round" stroke-width="3"><path d="m82.45 69.27a2.75 2.75 0 0 1 -5.49 0"/><path d="m31.36 64a2.75 2.75 0 1 1 -5.49 0"/></g></svg>