<svg viewBox="0 0 650 650" xmlns="http://www.w3.org/2000/svg"><path d="m612.55 317.24c0-139.56-126.76 104.65-283.13 104.65s-283.14-244.21-283.14-104.65 126.77 252.76 283.14 252.76 283.13-113.19 283.13-252.76z" fill="#ff9400" stroke="#000" stroke-linecap="round" stroke-linejoin="round" stroke-width="5"/><path d="m329.42 4.77c-156.37 0-283.14 113.14-283.14 252.7s126.77 252.71 283.14 252.71 283.13-113.18 283.13-252.71-126.76-252.7-283.13-252.7zm0 323c-31.52 0-58.71-16.53-71.29-40.41 12.59-23.87 39.77-40.4 71.29-40.4s58.7 16.53 71.29 40.4c-12.58 23.87-39.77 40.4-71.29 40.4z" fill="#ff8080" stroke="#000" stroke-linecap="round" stroke-linejoin="round" stroke-width="5"/><circle cx="282.41" cy="72.91" r="18.49"/><circle cx="376.42" cy="72.91" r="18.49"/><path d="m329.42 247c31.52 0 58.7 16.53 71.29 40.4a63.79 63.79 0 0 0 7.46-29.88c0-38.82-35.26-70.29-78.75-70.29s-78.75 31.47-78.75 70.29a63.79 63.79 0 0 0 7.46 29.88c12.59-23.92 39.77-40.4 71.29-40.4z" fill="#ff9400" stroke="#000" stroke-linecap="round" stroke-linejoin="round" stroke-width="5"/><path d="m352.22 121.87a22.81 22.81 0 0 1 -45.61 0" fill="none" stroke="#110b15" stroke-linecap="round" stroke-linejoin="round" stroke-width="5"/><path d="m380.68 375a13.21 13.21 0 0 1 -4.82-25.51c41.3-16.18 68-52.32 68-92.06s-26.68-75.87-68-92.05a13.21 13.21 0 0 1 9.63-24.6c51.5 20.18 84.77 66 84.77 116.65s-33.26 96.57-84.77 116.69a13.16 13.16 0 0 1 -4.81.88z" fill="#fcc"/><path d="m233.94 467.07a13.17 13.17 0 0 1 -4.82-.92c-92.4-36.15-152.12-118.15-152.12-208.67s59.72-172.48 152.12-208.68a13.21 13.21 0 1 1 9.64 24.6c-82.21 32.21-135.33 104.47-135.33 184.08s53.12 151.86 135.33 184.08a13.21 13.21 0 0 1 -4.82 25.51z" fill="#fcc"/><g fill="#ff8080" stroke="#000" stroke-linecap="round" stroke-linejoin="round" stroke-width="3"><path d="m52.42 534.57c25.51 0 42.66 18 42.66 43.95s-17.15 43.94-42.66 43.94h-28.26c-5.86 0-9.64-4-9.64-9.89v-68.05c0-5.92 3.78-9.95 9.64-9.95zm-.06 69c13.3 0 22.21-10.5 22.21-25.08s-8.91-25.09-22.21-25.09h-18.5v50.2z"/><path d="m105.66 588.89c0-21.48 15.2-35.4 36.2-35.4s36.19 13.92 36.19 35.4-15.2 35.4-36.19 35.4-36.2-13.91-36.2-35.4zm53.59 0c0-11-7.2-18.61-17.39-18.61s-17.4 7.56-17.4 18.61 7.2 18.62 17.4 18.62 17.39-7.57 17.39-18.62z"/><path d="m254.88 563.38v51c0 5.62-3.85 9.53-9.22 9.53a8.71 8.71 0 0 1 -8.91-7.57c-4.09 5.12-11.11 7.93-19.17 7.93-16.41.02-27.58-10.27-27.58-28.66v-32.23c0-5.49 3.84-9.52 9.15-9.52s9.16 4.15 9.16 9.52v29.36c0 9.88 5.18 15 13.61 15s14-5.49 14.65-13.92v-30.44c0-5.62 3.78-9.52 9.09-9.52s9.22 3.97 9.22 9.52z"/><path d="m314.15 600.92c13.61 0 21.24 6 21.24 16.84 0 13.55-12.64 21.12-35.59 21.12-20.38 0-31.73-5.74-31.73-16.3 0-5.31 3.6-9.27 8.24-11.47a12.81 12.81 0 0 1 -4.64-10.38c0-4.88 2.19-8.36 7.2-11.47a18.17 18.17 0 0 1 -6.9-14.65c0-13 11.29-21.12 29.18-21.12a43.2 43.2 0 0 1 15.68 2.63l5-4.28a11.39 11.39 0 0 1 7-2.74 6.28 6.28 0 0 1 6.59 6c0 2.69-1.59 5.37-4.09 7.69l-3.17 2.81a18.92 18.92 0 0 1 2.13 9c0 13-11.23 21.06-29.17 21.06a44.85 44.85 0 0 1 -11.54-1.35 3.41 3.41 0 0 0 -1.52 2.81c0 2.38 1.7 3.79 4.94 3.79zm2.56 18.79c0-3.05-2.14-4.45-6.65-4.45h-19.53c-.8 0-1.65 0-2.38-.06a5.24 5.24 0 0 0 -2.14 4.27c0 4.27 4.64 6.47 14.71 6.47 10.5 0 15.99-2.2 15.99-6.23zm-26.37-45.22c0 5.31 4.34 8.66 11.05 8.66s10.68-3.29 10.68-8.66-4.09-8.67-10.68-8.67-11.05 3.36-11.05 8.67z"/><path d="m413.59 582.18v32.22c0 5.5-3.85 9.53-9.16 9.53s-9.09-4.15-9.09-9.53v-29.35c0-9.89-5.19-15-13.67-15-7.94 0-13.25 4.82-14.41 12.33v31.86c0 5.56-3.72 9.46-9.09 9.46s-9.22-3.9-9.22-9.46v-71.8c0-5.55 3.79-9.46 9.22-9.46s9.09 3.91 9.09 9.46v18.56c4.15-4.88 11-7.51 18.8-7.51 16.42 0 27.53 10.32 27.53 28.69z"/><path d="m495 582.18v32.22c0 5.5-3.84 9.53-9.15 9.53s-9.16-4.15-9.16-9.53v-29.35c0-9.89-5.19-15-13.61-15s-14 5.5-14.65 13.92v30.43c0 5.62-3.78 9.53-9.09 9.53s-9.22-4-9.22-9.53v-51c0-5.62 3.85-9.52 9.22-9.52a8.7 8.7 0 0 1 8.91 7.57c4.09-5.13 11.11-7.94 19.16-7.94 16.39-.02 27.59 10.3 27.59 28.67z"/><path d="m575.34 563.38v51c0 5.62-3.85 9.53-9.22 9.53a8.71 8.71 0 0 1 -8.91-7.57c-4.09 5.12-11.11 7.93-19.16 7.93-16.42 0-27.59-10.31-27.59-28.68v-32.21c0-5.49 3.84-9.52 9.15-9.52s9.16 4.15 9.16 9.52v29.36c0 9.88 5.19 15 13.61 15s14-5.49 14.65-13.92v-30.44c0-5.62 3.78-9.52 9.09-9.52s9.22 3.97 9.22 9.52z"/><path d="m643 609a11.9 11.9 0 0 1 -4.21 9c-4.21 3.84-11 6.22-17.88 6.22-12.45 0-21.49-8.48-21.49-21.54v-31h-6.77c-5 0-8.55-3.42-8.55-8.24s3.6-8.18 8.55-8.18h6.77v-10.56c0-5.61 3.73-9.52 9.16-9.52s9.09 3.91 9.09 9.52v10.62h15c5 0 8.54 3.36 8.54 8.18s-3.54 8.24-8.54 8.24h-15v28.26c0 4.94 2.26 7 5.74 7 2.38 0 4.33-1.28 6.41-2.87a9.7 9.7 0 0 1 6.16-2.32c4.19-.04 7.02 2.95 7.02 7.19z"/></g></svg>