<svg viewBox="0 0 108 130" xmlns="http://www.w3.org/2000/svg"><path d="m99.17 50.87c0-22-18.63 8.61-43.3 8.61s-46-30.63-46-8.61 20 39.86 44.66 39.86 44.64-17.84 44.64-39.86z" fill="#ff9400" stroke="#000" stroke-linecap="round" stroke-linejoin="round" stroke-width="3"/><path d="m54.51 1.58c-24.67 0-44.66 17.84-44.66 39.86s20 39.86 44.66 39.86 44.66-17.84 44.66-39.86-19.99-39.86-44.66-39.86zm0 51a12.58 12.58 0 0 1 -11.24-6.39 12.6 12.6 0 0 1 11.24-6.36 12.6 12.6 0 0 1 11.24 6.36 12.59 12.59 0 0 1 -11.24 6.34z" fill="#ff8080" stroke="#000" stroke-linecap="round" stroke-linejoin="round" stroke-width="3"/><circle cx="47.09" cy="12.33" r="2.92"/><circle cx="61.92" cy="12.33" r="2.92"/><g stroke-linecap="round" stroke-linejoin="round" stroke-width="3"><g fill="none"><path d="m58.11 20.05a3.6 3.6 0 0 1 -7.2 0" stroke="#110b15"/><g stroke="#fcc"><path d="m62.6 57.9c7.09-2.78 12-9.1 12-16.46s-5-13.68-12-16.46"/><path d="m39.45 10.46c-13.35 5.23-22.67 17.14-22.67 31 0 13.85 9.32 25.75 22.67 31"/></g></g><path d="m54.51 39.78a12.6 12.6 0 0 1 11.24 6.36 10.08 10.08 0 0 0 1.18-4.7c0-6.12-5.56-11.09-12.42-11.09s-12.42 5-12.42 11.09a10.08 10.08 0 0 0 1.18 4.7 12.6 12.6 0 0 1 11.24-6.36z" fill="#ff9400" stroke="#000"/></g></svg>