<svg viewBox="0 0 650 650" xmlns="http://www.w3.org/2000/svg"><g stroke-linecap="round" stroke-linejoin="round" stroke-width="5"><path d="m571.66 360.28c0-137.76-109.77-356-245.19-356s-245.18 218.24-245.18 356 109.77 249.42 245.18 249.42 245.19-111.7 245.19-249.42z" fill="#fff" stroke="#000"/><g stroke="#110b15"><path d="m363 398.8a36.48 36.48 0 1 1 -72.95 0" fill="none"/><circle cx="249.88" cy="309.91" r="18.25"/><circle cx="403.07" cy="309.91" r="18.25"/></g><g fill="#83bbff" stroke="#000"><path d="m219 564.72c12.52 0 21.53 8.61 21.53 21.13s-9 21-21.53 21h-101.2c-12.92 0-21.27-8.88-21.27-21.94v-149.91c0-13.06 8.35-21.94 21.27-21.94h100.81c12.52 0 21.41 8.61 21.41 21s-8.89 21.13-21.41 21.13h-79.41v34.19h71.88c11.57 0 20.19 8.34 20.19 19.78 0 11.71-8.75 19.65-20.19 19.65h-71.88v35.94z"/><path d="m361.54 559.34c30 0 46.84 13.32 46.84 37.15 0 29.88-27.86 46.57-78.47 46.57-45 0-70-12.66-70-35.94 0-11.71 7.94-20.46 18.17-25.31-6.73-5.51-10.23-13.32-10.23-22.88 0-10.77 4.84-18.44 15.88-25.3-9.83-7.94-15.21-19-15.21-32.3 0-28.67 24.9-46.58 64.34-46.58 13.32 0 24.9 2 34.59 5.79l11-9.42c4.44-3.63 10-6.06 15.48-6.06 8.61 0 14.53 6.33 14.53 13.33 0 5.92-3.5 11.84-9 17l-7 6.19a41.79 41.79 0 0 1 4.71 19.79c0 28.66-24.77 46.43-64.34 46.43a99.22 99.22 0 0 1 -25.44-3 7.52 7.52 0 0 0 -3.37 6.19c0 5.25 3.77 8.35 10.91 8.35zm5.65 41.45c0-6.73-4.71-9.82-14.67-9.82h-43.07c-1.75 0-3.64 0-5.25-.14-3.23 2.69-4.71 5.66-4.71 9.42 0 9.43 10.23 14.27 32.44 14.27 23.15 0 35.26-4.84 35.26-13.73zm-58.19-99.73c0 11.71 9.56 19.11 24.37 19.11 14.53 0 23.55-7.27 23.55-19.11s-9-19.12-23.55-19.12c-14.77 0-24.37 7.41-24.37 19.12z"/><path d="m524.65 559.34c30 0 46.84 13.32 46.84 37.15 0 29.88-27.86 46.57-78.47 46.57-45 0-70-12.66-70-35.94 0-11.71 7.94-20.46 18.17-25.31-6.72-5.51-10.19-13.32-10.19-22.88 0-10.77 4.85-18.44 15.88-25.3-9.82-7.94-15.21-19-15.21-32.3 0-28.67 24.9-46.58 64.34-46.58 13.33 0 24.9 2 34.59 5.79l11-9.42c4.44-3.63 10-6.06 15.48-6.06 8.61 0 14.53 6.33 14.53 13.33 0 5.92-3.49 11.84-9 17l-7 6.19a41.79 41.79 0 0 1 4.71 19.79c0 28.66-24.77 46.43-64.34 46.43a99.22 99.22 0 0 1 -25.44-3 7.51 7.51 0 0 0 -3.36 6.19c0 5.25 3.77 8.35 10.9 8.35zm5.65 41.45c0-6.73-4.71-9.82-14.67-9.82h-43.07c-1.75 0-3.63 0-5.25-.14-3.23 2.69-4.71 5.66-4.71 9.42 0 9.43 10.23 14.27 32.44 14.27 23.15 0 35.26-4.84 35.26-13.73zm-58.14-99.73c0 11.71 9.55 19.11 24.36 19.11 14.54 0 23.55-7.27 23.55-19.11s-9-19.12-23.55-19.12c-14.81 0-24.36 7.41-24.36 19.12z"/></g></g></svg>