<svg xmlns="http://www.w3.org/2000/svg" viewBox="0 0 650 650">
  <defs>
    <style>
      .a {
        fill: #5f5;
      }

      .a, .b, .c, .d {
        stroke: #000;
        stroke-linecap: round;
        stroke-linejoin: round;
        stroke-width: 5px;
      }

      .b {
        fill: #fff;
      }

      .d {
        fill: #ff8080;
      }
    </style>
  </defs>
  <g>
    <path class="a" d="M544.28,200.65a115.82,115.82,0,0,0,28.92-76.72c0-64.35-52.33-116.51-116.89-116.51a116.82,116.82,0,0,0-115,95.66c-5.38-.27-10.82-.42-16.29-.42q-9.47,0-18.77.56a116.81,116.81,0,0,0-115-95.8C126.64,7.42,74.3,59.58,74.3,123.93a115.87,115.87,0,0,0,30.25,78.21c-26.68,34.11-42.18,67.26-42.18,111,0,120.39,117.59,218,262.63,218s262.63-97.6,262.63-218C587.63,268.77,571.68,235.07,544.28,200.65Z"/>
    <ellipse class="b" cx="456.31" cy="123.93" rx="68.53" ry="68.32"/>
    <ellipse class="b" cx="191.19" cy="123.93" rx="68.53" ry="68.32"/>
    <ellipse class="c" cx="191.19" cy="123.93" rx="15.04" ry="14.99"/>
    <ellipse class="c" cx="456.31" cy="123.93" rx="15.04" ry="14.99"/>
    <ellipse cx="380.02" cy="296.99" rx="26.21" ry="26.12"/>
    <ellipse cx="269.98" cy="296.99" rx="26.21" ry="26.12"/>
    <path class="d" d="M325,399.43c-88.73,0-134.5-36.31-169.68-58.3v1.16c0,41.07,22.91,72.62,57.71,93.16,30.62,18.07,70.45,32.17,112,32.17s81.35-14.1,112-32.17c34.8-20.54,57.71-52.09,57.71-93.16v-1.16c-35.18,22-80.95,58.3-169.68,58.3Z"/>
  </g>
  <g>
    <path class="d" d="M101.3,472.25v34.67H165c11.36,0,19.41,7.94,19.41,19.17s-8.05,19-19.41,19H101.3v47.73c0,11.84-7.81,19.9-19.41,19.9s-19.28-8.06-19.28-19.9V453.94c0-11.84,7.56-19.89,19.28-19.89h91.8c11.35,0,19.53,7.81,19.53,19s-8.18,19.16-19.53,19.16Z"/>
    <path class="d" d="M308.81,502.53c0,12.2-6.72,20.51-18.8,20.51-6.47,0-10.86-4-14.4-8.06-3.91-4-8.06-7.94-14.29-7.94-10,0-19.89,9-19.89,30.89v55.78c0,11.23-7.57,19-18.19,19s-18.44-7.94-18.44-19V491.66c0-11.23,7.69-19,18.44-19,9.27,0,16.23,6,17.82,15,7.93-10.5,20-15.75,33.45-15.75,10.62,0,19.16,3.66,24.65,8.91A28.77,28.77,0,0,1,308.81,502.53Z"/>
    <path class="d" d="M311.58,542.69c0-43,30.39-70.8,72.39-70.8s72.38,27.83,72.38,70.8S426,613.49,384,613.49,311.58,585.66,311.58,542.69Zm107.18,0c0-22.1-14.41-37.23-34.79-37.23s-34.79,15.13-34.79,37.23,14.4,37.23,34.79,37.23S418.76,564.78,418.76,542.69Z"/>
    <path class="d" d="M557,566.74c27.22,0,42.48,12.08,42.48,33.69,0,27.1-25.27,42.23-71.17,42.23-40.77,0-63.47-11.47-63.47-32.59,0-10.62,7.2-18.55,16.48-23-6.11-5-9.28-12.08-9.28-20.75,0-9.77,4.39-16.72,14.4-23-8.91-7.2-13.79-17.21-13.79-29.3,0-26,22.58-42.23,58.35-42.23,12.08,0,22.58,1.83,31.37,5.25l10-8.55c4-3.29,9-5.49,14-5.49,7.81,0,13.18,5.74,13.18,12.08,0,5.38-3.17,10.75-8.18,15.38l-6.34,5.62a37.9,37.9,0,0,1,4.27,17.94c0,26-22.46,42.12-58.35,42.12A90,90,0,0,1,508,553.55a6.81,6.81,0,0,0-3,5.62c0,4.76,3.41,7.57,9.88,7.57Zm5.13,37.59c0-6.1-4.28-8.91-13.31-8.91H509.79c-1.59,0-3.3,0-4.76-.12a10.52,10.52,0,0,0-4.27,8.55c0,8.54,9.27,12.94,29.42,12.94C551.17,616.79,562.16,612.39,562.16,604.33Zm-52.74-90.45c0,10.62,8.67,17.33,22.1,17.33,13.18,0,21.36-6.59,21.36-17.33s-8.18-17.33-21.36-17.33C518.09,496.55,509.42,503.26,509.42,513.88Z"/>
  </g>
</svg>
