<svg viewBox="0 0 108 130" xmlns="http://www.w3.org/2000/svg"><g stroke="#000" stroke-linecap="round" stroke-linejoin="round" stroke-width="3"><path d="m92.65 35.23a20.11 20.11 0 1 0 -34.93-16.84c-.93 0-1.86-.07-2.8-.07-1.09 0-2.17 0-3.23.1a20.11 20.11 0 1 0 -34.69 17.07c-4.6 5.89-7.27 11.61-7.27 19.15 0 20.78 20.27 37.63 45.19 37.63s45.18-16.85 45.18-37.63c0-7.64-2.74-13.46-7.45-19.41z" fill="#5f5"/><circle cx="77.51" cy="21.99" fill="#fff" r="11.79"/><circle cx="31.89" cy="21.99" fill="#fff" r="11.79"/><circle cx="31.89" cy="21.99" r="2.59"/><circle cx="77.51" cy="21.99" r="2.59"/></g><circle cx="64.38" cy="51.86" r="4.51"/><circle cx="45.45" cy="51.86" r="4.51"/><path d="m54.92 69.55c-15.27 0-23.14-6.27-29.2-10.07v.2c0 7.09 3.94 12.54 9.93 16.08a38.71 38.71 0 0 0 19.27 5.55 38.7 38.7 0 0 0 19.26-5.55c6-3.54 9.93-9 9.93-16.08v-.2c-6 3.8-13.93 10.07-29.19 10.07z" fill="#ff8080" stroke="#000" stroke-linecap="round" stroke-linejoin="round" stroke-width="3"/></svg>