<svg xmlns="http://www.w3.org/2000/svg" viewBox="0 0 650 650">
  <defs>
    <style>
      .a {
        fill: #ff5;
        stroke: #000;
      }

      .a, .b, .d {
        stroke-linecap: round;
        stroke-linejoin: round;
        stroke-width: 5px;
      }

      .b {
        fill: #ff9300;
      }

      .b, .d {
        stroke: #110b15;
      }

      .c, .d {
        fill: #ffff64;
      }
    </style>
  </defs>
  <g>
    <path class="a" d="M121.62,551.28c7.35,0,13.67,4.45,13.67,13.08v2.56c0,37.85-23.93,58.1-57.76,58.1-38.37,0-63.92-26-63.92-63.65,0-37.94,27.52-64.52,64.94-64.52,17.78,0,31.45,5.39,40.85,12,7.69,5.47,11.87,12.31,11.87,19,0,7.87-6,11.88-12,11.88-4.79,0-8.38-1.37-12.65-4.53-6.15-6.49-14.78-11.7-29-11.7-21.27,0-36.14,15.72-36.14,37.68,0,21.62,14.44,37.34,37,37.34,17.94,0,28.54-8.63,29.13-21.79H78.21C71,576.66,65,571.28,65,564.1c0-8.37,6-12.82,13.24-12.82Z"/>
    <path class="a" d="M225.81,547.35c0,8.55-4.7,14.36-13.16,14.36-4.53,0-7.61-2.82-10.09-5.64-2.73-2.82-5.64-5.56-10-5.56-7,0-13.93,6.33-13.93,21.62v39c0,7.86-5.3,13.33-12.73,13.33S153,619,153,611.18V539.75c0-7.86,5.39-13.33,12.91-13.33a12.23,12.23,0,0,1,12.47,10.51c5.56-7.35,14-11,23.41-11,7.44,0,13.42,2.57,17.27,6.24A20.17,20.17,0,0,1,225.81,547.35Z"/>
    <path class="a" d="M333.51,604.69c0,4.44-1.37,7.86-4.36,11.62-3.67,4.7-10.68,8-17.26,8-8.37,0-15-3.84-19-10.34-6.49,6.92-16.06,10.77-27.09,10.77-19.39,0-32.38-10.94-32.38-27.43,0-14.7,8.46-23.84,25.89-27.86l21.36-5c5.81-1.28,7.95-3.42,7.95-7.43,0-5.64-4.7-9.06-12.65-9.06-7,0-14.69,3.42-21,8.89-5.21,3.93-8.11,5.47-11.53,5.47-6.24,0-10.43-3.76-10.43-9.49,0-4,1.46-7.69,4.7-11.28,8.55-10,22.65-15.64,38.88-15.64,23.67,0,37.68,11.28,37.68,33.07v36.49c0,2.65.94,4.61,3.59,4.61a5.25,5.25,0,0,0,4-2,6,6,0,0,1,4.7-2.05C330.6,596.06,333.51,599.82,333.51,604.69Zm-44.77-15V579.22a21.84,21.84,0,0,1-8.12,3.51l-8.46,1.88c-7.69,1.62-11.62,5.38-11.62,10.68,0,5.47,4.87,9.14,12.13,9.14C281.9,604.43,288.74,598.19,288.74,589.73Z"/>
    <path class="a" d="M441.85,575.46c0,29.74-19.74,49.56-45.72,49.56-12.13,0-21.27-3.16-28.11-10.34V632c0,7.86-5.21,13.33-12.73,13.33s-12.9-5.47-12.9-13.33v-92.2c0-7.86,5.29-13.33,12.9-13.33a12.17,12.17,0,0,1,12.56,10.85c6.66-7.35,16.49-11.37,28.28-11.37C422.11,525.9,441.85,545.73,441.85,575.46Zm-26.32,0c0-15.8-10.25-26.06-24-26.06-14.27,0-23.93,11.2-23.93,26.06s9.66,26.07,23.93,26.07C405.28,601.53,415.53,591.27,415.53,575.46Z"/>
    <path class="a" d="M543.21,601.35c0,3-1.45,6.16-3.42,8.81-6.92,9.4-22,14.78-37.43,14.78-30.84,0-51.18-19.31-51.18-49.3,0-29.4,20-49.74,48.36-49.74,26.92,0,45.89,18,45.89,43,0,9.92-4.27,14.36-13.33,14.36H476.73c1.62,11.28,12.22,18.2,26.92,18.2,8.37,0,14.27-2.31,19.14-6.32,3.59-2.22,6.75-3.85,10.85-3.85C540.13,591.27,543.21,595.12,543.21,601.35Zm-66.48-37.76h43.41c-1.71-10.51-9.4-17.43-21.62-17.43C486.64,546.16,478.35,553.08,476.73,563.59Z"/>
    <path class="a" d="M560.67,611.69c-3.41-3.41-5.55-7.77-5.55-12,0-6.16,4-10.17,10.08-10.17,3.85,0,7,1.37,12,5.64,7.26,6.06,13.41,8.63,21.27,8.63s12.22-2.82,12.22-8c0-4.95-3.16-7.86-10.25-9.31l-14.1-3.08c-18.2-3.93-27.86-13.59-27.86-27.86,0-18.28,14.61-29.65,38.2-29.65,11.7,0,23.15,3.25,30.25,8.38,5.47,4.1,8.63,9.23,8.63,14.61,0,5.72-4.19,9.83-10.09,9.83-4,0-7.52-2.14-12.81-6.16-5.9-4.44-11-6.15-16.58-6.15-7,0-11.19,2.74-11.19,7.35q0,6.4,10,8.46l15.21,3.25c18.29,3.93,27.09,13.07,27.09,27.94,0,19.65-15.3,31.61-40.42,31.61C581.87,625,567.68,619.81,560.67,611.69Z"/>
  </g>
  <path class="b" d="M525.63,289.53c74.71-84.62,118-184.54,115.73-267.27a15.63,15.63,0,1,0-31.24,1c1.22,44.26-12.48,94.41-38.15,144.28-56.82,32.3-104.87,13.69-113.88,7.15a15.57,15.57,0,0,0-21.82,3.6,15.86,15.86,0,0,0-.56,17.61,15.7,15.7,0,0,0,4.06,4.36c15.8,11.47,57.34,24.5,106.08,11.71a524.08,524.08,0,0,1-43.54,56.71,15.81,15.81,0,0,0-1.58,18.85l2.83,3.38A15.56,15.56,0,0,0,525.63,289.53Z"/>
  <path class="c" d="M220,286.85a51,51,0,1,1-15.92,70.31A51,51,0,0,1,220,286.85"/>
  <path class="d" d="M220,286.85a51,51,0,1,1-15.92,70.31A51,51,0,0,1,220,286.85Z"/>
  <path class="c" d="M355.07,179.86a51,51,0,1,1-15.93,70.32,51,51,0,0,1,15.93-70.32"/>
  <path class="d" d="M355.07,179.86a51,51,0,1,1-15.93,70.32A51,51,0,0,1,355.07,179.86Z"/>
  <path class="c" d="M304.22,260.3a51,51,0,1,1-15.91,70.31,51,51,0,0,1,15.91-70.31"/>
  <path class="d" d="M304.22,260.3a51,51,0,1,1-15.91,70.31A51,51,0,0,1,304.22,260.3Z"/>
  <path class="c" d="M186.57,370.31a51,51,0,1,1-15.92,70.29,51,51,0,0,1,15.92-70.29"/>
  <path class="d" d="M186.57,370.31a51,51,0,1,1-15.92,70.29A51,51,0,0,1,186.57,370.31Z"/>
  <path class="c" d="M294.27,364.72A51,51,0,1,1,278.36,435a51,51,0,0,1,15.91-70.31"/>
  <path class="d" d="M294.27,364.72A51,51,0,1,1,278.36,435,51,51,0,0,1,294.27,364.72Z"/>
  <path class="c" d="M351.82,384.92a51,51,0,1,1-15.92,70.31,51,51,0,0,1,15.92-70.31"/>
  <path class="d" d="M351.82,384.92a51,51,0,1,1-15.92,70.31A51,51,0,0,1,351.82,384.92Z"/>
  <path class="c" d="M382.91,335.37A51,51,0,1,1,367,405.68a51,51,0,0,1,15.91-70.31"/>
  <path class="d" d="M382.91,335.37A51,51,0,1,1,367,405.68,51,51,0,0,1,382.91,335.37Z"/>
  <path class="c" d="M382.3,267.18a51,51,0,1,1-15.91,70.3,51,51,0,0,1,15.91-70.3"/>
  <path class="d" d="M382.3,267.18a51,51,0,1,1-15.91,70.3A51,51,0,0,1,382.3,267.18Z"/>
  <path class="c" d="M463.19,284.74a51,51,0,1,1-15.91,70.31,51,51,0,0,1,15.91-70.31"/>
  <path class="d" d="M463.19,284.74a51,51,0,1,1-15.91,70.31A51,51,0,0,1,463.19,284.74Z"/>
  <path class="c" d="M249.12,419.77a51,51,0,1,1-15.92,70.3,51,51,0,0,1,15.92-70.3"/>
  <path class="d" d="M249.12,419.77a51,51,0,1,1-15.92,70.3A51,51,0,0,1,249.12,419.77Z"/>
  <path class="c" d="M31.49,343.42a51,51,0,1,1-15.93,70.32,51,51,0,0,1,15.93-70.32"/>
  <path class="d" d="M31.49,343.42a51,51,0,1,1-15.93,70.32A51,51,0,0,1,31.49,343.42Z"/>
  <path class="c" d="M246.44,168.67A51,51,0,1,1,230.53,239a51,51,0,0,1,15.91-70.31"/>
  <path class="d" d="M246.44,168.67A51,51,0,1,1,230.53,239,51,51,0,0,1,246.44,168.67Z"/>
  <path class="c" d="M92.87,282.9A51,51,0,1,1,77,353.19,51,51,0,0,1,92.87,282.9"/>
  <path class="d" d="M92.87,282.9A51,51,0,1,1,77,353.19,51,51,0,0,1,92.87,282.9Z"/>
  <path class="c" d="M91.92,380.25A51,51,0,1,1,76,450.57a51,51,0,0,1,15.93-70.32"/>
  <path class="d" d="M91.92,380.25A51,51,0,1,1,76,450.57,51,51,0,0,1,91.92,380.25Z"/>
  <path class="c" d="M305.76,101.68A51,51,0,1,1,289.85,172a51,51,0,0,1,15.91-70.3"/>
  <path class="d" d="M305.76,101.68A51,51,0,1,1,289.85,172,51,51,0,0,1,305.76,101.68Z"/>
  <path class="c" d="M387.31,103.11a51,51,0,1,1-15.92,70.29,51,51,0,0,1,15.92-70.29"/>
  <path class="d" d="M387.31,103.11a51,51,0,1,1-15.92,70.29A51,51,0,0,1,387.31,103.11Z"/>
  <path class="c" d="M478.31,346.28a51,51,0,1,1-15.91,70.31,51,51,0,0,1,15.91-70.31"/>
  <path class="d" d="M478.31,346.28a51,51,0,1,1-15.91,70.31A51,51,0,0,1,478.31,346.28Z"/>
  <path class="c" d="M165.07,237.36a51,51,0,1,1-15.92,70.29,51,51,0,0,1,15.92-70.29"/>
  <path class="d" d="M165.07,237.36a51,51,0,1,1-15.92,70.29A51,51,0,0,1,165.07,237.36Z"/>
  <path class="c" d="M141.64,320.41a51,51,0,1,1-15.91,70.31,51,51,0,0,1,15.91-70.31"/>
  <path class="d" d="M141.64,320.41a51,51,0,1,1-15.91,70.31A51,51,0,0,1,141.64,320.41Z"/>
</svg>
