<svg xmlns="http://www.w3.org/2000/svg" viewBox="0 0 108 130">
  <defs>
    <style>
      .a {
        fill: #ff9300;
      }

      .a, .c {
        stroke: #110b15;
        stroke-linecap: round;
        stroke-linejoin: round;
        stroke-width: 3px;
      }

      .b, .c {
        fill: #ffff64;
      }
    </style>
  </defs>
  <path class="a" d="M87.57,49.42C99.8,35.09,106.74,18.3,106.14,4.5a2.61,2.61,0,1,0-5.21.25c.32,7.38-1.82,15.79-6,24.18-9.39,5.55-17.45,2.58-19,1.51a2.6,2.6,0,0,0-3.63.66,2.65,2.65,0,0,0,0,2.94,2.77,2.77,0,0,0,.69.72c2.67,1.87,9.63,3.93,17.73,1.66A87.13,87.13,0,0,1,83.62,46a2.65,2.65,0,0,0-.21,3.15l.49.55A2.58,2.58,0,0,0,87.57,49.42Z"/>
  <path class="b" d="M36.58,49.82A8.51,8.51,0,1,1,34.12,61.6a8.5,8.5,0,0,1,2.46-11.78"/>
  <path class="c" d="M36.58,49.82A8.51,8.51,0,1,1,34.12,61.6,8.5,8.5,0,0,1,36.58,49.82Z"/>
  <path class="b" d="M58.81,31.6a8.5,8.5,0,1,1-2.46,11.77A8.49,8.49,0,0,1,58.81,31.6"/>
  <path class="c" d="M58.81,31.6a8.5,8.5,0,1,1-2.46,11.77A8.49,8.49,0,0,1,58.81,31.6Z"/>
  <path class="b" d="M50.55,45.16a8.51,8.51,0,1,1-2.46,11.78,8.5,8.5,0,0,1,2.46-11.78"/>
  <path class="c" d="M50.55,45.16a8.51,8.51,0,1,1-2.46,11.78A8.5,8.5,0,0,1,50.55,45.16Z"/>
  <path class="b" d="M31.23,63.84a8.51,8.51,0,1,1-2.46,11.77,8.5,8.5,0,0,1,2.46-11.77"/>
  <path class="c" d="M31.23,63.84a8.51,8.51,0,1,1-2.46,11.77A8.5,8.5,0,0,1,31.23,63.84Z"/>
  <path class="b" d="M49.18,62.61a8.51,8.51,0,1,1-2.46,11.78,8.52,8.52,0,0,1,2.46-11.78"/>
  <path class="c" d="M49.18,62.61a8.51,8.51,0,1,1-2.46,11.78A8.52,8.52,0,0,1,49.18,62.61Z"/>
  <path class="b" d="M58.84,65.82a8.51,8.51,0,1,1-2.46,11.77,8.5,8.5,0,0,1,2.46-11.77"/>
  <path class="c" d="M58.84,65.82a8.51,8.51,0,1,1-2.46,11.77A8.5,8.5,0,0,1,58.84,65.82Z"/>
  <path class="b" d="M63.89,57.47a8.5,8.5,0,1,1-2.46,11.77,8.49,8.49,0,0,1,2.46-11.77"/>
  <path class="c" d="M63.89,57.47a8.5,8.5,0,1,1-2.46,11.77A8.49,8.49,0,0,1,63.89,57.47Z"/>
  <path class="b" d="M63.6,46.09a8.51,8.51,0,1,1-2.46,11.77A8.5,8.5,0,0,1,63.6,46.09"/>
  <path class="c" d="M63.6,46.09a8.51,8.51,0,1,1-2.46,11.77A8.5,8.5,0,0,1,63.6,46.09Z"/>
  <path class="b" d="M77.14,48.79a8.51,8.51,0,1,1-2.46,11.78,8.52,8.52,0,0,1,2.46-11.78"/>
  <path class="c" d="M77.14,48.79a8.51,8.51,0,1,1-2.46,11.78A8.52,8.52,0,0,1,77.14,48.79Z"/>
  <path class="b" d="M41.8,71.92A8.51,8.51,0,1,1,39.34,83.7,8.5,8.5,0,0,1,41.8,71.92"/>
  <path class="c" d="M41.8,71.92A8.51,8.51,0,1,1,39.34,83.7,8.5,8.5,0,0,1,41.8,71.92Z"/>
  <path class="b" d="M5.27,59.79A8.51,8.51,0,1,1,2.81,71.56,8.51,8.51,0,0,1,5.27,59.79"/>
  <path class="c" d="M5.27,59.79A8.51,8.51,0,1,1,2.81,71.56,8.51,8.51,0,0,1,5.27,59.79Z"/>
  <path class="b" d="M40.65,30a8.51,8.51,0,1,1-2.46,11.78A8.52,8.52,0,0,1,40.65,30"/>
  <path class="c" d="M40.65,30a8.51,8.51,0,1,1-2.46,11.78A8.52,8.52,0,0,1,40.65,30Z"/>
  <path class="b" d="M15.35,49.52a8.5,8.5,0,1,1-2.46,11.77,8.5,8.5,0,0,1,2.46-11.77"/>
  <path class="c" d="M15.35,49.52a8.5,8.5,0,1,1-2.46,11.77A8.5,8.5,0,0,1,15.35,49.52Z"/>
  <path class="b" d="M15.46,65.76A8.51,8.51,0,1,1,13,77.54a8.5,8.5,0,0,1,2.46-11.78"/>
  <path class="c" d="M15.46,65.76A8.51,8.51,0,1,1,13,77.54,8.5,8.5,0,0,1,15.46,65.76Z"/>
  <path class="b" d="M50.36,18.69A8.51,8.51,0,1,1,47.9,30.46a8.51,8.51,0,0,1,2.46-11.77"/>
  <path class="c" d="M50.36,18.69A8.51,8.51,0,1,1,47.9,30.46,8.51,8.51,0,0,1,50.36,18.69Z"/>
  <path class="b" d="M64,18.7a8.51,8.51,0,1,1-2.46,11.77A8.51,8.51,0,0,1,64,18.7"/>
  <path class="c" d="M64,18.7a8.51,8.51,0,1,1-2.46,11.77A8.51,8.51,0,0,1,64,18.7Z"/>
  <path class="b" d="M79.84,59A8.51,8.51,0,1,1,77.38,70.8,8.5,8.5,0,0,1,79.84,59"/>
  <path class="c" d="M79.84,59A8.51,8.51,0,1,1,77.38,70.8,8.5,8.5,0,0,1,79.84,59Z"/>
  <path class="b" d="M27.27,41.72a8.5,8.5,0,1,1-2.46,11.77,8.5,8.5,0,0,1,2.46-11.77"/>
  <path class="c" d="M27.27,41.72a8.5,8.5,0,1,1-2.46,11.77A8.5,8.5,0,0,1,27.27,41.72Z"/>
  <path class="b" d="M23.59,55.64a8.51,8.51,0,1,1-2.46,11.78,8.5,8.5,0,0,1,2.46-11.78"/>
  <path class="c" d="M23.59,55.64a8.51,8.51,0,1,1-2.46,11.78A8.5,8.5,0,0,1,23.59,55.64Z"/>
</svg>
