<svg viewBox="0 0 650 650" xmlns="http://www.w3.org/2000/svg"><g stroke-linecap="round" stroke-linejoin="round"><g stroke="#110b15" stroke-width="5"><path d="m571.7 366.82c-39.92-52.39-131.23-89-237.48-89s-197.57 36.63-237.48 89h-21.47v59.18c0 81.85 115.94 148.2 259 148.2s258.89-66.36 258.89-148.2v-59.18z" fill="#ff9400"/><path d="m552.33 352.17a56.83 56.83 0 0 0 -50.33 30.45v-43.74h-335.56v43.74a56.83 56.83 0 1 0 0 52.76v1.41a56.86 56.86 0 0 0 54.09 74.3c26.47 0 50.57-18.09 56.89-42.58a56.83 56.83 0 0 0 56.77 54.15h.06a56.82 56.82 0 0 0 56.75-54.15c6.32 24.49 30.43 42.58 56.9 42.58a56.86 56.86 0 0 0 54.1-74.3v-1.41a56.83 56.83 0 1 0 50.34-83.21z" fill="#5f5"/><path d="m607.55 334.06-13.67-40.89-533 17.09v23.8c0 75.5 122.35 136.7 273.34 136.7s273.33-61.2 273.33-136.7z" fill="#ac4300"/><path d="m333.62 184.9c-89.7 0-289.11 2.92-283.74 153.77 113.93 23.72 241 91 284.39 150.57 43.39-59.55 170.46-126.85 284.4-150.57 0-141.92-194.8-153.77-285-153.77z" fill="#f3d131"/><path d="m592.16 241.16v-59.23h-515.88v59.23c0 71.24 115.45 129 257.94 129s257.94-57.76 257.94-129z" fill="#ff3801"/><ellipse cx="334.22" cy="160.9" fill="#ff3801" rx="257.94" ry="129"/><path d="m604.09 183.68c0-76.88-120.82-177.82-269.87-177.82s-269.88 100.94-269.88 177.82v18.32c0 67.17 120.83 121.62 269.88 121.62s269.87-54.42 269.87-121.62z" fill="#ff9400"/><path d="m364 182.87c0 13.11-13.32 23.73-29.75 23.73s-29.78-10.6-29.78-23.73" fill="none"/><circle cx="284.77" cy="119.86" r="13.43"/><circle cx="383.67" cy="119.86" r="13.43"/></g><g fill="#ff3801" stroke="#000" stroke-width="3"><path d="m83.65 552.58v62.42c0 5.2-3.38 8.75-8.48 8.75s-8.49-3.55-8.49-8.75v-23.37h-33.09v23.37c0 5.2-3.43 8.75-8.54 8.75s-8.48-3.55-8.48-8.75v-62.42c0-5.21 3.38-8.75 8.48-8.75s8.54 3.54 8.54 8.75v22.94h33.09v-22.94c0-5.21 3.38-8.75 8.49-8.75s8.48 3.54 8.48 8.75z"/><path d="m157.66 611.29a11 11 0 0 1 -2.74 7.3 14.47 14.47 0 0 1 -10.85 5 13.39 13.39 0 0 1 -11.93-6.5c-4.08 4.35-10.09 6.77-17 6.77-12.2 0-20.36-6.87-20.36-17.24 0-9.24 5.32-15 16.28-17.51l13.4-3.11c3.66-.8 5-2.15 5-4.67 0-3.55-3-5.69-8-5.69-4.41 0-9.24 2.14-13.21 5.58-3.28 2.47-5.11 3.44-7.26 3.44-3.92 0-6.55-2.36-6.55-6a10.23 10.23 0 0 1 3-7.09c5.37-6.29 14.23-9.83 24.43-9.83 14.88 0 23.69 7.09 23.69 20.78v22.94c0 1.66.59 2.9 2.26 2.9a3.27 3.27 0 0 0 2.52-1.24 3.78 3.78 0 0 1 3-1.29c2.49.03 4.32 2.4 4.32 5.46zm-28.15-9.4v-6.61a13.65 13.65 0 0 1 -5.1 2.21l-5.32 1.18c-4.83 1-7.3 3.38-7.3 6.71s3.06 5.75 7.62 5.75c5.8 0 10.1-3.92 10.1-9.24z"/><path d="m259.91 587v28.36c0 4.83-3.38 8.38-8.06 8.38s-8-3.65-8-8.38v-25.82c0-8.7-4.25-13.16-11.23-13.16-7.47 0-12.14 5.48-12.14 13.69v25.3c0 4.83-3.38 8.38-8.05 8.38s-8.06-3.65-8.06-8.38v-25.83c0-8.7-4.24-13.16-11.23-13.16s-11.54 4.83-12.08 12.19v26.8c0 4.94-3.33 8.38-8 8.38s-8.11-3.49-8.11-8.38v-44.9c0-4.94 3.38-8.38 8.11-8.38a7.69 7.69 0 0 1 7.84 6.61c3.43-4.52 9.29-6.93 16.11-6.93 8.11 0 14.77 3.06 18.85 8.81 3.6-5.21 10.1-8.81 20.2-8.81 13.94 0 23.85 9.08 23.85 25.23z"/><path d="m335 592.92c0 18.69-12.4 31.15-28.73 31.15-7.68 0-13.54-2-17.83-6.71a7.68 7.68 0 0 1 -7.85 6.39c-4.78 0-8.11-3.44-8.11-8.38v-63.16c0-4.94 3.33-8.38 8.11-8.38s8 3.44 8 8.38v16.49c4.19-4.52 10.36-6.93 17.67-6.93 16.33 0 28.74 12.46 28.74 31.15zm-16.54 0c0-9.94-6.44-16.38-15.09-16.38-9 0-15 7-15 16.38s6.07 16.38 15 16.38c8.63 0 15.08-6.44 15.08-16.38z"/><path d="m400.8 570.47v44.9c0 4.94-3.39 8.38-8.11 8.38a7.67 7.67 0 0 1 -7.85-6.66c-3.59 4.51-9.77 7-16.86 7-14.45 0-24.28-9.07-24.28-25.24v-28.38c0-4.83 3.39-8.38 8.06-8.38s8.05 3.65 8.05 8.38v25.83c0 8.7 4.57 13.16 12 13.16s12.36-4.83 12.89-12.24v-26.75c0-4.94 3.33-8.38 8-8.38s8.1 3.49 8.1 8.38z"/><path d="m459.69 575.25c0 5.37-2.95 9-8.27 9-2.85 0-4.78-1.77-6.34-3.54-1.72-1.77-3.54-3.49-6.28-3.49-4.41 0-8.76 4-8.76 13.59v24.54c0 4.94-3.33 8.38-8 8.38s-8.11-3.49-8.11-8.38v-44.9c0-4.94 3.38-8.38 8.11-8.38a7.69 7.69 0 0 1 7.84 6.61 17.91 17.91 0 0 1 14.72-6.93 15.55 15.55 0 0 1 10.85 3.92 12.67 12.67 0 0 1 4.24 9.58z"/><path d="m503.31 603.5c12 0 18.69 5.32 18.69 14.83 0 11.92-11.12 18.58-31.31 18.58-17.94 0-27.93-5-27.93-14.34 0-4.67 3.17-8.17 7.25-10.1a11.28 11.28 0 0 1 -4.08-9.13c0-4.3 1.93-7.36 6.33-10.1a16 16 0 0 1 -6.06-12.89c0-11.44 9.93-18.58 25.67-18.58a37.89 37.89 0 0 1 13.8 2.31l4.41-3.76a10 10 0 0 1 6.17-2.42 5.52 5.52 0 0 1 5.8 5.32c0 2.36-1.39 4.72-3.59 6.77l-2.8 2.47a16.57 16.57 0 0 1 1.88 7.89c0 11.44-9.88 18.53-25.67 18.53a39.4 39.4 0 0 1 -10.15-1.18 3 3 0 0 0 -1.35 2.47c0 2.1 1.51 3.33 4.36 3.33zm2.26 16.5c0-2.68-1.88-3.92-5.86-3.92h-17.19c-.69 0-1.45 0-2.09 0a4.62 4.62 0 0 0 -1.88 3.76c0 3.76 4.08 5.69 12.94 5.69 9.24-.01 14.08-1.94 14.08-5.53zm-23.21-39.8c0 4.68 3.82 7.63 9.72 7.63s9.4-2.9 9.4-7.63-3.6-7.62-9.4-7.62-9.72 2.99-9.72 7.66z"/><path d="m584.78 609.19a9.78 9.78 0 0 1 -2.15 5.54c-4.35 5.9-13.8 9.29-23.52 9.29-19.39 0-32.18-12.14-32.18-31 0-18.48 12.57-31.26 30.4-31.26 16.92 0 28.85 11.33 28.85 27 0 6.24-2.69 9-8.38 9h-34.8c1 7.09 7.68 11.44 16.92 11.44 5.27 0 9-1.45 12-4 2.26-1.39 4.25-2.41 6.82-2.41 4.11.07 6.04 2.48 6.04 6.4zm-41.78-23.74h27.29c-1.08-6.6-5.91-11-13.59-11-7.48.05-12.7 4.4-13.7 11z"/><path d="m641.64 575.25c0 5.37-2.95 9-8.27 9-2.85 0-4.78-1.77-6.34-3.54-1.72-1.77-3.54-3.49-6.28-3.49-4.41 0-8.76 4-8.76 13.59v24.54c0 4.94-3.33 8.38-8 8.38s-8.11-3.49-8.11-8.38v-44.9c0-4.94 3.38-8.38 8.11-8.38a7.69 7.69 0 0 1 7.84 6.61 17.91 17.91 0 0 1 14.72-6.93 15.55 15.55 0 0 1 10.85 3.92 12.67 12.67 0 0 1 4.24 9.58z"/></g></g></svg>