<svg viewBox="0 0 108 130" xmlns="http://www.w3.org/2000/svg"><g stroke="#110b15" stroke-linecap="round" stroke-linejoin="round" stroke-width="3"><path d="m86.79 53.36c-5.48-7.2-18-12.24-32.64-12.24s-27.15 5.04-32.65 12.24h-2.95v8.14c0 11.25 15.94 20.37 35.6 20.37s35.59-9.12 35.59-20.37v-8.14z" fill="#ff9400"/><path d="m84.13 51.35a7.83 7.83 0 0 0 -6.92 4.18v-6h-46.13v6a7.81 7.81 0 1 0 0 7.26v.21a7.93 7.93 0 0 0 -.38 2.4 7.82 7.82 0 0 0 7.82 7.82 8.12 8.12 0 0 0 7.82-5.86 7.82 7.82 0 0 0 7.8 7.45 7.82 7.82 0 0 0 7.86-7.47 8.13 8.13 0 0 0 7.83 5.86 7.82 7.82 0 0 0 7.81-7.82 7.93 7.93 0 0 0 -.38-2.4v-.19a7.81 7.81 0 1 0 6.92-11.44z" fill="#5f5"/><path d="m91.72 48.86-1.88-5.62-73.27 2.35v3.27c0 10.38 16.82 18.79 37.58 18.79s37.57-8.41 37.57-18.79z" fill="#ac4300"/><path d="m54.06 28.35c-12.33 0-39.74.4-39 21.14 15.66 3.26 33.13 12.51 39.09 20.7 6-8.18 23.44-17.44 39.1-20.7 0-19.51-26.78-21.14-39.19-21.14z" fill="#f3d131"/><path d="m89.61 36.09v-8.09h-70.92v8.14c0 9.79 15.87 17.73 35.46 17.73s35.46-7.99 35.46-17.78z" fill="#ff3801"/><ellipse cx="54.15" cy="25.05" fill="#ff3801" rx="35.46" ry="17.73"/><path d="m91.25 28.19c0-10.57-16.61-24.45-37.1-24.45s-37.1 13.88-37.1 24.45v2.52c0 9.23 16.61 16.72 37.1 16.72s37.1-7.49 37.1-16.72z" fill="#ff9400"/><path d="m58.24 28.07c0 1.81-1.84 3.27-4.09 3.27s-4.09-1.46-4.09-3.27" fill="none"/><circle cx="47.35" cy="19.41" r="1.85"/><circle cx="60.94" cy="19.41" r="1.85"/></g></svg>