<svg viewBox="0 0 650 650" xmlns="http://www.w3.org/2000/svg"><g stroke-linecap="round" stroke-linejoin="round" stroke-width="5"><g stroke="#000"><path d="m463.09 646.81h-258.59l-33.66-173.38h325.91z" fill="#ff9400"/><path d="m333.8 527.24c154.45 0 204-44.73 204-103.38 0-35.12-25.47-66.72-53.34-79.7-21.87 32-67.18 42.67-150.61 42.67h-.09c-83.43 0-128.73-10.62-150.61-42.67-27.87 13-53.34 44.58-53.34 79.7 0 58.65 49.54 103.38 204 103.38z" fill="#ff9400"/><g fill="#fff"><path d="m333.8 436c163.2 0 215.51-47.27 215.51-109.23 0-37.1-26.91-70.5-56.34-84.21-23.12 33.87-71 45.09-159.13 45.09h-.09c-88.14 0-136-11.22-159.12-45.09-29.44 13.71-56.35 47.11-56.35 84.21 0 62 52.33 109.22 215.52 109.22z"/><path d="m333.8 300.35c123.38 0 163-35.74 163-82.58 0-28.06-20.35-53.31-42.6-63.68-17.48 25.61-53.67 34.1-120.32 34.1h-.07c-66.65 0-102.84-8.49-120.32-34.1-22.25 10.37-42.6 35.62-42.6 63.68 0 46.84 39.57 82.58 163 82.58z"/><path d="m423.34 82.69c16.56 7.71 31.7 26.5 31.7 47.37 0 34.85-29.44 61.44-121.24 61.44-91.81 0-121.25-26.59-121.25-61.44 0-20.87 13.61-42.21 36.7-48.71 17.73-5 44.12-11.56 55.62-12.73"/><path d="m423.34 82.69c-19.68-15.23-57.85-53.26-71.79-77.69-29.82 19.78-46.35 55.91-51.61 80.9-3.63 17.25-15.1 22.23-27.53 22.22"/></g></g><g stroke="#110b15"><circle cx="279.85" cy="242.49" r="12.04"/><circle cx="380.91" cy="242.49" r="12.04"/><path d="m363.08 340.75c0 12.3-13.11 22.27-29.28 22.27s-29.29-10-29.29-22.27" fill="none"/></g><g fill="#b3d9ff" stroke="#000"><path d="m19.69 613.3v-76.6c0-6.39 4.15-10.74 10.41-10.74s10.48 4.35 10.48 10.74v76.6c0 6.39-4.22 10.74-10.48 10.74s-10.41-4.35-10.41-10.74z"/><path d="m54.13 586.21c0-22.42 16.29-38.24 38-38.24 12.33 0 21.36 3.76 26.9 9.5 4 4.15 5.93 8.9 5.93 12.65 0 4.81-3.36 8.44-8.17 8.44-4.09 0-6.79-1.71-9.69-5.08a17.2 17.2 0 0 0 -14.31-7.38c-10.41 0-18.32 8.18-18.32 20.11s7.91 20.1 18.32 20.1c7.19 0 11.67-3.43 14.83-8.17 2.57-3.36 5-4.81 8.9-4.81a8.52 8.52 0 0 1 8.64 8.56c0 3.63-2.11 8.44-6.07 12.53-5.67 5.93-15.36 10-27 10-21.67.02-37.96-15.8-37.96-38.21z"/><path d="m202.27 606.18a12 12 0 0 1 -2.64 6.79c-5.34 7.25-16.94 11.4-28.87 11.4-23.79 0-39.48-14.9-39.48-38 0-22.68 15.42-38.37 37.31-38.37 20.76 0 35.39 13.91 35.39 33.16 0 7.65-3.29 11.07-10.28 11.07h-42.7c1.25 8.71 9.42 14 20.76 14 6.46 0 11-1.78 14.77-4.88 2.76-1.72 5.2-3 8.37-3 5 .05 7.37 3.02 7.37 7.83zm-51.27-29.18h33.48c-1.32-8.1-7.25-13.44-16.67-13.44-9.18.04-15.57 5.38-16.81 13.44z"/><path d="m210.83 586.21c0-22.42 16.28-38.24 38-38.24 12.33 0 21.36 3.76 26.9 9.5 4 4.15 5.93 8.9 5.93 12.65 0 4.81-3.36 8.44-8.18 8.44-4.08 0-6.78-1.71-9.69-5.08a17.17 17.17 0 0 0 -14.3-7.38c-10.41 0-18.32 8.18-18.32 20.11s7.91 20.1 18.32 20.1c7.19 0 11.67-3.43 14.83-8.17 2.57-3.36 4.95-4.81 8.9-4.81a8.52 8.52 0 0 1 8.64 8.56c0 3.63-2.11 8.44-6.07 12.53-5.67 5.93-15.36 10-27 10-21.68.02-37.96-15.8-37.96-38.21z"/><path d="m349.57 564.52c0 6.59-3.62 11.07-10.15 11.07-3.49 0-5.86-2.17-7.78-4.35-2.1-2.17-4.35-4.28-7.71-4.28-5.4 0-10.74 4.88-10.74 16.68v30.12c0 6.06-4.09 10.28-9.82 10.28s-10-4.28-10-10.28v-55.11c0-6.06 4.16-10.28 10-10.28a9.44 9.44 0 0 1 9.62 8.11c4.29-5.67 10.81-8.51 18.06-8.51 5.74 0 10.35 2 13.32 4.82a15.52 15.52 0 0 1 5.2 11.73z"/><path d="m424.09 606.18a12 12 0 0 1 -2.64 6.79c-5.34 7.25-16.94 11.4-28.87 11.4-23.8 0-39.48-14.9-39.48-38 0-22.68 15.42-38.37 37.31-38.37 20.76 0 35.39 13.91 35.39 33.16 0 7.65-3.29 11.07-10.28 11.07h-42.71c1.25 8.71 9.42 14 20.76 14 6.46 0 11-1.78 14.76-4.88 2.77-1.72 5.21-3 8.38-3 5.01.05 7.38 3.02 7.38 7.83zm-51.28-29.18h33.48c-1.32-8.1-7.25-13.44-16.68-13.44-9.16.04-15.55 5.38-16.8 13.44z"/><path d="m511.23 608.75a13.43 13.43 0 0 1 -3.36 9 17.75 17.75 0 0 1 -13.31 6.2 16.46 16.46 0 0 1 -14.64-8c-5 5.34-12.39 8.31-20.89 8.31-15 0-25-8.44-25-21.16 0-11.34 6.53-18.39 20-21.49l16.47-3.89c4.49-1 6.14-2.63 6.14-5.73 0-4.35-3.63-7-9.76-7-5.41 0-11.34 2.64-16.22 6.86-4 3-6.26 4.22-8.89 4.22-4.82 0-8.05-2.91-8.05-7.32a12.55 12.55 0 0 1 3.63-8.7c6.59-7.72 17.47-12.07 30-12.07 18.26 0 29.07 8.71 29.07 25.51v28.15c0 2 .73 3.56 2.77 3.56a4 4 0 0 0 3.1-1.52 4.62 4.62 0 0 1 3.62-1.58c3.09-.01 5.32 2.9 5.32 6.65zm-34.54-11.54v-8.1a16.87 16.87 0 0 1 -6.26 2.7l-6.53 1.45c-5.93 1.25-9 4.15-9 8.24s3.76 7 9.36 7c7.16.05 12.43-4.76 12.43-11.29z"/><path d="m634.69 579v34.8c0 5.93-4.16 10.28-9.89 10.28s-9.89-4.48-9.89-10.28v-31.75c0-10.68-5.21-16.15-13.78-16.15-9.16 0-14.89 6.73-14.89 16.81v31c0 5.93-4.16 10.28-9.89 10.28s-9.89-4.48-9.89-10.28v-31.66c0-10.68-5.21-16.15-13.78-16.15s-14.17 5.94-14.83 15v32.89c0 6.06-4.08 10.28-9.82 10.28s-9.95-4.28-9.95-10.28v-55.14c0-6.06 4.15-10.28 9.95-10.28a9.45 9.45 0 0 1 9.63 8.11c4.21-5.54 11.4-8.51 19.77-8.51 10 0 18.13 3.76 23.14 10.81 4.43-6.39 12.43-10.78 24.78-10.78 17.14 0 29.34 11.11 29.34 31z"/></g></g></svg>