<svg viewBox="0 0 108 130" xmlns="http://www.w3.org/2000/svg"><g stroke-linecap="round" stroke-linejoin="round" stroke-width="3"><g stroke="#000"><path d="m70.97 95.29h-38.16l-4.97-23.91h48.1z" fill="#ff9400"/><path d="m51.89 79.32c22.79 0 30.1-6.6 30.1-15.26 0-5.18-3.76-9.84-7.87-11.76-3.23 4.7-9.91 6.3-22.22 6.3s-19-1.57-22.22-6.3c-4.11 1.92-7.87 6.58-7.87 11.76 0 8.66 7.31 15.26 30.1 15.26z" fill="#ff9400"/><g fill="#fff"><path d="m51.89 65.85c24.08 0 31.8-7 31.8-16.11 0-5.48-4-10.4-8.31-12.43-3.38 5-10.48 6.69-23.48 6.69s-20.07-1.66-23.48-6.66c-4.34 2-8.31 6.95-8.31 12.43 0 9.14 7.72 16.11 31.8 16.11z"/><path d="m51.89 45.84c18.21 0 24-5.27 24-12.19 0-4.14-3-7.86-6.28-9.39-2.58 3.78-7.92 5-17.76 5-9.83 0-15.17-1.25-17.75-5-3.28 1.53-6.29 5.25-6.29 9.39 0 6.92 5.84 12.19 24.05 12.19z"/><path d="m65.1 13.72a8.15 8.15 0 0 1 4.68 7c0 5.15-4.34 9.07-17.89 9.07-13.55-.01-17.89-3.93-17.89-9.08a7.51 7.51 0 0 1 5.41-7.19 68.66 68.66 0 0 1 8.21-1.87"/><path d="m65.1 13.72c-2.9-2.25-8.53-7.86-10.59-11.46-4.4 2.92-6.84 8.25-7.62 11.93a3.75 3.75 0 0 1 -4.06 3.28"/></g></g><g stroke="#110b15"><circle cx="43.93" cy="37.3" r="1.78"/><circle cx="58.84" cy="37.3" r="1.78"/><path d="m56.21 51.8c0 1.82-1.93 3.29-4.32 3.29s-4.32-1.47-4.32-3.29" fill="none"/></g></g></svg>