<svg viewBox="0 0 650 650" xmlns="http://www.w3.org/2000/svg"><g stroke-linecap="round" stroke-linejoin="round" stroke-width="5"><path d="m387.15 550.16a18.29 18.29 0 0 0 12.94-22.42l-133.09-496.43a18.31 18.31 0 0 0 -35.37 9.48l133.1 496.43a18.3 18.3 0 0 0 22.42 12.94z" fill="#ac4300" stroke="#000"/><path d="m33.1 84.01h265.93v168.63h-265.93z" fill="#fff" stroke="#000" transform="matrix(-.96592583 .25881905 -.25881905 -.96592583 370.04 287.94)"/><g stroke="#110b15"><circle cx="166.07" cy="168.33" fill="#ff3801" r="50.22" transform="matrix(.89376315 -.44853921 .44853921 .89376315 -57.85 92.36)"/><path d="m183.1 179.51a13.06 13.06 0 0 1 -25.38 6.16" fill="none"/><circle cx="137.5" cy="163.23" r="6.53" transform="matrix(.95 -.31 .31 .95 -43.72 50.49)"/><circle cx="190.79" cy="150.29" r="6.53" transform="matrix(.95105652 -.30901699 .30901699 .95105652 -37.11 66.33)"/><circle cx="248.07" cy="39.32" fill="#ffff64" r="26.66" transform="matrix(.85016849 -.52651072 .52651072 .85016849 16.47 136.5)"/></g><path d="m264.77 550.16a18.3 18.3 0 0 1 -12.94-22.42l133.08-496.43a18.31 18.31 0 0 1 35.37 9.48l-133.08 496.43a18.32 18.32 0 0 1 -22.43 12.94z" fill="#ac4300" stroke="#000"/><path d="m352.89 84.01h265.93v168.63h-265.93z" fill="#fff" stroke="#000" transform="matrix(.96592583 .25881905 -.25881905 .96592583 60.12 -120.01)"/><g stroke="#110b15"><circle cx="485.86" cy="168.33" fill="#ff3801" r="50.22" transform="matrix(.44853921 -.89376315 .89376315 .44853921 117.51 527.09)"/><path d="m468.82 179.51a13.06 13.06 0 1 0 25.38 6.16" fill="none"/><circle cx="514.42" cy="163.23" r="6.53" transform="matrix(.30901699 -.95105652 .95105652 .30901699 200.2 602.02)"/><circle cx="461.13" cy="150.29" r="6.53" transform="matrix(.30901699 -.95105652 .95105652 .30901699 175.67 542.39)"/><circle cx="403.86" cy="39.32" fill="#ffff64" r="26.66" transform="matrix(.52651072 -.85016849 .85016849 .52651072 157.79 361.96)"/></g><g fill="#ff3801" stroke="#000"><path d="m26.16 601.27a56.3 56.3 0 0 1 -6.54-26.46c0-10.26 5.56-18.07 15.13-18.07s14.65 5.26 15.43 13.57c1.86 16.8 10.06 23.83 21 23.83 14.06 0 22.56-7.23 22.56-26.17v-72.56c0-9.47 6.15-15.92 15.52-15.92 9.18 0 15.43 6.55 15.43 15.92v71.78c0 41.11-23.73 58.2-53.8 58.2-20.51 0-37.6-9.57-44.73-24.12z"/><path d="m258.19 602.15c0 5.08-1.56 9-5 13.28-4.2 5.37-12.21 9.18-19.73 9.18-9.57 0-17.19-4.4-21.68-11.82-7.42 7.91-18.36 12.31-31 12.31-22.17 0-37-12.5-37-31.35 0-16.8 9.67-27.25 29.59-31.84l24.42-5.76c6.64-1.46 9.08-3.9 9.08-8.49 0-6.45-5.37-10.35-14.45-10.35-8 0-16.8 3.9-24 10.15-5.95 4.49-9.27 6.25-13.18 6.25-7.13 0-11.91-4.3-11.91-10.84 0-4.59 1.66-8.79 5.37-12.89 9.76-11.42 25.88-17.87 44.43-17.87 27 0 43.07 12.89 43.07 37.79v41.7c0 3 1.07 5.28 4.1 5.28a6 6 0 0 0 4.59-2.25 6.84 6.84 0 0 1 5.37-2.34c4.61 0 7.93 4.29 7.93 9.86zm-51.19-17.09v-12a25.07 25.07 0 0 1 -9.28 4l-9.67 2.15c-8.79 1.86-13.28 6.15-13.28 12.21 0 6.25 5.57 10.45 13.87 10.45 10.56-.01 18.36-7.14 18.36-16.81z"/><path d="m382 568.75c0 34-22.56 56.64-52.24 56.64-13.87 0-24.32-3.61-32.13-11.82v19.73c0 9-6 15.24-14.55 15.24s-14.75-6.25-14.75-15.24v-105.37c0-9 6.06-15.23 14.75-15.23a13.91 13.91 0 0 1 14.35 12.4c7.62-8.4 18.85-13 32.33-13 29.68.01 52.24 22.67 52.24 56.65zm-30.08 0c0-18.07-11.71-29.78-27.44-29.78-16.31 0-27.34 12.79-27.34 29.78s11 29.79 27.34 29.79c15.73 0 27.44-11.72 27.44-29.79z"/><path d="m508 602.15c0 5.08-1.56 9-5 13.28-4.2 5.37-12.2 9.18-19.72 9.18-9.57 0-17.19-4.4-21.68-11.82-7.42 7.91-18.36 12.31-31 12.31-22.17 0-37-12.5-37-31.35 0-16.8 9.67-27.25 29.59-31.84l24.41-5.76c6.64-1.46 9.09-3.9 9.09-8.49 0-6.45-5.38-10.35-14.46-10.35-8 0-16.79 3.9-24 10.15-6 4.49-9.28 6.25-13.18 6.25-7.13 0-11.92-4.3-11.92-10.84 0-4.59 1.66-8.79 5.37-12.89 9.77-11.42 25.88-17.87 44.44-17.87 27.05 0 43.06 12.89 43.06 37.79v41.7c0 3 1.08 5.28 4.1 5.28a6 6 0 0 0 4.59-2.25 6.85 6.85 0 0 1 5.37-2.34c4.64 0 7.94 4.29 7.94 9.86zm-51.17-17.09v-12a25 25 0 0 1 -9.27 4l-9.67 2.15c-8.79 1.86-13.28 6.15-13.28 12.21 0 6.25 5.56 10.45 13.86 10.45 10.53-.01 18.38-7.14 18.38-16.81z"/><path d="m622 558v51.56c0 8.79-6.15 15.23-14.64 15.23-8.7 0-14.65-6.64-14.65-15.23v-47c0-15.82-8.3-23.93-21.78-23.93s-22.46 8.79-23.44 22.27v48.63c0 9-6.05 15.23-14.55 15.23s-14.74-6.34-14.74-15.23v-81.6c0-9 6.15-15.23 14.74-15.23a13.93 13.93 0 0 1 14.26 12.11c6.54-8.21 17.77-12.7 30.66-12.7 26.24 0 44.14 16.5 44.14 45.89z"/></g></g></svg>