<svg viewBox="0 0 108 130" xmlns="http://www.w3.org/2000/svg"><g stroke-linecap="round" stroke-linejoin="round" stroke-width="3"><path d="m64.38 94.66a3.09 3.09 0 0 0 2.18-3.78l-22.42-83.63a3.08 3.08 0 0 0 -6 1.59l22.46 83.63a3.1 3.1 0 0 0 3.78 2.19z" fill="#ac4300" stroke="#000"/><circle cx="40.95" cy="7.25" fill="#ffff64" r="4.49" stroke="#110b15" transform="matrix(.77406125 -.63311071 .63311071 .77406125 4.66 27.56)"/><path d="m4.74 16.13h44.8v28.41h-44.8z" fill="#fff" stroke="#000" transform="matrix(-.96592583 .25881905 -.25881905 -.96592583 61.2 52.6)"/><circle cx="27.14" cy="30.33" fill="#ff3801" r="8.46" stroke="#110b15" transform="matrix(.83952505 -.54332098 .54332098 .83952505 -12.12 19.61)"/><path d="m43.87 94.66a3.1 3.1 0 0 1 -2.19-3.78l22.42-83.63a3.08 3.08 0 0 1 6 1.59l-22.46 83.63a3.08 3.08 0 0 1 -3.77 2.19z" fill="#ac4300" stroke="#000"/><circle cx="67.3" cy="7.25" fill="#ffff64" r="4.49" stroke="#110b15" transform="matrix(.77933796 -.62660381 .62660381 .77933796 10.3 43.76)"/><path d="m58.71 16.13h44.8v28.41h-44.8z" fill="#fff" stroke="#000" transform="matrix(.96592583 .25881905 -.25881905 .96592583 10.61 -19.96)"/><circle cx="81.11" cy="30.33" fill="#ff3801" r="8.46" stroke="#110b15" transform="matrix(.84684357 -.53184206 .53184206 .84684357 -3.71 47.78)"/></g></svg>