<svg viewBox="0 0 650 650" xmlns="http://www.w3.org/2000/svg"><g stroke-linecap="round" stroke-linejoin="round" stroke-width="5"><path d="m573 192.13c0-69.93-20.14-187.67-132.22-187.67-71 0-121.3 29.6-172.13 104.73-68.45 101.16-192.46 103.73-192.46 252.18 0 122.3 114.35 192.22 236.65 192.22 205.46 0 260.16-187.68 260.16-361.46z" fill="#ac4300" stroke="#010101"/><path d="m441.48 196.57c-7.5-5.8-4.19-22.66 7.41-37.67s27.07-22.47 34.57-16.68l142.18 148.43z" fill="#ffff64" stroke="#000"/><circle cx="407.61" cy="95.92" r="11.88" stroke="#110b15"/><circle cx="507.38" cy="95.92" r="11.88" stroke="#110b15"/><g fill="#ec00ff" stroke="#000"><path d="m203.75 586.56c7.62 9.52 10 14.36 10 21 0 10.25-10.4 18.75-22.12 18.75a29.31 29.31 0 0 1 -21.68-10.55l-65-82.76-29.52 26.46v42.92c0 14.21-9.37 23.88-23.14 23.88-14.07 0-23.44-9.67-23.44-23.88v-170.21c0-14.21 9.37-23.88 23.44-23.88 13.77 0 23.14 9.67 23.14 23.88v70l93.75-85.26c5.27-4.68 10.84-7.61 19.48-7.61 9.82 0 19.19 8.93 19.19 18.16 0 8.5-2.78 14.94-12.45 23.58l-57.4 51.88z"/><path d="m231.67 415.76c0-13.47 10.11-23.88 24.61-23.88s24.61 10.41 24.61 23.88c0 13.77-10.11 24-24.61 24s-24.61-10.23-24.61-24zm2.49 187.65v-122.41c0-13.48 9.23-22.85 22.12-22.85s21.83 9.37 21.83 22.85v122.41c0 13.47-9.09 22.85-21.83 22.85s-22.12-9.52-22.12-22.85z"/><path d="m566.27 478.16a32.05 32.05 0 0 1 -1 9.09l-31.08 102.24c-5.86 20.66-16.55 37.65-37.94 37.65-18.6 0-30.9-13.19-38.81-37.65l-25.64-76.17-25.63 76.17c-7.91 24.61-20.22 37.65-39 37.65-21.39 0-32.08-17.14-37.79-37.65l-31.03-102.24a33.63 33.63 0 0 1 -1-9.09c0-12.3 9.37-20.65 22.56-20.65 11.28 0 19 6.59 21.68 17.14l29 101.8 32.08-94.62c4.4-13.63 12.16-24.47 29.15-24.47 18.46 0 25.2 12.75 29 24.32l32.37 94.77 28.71-101.8c2.64-10.7 10.69-17.14 21.68-17.14 13.32 0 22.69 8.35 22.69 20.65z"/><path d="m582.92 415.76c0-13.47 10.1-23.88 24.61-23.88s24.61 10.41 24.61 23.88c0 13.77-10.11 24-24.61 24s-24.61-10.23-24.61-24zm2.49 187.65v-122.41c0-13.48 9.23-22.85 22.12-22.85s21.82 9.37 21.82 22.85v122.41c0 13.47-9.08 22.85-21.82 22.85s-22.12-9.52-22.12-22.85z"/></g></g></svg>