<svg viewBox="0 0 650 650" xmlns="http://www.w3.org/2000/svg"><g stroke-linecap="round" stroke-linejoin="round" stroke-width="5"><path d="m584.37 169c15-19.57 20.88-37.59 20.88-63.4 0-45.18-46.69-67.83-71.18-58.24-47.8-32.13-107.48-42.36-184.83-42.36-88.24 0-288.9 72.89-282.53 285.78-3.88 18-16.52 56.06-16.78 87.7-.09 11.18 1.87 21.55 5.61 30 7.21 16.23 68.52 18.74 88.93 29 45.7 35.45 229.67 60.4 336-14 119.06-83.48 118.93-193.4 103.9-254.48z" fill="#ffff64" stroke="#010101"/><g stroke="#000"><g fill="none"><path d="m179.62 208.21h39.25l-39.25 45.4h39.25"/><path d="m254.46 115.91h51.46l-51.46 59.51h51.46"/><path d="m355.72 64.21h63.57l-63.57 73.52h63.57"/><path d="m223.24 314.36h-23.53"/><path d="m124.49 314.36h-23.52"/></g><circle cx="159.82" cy="384.69" r="12.67"/></g><path d="m605.67 376.46c0 101.86-78.3 184.43-174.91 184.43s-174.91-82.57-174.91-184.43 78.32-184.46 174.91-184.46 174.91 82.6 174.91 184.46z" fill="#fff" stroke="#110b15"/><path d="m562.44 376.46c0 76.68-59 138.85-131.68 138.85s-131.66-62.17-131.66-138.85 58.9-138.85 131.66-138.85 131.68 62.17 131.68 138.85z" fill="#ffff64" stroke="#000"/><g fill="#fff" stroke="#110b15"><path d="m562.13 384.64-262.68-18.49"/><path d="m464.82 510.39-67-268.37"/><path d="m317.82 446.71 225.95-141.79"/><path d="m328.14 289.46 205.83 172.07"/><path d="m482.89 248.94-103 255.57"/><circle cx="431.39" cy="375.5" r="23.35"/></g><g fill="#ff5" stroke="#000"><path d="m107.66 595.08c8.22 0 14 5.66 14 13.88s-5.83 13.78-14 13.78h-62.66c-8.4 0-14-5.83-14-14.31v-100.67c0-8.57 5.57-14.4 14-14.4s14 5.83 14 14.4v87.32z"/><path d="m222.51 600.91c0 3.1-1.5 6.37-3.53 9.11-7.16 9.72-22.72 15.29-38.71 15.29-31.91 0-52.94-20-52.94-51 0-30.4 20.68-51.43 50-51.43 27.84 0 47.46 18.64 47.46 44.45 0 10.25-4.42 14.85-13.79 14.85h-57.25c1.68 11.66 12.64 18.82 27.84 18.82 8.67 0 14.76-2.38 19.8-6.54 3.71-2.3 7-4 11.22-4 6.72.03 9.9 4 9.9 10.45zm-68.76-39.06h44.9c-1.77-10.87-9.72-18-22.36-18-12.29-.03-20.86 7.15-22.54 18z"/><path d="m397.12 564.41v46.67c0 7.95-5.57 13.79-13.26 13.79-7.86 0-13.25-6-13.25-13.79v-42.51c0-14.32-7-21.66-18.48-21.66-12.28 0-20 9-20 22.54v41.63c0 7.95-5.57 13.79-13.26 13.79s-13.25-6-13.25-13.79v-42.51c0-14.32-7-21.66-18.47-21.66s-19 8-19.89 20.07v44.1c0 8.13-5.48 13.79-13.17 13.79s-13.34-5.75-13.34-13.79v-73.89c0-8.13 5.57-13.78 13.34-13.78a12.66 12.66 0 0 1 12.91 10.87c5.65-7.43 15.29-11.4 26.51-11.4 13.34 0 24.3 5 31 14.49 5.92-8.57 16.62-14.49 33.23-14.49 23.03 0 39.38 14.93 39.38 41.53z"/><path d="m411.19 574.14c0-31.11 22-51.26 52.41-51.26s52.4 20.12 52.4 51.26-22 51.26-52.4 51.26-52.41-20.15-52.41-51.26zm77.6 0c0-16-10.43-27-25.19-27s-25.18 11-25.18 27 10.42 27 25.18 27 25.19-11.01 25.19-27z"/><path d="m625.31 564.41v46.67c0 7.95-5.57 13.79-13.26 13.79-7.86 0-13.25-6-13.25-13.79v-42.51c0-14.32-7.52-21.66-19.71-21.66s-20.33 8-21.21 20.16v44c0 8.13-5.48 13.79-13.17 13.79s-13.35-5.75-13.35-13.79v-73.88c0-8.13 5.57-13.78 13.35-13.78a12.61 12.61 0 0 1 12.9 11c5.92-7.43 16.09-11.49 27.75-11.49 23.78-.04 39.95 14.89 39.95 41.49z"/></g></g></svg>