<svg viewBox="0 0 108 130" xmlns="http://www.w3.org/2000/svg"><g stroke-linecap="round" stroke-linejoin="round" stroke-width="3"><path d="m101.81 31.88a17.39 17.39 0 0 0 3.85-11.67c0-8.32-8.59-12.48-13.1-10.72-8.8-5.91-19.78-7.79-34-7.79-16.24 0-53.17 13.41-52 52.59-.71 3.32-3 10.32-3.08 16.14a13.4 13.4 0 0 0 1 5.52c1.32 3 12.61 3.45 16.36 5.33 8.41 6.52 42.27 11.11 61.84-2.59 21.93-15.34 21.9-35.57 19.13-46.81z" fill="#ffff64" stroke="#010101"/><g stroke="#000"><g fill="none"><path d="m27.32 39.1h7.23l-7.23 8.35h7.23"/><path d="m41.1 22.11h9.47l-9.47 10.95h9.47"/><path d="m59.73 12.59h11.7l-11.7 13.54h11.7"/><path d="m35.35 58.63h-4.33"/><path d="m17.18 58.63h-4.33"/></g><circle cx="23.68" cy="71.58" r="2.33"/></g><path d="m105.74 70.06c0 18.75-14.41 33.94-32.2 33.94s-32.19-15.19-32.19-33.94 14.42-33.95 32.19-33.95 32.2 15.2 32.2 33.95z" fill="#fff" stroke="#110b15"/><path d="m97.78 70.06c0 14.11-10.85 25.55-24.24 25.55s-24.23-11.44-24.23-25.55 10.85-25.55 24.23-25.55 24.24 11.49 24.24 25.55z" fill="#ffff64" stroke="#000"/><g fill="#fff" stroke="#110b15"><path d="m97.72 71.57-48.34-3.41"/><path d="m79.81 94.71-12.33-49.39"/><path d="m52.76 82.99 41.58-26.1"/><path d="m54.66 54.05 37.88 31.67"/><path d="m83.14 46.59-18.96 47.04"/><circle cx="73.66" cy="69.88" r="4.3"/></g></g></svg>