<svg xmlns="http://www.w3.org/2000/svg" viewBox="0 0 650 650">
  <defs>
    <style>
      .a {
        fill: #fff;
      }

      .a, .d, .e, .f {
        stroke: #000;
      }

      .a, .b, .c, .d, .e, .f {
        stroke-linecap: round;
        stroke-linejoin: round;
      }

      .a, .b, .c, .d, .e {
        stroke-width: 5px;
      }

      .b, .e {
        fill: none;
      }

      .b, .c {
        stroke: #110b15;
      }

      .d, .f {
        fill: #ff3801;
      }

      .f {
        stroke-width: 3px;
      }
    </style>
  </defs>
  <path class="a" d="M486.67,428.15c0-153.26-71.4-277.5-159.47-277.5S167.73,274.89,167.73,428.15s71.4,156.54,159.47,156.54S486.67,581.41,486.67,428.15Z"/>
  <g>
    <path class="b" d="M350,495a22.81,22.81,0,0,1-45.62,0"/>
    <circle class="c" cx="279.29" cy="439.4" r="11.41" transform="translate(-231.75 339.82) rotate(-46.53)"/>
    <circle class="c" cx="375.11" cy="439.4" r="11.41" transform="translate(-201.85 409.36) rotate(-46.53)"/>
  </g>
  <g>
    <path class="d" d="M578.41,159.59a40,40,0,0,1-26.74-69.85,282.25,282.25,0,0,0-70.76-50.42A80.11,80.11,0,0,1,325.09,3.66C265.36,4,209.92,19,163.93,44.38A80.1,80.1,0,1,1,56.79,153.1a196.64,196.64,0,0,0-20.06,86.22c0,102.14,80.1,125.84,192.11,131.31a80.09,80.09,0,1,1,125.58,1.58c55.8-.26,107-1.78,149.14-10.19a40.05,40.05,0,1,1,73.61-29.74c25.73-19.7,40.5-49.1,40.5-93a196.53,196.53,0,0,0-19.45-85A39.86,39.86,0,0,1,578.41,159.59ZM127.69,314.45a40,40,0,1,1,40-40A40,40,0,0,1,127.69,314.45ZM292.26,170.38a40,40,0,1,1,40-40A40,40,0,0,1,292.26,170.38Z"/>
    <path class="a" d="M127.69,195.92A80.11,80.11,0,0,0,163.93,44.38C116,70.87,78.31,108.69,56.79,153.1A80.06,80.06,0,0,0,127.69,195.92Z"/>
    <path class="a" d="M292.26,241.62a80.09,80.09,0,0,0-63.42,129c30.72,1.5,63.83,1.63,98.36,1.63q13.77,0,27.22-.05a80.09,80.09,0,0,0-62.16-130.59Z"/>
    <circle class="a" cx="127.69" cy="274.41" r="40.05" transform="translate(-63.08 39.43) rotate(-14.12)"/>
    <circle class="a" cx="292.26" cy="130.33" r="40.05" transform="translate(-13.69 224.11) rotate(-41.08)"/>
    <path class="a" d="M538.37,302.16A40.05,40.05,0,0,0,503.56,362c29.51-5.89,54.56-15.16,73.61-29.74A40.07,40.07,0,0,0,538.37,302.16Z"/>
    <path class="a" d="M538.37,119.55a40.06,40.06,0,0,0,59.85,34.81,230.56,230.56,0,0,0-46.55-64.62A39.93,39.93,0,0,0,538.37,119.55Z"/>
    <path class="a" d="M404.2,96.32a80.13,80.13,0,0,0,76.71-57C436.33,16.72,383.64,3.65,327.2,3.65h-2.11A80.16,80.16,0,0,0,404.2,96.32Z"/>
  </g>
  <circle class="a" cx="448.95" cy="202.14" r="80.09"/>
  <path class="e" d="M598.22,154.31a230.42,230.42,0,0,0-46.55-64.62,282.54,282.54,0,0,0-70.76-50.43C436.33,16.66,383.64,3.6,327.2,3.6h-2.11C265.36,4,209.92,18.93,163.93,44.33,116,70.82,78.31,108.64,56.79,153.05a196.6,196.6,0,0,0-20.06,86.22c0,83.78,53.89,114.78,135.08,126.24a476.23,476.23,0,0,0-4.08,62.59c0,153.26,71.4,156.54,159.47,156.54s159.47-3.28,159.47-156.54a478,478,0,0,0-4.07-62.59q10.81-1.53,21-3.54c29.51-5.89,54.56-15.16,73.61-29.74,25.73-19.7,40.5-49.1,40.5-93A196.53,196.53,0,0,0,598.22,154.31Z"/>
  <path class="e" d="M598.15,154.31A230.42,230.42,0,0,0,551.6,89.69a282.54,282.54,0,0,0-70.76-50.43C436.26,16.66,383.57,3.6,327.13,3.6H325C265.29,4,209.85,18.93,163.86,44.33c-48,26.49-85.62,64.31-107.14,108.72a196.6,196.6,0,0,0-20.06,86.22c0,102.14,80.1,125.84,192.1,131.31,30.72,1.5,63.84,1.63,98.37,1.63q13.77,0,27.22,0c55.79-.26,107-1.78,149.14-10.19,29.51-5.89,54.56-15.16,73.61-29.74,25.73-19.7,40.5-49.1,40.5-93A196.53,196.53,0,0,0,598.15,154.31Z"/>
  <g>
    <path class="f" d="M109.06,550.87v63.77c0,5.56-3.8,9.46-8.9,9.46s-8.89-4.13-8.89-9.46V574.26L75.53,604.17c-3.91,7.3-6.12,9.51-10.82,9.51s-6.86-2.21-10.76-9.51L38.2,574.26v40.38c0,5.33-3.68,9.46-8.89,9.46s-8.84-3.9-8.84-9.46V550.87c0-6.91,4.36-11,10.42-11,5.67,0,8.39,2.78,11.67,8.72l22.2,41.3,22.15-41.3c3.34-6.06,6.12-8.72,11.67-8.72C104.7,539.82,109.06,544,109.06,550.87Z"/>
    <path class="f" d="M184.3,567.92v47.35c0,5.21-3.57,8.83-8.55,8.83a8.08,8.08,0,0,1-8.27-7c-3.8,4.76-10.31,7.36-17.79,7.36-15.23,0-25.6-9.57-25.6-26.62v-29.9c0-5.1,3.57-8.84,8.5-8.84s8.49,3.85,8.49,8.84v27.24c0,9.18,4.82,13.88,12.63,13.88s13-5.1,13.6-12.92v-28.2c0-5.22,3.51-8.84,8.44-8.84S184.3,562.76,184.3,567.92Z"/>
    <path class="f" d="M198.37,615.61a11.65,11.65,0,0,1-3.68-8c0-4.08,2.66-6.74,6.68-6.74,2.55,0,4.65.91,7.93,3.74,4.82,4,8.89,5.72,14.1,5.72s8.1-1.87,8.1-5.27-2.09-5.21-6.79-6.17l-9.35-2c-12.06-2.61-18.46-9-18.46-18.47,0-12.12,9.68-19.65,25.31-19.65,7.76,0,15.35,2.15,20.06,5.55C245.89,567,248,570.41,248,574a6.36,6.36,0,0,1-6.69,6.51c-2.66,0-5-1.42-8.49-4.08-3.91-2.94-7.31-4.08-11-4.08-4.65,0-7.42,1.82-7.42,4.87q0,4.26,6.63,5.61L231.11,585c12.12,2.61,17.95,8.67,17.95,18.53,0,13-10.14,21-26.79,21C212.42,624.44,203,621,198.37,615.61Z"/>
    <path class="f" d="M320,585.36v29.91c0,5.1-3.57,8.83-8.5,8.83s-8.44-3.85-8.44-8.83V588c0-9.17-4.81-13.87-12.69-13.87-7.36,0-12.29,4.47-13.37,11.44v29.56c0,5.16-3.45,8.78-8.43,8.78s-8.56-3.62-8.56-8.78V548.49c0-5.16,3.51-8.78,8.56-8.78s8.43,3.62,8.43,8.78v17.22c3.86-4.53,10.2-7,17.45-7C309.73,558.74,320,568.31,320,585.36Z"/>
    <path class="f" d="M381.52,573c0,5.66-3.11,9.51-8.72,9.51-3,0-5-1.87-6.68-3.74-1.82-1.86-3.74-3.68-6.63-3.68-4.65,0-9.23,4.19-9.23,14.33v25.89c0,5.21-3.52,8.83-8.44,8.83s-8.56-3.68-8.56-8.83V567.92c0-5.22,3.57-8.84,8.56-8.84a8.12,8.12,0,0,1,8.27,7c3.68-4.87,9.29-7.31,15.52-7.31a16.42,16.42,0,0,1,11.44,4.13A13.36,13.36,0,0,1,381.52,573Z"/>
    <path class="f" d="M384.55,591.59c0-19.94,14.1-32.85,33.58-32.85s33.59,12.91,33.59,32.85-14.1,32.85-33.59,32.85S384.55,611.53,384.55,591.59Zm49.73,0c0-10.25-6.69-17.27-16.15-17.27s-16.14,7-16.14,17.27,6.69,17.28,16.14,17.28S434.28,601.84,434.28,591.59Z"/>
    <path class="f" d="M457.64,591.59c0-19.94,14.11-32.85,33.59-32.85s33.59,12.91,33.59,32.85-14.1,32.85-33.59,32.85S457.64,611.53,457.64,591.59Zm49.73,0c0-10.25-6.68-17.27-16.14-17.27s-16.14,7-16.14,17.27,6.68,17.28,16.14,17.28S507.37,601.84,507.37,591.59Z"/>
    <path class="f" d="M634.85,585.36v29.91c0,5.1-3.56,8.83-8.49,8.83s-8.5-3.85-8.5-8.83V588c0-9.17-4.47-13.87-11.84-13.87-7.87,0-12.8,5.77-12.8,14.44v26.68c0,5.1-3.56,8.83-8.49,8.83s-8.5-3.85-8.5-8.83V588c0-9.17-4.47-13.87-11.84-13.87s-12.17,5.09-12.74,12.85v28.27c0,5.21-3.51,8.83-8.44,8.83s-8.55-3.68-8.55-8.83V567.92c0-5.22,3.57-8.84,8.55-8.84a8.12,8.12,0,0,1,8.27,7c3.62-4.76,9.8-7.31,17-7.31,8.55,0,15.58,3.23,19.88,9.29,3.8-5.49,10.65-9.29,21.3-9.29C624.38,558.74,634.85,568.31,634.85,585.36Z"/>
  </g>
</svg>
