<svg viewBox="0 0 108 130" xmlns="http://www.w3.org/2000/svg"><g stroke-linecap="round" stroke-linejoin="round" stroke-width="3"><path d="m77.48 62.64c0-21.49-10-38.92-22.36-38.92s-22.37 17.43-22.37 38.92 10 22 22.37 22 22.36-.5 22.36-22z" fill="#fff" stroke="#000"/><g stroke="#110b15"><path d="m58.32 72a3.2 3.2 0 0 1 -6.4 0" fill="none"/><circle cx="48.4" cy="64.22" r="1.6" transform="matrix(.7154489 -.69866507 .69866507 .7154489 -31.1 52.09)"/><circle cx="61.84" cy="64.22" r="1.6" transform="matrix(.7154489 -.69866507 .69866507 .7154489 -27.27 61.47)"/></g><g stroke="#000"><path d="m90.35 25a5.62 5.62 0 0 1 -3.75-9.8 39.74 39.74 0 0 0 -9.92-7.07 11.24 11.24 0 0 1 -21.86-5 47.44 47.44 0 0 0 -22.6 5.71 11.23 11.23 0 1 1 -15 15.25 27.62 27.62 0 0 0 -2.81 12.09c0 14.32 11.23 17.65 26.94 18.41a11.23 11.23 0 1 1 17.62.23c7.82 0 15-.25 20.91-1.43a5.62 5.62 0 1 1 10.3-4.19c3.6-2.77 5.68-6.89 5.68-13a27.62 27.62 0 0 0 -2.73-11.92 5.58 5.58 0 0 1 -2.78.72zm-63.21 21.7a5.62 5.62 0 1 1 5.61-5.62 5.62 5.62 0 0 1 -5.61 5.62zm23.08-20.21a5.62 5.62 0 1 1 5.61-5.62 5.62 5.62 0 0 1 -5.61 5.62z" fill="#ff3801"/><g fill="#fff"><path d="m27.14 30.07a11.23 11.23 0 0 0 5.08-21.25 35.5 35.5 0 0 0 -15 15.25 11.23 11.23 0 0 0 9.92 6z"/><path d="m50.22 36.48a11.23 11.23 0 0 0 -8.9 18.09c4.31.21 9 .23 13.8.23h3.82a11.24 11.24 0 0 0 -8.72-18.32z"/><circle cx="27.14" cy="41.08" r="5.62" transform="matrix(.95366445 -.30087225 .30087225 .95366445 -11.1 10.07)"/><circle cx="50.22" cy="20.87" r="5.62" transform="matrix(.86523894 -.50135973 .50135973 .86523894 -3.7 27.99)"/><path d="m84.73 45a5.63 5.63 0 0 0 -4.88 8.4 25 25 0 0 0 10.33-4.2 5.62 5.62 0 0 0 -5.45-4.2z"/><path d="m84.73 19.36a5.61 5.61 0 0 0 8.4 4.88 32.48 32.48 0 0 0 -6.53-9.06 5.59 5.59 0 0 0 -1.87 4.18z"/><path d="m65.92 16.1a11.24 11.24 0 0 0 10.76-8 47.79 47.79 0 0 0 -21.56-5h-.3a11.22 11.22 0 0 0 11.1 13z"/><circle cx="72.19" cy="30.94" r="11.23"/></g><g fill="none"><path d="m93.13 24.24a32.38 32.38 0 0 0 -6.53-9.07 39.74 39.74 0 0 0 -9.92-7.07 47.79 47.79 0 0 0 -21.56-5h-.3a47.44 47.44 0 0 0 -22.6 5.71 35.55 35.55 0 0 0 -15 15.25 27.62 27.62 0 0 0 -2.81 12.09c0 11.75 7.56 16.1 18.94 17.71a67.54 67.54 0 0 0 -.57 8.77c0 21.5 10 22 22.37 22s22.36-.46 22.36-22a65.82 65.82 0 0 0 -.57-8.77c1-.15 2-.31 2.94-.5a25 25 0 0 0 10.33-4.17c3.6-2.76 5.68-6.89 5.68-13a27.55 27.55 0 0 0 -2.76-11.95z"/><path d="m93.12 24.24a32.38 32.38 0 0 0 -6.53-9.07 39.74 39.74 0 0 0 -9.92-7.07 47.79 47.79 0 0 0 -21.56-5h-.3a47.44 47.44 0 0 0 -22.6 5.71 35.55 35.55 0 0 0 -15 15.25 27.62 27.62 0 0 0 -2.81 12.09c0 14.33 11.23 17.65 26.94 18.42 4.31.21 9 .23 13.8.23h3.82c7.82 0 15-.25 20.91-1.43a25 25 0 0 0 10.33-4.17c3.6-2.76 5.68-6.89 5.68-13a27.55 27.55 0 0 0 -2.76-11.96z"/></g></g></g></svg>