<svg viewBox="0 0 650 650" xmlns="http://www.w3.org/2000/svg"><g stroke="#000" stroke-linecap="round" stroke-linejoin="round" stroke-width="5"><circle cx="325" cy="274.39" fill="#ffff64" r="267.88"/><path d="m351.53 260.78a26.53 26.53 0 1 0 -53.06 0" fill="none"/><circle cx="243.41" cy="200.18" fill="#fff" r="56.03"/><circle cx="406.59" cy="200.18" fill="#fff" r="56.03"/><circle cx="406.59" cy="200.18" r="12.45"/><circle cx="243.41" cy="200.18" r="12.45"/><g fill="none"><path d="m299.43 200.18a25.57 25.57 0 1 1 51.14 0"/><path d="m456.45 174.61h136.44"/><path d="m193.55 174.61h-136.44"/></g><path d="m329.5 485.79 101.11 58.38v-116.76z" fill="#83bbff"/><path d="m325.33 485.88-101.12-58.39v116.77z" fill="#83bbff"/><path d="m287.42 359.31v56.92h37.58v-49.52" fill="#fff"/><path d="m325 366.71v49.52h37.57v-56.92" fill="#fff"/><path d="m390 326.19v.39c0 23.44-31 40.13-64.95 40.13s-64.95-17.07-64.95-40.52" fill="none"/><circle cx="324.99" cy="485.93" fill="#83bbff" r="33.15"/><g fill="#ff8080"><path d="m195 453.77v147.15c0 15.07-9.09 24.94-22.47 24.94-9.48 0-16.23-4.42-25.32-16.62l-74.31-102.09v97.54c0 12.47-8.18 21.17-20.52 21.17s-20.52-8.7-20.52-21.17v-147.29c0-15.19 8.83-24.8 23.12-24.8 9.87 0 15.85 4.15 26 17.92l73 103.13v-99.88c0-12.47 8.18-21.17 20.52-21.17s20.5 8.7 20.5 21.17z"/><path d="m353.68 590.66c0 4.55-2.21 9.35-5.2 13.38-10.51 14.29-33.37 22.47-56.88 22.47-46.89 0-77.8-29.35-77.8-74.94 0-44.68 30.39-75.59 73.51-75.59 40.91 0 69.75 27.4 69.75 65.33 0 15.06-6.5 21.82-20.26 21.82h-84.17c2.47 17.14 18.58 27.66 40.92 27.66 12.72 0 21.68-3.5 29.09-9.61 5.45-3.38 10.26-5.84 16.49-5.84 9.87 0 14.55 5.84 14.55 15.32zm-101.05-57.41h66c-2.6-16-14.29-26.49-32.86-26.49-18.07 0-30.67 10.52-33.14 26.49z"/><path d="m483.2 508.58c0 13-7.14 21.82-20 21.82-6.88 0-11.56-4.29-15.33-8.58-4.15-4.28-8.57-8.44-15.19-8.44-10.65 0-21.17 9.61-21.17 32.86v59.36c0 11.95-8.06 20.26-19.36 20.26s-19.61-8.44-19.61-20.26v-108.6c0-11.95 8.19-20.26 19.61-20.26 9.88 0 17.28 6.36 19 16 8.44-11.17 21.3-16.75 35.59-16.75 11.29 0 20.39 3.89 26.23 9.48a30.6 30.6 0 0 1 10.23 23.11z"/><path d="m633.48 452.86v152.74c0 11.95-8.06 20.26-19.49 20.26-10 0-17.14-6.1-19.09-15.46-10.39 11.3-24.55 16.24-43 16.24-39.61 0-69.62-30.13-69.62-75.33s30.02-75.31 69.63-75.31c17.53 0 32.47 5.84 42.6 16.75v-39.89c0-11.95 7.92-20.26 19.48-20.26s19.49 8.31 19.49 20.26zm-38.32 98.45c0-22.6-14.68-39.62-36.37-39.62-20.78 0-36.49 15.59-36.49 39.62s15.71 39.61 36.49 39.61c21.69 0 36.37-17.01 36.37-39.61z"/></g></g></svg>