<svg viewBox="0 0 108 130" xmlns="http://www.w3.org/2000/svg"><g stroke="#000" stroke-linecap="round" stroke-linejoin="round" stroke-width="3"><circle cx="54.25" cy="43.23" fill="#ffff64" r="39.62"/><path d="m58.17 41.21a3.92 3.92 0 0 0 -7.84 0" fill="none"/><circle cx="42.18" cy="32.25" fill="#fff" r="8.29"/><circle cx="66.32" cy="32.25" fill="#fff" r="8.29"/><circle cx="42.18" cy="32.25" r=".61"/><circle cx="66.32" cy="32.25" r=".61"/><g fill="none"><path d="m50.47 32.25a3.78 3.78 0 0 1 7.56 0"/><path d="m73.69 28.47h20.18"/><path d="m34.81 28.47h-20.18"/></g><path d="m54.91 74.2 14.96 8.63v-17.27z" fill="#83bbff"/><path d="m54.3 74.21-14.96-8.63v17.26z" fill="#83bbff"/><path d="m48.69 56.88v7.32h5.56v-7.32" fill="#fff"/><path d="m54.25 56.88v7.32h5.56v-7.32" fill="#fff"/><path d="m63.86 50.89v.11c0 3.46-4.59 5.93-9.61 5.93s-9.6-2.52-9.6-6" fill="none"/><circle cx="54.25" cy="74.22" fill="#83bbff" r="4.9"/></g></svg>