<svg viewBox="0 0 650 650" xmlns="http://www.w3.org/2000/svg"><g stroke-linecap="round" stroke-linejoin="round" stroke-width="5"><g fill="#ff8080" stroke="#000"><path d="m490.21 475.5c-18.6 0-42.81-1.4-65.08-12.31a92 92 0 0 1 -34.26-28.61c-9.05-12.43-15.16-27.35-18.17-44.35a48.07 48.07 0 1 1 94.67-16.73 23.74 23.74 0 0 0 .92 3.71 28.85 28.85 0 0 0 4.92 1.16 114.65 114.65 0 0 0 17 1c9.72 0 18.18-1.59 31.11-21.52a48.07 48.07 0 0 1 80.68 52.29c-13.54 20.87-28.54 36.29-45.87 47.12-19.38 12.1-41.56 18.24-65.92 18.24z"/><path d="m482.08 571.66c-30.16 0-69-2.43-101.66-21.36-34-19.67-54.83-52.77-62-98.39a48.07 48.07 0 1 1 95-14.91c3.68 23.44 11.74 28.11 15.19 30.1 9.78 5.67 27.28 8.42 53.49 8.42a48.07 48.07 0 0 1 0 96.14z"/><path d="m162.06 475.5c18.6 0 42.81-1.4 65.08-12.31a92 92 0 0 0 34.26-28.61c9.05-12.43 15.16-27.35 18.17-44.35a48.07 48.07 0 0 0 -94.67-16.73 23.46 23.46 0 0 1 -.93 3.71 28.66 28.66 0 0 1 -4.91 1.16 114.65 114.65 0 0 1 -17 1c-9.72 0-18.19-1.59-31.11-21.52a48.07 48.07 0 0 0 -80.67 52.29c13.53 20.86 28.54 36.29 45.87 47.12 19.37 12.1 41.55 18.24 65.91 18.24z"/><path d="m170.19 571.66c30.15 0 69-2.43 101.66-21.36 34-19.67 54.83-52.77 62-98.39a48.07 48.07 0 0 0 -95-14.91c-3.68 23.44-11.75 28.11-15.19 30.1-9.79 5.67-27.28 8.42-53.49 8.42a48.07 48.07 0 0 0 0 96.14z"/><circle cx="326.14" cy="229.44" r="224.92"/></g><circle cx="262.53" cy="173.99" r="14.36" stroke="#110b15" transform="matrix(.88031181 -.47439552 .47439552 .88031181 -51.12 145.36)"/><circle cx="383.05" cy="173.99" r="14.36" stroke="#110b15" transform="matrix(.88031181 -.47439552 .47439552 .88031181 -36.69 202.53)"/><g stroke="#000"><circle cx="326.14" cy="292.2" fill="#ff8080" r="76.04"/><circle cx="326.14" cy="292.2" r="30.11"/><g fill="#00f4b4"><path d="m10.93 568.25c0-33.3 23.24-56.76 56.54-56.76s56.46 23.46 56.46 56.76-23.23 56.75-56.46 56.75-56.54-23.45-56.54-56.75zm88.33 0c0-19.15-13.25-32.62-31.79-32.62s-31.86 13.47-31.86 32.62 13.32 32.62 31.86 32.62 31.79-13.47 31.79-32.62z"/><path d="m129.6 581.12c0-25.73 18.69-43.9 43.59-43.9 14.15 0 24.52 4.32 30.88 10.9 4.62 4.77 6.81 10.22 6.81 14.53 0 5.53-3.86 9.69-9.38 9.69-4.7 0-7.8-2-11.13-5.83a19.7 19.7 0 0 0 -16.37-8.51c-12 0-21 9.39-21 23.09s9 23.11 21 23.11c8.25 0 13.39-3.93 17-9.38 3-3.86 5.67-5.53 10.21-5.53a9.79 9.79 0 0 1 9.92 9.84c0 4.16-2.42 9.69-7 14.38-6.51 6.81-17.64 11.5-31 11.5-24.84-.01-43.53-18.16-43.53-43.89z"/><path d="m283.35 606.09a14.74 14.74 0 0 1 -5.22 11.2c-5.22 4.77-13.62 7.71-22.13 7.71-15.44 0-26.64-10.52-26.64-26.71v-38.44h-8.4c-6.14 0-10.6-4.24-10.6-10.22s4.46-10.14 10.6-10.14h8.4v-13.17c0-7 4.61-11.8 11.35-11.8s11.27 4.84 11.27 11.8v13.17h18.62c6.21 0 10.6 4.16 10.6 10.14s-4.39 10.22-10.6 10.22h-18.66v35c0 6.13 2.81 8.63 7.12 8.63 2.95 0 5.37-1.59 7.95-3.56a12.08 12.08 0 0 1 7.64-2.87c5.22.04 8.7 3.75 8.7 9.04z"/><path d="m283.44 581.12c0-26.64 18.84-43.9 44.88-43.9s44.88 17.26 44.88 43.9-18.85 43.88-44.88 43.88-44.88-17.24-44.88-43.88zm66.45 0c0-13.7-8.93-23.09-21.57-23.09s-21.57 9.39-21.57 23.09 8.93 23.08 21.57 23.08 21.57-9.38 21.57-23.08z"/><path d="m469.79 581.12c0 26.34-17.48 43.89-40.49 43.89-10.75 0-18.85-2.8-24.9-9.15v15.28c0 7-4.62 11.81-11.28 11.81s-11.43-4.84-11.43-11.81v-81.66c0-7 4.7-11.8 11.43-11.8a10.79 10.79 0 0 1 11.13 9.61c5.9-6.51 14.6-10.07 25.05-10.07 23.01 0 40.49 17.56 40.49 43.9zm-23.31 0c0-14-9.08-23.09-21.27-23.09-12.64-.03-21.21 9.97-21.21 23.09s8.55 23.08 21.19 23.08c12.21 0 21.29-9.08 21.29-23.08z"/><path d="m557.86 549.48v63.27c0 7-4.77 11.81-11.43 11.81a10.79 10.79 0 0 1 -11-9.38c-5.07 6.35-13.77 9.83-23.76 9.83-20.36 0-34.21-12.79-34.21-35.57v-40c0-6.81 4.77-11.8 11.35-11.8 6.74 0 11.35 5.14 11.35 11.8v36.41c0 12.26 6.44 18.54 16.88 18.54s17.41-6.81 18.17-17.26v-37.65c0-7 4.69-11.8 11.27-11.8s11.38 4.91 11.38 11.8z"/><path d="m572 613.21a15.57 15.57 0 0 1 -4.92-10.67c0-5.45 3.56-9 8.93-9 3.41 0 6.21 1.21 10.6 5 6.43 5.38 11.88 7.65 18.84 7.65s10.82-2.5 10.82-7-2.8-7-9.08-8.25l-12.49-2.72c-16.12-3.49-24.67-12-24.67-24.68 0-16.19 12.94-26.26 33.83-26.26 10.37 0 20.51 2.88 26.79 7.42 4.85 3.63 7.65 8.17 7.65 12.94 0 5.07-3.71 8.7-8.93 8.7-3.56 0-6.66-1.89-11.36-5.45-5.22-3.93-9.76-5.44-14.68-5.44-6.2 0-9.91 2.42-9.91 6.5q0 5.68 8.85 7.5l13.47 2.87c16.2 3.48 24 11.58 24 24.75 0 17.41-13.55 28-35.8 28-13.16-.07-25.73-4.67-31.94-11.86z"/></g></g></g></svg>