<svg viewBox="0 0 108 130" xmlns="http://www.w3.org/2000/svg"><g stroke-linecap="round" stroke-linejoin="round" stroke-width="3"><g fill="#ff8080" stroke="#000"><path d="m79.92 76.41a22.94 22.94 0 0 1 -10.18-1.93 14.33 14.33 0 0 1 -5.36-4.48 16.47 16.47 0 0 1 -2.84-6.94 7.52 7.52 0 1 1 14.81-2.61 4.1 4.1 0 0 0 .14.58 4.19 4.19 0 0 0 .77.18 18.17 18.17 0 0 0 2.66.16c1.52 0 2.85-.25 4.87-3.37a7.52 7.52 0 1 1 12.62 8.18 23.23 23.23 0 0 1 -7.17 7.37 19.15 19.15 0 0 1 -10.32 2.86z"/><path d="m78.65 91.45c-4.72 0-10.79-.38-15.91-3.34-5.31-3.11-8.57-8.26-9.74-15.39a7.52 7.52 0 0 1 14.9-2.34c.58 3.67 1.84 4.4 2.38 4.71 1.53.89 4.27 1.32 8.37 1.32a7.52 7.52 0 0 1 0 15z"/><path d="m28.58 76.41a22.94 22.94 0 0 0 10.18-1.93 14.33 14.33 0 0 0 5.36-4.48 16.47 16.47 0 0 0 2.88-6.94 7.52 7.52 0 1 0 -14.81-2.61 4.1 4.1 0 0 1 -.19.55 4.19 4.19 0 0 1 -.77.18 18.17 18.17 0 0 1 -2.66.16c-1.52 0-2.85-.25-4.87-3.37a7.52 7.52 0 1 0 -12.62 8.18 23.34 23.34 0 0 0 7.17 7.37 19.15 19.15 0 0 0 10.33 2.89z"/><path d="m29.85 91.45c4.72 0 10.79-.38 15.91-3.34 5.31-3.08 8.58-8.26 9.7-15.39a7.52 7.52 0 0 0 -14.86-2.34c-.58 3.67-1.84 4.4-2.38 4.71-1.53.89-4.27 1.32-8.37 1.32a7.52 7.52 0 0 0 0 15z"/><circle cx="54.25" cy="37.91" r="35.19"/></g><circle cx="44.3" cy="29.23" r="2.25" stroke="#110b15" transform="matrix(.91068366 -.41310443 .41310443 .91068366 -8.12 20.91)"/><circle cx="63.16" cy="29.23" r="2.25" stroke="#110b15" transform="matrix(.91068366 -.41310443 .41310443 .91068366 -6.43 28.7)"/><g stroke="#000"><circle cx="54.25" cy="47.73" fill="#ff8080" r="11.9"/><circle cx="54.25" cy="47.73" r="4.71"/></g></g></svg>