<svg viewBox="0 0 650 650" xmlns="http://www.w3.org/2000/svg"><g stroke-linecap="round" stroke-linejoin="round" stroke-width="5"><path d="m359.69 552.78c-131.29 0-187.25-63.91-187.25-143.55 0-88.24 93.95-127.73 93.95-210 0-70.23 41.78-104.4 93.3-104.4s93.31 34.17 93.31 104.41c0 82.26 93.95 121.75 93.95 210-.02 79.63-55.95 143.54-187.26 143.54z" fill="#ffff64" stroke="#110b15"/><path d="m364.83 132.21h-.89c-11.12-.49-18.34 8.71-17.86-2.4.61-14-2.81-48.1-7.11-62.29-3.78-12.45-9.17-23.2-14.43-28.74a20.14 20.14 0 1 1 29.21-27.78c6.83 7.19 16.5 20.8 23.77 44.79 5.58 18.42 8.35 55.71 7.55 74.12-.47 10.85-9.52 2.3-20.24 2.3z" fill="#ac4300" stroke="#110b15"/><path d="m399.62 146.54c-5.49-13.77-17.67-21-34.09-21h-.19c-16.42 0-28.6 7.26-34.09 21" fill="#ffff64" stroke="#000"/><circle cx="284.54" cy="379.45" r="5.76" stroke="#110b15" transform="matrix(.48648788 -.87368733 .87368733 .48648788 -185.41 443.42)"/><circle cx="385.22" cy="379.45" r="5.76" stroke="#110b15" transform="matrix(.48648788 -.87368733 .87368733 .48648788 -133.71 531.38)"/><path d="m307.15 435.84c4.46 12.75 14.33 19.47 27.65 19.47h.2c13.32 0 23.2-6.72 27.65-19.47" fill="none" stroke="#000"/><path d="m90.6 158.66c43.69 3.21 171.18-6.59 220.67-76.3 12.32-17.36 26.73-52.58 20.51-77.51-58.55-6-137 3.45-199.86 73.67-11.29 12.61-32.08 48.34-41.32 80.14z" fill="#5f5" stroke="#110b15"/><g fill="#fa97ff" stroke="#000"><path d="m118.67 428c43.15 0 74.25 25.56 74.25 65.33 0 40-31.1 65.32-74.25 65.32h-39.36v45.31c0 13-8.65 22-21.5 22s-21.37-9.06-21.37-22v-153.96c0-13.12 8.52-22 21.37-22zm2.7 89.94c16 0 26.79-10 26.79-24.61s-10.82-24.62-26.79-24.62h-42.06v49.23z"/><path d="m341.35 589.34c0 4.73-2.3 9.73-5.41 13.93-11 14.87-34.76 23.4-59.25 23.4-48.82 0-81-30.57-81-78 0-46.52 31.65-78.71 76.55-78.71 42.61 0 72.63 28.54 72.63 68 0 15.69-6.76 22.72-21.1 22.72h-87.65c2.57 17.86 19.34 28.81 42.6 28.81 13.26 0 22.59-3.65 30.3-10 5.68-3.51 10.69-6.08 17.18-6.08 10.28-.03 15.15 6.05 15.15 15.93zm-105.23-59.79h68.71c-2.71-16.63-14.83-27.55-34.22-27.55-18.8 0-31.92 10.92-34.49 27.55z"/><path d="m510.49 594.61c0 7-2.17 12.44-6.9 18.4-5.82 7.43-16.91 12.71-27.32 12.71-13.26 0-23.81-6.09-30-16.37-10.28 11-25.43 17-42.88 17-30.7 0-51.26-17.32-51.26-43.42 0-23.26 13.39-37.74 41-44.09l33.82-8c9.2-2 12.58-5.41 12.58-11.77 0-8.93-7.44-14.34-20-14.34-11.09 0-23.26 5.41-33.27 14.07-8.25 6.22-12.85 8.65-18.26 8.65-9.88 0-16.5-5.95-16.5-15 0-6.36 2.3-12.17 7.44-17.85 13.52-15.83 35.84-24.75 61.54-24.75 37.46 0 59.64 17.85 59.64 52.34v57.81c0 4.2 1.49 7.31 5.68 7.31a8.3 8.3 0 0 0 6.36-3.11 9.49 9.49 0 0 1 7.44-3.25c6.29.05 10.89 5.95 10.89 13.66zm-70.88-23.67v-16.63c-3 2.29-7.3 4.19-12.85 5.54l-13.39 3c-12.17 2.55-18.37 8.5-18.37 16.88 0 8.66 7.71 14.47 19.2 14.47 14.59 0 25.41-9.87 25.41-23.26z"/><path d="m634.26 503.86c0 13.52-7.44 22.72-20.83 22.72-7.17 0-12-4.47-16-8.93-4.33-4.46-8.93-8.79-15.83-8.79-11.09 0-22 10-22 34.22v61.81c0 12.44-8.39 21.1-20.16 21.1s-20.44-8.79-20.44-21.1v-113.07c0-12.45 8.52-21.1 20.42-21.1 10.28 0 18 6.63 19.75 16.63 8.79-11.63 22.18-17.44 37.06-17.44 11.77 0 21.24 4 27.32 9.87a31.86 31.86 0 0 1 10.71 24.08z"/></g></g></svg>