<svg viewBox="0 0 108 130" xmlns="http://www.w3.org/2000/svg"><g stroke-linecap="round" stroke-linejoin="round" stroke-width="3"><path d="m61.27 94.87c-22.06 0-31.46-10.74-31.46-24.12 0-14.83 15.78-21.46 15.78-35.28 0-11.8 7-17.54 15.68-17.54s15.67 5.74 15.67 17.54c0 13.82 15.78 20.45 15.78 35.28 0 13.38-9.4 24.12-31.45 24.12z" fill="#ffff64" stroke="#110b15"/><path d="m62.13 24.21h-.13a3.38 3.38 0 0 1 -3.23-3.52 22.72 22.72 0 0 0 -1-7.34 13 13 0 0 0 -2.43-4.83 3.38 3.38 0 0 1 4.91-4.66 18.55 18.55 0 0 1 4 7.53 29.58 29.58 0 0 1 1.26 9.61 3.39 3.39 0 0 1 -3.38 3.21z" fill="#ac4300" stroke="#110b15"/><path d="m68 26.61c-.93-2.31-3-3.53-5.73-3.53-2.76 0-4.81 1.22-5.73 3.53" fill="#ffff64" stroke="#000"/><circle cx="48.64" cy="65.74" r=".97" stroke="#110b15" transform="matrix(.4634507 -.88612271 .88612271 .4634507 -32.16 78.38)"/><circle cx="65.56" cy="65.74" r=".97" stroke="#110b15" transform="matrix(.4634507 -.88612271 .88612271 .4634507 -23.08 93.37)"/><path d="m52.44 75.22a4.62 4.62 0 0 0 4.65 3.27 4.62 4.62 0 0 0 4.65-3.27" fill="none" stroke="#000"/><path d="m16.06 28.65c7.34.54 28.76-1.11 37.07-12.82 2.07-2.91 4.49-8.83 3.45-13-9.84-1-23 .58-33.58 12.38a42.37 42.37 0 0 0 -6.94 13.44z" fill="#5f5" stroke="#110b15"/></g></svg>