<svg viewBox="0 0 650 650" xmlns="http://www.w3.org/2000/svg"><g stroke-linecap="round" stroke-linejoin="round" stroke-width="5"><path d="m290 339.64c0-38.3 15.59-76.95 60.95-114.18 35.33-28.73 62-44.68 62-77 0-39.72-31.86-67.38-77.23-67.38s-76.18 31.56-88.65 74.11c-6.58 19.15-22.16 31.21-42.94 31.21-22.86 0-36.71-19.5-36.71-42.55 0-22 11.77-52.13 23.89-68.8 30.82-42.5 81.38-69.8 151.34-69.8 94.2 0 157.92 58.15 157.92 133.68 0 50.71-22.51 83.34-63 117.73-38.09 31.56-64.07 57.09-67.53 90.43-4.85 22-21.47 31.56-41.9 31.56-23.58-.01-38.14-14.54-38.14-39.01zm-19 130.85c0-34.4 24.58-60.29 57.83-60.29 32.9 0 57.83 25.89 57.83 60.29 0 35.46-24.58 60.63-57.83 60.63-33.62 0-57.83-25.12-57.83-60.63z" fill="#ff3801" stroke="#110b15"/><g fill="#5f5" stroke="#000"><path d="m106.64 612.19a12.33 12.33 0 0 1 3 7.58 10.9 10.9 0 0 1 -10.55 10.76 11.66 11.66 0 0 1 -8.85-4.46l-5.1-6a56.7 56.7 0 0 1 -23.43 4.82c-31.15 0-52.89-22-52.89-53.1s21.74-53.1 52.89-53.1 52.82 21.94 52.82 53.1c0 14.09-4.46 26.26-12.18 35.47zm-37.32-10.76-8.21-9.63a12 12 0 0 1 -3-7.64c0-5.74 5-10.62 10.19-10.62a11.82 11.82 0 0 1 9.1 4.46l9.41 11a32.62 32.62 0 0 0 4.67-17.27c0-17.92-12.39-30.52-29.73-30.52s-29.81 12.6-29.81 30.52 12.46 30.51 29.81 30.51a32.83 32.83 0 0 0 7.57-.81z"/><path d="m200.13 554.21v59.19c0 6.51-4.46 11-10.69 11a10.09 10.09 0 0 1 -10.33-8.78c-4.75 6-12.89 9.21-22.24 9.21-19 0-32-12-32-33.28v-37.34c0-6.37 4.46-11.05 10.62-11.05s10.62 4.82 10.62 11.05v34c0 11.47 6 17.35 15.79 17.35s16.29-6.37 17-16.14v-35.21c0-6.52 4.39-11.05 10.55-11.05s10.68 4.61 10.68 11.05z"/><path d="m285.8 605.26a13 13 0 0 1 -2.83 7.29c-5.74 7.79-18.2 12.25-31 12.25-25.56 0-42.41-16-42.41-40.86 0-24.35 16.56-41.2 40.07-41.2 22.3 0 38 14.94 38 35.61 0 8.21-3.54 11.9-11.05 11.9h-45.86c1.34 9.34 10.12 15.08 22.3 15.08 6.94 0 11.82-1.92 15.86-5.24 3-1.84 5.59-3.19 9-3.19 5.37 0 7.92 3.19 7.92 8.36zm-55.08-31.26h36c-1.41-8.71-7.79-14.44-17.91-14.44-9.88-.04-16.75 5.69-18.09 14.44z"/><path d="m297.37 613.82a14.56 14.56 0 0 1 -4.6-10c0-5.1 3.33-8.43 8.35-8.43 3.19 0 5.81 1.14 9.91 4.68 6 5 11.12 7.15 17.63 7.15s10.13-2.34 10.13-6.59-2.62-6.51-8.5-7.71l-11.68-2.55c-15.08-3.26-23.08-11.26-23.08-23.08 0-15.15 12.11-24.57 31.65-24.57 9.7 0 19.18 2.69 25.06 6.94 4.53 3.4 7.15 7.64 7.15 12.1 0 4.75-3.47 8.15-8.35 8.15-3.33 0-6.23-1.77-10.62-5.1-4.89-3.68-9.14-5.1-13.74-5.1-5.8 0-9.27 2.27-9.27 6.09q0 5.31 8.28 7l12.6 2.69c15.15 3.26 22.45 10.83 22.45 23.15 0 16.29-12.68 26.2-33.49 26.2-12.32.03-24.07-4.29-29.88-11.02z"/><path d="m432.31 607.17a13.8 13.8 0 0 1 -4.89 10.48c-4.88 4.46-12.74 7.22-20.74 7.22-14.44 0-24.92-9.84-24.92-25v-36h-7.86c-5.74 0-9.91-4-9.91-9.56s4.17-9.49 9.91-9.49h7.86v-12.28c0-6.51 4.32-11 10.62-11s10.55 4.53 10.55 11v12.32h17.41c5.81 0 9.92 3.9 9.92 9.49s-4.11 9.56-9.92 9.56h-17.41v32.78c0 5.73 2.62 8.07 6.65 8.07 2.76 0 5-1.49 7.44-3.33a11.29 11.29 0 0 1 7.15-2.69c4.88 0 8.14 3.47 8.14 8.43z"/><path d="m438.92 522.7c0-6.51 4.89-11.54 11.9-11.54s11.89 5 11.89 11.54-4.89 11.61-11.89 11.61-11.9-4.95-11.9-11.61zm1.2 90.7v-59.19c0-6.52 4.46-11.05 10.7-11.05s10.54 4.53 10.54 11.05v59.19c0 6.51-4.39 11-10.54 11s-10.7-4.56-10.7-11z"/><path d="m470.1 583.8c0-24.92 17.63-41.06 42-41.06s42 16.14 42 41.06-17.63 41.07-42 41.07-42-16.15-42-41.07zm62.17 0c0-12.81-8.36-21.59-20.18-21.59s-20.18 8.79-20.18 21.59 8.35 21.6 20.18 21.6 20.18-8.78 20.18-21.6z"/><path d="m638.73 576v37.4c0 6.37-4.46 11-10.62 11s-10.62-4.81-10.62-11v-34.06c0-11.47-6-17.34-15.79-17.34s-16.28 6.37-17 16.14v35.26c0 6.51-4.39 11-10.55 11s-10.69-4.6-10.69-11v-59.19c0-6.52 4.46-11.05 10.69-11.05a10.1 10.1 0 0 1 10.34 8.78c4.74-5.94 12.88-9.2 22.23-9.2 19.05 0 32.01 11.96 32.01 33.26z"/></g><g stroke="#110b15"><path d="m341.86 484.33a13.06 13.06 0 0 1 -26.12 0" fill="none"/><circle cx="301.38" cy="457.75" r="6.53" transform="matrix(.99985073 -.0172779 .0172779 .99985073 -7.85 5.27)"/><circle cx="356.22" cy="457.75" r="6.53" transform="matrix(.99985073 -.0172779 .0172779 .99985073 -7.84 6.21)"/></g></g></svg>