<svg viewBox="0 0 108 130" xmlns="http://www.w3.org/2000/svg"><path d="m48.68 57.18c0-6.23 2.54-12.52 9.91-18.57 5.75-4.67 10.09-7.27 10.09-12.52 0-6.46-5.19-10.95-12.56-10.95s-12.39 5.13-14.42 12.05a7.14 7.14 0 0 1 -7 5.07c-3.71 0-6-3.17-6-6.92a22.19 22.19 0 0 1 3.89-11.18c5.05-6.92 13.28-11.36 24.65-11.36 15.32 0 25.68 9.45 25.68 21.74 0 8.24-3.66 13.55-10.25 19.14-6.19 5.14-10.41 9.29-11 14.71-.79 3.57-3.49 5.13-6.81 5.13-3.81 0-6.18-2.36-6.18-6.34zm-3.1 21.28c0-5.6 4-9.81 9.41-9.81s9.41 4.21 9.41 9.81c0 5.76-4 9.86-9.41 9.86s-9.41-4.1-9.41-9.86z" fill="#ff3801" stroke="#110b15" stroke-linecap="round" stroke-linejoin="round" stroke-width="3"/></svg>