<svg viewBox="0 0 650 650" xmlns="http://www.w3.org/2000/svg"><g stroke-linecap="round" stroke-linejoin="round" stroke-width="5"><path d="m522.82 209.63v-118.47a86 86 0 0 0 -172 0v24.12a236 236 0 0 0 -51.7 0v-24.12a86 86 0 0 0 -172 0v118.47a251.17 251.17 0 0 0 -54.75 156.8c.06 139.48 113.14 252.57 252.63 252.57s252.57-113.09 252.57-252.57a251.17 251.17 0 0 0 -54.75-156.8z" fill="#fff" stroke="#010101"/><g fill="#fcc" stroke="#000"><path d="m245.55 91.41a32.39 32.39 0 0 0 -64.78 0v80a153.43 153.43 0 0 1 64.78-33.22z"/><path d="m404.44 91.41a32.4 32.4 0 0 1 64.79 0v80a153.41 153.41 0 0 0 -64.79-33.22z"/><circle cx="487.92" cy="389.04" r="49.94" transform="matrix(.99246083 -.12256224 .12256224 .99246083 -44.02 62.77)"/><circle cx="162.08" cy="389.04" r="49.94" transform="matrix(.12256224 -.99246083 .99246083 .12256224 -243.9 502.19)"/></g><path d="m323.4 419.3c0 27.85-22.77 46-45.56 46-23.09 0-40.2-12.31-39.66-32.3" fill="none" stroke="#010101"/><ellipse cx="323.4" cy="393.57" fill="#fcc" rx="32.67" ry="25.73" stroke="#010101"/><path d="m323.4 419.3c0 27.85 22.76 46 45.56 46 23.09 0 40.19-12.31 39.65-32.3" fill="none" stroke="#010101"/><circle cx="251.51" cy="308.35" r="17.6" stroke="#000" transform="matrix(.96 -.29 .29 .96 -78.82 86.49)"/><circle cx="395.29" cy="308.35" r="17.6" stroke="#000" transform="matrix(.95676283 -.29086918 .29086918 .95676283 -72.6 128.31)"/><path d="m522.82 209.63v-118.47a86 86 0 0 0 -172 0v24.12a236 236 0 0 0 -51.7 0v-24.12a86 86 0 0 0 -172 0v118.47a251.17 251.17 0 0 0 -54.75 156.8c.06 139.48 113.14 252.57 252.63 252.57s252.57-113.09 252.57-252.57a251.17 251.17 0 0 0 -54.75-156.8z" fill="#fff" stroke="#010101"/><g fill="#fcc"><path d="m245.55 91.41a32.39 32.39 0 0 0 -64.78 0v80a153.43 153.43 0 0 1 64.78-33.22z" stroke="#000"/><path d="m404.44 91.41a32.4 32.4 0 0 1 64.79 0v80a153.41 153.41 0 0 0 -64.79-33.22z" stroke="#000"/><circle cx="487.92" cy="389.04" r="49.94" stroke="#000" transform="matrix(.99246083 -.12256224 .12256224 .99246083 -44.02 62.77)"/><circle cx="162.08" cy="389.04" r="49.94" stroke="#000" transform="matrix(.12256224 -.99246083 .99246083 .12256224 -243.9 502.19)"/></g><path d="m323.4 419.3c0 27.85-22.77 46-45.56 46-23.09 0-40.2-12.31-39.66-32.3" fill="none" stroke="#010101"/><ellipse cx="323.4" cy="393.57" fill="#fcc" rx="32.67" ry="25.73" stroke="#010101"/><path d="m323.4 419.3c0 27.85 22.76 46 45.56 46 23.09 0 40.19-12.31 39.65-32.3" fill="none" stroke="#010101"/><g stroke="#000"><circle cx="251.51" cy="308.35" r="17.6" transform="matrix(.96 -.29 .29 .96 -78.82 86.49)"/><circle cx="395.29" cy="308.35" r="17.6" transform="matrix(.95676283 -.29086918 .29086918 .95676283 -72.6 128.31)"/><g fill="#0068ff"><path d="m151.13 602.75c2.74 4 3.67 7.43 3.67 10.51 0 6.15-6.23 11.45-13.15 11.45a13.18 13.18 0 0 1 -11.2-5.9l-25.38-37.81h-23v29.83c0 8.2-5.47 13.92-13.59 13.92s-13.48-5.68-13.48-13.88v-97.25c0-8.28 5.38-13.92 13.5-13.92h39.74c26.4 0 45.54 16.57 45.54 40.67 0 15.89-8.2 28.46-21.28 35.21zm-69-77.33v30h27.17c9.57 0 16.32-6 16.32-15s-6.75-15-16.32-15z"/><path d="m264.3 605c0 4.44-1.36 7.86-4.35 11.62-3.68 4.7-10.69 8-17.27 8-8.37 0-15-3.84-19-10.34-6.49 6.93-16.06 10.77-27.08 10.77-19.4 0-32.39-10.94-32.39-27.43 0-14.7 8.46-23.84 25.89-27.85l21.37-5c5.81-1.28 7.94-3.41 7.94-7.43 0-5.64-4.7-9.06-12.65-9.06-7 0-14.69 3.42-21 8.89-5.22 3.93-8.12 5.47-11.54 5.47-6.24 0-10.43-3.76-10.43-9.49 0-4 1.46-7.69 4.7-11.28 8.55-10 22.65-15.63 38.88-15.63 23.67 0 37.69 11.28 37.69 33.06v36.49c0 2.65.94 4.62 3.59 4.62a5.23 5.23 0 0 0 4-2 6 6 0 0 1 4.7-2c4.05-.07 6.95 3.69 6.95 8.59zm-44.77-15v-10.49a21.84 21.84 0 0 1 -8.12 3.5l-8.41 1.88c-7.69 1.62-11.62 5.38-11.62 10.68 0 5.47 4.87 9.14 12.13 9.14 9.18 0 16.02-6.23 16.02-14.71z"/><path d="m371.78 575.75c0 29.73-19.74 49.56-45.71 49.56-12.22 0-21.53-3.25-28.37-10.68a12.22 12.22 0 0 1 -12.48 10.16c-7.6 0-12.9-5.46-12.9-13.33v-100.46c0-7.87 5.3-13.33 12.9-13.33s12.78 5.44 12.78 13.33v26.23c6.66-7.18 16.49-11 28.11-11 25.89-.04 45.67 19.77 45.67 49.52zm-26.32 0c0-15.81-10.25-26.07-24-26.07-14.27 0-23.92 11.2-23.92 26.07s9.65 26.06 23.92 26.06c13.75 0 24-10.26 24-26.06z"/><path d="m482 575.75c0 29.73-19.74 49.56-45.71 49.56-12.22 0-21.54-3.25-28.37-10.68a12.22 12.22 0 0 1 -12.48 10.16c-7.6 0-12.9-5.46-12.9-13.33v-100.46c0-7.87 5.3-13.33 12.9-13.33s12.74 5.46 12.74 13.33v26.23c6.66-7.18 16.49-11 28.11-11 25.96-.04 45.71 19.77 45.71 49.52zm-26.31 0c0-15.81-10.26-26.07-24-26.07-14.27 0-23.92 11.2-23.92 26.07s9.65 26.06 23.92 26.06c13.73 0 23.99-10.26 23.99-26.06z"/><path d="m490.92 502c0-7.86 5.89-13.92 14.35-13.92s14.36 6.06 14.36 13.92c0 8-5.9 14-14.36 14s-14.35-6-14.35-14zm1.45 109.46v-71.46c0-7.86 5.38-13.33 12.9-13.33s12.73 5.5 12.73 13.33v71.43c0 7.87-5.29 13.33-12.73 13.33s-12.9-5.52-12.9-13.3z"/><path d="m605.51 603.94a16.65 16.65 0 0 1 -5.9 12.65c-5.9 5.38-15.38 8.72-25 8.72-17.43 0-30.08-11.88-30.08-30.17v-43.4h-9.53c-6.92 0-12-4.79-12-11.54s5-11.45 12-11.45h9.48v-14.87c0-7.86 5.22-13.33 12.82-13.33s12.7 5.45 12.7 13.33v14.87h21c7 0 12 4.7 12 11.45s-5 11.54-12 11.54h-21v39.56c0 6.92 3.17 9.74 8 9.74 3.33 0 6.06-1.79 9-4a13.64 13.64 0 0 1 8.63-3.24c5.94-.02 9.88 4.2 9.88 10.14z"/></g></g></g></svg>