<svg viewBox="0 0 108 130" xmlns="http://www.w3.org/2000/svg"><g stroke-linecap="round" stroke-linejoin="round" stroke-width="3"><path d="m83.49 31.89v-17.11a12.42 12.42 0 0 0 -24.84 0v3.48c-1.23-.12-2.47-.2-3.73-.2s-2.51.08-3.74.2v-3.48a12.42 12.42 0 0 0 -24.84 0v17.11a36.49 36.49 0 1 0 57.15 0z" fill="#fff" stroke="#010101"/><g fill="#fcc" stroke="#000"><path d="m43.44 14.82a4.68 4.68 0 1 0 -9.36 0v11.55a22 22 0 0 1 9.36-4.79z"/><path d="m66.39 14.82a4.68 4.68 0 0 1 9.36 0v11.55a22 22 0 0 0 -9.36-4.79z"/><circle cx="78.45" cy="57.8" r="7.21" transform="matrix(.99021943 -.13951876 .13951876 .99021943 -7.3 11.51)"/><circle cx="31.39" cy="57.8" r="7.21" transform="matrix(.13951876 -.99021943 .99021943 .13951876 -30.23 80.81)"/></g><g stroke="#010101"><path d="m54.69 62.17a6.59 6.59 0 0 1 -6.59 6.64c-3.33 0-5.8-1.77-5.72-4.66" fill="none"/><ellipse cx="54.69" cy="58.46" fill="#fcc" rx="4.72" ry="3.72"/><path d="m54.69 62.17a6.59 6.59 0 0 0 6.58 6.64c3.33 0 5.8-1.77 5.72-4.66" fill="none"/></g><g stroke="#000"><circle cx="44.3" cy="46.15" r="2.54" transform="matrix(.95569032 -.29437394 .29437394 .95569032 -11.62 15.09)"/><circle cx="65.07" cy="46.15" r="2.54" transform="matrix(.95569032 -.29437394 .29437394 .95569032 -10.7 21.2)"/></g></g></svg>