<svg viewBox="0 0 650 650" xmlns="http://www.w3.org/2000/svg"><g stroke-linecap="round" stroke-linejoin="round"><g stroke-width="5"><path d="m92.21 139.72c-39.21 61.77-24.72 195.43-42.48 268.98s-8.54 144.3 37.76 173.71 121 42.47 219.21-27 189.36-56.71 236.13-119.07 89.56-206.63-108.61-332.34-302.84-26-342.01 35.72z" fill="#ff3801" stroke="#010101"/><path d="m281.16 4.45c73.59.39 162.5 79.61 166.77 95.4 25.93-18.25 109.18 32.81 183.31 81.06-49.12-9.78-95.56-17.55-139.71-29.2 112.34 53.81 120.73 97.79 151.75 113.18-46.29 10.83-88.71-35-155.16-61.52 70.43 58.56 35.88 116.83 79.88 156.87-62-11.59-95.53-74.52-135.41-148.69-98.81 51.84-142.06 39.74-192.76 79.87 39.6-61.08 77-132.51 117.62-131-73.86-25.88-148.39-36.87-194.07-8.58 66.44-67 120.5-85 218.28-35.06-18.12-19.32-69.96-69.01-100.5-112.33z" fill="#5f5" stroke="#000"/><path d="m436.56 149.43a24.14 24.14 0 0 1 -20.36-37.06c15.73-24.8 45.27-65.34 69.48-81.16a221.73 221.73 0 0 1 53.32-25.21 24.13 24.13 0 1 1 15 45.89 174 174 0 0 0 -41.88 19.69c-18.4 12-43.11 47.66-55.12 66.6a24.13 24.13 0 0 1 -20.44 11.25z" fill="#5f5" stroke="#000"/><g stroke="#110b15"><path d="m259.57 461.81c-10 20-34.61 28-55 17.78s-28.75-34.59-18.76-54.59" fill="none"/><ellipse cx="189.34" cy="316.44" rx="20.25" ry="20.62" transform="matrix(.44682249 -.89462264 .89462264 .44682249 -178.36 344.44)"/><ellipse cx="344.23" cy="393.83" rx="20.25" ry="20.62" transform="matrix(.44682249 -.89462264 .89462264 .44682249 -161.91 525.81)"/></g></g><g fill="#5f5" stroke="#000" stroke-width="3"><path d="m23 617c-4.21-3.07-6.52-7.38-6.52-11.38a7.62 7.62 0 0 1 7.54-7.84 8.11 8.11 0 0 1 5.54 2.35 25.17 25.17 0 0 0 19.56 8.87c7.49 0 11.28-2.72 11.28-7.12 0-4-2.61-6-7.94-7l-13.69-2.72c-13.23-2.61-20-9.22-20-21.32 0-14.15 11.13-23.38 28.71-23.38a41.55 41.55 0 0 1 22.87 6.56c4.51 3 6.66 7.38 6.66 11.43 0 4.31-2.51 7.69-7 7.69-2.51 0-4.66-.87-7.18-2.87a22.77 22.77 0 0 0 -17-7.53c-6 0-9.94 2.25-9.94 6.61s2.92 6 8.51 7.13l13.17 2.87c12 2.61 19.79 7.89 19.79 21.07 0 14.76-11.64 23.94-29.48 23.94-10.88-.08-18.7-2.9-24.88-7.36z"/><path d="m132.4 611.46a10 10 0 0 1 -3.54 7.59c-3.54 3.23-9.23 5.23-15 5.23-10.46 0-18-7.12-18-18.1v-26h-5.76a6.8 6.8 0 0 1 -7.18-6.92c0-4.05 3-6.87 7.18-6.87h5.69v-8.92c0-4.72 3.13-8 7.69-8s7.64 3.28 7.64 8v8.92h12.61c4.21 0 7.18 2.82 7.18 6.87s-3 6.92-7.18 6.92h-12.61v23.74c0 4.15 1.9 5.84 4.82 5.84 2 0 3.64-1.08 5.38-2.41a8.2 8.2 0 0 1 5.18-1.95c3.5-.04 5.9 2.48 5.9 6.06z"/><path d="m183.76 577.68c0 5.12-2.81 8.61-7.89 8.61-2.72 0-4.56-1.69-6.05-3.38s-3.38-3.34-6-3.34c-4.2 0-8.36 3.8-8.36 13v23.43c0 4.71-3.17 8-7.63 8s-7.75-3.33-7.75-8v-42.89c0-4.71 3.23-8 7.75-8a7.34 7.34 0 0 1 7.48 6.3 17.09 17.09 0 0 1 14.05-6.61 14.87 14.87 0 0 1 10.36 3.74 12.09 12.09 0 0 1 4.04 9.14z"/><path d="m249.23 612.08a10.42 10.42 0 0 1 -2.62 7 13.8 13.8 0 0 1 -10.35 4.82 12.79 12.79 0 0 1 -11.38-6.2c-3.9 4.15-9.64 6.46-16.26 6.46-11.63 0-19.43-6.56-19.43-16.46 0-8.82 5.08-14.3 15.54-16.71l12.81-3c3.49-.77 4.77-2 4.77-4.46 0-3.38-2.82-5.43-7.59-5.43-4.2 0-8.81 2.05-12.61 5.33-3.13 2.36-4.87 3.28-6.92 3.28-3.74 0-6.25-2.26-6.25-5.69a9.77 9.77 0 0 1 2.82-6.77c5.12-6 13.58-9.38 23.32-9.38 14.21 0 22.61 6.77 22.61 19.84v21.89c0 1.59.57 2.77 2.16 2.77a3.15 3.15 0 0 0 2.41-1.18 3.6 3.6 0 0 1 2.82-1.23c2.41-.06 4.15 2.2 4.15 5.12zm-26.87-9v-6.28a13 13 0 0 1 -4.87 2.1l-5.07 1.1c-4.62 1-7 3.23-7 6.41s2.93 5.49 7.28 5.49c5.56.03 9.66-3.72 9.66-8.79z"/><path d="m340.79 572.14a11.14 11.14 0 0 1 -.36 3.18l-10.87 35.79c-2.05 7.22-5.79 13.17-13.27 13.17-6.52 0-10.82-4.61-13.59-13.17l-9-26.66-9 26.66c-2.76 8.61-7.07 13.17-13.63 13.17-7.49 0-11.23-6-13.23-13.17l-10.84-35.79a11.59 11.59 0 0 1 -.36-3.18c0-4.31 3.28-7.23 7.9-7.23a7.43 7.43 0 0 1 7.58 6l10.16 35.63 11.22-33.12c1.54-4.77 4.26-8.56 10.21-8.56 6.46 0 8.82 4.46 10.15 8.51l11.33 33.17 10.05-35.63a7.46 7.46 0 0 1 7.59-6c4.68 0 7.96 2.92 7.96 7.23z"/><path d="m408.67 594.55c0 17.84-11.84 29.73-27.43 29.73-7.33 0-12.92-1.95-17-6.41a7.34 7.34 0 0 1 -7.49 6.1c-4.56 0-7.74-3.28-7.74-8v-60.3c0-4.71 3.18-8 7.74-8s7.64 3.29 7.64 8v15.74c4-4.3 9.9-6.61 16.87-6.61 15.57.01 27.41 11.9 27.41 29.75zm-15.79 0c0-9.49-6.15-15.64-14.41-15.64-8.56 0-14.35 6.71-14.35 15.64s5.79 15.63 14.35 15.63c8.26 0 14.41-6.18 14.41-15.63z"/><path d="m470.33 610.08a9.33 9.33 0 0 1 -2.05 5.28c-4.16 5.64-13.18 8.87-22.46 8.87-18.51 0-30.71-11.59-30.71-29.58 0-17.64 12-29.84 29-29.84 16.15 0 27.53 10.82 27.53 25.79 0 5.94-2.56 8.61-8 8.61h-33.2c1 6.77 7.33 10.92 16.15 10.92 5 0 8.56-1.38 11.48-3.79 2.16-1.34 4.06-2.31 6.52-2.31 3.89-.03 5.74 2.31 5.74 6.05zm-39.89-22.66h26c-1-6.31-5.63-10.46-13-10.46-7.05.04-12.03 4.15-13 10.46z"/><path d="m525.45 577.68c0 5.12-2.82 8.61-7.9 8.61-2.72 0-4.56-1.69-6-3.38s-3.38-3.34-6-3.34c-4.2 0-8.36 3.8-8.36 13v23.43c0 4.71-3.17 8-7.63 8s-7.75-3.33-7.75-8v-42.89c0-4.71 3.23-8 7.75-8a7.34 7.34 0 0 1 7.48 6.3 17.09 17.09 0 0 1 13.96-6.6 14.82 14.82 0 0 1 10.35 3.74 12.08 12.08 0 0 1 4.1 9.13z"/><path d="m575.83 577.68c0 5.12-2.82 8.61-7.89 8.61-2.72 0-4.57-1.69-6.05-3.38-1.64-1.69-3.39-3.34-6-3.34-4.21 0-8.36 3.8-8.36 13v23.43c0 4.71-3.18 8-7.64 8s-7.74-3.33-7.74-8v-42.89c0-4.71 3.23-8 7.74-8a7.35 7.35 0 0 1 7.49 6.3 17.09 17.09 0 0 1 14-6.61 14.84 14.84 0 0 1 10.35 3.74 12.07 12.07 0 0 1 4.1 9.14z"/><path d="m636.92 571.47a19.2 19.2 0 0 1 -2 7.69l-19.92 42.92c-4.46 9.74-10.81 14.46-20.4 14.46-5.08 0-8.92-1.18-12.46-3.95a8.78 8.78 0 0 1 -3.43-6.67c0-4 2.71-7.38 6.35-7.38a6.16 6.16 0 0 1 3.28 1.08 9.45 9.45 0 0 0 5.66 2.38c2.67 0 4.93-1.49 6.72-4.36l-17.53-38.25c-1.49-3.33-2.42-5.9-2.42-7.64 0-4 3.13-6.92 7.64-6.92 4.67 0 6.67 2.46 8.72 7.54l11.74 27.12 11.74-26.71c2.41-5.85 4.57-7.95 8.87-7.95s7.44 2.9 7.44 6.64z"/></g></g></svg>