<svg viewBox="0 0 108 130" xmlns="http://www.w3.org/2000/svg"><g stroke-linecap="round" stroke-linejoin="round" stroke-width="3"><path d="m22.34 23.71c-5.56 8.76-3.51 27.72-6 38.15s-1.24 20.48 5.33 24.64 17.17 6 31.09-3.82 26.86-8.05 33.5-16.89 12.74-29.32-15.41-47.14-42.96-3.65-48.51 5.06z" fill="#ff3801" stroke="#010101"/><g fill="#5f5" stroke="#000"><path d="m49.14 4.52c10.44.06 23 11.29 23.66 13.53 3.67-2.59 15.48 4.66 26 11.5-7-1.38-13.56-2.49-19.82-4.14 15.94 7.59 17.13 13.87 21.53 16.06-6.57 1.53-12.59-5-22-8.73 10 8.31 5.09 16.57 11.33 22.25-8.84-1.64-13.56-10.57-19.22-21.09-14 7.35-20.15 5.64-27.34 11.33 5.62-8.67 10.92-18.8 16.72-18.58-10.47-3.67-21-5.23-27.52-1.22 9.42-9.51 17.09-12.06 31-5-2.66-2.71-10.01-9.76-14.34-15.91z"/><path d="m71.18 25.09a3.43 3.43 0 0 1 -2.88-5.26c2.23-3.52 6.42-9.27 9.85-11.51a31.36 31.36 0 0 1 7.56-3.57 3.42 3.42 0 1 1 2.13 6.51 24.66 24.66 0 0 0 -5.94 2.79c-2.61 1.7-6.12 6.76-7.82 9.45a3.44 3.44 0 0 1 -2.9 1.59z"/></g></g><path d="m26.48 80a2 2 0 0 0 -2.05 0 4.42 4.42 0 0 0 -1.6 1.54 4.42 4.42 0 0 0 -.71 2.11 2 2 0 0 0 .88 1.89 1.74 1.74 0 0 0 .93.26 2.59 2.59 0 0 0 .47 0 3.85 3.85 0 0 0 2.22-1.8 4.42 4.42 0 0 0 .71-2.11 2 2 0 0 0 -.85-1.89z"/><path d="m34.38 69c1-1.58.93-3.28-.15-4a2 2 0 0 0 -2 0 4.68 4.68 0 0 0 -2.31 3.64 2 2 0 0 0 .85 1.87 1.68 1.68 0 0 0 .93.26 2.4 2.4 0 0 0 1.12-.29 4.36 4.36 0 0 0 1.56-1.48z"/><path d="m41.81 61.44c1-1.58.94-3.28-.14-4a2 2 0 0 0 -2.05 0 4.34 4.34 0 0 0 -1.62 1.56 4.3 4.3 0 0 0 -.7 2.11 2 2 0 0 0 .85 1.89 1.72 1.72 0 0 0 .94.27 2 2 0 0 0 .47-.06 3.87 3.87 0 0 0 2.25-1.77z"/><path d="m24.08 76.48c1-1.58.94-3.29-.14-4a2 2 0 0 0 -2.06 0 4.34 4.34 0 0 0 -1.6 1.54 4.35 4.35 0 0 0 -.71 2.1 2 2 0 0 0 .85 1.88 1.72 1.72 0 0 0 .94.27 2.41 2.41 0 0 0 1.11-.3 4.34 4.34 0 0 0 1.61-1.49z"/><path d="m37 78.32a4.44 4.44 0 0 0 -3 1.37 5.36 5.36 0 0 0 -1.37 2 2 2 0 0 0 .28 2.13 1.72 1.72 0 0 0 1.31.52 2.93 2.93 0 0 0 .8-.12 5.16 5.16 0 0 0 2.1-1.22c1.5-1.41 2-3.19 1.09-4.13a1.79 1.79 0 0 0 -1.21-.55z"/><path d="m42.06 71.33c-1.5 1.42-2 3.2-1.08 4.13a1.72 1.72 0 0 0 1.31.52 2.93 2.93 0 0 0 .8-.12 5.16 5.16 0 0 0 2.07-1.25c1.5-1.41 2-3.19 1.09-4.13s-2.69-.57-4.19.85z"/><path d="m52.47 62.67a4.45 4.45 0 0 0 2.24-2.35 1.71 1.71 0 0 0 -.09-1.32 1.74 1.74 0 0 0 -1.06-.84 4.48 4.48 0 0 0 -3.2.54 5.25 5.25 0 0 0 -1.85 1.56 2.06 2.06 0 0 0 -.3 2.13 1.73 1.73 0 0 0 1.06.83 2.73 2.73 0 0 0 .83.12 5.27 5.27 0 0 0 2.37-.65z"/><path d="m60.81 55.47a2.1 2.1 0 0 0 .51.06 5.26 5.26 0 0 0 2.85-1.11c1.54-1.12 2.76-2.91 2.1-4.15a1.59 1.59 0 0 0 -1.06-.78 4.54 4.54 0 0 0 -3.35 1.06c-1.54 1.12-2.76 2.9-2.1 4.15a1.56 1.56 0 0 0 1.05.77z"/><path d="m66.68 61.25a1.51 1.51 0 0 0 -1-.77 4.5 4.5 0 0 0 -3.36 1.05c-1.54 1.12-2.76 2.91-2.1 4.15a1.57 1.57 0 0 0 1 .78 2.73 2.73 0 0 0 .5.05 5.13 5.13 0 0 0 2.85-1.11c1.56-1.12 2.78-2.9 2.11-4.15z"/><path d="m57.29 70.43a4.51 4.51 0 0 0 -3.36 1.06c-1.54 1.12-2.76 2.9-2.1 4.15a1.56 1.56 0 0 0 1.05.77 2.1 2.1 0 0 0 .51.06 5.23 5.23 0 0 0 2.85-1.11c1.54-1.12 2.76-2.91 2.1-4.15a1.56 1.56 0 0 0 -1.05-.78z"/><path d="m69.51 66.49a4.53 4.53 0 0 0 -3.35 1.06c-1.55 1.12-2.76 2.9-2.1 4.15a1.53 1.53 0 0 0 1 .77 2.1 2.1 0 0 0 .51.06 5.15 5.15 0 0 0 2.85-1.11c1.55-1.12 2.76-2.91 2.1-4.15a1.57 1.57 0 0 0 -1.01-.78z"/><path d="m80.61 62.93a1.5 1.5 0 0 0 -1-.78 4.51 4.51 0 0 0 -3.36 1.06c-1.55 1.12-2.76 2.9-2.1 4.15a1.56 1.56 0 0 0 1 .77 2 2 0 0 0 .5.06 5.2 5.2 0 0 0 2.85-1.11c1.56-1.08 2.78-2.91 2.11-4.15z"/><path d="m75.62 56.92c1.55-1.11 2.76-2.9 2.1-4.15a1.56 1.56 0 0 0 -1-.77 4.47 4.47 0 0 0 -3.36 1.06c-1.55 1.12-2.76 2.9-2.1 4.14a1.5 1.5 0 0 0 1 .78 2.1 2.1 0 0 0 .51.06 5.18 5.18 0 0 0 2.85-1.12z"/><path d="m69.11 50.82a2.1 2.1 0 0 0 .51.06 5.18 5.18 0 0 0 2.85-1.12c1.54-1.12 2.76-2.9 2.1-4.15a1.56 1.56 0 0 0 -1-.77 4.51 4.51 0 0 0 -3.36 1c-1.59 1.16-2.81 2.96-2.14 4.16a1.53 1.53 0 0 0 1.04.82z"/><path d="m62.05 46.34a2.1 2.1 0 0 0 .51.06 5.15 5.15 0 0 0 2.85-1.11c1.55-1.12 2.77-2.91 2.1-4.15a1.57 1.57 0 0 0 -1.05-.78 4.53 4.53 0 0 0 -3.35 1.06c-1.55 1.12-2.76 2.9-2.1 4.15a1.53 1.53 0 0 0 1.04.77z"/><path d="m49.34 51.72a4.54 4.54 0 0 0 3-1.78c1.25-1.44 2-3.45 1.11-4.52a1.56 1.56 0 0 0 -1.19-.52 4.51 4.51 0 0 0 -3 1.78c-1.26 1.44-2.05 3.45-1.12 4.52a1.56 1.56 0 0 0 1.2.52z"/><path d="m43.49 34.53a4.55 4.55 0 0 0 3-1.78c1.25-1.44 2-3.45 1.12-4.52a1.61 1.61 0 0 0 -1.19-.52 4.55 4.55 0 0 0 -3 1.78c-1.26 1.44-2.05 3.45-1.12 4.52a1.56 1.56 0 0 0 1.19.52z"/><path d="m33.64 41a1.59 1.59 0 0 0 1.19.52 4.52 4.52 0 0 0 3-1.79c1.25-1.43 2-3.45 1.11-4.51a1.54 1.54 0 0 0 -1.19-.52 4.47 4.47 0 0 0 -3 1.78c-1.25 1.38-2.04 3.4-1.11 4.52z"/><path d="m32.23 32.4c1.26-1.44 2-3.45 1.12-4.51a1.52 1.52 0 0 0 -1.19-.52 4.46 4.46 0 0 0 -3 1.78c-1.25 1.43-2 3.44-1.12 4.51a1.54 1.54 0 0 0 1.2.52 4.51 4.51 0 0 0 2.99-1.78z"/><path d="m27.44 39.55a1.52 1.52 0 0 0 -1.29-.21 4.48 4.48 0 0 0 -2.5 2.46c-.87 1.7-1.14 3.84 0 4.66a1.5 1.5 0 0 0 .86.26 2 2 0 0 0 .42 0 4.54 4.54 0 0 0 2.51-2.47c.88-1.75 1.16-3.89 0-4.7z"/><path d="m20.84 37.5a1.46 1.46 0 0 0 .86.27 1.65 1.65 0 0 0 .43-.06 4.48 4.48 0 0 0 2.5-2.46c.87-1.7 1.14-3.84 0-4.65a1.56 1.56 0 0 0 -1.29-.22 4.53 4.53 0 0 0 -2.5 2.47c-.84 1.7-1.16 3.84 0 4.65z"/><path d="m28.3 23.53h.1a4.67 4.67 0 0 0 3-1.63c1.33-1.37 2.21-3.34 1.34-4.46a1.55 1.55 0 0 0 -1.16-.58 4.53 4.53 0 0 0 -3.12 1.63c-1.33 1.37-2.21 3.34-1.34 4.46a1.57 1.57 0 0 0 1.18.58z"/><path d="m37.37 47.18a1.56 1.56 0 0 0 -1.19-.52 4.51 4.51 0 0 0 -3 1.78c-1.26 1.44-2 3.45-1.12 4.52a1.56 1.56 0 0 0 1.19.52 4.51 4.51 0 0 0 3-1.78c1.26-1.44 2.05-3.45 1.12-4.52z"/><path d="m23 63.45a1.52 1.52 0 0 0 .63.14 1.67 1.67 0 0 0 .68-.15 4.47 4.47 0 0 0 2-2.86c.57-1.83.47-4-.81-4.58a1.52 1.52 0 0 0 -1.3 0 4.48 4.48 0 0 0 -2.05 2.86c-.48 1.83-.38 3.99.85 4.59z"/></svg>