<svg viewBox="0 0 650 650" xmlns="http://www.w3.org/2000/svg"><g stroke-linecap="round" stroke-linejoin="round" stroke-width="5"><circle cx="324.27" cy="334.27" fill="#ff3801" r="265.23" stroke="#010101"/><path d="m297.5 152.57c-40.5-2.35-128.63-.68-192.94 59.43 7.13-48.44 56.3-122.37 117-122.37-24.2-14.44-73-21.3-119.71-21.3 38.15-20.62 72.15-31.65 105.15-31.65s79.09 14.93 102.22 38.06c20.64-37.27 53.7-66.69 140.45-66.69-38.82 25.73-49 43.47-52.66 71.08 10.57-2.88 23-5.11 45.8-5.11 58.33 0 105.44 62 115.14 96.49-64.91-27-132.1-27.32-167.89-27.32-6.17 25.69 15.47 111.87 17 125.84-43.71-30.75-97.91-96.56-109.56-116.46z" fill="#5f5" stroke="#000"/><path d="m324.27 129.15a23.54 23.54 0 0 1 -23.54-23.55 90.12 90.12 0 0 0 -7.59-34.83c-4.22-9.77-10-18.42-15.45-23.13a23.54 23.54 0 0 1 30.78-35.64c10.88 9.4 20.78 23.63 27.89 40.07a136.33 136.33 0 0 1 11.45 53.52 23.54 23.54 0 0 1 -23.54 23.56z" fill="#5f5" stroke="#000"/><g stroke="#110b15"><path d="m355.44 428.21a31.48 31.48 0 0 1 -62.95 0" fill="none"/><circle cx="257.87" cy="351.5" r="15.75"/><circle cx="390.06" cy="351.5" r="15.75"/></g><g fill="#ffc800" stroke="#000"><path d="m101.8 503.21c7.64 0 13.2 5.31 13.2 12.95s-5.56 13-13.2 13h-26v82c0 8-5.23 13.53-13.11 13.53s-13.12-5.48-13.12-13.53v-82h-26c-7.64 0-13.2-5.31-13.2-13s5.56-12.95 13.2-12.95z"/><path d="m98.47 577.09c0-29.22 20.66-48.15 49.22-48.15s49.22 18.93 49.22 48.15-20.67 48.14-49.22 48.14-49.22-18.92-49.22-48.14zm72.88 0c0-15-9.8-25.32-23.66-25.32s-23.69 10.29-23.69 25.32 9.8 25.32 23.66 25.32 23.69-10.3 23.69-25.32z"/><path d="m355.55 568v43.83c0 7.47-5.23 13-12.45 13-7.39 0-12.45-5.65-12.45-13v-39.97c0-13.45-6.56-20.34-17.35-20.34-11.54 0-18.76 8.47-18.76 21.17v39.1c0 7.47-5.23 13-12.45 13s-12.45-5.65-12.45-13v-39.93c0-13.45-6.56-20.34-17.35-20.34s-17.85 7.47-18.68 18.85v41.42c0 7.63-5.14 13-12.36 13s-12.54-5.4-12.54-13v-69.4c0-7.63 5.23-12.95 12.54-12.95a11.88 11.88 0 0 1 12.11 10.21c5.32-7 14.37-10.71 24.91-10.71 12.53 0 22.83 4.74 29.13 13.62 5.56-8 15.61-13.62 31.21-13.62 21.59 0 36.94 14.06 36.94 39.06z"/><path d="m465.06 605.48c0 4.31-1.33 7.63-4.24 11.29-3.57 4.56-10.37 7.8-16.76 7.8-8.14 0-14.61-3.74-18.43-10-6.31 6.68-15.63 10.43-26.32 10.43-18.84 0-31.46-10.62-31.46-26.64 0-14.28 8.22-23.16 25.16-27.06l20.75-4.9c5.64-1.24 7.72-3.32 7.72-7.22 0-5.48-4.57-8.8-12.29-8.8-6.8 0-14.28 3.32-20.42 8.63-5.06 3.82-7.88 5.32-11.2 5.32-6.06 0-10.13-3.66-10.13-9.22a15.82 15.82 0 0 1 4.56-11c8.31-9.72 22-15.2 37.77-15.2 23 0 36.61 11 36.61 32.13v35.44c0 2.58.91 4.49 3.49 4.49a5.09 5.09 0 0 0 3.9-1.91 5.82 5.82 0 0 1 4.56-2c3.9.03 6.73 3.69 6.73 8.42zm-43.5-14.48v-10.26a21.23 21.23 0 0 1 -7.89 3.4l-8.21 1.86c-7.47 1.58-11.29 5.23-11.29 10.38 0 5.31 4.73 8.88 11.78 8.88 8.97-.03 15.61-6.09 15.61-14.26z"/><path d="m535.74 604.48a16.16 16.16 0 0 1 -5.74 12.29c-5.72 5.23-14.94 8.46-24.32 8.46-16.93 0-29.22-11.53-29.22-29.3v-42.17h-9.21c-6.72 0-11.62-4.64-11.62-11.2s4.9-11.13 11.62-11.13h9.21v-14.43c0-7.64 5.07-12.95 12.45-12.95s12.37 5.31 12.37 12.95v14.44h20.42c6.81 0 11.62 4.57 11.62 11.13s-4.81 11.2-11.62 11.2h-20.41v38.43c0 6.72 3.07 9.46 7.81 9.46 3.23 0 5.89-1.74 8.71-3.9a13.25 13.25 0 0 1 8.38-3.16c5.73 0 9.55 4.07 9.55 9.88z"/><path d="m538.4 577.09c0-29.22 20.67-48.15 49.22-48.15s49.23 18.93 49.23 48.15-20.67 48.14-49.23 48.14-49.22-18.92-49.22-48.14zm72.88 0c0-15-9.8-25.32-23.66-25.32s-23.62 10.29-23.62 25.32 9.8 25.32 23.66 25.32 23.62-10.3 23.62-25.32z"/></g></g></svg>