<svg viewBox="0 0 108 130" xmlns="http://www.w3.org/2000/svg"><g stroke-linecap="round" stroke-linejoin="round" stroke-width="3"><circle cx="54.25" cy="51.42" fill="#ff3801" r="40.07" stroke="#010101"/><path d="m50.21 24c-6.12-.35-19.43-.1-29.15 9 1.08-7.32 8.51-18.48 17.68-18.48-3.65-2.18-11-3.22-18.08-3.22 5.75-3.12 10.88-4.78 15.88-4.78s12 2.25 15.44 5.75c3.11-5.68 8.11-10.13 21.21-10.13-5.86 3.89-7.4 6.57-8 10.74a24.32 24.32 0 0 1 6.92-.77c8.81 0 15.92 9.36 17.39 14.57-9.81-4.07-20-4.12-25.36-4.12-.93 3.88 2.33 16.9 2.56 19-6.55-4.64-14.7-14.56-16.49-17.56z" fill="#5f5" stroke="#000"/><path d="m54.25 20.44a3.57 3.57 0 0 1 -3.56-3.56 13.56 13.56 0 0 0 -1.14-5.26 10.1 10.1 0 0 0 -2.34-3.5 3.56 3.56 0 0 1 4.65-5.38 17 17 0 0 1 4.22 6 20.66 20.66 0 0 1 1.73 8.09 3.57 3.57 0 0 1 -3.56 3.61z" fill="#5f5" stroke="#000"/><g stroke="#110b15"><path d="m59 65.61a4.76 4.76 0 0 1 -9.51 0" fill="none"/><circle cx="44.22" cy="54.02" r="2.38"/><circle cx="64.19" cy="54.02" r="2.38"/></g></g></svg>