<svg viewBox="0 0 650 650" xmlns="http://www.w3.org/2000/svg"><g stroke-linecap="round" stroke-linejoin="round" stroke-width="5"><path d="m326.01 47.46v-40.29" fill="none" stroke="#000"/><path d="m326.1 558a12 12 0 0 1 -12-12v-255.64a12 12 0 0 1 24 0v255.64a12 12 0 0 1 -12 12z" fill="#fff" stroke="#010101"/><path d="m279.66 606.85a61.15 61.15 0 0 1 -61.15-61.15 14.75 14.75 0 1 1 29.49 0 31.66 31.66 0 1 0 63.32 0v-33.39h29.49v33.39a61.15 61.15 0 0 1 -61.15 61.15z" fill="#ac4300" stroke="#000"/><g stroke="#010101"><path d="m326.05 47.46c-167.95 0-304.05 136.15-304.05 304.09a76 76 0 0 1 152.05 0c0-167.88 68.07-304 152.05-304" fill="#ff3801"/><path d="m326.05 47.46c167.94 0 304.08 136.15 304.09 304.09a76 76 0 0 0 -152 0c0-167.88-68.07-304-152-304" fill="#0068ff"/><path d="m174 351.56a76 76 0 1 1 152.05 0v-303.96c-83.98 0-152.05 136.08-152.05 303.96z" fill="#ffc800"/><path d="m326.05 47.6v304a76 76 0 1 1 152 0c.04-167.92-68.05-304-152-304z" fill="#00bf3a"/></g><g stroke="#000"><path d="m29 584.54v-49.46c0-6.47 4.45-11 10.78-11s10.58 4.51 10.58 11v47.44c0 12.33 8 20.75 20 20.75s20-8.42 20-20.75v-47.44c0-6.47 4.24-11 10.58-11s10.78 4.51 10.78 11v49.46c0 24.26-16.24 40.23-41.37 40.23s-41.35-15.97-41.35-40.23z" fill="#ff3801"/><path d="m245.46 578.27v35.58c0 6.06-4.24 10.51-10.1 10.51s-10.11-4.58-10.11-10.51v-32.41c0-10.92-5.32-16.51-14.08-16.51-9.37 0-15.23 6.87-15.23 17.18v31.74c0 6.06-4.25 10.51-10.11 10.51s-10.11-4.58-10.11-10.51v-32.41c0-10.92-5.32-16.51-14.08-16.51s-14.49 6.06-15.16 15.29v33.63c0 6.2-4.18 10.51-10 10.51s-10.18-4.38-10.18-10.51v-56.33c0-6.2 4.25-10.51 10.18-10.51a9.66 9.66 0 0 1 9.84 8.28c4.31-5.66 11.65-8.69 20.21-8.69 10.18 0 18.53 3.84 23.65 11 4.52-6.53 12.67-11 25.34-11 17.48 0 29.94 11.4 29.94 31.67z" fill="#ff9400"/><path d="m336.9 585.68c0 23.45-15.56 39.09-36 39.09-9.63 0-17-2.57-22.37-8.43a9.64 9.64 0 0 1 -9.84 8c-6 0-10.17-4.31-10.17-10.51v-79.22c0-6.2 4.17-10.51 10.17-10.51s10 4.31 10 10.51v20.68c5.26-5.66 13-8.69 22.17-8.69 20.48 0 36.04 15.63 36.04 39.08zm-20.75 0c0-12.46-8.09-20.55-18.94-20.55-11.25 0-18.86 8.83-18.86 20.55s7.61 20.55 18.86 20.55c10.85 0 18.94-8.08 18.94-20.55z" fill="#ffc800"/><path d="m403.45 563.51c0 6.74-3.71 11.32-10.38 11.32-3.57 0-6-2.22-7.95-4.44-2.15-2.23-4.45-4.38-7.88-4.38-5.53 0-11 5-11 17v30.79c0 6.2-4.17 10.51-10 10.51s-10.24-4.31-10.24-10.46v-56.33c0-6.2 4.24-10.51 10.17-10.51a9.65 9.65 0 0 1 9.84 8.28c4.38-5.79 11.05-8.69 18.46-8.69 5.87 0 10.58 2 13.62 4.92a15.87 15.87 0 0 1 5.36 11.99z" fill="#00bf3a"/><path d="m476.86 606.1a12.26 12.26 0 0 1 -2.7 6.94c-5.45 7.41-17.31 11.66-29.51 11.66-24.33 0-40.36-15.23-40.36-38.88 0-23.18 15.76-39.22 38.14-39.22 21.22 0 36.18 14.22 36.18 33.89 0 7.82-3.37 11.32-10.51 11.32h-43.66c1.28 8.9 9.63 14.36 21.22 14.36 6.6 0 11.25-1.82 15.09-5 2.83-1.75 5.33-3 8.56-3 5.12-.02 7.55 3.01 7.55 7.93zm-52.42-29.78h34.23c-1.35-8.29-7.42-13.75-17.05-13.75-9.37 0-15.9 5.43-17.18 13.75z" fill="#05cf9c"/><path d="m488 613.85v-79.24c0-6.2 4.17-10.51 10.17-10.51s10 4.31 10 10.51v79.24c0 6.2-4.11 10.51-10 10.51s-10.17-4.31-10.17-10.51z" fill="#83bbff"/><path d="m522 613.85v-79.24c0-6.2 4.18-10.51 10.18-10.51s10 4.31 10 10.51v79.24c0 6.2-4.11 10.51-10 10.51s-10.18-4.31-10.18-10.51z" fill="#0068ff"/><path d="m631.47 608.73a13.74 13.74 0 0 1 -3.44 9.16 18.16 18.16 0 0 1 -13.61 6.34 16.82 16.82 0 0 1 -15-8.16c-5.12 5.46-12.67 8.49-21.36 8.49-15.3 0-25.54-8.62-25.54-21.63 0-11.59 6.67-18.8 20.42-22l16.84-4c4.58-1 6.27-2.69 6.27-5.86 0-4.45-3.71-7.14-10-7.14-5.53 0-11.59 2.69-16.58 7-4.11 3.1-6.4 4.32-9.1 4.32-4.91 0-8.22-3-8.22-7.48a12.86 12.86 0 0 1 3.71-8.9c6.74-7.88 17.86-12.33 30.66-12.33 18.66 0 29.71 8.9 29.71 26.08v28.77c0 2.09.75 3.64 2.84 3.64a4.13 4.13 0 0 0 3.16-1.55 4.73 4.73 0 0 1 3.71-1.62c3.23.06 5.53 3.03 5.53 6.87zm-35.31-11.79v-8.29a17.31 17.31 0 0 1 -6.4 2.76l-6.68 1.48c-6.06 1.28-9.16 4.25-9.16 8.43s3.84 7.21 9.57 7.21c7.28 0 12.67-4.92 12.67-11.59z" fill="#ec00ff"/></g></g></svg>