<svg viewBox="0 0 108 130" xmlns="http://www.w3.org/2000/svg"><g stroke-linecap="round" stroke-linejoin="round" stroke-width="3"><g stroke="#000"><path d="m53.99 10.23v-8.32" fill="none"/><path d="m54.01 51.66v40.64" fill="none"/><path d="m43.64 105.63a13.67 13.67 0 0 1 -13.64-13.63 3.3 3.3 0 1 1 6.6 0 7.08 7.08 0 1 0 14.15 0v-7.5h6.59v7.5a13.66 13.66 0 0 1 -13.67 13.67z" fill="#ac4300"/></g><g stroke="#010101"><path d="m54 10.23a51.86 51.86 0 0 0 -51.86 51.86 13 13 0 0 1 25.93 0c0-28.63 11.61-51.84 25.93-51.84" fill="#ff3801"/><path d="m54 10.23a51.86 51.86 0 0 1 51.86 51.86 13 13 0 0 0 -25.93 0c0-28.63-11.61-51.84-25.93-51.84" fill="#0068ff"/><path d="m28.07 62.09a13 13 0 0 1 25.93 0v-51.84c-14.32 0-25.93 23.21-25.93 51.84z" fill="#f3d131"/><path d="m54 10.25v51.84a13 13 0 0 1 25.93 0c0-28.63-11.61-51.84-25.93-51.84z" fill="#00bf3a"/></g></g></svg>