<svg viewBox="0 0 650 650" xmlns="http://www.w3.org/2000/svg"><g stroke-linecap="round" stroke-linejoin="round" stroke-width="5"><circle cx="325.24" cy="250.78" fill="#ff3801" r="247.84" stroke="#000"/><path d="m354.37 132.6h-58.26c-56.4 127.74-175.11 316.2-218.71 366.11h495.68c-43.56-49.91-162.32-238.37-218.71-366.11z" fill="#cbccbe" stroke="#000"/><g stroke="#110b15"><path d="m351.57 382.85a26.33 26.33 0 0 1 -52.66 0" fill="none"/><circle cx="269.96" cy="315" r="13.17"/><circle cx="380.52" cy="315" r="13.17"/></g><g stroke="#000"><path d="m354.37 132.6h-58.26c-11.36 25.74-25.26 54-40.57 83l42.53-15.91 19.8 39.77 32.62-30.86 44.44 7c-15.3-29.05-29.2-57.26-40.56-83z" fill="#fff"/><g fill="#ff3801"><path d="m123.6 519.77a16.78 16.78 0 0 1 -.78 4.54l-28.36 79.53c-5 14.53-12.89 20.93-24.22 20.93-11.49 0-19.46-6.48-24.38-20.93l-28.36-79.53a16.25 16.25 0 0 1 -.78-4.54c0-6.56 5.39-11.4 12.81-11.4 5.94 0 10 3.51 12 9.22l28.67 80.78 28.59-80.78c2-5.71 6-9.22 12-9.22 7.49 0 12.81 4.84 12.81 11.4z"/><path d="m119.35 579.77c0-27.5 19.46-45.31 46.33-45.31s46.32 17.81 46.32 45.31-19.45 45.32-46.33 45.32-46.32-17.82-46.32-45.32zm68.6 0c0-14.14-9.22-23.82-22.27-23.82s-22.26 9.68-22.26 23.82 9.22 23.83 22.26 23.83 22.32-9.68 22.32-23.83z"/><path d="m222.38 612.43v-91.87c0-7.19 4.84-12.19 11.8-12.19s11.64 5 11.64 12.19v91.87c0 7.19-4.77 12.19-11.64 12.19s-11.8-5-11.8-12.19z"/><path d="m256.17 579.77c0-26.56 19.3-45.31 45-45.31 14.61 0 25.31 4.46 31.88 11.25 4.76 4.92 7 10.55 7 15 0 5.71-4 10-9.69 10-4.84 0-8.05-2-11.48-6a20.36 20.36 0 0 0 -16.88-8.71c-12.34 0-21.72 9.68-21.72 23.82s9.33 23.78 21.72 23.78c8.52 0 13.83-4.06 17.58-9.68 3.05-4 5.86-5.71 10.55-5.71a10.11 10.11 0 0 1 10.23 10.16c0 4.3-2.5 10-7.19 14.84-6.71 7-18.2 11.88-31.95 11.88-25.75 0-45.05-18.75-45.05-45.32z"/><path d="m440 606.49c0 4.07-1.25 7.19-4 10.63-3.36 4.3-9.76 7.34-15.78 7.34-7.65 0-13.75-3.51-17.34-9.45-5.94 6.33-14.69 9.84-24.77 9.84-17.73 0-29.61-10-29.61-25.08 0-13.43 7.74-21.79 23.67-25.46l19.54-4.61c5.31-1.18 7.26-3.13 7.26-6.8 0-5.16-4.3-8.28-11.56-8.28-6.41 0-13.44 3.12-19.22 8.12-4.77 3.6-7.42 5-10.55 5-5.7 0-9.53-3.43-9.53-8.67a14.89 14.89 0 0 1 4.3-10.31c7.81-9.14 20.7-14.3 35.55-14.3 21.64 0 34.45 10.31 34.45 30.24v33.36c0 2.42.86 4.21 3.28 4.21a4.78 4.78 0 0 0 3.67-1.79 5.48 5.48 0 0 1 4.3-1.88c3.68 0 6.34 3.4 6.34 7.89zm-40.94-13.67v-9.61a20.09 20.09 0 0 1 -7.42 3.21l-7.74 1.71c-7 1.49-10.62 4.93-10.62 9.77 0 5 4.45 8.36 11.09 8.36 8.44 0 14.69-5.7 14.69-13.44z"/><path d="m530.37 571.18v41.25c0 7-4.92 12.19-11.71 12.19-7 0-11.72-5.31-11.72-12.19v-37.58c0-12.65-6.64-19.14-17.43-19.14s-18 7-18.75 17.81v38.91c0 7.19-4.84 12.19-11.64 12.19s-11.79-5.08-11.79-12.19v-65.31c0-7.19 4.92-12.19 11.79-12.19a11.15 11.15 0 0 1 11.41 9.69c5.23-6.56 14.22-10.16 24.53-10.16 21.02 0 35.31 13.21 35.31 36.72z"/><path d="m539.6 579.77c0-27.5 19.45-45.31 46.33-45.31s46.33 17.81 46.33 45.31-19.46 45.32-46.33 45.32-46.33-17.82-46.33-45.32zm68.59 0c0-14.14-9.21-23.82-22.26-23.82s-22.27 9.68-22.27 23.82 9.22 23.83 22.27 23.83 22.26-9.68 22.26-23.83z"/></g></g></g></svg>