<svg viewBox="0 0 650 650" xmlns="http://www.w3.org/2000/svg"><g stroke-linecap="round" stroke-linejoin="round"><g stroke-width="5"><g stroke="#010101"><path d="m369.52 278.23c0 149.74-24.14 271.11-53.9 271.11s-53.88-121.34-53.88-271.11 24.14-271.13 53.88-271.13 53.9 121.39 53.9 271.13zm-53.9 271.13c-89.73 0-162.5-121.39-162.5-271.13s72.77-271.13 162.5-271.13 162.52 121.39 162.52 271.13-72.77 271.13-162.52 271.13zm271.13-271.13c0 149.74-121.39 271.13-271.13 271.13s-271.11-121.36-271.11-271.13 121.39-271.13 271.11-271.13 271.13 121.39 271.13 271.13z" fill="#5f5"/><path d="m586.54 369.12c-4.29-43.5-24.42-92.55-62-126.56l-391.16 177.66c41.75 69.39 114.93 128.95 253.4 129h.49c175.21.07 203.59-136.22 199.27-180.1z" fill="#5f5"/><path d="m524.54 242.56c62 126.56 9.05 220.79-61.67 245.57-83.52 29.27-173.8 8.8-237.23-109.82z" fill="#ff3801"/></g><path d="m457 404.64a24.91 24.91 0 1 1 -44.94 21.5" fill="none" stroke="#110b15"/><circle cx="362.8" cy="388.9" r="12.46" stroke="#110b15" transform="matrix(.94188168 -.33594478 .33594478 .94188168 -109.57 144.5)"/><circle cx="457.17" cy="343.75" r="12.46" stroke="#110b15" transform="matrix(.94188168 -.33594478 .33594478 .94188168 -88.92 173.58)"/></g><g fill="#83bbff" stroke="#000" stroke-width="3"><path d="m111.29 558.53a13.58 13.58 0 0 1 -.3 3.16l-11 45.91c-2.31 10.4-7.84 16.4-15.14 16.4s-12.77-6.22-15.28-17.27l-9.18-35.31-9.17 35.31c-2.52 11.08-7.89 17.27-15.29 17.27-7.2 0-12.82-6-15.09-16.43l-11-45.91a14.68 14.68 0 0 1 -.34-3.16c0-4.48 3.8-8 8.68-8a7.71 7.71 0 0 1 7.89 6.37l10.16 48.47 11.77-43.65c1.63-6.46 6.07-11.15 12.38-11.15s10.75 4.69 12.38 11.15l11.84 43.74 10.16-48.52a7.63 7.63 0 0 1 7.89-6.37c4.84 0 8.64 3.51 8.64 7.99z"/><path d="m173.28 612.49a10 10 0 0 1 -2.52 6.7 13.3 13.3 0 0 1 -10 4.64 12.32 12.32 0 0 1 -11-6c-3.75 4-9.27 6.21-15.63 6.21-11.2 0-18.69-6.31-18.69-15.83 0-8.48 4.88-13.75 14.94-16.07l12.33-2.91c3.35-.74 4.59-2 4.59-4.29 0-3.26-2.72-5.23-7.3-5.23-4.05 0-8.48 2-12.13 5.13-3 2.27-4.69 3.15-6.66 3.15-3.6 0-6-2.17-6-5.47a9.41 9.41 0 0 1 2.79-6.52c4.94-5.77 13.07-9 22.44-9 13.66 0 21.75 6.51 21.75 19.08v21.06c0 1.53.54 2.66 2.07 2.66a3 3 0 0 0 2.32-1.13 3.46 3.46 0 0 1 2.71-1.19c2.31.02 3.99 2.19 3.99 5.01zm-25.84-8.63v-6.07a12.6 12.6 0 0 1 -4.69 2l-4.88 1.09c-4.44.93-6.71 3.1-6.71 6.16s2.81 5.28 7 5.28c5.33.02 9.28-3.58 9.28-8.46z"/><path d="m217.24 611.89a9.58 9.58 0 0 1 -3.4 7.3c-3.4 3.11-8.88 5-14.45 5-10.06 0-17.36-6.85-17.36-17.41v-25h-5.47a6.54 6.54 0 0 1 -6.91-6.66c0-3.89 2.91-6.6 6.91-6.6h5.44v-8.59c0-4.53 3-7.69 7.4-7.69s7.35 3.16 7.35 7.69v8.59h12.13c4 0 6.9 2.71 6.9 6.6s-2.86 6.66-6.9 6.66h-12.1v22.83c0 4 1.82 5.63 4.63 5.63 1.92 0 3.5-1 5.18-2.32a7.84 7.84 0 0 1 5-1.87 5.48 5.48 0 0 1 5.65 5.84z"/><path d="m274 610.56a8.94 8.94 0 0 1 -2 5.08c-4 5.43-12.67 8.53-21.6 8.53-17.8 0-29.54-11.14-29.54-28.45 0-17 11.54-28.7 27.91-28.7 15.54 0 26.49 10.4 26.49 24.8 0 5.72-2.47 8.29-7.7 8.29h-31.93c.93 6.51 7.05 10.5 15.53 10.5a16.36 16.36 0 0 0 11-3.65c2.07-1.28 3.89-2.22 6.26-2.22 3.8 0 5.58 2.26 5.58 5.82zm-38.37-21.8h25.05c-1-6.06-5.43-10.06-12.48-10.06-6.85 0-11.64 4-12.57 10.06z"/><path d="m326.71 579.39c0 4.94-2.71 8.29-7.59 8.29-2.62 0-4.39-1.63-5.83-3.26s-3.25-3.2-5.76-3.2c-4 0-8 3.65-8 12.48v22.53c0 4.54-3.06 7.7-7.35 7.7s-7.45-3.21-7.45-7.7v-41.23c0-4.54 3.11-7.7 7.45-7.7a7.06 7.06 0 0 1 7.2 6.07 16.44 16.44 0 0 1 13.47-6.37 14.27 14.27 0 0 1 10 3.6 11.58 11.58 0 0 1 3.86 8.79z"/><path d="m420.1 590.19v26c0 4.44-3.11 7.7-7.4 7.7s-7.4-3.36-7.4-7.7v-23.68c0-8-3.89-12.08-10.31-12.08-6.85 0-11.14 5-11.14 12.58v23.22c0 4.44-3.11 7.7-7.4 7.7a7.35 7.35 0 0 1 -7.4-7.7v-23.72c0-8-3.89-12.08-10.3-12.08s-10.61 4.44-11.1 11.19v24.61c0 4.54-3.06 7.7-7.35 7.7s-7.44-3.21-7.44-7.7v-41.23c0-4.54 3.1-7.7 7.44-7.7a7.06 7.06 0 0 1 7.2 6.07c3.16-4.14 8.54-6.36 14.8-6.36 7.44 0 13.56 2.81 17.31 8.08 3.3-4.78 9.27-8.08 18.54-8.08 12.85-.01 21.95 8.34 21.95 23.18z"/><path d="m481.57 610.56a9 9 0 0 1 -2 5.08c-4 5.43-12.68 8.53-21.6 8.53-17.81 0-29.54-11.14-29.54-28.45 0-17 11.54-28.7 27.91-28.7 15.53 0 26.48 10.4 26.48 24.8 0 5.72-2.46 8.29-7.69 8.29h-32c.94 6.51 7.05 10.5 15.54 10.5a16.33 16.33 0 0 0 11-3.65c2.07-1.28 3.9-2.22 6.27-2.22 3.85 0 5.63 2.26 5.63 5.82zm-38.37-21.8h25.05c-1-6.06-5.42-10.06-12.47-10.06-6.86 0-11.64 4-12.58 10.06z"/><path d="m492.27 616.23v-58c0-4.54 3.05-7.7 7.44-7.7s7.35 3.16 7.35 7.7v58c0 4.54-3 7.7-7.35 7.7s-7.44-3.16-7.44-7.7z"/><path d="m516.12 595.62c0-17.36 12.28-28.6 29.25-28.6s29.24 11.24 29.24 28.6-12.28 28.6-29.24 28.6-29.25-11.22-29.25-28.6zm43.3 0c0-8.93-5.82-15-14-15s-14.06 6.11-14.06 15 5.82 15 14.06 15 14-6.07 14-15z"/><path d="m636.1 590.19v26c0 4.44-3.1 7.7-7.39 7.7s-7.4-3.36-7.4-7.7v-23.68c0-8-4.19-12.08-11-12.08s-11.34 4.44-11.83 11.24v24.56c0 4.54-3.06 7.7-7.35 7.7s-7.45-3.21-7.45-7.7v-41.23c0-4.54 3.11-7.7 7.45-7.7a7 7 0 0 1 7.2 6.12c3.3-4.15 9-6.41 15.48-6.41 13.27-.01 22.29 8.34 22.29 23.18z"/></g></g></svg>