<svg viewBox="0 0 108 130" xmlns="http://www.w3.org/2000/svg"><g stroke-linecap="round" stroke-linejoin="round" stroke-width="3"><g stroke="#010101"><path d="m63.07 45.42c0 23.15-3.73 41.91-8.34 41.91s-8.33-18.76-8.33-41.91 3.74-41.92 8.33-41.92 8.34 18.77 8.34 41.92zm-8.34 41.91c-13.87 0-25.12-18.76-25.12-41.91s11.25-41.92 25.12-41.92 25.13 18.77 25.13 41.92-11.25 41.91-25.13 41.91zm41.92-41.91a41.92 41.92 0 1 1 -41.92-41.92 41.91 41.91 0 0 1 41.92 41.92z" fill="#5f5"/><path d="m96.62 59.47a31 31 0 0 0 -9.62-19.57l-60.44 27.47c6.44 10.73 17.77 19.93 39.17 19.95h.08c27.09 0 31.48-21.07 30.81-27.85z" fill="#5f5"/><path d="m87 39.9c9.59 19.57 1.4 34.13-9.53 38-12.91 4.52-26.87 1.36-36.68-17z" fill="#ff3801"/></g><g stroke="#110b15"><path d="m76.59 65a3.85 3.85 0 1 1 -6.94 3.32" fill="none"/><circle cx="62.03" cy="62.52" r="1.93" transform="matrix(.94176436 -.33627354 .33627354 .94176436 -17.42 24.5)"/><circle cx="76.62" cy="55.55" r="1.93" transform="matrix(.94176436 -.33627354 .33627354 .94176436 -14.22 29)"/></g></g></svg>