<svg viewBox="0 0 650 650" xmlns="http://www.w3.org/2000/svg"><g stroke="#000" stroke-linecap="round" stroke-linejoin="round" stroke-width="5"><path d="m321.62 488.86c126.4 0 228.9-102.48 228.9-228.89s-102.52-228.89-228.9-228.89-228.9 102.48-228.9 228.92 102.48 228.86 228.9 228.86z" fill="#ff5"/><g fill="none"><path d="m344.28 248.3a22.67 22.67 0 1 0 -45.34 0"/><path d="m229.24 196.56a22.67 22.67 0 1 1 45.34 0"/><path d="m414 196.56a22.67 22.67 0 1 0 -45.34 0"/><path d="m414 136.14-52.22-30.26"/><path d="m229.24 136.14 52.2-30.26"/></g><path d="m210.64 62.67c11.91 11.91 2.25 40.91-21.58 64.74s-52.81 33.49-64.74 21.59l-31.6-117.92z" fill="#ff3801"/><g fill="#00bf3a"><path d="m515.2 30.73-15.38 47.27h-49.7l40.2 29.19-15.32 47.25 40.21-29.19 40.16 29.19-15.37-47.26 40.21-29.18h-49.68z"/><path d="m207.67 295.85-15.33 47.26h-49.68l40.16 29.19-15.33 47.26 40.18-29.2 40.18 29.2-15.35-47.26 40.2-29.19h-49.7z"/><path d="m464 365.15-15.4 47.26h-49.68l40.2 29.19-15.37 47.26 40.25-29.19 40.2 29.19-15.4-47.26 40.2-29.19h-49.7z"/></g><circle cx="92.72" cy="31.08" fill="#fff" r="24.38"/><path d="m327.11 372.45c26.71 0 34.12-6.42 34.12-16.07s-14.86-18.82-34.08-18.82c19.24 0 34.12-9.19 34.12-18.82s-4.07-16.07-34.08-16.07" fill="#ff5"/><path d="m531.79 229.81a63.49 63.49 0 0 0 -45.2-18.72 54 54 0 0 0 -54 54 46.13 46.13 0 0 0 46.14 46.15 39.86 39.86 0 0 0 39.81-39.82 14.55 14.55 0 1 0 -29.09 0 10.73 10.73 0 0 1 -10.72 10.72 17.05 17.05 0 0 1 -17.05-17.05 25 25 0 0 1 24.95-24.95 34.88 34.88 0 0 1 34.78 34.86 47.21 47.21 0 0 1 -47.16 47.16h-113.65c-3 8.22-16.38 15.3-33.17 15.39 15.6.08 28.29 6.2 32.39 13.67h96.53c10.28 0 38.2-2 47.6-6a76.63 76.63 0 0 0 24.23-16.34 76 76 0 0 0 22.34-53.88 63.5 63.5 0 0 0 -18.73-45.19z" fill="#ff3801"/><path d="m118.86 560.11 35.37 43.66a13.57 13.57 0 0 1 3.42 9.23c0 6.67-5.73 11.79-13.33 11.79-5 0-9.06-2.22-13.16-7.17l-30-37.43-29.47 37.43c-3.76 4.78-7.69 7.17-13.16 7.17-7.52 0-13.25-5.12-13.25-11.79 0-3.67 1.2-6.32 3.59-9.23l35.29-43-35.29-42a13 13 0 0 1 -3.59-9.31c0-6.75 5.73-11.79 13.25-11.79 5.47 0 9.31 2.73 13.16 7.17l30 35.72 29.48-35.8c3.59-4.19 7.35-7.09 13.16-7.09 7.6 0 13.33 5 13.33 11.79a13 13 0 0 1 -3.42 9.23z" fill="#00bf3a"/><path d="m174.91 582.5c-7.94 0-13.67-5.47-13.67-13.33s5.73-13.25 13.67-13.25h45.09c7.95 0 13.67 5.47 13.67 13.25s-5.67 13.33-13.67 13.33z" fill="#fff"/><g fill="#ff3801"><path d="m391.55 514.31v96.21c0 8.38-5.72 14.27-13.41 14.27-7.87 0-13.42-6.23-13.42-14.27v-60.92l-23.72 45.12c-5.9 11-9.23 14.35-16.33 14.35s-10.34-3.33-16.23-14.35l-23.79-45.12v60.92c0 8-5.55 14.27-13.41 14.27-7.69 0-13.33-5.89-13.33-14.27v-96.21c0-10.43 6.58-16.66 15.72-16.66 8.55 0 12.65 4.18 17.6 13.15l33.5 62.3 33.41-62.3c5-9.14 9.23-13.15 17.6-13.15 9.26 0 15.81 6.23 15.81 16.66z"/><path d="m511.87 605c0 4.44-1.36 7.86-4.35 11.62-3.68 4.7-10.68 8-17.26 8-8.38 0-15-3.84-19-10.34-6.5 6.93-16.07 10.77-27.09 10.77-19.4 0-32.39-10.94-32.39-27.43 0-14.7 8.46-23.84 25.89-27.86l21.37-5c5.81-1.28 7.94-3.41 7.94-7.43 0-5.64-4.7-9.06-12.64-9.06-7 0-14.7 3.42-21 8.89-5.22 3.93-8.12 5.47-11.54 5.47-6.24 0-10.42-3.76-10.42-9.49 0-4 1.45-7.69 4.7-11.28 8.54-10 22.64-15.63 38.88-15.63 23.66 0 37.68 11.28 37.68 33.06v36.49c0 2.65.94 4.62 3.59 4.62a5.21 5.21 0 0 0 4-2 6 6 0 0 1 4.7-2c4.07-.06 6.94 3.7 6.94 8.6zm-44.77-15v-10.49a22 22 0 0 1 -8.1 3.49l-8.46 1.88c-7.69 1.62-11.62 5.38-11.62 10.68 0 5.47 4.87 9.14 12.13 9.14 9.21.01 16.05-6.22 16.05-14.7z"/><path d="m525 612c-3.41-3.42-5.55-7.78-5.55-12.05 0-6.15 4-10.17 10.08-10.17 3.85 0 7 1.37 12 5.64 7.26 6.07 13.41 8.63 21.27 8.63s12.2-2.84 12.2-7.97c0-5-3.16-7.86-10.25-9.31l-14.1-3.08c-18.2-3.93-27.86-13.58-27.86-27.85 0-18.29 14.61-29.65 38.2-29.65 11.7 0 23.15 3.24 30.25 8.37 5.47 4.1 8.63 9.23 8.63 14.61 0 5.73-4.19 9.83-10.09 9.83-4 0-7.52-2.14-12.81-6.15-5.9-4.45-11-6.16-16.58-6.16-7 0-11.19 2.74-11.19 7.35q0 6.4 10 8.46l15.21 3.25c18.29 3.93 27.09 13.07 27.09 27.94 0 19.65-15.29 31.62-40.42 31.62-14.9 0-29.08-5.22-36.08-13.31z"/></g></g></svg>