<svg viewBox="0 0 108 130" xmlns="http://www.w3.org/2000/svg"><g stroke="#000" stroke-linecap="round" stroke-linejoin="round" stroke-width="3"><path d="m54.4 87.52a40.83 40.83 0 1 0 -40.83-40.83 40.83 40.83 0 0 0 40.83 40.83z" fill="#ff5"/><g fill="none"><path d="m58.44 44.6a4 4 0 0 0 -8.09 0"/><path d="m37.92 35.37a4 4 0 0 1 8.09 0"/><path d="m70.88 35.37a4 4 0 0 0 -8.09 0"/><path d="m70.88 24.6-9.32-5.4"/><path d="m37.92 24.6 9.31-5.4"/></g><path d="m34.6 11.49c2.13 2.13.4 7.3-3.85 11.55s-9.42 6-11.55 3.85l-5.63-21z" fill="#ff3801"/><g fill="#00bf3a"><path d="m88.93 5.79-2.74 8.43h-8.87l7.17 5.21-2.73 8.43 7.17-5.21 7.16 5.21-2.73-8.43 7.17-5.21h-8.87z"/><path d="m34.07 53.09-2.73 8.43h-8.87l7.17 5.2-2.74 8.43 7.17-5.15 7.17 5.2-2.74-8.48 7.17-5.2h-8.86z"/><path d="m79.79 65.45-2.74 8.43h-8.86l7.17 5.21-2.74 8.43 7.17-5.21 7.21 5.21-2.74-8.43 7.17-5.21h-8.9z"/></g><circle cx="13.57" cy="5.86" fill="#fff" r="4.35"/><path d="m55.38 66.75c4.76 0 6.08-1.15 6.08-2.87s-2.65-3.35-6.08-3.35c3.43 0 6.08-1.64 6.08-3.36s-.72-2.87-6.08-2.87" fill="#ff5"/><path d="m91.89 41.31a11.32 11.32 0 0 0 -8.06-3.31 9.63 9.63 0 0 0 -9.64 9.64 8.23 8.23 0 0 0 8.23 8.23 7.11 7.11 0 0 0 7.1-7.1 2.6 2.6 0 1 0 -5.19 0 1.92 1.92 0 0 1 -1.91 1.91 3.06 3.06 0 0 1 -3-3 4.46 4.46 0 0 1 4.46-4.45 6.23 6.23 0 0 1 6.12 6.14 8.42 8.42 0 0 1 -8.42 8.41h-20.23c-.53 1.47-2.92 2.73-5.92 2.75 2.79 0 5 1.1 5.78 2.44h17.22c1.84 0 6.82-.36 8.49-1.07a13.78 13.78 0 0 0 4.33-2.9 13.57 13.57 0 0 0 4-9.61 11.32 11.32 0 0 0 -3.36-8.08z" fill="#ff3801"/></g></svg>