<svg xmlns="http://www.w3.org/2000/svg" viewBox="0 0 650 650">
  <defs>
    <style>
      .a {
        fill: #007f5b;
      }

      .a, .b, .c, .d, .e, .f {
        stroke: #010101;
      }

      .a, .b, .c, .d, .e, .f, .g, .h, .i {
        stroke-linecap: round;
        stroke-linejoin: round;
        stroke-width: 5px;
      }

      .b {
        fill: #00f4b4;
      }

      .c, .g {
        fill: none;
      }

      .d {
        fill: #fff;
      }

      .e {
        fill: #cbccbe;
      }

      .f {
        fill: #05cf9c;
      }

      .g, .h {
        stroke: #110b15;
      }

      .i {
        fill: #fa97ff;
        stroke: #000;
      }
    </style>
  </defs>
  <rect class="a" x="4.91" y="156.39" width="640.34" height="350.4"/>
  <rect class="b" x="4.91" y="5.67" width="640.34" height="350.4"/>
  <g>
    <line class="c" x1="645.25" y1="356.07" x2="4.91" y2="356.07"/>
    <line class="c" x1="645.25" y1="406.31" x2="4.91" y2="406.31"/>
    <line class="c" x1="645.25" y1="456.55" x2="4.91" y2="456.55"/>
    <line class="c" x1="645.25" y1="506.79" x2="4.91" y2="506.79"/>
  </g>
  <rect class="d" x="288.24" y="5.67" width="73.68" height="501.12"/>
  <rect class="e" x="288.24" y="356.07" width="73.68" height="150.72"/>
  <path d="M227.17,112.75l-44.8,59.56H201c9.12,0,15.83,6.3,15.83,15.16s-6.71,15.15-15.83,15.15H165.87V212H201c9.12,0,15.83,6.31,15.83,15.16s-6.71,15-15.83,15H165.87v16.1c0,15.43-8.45,25.62-21.06,25.62s-21.2-10.19-21.2-25.62v-16.1h-35c-9.25,0-16-6.3-16-15S79.35,212,88.6,212h35v-9.39h-35c-9.25,0-16-6.3-16-15.15s6.71-15.16,16-15.16h18.25L62.18,112.75A15.07,15.07,0,0,1,58.69,103c0-10.33,8.59-18.65,20.12-18.65,10.73,0,16.37,7.25,21.6,14.62l44.26,63,44.27-63c5.1-7.37,10.73-14.62,21.6-14.62,11.53,0,20,8.32,20,18.65A15,15,0,0,1,227.17,112.75Z"/>
  <g>
    <circle class="f" cx="503.27" cy="180.87" r="105.71" transform="translate(19.51 408.84) rotate(-45)"/>
    <path class="g" d="M529.91,210.62c0,10.31-11.93,18.66-26.64,18.66s-26.64-8.35-26.64-18.66"/>
    <circle class="h" cx="464.07" cy="163.21" r="9.34"/>
    <circle class="h" cx="542.46" cy="163.21" r="9.34"/>
  </g>
  <g>
    <path class="i" d="M231.41,410,153.48,521.91V599c0,16.58-10.77,27.85-27.18,27.85-16.23,0-27-11.27-27-27.85V522.08L21.37,410a23.32,23.32,0,0,1-4.44-13.67c0-13.16,10.76-23.75,25.46-23.75,13.67,0,20.51,9.06,27,18.63l57.08,82.54,56.91-82.54c6.67-9.57,13.33-18.63,27-18.63,14.7,0,25.47,10.59,25.47,23.75A23.32,23.32,0,0,1,231.41,410Z"/>
    <path class="i" d="M398.44,580.53c0,6-2.91,12.31-6.84,17.6-13.84,18.8-43.92,29.57-74.85,29.57-61.7,0-102.37-38.62-102.37-98.61,0-58.79,40-99.46,96.73-99.46,53.83,0,91.77,36.06,91.77,86,0,19.82-8.55,28.71-26.66,28.71H265.48c3.24,22.56,24.44,36.4,53.83,36.4,16.75,0,28.54-4.61,38.28-12.64,7.18-4.45,13.5-7.69,21.7-7.69C392.28,560.37,398.44,568.06,398.44,580.53ZM265.48,505h86.81c-3.42-21-18.8-34.86-43.23-34.86C285.3,470.13,268.72,484,265.48,505Z"/>
    <path class="i" d="M617.17,510v90.23c0,15.39-10.77,26.66-25.64,26.66-15.21,0-25.63-11.62-25.63-26.66V518c0-27.68-14.53-41.87-38.11-41.87-23.76,0-39.31,15.38-41,39v85.1c0,15.73-10.59,26.66-25.46,26.66-15,0-25.81-11.1-25.81-26.66V457.31c0-15.72,10.77-26.66,25.81-26.66,13.16,0,22.9,8.55,24.95,21.19,11.45-14.35,31.1-22.21,53.66-22.21C585.89,429.63,617.17,458.51,617.17,510Z"/>
  </g>
</svg>
