<svg xmlns="http://www.w3.org/2000/svg" viewBox="0 0 108 130">
  <defs>
    <style>
      .a {
        fill: #007f5b;
      }

      .a, .b, .c, .d, .e, .f {
        stroke: #010101;
      }

      .a, .b, .c, .d, .e, .f, .g, .h {
        stroke-linecap: round;
        stroke-linejoin: round;
        stroke-width: 3px;
      }

      .b {
        fill: #00f4b4;
      }

      .c, .g {
        fill: none;
      }

      .d {
        fill: #fff;
      }

      .e {
        fill: #cbccbe;
      }

      .f {
        fill: #05cf9c;
      }

      .g, .h {
        stroke: #110b15;
      }
    </style>
  </defs>
  <rect class="a" x="5.65" y="32.68" width="97.53" height="53.37"/>
  <rect class="b" x="5.65" y="9.72" width="97.53" height="53.37"/>
  <g>
    <line class="c" x1="103.18" y1="63.09" x2="5.65" y2="63.09"/>
    <line class="c" x1="103.18" y1="70.74" x2="5.65" y2="70.74"/>
    <line class="c" x1="103.18" y1="78.4" x2="5.65" y2="78.4"/>
    <line class="c" x1="103.18" y1="86.05" x2="5.65" y2="86.05"/>
  </g>
  <rect class="d" x="48.81" y="9.72" width="11.22" height="76.33"/>
  <rect class="e" x="48.81" y="63.09" width="11.22" height="22.96"/>
  <path d="M39.5,26,32.68,35.1h2.84a2.31,2.31,0,1,1,0,4.62H30.17v1.43h5.35a2.3,2.3,0,1,1,0,4.6H30.17V48.2c0,2.35-1.29,3.9-3.21,3.9s-3.23-1.55-3.23-3.9V45.75H18.4a2.3,2.3,0,1,1,0-4.6h5.33V39.72H18.4a2.31,2.31,0,1,1,0-4.62h2.78L14.37,26a2.34,2.34,0,0,1-.53-1.49,2.92,2.92,0,0,1,3.07-2.84c1.63,0,2.49,1.1,3.29,2.23l6.74,9.6,6.74-9.6c.78-1.13,1.64-2.23,3.29-2.23a2.89,2.89,0,0,1,3,2.84A2.28,2.28,0,0,1,39.5,26Z"/>
  <g>
    <circle class="f" cx="81.56" cy="36.41" r="16.1" transform="translate(-0.78 71.02) rotate(-46.86)"/>
    <path class="g" d="M85.61,40.94c0,1.57-1.81,2.84-4,2.84s-4.06-1.27-4.06-2.84"/>
    <circle class="h" cx="75.59" cy="33.72" r="1.42"/>
    <circle class="h" cx="87.53" cy="33.72" r="1.42"/>
  </g>
</svg>
