<svg viewBox="0 0 650 650" xmlns="http://www.w3.org/2000/svg"><g stroke-linecap="round" stroke-linejoin="round" stroke-width="5"><path d="m210.13 642.14 367.72-362.93h-312.85l194.3-275.21-385.3 362.9h297.2z" fill="#ffff64" stroke="#010101"/><g fill="#00f4b4" stroke="#000"><path d="m205.56 564.09c12.89 0 22.26 9.08 22.26 21.68s-9.37 21.38-22.26 21.38h-140.34c-12.89 0-22-9.08-22-21.68 0-8.2 4.25-14.79 9.52-20.8l106.67-125.39h-94.77c-12.89 0-22.41-8.79-22.41-21.38 0-12.75 9.52-21.68 22.41-21.68h138.13c12.6 0 22 9.08 22 21.68 0 7-2.93 13.76-9.37 21.24l-105.47 125z"/><path d="m416.73 576.68c0 7.62-2.34 13.48-7.47 19.93-6.3 8-18.31 13.77-29.59 13.77-14.35 0-25.78-6.6-32.52-17.73-11.13 11.87-27.54 18.46-46.43 18.46-33.25 0-55.52-18.75-55.52-47 0-25.2 14.5-40.87 44.38-47.76l36.63-8.64c10-2.2 13.62-5.86 13.62-12.74 0-9.67-8.06-15.53-21.68-15.53-12 0-25.2 5.86-36 15.23-8.93 6.74-13.91 9.38-19.77 9.38-10.7 0-17.87-6.45-17.87-16.26 0-6.89 2.49-13.19 8.05-19.34 14.65-17.14 38.82-26.8 66.65-26.8 40.58 0 64.6 19.33 64.6 56.69v62.54c0 4.54 1.62 7.91 6.16 7.91 2.93 0 5-1.31 6.88-3.37a10.27 10.27 0 0 1 8.06-3.51c6.84-.02 11.82 6.42 11.82 14.77zm-76.73-25.63v-18.05c-3.23 2.49-7.92 4.54-13.92 6l-14.5 3.22c-13.19 2.78-19.92 9.23-19.92 18.31 0 9.38 8.34 15.67 20.8 15.67 15.8.04 27.54-10.65 27.54-25.15z"/><path d="m604 526.59c0 51-33.84 85-78.37 85-20.8 0-36.48-5.42-48.2-17.73v29.59c0 13.48-8.93 22.85-21.82 22.85-13 0-22.12-9.37-22.12-22.85v-158c0-13.48 9.08-22.86 22.12-22.86 11.57 0 19.92 7.48 21.53 18.61 11.43-12.6 28.27-19.48 48.49-19.48 44.49-.09 78.37 33.89 78.37 84.87zm-45.12 0c0-27.1-17.58-44.68-41.16-44.68-24.47 0-41 19.19-41 44.68 0 25.34 16.55 44.67 41 44.67 23.54 0 41.12-17.57 41.12-44.67z"/></g></g></svg>